G04 #@! TF.GenerationSoftware,KiCad,Pcbnew,(5.1.5)-3*
G04 #@! TF.CreationDate,2020-05-01T09:54:31-05:00*
G04 #@! TF.ProjectId,I2CSensors,49324353-656e-4736-9f72-732e6b696361,rev?*
G04 #@! TF.SameCoordinates,Original*
G04 #@! TF.FileFunction,Copper,L1,Top*
G04 #@! TF.FilePolarity,Positive*
%FSLAX46Y46*%
G04 Gerber Fmt 4.6, Leading zero omitted, Abs format (unit mm)*
G04 Created by KiCad (PCBNEW (5.1.5)-3) date 2020-05-01 09:54:31*
%MOMM*%
%LPD*%
G04 APERTURE LIST*
%ADD10C,0.100000*%
%ADD11C,0.910000*%
%ADD12R,1.400000X0.800000*%
%ADD13R,0.230000X0.350000*%
%ADD14R,0.350000X0.230000*%
%ADD15O,1.000000X1.000000*%
%ADD16R,1.000000X1.000000*%
%ADD17R,1.000000X1.500000*%
%ADD18R,1.500000X1.000000*%
%ADD19R,0.350000X0.500000*%
%ADD20R,0.600000X1.000000*%
%ADD21C,0.710000*%
%ADD22C,0.700000*%
%ADD23C,1.000000*%
%ADD24C,0.200000*%
%ADD25C,0.300000*%
%ADD26C,0.203200*%
%ADD27C,0.254000*%
G04 APERTURE END LIST*
D10*
G36*
X117900000Y-83500000D02*
G01*
X117900000Y-84700000D01*
X116500000Y-84700000D01*
X116500000Y-83500000D01*
X116800000Y-83200000D01*
X117600000Y-83200000D01*
X117900000Y-83500000D01*
G37*
G36*
X124000000Y-83500000D02*
G01*
X124000000Y-84700000D01*
X122600000Y-84700000D01*
X122600000Y-83500000D01*
X122900000Y-83200000D01*
X123700000Y-83200000D01*
X124000000Y-83500000D01*
G37*
G36*
X121900000Y-83500000D02*
G01*
X121900000Y-84700000D01*
X120500000Y-84700000D01*
X120500000Y-83500000D01*
X120800000Y-83200000D01*
X121600000Y-83200000D01*
X121900000Y-83500000D01*
G37*
G36*
X119900000Y-83500000D02*
G01*
X119900000Y-84700000D01*
X118500000Y-84700000D01*
X118500000Y-83500000D01*
X118800000Y-83200000D01*
X119600000Y-83200000D01*
X119900000Y-83500000D01*
G37*
G36*
X105300000Y-90600000D02*
G01*
X105800000Y-90600000D01*
X105800000Y-91200000D01*
X105300000Y-91200000D01*
X105300000Y-90600000D01*
G37*
G36*
X127000000Y-89800000D02*
G01*
X127000000Y-89300000D01*
X127600000Y-89300000D01*
X127600000Y-89800000D01*
X127000000Y-89800000D01*
G37*
G36*
X124100000Y-89800000D02*
G01*
X124100000Y-89300000D01*
X124700000Y-89300000D01*
X124700000Y-89800000D01*
X124100000Y-89800000D01*
G37*
G36*
X107632000Y-88008000D02*
G01*
X107632000Y-86808000D01*
X109032000Y-86808000D01*
X109032000Y-88008000D01*
X108732000Y-88308000D01*
X107932000Y-88308000D01*
X107632000Y-88008000D01*
G37*
G36*
X102432000Y-88008000D02*
G01*
X102432000Y-86808000D01*
X103832000Y-86808000D01*
X103832000Y-88008000D01*
X103532000Y-88308000D01*
X102732000Y-88308000D01*
X102432000Y-88008000D01*
G37*
G36*
X115900000Y-83500000D02*
G01*
X115900000Y-84700000D01*
X114500000Y-84700000D01*
X114500000Y-83500000D01*
X114800000Y-83200000D01*
X115600000Y-83200000D01*
X115900000Y-83500000D01*
G37*
G36*
X114700000Y-87100000D02*
G01*
X115900000Y-87100000D01*
X115900000Y-88100000D01*
X114700000Y-88100000D01*
X114500000Y-87900000D01*
X114500000Y-87300000D01*
X114700000Y-87100000D01*
G37*
G36*
X114700000Y-89100000D02*
G01*
X115900000Y-89100000D01*
X115900000Y-90100000D01*
X114700000Y-90100000D01*
X114500000Y-89900000D01*
X114500000Y-89300000D01*
X114700000Y-89100000D01*
G37*
G36*
X113500000Y-91100000D02*
G01*
X114700000Y-91100000D01*
X114700000Y-92100000D01*
X113500000Y-92100000D01*
X113300000Y-91900000D01*
X113300000Y-91300000D01*
X113500000Y-91100000D01*
G37*
D11*
X117200000Y-83900000D03*
X117200000Y-84300000D03*
D12*
X117200000Y-85100000D03*
D11*
X123300000Y-83900000D03*
X123300000Y-84300000D03*
D12*
X123300000Y-85100000D03*
D13*
X121085000Y-89725000D03*
X120655000Y-89725000D03*
X120225000Y-89725000D03*
X119795000Y-89725000D03*
X119365000Y-89725000D03*
X118935000Y-89725000D03*
X118505000Y-89725000D03*
X118075000Y-89725000D03*
X121085000Y-87275000D03*
X120655000Y-87275000D03*
X120225000Y-87275000D03*
X119795000Y-87275000D03*
X119365000Y-87275000D03*
X118935000Y-87275000D03*
X118505000Y-87275000D03*
D14*
X121055000Y-89145000D03*
X118105000Y-89145000D03*
X121055000Y-88715000D03*
X118105000Y-88715000D03*
X121055000Y-88285000D03*
X118105000Y-88285000D03*
X121055000Y-87855000D03*
X118105000Y-87855000D03*
D13*
X118075000Y-87275000D03*
D11*
X121200000Y-83900000D03*
X121200000Y-84300000D03*
D12*
X121200000Y-85100000D03*
D11*
X119200000Y-83900000D03*
X119200000Y-84300000D03*
D12*
X119200000Y-85100000D03*
D15*
X112032000Y-84817000D03*
X112032000Y-86087000D03*
X112032000Y-87357000D03*
D16*
X112032000Y-88627000D03*
G04 #@! TA.AperFunction,SMDPad,CuDef*
D10*
G36*
X105450000Y-91650000D02*
G01*
X104900000Y-91650000D01*
X104900000Y-91649398D01*
X104875466Y-91649398D01*
X104826635Y-91644588D01*
X104778510Y-91635016D01*
X104731555Y-91620772D01*
X104686222Y-91601995D01*
X104642949Y-91578864D01*
X104602150Y-91551604D01*
X104564221Y-91520476D01*
X104529524Y-91485779D01*
X104498396Y-91447850D01*
X104471136Y-91407051D01*
X104448005Y-91363778D01*
X104429228Y-91318445D01*
X104414984Y-91271490D01*
X104405412Y-91223365D01*
X104400602Y-91174534D01*
X104400602Y-91150000D01*
X104400000Y-91150000D01*
X104400000Y-90650000D01*
X104400602Y-90650000D01*
X104400602Y-90625466D01*
X104405412Y-90576635D01*
X104414984Y-90528510D01*
X104429228Y-90481555D01*
X104448005Y-90436222D01*
X104471136Y-90392949D01*
X104498396Y-90352150D01*
X104529524Y-90314221D01*
X104564221Y-90279524D01*
X104602150Y-90248396D01*
X104642949Y-90221136D01*
X104686222Y-90198005D01*
X104731555Y-90179228D01*
X104778510Y-90164984D01*
X104826635Y-90155412D01*
X104875466Y-90150602D01*
X104900000Y-90150602D01*
X104900000Y-90150000D01*
X105450000Y-90150000D01*
X105450000Y-91650000D01*
G37*
G04 #@! TD.AperFunction*
D17*
X106200000Y-90900000D03*
G04 #@! TA.AperFunction,SMDPad,CuDef*
D10*
G36*
X107500000Y-90150602D02*
G01*
X107524534Y-90150602D01*
X107573365Y-90155412D01*
X107621490Y-90164984D01*
X107668445Y-90179228D01*
X107713778Y-90198005D01*
X107757051Y-90221136D01*
X107797850Y-90248396D01*
X107835779Y-90279524D01*
X107870476Y-90314221D01*
X107901604Y-90352150D01*
X107928864Y-90392949D01*
X107951995Y-90436222D01*
X107970772Y-90481555D01*
X107985016Y-90528510D01*
X107994588Y-90576635D01*
X107999398Y-90625466D01*
X107999398Y-90650000D01*
X108000000Y-90650000D01*
X108000000Y-91150000D01*
X107999398Y-91150000D01*
X107999398Y-91174534D01*
X107994588Y-91223365D01*
X107985016Y-91271490D01*
X107970772Y-91318445D01*
X107951995Y-91363778D01*
X107928864Y-91407051D01*
X107901604Y-91447850D01*
X107870476Y-91485779D01*
X107835779Y-91520476D01*
X107797850Y-91551604D01*
X107757051Y-91578864D01*
X107713778Y-91601995D01*
X107668445Y-91620772D01*
X107621490Y-91635016D01*
X107573365Y-91644588D01*
X107524534Y-91649398D01*
X107500000Y-91649398D01*
X107500000Y-91650000D01*
X106950000Y-91650000D01*
X106950000Y-90150000D01*
X107500000Y-90150000D01*
X107500000Y-90150602D01*
G37*
G04 #@! TD.AperFunction*
G04 #@! TA.AperFunction,SMDPad,CuDef*
G36*
X128050000Y-89650000D02*
G01*
X128050000Y-90200000D01*
X128049398Y-90200000D01*
X128049398Y-90224534D01*
X128044588Y-90273365D01*
X128035016Y-90321490D01*
X128020772Y-90368445D01*
X128001995Y-90413778D01*
X127978864Y-90457051D01*
X127951604Y-90497850D01*
X127920476Y-90535779D01*
X127885779Y-90570476D01*
X127847850Y-90601604D01*
X127807051Y-90628864D01*
X127763778Y-90651995D01*
X127718445Y-90670772D01*
X127671490Y-90685016D01*
X127623365Y-90694588D01*
X127574534Y-90699398D01*
X127550000Y-90699398D01*
X127550000Y-90700000D01*
X127050000Y-90700000D01*
X127050000Y-90699398D01*
X127025466Y-90699398D01*
X126976635Y-90694588D01*
X126928510Y-90685016D01*
X126881555Y-90670772D01*
X126836222Y-90651995D01*
X126792949Y-90628864D01*
X126752150Y-90601604D01*
X126714221Y-90570476D01*
X126679524Y-90535779D01*
X126648396Y-90497850D01*
X126621136Y-90457051D01*
X126598005Y-90413778D01*
X126579228Y-90368445D01*
X126564984Y-90321490D01*
X126555412Y-90273365D01*
X126550602Y-90224534D01*
X126550602Y-90200000D01*
X126550000Y-90200000D01*
X126550000Y-89650000D01*
X128050000Y-89650000D01*
G37*
G04 #@! TD.AperFunction*
D18*
X127300000Y-88900000D03*
G04 #@! TA.AperFunction,SMDPad,CuDef*
D10*
G36*
X126550602Y-87600000D02*
G01*
X126550602Y-87575466D01*
X126555412Y-87526635D01*
X126564984Y-87478510D01*
X126579228Y-87431555D01*
X126598005Y-87386222D01*
X126621136Y-87342949D01*
X126648396Y-87302150D01*
X126679524Y-87264221D01*
X126714221Y-87229524D01*
X126752150Y-87198396D01*
X126792949Y-87171136D01*
X126836222Y-87148005D01*
X126881555Y-87129228D01*
X126928510Y-87114984D01*
X126976635Y-87105412D01*
X127025466Y-87100602D01*
X127050000Y-87100602D01*
X127050000Y-87100000D01*
X127550000Y-87100000D01*
X127550000Y-87100602D01*
X127574534Y-87100602D01*
X127623365Y-87105412D01*
X127671490Y-87114984D01*
X127718445Y-87129228D01*
X127763778Y-87148005D01*
X127807051Y-87171136D01*
X127847850Y-87198396D01*
X127885779Y-87229524D01*
X127920476Y-87264221D01*
X127951604Y-87302150D01*
X127978864Y-87342949D01*
X128001995Y-87386222D01*
X128020772Y-87431555D01*
X128035016Y-87478510D01*
X128044588Y-87526635D01*
X128049398Y-87575466D01*
X128049398Y-87600000D01*
X128050000Y-87600000D01*
X128050000Y-88150000D01*
X126550000Y-88150000D01*
X126550000Y-87600000D01*
X126550602Y-87600000D01*
G37*
G04 #@! TD.AperFunction*
G04 #@! TA.AperFunction,SMDPad,CuDef*
G36*
X125150000Y-89650000D02*
G01*
X125150000Y-90200000D01*
X125149398Y-90200000D01*
X125149398Y-90224534D01*
X125144588Y-90273365D01*
X125135016Y-90321490D01*
X125120772Y-90368445D01*
X125101995Y-90413778D01*
X125078864Y-90457051D01*
X125051604Y-90497850D01*
X125020476Y-90535779D01*
X124985779Y-90570476D01*
X124947850Y-90601604D01*
X124907051Y-90628864D01*
X124863778Y-90651995D01*
X124818445Y-90670772D01*
X124771490Y-90685016D01*
X124723365Y-90694588D01*
X124674534Y-90699398D01*
X124650000Y-90699398D01*
X124650000Y-90700000D01*
X124150000Y-90700000D01*
X124150000Y-90699398D01*
X124125466Y-90699398D01*
X124076635Y-90694588D01*
X124028510Y-90685016D01*
X123981555Y-90670772D01*
X123936222Y-90651995D01*
X123892949Y-90628864D01*
X123852150Y-90601604D01*
X123814221Y-90570476D01*
X123779524Y-90535779D01*
X123748396Y-90497850D01*
X123721136Y-90457051D01*
X123698005Y-90413778D01*
X123679228Y-90368445D01*
X123664984Y-90321490D01*
X123655412Y-90273365D01*
X123650602Y-90224534D01*
X123650602Y-90200000D01*
X123650000Y-90200000D01*
X123650000Y-89650000D01*
X125150000Y-89650000D01*
G37*
G04 #@! TD.AperFunction*
D18*
X124400000Y-88900000D03*
G04 #@! TA.AperFunction,SMDPad,CuDef*
D10*
G36*
X123650602Y-87600000D02*
G01*
X123650602Y-87575466D01*
X123655412Y-87526635D01*
X123664984Y-87478510D01*
X123679228Y-87431555D01*
X123698005Y-87386222D01*
X123721136Y-87342949D01*
X123748396Y-87302150D01*
X123779524Y-87264221D01*
X123814221Y-87229524D01*
X123852150Y-87198396D01*
X123892949Y-87171136D01*
X123936222Y-87148005D01*
X123981555Y-87129228D01*
X124028510Y-87114984D01*
X124076635Y-87105412D01*
X124125466Y-87100602D01*
X124150000Y-87100602D01*
X124150000Y-87100000D01*
X124650000Y-87100000D01*
X124650000Y-87100602D01*
X124674534Y-87100602D01*
X124723365Y-87105412D01*
X124771490Y-87114984D01*
X124818445Y-87129228D01*
X124863778Y-87148005D01*
X124907051Y-87171136D01*
X124947850Y-87198396D01*
X124985779Y-87229524D01*
X125020476Y-87264221D01*
X125051604Y-87302150D01*
X125078864Y-87342949D01*
X125101995Y-87386222D01*
X125120772Y-87431555D01*
X125135016Y-87478510D01*
X125144588Y-87526635D01*
X125149398Y-87575466D01*
X125149398Y-87600000D01*
X125150000Y-87600000D01*
X125150000Y-88150000D01*
X123650000Y-88150000D01*
X123650000Y-87600000D01*
X123650602Y-87600000D01*
G37*
G04 #@! TD.AperFunction*
D19*
X106650000Y-88393000D03*
X106000000Y-88393000D03*
X105350000Y-88393000D03*
X104700000Y-88393000D03*
X104700000Y-86343000D03*
X105350000Y-86343000D03*
X106000000Y-86343000D03*
X106650000Y-86343000D03*
D11*
X108332000Y-87608000D03*
X108332000Y-87208000D03*
D12*
X108332000Y-86408000D03*
D11*
X103132000Y-87608000D03*
X103132000Y-87208000D03*
D12*
X103132000Y-86408000D03*
D11*
X115200000Y-83900000D03*
X115200000Y-84300000D03*
D12*
X115200000Y-85100000D03*
D20*
X116200000Y-87600000D03*
D21*
X115375000Y-87600000D03*
X115025000Y-87600000D03*
D20*
X116200000Y-89600000D03*
D21*
X115375000Y-89600000D03*
X115025000Y-89600000D03*
D20*
X115000000Y-91600000D03*
D21*
X114175000Y-91600000D03*
X113825000Y-91600000D03*
D22*
X104000000Y-89700000D03*
D23*
X108500000Y-84700000D03*
X107000000Y-84700000D03*
X105500000Y-84700000D03*
D22*
X127300032Y-88900000D03*
D23*
X116800000Y-91099991D03*
D22*
X124400000Y-88900000D03*
D23*
X118200000Y-91100000D03*
D24*
X119200000Y-85100000D02*
X119200000Y-86000000D01*
X118935000Y-86265000D02*
X118935000Y-87275000D01*
X119200000Y-86000000D02*
X118935000Y-86265000D01*
D25*
X124600000Y-82800000D02*
X125900000Y-84100000D01*
X125900000Y-86200000D02*
X127300000Y-87600000D01*
X125900000Y-84100000D02*
X125900000Y-86200000D01*
X125800000Y-86200000D02*
X124400000Y-87600000D01*
D24*
X125900000Y-86200000D02*
X125800000Y-86200000D01*
X119200000Y-85100000D02*
X119200000Y-82800000D01*
X119365000Y-86739300D02*
X120004300Y-86100000D01*
X119365000Y-87275000D02*
X119365000Y-86739300D01*
X120004300Y-86100000D02*
X121000000Y-86100000D01*
X121200000Y-85900000D02*
X121200000Y-85100000D01*
X121000000Y-86100000D02*
X121200000Y-85900000D01*
X121200000Y-82800000D02*
X121200000Y-85100000D01*
D25*
X121200000Y-82800000D02*
X124600000Y-82800000D01*
X119200000Y-82800000D02*
X121200000Y-82800000D01*
D24*
X115200000Y-85100000D02*
X115200000Y-82800000D01*
D25*
X115200000Y-82800000D02*
X119200000Y-82800000D01*
X108332000Y-87108000D02*
X108332000Y-86408000D01*
X112032000Y-88627000D02*
X109851000Y-88627000D01*
X103132000Y-87108000D02*
X103132000Y-86408000D01*
X109851000Y-91049000D02*
X108400000Y-92500000D01*
X103132000Y-91632000D02*
X103132000Y-87108000D01*
X109851000Y-88627000D02*
X109851000Y-91049000D01*
X104000000Y-92500000D02*
X103132000Y-91632000D01*
X107500000Y-90900000D02*
X107500000Y-91647592D01*
X108400000Y-92500000D02*
X107500000Y-92500000D01*
X107500000Y-91647592D02*
X107500000Y-92500000D01*
X107500000Y-92500000D02*
X104000000Y-92500000D01*
D24*
X104700000Y-87676000D02*
X104700000Y-87943000D01*
X103432000Y-86408000D02*
X104700000Y-87676000D01*
X104700000Y-87943000D02*
X104700000Y-88393000D01*
X103132000Y-86408000D02*
X103432000Y-86408000D01*
X105350000Y-87026000D02*
X105350000Y-86343000D01*
X104700000Y-87676000D02*
X105350000Y-87026000D01*
X106000000Y-87676000D02*
X106000000Y-88393000D01*
X105350000Y-87026000D02*
X106000000Y-87676000D01*
X118480000Y-88285000D02*
X118105000Y-88285000D01*
X119365000Y-87650000D02*
X118730000Y-88285000D01*
X118730000Y-88285000D02*
X118480000Y-88285000D01*
X119365000Y-87275000D02*
X119365000Y-87650000D01*
D25*
X115200000Y-82800000D02*
X111200000Y-82800000D01*
X111200000Y-82800000D02*
X109851000Y-84149000D01*
X109851000Y-84149000D02*
X109851000Y-88627000D01*
X109332000Y-86408000D02*
X108332000Y-86408000D01*
X109851000Y-84149000D02*
X109851000Y-85889000D01*
X109851000Y-85889000D02*
X109332000Y-86408000D01*
D24*
X121200000Y-85100000D02*
X121200000Y-84300000D01*
X117414999Y-86600000D02*
X118089999Y-87275000D01*
X115200000Y-85100000D02*
X115200000Y-85400000D01*
X116400000Y-86600000D02*
X117414999Y-86600000D01*
X115200000Y-85400000D02*
X116400000Y-86600000D01*
X105350000Y-88393000D02*
X105350000Y-89350000D01*
X104900000Y-89800000D02*
X104900000Y-90900000D01*
X105350000Y-89350000D02*
X104900000Y-89800000D01*
X104900000Y-90900000D02*
X104900000Y-90600000D01*
X104900000Y-90600000D02*
X104000000Y-89700000D01*
X123000000Y-90200000D02*
X124400000Y-90200000D01*
X121055000Y-89145000D02*
X121945000Y-89145000D01*
X121945000Y-89145000D02*
X123000000Y-90200000D01*
X120225000Y-87275000D02*
X120655000Y-87275000D01*
X120655000Y-87275000D02*
X121085000Y-87275000D01*
X121085000Y-87275000D02*
X122075000Y-87275000D01*
X121055000Y-87855000D02*
X121055000Y-88285000D01*
X121055000Y-88285000D02*
X121055000Y-88715000D01*
X121055000Y-88715000D02*
X121055000Y-89145000D01*
X121085000Y-87825000D02*
X121055000Y-87855000D01*
X121085000Y-87275000D02*
X121085000Y-87825000D01*
X121055000Y-88285000D02*
X121985000Y-88285000D01*
X122075000Y-88195000D02*
X121985000Y-88285000D01*
X122075000Y-87275000D02*
X122075000Y-88195000D01*
X107149998Y-83349998D02*
X108000001Y-84200001D01*
X108000001Y-84200001D02*
X108500000Y-84700000D01*
X104700000Y-84037996D02*
X105387998Y-83349998D01*
X105387998Y-83349998D02*
X107149998Y-83349998D01*
X104700000Y-86343000D02*
X104700000Y-84037996D01*
X123300000Y-86100000D02*
X122900000Y-86500000D01*
X119795000Y-86874998D02*
X119795000Y-86900000D01*
X123300000Y-85100000D02*
X123300000Y-86100000D01*
X122900000Y-86500000D02*
X120169998Y-86500000D01*
X119795000Y-86900000D02*
X119795000Y-87275000D01*
X120169998Y-86500000D02*
X119795000Y-86874998D01*
X123300000Y-83900000D02*
X123300000Y-85100000D01*
X117500000Y-86100000D02*
X117200000Y-85800000D01*
X117200000Y-85800000D02*
X117200000Y-85100000D01*
X118505000Y-87005000D02*
X118490001Y-86990001D01*
X118505000Y-87275000D02*
X118505000Y-87005000D01*
X118490001Y-86990001D02*
X118490001Y-86600000D01*
X118490001Y-86600000D02*
X117990001Y-86100000D01*
X117990001Y-86100000D02*
X117500000Y-86100000D01*
X117200000Y-85100000D02*
X117200000Y-84300000D01*
X117730000Y-87855000D02*
X117475000Y-87600000D01*
X118105000Y-87855000D02*
X117730000Y-87855000D01*
X117475000Y-87600000D02*
X116200000Y-87600000D01*
X116200000Y-87600000D02*
X115500000Y-87600000D01*
X116200000Y-87600000D02*
X115025000Y-87600000D01*
X112517000Y-84817000D02*
X112032000Y-84817000D01*
X115025000Y-87600000D02*
X115025000Y-87325000D01*
X115025000Y-87325000D02*
X112517000Y-84817000D01*
X106650000Y-85050000D02*
X107000000Y-84700000D01*
X106650000Y-86343000D02*
X106650000Y-85050000D01*
X117585000Y-88715000D02*
X117730000Y-88715000D01*
X117730000Y-88715000D02*
X118105000Y-88715000D01*
X116700000Y-89600000D02*
X117585000Y-88715000D01*
X116200000Y-89600000D02*
X116700000Y-89600000D01*
X112887000Y-86087000D02*
X112032000Y-86087000D01*
X114000000Y-87200000D02*
X112887000Y-86087000D01*
X116200000Y-89600000D02*
X114900000Y-89600000D01*
X114000000Y-88700000D02*
X114000000Y-87200000D01*
X114900000Y-89600000D02*
X114000000Y-88700000D01*
X105500000Y-85500000D02*
X105500000Y-84700000D01*
X106000000Y-86343000D02*
X106000000Y-86000000D01*
X106000000Y-86000000D02*
X105500000Y-85500000D01*
X106650000Y-88393000D02*
X106650000Y-89150000D01*
X106200000Y-89600000D02*
X106200000Y-90900000D01*
X106650000Y-89150000D02*
X106200000Y-89600000D01*
X116800000Y-90392885D02*
X116800000Y-91099991D01*
X117730000Y-89145000D02*
X116800000Y-90075000D01*
X118105000Y-89145000D02*
X117730000Y-89145000D01*
X116800000Y-90075000D02*
X116800000Y-90392885D01*
X118075000Y-89725000D02*
X118075000Y-90975000D01*
X118075000Y-90975000D02*
X118200000Y-91100000D01*
D26*
X118935000Y-89725000D02*
X118505000Y-89725000D01*
D24*
X115000000Y-91600000D02*
X113825000Y-91600000D01*
X115200000Y-92000000D02*
X115000000Y-91800000D01*
X115000000Y-91800000D02*
X115000000Y-91600000D01*
X118935000Y-89725000D02*
X118935000Y-90235000D01*
X119200000Y-91600000D02*
X118800000Y-92000000D01*
X118935000Y-90235000D02*
X119200000Y-90500000D01*
X119200000Y-90500000D02*
X119200000Y-91600000D01*
X118800000Y-92000000D02*
X115200000Y-92000000D01*
D27*
G36*
X130044801Y-93144800D02*
G01*
X100755200Y-93144800D01*
X100755200Y-86008000D01*
X102100203Y-86008000D01*
X102100203Y-86808000D01*
X102101800Y-86824215D01*
X102101800Y-88008000D01*
X102104776Y-88038349D01*
X102107435Y-88068740D01*
X102107920Y-88070408D01*
X102108089Y-88072136D01*
X102116904Y-88101334D01*
X102125414Y-88130625D01*
X102126213Y-88132167D01*
X102126715Y-88133829D01*
X102141062Y-88160813D01*
X102155072Y-88187840D01*
X102156151Y-88189192D01*
X102156969Y-88190730D01*
X102176264Y-88214388D01*
X102195276Y-88238204D01*
X102197664Y-88240626D01*
X102197700Y-88240670D01*
X102197740Y-88240703D01*
X102198513Y-88241487D01*
X102498513Y-88541487D01*
X102522113Y-88560872D01*
X102545448Y-88580452D01*
X102546967Y-88581287D01*
X102548311Y-88582391D01*
X102575235Y-88596828D01*
X102601920Y-88611498D01*
X102603572Y-88612022D01*
X102605105Y-88612844D01*
X102634346Y-88621784D01*
X102651801Y-88627321D01*
X102651800Y-91608423D01*
X102649478Y-91632000D01*
X102651800Y-91655577D01*
X102651800Y-91655584D01*
X102658749Y-91726135D01*
X102686207Y-91816653D01*
X102730797Y-91900075D01*
X102790805Y-91973195D01*
X102809129Y-91988233D01*
X103643771Y-92822876D01*
X103658805Y-92841195D01*
X103731925Y-92901203D01*
X103815346Y-92945793D01*
X103905864Y-92973251D01*
X103976415Y-92980200D01*
X103976425Y-92980200D01*
X103999999Y-92982522D01*
X104023574Y-92980200D01*
X107476415Y-92980200D01*
X107500000Y-92982523D01*
X107523585Y-92980200D01*
X108376423Y-92980200D01*
X108400000Y-92982522D01*
X108423577Y-92980200D01*
X108423585Y-92980200D01*
X108494136Y-92973251D01*
X108584654Y-92945793D01*
X108668075Y-92901203D01*
X108741195Y-92841195D01*
X108756234Y-92822871D01*
X110173876Y-91405229D01*
X110192195Y-91390195D01*
X110252203Y-91317075D01*
X110296793Y-91233654D01*
X110324251Y-91143136D01*
X110331200Y-91072585D01*
X110331200Y-91072577D01*
X110333522Y-91049000D01*
X110331200Y-91025423D01*
X110331200Y-89107200D01*
X111200203Y-89107200D01*
X111200203Y-89127000D01*
X111206578Y-89191730D01*
X111225460Y-89253973D01*
X111256121Y-89311337D01*
X111297384Y-89361616D01*
X111347663Y-89402879D01*
X111405027Y-89433540D01*
X111467270Y-89452422D01*
X111532000Y-89458797D01*
X112532000Y-89458797D01*
X112596730Y-89452422D01*
X112658973Y-89433540D01*
X112716337Y-89402879D01*
X112766616Y-89361616D01*
X112807879Y-89311337D01*
X112838540Y-89253973D01*
X112857422Y-89191730D01*
X112863797Y-89127000D01*
X112863797Y-88127000D01*
X112863594Y-88124943D01*
X112890865Y-88099020D01*
X113019123Y-87917206D01*
X113109446Y-87713864D01*
X113126119Y-87658874D01*
X112999954Y-87484000D01*
X112159000Y-87484000D01*
X112159000Y-87504000D01*
X111905000Y-87504000D01*
X111905000Y-87484000D01*
X111064046Y-87484000D01*
X110937881Y-87658874D01*
X110954554Y-87713864D01*
X111044877Y-87917206D01*
X111173135Y-88099020D01*
X111200406Y-88124943D01*
X111200203Y-88127000D01*
X111200203Y-88146800D01*
X110331200Y-88146800D01*
X110331200Y-85912577D01*
X110333522Y-85889000D01*
X110331200Y-85865423D01*
X110331200Y-84347904D01*
X111398905Y-83280200D01*
X114255271Y-83280200D01*
X114247142Y-83290096D01*
X114227548Y-83313448D01*
X114226713Y-83314967D01*
X114225609Y-83316311D01*
X114211172Y-83343235D01*
X114196502Y-83369920D01*
X114195978Y-83371572D01*
X114195156Y-83373105D01*
X114186216Y-83402346D01*
X114177016Y-83431348D01*
X114176823Y-83433068D01*
X114176314Y-83434733D01*
X114173228Y-83465116D01*
X114169832Y-83495390D01*
X114169808Y-83498784D01*
X114169802Y-83498847D01*
X114169808Y-83498906D01*
X114169800Y-83500000D01*
X114169800Y-84683785D01*
X114168203Y-84700000D01*
X114168203Y-85500000D01*
X114174578Y-85564730D01*
X114193460Y-85626973D01*
X114224121Y-85684337D01*
X114265384Y-85734616D01*
X114315663Y-85775879D01*
X114373027Y-85806540D01*
X114435270Y-85825422D01*
X114500000Y-85831797D01*
X115023404Y-85831797D01*
X115959808Y-86768203D01*
X115900000Y-86768203D01*
X115883785Y-86769800D01*
X115078195Y-86769800D01*
X112836147Y-84527754D01*
X112822669Y-84511331D01*
X112794370Y-84488107D01*
X112767714Y-84423753D01*
X112676858Y-84287778D01*
X112561222Y-84172142D01*
X112425247Y-84081286D01*
X112274160Y-84018704D01*
X112113768Y-83986800D01*
X111950232Y-83986800D01*
X111789840Y-84018704D01*
X111638753Y-84081286D01*
X111502778Y-84172142D01*
X111387142Y-84287778D01*
X111296286Y-84423753D01*
X111233704Y-84574840D01*
X111201800Y-84735232D01*
X111201800Y-84898768D01*
X111233704Y-85059160D01*
X111296286Y-85210247D01*
X111387142Y-85346222D01*
X111492920Y-85452000D01*
X111387142Y-85557778D01*
X111296286Y-85693753D01*
X111233704Y-85844840D01*
X111201800Y-86005232D01*
X111201800Y-86168768D01*
X111233704Y-86329160D01*
X111296286Y-86480247D01*
X111303505Y-86491050D01*
X111173135Y-86614980D01*
X111044877Y-86796794D01*
X110954554Y-87000136D01*
X110937881Y-87055126D01*
X111064046Y-87230000D01*
X111905000Y-87230000D01*
X111905000Y-87210000D01*
X112159000Y-87210000D01*
X112159000Y-87230000D01*
X112999954Y-87230000D01*
X113126119Y-87055126D01*
X113109446Y-87000136D01*
X113043676Y-86852070D01*
X113569801Y-87378196D01*
X113569800Y-88678873D01*
X113567719Y-88700000D01*
X113569800Y-88721127D01*
X113569800Y-88721128D01*
X113576025Y-88784333D01*
X113600624Y-88865426D01*
X113640571Y-88940161D01*
X113694331Y-89005669D01*
X113710753Y-89019146D01*
X114169800Y-89478194D01*
X114169800Y-89900000D01*
X114172776Y-89930349D01*
X114175435Y-89960740D01*
X114175920Y-89962408D01*
X114176089Y-89964136D01*
X114184904Y-89993334D01*
X114193414Y-90022625D01*
X114194213Y-90024167D01*
X114194715Y-90025829D01*
X114209062Y-90052813D01*
X114223072Y-90079840D01*
X114224151Y-90081192D01*
X114224969Y-90082730D01*
X114244264Y-90106388D01*
X114263276Y-90130204D01*
X114265664Y-90132626D01*
X114265700Y-90132670D01*
X114265740Y-90132703D01*
X114266513Y-90133487D01*
X114466514Y-90333487D01*
X114490067Y-90352833D01*
X114513448Y-90372452D01*
X114514970Y-90373289D01*
X114516312Y-90374391D01*
X114543195Y-90388806D01*
X114569920Y-90403498D01*
X114571575Y-90404023D01*
X114573106Y-90404844D01*
X114602319Y-90413776D01*
X114631348Y-90422984D01*
X114633070Y-90423177D01*
X114634734Y-90423686D01*
X114665107Y-90426771D01*
X114695390Y-90430168D01*
X114698785Y-90430192D01*
X114698848Y-90430198D01*
X114698907Y-90430192D01*
X114700000Y-90430200D01*
X115883785Y-90430200D01*
X115900000Y-90431797D01*
X116305703Y-90431797D01*
X116270778Y-90455133D01*
X116155142Y-90570769D01*
X116064286Y-90706744D01*
X116001704Y-90857831D01*
X115969800Y-91018223D01*
X115969800Y-91181759D01*
X116001704Y-91342151D01*
X116064286Y-91493238D01*
X116115443Y-91569800D01*
X115631797Y-91569800D01*
X115631797Y-91100000D01*
X115625422Y-91035270D01*
X115606540Y-90973027D01*
X115575879Y-90915663D01*
X115534616Y-90865384D01*
X115484337Y-90824121D01*
X115426973Y-90793460D01*
X115364730Y-90774578D01*
X115300000Y-90768203D01*
X114700000Y-90768203D01*
X114683785Y-90769800D01*
X113500000Y-90769800D01*
X113469651Y-90772776D01*
X113439260Y-90775435D01*
X113437592Y-90775920D01*
X113435864Y-90776089D01*
X113406666Y-90784904D01*
X113377375Y-90793414D01*
X113375833Y-90794213D01*
X113374171Y-90794715D01*
X113347227Y-90809041D01*
X113320160Y-90823071D01*
X113318804Y-90824153D01*
X113317270Y-90824969D01*
X113293639Y-90844242D01*
X113269796Y-90863276D01*
X113267378Y-90865661D01*
X113267330Y-90865700D01*
X113267293Y-90865744D01*
X113266514Y-90866513D01*
X113066513Y-91066513D01*
X113047128Y-91090113D01*
X113027548Y-91113448D01*
X113026713Y-91114967D01*
X113025609Y-91116311D01*
X113011172Y-91143235D01*
X112996502Y-91169920D01*
X112995978Y-91171572D01*
X112995156Y-91173105D01*
X112986216Y-91202346D01*
X112977016Y-91231348D01*
X112976823Y-91233068D01*
X112976314Y-91234733D01*
X112973228Y-91265116D01*
X112969832Y-91295390D01*
X112969808Y-91298784D01*
X112969802Y-91298847D01*
X112969808Y-91298906D01*
X112969800Y-91300000D01*
X112969800Y-91900000D01*
X112972776Y-91930349D01*
X112975435Y-91960740D01*
X112975920Y-91962408D01*
X112976089Y-91964136D01*
X112984904Y-91993334D01*
X112993414Y-92022625D01*
X112994213Y-92024167D01*
X112994715Y-92025829D01*
X113009062Y-92052813D01*
X113023072Y-92079840D01*
X113024151Y-92081192D01*
X113024969Y-92082730D01*
X113044264Y-92106388D01*
X113063276Y-92130204D01*
X113065664Y-92132626D01*
X113065700Y-92132670D01*
X113065740Y-92132703D01*
X113066513Y-92133487D01*
X113266514Y-92333487D01*
X113290067Y-92352833D01*
X113313448Y-92372452D01*
X113314970Y-92373289D01*
X113316312Y-92374391D01*
X113343195Y-92388806D01*
X113369920Y-92403498D01*
X113371575Y-92404023D01*
X113373106Y-92404844D01*
X113402319Y-92413776D01*
X113431348Y-92422984D01*
X113433070Y-92423177D01*
X113434734Y-92423686D01*
X113465107Y-92426771D01*
X113495390Y-92430168D01*
X113498785Y-92430192D01*
X113498848Y-92430198D01*
X113498907Y-92430192D01*
X113500000Y-92430200D01*
X114683785Y-92430200D01*
X114700000Y-92431797D01*
X115195086Y-92431797D01*
X115200000Y-92432281D01*
X115204914Y-92431797D01*
X115300000Y-92431797D01*
X115316215Y-92430200D01*
X118778873Y-92430200D01*
X118800000Y-92432281D01*
X118821127Y-92430200D01*
X118821129Y-92430200D01*
X118884334Y-92423975D01*
X118965427Y-92399376D01*
X119040162Y-92359429D01*
X119105669Y-92305669D01*
X119119146Y-92289247D01*
X119489257Y-91919138D01*
X119505669Y-91905669D01*
X119559429Y-91840162D01*
X119599376Y-91765427D01*
X119623975Y-91684334D01*
X119630200Y-91621129D01*
X119630200Y-91621120D01*
X119632280Y-91600001D01*
X119630200Y-91578882D01*
X119630200Y-90521129D01*
X119632281Y-90500000D01*
X119623975Y-90415665D01*
X119599376Y-90334573D01*
X119559429Y-90259837D01*
X119532856Y-90227459D01*
X119532198Y-90226656D01*
X119544730Y-90225422D01*
X119580000Y-90214723D01*
X119615270Y-90225422D01*
X119680000Y-90231797D01*
X119910000Y-90231797D01*
X119974730Y-90225422D01*
X120010000Y-90214723D01*
X120045270Y-90225422D01*
X120110000Y-90231797D01*
X120340000Y-90231797D01*
X120404730Y-90225422D01*
X120440000Y-90214723D01*
X120475270Y-90225422D01*
X120540000Y-90231797D01*
X120770000Y-90231797D01*
X120834730Y-90225422D01*
X120870000Y-90214723D01*
X120905270Y-90225422D01*
X120970000Y-90231797D01*
X121200000Y-90231797D01*
X121264730Y-90225422D01*
X121326973Y-90206540D01*
X121384337Y-90175879D01*
X121434616Y-90134616D01*
X121475879Y-90084337D01*
X121506540Y-90026973D01*
X121525422Y-89964730D01*
X121531797Y-89900000D01*
X121531797Y-89819535D01*
X121560603Y-89805745D01*
X121660720Y-89730761D01*
X121744285Y-89637686D01*
X121808086Y-89530097D01*
X121849672Y-89412128D01*
X121865000Y-89303750D01*
X121753461Y-89192211D01*
X121808086Y-89100097D01*
X121839083Y-89012167D01*
X121865000Y-88986250D01*
X121857045Y-88930000D01*
X121865000Y-88873750D01*
X121839083Y-88847833D01*
X121808086Y-88759903D01*
X121781458Y-88715000D01*
X121808086Y-88670097D01*
X121839083Y-88582167D01*
X121865000Y-88556250D01*
X121857045Y-88500000D01*
X121865000Y-88443750D01*
X121839083Y-88417833D01*
X121808086Y-88329903D01*
X121781458Y-88285000D01*
X121808086Y-88240097D01*
X121839083Y-88152167D01*
X121865000Y-88126250D01*
X121857045Y-88070000D01*
X121865000Y-88013750D01*
X121839083Y-87987833D01*
X121808086Y-87899903D01*
X121753461Y-87807789D01*
X121865000Y-87696250D01*
X121849672Y-87587872D01*
X121831413Y-87536076D01*
X121835000Y-87481750D01*
X121786133Y-87432883D01*
X121744285Y-87362314D01*
X121660720Y-87269239D01*
X121604323Y-87227000D01*
X121676250Y-87227000D01*
X121835000Y-87068250D01*
X121830719Y-87003410D01*
X121812015Y-86930200D01*
X122878873Y-86930200D01*
X122900000Y-86932281D01*
X122921127Y-86930200D01*
X122921129Y-86930200D01*
X122984334Y-86923975D01*
X123065427Y-86899376D01*
X123140162Y-86859429D01*
X123205669Y-86805669D01*
X123219146Y-86789247D01*
X123589258Y-86419137D01*
X123605669Y-86405669D01*
X123659429Y-86340162D01*
X123699376Y-86265427D01*
X123723975Y-86184334D01*
X123730200Y-86121129D01*
X123730200Y-86121120D01*
X123732280Y-86100001D01*
X123730200Y-86078882D01*
X123730200Y-85831797D01*
X124000000Y-85831797D01*
X124064730Y-85825422D01*
X124126973Y-85806540D01*
X124184337Y-85775879D01*
X124234616Y-85734616D01*
X124275879Y-85684337D01*
X124306540Y-85626973D01*
X124325422Y-85564730D01*
X124331797Y-85500000D01*
X124331797Y-84700000D01*
X124330200Y-84683785D01*
X124330200Y-83500000D01*
X124327224Y-83469655D01*
X124324565Y-83439259D01*
X124324080Y-83437591D01*
X124323911Y-83435864D01*
X124315099Y-83406678D01*
X124306586Y-83377375D01*
X124305787Y-83375833D01*
X124305285Y-83374171D01*
X124290938Y-83347187D01*
X124276928Y-83320160D01*
X124275849Y-83318808D01*
X124275031Y-83317270D01*
X124255736Y-83293612D01*
X124245029Y-83280200D01*
X124401096Y-83280200D01*
X125419800Y-84298906D01*
X125419801Y-85901094D01*
X124552694Y-86768202D01*
X124150000Y-86768202D01*
X124125549Y-86770610D01*
X124100991Y-86770610D01*
X124036261Y-86776985D01*
X123940128Y-86796107D01*
X123877886Y-86814988D01*
X123787330Y-86852497D01*
X123729965Y-86883159D01*
X123648466Y-86937615D01*
X123598186Y-86978878D01*
X123528878Y-87048186D01*
X123487615Y-87098466D01*
X123433159Y-87179965D01*
X123402497Y-87237330D01*
X123364988Y-87327886D01*
X123346107Y-87390128D01*
X123326985Y-87486261D01*
X123320610Y-87550991D01*
X123320610Y-87575549D01*
X123318202Y-87600000D01*
X123318202Y-88150000D01*
X123324577Y-88214731D01*
X123342861Y-88275002D01*
X123324578Y-88335270D01*
X123318203Y-88400000D01*
X123318203Y-89400000D01*
X123324578Y-89464730D01*
X123343460Y-89526973D01*
X123374121Y-89584337D01*
X123415384Y-89634616D01*
X123465663Y-89675879D01*
X123523027Y-89706540D01*
X123585270Y-89725422D01*
X123650000Y-89731797D01*
X123769800Y-89731797D01*
X123769800Y-89800000D01*
X123772831Y-89830914D01*
X123775649Y-89861873D01*
X123775976Y-89862984D01*
X123776089Y-89864136D01*
X123785066Y-89893870D01*
X123793844Y-89923695D01*
X123794381Y-89924721D01*
X123794715Y-89925829D01*
X123809304Y-89953268D01*
X123823700Y-89980805D01*
X123824425Y-89981706D01*
X123824969Y-89982730D01*
X123844600Y-90006799D01*
X123864081Y-90031029D01*
X123864970Y-90031775D01*
X123865700Y-90032670D01*
X123889613Y-90052453D01*
X123913448Y-90072452D01*
X123914463Y-90073010D01*
X123915355Y-90073748D01*
X123942705Y-90088537D01*
X123969920Y-90103498D01*
X123971022Y-90103848D01*
X123972042Y-90104399D01*
X124001793Y-90113609D01*
X124031348Y-90122984D01*
X124032495Y-90123113D01*
X124033604Y-90123456D01*
X124064545Y-90126708D01*
X124095390Y-90130168D01*
X124097613Y-90130183D01*
X124097695Y-90130192D01*
X124097777Y-90130185D01*
X124100000Y-90130200D01*
X124700000Y-90130200D01*
X124730914Y-90127169D01*
X124761873Y-90124351D01*
X124762984Y-90124024D01*
X124764136Y-90123911D01*
X124793870Y-90114934D01*
X124823695Y-90106156D01*
X124824721Y-90105619D01*
X124825829Y-90105285D01*
X124853268Y-90090696D01*
X124880805Y-90076300D01*
X124881706Y-90075575D01*
X124882730Y-90075031D01*
X124906799Y-90055400D01*
X124931029Y-90035919D01*
X124931775Y-90035030D01*
X124932670Y-90034300D01*
X124952453Y-90010387D01*
X124972452Y-89986552D01*
X124973010Y-89985537D01*
X124973748Y-89984645D01*
X124988537Y-89957295D01*
X125003498Y-89930080D01*
X125003848Y-89928978D01*
X125004399Y-89927958D01*
X125013609Y-89898207D01*
X125022984Y-89868652D01*
X125023113Y-89867505D01*
X125023456Y-89866396D01*
X125026708Y-89835455D01*
X125030168Y-89804610D01*
X125030183Y-89802387D01*
X125030192Y-89802305D01*
X125030185Y-89802223D01*
X125030200Y-89800000D01*
X125030200Y-89731797D01*
X125150000Y-89731797D01*
X125214730Y-89725422D01*
X125276973Y-89706540D01*
X125334337Y-89675879D01*
X125384616Y-89634616D01*
X125425879Y-89584337D01*
X125456540Y-89526973D01*
X125475422Y-89464730D01*
X125481797Y-89400000D01*
X125481797Y-88400000D01*
X125475422Y-88335270D01*
X125457139Y-88275002D01*
X125475423Y-88214731D01*
X125481798Y-88150000D01*
X125481798Y-87600000D01*
X125479390Y-87575549D01*
X125479390Y-87550991D01*
X125473015Y-87486261D01*
X125453893Y-87390128D01*
X125435012Y-87327886D01*
X125410470Y-87268635D01*
X125850000Y-86829105D01*
X126289530Y-87268635D01*
X126264988Y-87327886D01*
X126246107Y-87390128D01*
X126226985Y-87486261D01*
X126220610Y-87550991D01*
X126220610Y-87575549D01*
X126218202Y-87600000D01*
X126218202Y-88150000D01*
X126224577Y-88214731D01*
X126242861Y-88275002D01*
X126224578Y-88335270D01*
X126218203Y-88400000D01*
X126218203Y-89400000D01*
X126224578Y-89464730D01*
X126243460Y-89526973D01*
X126274121Y-89584337D01*
X126315384Y-89634616D01*
X126365663Y-89675879D01*
X126423027Y-89706540D01*
X126485270Y-89725422D01*
X126550000Y-89731797D01*
X126669800Y-89731797D01*
X126669800Y-89800000D01*
X126672831Y-89830914D01*
X126675649Y-89861873D01*
X126675976Y-89862984D01*
X126676089Y-89864136D01*
X126685066Y-89893870D01*
X126693844Y-89923695D01*
X126694381Y-89924721D01*
X126694715Y-89925829D01*
X126709304Y-89953268D01*
X126723700Y-89980805D01*
X126724425Y-89981706D01*
X126724969Y-89982730D01*
X126744600Y-90006799D01*
X126764081Y-90031029D01*
X126764970Y-90031775D01*
X126765700Y-90032670D01*
X126789613Y-90052453D01*
X126813448Y-90072452D01*
X126814463Y-90073010D01*
X126815355Y-90073748D01*
X126842705Y-90088537D01*
X126869920Y-90103498D01*
X126871022Y-90103848D01*
X126872042Y-90104399D01*
X126901793Y-90113609D01*
X126931348Y-90122984D01*
X126932495Y-90123113D01*
X126933604Y-90123456D01*
X126964545Y-90126708D01*
X126995390Y-90130168D01*
X126997613Y-90130183D01*
X126997695Y-90130192D01*
X126997777Y-90130185D01*
X127000000Y-90130200D01*
X127600000Y-90130200D01*
X127630914Y-90127169D01*
X127661873Y-90124351D01*
X127662984Y-90124024D01*
X127664136Y-90123911D01*
X127693870Y-90114934D01*
X127723695Y-90106156D01*
X127724721Y-90105619D01*
X127725829Y-90105285D01*
X127753268Y-90090696D01*
X127780805Y-90076300D01*
X127781706Y-90075575D01*
X127782730Y-90075031D01*
X127806799Y-90055400D01*
X127831029Y-90035919D01*
X127831775Y-90035030D01*
X127832670Y-90034300D01*
X127852453Y-90010387D01*
X127872452Y-89986552D01*
X127873010Y-89985537D01*
X127873748Y-89984645D01*
X127888537Y-89957295D01*
X127903498Y-89930080D01*
X127903848Y-89928978D01*
X127904399Y-89927958D01*
X127913609Y-89898207D01*
X127922984Y-89868652D01*
X127923113Y-89867505D01*
X127923456Y-89866396D01*
X127926708Y-89835455D01*
X127930168Y-89804610D01*
X127930183Y-89802387D01*
X127930192Y-89802305D01*
X127930185Y-89802223D01*
X127930200Y-89800000D01*
X127930200Y-89731797D01*
X128050000Y-89731797D01*
X128114730Y-89725422D01*
X128176973Y-89706540D01*
X128234337Y-89675879D01*
X128284616Y-89634616D01*
X128325879Y-89584337D01*
X128356540Y-89526973D01*
X128375422Y-89464730D01*
X128381797Y-89400000D01*
X128381797Y-88400000D01*
X128375422Y-88335270D01*
X128357139Y-88275002D01*
X128375423Y-88214731D01*
X128381798Y-88150000D01*
X128381798Y-87600000D01*
X128379390Y-87575549D01*
X128379390Y-87550991D01*
X128373015Y-87486261D01*
X128353893Y-87390128D01*
X128335012Y-87327886D01*
X128297503Y-87237330D01*
X128266841Y-87179965D01*
X128212385Y-87098466D01*
X128171122Y-87048186D01*
X128101814Y-86978878D01*
X128051534Y-86937615D01*
X127970035Y-86883159D01*
X127912670Y-86852497D01*
X127822114Y-86814988D01*
X127759872Y-86796107D01*
X127663739Y-86776985D01*
X127599009Y-86770610D01*
X127574451Y-86770610D01*
X127550000Y-86768202D01*
X127147307Y-86768202D01*
X126380200Y-86001096D01*
X126380200Y-84123577D01*
X126382522Y-84100000D01*
X126380200Y-84076423D01*
X126380200Y-84076415D01*
X126373251Y-84005864D01*
X126345793Y-83915346D01*
X126301203Y-83831925D01*
X126294808Y-83824133D01*
X126256230Y-83777124D01*
X126256224Y-83777118D01*
X126241195Y-83758805D01*
X126222881Y-83743775D01*
X124956233Y-82477129D01*
X124941195Y-82458805D01*
X124868075Y-82398797D01*
X124784654Y-82354207D01*
X124694136Y-82326749D01*
X124623585Y-82319800D01*
X124623577Y-82319800D01*
X124600000Y-82317478D01*
X124576423Y-82319800D01*
X111223574Y-82319800D01*
X111199999Y-82317478D01*
X111176425Y-82319800D01*
X111176415Y-82319800D01*
X111105864Y-82326749D01*
X111015346Y-82354207D01*
X110931925Y-82398797D01*
X110858805Y-82458805D01*
X110843771Y-82477124D01*
X109528129Y-83792766D01*
X109509805Y-83807805D01*
X109449797Y-83880925D01*
X109405207Y-83964347D01*
X109377749Y-84054865D01*
X109370800Y-84125416D01*
X109370800Y-84125423D01*
X109368478Y-84149000D01*
X109370800Y-84172577D01*
X109370800Y-85690095D01*
X109276035Y-85784861D01*
X109266616Y-85773384D01*
X109216337Y-85732121D01*
X109158973Y-85701460D01*
X109096730Y-85682578D01*
X109032000Y-85676203D01*
X107632000Y-85676203D01*
X107567270Y-85682578D01*
X107505027Y-85701460D01*
X107447663Y-85732121D01*
X107397384Y-85773384D01*
X107356121Y-85823663D01*
X107325460Y-85881027D01*
X107306578Y-85943270D01*
X107300203Y-86008000D01*
X107300203Y-86808000D01*
X107301800Y-86824215D01*
X107301800Y-88008000D01*
X107304776Y-88038349D01*
X107307435Y-88068740D01*
X107307920Y-88070408D01*
X107308089Y-88072136D01*
X107316904Y-88101334D01*
X107325414Y-88130625D01*
X107326213Y-88132167D01*
X107326715Y-88133829D01*
X107341062Y-88160813D01*
X107355072Y-88187840D01*
X107356151Y-88189192D01*
X107356969Y-88190730D01*
X107376264Y-88214388D01*
X107395276Y-88238204D01*
X107397664Y-88240626D01*
X107397700Y-88240670D01*
X107397740Y-88240703D01*
X107398513Y-88241487D01*
X107698513Y-88541487D01*
X107722113Y-88560872D01*
X107745448Y-88580452D01*
X107746967Y-88581287D01*
X107748311Y-88582391D01*
X107775235Y-88596828D01*
X107801920Y-88611498D01*
X107803572Y-88612022D01*
X107805105Y-88612844D01*
X107834346Y-88621784D01*
X107863348Y-88630984D01*
X107865068Y-88631177D01*
X107866733Y-88631686D01*
X107897116Y-88634772D01*
X107927390Y-88638168D01*
X107930784Y-88638192D01*
X107930847Y-88638198D01*
X107930906Y-88638192D01*
X107932000Y-88638200D01*
X108732000Y-88638200D01*
X108762349Y-88635224D01*
X108792740Y-88632565D01*
X108794408Y-88632080D01*
X108796136Y-88631911D01*
X108825334Y-88623096D01*
X108854625Y-88614586D01*
X108856167Y-88613787D01*
X108857829Y-88613285D01*
X108884813Y-88598938D01*
X108911840Y-88584928D01*
X108913192Y-88583849D01*
X108914730Y-88583031D01*
X108938388Y-88563736D01*
X108962204Y-88544724D01*
X108964626Y-88542336D01*
X108964670Y-88542300D01*
X108964703Y-88542260D01*
X108965487Y-88541487D01*
X109265487Y-88241487D01*
X109284872Y-88217887D01*
X109304452Y-88194552D01*
X109305287Y-88193033D01*
X109306391Y-88191689D01*
X109320828Y-88164765D01*
X109335498Y-88138080D01*
X109336022Y-88136428D01*
X109336844Y-88134895D01*
X109345784Y-88105654D01*
X109354984Y-88076652D01*
X109355177Y-88074932D01*
X109355686Y-88073267D01*
X109358772Y-88042884D01*
X109362168Y-88012610D01*
X109362192Y-88009216D01*
X109362198Y-88009153D01*
X109362192Y-88009094D01*
X109362200Y-88008000D01*
X109362200Y-86887548D01*
X109370801Y-86886701D01*
X109370801Y-88603405D01*
X109368477Y-88627000D01*
X109370800Y-88650585D01*
X109370801Y-90850094D01*
X108201096Y-92019800D01*
X107980200Y-92019800D01*
X107980200Y-91826640D01*
X108001534Y-91812385D01*
X108051814Y-91771122D01*
X108121122Y-91701814D01*
X108162385Y-91651534D01*
X108216841Y-91570035D01*
X108247503Y-91512670D01*
X108285012Y-91422114D01*
X108303893Y-91359872D01*
X108323015Y-91263739D01*
X108329390Y-91199009D01*
X108329390Y-91174451D01*
X108331798Y-91150000D01*
X108331798Y-90650000D01*
X108329390Y-90625549D01*
X108329390Y-90600991D01*
X108323015Y-90536261D01*
X108303893Y-90440128D01*
X108285012Y-90377886D01*
X108247503Y-90287330D01*
X108216841Y-90229965D01*
X108162385Y-90148466D01*
X108121122Y-90098186D01*
X108051814Y-90028878D01*
X108001534Y-89987615D01*
X107920035Y-89933159D01*
X107862670Y-89902497D01*
X107772114Y-89864988D01*
X107709872Y-89846107D01*
X107613739Y-89826985D01*
X107549009Y-89820610D01*
X107524451Y-89820610D01*
X107500000Y-89818202D01*
X106950000Y-89818202D01*
X106885269Y-89824577D01*
X106824998Y-89842861D01*
X106764730Y-89824578D01*
X106700000Y-89818203D01*
X106630200Y-89818203D01*
X106630200Y-89778193D01*
X106939251Y-89469142D01*
X106955669Y-89455669D01*
X107009429Y-89390162D01*
X107049376Y-89315427D01*
X107073975Y-89234334D01*
X107080200Y-89171129D01*
X107080200Y-89171128D01*
X107082281Y-89150001D01*
X107080200Y-89128874D01*
X107080200Y-88852534D01*
X107100879Y-88827337D01*
X107131540Y-88769973D01*
X107150422Y-88707730D01*
X107156797Y-88643000D01*
X107156797Y-88143000D01*
X107150422Y-88078270D01*
X107131540Y-88016027D01*
X107100879Y-87958663D01*
X107059616Y-87908384D01*
X107009337Y-87867121D01*
X106951973Y-87836460D01*
X106889730Y-87817578D01*
X106825000Y-87811203D01*
X106475000Y-87811203D01*
X106430200Y-87815615D01*
X106430200Y-87697127D01*
X106432281Y-87676000D01*
X106429143Y-87644138D01*
X106423975Y-87591666D01*
X106399376Y-87510573D01*
X106359429Y-87435838D01*
X106305669Y-87370331D01*
X106289253Y-87356859D01*
X105857190Y-86924797D01*
X106175000Y-86924797D01*
X106239730Y-86918422D01*
X106301973Y-86899540D01*
X106325000Y-86887232D01*
X106348027Y-86899540D01*
X106410270Y-86918422D01*
X106475000Y-86924797D01*
X106825000Y-86924797D01*
X106889730Y-86918422D01*
X106951973Y-86899540D01*
X107009337Y-86868879D01*
X107059616Y-86827616D01*
X107100879Y-86777337D01*
X107131540Y-86719973D01*
X107150422Y-86657730D01*
X107156797Y-86593000D01*
X107156797Y-86093000D01*
X107150422Y-86028270D01*
X107131540Y-85966027D01*
X107100879Y-85908663D01*
X107080200Y-85883466D01*
X107080200Y-85530200D01*
X107081768Y-85530200D01*
X107242160Y-85498296D01*
X107393247Y-85435714D01*
X107529222Y-85344858D01*
X107644858Y-85229222D01*
X107735714Y-85093247D01*
X107798296Y-84942160D01*
X107830200Y-84781768D01*
X107830200Y-84618232D01*
X107798296Y-84457840D01*
X107735714Y-84306753D01*
X107644858Y-84170778D01*
X107529222Y-84055142D01*
X107393247Y-83964286D01*
X107242160Y-83901704D01*
X107081768Y-83869800D01*
X106918232Y-83869800D01*
X106757840Y-83901704D01*
X106606753Y-83964286D01*
X106470778Y-84055142D01*
X106355142Y-84170778D01*
X106264286Y-84306753D01*
X106250000Y-84341243D01*
X106235714Y-84306753D01*
X106144858Y-84170778D01*
X106029222Y-84055142D01*
X105893247Y-83964286D01*
X105742160Y-83901704D01*
X105581768Y-83869800D01*
X105418232Y-83869800D01*
X105257840Y-83901704D01*
X105106753Y-83964286D01*
X104970778Y-84055142D01*
X104855142Y-84170778D01*
X104764286Y-84306753D01*
X104701704Y-84457840D01*
X104669800Y-84618232D01*
X104669800Y-84781768D01*
X104701704Y-84942160D01*
X104764286Y-85093247D01*
X104855142Y-85229222D01*
X104970778Y-85344858D01*
X105069800Y-85411023D01*
X105069800Y-85478873D01*
X105068874Y-85488271D01*
X105016932Y-85470914D01*
X104906750Y-85458000D01*
X104748000Y-85616750D01*
X104748000Y-86220000D01*
X104843203Y-86220000D01*
X104843203Y-86466000D01*
X104748000Y-86466000D01*
X104748000Y-86490000D01*
X104652000Y-86490000D01*
X104652000Y-86466000D01*
X104553000Y-86466000D01*
X104553000Y-86220000D01*
X104652000Y-86220000D01*
X104652000Y-85616750D01*
X104493250Y-85458000D01*
X104383068Y-85470914D01*
X104264432Y-85510557D01*
X104155810Y-85572583D01*
X104061375Y-85654608D01*
X104005710Y-85726441D01*
X103958973Y-85701460D01*
X103896730Y-85682578D01*
X103832000Y-85676203D01*
X102432000Y-85676203D01*
X102367270Y-85682578D01*
X102305027Y-85701460D01*
X102247663Y-85732121D01*
X102197384Y-85773384D01*
X102156121Y-85823663D01*
X102125460Y-85881027D01*
X102106578Y-85943270D01*
X102100203Y-86008000D01*
X100755200Y-86008000D01*
X100755200Y-81855200D01*
X130044800Y-81855200D01*
X130044801Y-93144800D01*
G37*
X130044801Y-93144800D02*
X100755200Y-93144800D01*
X100755200Y-86008000D01*
X102100203Y-86008000D01*
X102100203Y-86808000D01*
X102101800Y-86824215D01*
X102101800Y-88008000D01*
X102104776Y-88038349D01*
X102107435Y-88068740D01*
X102107920Y-88070408D01*
X102108089Y-88072136D01*
X102116904Y-88101334D01*
X102125414Y-88130625D01*
X102126213Y-88132167D01*
X102126715Y-88133829D01*
X102141062Y-88160813D01*
X102155072Y-88187840D01*
X102156151Y-88189192D01*
X102156969Y-88190730D01*
X102176264Y-88214388D01*
X102195276Y-88238204D01*
X102197664Y-88240626D01*
X102197700Y-88240670D01*
X102197740Y-88240703D01*
X102198513Y-88241487D01*
X102498513Y-88541487D01*
X102522113Y-88560872D01*
X102545448Y-88580452D01*
X102546967Y-88581287D01*
X102548311Y-88582391D01*
X102575235Y-88596828D01*
X102601920Y-88611498D01*
X102603572Y-88612022D01*
X102605105Y-88612844D01*
X102634346Y-88621784D01*
X102651801Y-88627321D01*
X102651800Y-91608423D01*
X102649478Y-91632000D01*
X102651800Y-91655577D01*
X102651800Y-91655584D01*
X102658749Y-91726135D01*
X102686207Y-91816653D01*
X102730797Y-91900075D01*
X102790805Y-91973195D01*
X102809129Y-91988233D01*
X103643771Y-92822876D01*
X103658805Y-92841195D01*
X103731925Y-92901203D01*
X103815346Y-92945793D01*
X103905864Y-92973251D01*
X103976415Y-92980200D01*
X103976425Y-92980200D01*
X103999999Y-92982522D01*
X104023574Y-92980200D01*
X107476415Y-92980200D01*
X107500000Y-92982523D01*
X107523585Y-92980200D01*
X108376423Y-92980200D01*
X108400000Y-92982522D01*
X108423577Y-92980200D01*
X108423585Y-92980200D01*
X108494136Y-92973251D01*
X108584654Y-92945793D01*
X108668075Y-92901203D01*
X108741195Y-92841195D01*
X108756234Y-92822871D01*
X110173876Y-91405229D01*
X110192195Y-91390195D01*
X110252203Y-91317075D01*
X110296793Y-91233654D01*
X110324251Y-91143136D01*
X110331200Y-91072585D01*
X110331200Y-91072577D01*
X110333522Y-91049000D01*
X110331200Y-91025423D01*
X110331200Y-89107200D01*
X111200203Y-89107200D01*
X111200203Y-89127000D01*
X111206578Y-89191730D01*
X111225460Y-89253973D01*
X111256121Y-89311337D01*
X111297384Y-89361616D01*
X111347663Y-89402879D01*
X111405027Y-89433540D01*
X111467270Y-89452422D01*
X111532000Y-89458797D01*
X112532000Y-89458797D01*
X112596730Y-89452422D01*
X112658973Y-89433540D01*
X112716337Y-89402879D01*
X112766616Y-89361616D01*
X112807879Y-89311337D01*
X112838540Y-89253973D01*
X112857422Y-89191730D01*
X112863797Y-89127000D01*
X112863797Y-88127000D01*
X112863594Y-88124943D01*
X112890865Y-88099020D01*
X113019123Y-87917206D01*
X113109446Y-87713864D01*
X113126119Y-87658874D01*
X112999954Y-87484000D01*
X112159000Y-87484000D01*
X112159000Y-87504000D01*
X111905000Y-87504000D01*
X111905000Y-87484000D01*
X111064046Y-87484000D01*
X110937881Y-87658874D01*
X110954554Y-87713864D01*
X111044877Y-87917206D01*
X111173135Y-88099020D01*
X111200406Y-88124943D01*
X111200203Y-88127000D01*
X111200203Y-88146800D01*
X110331200Y-88146800D01*
X110331200Y-85912577D01*
X110333522Y-85889000D01*
X110331200Y-85865423D01*
X110331200Y-84347904D01*
X111398905Y-83280200D01*
X114255271Y-83280200D01*
X114247142Y-83290096D01*
X114227548Y-83313448D01*
X114226713Y-83314967D01*
X114225609Y-83316311D01*
X114211172Y-83343235D01*
X114196502Y-83369920D01*
X114195978Y-83371572D01*
X114195156Y-83373105D01*
X114186216Y-83402346D01*
X114177016Y-83431348D01*
X114176823Y-83433068D01*
X114176314Y-83434733D01*
X114173228Y-83465116D01*
X114169832Y-83495390D01*
X114169808Y-83498784D01*
X114169802Y-83498847D01*
X114169808Y-83498906D01*
X114169800Y-83500000D01*
X114169800Y-84683785D01*
X114168203Y-84700000D01*
X114168203Y-85500000D01*
X114174578Y-85564730D01*
X114193460Y-85626973D01*
X114224121Y-85684337D01*
X114265384Y-85734616D01*
X114315663Y-85775879D01*
X114373027Y-85806540D01*
X114435270Y-85825422D01*
X114500000Y-85831797D01*
X115023404Y-85831797D01*
X115959808Y-86768203D01*
X115900000Y-86768203D01*
X115883785Y-86769800D01*
X115078195Y-86769800D01*
X112836147Y-84527754D01*
X112822669Y-84511331D01*
X112794370Y-84488107D01*
X112767714Y-84423753D01*
X112676858Y-84287778D01*
X112561222Y-84172142D01*
X112425247Y-84081286D01*
X112274160Y-84018704D01*
X112113768Y-83986800D01*
X111950232Y-83986800D01*
X111789840Y-84018704D01*
X111638753Y-84081286D01*
X111502778Y-84172142D01*
X111387142Y-84287778D01*
X111296286Y-84423753D01*
X111233704Y-84574840D01*
X111201800Y-84735232D01*
X111201800Y-84898768D01*
X111233704Y-85059160D01*
X111296286Y-85210247D01*
X111387142Y-85346222D01*
X111492920Y-85452000D01*
X111387142Y-85557778D01*
X111296286Y-85693753D01*
X111233704Y-85844840D01*
X111201800Y-86005232D01*
X111201800Y-86168768D01*
X111233704Y-86329160D01*
X111296286Y-86480247D01*
X111303505Y-86491050D01*
X111173135Y-86614980D01*
X111044877Y-86796794D01*
X110954554Y-87000136D01*
X110937881Y-87055126D01*
X111064046Y-87230000D01*
X111905000Y-87230000D01*
X111905000Y-87210000D01*
X112159000Y-87210000D01*
X112159000Y-87230000D01*
X112999954Y-87230000D01*
X113126119Y-87055126D01*
X113109446Y-87000136D01*
X113043676Y-86852070D01*
X113569801Y-87378196D01*
X113569800Y-88678873D01*
X113567719Y-88700000D01*
X113569800Y-88721127D01*
X113569800Y-88721128D01*
X113576025Y-88784333D01*
X113600624Y-88865426D01*
X113640571Y-88940161D01*
X113694331Y-89005669D01*
X113710753Y-89019146D01*
X114169800Y-89478194D01*
X114169800Y-89900000D01*
X114172776Y-89930349D01*
X114175435Y-89960740D01*
X114175920Y-89962408D01*
X114176089Y-89964136D01*
X114184904Y-89993334D01*
X114193414Y-90022625D01*
X114194213Y-90024167D01*
X114194715Y-90025829D01*
X114209062Y-90052813D01*
X114223072Y-90079840D01*
X114224151Y-90081192D01*
X114224969Y-90082730D01*
X114244264Y-90106388D01*
X114263276Y-90130204D01*
X114265664Y-90132626D01*
X114265700Y-90132670D01*
X114265740Y-90132703D01*
X114266513Y-90133487D01*
X114466514Y-90333487D01*
X114490067Y-90352833D01*
X114513448Y-90372452D01*
X114514970Y-90373289D01*
X114516312Y-90374391D01*
X114543195Y-90388806D01*
X114569920Y-90403498D01*
X114571575Y-90404023D01*
X114573106Y-90404844D01*
X114602319Y-90413776D01*
X114631348Y-90422984D01*
X114633070Y-90423177D01*
X114634734Y-90423686D01*
X114665107Y-90426771D01*
X114695390Y-90430168D01*
X114698785Y-90430192D01*
X114698848Y-90430198D01*
X114698907Y-90430192D01*
X114700000Y-90430200D01*
X115883785Y-90430200D01*
X115900000Y-90431797D01*
X116305703Y-90431797D01*
X116270778Y-90455133D01*
X116155142Y-90570769D01*
X116064286Y-90706744D01*
X116001704Y-90857831D01*
X115969800Y-91018223D01*
X115969800Y-91181759D01*
X116001704Y-91342151D01*
X116064286Y-91493238D01*
X116115443Y-91569800D01*
X115631797Y-91569800D01*
X115631797Y-91100000D01*
X115625422Y-91035270D01*
X115606540Y-90973027D01*
X115575879Y-90915663D01*
X115534616Y-90865384D01*
X115484337Y-90824121D01*
X115426973Y-90793460D01*
X115364730Y-90774578D01*
X115300000Y-90768203D01*
X114700000Y-90768203D01*
X114683785Y-90769800D01*
X113500000Y-90769800D01*
X113469651Y-90772776D01*
X113439260Y-90775435D01*
X113437592Y-90775920D01*
X113435864Y-90776089D01*
X113406666Y-90784904D01*
X113377375Y-90793414D01*
X113375833Y-90794213D01*
X113374171Y-90794715D01*
X113347227Y-90809041D01*
X113320160Y-90823071D01*
X113318804Y-90824153D01*
X113317270Y-90824969D01*
X113293639Y-90844242D01*
X113269796Y-90863276D01*
X113267378Y-90865661D01*
X113267330Y-90865700D01*
X113267293Y-90865744D01*
X113266514Y-90866513D01*
X113066513Y-91066513D01*
X113047128Y-91090113D01*
X113027548Y-91113448D01*
X113026713Y-91114967D01*
X113025609Y-91116311D01*
X113011172Y-91143235D01*
X112996502Y-91169920D01*
X112995978Y-91171572D01*
X112995156Y-91173105D01*
X112986216Y-91202346D01*
X112977016Y-91231348D01*
X112976823Y-91233068D01*
X112976314Y-91234733D01*
X112973228Y-91265116D01*
X112969832Y-91295390D01*
X112969808Y-91298784D01*
X112969802Y-91298847D01*
X112969808Y-91298906D01*
X112969800Y-91300000D01*
X112969800Y-91900000D01*
X112972776Y-91930349D01*
X112975435Y-91960740D01*
X112975920Y-91962408D01*
X112976089Y-91964136D01*
X112984904Y-91993334D01*
X112993414Y-92022625D01*
X112994213Y-92024167D01*
X112994715Y-92025829D01*
X113009062Y-92052813D01*
X113023072Y-92079840D01*
X113024151Y-92081192D01*
X113024969Y-92082730D01*
X113044264Y-92106388D01*
X113063276Y-92130204D01*
X113065664Y-92132626D01*
X113065700Y-92132670D01*
X113065740Y-92132703D01*
X113066513Y-92133487D01*
X113266514Y-92333487D01*
X113290067Y-92352833D01*
X113313448Y-92372452D01*
X113314970Y-92373289D01*
X113316312Y-92374391D01*
X113343195Y-92388806D01*
X113369920Y-92403498D01*
X113371575Y-92404023D01*
X113373106Y-92404844D01*
X113402319Y-92413776D01*
X113431348Y-92422984D01*
X113433070Y-92423177D01*
X113434734Y-92423686D01*
X113465107Y-92426771D01*
X113495390Y-92430168D01*
X113498785Y-92430192D01*
X113498848Y-92430198D01*
X113498907Y-92430192D01*
X113500000Y-92430200D01*
X114683785Y-92430200D01*
X114700000Y-92431797D01*
X115195086Y-92431797D01*
X115200000Y-92432281D01*
X115204914Y-92431797D01*
X115300000Y-92431797D01*
X115316215Y-92430200D01*
X118778873Y-92430200D01*
X118800000Y-92432281D01*
X118821127Y-92430200D01*
X118821129Y-92430200D01*
X118884334Y-92423975D01*
X118965427Y-92399376D01*
X119040162Y-92359429D01*
X119105669Y-92305669D01*
X119119146Y-92289247D01*
X119489257Y-91919138D01*
X119505669Y-91905669D01*
X119559429Y-91840162D01*
X119599376Y-91765427D01*
X119623975Y-91684334D01*
X119630200Y-91621129D01*
X119630200Y-91621120D01*
X119632280Y-91600001D01*
X119630200Y-91578882D01*
X119630200Y-90521129D01*
X119632281Y-90500000D01*
X119623975Y-90415665D01*
X119599376Y-90334573D01*
X119559429Y-90259837D01*
X119532856Y-90227459D01*
X119532198Y-90226656D01*
X119544730Y-90225422D01*
X119580000Y-90214723D01*
X119615270Y-90225422D01*
X119680000Y-90231797D01*
X119910000Y-90231797D01*
X119974730Y-90225422D01*
X120010000Y-90214723D01*
X120045270Y-90225422D01*
X120110000Y-90231797D01*
X120340000Y-90231797D01*
X120404730Y-90225422D01*
X120440000Y-90214723D01*
X120475270Y-90225422D01*
X120540000Y-90231797D01*
X120770000Y-90231797D01*
X120834730Y-90225422D01*
X120870000Y-90214723D01*
X120905270Y-90225422D01*
X120970000Y-90231797D01*
X121200000Y-90231797D01*
X121264730Y-90225422D01*
X121326973Y-90206540D01*
X121384337Y-90175879D01*
X121434616Y-90134616D01*
X121475879Y-90084337D01*
X121506540Y-90026973D01*
X121525422Y-89964730D01*
X121531797Y-89900000D01*
X121531797Y-89819535D01*
X121560603Y-89805745D01*
X121660720Y-89730761D01*
X121744285Y-89637686D01*
X121808086Y-89530097D01*
X121849672Y-89412128D01*
X121865000Y-89303750D01*
X121753461Y-89192211D01*
X121808086Y-89100097D01*
X121839083Y-89012167D01*
X121865000Y-88986250D01*
X121857045Y-88930000D01*
X121865000Y-88873750D01*
X121839083Y-88847833D01*
X121808086Y-88759903D01*
X121781458Y-88715000D01*
X121808086Y-88670097D01*
X121839083Y-88582167D01*
X121865000Y-88556250D01*
X121857045Y-88500000D01*
X121865000Y-88443750D01*
X121839083Y-88417833D01*
X121808086Y-88329903D01*
X121781458Y-88285000D01*
X121808086Y-88240097D01*
X121839083Y-88152167D01*
X121865000Y-88126250D01*
X121857045Y-88070000D01*
X121865000Y-88013750D01*
X121839083Y-87987833D01*
X121808086Y-87899903D01*
X121753461Y-87807789D01*
X121865000Y-87696250D01*
X121849672Y-87587872D01*
X121831413Y-87536076D01*
X121835000Y-87481750D01*
X121786133Y-87432883D01*
X121744285Y-87362314D01*
X121660720Y-87269239D01*
X121604323Y-87227000D01*
X121676250Y-87227000D01*
X121835000Y-87068250D01*
X121830719Y-87003410D01*
X121812015Y-86930200D01*
X122878873Y-86930200D01*
X122900000Y-86932281D01*
X122921127Y-86930200D01*
X122921129Y-86930200D01*
X122984334Y-86923975D01*
X123065427Y-86899376D01*
X123140162Y-86859429D01*
X123205669Y-86805669D01*
X123219146Y-86789247D01*
X123589258Y-86419137D01*
X123605669Y-86405669D01*
X123659429Y-86340162D01*
X123699376Y-86265427D01*
X123723975Y-86184334D01*
X123730200Y-86121129D01*
X123730200Y-86121120D01*
X123732280Y-86100001D01*
X123730200Y-86078882D01*
X123730200Y-85831797D01*
X124000000Y-85831797D01*
X124064730Y-85825422D01*
X124126973Y-85806540D01*
X124184337Y-85775879D01*
X124234616Y-85734616D01*
X124275879Y-85684337D01*
X124306540Y-85626973D01*
X124325422Y-85564730D01*
X124331797Y-85500000D01*
X124331797Y-84700000D01*
X124330200Y-84683785D01*
X124330200Y-83500000D01*
X124327224Y-83469655D01*
X124324565Y-83439259D01*
X124324080Y-83437591D01*
X124323911Y-83435864D01*
X124315099Y-83406678D01*
X124306586Y-83377375D01*
X124305787Y-83375833D01*
X124305285Y-83374171D01*
X124290938Y-83347187D01*
X124276928Y-83320160D01*
X124275849Y-83318808D01*
X124275031Y-83317270D01*
X124255736Y-83293612D01*
X124245029Y-83280200D01*
X124401096Y-83280200D01*
X125419800Y-84298906D01*
X125419801Y-85901094D01*
X124552694Y-86768202D01*
X124150000Y-86768202D01*
X124125549Y-86770610D01*
X124100991Y-86770610D01*
X124036261Y-86776985D01*
X123940128Y-86796107D01*
X123877886Y-86814988D01*
X123787330Y-86852497D01*
X123729965Y-86883159D01*
X123648466Y-86937615D01*
X123598186Y-86978878D01*
X123528878Y-87048186D01*
X123487615Y-87098466D01*
X123433159Y-87179965D01*
X123402497Y-87237330D01*
X123364988Y-87327886D01*
X123346107Y-87390128D01*
X123326985Y-87486261D01*
X123320610Y-87550991D01*
X123320610Y-87575549D01*
X123318202Y-87600000D01*
X123318202Y-88150000D01*
X123324577Y-88214731D01*
X123342861Y-88275002D01*
X123324578Y-88335270D01*
X123318203Y-88400000D01*
X123318203Y-89400000D01*
X123324578Y-89464730D01*
X123343460Y-89526973D01*
X123374121Y-89584337D01*
X123415384Y-89634616D01*
X123465663Y-89675879D01*
X123523027Y-89706540D01*
X123585270Y-89725422D01*
X123650000Y-89731797D01*
X123769800Y-89731797D01*
X123769800Y-89800000D01*
X123772831Y-89830914D01*
X123775649Y-89861873D01*
X123775976Y-89862984D01*
X123776089Y-89864136D01*
X123785066Y-89893870D01*
X123793844Y-89923695D01*
X123794381Y-89924721D01*
X123794715Y-89925829D01*
X123809304Y-89953268D01*
X123823700Y-89980805D01*
X123824425Y-89981706D01*
X123824969Y-89982730D01*
X123844600Y-90006799D01*
X123864081Y-90031029D01*
X123864970Y-90031775D01*
X123865700Y-90032670D01*
X123889613Y-90052453D01*
X123913448Y-90072452D01*
X123914463Y-90073010D01*
X123915355Y-90073748D01*
X123942705Y-90088537D01*
X123969920Y-90103498D01*
X123971022Y-90103848D01*
X123972042Y-90104399D01*
X124001793Y-90113609D01*
X124031348Y-90122984D01*
X124032495Y-90123113D01*
X124033604Y-90123456D01*
X124064545Y-90126708D01*
X124095390Y-90130168D01*
X124097613Y-90130183D01*
X124097695Y-90130192D01*
X124097777Y-90130185D01*
X124100000Y-90130200D01*
X124700000Y-90130200D01*
X124730914Y-90127169D01*
X124761873Y-90124351D01*
X124762984Y-90124024D01*
X124764136Y-90123911D01*
X124793870Y-90114934D01*
X124823695Y-90106156D01*
X124824721Y-90105619D01*
X124825829Y-90105285D01*
X124853268Y-90090696D01*
X124880805Y-90076300D01*
X124881706Y-90075575D01*
X124882730Y-90075031D01*
X124906799Y-90055400D01*
X124931029Y-90035919D01*
X124931775Y-90035030D01*
X124932670Y-90034300D01*
X124952453Y-90010387D01*
X124972452Y-89986552D01*
X124973010Y-89985537D01*
X124973748Y-89984645D01*
X124988537Y-89957295D01*
X125003498Y-89930080D01*
X125003848Y-89928978D01*
X125004399Y-89927958D01*
X125013609Y-89898207D01*
X125022984Y-89868652D01*
X125023113Y-89867505D01*
X125023456Y-89866396D01*
X125026708Y-89835455D01*
X125030168Y-89804610D01*
X125030183Y-89802387D01*
X125030192Y-89802305D01*
X125030185Y-89802223D01*
X125030200Y-89800000D01*
X125030200Y-89731797D01*
X125150000Y-89731797D01*
X125214730Y-89725422D01*
X125276973Y-89706540D01*
X125334337Y-89675879D01*
X125384616Y-89634616D01*
X125425879Y-89584337D01*
X125456540Y-89526973D01*
X125475422Y-89464730D01*
X125481797Y-89400000D01*
X125481797Y-88400000D01*
X125475422Y-88335270D01*
X125457139Y-88275002D01*
X125475423Y-88214731D01*
X125481798Y-88150000D01*
X125481798Y-87600000D01*
X125479390Y-87575549D01*
X125479390Y-87550991D01*
X125473015Y-87486261D01*
X125453893Y-87390128D01*
X125435012Y-87327886D01*
X125410470Y-87268635D01*
X125850000Y-86829105D01*
X126289530Y-87268635D01*
X126264988Y-87327886D01*
X126246107Y-87390128D01*
X126226985Y-87486261D01*
X126220610Y-87550991D01*
X126220610Y-87575549D01*
X126218202Y-87600000D01*
X126218202Y-88150000D01*
X126224577Y-88214731D01*
X126242861Y-88275002D01*
X126224578Y-88335270D01*
X126218203Y-88400000D01*
X126218203Y-89400000D01*
X126224578Y-89464730D01*
X126243460Y-89526973D01*
X126274121Y-89584337D01*
X126315384Y-89634616D01*
X126365663Y-89675879D01*
X126423027Y-89706540D01*
X126485270Y-89725422D01*
X126550000Y-89731797D01*
X126669800Y-89731797D01*
X126669800Y-89800000D01*
X126672831Y-89830914D01*
X126675649Y-89861873D01*
X126675976Y-89862984D01*
X126676089Y-89864136D01*
X126685066Y-89893870D01*
X126693844Y-89923695D01*
X126694381Y-89924721D01*
X126694715Y-89925829D01*
X126709304Y-89953268D01*
X126723700Y-89980805D01*
X126724425Y-89981706D01*
X126724969Y-89982730D01*
X126744600Y-90006799D01*
X126764081Y-90031029D01*
X126764970Y-90031775D01*
X126765700Y-90032670D01*
X126789613Y-90052453D01*
X126813448Y-90072452D01*
X126814463Y-90073010D01*
X126815355Y-90073748D01*
X126842705Y-90088537D01*
X126869920Y-90103498D01*
X126871022Y-90103848D01*
X126872042Y-90104399D01*
X126901793Y-90113609D01*
X126931348Y-90122984D01*
X126932495Y-90123113D01*
X126933604Y-90123456D01*
X126964545Y-90126708D01*
X126995390Y-90130168D01*
X126997613Y-90130183D01*
X126997695Y-90130192D01*
X126997777Y-90130185D01*
X127000000Y-90130200D01*
X127600000Y-90130200D01*
X127630914Y-90127169D01*
X127661873Y-90124351D01*
X127662984Y-90124024D01*
X127664136Y-90123911D01*
X127693870Y-90114934D01*
X127723695Y-90106156D01*
X127724721Y-90105619D01*
X127725829Y-90105285D01*
X127753268Y-90090696D01*
X127780805Y-90076300D01*
X127781706Y-90075575D01*
X127782730Y-90075031D01*
X127806799Y-90055400D01*
X127831029Y-90035919D01*
X127831775Y-90035030D01*
X127832670Y-90034300D01*
X127852453Y-90010387D01*
X127872452Y-89986552D01*
X127873010Y-89985537D01*
X127873748Y-89984645D01*
X127888537Y-89957295D01*
X127903498Y-89930080D01*
X127903848Y-89928978D01*
X127904399Y-89927958D01*
X127913609Y-89898207D01*
X127922984Y-89868652D01*
X127923113Y-89867505D01*
X127923456Y-89866396D01*
X127926708Y-89835455D01*
X127930168Y-89804610D01*
X127930183Y-89802387D01*
X127930192Y-89802305D01*
X127930185Y-89802223D01*
X127930200Y-89800000D01*
X127930200Y-89731797D01*
X128050000Y-89731797D01*
X128114730Y-89725422D01*
X128176973Y-89706540D01*
X128234337Y-89675879D01*
X128284616Y-89634616D01*
X128325879Y-89584337D01*
X128356540Y-89526973D01*
X128375422Y-89464730D01*
X128381797Y-89400000D01*
X128381797Y-88400000D01*
X128375422Y-88335270D01*
X128357139Y-88275002D01*
X128375423Y-88214731D01*
X128381798Y-88150000D01*
X128381798Y-87600000D01*
X128379390Y-87575549D01*
X128379390Y-87550991D01*
X128373015Y-87486261D01*
X128353893Y-87390128D01*
X128335012Y-87327886D01*
X128297503Y-87237330D01*
X128266841Y-87179965D01*
X128212385Y-87098466D01*
X128171122Y-87048186D01*
X128101814Y-86978878D01*
X128051534Y-86937615D01*
X127970035Y-86883159D01*
X127912670Y-86852497D01*
X127822114Y-86814988D01*
X127759872Y-86796107D01*
X127663739Y-86776985D01*
X127599009Y-86770610D01*
X127574451Y-86770610D01*
X127550000Y-86768202D01*
X127147307Y-86768202D01*
X126380200Y-86001096D01*
X126380200Y-84123577D01*
X126382522Y-84100000D01*
X126380200Y-84076423D01*
X126380200Y-84076415D01*
X126373251Y-84005864D01*
X126345793Y-83915346D01*
X126301203Y-83831925D01*
X126294808Y-83824133D01*
X126256230Y-83777124D01*
X126256224Y-83777118D01*
X126241195Y-83758805D01*
X126222881Y-83743775D01*
X124956233Y-82477129D01*
X124941195Y-82458805D01*
X124868075Y-82398797D01*
X124784654Y-82354207D01*
X124694136Y-82326749D01*
X124623585Y-82319800D01*
X124623577Y-82319800D01*
X124600000Y-82317478D01*
X124576423Y-82319800D01*
X111223574Y-82319800D01*
X111199999Y-82317478D01*
X111176425Y-82319800D01*
X111176415Y-82319800D01*
X111105864Y-82326749D01*
X111015346Y-82354207D01*
X110931925Y-82398797D01*
X110858805Y-82458805D01*
X110843771Y-82477124D01*
X109528129Y-83792766D01*
X109509805Y-83807805D01*
X109449797Y-83880925D01*
X109405207Y-83964347D01*
X109377749Y-84054865D01*
X109370800Y-84125416D01*
X109370800Y-84125423D01*
X109368478Y-84149000D01*
X109370800Y-84172577D01*
X109370800Y-85690095D01*
X109276035Y-85784861D01*
X109266616Y-85773384D01*
X109216337Y-85732121D01*
X109158973Y-85701460D01*
X109096730Y-85682578D01*
X109032000Y-85676203D01*
X107632000Y-85676203D01*
X107567270Y-85682578D01*
X107505027Y-85701460D01*
X107447663Y-85732121D01*
X107397384Y-85773384D01*
X107356121Y-85823663D01*
X107325460Y-85881027D01*
X107306578Y-85943270D01*
X107300203Y-86008000D01*
X107300203Y-86808000D01*
X107301800Y-86824215D01*
X107301800Y-88008000D01*
X107304776Y-88038349D01*
X107307435Y-88068740D01*
X107307920Y-88070408D01*
X107308089Y-88072136D01*
X107316904Y-88101334D01*
X107325414Y-88130625D01*
X107326213Y-88132167D01*
X107326715Y-88133829D01*
X107341062Y-88160813D01*
X107355072Y-88187840D01*
X107356151Y-88189192D01*
X107356969Y-88190730D01*
X107376264Y-88214388D01*
X107395276Y-88238204D01*
X107397664Y-88240626D01*
X107397700Y-88240670D01*
X107397740Y-88240703D01*
X107398513Y-88241487D01*
X107698513Y-88541487D01*
X107722113Y-88560872D01*
X107745448Y-88580452D01*
X107746967Y-88581287D01*
X107748311Y-88582391D01*
X107775235Y-88596828D01*
X107801920Y-88611498D01*
X107803572Y-88612022D01*
X107805105Y-88612844D01*
X107834346Y-88621784D01*
X107863348Y-88630984D01*
X107865068Y-88631177D01*
X107866733Y-88631686D01*
X107897116Y-88634772D01*
X107927390Y-88638168D01*
X107930784Y-88638192D01*
X107930847Y-88638198D01*
X107930906Y-88638192D01*
X107932000Y-88638200D01*
X108732000Y-88638200D01*
X108762349Y-88635224D01*
X108792740Y-88632565D01*
X108794408Y-88632080D01*
X108796136Y-88631911D01*
X108825334Y-88623096D01*
X108854625Y-88614586D01*
X108856167Y-88613787D01*
X108857829Y-88613285D01*
X108884813Y-88598938D01*
X108911840Y-88584928D01*
X108913192Y-88583849D01*
X108914730Y-88583031D01*
X108938388Y-88563736D01*
X108962204Y-88544724D01*
X108964626Y-88542336D01*
X108964670Y-88542300D01*
X108964703Y-88542260D01*
X108965487Y-88541487D01*
X109265487Y-88241487D01*
X109284872Y-88217887D01*
X109304452Y-88194552D01*
X109305287Y-88193033D01*
X109306391Y-88191689D01*
X109320828Y-88164765D01*
X109335498Y-88138080D01*
X109336022Y-88136428D01*
X109336844Y-88134895D01*
X109345784Y-88105654D01*
X109354984Y-88076652D01*
X109355177Y-88074932D01*
X109355686Y-88073267D01*
X109358772Y-88042884D01*
X109362168Y-88012610D01*
X109362192Y-88009216D01*
X109362198Y-88009153D01*
X109362192Y-88009094D01*
X109362200Y-88008000D01*
X109362200Y-86887548D01*
X109370801Y-86886701D01*
X109370801Y-88603405D01*
X109368477Y-88627000D01*
X109370800Y-88650585D01*
X109370801Y-90850094D01*
X108201096Y-92019800D01*
X107980200Y-92019800D01*
X107980200Y-91826640D01*
X108001534Y-91812385D01*
X108051814Y-91771122D01*
X108121122Y-91701814D01*
X108162385Y-91651534D01*
X108216841Y-91570035D01*
X108247503Y-91512670D01*
X108285012Y-91422114D01*
X108303893Y-91359872D01*
X108323015Y-91263739D01*
X108329390Y-91199009D01*
X108329390Y-91174451D01*
X108331798Y-91150000D01*
X108331798Y-90650000D01*
X108329390Y-90625549D01*
X108329390Y-90600991D01*
X108323015Y-90536261D01*
X108303893Y-90440128D01*
X108285012Y-90377886D01*
X108247503Y-90287330D01*
X108216841Y-90229965D01*
X108162385Y-90148466D01*
X108121122Y-90098186D01*
X108051814Y-90028878D01*
X108001534Y-89987615D01*
X107920035Y-89933159D01*
X107862670Y-89902497D01*
X107772114Y-89864988D01*
X107709872Y-89846107D01*
X107613739Y-89826985D01*
X107549009Y-89820610D01*
X107524451Y-89820610D01*
X107500000Y-89818202D01*
X106950000Y-89818202D01*
X106885269Y-89824577D01*
X106824998Y-89842861D01*
X106764730Y-89824578D01*
X106700000Y-89818203D01*
X106630200Y-89818203D01*
X106630200Y-89778193D01*
X106939251Y-89469142D01*
X106955669Y-89455669D01*
X107009429Y-89390162D01*
X107049376Y-89315427D01*
X107073975Y-89234334D01*
X107080200Y-89171129D01*
X107080200Y-89171128D01*
X107082281Y-89150001D01*
X107080200Y-89128874D01*
X107080200Y-88852534D01*
X107100879Y-88827337D01*
X107131540Y-88769973D01*
X107150422Y-88707730D01*
X107156797Y-88643000D01*
X107156797Y-88143000D01*
X107150422Y-88078270D01*
X107131540Y-88016027D01*
X107100879Y-87958663D01*
X107059616Y-87908384D01*
X107009337Y-87867121D01*
X106951973Y-87836460D01*
X106889730Y-87817578D01*
X106825000Y-87811203D01*
X106475000Y-87811203D01*
X106430200Y-87815615D01*
X106430200Y-87697127D01*
X106432281Y-87676000D01*
X106429143Y-87644138D01*
X106423975Y-87591666D01*
X106399376Y-87510573D01*
X106359429Y-87435838D01*
X106305669Y-87370331D01*
X106289253Y-87356859D01*
X105857190Y-86924797D01*
X106175000Y-86924797D01*
X106239730Y-86918422D01*
X106301973Y-86899540D01*
X106325000Y-86887232D01*
X106348027Y-86899540D01*
X106410270Y-86918422D01*
X106475000Y-86924797D01*
X106825000Y-86924797D01*
X106889730Y-86918422D01*
X106951973Y-86899540D01*
X107009337Y-86868879D01*
X107059616Y-86827616D01*
X107100879Y-86777337D01*
X107131540Y-86719973D01*
X107150422Y-86657730D01*
X107156797Y-86593000D01*
X107156797Y-86093000D01*
X107150422Y-86028270D01*
X107131540Y-85966027D01*
X107100879Y-85908663D01*
X107080200Y-85883466D01*
X107080200Y-85530200D01*
X107081768Y-85530200D01*
X107242160Y-85498296D01*
X107393247Y-85435714D01*
X107529222Y-85344858D01*
X107644858Y-85229222D01*
X107735714Y-85093247D01*
X107798296Y-84942160D01*
X107830200Y-84781768D01*
X107830200Y-84618232D01*
X107798296Y-84457840D01*
X107735714Y-84306753D01*
X107644858Y-84170778D01*
X107529222Y-84055142D01*
X107393247Y-83964286D01*
X107242160Y-83901704D01*
X107081768Y-83869800D01*
X106918232Y-83869800D01*
X106757840Y-83901704D01*
X106606753Y-83964286D01*
X106470778Y-84055142D01*
X106355142Y-84170778D01*
X106264286Y-84306753D01*
X106250000Y-84341243D01*
X106235714Y-84306753D01*
X106144858Y-84170778D01*
X106029222Y-84055142D01*
X105893247Y-83964286D01*
X105742160Y-83901704D01*
X105581768Y-83869800D01*
X105418232Y-83869800D01*
X105257840Y-83901704D01*
X105106753Y-83964286D01*
X104970778Y-84055142D01*
X104855142Y-84170778D01*
X104764286Y-84306753D01*
X104701704Y-84457840D01*
X104669800Y-84618232D01*
X104669800Y-84781768D01*
X104701704Y-84942160D01*
X104764286Y-85093247D01*
X104855142Y-85229222D01*
X104970778Y-85344858D01*
X105069800Y-85411023D01*
X105069800Y-85478873D01*
X105068874Y-85488271D01*
X105016932Y-85470914D01*
X104906750Y-85458000D01*
X104748000Y-85616750D01*
X104748000Y-86220000D01*
X104843203Y-86220000D01*
X104843203Y-86466000D01*
X104748000Y-86466000D01*
X104748000Y-86490000D01*
X104652000Y-86490000D01*
X104652000Y-86466000D01*
X104553000Y-86466000D01*
X104553000Y-86220000D01*
X104652000Y-86220000D01*
X104652000Y-85616750D01*
X104493250Y-85458000D01*
X104383068Y-85470914D01*
X104264432Y-85510557D01*
X104155810Y-85572583D01*
X104061375Y-85654608D01*
X104005710Y-85726441D01*
X103958973Y-85701460D01*
X103896730Y-85682578D01*
X103832000Y-85676203D01*
X102432000Y-85676203D01*
X102367270Y-85682578D01*
X102305027Y-85701460D01*
X102247663Y-85732121D01*
X102197384Y-85773384D01*
X102156121Y-85823663D01*
X102125460Y-85881027D01*
X102106578Y-85943270D01*
X102100203Y-86008000D01*
X100755200Y-86008000D01*
X100755200Y-81855200D01*
X130044800Y-81855200D01*
X130044801Y-93144800D01*
G36*
X104269800Y-87854194D02*
G01*
X104269800Y-87933466D01*
X104249121Y-87958663D01*
X104218460Y-88016027D01*
X104199578Y-88078270D01*
X104193203Y-88143000D01*
X104193203Y-88643000D01*
X104199578Y-88707730D01*
X104218460Y-88769973D01*
X104249121Y-88827337D01*
X104290384Y-88877616D01*
X104340663Y-88918879D01*
X104398027Y-88949540D01*
X104460270Y-88968422D01*
X104525000Y-88974797D01*
X104630903Y-88974797D01*
X104634757Y-88982520D01*
X104711375Y-89081392D01*
X104805810Y-89163417D01*
X104914432Y-89225443D01*
X105033068Y-89265086D01*
X105143250Y-89278000D01*
X105302000Y-89119250D01*
X105302000Y-88516000D01*
X105206797Y-88516000D01*
X105206797Y-88270000D01*
X105302000Y-88270000D01*
X105302000Y-88246000D01*
X105398000Y-88246000D01*
X105398000Y-88270000D01*
X105493203Y-88270000D01*
X105493203Y-88516000D01*
X105398000Y-88516000D01*
X105398000Y-89119250D01*
X105556750Y-89278000D01*
X105666932Y-89265086D01*
X105785568Y-89225443D01*
X105894190Y-89163417D01*
X105988625Y-89081392D01*
X106065243Y-88982520D01*
X106069097Y-88974797D01*
X106175000Y-88974797D01*
X106219801Y-88970385D01*
X106219801Y-88971806D01*
X105910753Y-89280854D01*
X105894331Y-89294331D01*
X105840571Y-89359839D01*
X105800624Y-89434574D01*
X105776025Y-89515667D01*
X105769800Y-89578871D01*
X105767719Y-89600000D01*
X105769800Y-89621127D01*
X105769800Y-89818203D01*
X105700000Y-89818203D01*
X105635270Y-89824578D01*
X105573027Y-89843460D01*
X105515663Y-89874121D01*
X105465384Y-89915384D01*
X105424121Y-89965663D01*
X105393460Y-90023027D01*
X105374578Y-90085270D01*
X105368203Y-90150000D01*
X105368203Y-90269800D01*
X105300000Y-90269800D01*
X105269086Y-90272831D01*
X105238127Y-90275649D01*
X105237016Y-90275976D01*
X105235864Y-90276089D01*
X105206130Y-90285066D01*
X105176305Y-90293844D01*
X105175279Y-90294381D01*
X105174171Y-90294715D01*
X105146732Y-90309304D01*
X105119195Y-90323700D01*
X105118294Y-90324425D01*
X105117270Y-90324969D01*
X105093201Y-90344600D01*
X105068971Y-90364081D01*
X105068225Y-90364970D01*
X105067330Y-90365700D01*
X105047547Y-90389613D01*
X105027548Y-90413448D01*
X105026990Y-90414463D01*
X105026252Y-90415355D01*
X105011463Y-90442705D01*
X104996502Y-90469920D01*
X104996152Y-90471022D01*
X104995601Y-90472042D01*
X104986391Y-90501793D01*
X104977016Y-90531348D01*
X104976887Y-90532495D01*
X104976544Y-90533604D01*
X104973292Y-90564545D01*
X104969832Y-90595390D01*
X104969817Y-90597613D01*
X104969808Y-90597695D01*
X104969815Y-90597777D01*
X104969800Y-90600000D01*
X104969800Y-91200000D01*
X104972831Y-91230914D01*
X104975649Y-91261873D01*
X104975976Y-91262984D01*
X104976089Y-91264136D01*
X104985066Y-91293870D01*
X104993844Y-91323695D01*
X104994381Y-91324721D01*
X104994715Y-91325829D01*
X105009304Y-91353268D01*
X105023700Y-91380805D01*
X105024425Y-91381706D01*
X105024969Y-91382730D01*
X105044600Y-91406799D01*
X105064081Y-91431029D01*
X105064970Y-91431775D01*
X105065700Y-91432670D01*
X105089613Y-91452453D01*
X105113448Y-91472452D01*
X105114463Y-91473010D01*
X105115355Y-91473748D01*
X105142705Y-91488537D01*
X105169920Y-91503498D01*
X105171022Y-91503848D01*
X105172042Y-91504399D01*
X105201793Y-91513609D01*
X105231348Y-91522984D01*
X105232495Y-91523113D01*
X105233604Y-91523456D01*
X105264545Y-91526708D01*
X105295390Y-91530168D01*
X105297613Y-91530183D01*
X105297695Y-91530192D01*
X105297777Y-91530185D01*
X105300000Y-91530200D01*
X105368203Y-91530200D01*
X105368203Y-91650000D01*
X105374578Y-91714730D01*
X105393460Y-91776973D01*
X105424121Y-91834337D01*
X105465384Y-91884616D01*
X105515663Y-91925879D01*
X105573027Y-91956540D01*
X105635270Y-91975422D01*
X105700000Y-91981797D01*
X106700000Y-91981797D01*
X106764730Y-91975422D01*
X106824998Y-91957139D01*
X106885269Y-91975423D01*
X106950000Y-91981798D01*
X107019800Y-91981798D01*
X107019800Y-92019800D01*
X104198905Y-92019800D01*
X103612200Y-91433096D01*
X103612200Y-88627061D01*
X103625334Y-88623096D01*
X103654625Y-88614586D01*
X103656167Y-88613787D01*
X103657829Y-88613285D01*
X103684813Y-88598938D01*
X103711840Y-88584928D01*
X103713192Y-88583849D01*
X103714730Y-88583031D01*
X103738388Y-88563736D01*
X103762204Y-88544724D01*
X103764626Y-88542336D01*
X103764670Y-88542300D01*
X103764703Y-88542260D01*
X103765487Y-88541487D01*
X104065487Y-88241487D01*
X104084872Y-88217887D01*
X104104452Y-88194552D01*
X104105287Y-88193033D01*
X104106391Y-88191689D01*
X104120828Y-88164765D01*
X104135498Y-88138080D01*
X104136022Y-88136428D01*
X104136844Y-88134895D01*
X104145784Y-88105654D01*
X104154984Y-88076652D01*
X104155177Y-88074932D01*
X104155686Y-88073267D01*
X104158772Y-88042884D01*
X104162168Y-88012610D01*
X104162192Y-88009216D01*
X104162198Y-88009153D01*
X104162192Y-88009094D01*
X104162200Y-88008000D01*
X104162200Y-87746594D01*
X104269800Y-87854194D01*
G37*
X104269800Y-87854194D02*
X104269800Y-87933466D01*
X104249121Y-87958663D01*
X104218460Y-88016027D01*
X104199578Y-88078270D01*
X104193203Y-88143000D01*
X104193203Y-88643000D01*
X104199578Y-88707730D01*
X104218460Y-88769973D01*
X104249121Y-88827337D01*
X104290384Y-88877616D01*
X104340663Y-88918879D01*
X104398027Y-88949540D01*
X104460270Y-88968422D01*
X104525000Y-88974797D01*
X104630903Y-88974797D01*
X104634757Y-88982520D01*
X104711375Y-89081392D01*
X104805810Y-89163417D01*
X104914432Y-89225443D01*
X105033068Y-89265086D01*
X105143250Y-89278000D01*
X105302000Y-89119250D01*
X105302000Y-88516000D01*
X105206797Y-88516000D01*
X105206797Y-88270000D01*
X105302000Y-88270000D01*
X105302000Y-88246000D01*
X105398000Y-88246000D01*
X105398000Y-88270000D01*
X105493203Y-88270000D01*
X105493203Y-88516000D01*
X105398000Y-88516000D01*
X105398000Y-89119250D01*
X105556750Y-89278000D01*
X105666932Y-89265086D01*
X105785568Y-89225443D01*
X105894190Y-89163417D01*
X105988625Y-89081392D01*
X106065243Y-88982520D01*
X106069097Y-88974797D01*
X106175000Y-88974797D01*
X106219801Y-88970385D01*
X106219801Y-88971806D01*
X105910753Y-89280854D01*
X105894331Y-89294331D01*
X105840571Y-89359839D01*
X105800624Y-89434574D01*
X105776025Y-89515667D01*
X105769800Y-89578871D01*
X105767719Y-89600000D01*
X105769800Y-89621127D01*
X105769800Y-89818203D01*
X105700000Y-89818203D01*
X105635270Y-89824578D01*
X105573027Y-89843460D01*
X105515663Y-89874121D01*
X105465384Y-89915384D01*
X105424121Y-89965663D01*
X105393460Y-90023027D01*
X105374578Y-90085270D01*
X105368203Y-90150000D01*
X105368203Y-90269800D01*
X105300000Y-90269800D01*
X105269086Y-90272831D01*
X105238127Y-90275649D01*
X105237016Y-90275976D01*
X105235864Y-90276089D01*
X105206130Y-90285066D01*
X105176305Y-90293844D01*
X105175279Y-90294381D01*
X105174171Y-90294715D01*
X105146732Y-90309304D01*
X105119195Y-90323700D01*
X105118294Y-90324425D01*
X105117270Y-90324969D01*
X105093201Y-90344600D01*
X105068971Y-90364081D01*
X105068225Y-90364970D01*
X105067330Y-90365700D01*
X105047547Y-90389613D01*
X105027548Y-90413448D01*
X105026990Y-90414463D01*
X105026252Y-90415355D01*
X105011463Y-90442705D01*
X104996502Y-90469920D01*
X104996152Y-90471022D01*
X104995601Y-90472042D01*
X104986391Y-90501793D01*
X104977016Y-90531348D01*
X104976887Y-90532495D01*
X104976544Y-90533604D01*
X104973292Y-90564545D01*
X104969832Y-90595390D01*
X104969817Y-90597613D01*
X104969808Y-90597695D01*
X104969815Y-90597777D01*
X104969800Y-90600000D01*
X104969800Y-91200000D01*
X104972831Y-91230914D01*
X104975649Y-91261873D01*
X104975976Y-91262984D01*
X104976089Y-91264136D01*
X104985066Y-91293870D01*
X104993844Y-91323695D01*
X104994381Y-91324721D01*
X104994715Y-91325829D01*
X105009304Y-91353268D01*
X105023700Y-91380805D01*
X105024425Y-91381706D01*
X105024969Y-91382730D01*
X105044600Y-91406799D01*
X105064081Y-91431029D01*
X105064970Y-91431775D01*
X105065700Y-91432670D01*
X105089613Y-91452453D01*
X105113448Y-91472452D01*
X105114463Y-91473010D01*
X105115355Y-91473748D01*
X105142705Y-91488537D01*
X105169920Y-91503498D01*
X105171022Y-91503848D01*
X105172042Y-91504399D01*
X105201793Y-91513609D01*
X105231348Y-91522984D01*
X105232495Y-91523113D01*
X105233604Y-91523456D01*
X105264545Y-91526708D01*
X105295390Y-91530168D01*
X105297613Y-91530183D01*
X105297695Y-91530192D01*
X105297777Y-91530185D01*
X105300000Y-91530200D01*
X105368203Y-91530200D01*
X105368203Y-91650000D01*
X105374578Y-91714730D01*
X105393460Y-91776973D01*
X105424121Y-91834337D01*
X105465384Y-91884616D01*
X105515663Y-91925879D01*
X105573027Y-91956540D01*
X105635270Y-91975422D01*
X105700000Y-91981797D01*
X106700000Y-91981797D01*
X106764730Y-91975422D01*
X106824998Y-91957139D01*
X106885269Y-91975423D01*
X106950000Y-91981798D01*
X107019800Y-91981798D01*
X107019800Y-92019800D01*
X104198905Y-92019800D01*
X103612200Y-91433096D01*
X103612200Y-88627061D01*
X103625334Y-88623096D01*
X103654625Y-88614586D01*
X103656167Y-88613787D01*
X103657829Y-88613285D01*
X103684813Y-88598938D01*
X103711840Y-88584928D01*
X103713192Y-88583849D01*
X103714730Y-88583031D01*
X103738388Y-88563736D01*
X103762204Y-88544724D01*
X103764626Y-88542336D01*
X103764670Y-88542300D01*
X103764703Y-88542260D01*
X103765487Y-88541487D01*
X104065487Y-88241487D01*
X104084872Y-88217887D01*
X104104452Y-88194552D01*
X104105287Y-88193033D01*
X104106391Y-88191689D01*
X104120828Y-88164765D01*
X104135498Y-88138080D01*
X104136022Y-88136428D01*
X104136844Y-88134895D01*
X104145784Y-88105654D01*
X104154984Y-88076652D01*
X104155177Y-88074932D01*
X104155686Y-88073267D01*
X104158772Y-88042884D01*
X104162168Y-88012610D01*
X104162192Y-88009216D01*
X104162198Y-88009153D01*
X104162192Y-88009094D01*
X104162200Y-88008000D01*
X104162200Y-87746594D01*
X104269800Y-87854194D01*
G36*
X121103000Y-88830000D02*
G01*
X121007000Y-88830000D01*
X121007000Y-88600000D01*
X121103000Y-88600000D01*
X121103000Y-88830000D01*
G37*
X121103000Y-88830000D02*
X121007000Y-88830000D01*
X121007000Y-88600000D01*
X121103000Y-88600000D01*
X121103000Y-88830000D01*
G36*
X122680862Y-90489257D02*
G01*
X122694331Y-90505669D01*
X122759838Y-90559429D01*
X122834573Y-90599376D01*
X122915666Y-90623975D01*
X122978871Y-90630200D01*
X122978872Y-90630200D01*
X122999999Y-90632281D01*
X123021126Y-90630200D01*
X123439951Y-90630200D01*
X123487615Y-90701534D01*
X123528878Y-90751814D01*
X123598186Y-90821122D01*
X123648466Y-90862385D01*
X123729965Y-90916841D01*
X123787330Y-90947503D01*
X123877886Y-90985012D01*
X123940128Y-91003893D01*
X124036261Y-91023015D01*
X124100991Y-91029390D01*
X124125549Y-91029390D01*
X124150000Y-91031798D01*
X124473000Y-91031798D01*
X124473000Y-91573000D01*
X119630200Y-91573000D01*
X119630200Y-90521129D01*
X119632281Y-90500000D01*
X119623975Y-90415665D01*
X119599376Y-90334573D01*
X119559429Y-90259837D01*
X119532856Y-90227459D01*
X119532198Y-90226656D01*
X119544730Y-90225422D01*
X119580000Y-90214723D01*
X119615270Y-90225422D01*
X119680000Y-90231797D01*
X119910000Y-90231797D01*
X119974730Y-90225422D01*
X120010000Y-90214723D01*
X120045270Y-90225422D01*
X120110000Y-90231797D01*
X120340000Y-90231797D01*
X120404730Y-90225422D01*
X120440000Y-90214723D01*
X120475270Y-90225422D01*
X120540000Y-90231797D01*
X120770000Y-90231797D01*
X120834730Y-90225422D01*
X120870000Y-90214723D01*
X120905270Y-90225422D01*
X120970000Y-90231797D01*
X121200000Y-90231797D01*
X121264730Y-90225422D01*
X121326973Y-90206540D01*
X121384337Y-90175879D01*
X121434616Y-90134616D01*
X121475879Y-90084337D01*
X121506540Y-90026973D01*
X121525422Y-89964730D01*
X121531797Y-89900000D01*
X121531797Y-89575200D01*
X121766807Y-89575200D01*
X122680862Y-90489257D01*
G37*
X122680862Y-90489257D02*
X122694331Y-90505669D01*
X122759838Y-90559429D01*
X122834573Y-90599376D01*
X122915666Y-90623975D01*
X122978871Y-90630200D01*
X122978872Y-90630200D01*
X122999999Y-90632281D01*
X123021126Y-90630200D01*
X123439951Y-90630200D01*
X123487615Y-90701534D01*
X123528878Y-90751814D01*
X123598186Y-90821122D01*
X123648466Y-90862385D01*
X123729965Y-90916841D01*
X123787330Y-90947503D01*
X123877886Y-90985012D01*
X123940128Y-91003893D01*
X124036261Y-91023015D01*
X124100991Y-91029390D01*
X124125549Y-91029390D01*
X124150000Y-91031798D01*
X124473000Y-91031798D01*
X124473000Y-91573000D01*
X119630200Y-91573000D01*
X119630200Y-90521129D01*
X119632281Y-90500000D01*
X119623975Y-90415665D01*
X119599376Y-90334573D01*
X119559429Y-90259837D01*
X119532856Y-90227459D01*
X119532198Y-90226656D01*
X119544730Y-90225422D01*
X119580000Y-90214723D01*
X119615270Y-90225422D01*
X119680000Y-90231797D01*
X119910000Y-90231797D01*
X119974730Y-90225422D01*
X120010000Y-90214723D01*
X120045270Y-90225422D01*
X120110000Y-90231797D01*
X120340000Y-90231797D01*
X120404730Y-90225422D01*
X120440000Y-90214723D01*
X120475270Y-90225422D01*
X120540000Y-90231797D01*
X120770000Y-90231797D01*
X120834730Y-90225422D01*
X120870000Y-90214723D01*
X120905270Y-90225422D01*
X120970000Y-90231797D01*
X121200000Y-90231797D01*
X121264730Y-90225422D01*
X121326973Y-90206540D01*
X121384337Y-90175879D01*
X121434616Y-90134616D01*
X121475879Y-90084337D01*
X121506540Y-90026973D01*
X121525422Y-89964730D01*
X121531797Y-89900000D01*
X121531797Y-89575200D01*
X121766807Y-89575200D01*
X122680862Y-90489257D01*
G36*
X117515437Y-91569800D02*
G01*
X117484557Y-91569800D01*
X117499997Y-91546692D01*
X117515437Y-91569800D01*
G37*
X117515437Y-91569800D02*
X117484557Y-91569800D01*
X117499997Y-91546692D01*
X117515437Y-91569800D01*
G36*
X113569801Y-87378196D02*
G01*
X113569800Y-88678873D01*
X113567719Y-88700000D01*
X113569800Y-88721127D01*
X113569800Y-88721128D01*
X113576025Y-88784333D01*
X113600624Y-88865426D01*
X113640571Y-88940161D01*
X113694331Y-89005669D01*
X113710753Y-89019146D01*
X114169800Y-89478194D01*
X114169800Y-89900000D01*
X114172776Y-89930349D01*
X114175435Y-89960740D01*
X114175920Y-89962408D01*
X114176089Y-89964136D01*
X114184904Y-89993334D01*
X114193414Y-90022625D01*
X114194213Y-90024167D01*
X114194715Y-90025829D01*
X114209062Y-90052813D01*
X114223072Y-90079840D01*
X114224151Y-90081192D01*
X114224969Y-90082730D01*
X114244264Y-90106388D01*
X114263276Y-90130204D01*
X114265664Y-90132626D01*
X114265700Y-90132670D01*
X114265740Y-90132703D01*
X114266513Y-90133487D01*
X114466514Y-90333487D01*
X114490067Y-90352833D01*
X114513448Y-90372452D01*
X114514970Y-90373289D01*
X114516312Y-90374391D01*
X114543195Y-90388806D01*
X114569920Y-90403498D01*
X114571575Y-90404023D01*
X114573106Y-90404844D01*
X114602319Y-90413776D01*
X114631348Y-90422984D01*
X114633070Y-90423177D01*
X114634734Y-90423686D01*
X114665107Y-90426771D01*
X114695390Y-90430168D01*
X114698785Y-90430192D01*
X114698848Y-90430198D01*
X114698907Y-90430192D01*
X114700000Y-90430200D01*
X115883785Y-90430200D01*
X115900000Y-90431797D01*
X116305703Y-90431797D01*
X116270778Y-90455133D01*
X116155142Y-90570769D01*
X116064286Y-90706744D01*
X116001704Y-90857831D01*
X115969800Y-91018223D01*
X115969800Y-91181759D01*
X116001704Y-91342151D01*
X116064286Y-91493238D01*
X116115443Y-91569800D01*
X115631797Y-91569800D01*
X115631797Y-91100000D01*
X115625422Y-91035270D01*
X115606540Y-90973027D01*
X115575879Y-90915663D01*
X115534616Y-90865384D01*
X115484337Y-90824121D01*
X115426973Y-90793460D01*
X115364730Y-90774578D01*
X115300000Y-90768203D01*
X114700000Y-90768203D01*
X114683785Y-90769800D01*
X113527000Y-90769800D01*
X113527000Y-87335395D01*
X113569801Y-87378196D01*
G37*
X113569801Y-87378196D02*
X113569800Y-88678873D01*
X113567719Y-88700000D01*
X113569800Y-88721127D01*
X113569800Y-88721128D01*
X113576025Y-88784333D01*
X113600624Y-88865426D01*
X113640571Y-88940161D01*
X113694331Y-89005669D01*
X113710753Y-89019146D01*
X114169800Y-89478194D01*
X114169800Y-89900000D01*
X114172776Y-89930349D01*
X114175435Y-89960740D01*
X114175920Y-89962408D01*
X114176089Y-89964136D01*
X114184904Y-89993334D01*
X114193414Y-90022625D01*
X114194213Y-90024167D01*
X114194715Y-90025829D01*
X114209062Y-90052813D01*
X114223072Y-90079840D01*
X114224151Y-90081192D01*
X114224969Y-90082730D01*
X114244264Y-90106388D01*
X114263276Y-90130204D01*
X114265664Y-90132626D01*
X114265700Y-90132670D01*
X114265740Y-90132703D01*
X114266513Y-90133487D01*
X114466514Y-90333487D01*
X114490067Y-90352833D01*
X114513448Y-90372452D01*
X114514970Y-90373289D01*
X114516312Y-90374391D01*
X114543195Y-90388806D01*
X114569920Y-90403498D01*
X114571575Y-90404023D01*
X114573106Y-90404844D01*
X114602319Y-90413776D01*
X114631348Y-90422984D01*
X114633070Y-90423177D01*
X114634734Y-90423686D01*
X114665107Y-90426771D01*
X114695390Y-90430168D01*
X114698785Y-90430192D01*
X114698848Y-90430198D01*
X114698907Y-90430192D01*
X114700000Y-90430200D01*
X115883785Y-90430200D01*
X115900000Y-90431797D01*
X116305703Y-90431797D01*
X116270778Y-90455133D01*
X116155142Y-90570769D01*
X116064286Y-90706744D01*
X116001704Y-90857831D01*
X115969800Y-91018223D01*
X115969800Y-91181759D01*
X116001704Y-91342151D01*
X116064286Y-91493238D01*
X116115443Y-91569800D01*
X115631797Y-91569800D01*
X115631797Y-91100000D01*
X115625422Y-91035270D01*
X115606540Y-90973027D01*
X115575879Y-90915663D01*
X115534616Y-90865384D01*
X115484337Y-90824121D01*
X115426973Y-90793460D01*
X115364730Y-90774578D01*
X115300000Y-90768203D01*
X114700000Y-90768203D01*
X114683785Y-90769800D01*
X113527000Y-90769800D01*
X113527000Y-87335395D01*
X113569801Y-87378196D01*
G36*
X117628203Y-89900000D02*
G01*
X117634578Y-89964730D01*
X117644800Y-89998427D01*
X117644801Y-90481119D01*
X117555142Y-90570778D01*
X117500003Y-90653299D01*
X117444858Y-90570769D01*
X117329222Y-90455133D01*
X117230200Y-90388968D01*
X117230200Y-90253193D01*
X117628203Y-89855191D01*
X117628203Y-89900000D01*
G37*
X117628203Y-89900000D02*
X117634578Y-89964730D01*
X117644800Y-89998427D01*
X117644801Y-90481119D01*
X117555142Y-90570778D01*
X117500003Y-90653299D01*
X117444858Y-90570769D01*
X117329222Y-90455133D01*
X117230200Y-90388968D01*
X117230200Y-90253193D01*
X117628203Y-89855191D01*
X117628203Y-89900000D01*
G36*
X118511026Y-90319334D02*
G01*
X118514806Y-90331795D01*
X118505200Y-90327816D01*
X118505200Y-90260188D01*
X118511026Y-90319334D01*
G37*
X118511026Y-90319334D02*
X118514806Y-90331795D01*
X118505200Y-90327816D01*
X118505200Y-90260188D01*
X118511026Y-90319334D01*
G36*
X124473000Y-86768202D02*
G01*
X124150000Y-86768202D01*
X124125549Y-86770610D01*
X124100991Y-86770610D01*
X124036261Y-86776985D01*
X123940128Y-86796107D01*
X123877886Y-86814988D01*
X123787330Y-86852497D01*
X123729965Y-86883159D01*
X123648466Y-86937615D01*
X123598186Y-86978878D01*
X123528878Y-87048186D01*
X123487615Y-87098466D01*
X123433159Y-87179965D01*
X123402497Y-87237330D01*
X123364988Y-87327886D01*
X123346107Y-87390128D01*
X123326985Y-87486261D01*
X123320610Y-87550991D01*
X123320610Y-87575549D01*
X123318202Y-87600000D01*
X123318202Y-88150000D01*
X123324577Y-88214731D01*
X123342861Y-88275002D01*
X123324578Y-88335270D01*
X123318203Y-88400000D01*
X123318203Y-89400000D01*
X123324578Y-89464730D01*
X123342861Y-89524998D01*
X123324577Y-89585269D01*
X123318202Y-89650000D01*
X123318202Y-89769800D01*
X123178195Y-89769800D01*
X122264147Y-88855753D01*
X122250669Y-88839331D01*
X122185162Y-88785571D01*
X122110427Y-88745624D01*
X122029334Y-88721025D01*
X121988160Y-88716970D01*
X122006127Y-88715200D01*
X122006129Y-88715200D01*
X122069334Y-88708975D01*
X122150427Y-88684376D01*
X122225162Y-88644429D01*
X122290669Y-88590669D01*
X122304146Y-88574248D01*
X122364250Y-88514143D01*
X122380669Y-88500669D01*
X122434429Y-88435162D01*
X122474376Y-88360427D01*
X122498975Y-88279334D01*
X122505200Y-88216129D01*
X122505200Y-88216128D01*
X122507281Y-88195001D01*
X122505200Y-88173874D01*
X122505200Y-87296128D01*
X122507281Y-87275000D01*
X122498975Y-87190666D01*
X122474376Y-87109573D01*
X122434429Y-87034838D01*
X122380669Y-86969331D01*
X122332988Y-86930200D01*
X122878873Y-86930200D01*
X122900000Y-86932281D01*
X122921127Y-86930200D01*
X122921129Y-86930200D01*
X122984334Y-86923975D01*
X123065427Y-86899376D01*
X123140162Y-86859429D01*
X123205669Y-86805669D01*
X123219146Y-86789247D01*
X123589258Y-86419137D01*
X123605669Y-86405669D01*
X123659429Y-86340162D01*
X123699376Y-86265427D01*
X123723975Y-86184334D01*
X123730200Y-86121129D01*
X123730200Y-86121120D01*
X123732280Y-86100001D01*
X123730200Y-86078882D01*
X123730200Y-85831797D01*
X124000000Y-85831797D01*
X124064730Y-85825422D01*
X124126973Y-85806540D01*
X124184337Y-85775879D01*
X124234616Y-85734616D01*
X124275879Y-85684337D01*
X124306540Y-85626973D01*
X124325422Y-85564730D01*
X124331797Y-85500000D01*
X124331797Y-84727000D01*
X124473000Y-84727000D01*
X124473000Y-86768202D01*
G37*
X124473000Y-86768202D02*
X124150000Y-86768202D01*
X124125549Y-86770610D01*
X124100991Y-86770610D01*
X124036261Y-86776985D01*
X123940128Y-86796107D01*
X123877886Y-86814988D01*
X123787330Y-86852497D01*
X123729965Y-86883159D01*
X123648466Y-86937615D01*
X123598186Y-86978878D01*
X123528878Y-87048186D01*
X123487615Y-87098466D01*
X123433159Y-87179965D01*
X123402497Y-87237330D01*
X123364988Y-87327886D01*
X123346107Y-87390128D01*
X123326985Y-87486261D01*
X123320610Y-87550991D01*
X123320610Y-87575549D01*
X123318202Y-87600000D01*
X123318202Y-88150000D01*
X123324577Y-88214731D01*
X123342861Y-88275002D01*
X123324578Y-88335270D01*
X123318203Y-88400000D01*
X123318203Y-89400000D01*
X123324578Y-89464730D01*
X123342861Y-89524998D01*
X123324577Y-89585269D01*
X123318202Y-89650000D01*
X123318202Y-89769800D01*
X123178195Y-89769800D01*
X122264147Y-88855753D01*
X122250669Y-88839331D01*
X122185162Y-88785571D01*
X122110427Y-88745624D01*
X122029334Y-88721025D01*
X121988160Y-88716970D01*
X122006127Y-88715200D01*
X122006129Y-88715200D01*
X122069334Y-88708975D01*
X122150427Y-88684376D01*
X122225162Y-88644429D01*
X122290669Y-88590669D01*
X122304146Y-88574248D01*
X122364250Y-88514143D01*
X122380669Y-88500669D01*
X122434429Y-88435162D01*
X122474376Y-88360427D01*
X122498975Y-88279334D01*
X122505200Y-88216129D01*
X122505200Y-88216128D01*
X122507281Y-88195001D01*
X122505200Y-88173874D01*
X122505200Y-87296128D01*
X122507281Y-87275000D01*
X122498975Y-87190666D01*
X122474376Y-87109573D01*
X122434429Y-87034838D01*
X122380669Y-86969331D01*
X122332988Y-86930200D01*
X122878873Y-86930200D01*
X122900000Y-86932281D01*
X122921127Y-86930200D01*
X122921129Y-86930200D01*
X122984334Y-86923975D01*
X123065427Y-86899376D01*
X123140162Y-86859429D01*
X123205669Y-86805669D01*
X123219146Y-86789247D01*
X123589258Y-86419137D01*
X123605669Y-86405669D01*
X123659429Y-86340162D01*
X123699376Y-86265427D01*
X123723975Y-86184334D01*
X123730200Y-86121129D01*
X123730200Y-86121120D01*
X123732280Y-86100001D01*
X123730200Y-86078882D01*
X123730200Y-85831797D01*
X124000000Y-85831797D01*
X124064730Y-85825422D01*
X124126973Y-85806540D01*
X124184337Y-85775879D01*
X124234616Y-85734616D01*
X124275879Y-85684337D01*
X124306540Y-85626973D01*
X124325422Y-85564730D01*
X124331797Y-85500000D01*
X124331797Y-84727000D01*
X124473000Y-84727000D01*
X124473000Y-86768202D01*
G36*
X120475270Y-87775422D02*
G01*
X120540000Y-87781797D01*
X120548203Y-87781797D01*
X120548203Y-87970000D01*
X120554578Y-88034730D01*
X120565277Y-88070000D01*
X120554578Y-88105270D01*
X120548203Y-88170000D01*
X120548203Y-88400000D01*
X120554578Y-88464730D01*
X120565277Y-88500000D01*
X120554578Y-88535270D01*
X120548203Y-88600000D01*
X120548203Y-88830000D01*
X120554578Y-88894730D01*
X120565277Y-88930000D01*
X120554578Y-88965270D01*
X120548203Y-89030000D01*
X120548203Y-89218203D01*
X120540000Y-89218203D01*
X120475270Y-89224578D01*
X120440000Y-89235277D01*
X120404730Y-89224578D01*
X120340000Y-89218203D01*
X120110000Y-89218203D01*
X120045270Y-89224578D01*
X120010000Y-89235277D01*
X119974730Y-89224578D01*
X119910000Y-89218203D01*
X119680000Y-89218203D01*
X119615270Y-89224578D01*
X119580000Y-89235277D01*
X119544730Y-89224578D01*
X119480000Y-89218203D01*
X119250000Y-89218203D01*
X119185270Y-89224578D01*
X119150000Y-89235277D01*
X119114730Y-89224578D01*
X119050000Y-89218203D01*
X118820000Y-89218203D01*
X118755270Y-89224578D01*
X118720000Y-89235277D01*
X118684730Y-89224578D01*
X118620000Y-89218203D01*
X118611797Y-89218203D01*
X118611797Y-89030000D01*
X118605422Y-88965270D01*
X118594723Y-88930000D01*
X118605422Y-88894730D01*
X118611797Y-88830000D01*
X118611797Y-88715200D01*
X118708873Y-88715200D01*
X118730000Y-88717281D01*
X118751127Y-88715200D01*
X118751129Y-88715200D01*
X118814334Y-88708975D01*
X118895427Y-88684376D01*
X118970162Y-88644429D01*
X119035669Y-88590669D01*
X119049146Y-88574247D01*
X119654257Y-87969138D01*
X119670669Y-87955669D01*
X119684138Y-87939257D01*
X119724429Y-87890163D01*
X119764376Y-87815427D01*
X119774578Y-87781797D01*
X119910000Y-87781797D01*
X119974730Y-87775422D01*
X120010000Y-87764723D01*
X120045270Y-87775422D01*
X120110000Y-87781797D01*
X120340000Y-87781797D01*
X120404730Y-87775422D01*
X120440000Y-87764723D01*
X120475270Y-87775422D01*
G37*
X120475270Y-87775422D02*
X120540000Y-87781797D01*
X120548203Y-87781797D01*
X120548203Y-87970000D01*
X120554578Y-88034730D01*
X120565277Y-88070000D01*
X120554578Y-88105270D01*
X120548203Y-88170000D01*
X120548203Y-88400000D01*
X120554578Y-88464730D01*
X120565277Y-88500000D01*
X120554578Y-88535270D01*
X120548203Y-88600000D01*
X120548203Y-88830000D01*
X120554578Y-88894730D01*
X120565277Y-88930000D01*
X120554578Y-88965270D01*
X120548203Y-89030000D01*
X120548203Y-89218203D01*
X120540000Y-89218203D01*
X120475270Y-89224578D01*
X120440000Y-89235277D01*
X120404730Y-89224578D01*
X120340000Y-89218203D01*
X120110000Y-89218203D01*
X120045270Y-89224578D01*
X120010000Y-89235277D01*
X119974730Y-89224578D01*
X119910000Y-89218203D01*
X119680000Y-89218203D01*
X119615270Y-89224578D01*
X119580000Y-89235277D01*
X119544730Y-89224578D01*
X119480000Y-89218203D01*
X119250000Y-89218203D01*
X119185270Y-89224578D01*
X119150000Y-89235277D01*
X119114730Y-89224578D01*
X119050000Y-89218203D01*
X118820000Y-89218203D01*
X118755270Y-89224578D01*
X118720000Y-89235277D01*
X118684730Y-89224578D01*
X118620000Y-89218203D01*
X118611797Y-89218203D01*
X118611797Y-89030000D01*
X118605422Y-88965270D01*
X118594723Y-88930000D01*
X118605422Y-88894730D01*
X118611797Y-88830000D01*
X118611797Y-88715200D01*
X118708873Y-88715200D01*
X118730000Y-88717281D01*
X118751127Y-88715200D01*
X118751129Y-88715200D01*
X118814334Y-88708975D01*
X118895427Y-88684376D01*
X118970162Y-88644429D01*
X119035669Y-88590669D01*
X119049146Y-88574247D01*
X119654257Y-87969138D01*
X119670669Y-87955669D01*
X119684138Y-87939257D01*
X119724429Y-87890163D01*
X119764376Y-87815427D01*
X119774578Y-87781797D01*
X119910000Y-87781797D01*
X119974730Y-87775422D01*
X120010000Y-87764723D01*
X120045270Y-87775422D01*
X120110000Y-87781797D01*
X120340000Y-87781797D01*
X120404730Y-87775422D01*
X120440000Y-87764723D01*
X120475270Y-87775422D01*
G36*
X117410857Y-88144251D02*
G01*
X117424331Y-88160669D01*
X117489838Y-88214429D01*
X117564573Y-88254376D01*
X117598203Y-88264577D01*
X117598203Y-88284020D01*
X117584999Y-88282719D01*
X117563872Y-88284800D01*
X117563871Y-88284800D01*
X117500666Y-88291025D01*
X117419573Y-88315624D01*
X117344838Y-88355571D01*
X117279331Y-88409331D01*
X117265858Y-88425748D01*
X116775901Y-88915705D01*
X116775879Y-88915663D01*
X116734616Y-88865384D01*
X116684337Y-88824121D01*
X116626973Y-88793460D01*
X116564730Y-88774578D01*
X116500000Y-88768203D01*
X115900000Y-88768203D01*
X115883785Y-88769800D01*
X114700000Y-88769800D01*
X114680141Y-88771747D01*
X114430200Y-88521807D01*
X114430200Y-88297173D01*
X114466514Y-88333487D01*
X114490067Y-88352833D01*
X114513448Y-88372452D01*
X114514970Y-88373289D01*
X114516312Y-88374391D01*
X114543195Y-88388806D01*
X114569920Y-88403498D01*
X114571575Y-88404023D01*
X114573106Y-88404844D01*
X114602319Y-88413776D01*
X114631348Y-88422984D01*
X114633070Y-88423177D01*
X114634734Y-88423686D01*
X114665107Y-88426771D01*
X114695390Y-88430168D01*
X114698785Y-88430192D01*
X114698848Y-88430198D01*
X114698907Y-88430192D01*
X114700000Y-88430200D01*
X115883785Y-88430200D01*
X115900000Y-88431797D01*
X116500000Y-88431797D01*
X116564730Y-88425422D01*
X116626973Y-88406540D01*
X116684337Y-88375879D01*
X116734616Y-88334616D01*
X116775879Y-88284337D01*
X116806540Y-88226973D01*
X116825422Y-88164730D01*
X116831797Y-88100000D01*
X116831797Y-88030200D01*
X117296807Y-88030200D01*
X117410857Y-88144251D01*
G37*
X117410857Y-88144251D02*
X117424331Y-88160669D01*
X117489838Y-88214429D01*
X117564573Y-88254376D01*
X117598203Y-88264577D01*
X117598203Y-88284020D01*
X117584999Y-88282719D01*
X117563872Y-88284800D01*
X117563871Y-88284800D01*
X117500666Y-88291025D01*
X117419573Y-88315624D01*
X117344838Y-88355571D01*
X117279331Y-88409331D01*
X117265858Y-88425748D01*
X116775901Y-88915705D01*
X116775879Y-88915663D01*
X116734616Y-88865384D01*
X116684337Y-88824121D01*
X116626973Y-88793460D01*
X116564730Y-88774578D01*
X116500000Y-88768203D01*
X115900000Y-88768203D01*
X115883785Y-88769800D01*
X114700000Y-88769800D01*
X114680141Y-88771747D01*
X114430200Y-88521807D01*
X114430200Y-88297173D01*
X114466514Y-88333487D01*
X114490067Y-88352833D01*
X114513448Y-88372452D01*
X114514970Y-88373289D01*
X114516312Y-88374391D01*
X114543195Y-88388806D01*
X114569920Y-88403498D01*
X114571575Y-88404023D01*
X114573106Y-88404844D01*
X114602319Y-88413776D01*
X114631348Y-88422984D01*
X114633070Y-88423177D01*
X114634734Y-88423686D01*
X114665107Y-88426771D01*
X114695390Y-88430168D01*
X114698785Y-88430192D01*
X114698848Y-88430198D01*
X114698907Y-88430192D01*
X114700000Y-88430200D01*
X115883785Y-88430200D01*
X115900000Y-88431797D01*
X116500000Y-88431797D01*
X116564730Y-88425422D01*
X116626973Y-88406540D01*
X116684337Y-88375879D01*
X116734616Y-88334616D01*
X116775879Y-88284337D01*
X116806540Y-88226973D01*
X116825422Y-88164730D01*
X116831797Y-88100000D01*
X116831797Y-88030200D01*
X117296807Y-88030200D01*
X117410857Y-88144251D01*
G36*
X121644801Y-87854800D02*
G01*
X121561797Y-87854800D01*
X121561797Y-87740000D01*
X121558370Y-87705200D01*
X121644800Y-87705200D01*
X121644801Y-87854800D01*
G37*
X121644801Y-87854800D02*
X121561797Y-87854800D01*
X121561797Y-87740000D01*
X121558370Y-87705200D01*
X121644800Y-87705200D01*
X121644801Y-87854800D01*
G36*
X118611797Y-87794809D02*
G01*
X118611797Y-87781797D01*
X118620000Y-87781797D01*
X118625335Y-87781272D01*
X118611797Y-87794809D01*
G37*
X118611797Y-87794809D02*
X118611797Y-87781797D01*
X118620000Y-87781797D01*
X118625335Y-87781272D01*
X118611797Y-87794809D01*
G36*
X117376406Y-87169800D02*
G01*
X116831797Y-87169800D01*
X116831797Y-87100000D01*
X116825422Y-87035270D01*
X116823884Y-87030200D01*
X117236806Y-87030200D01*
X117376406Y-87169800D01*
G37*
X117376406Y-87169800D02*
X116831797Y-87169800D01*
X116831797Y-87100000D01*
X116825422Y-87035270D01*
X116823884Y-87030200D01*
X117236806Y-87030200D01*
X117376406Y-87169800D01*
G36*
X114168203Y-85500000D02*
G01*
X114174578Y-85564730D01*
X114193460Y-85626973D01*
X114224121Y-85684337D01*
X114265384Y-85734616D01*
X114315663Y-85775879D01*
X114373027Y-85806540D01*
X114435270Y-85825422D01*
X114500000Y-85831797D01*
X115023404Y-85831797D01*
X115959808Y-86768203D01*
X115900000Y-86768203D01*
X115883785Y-86769800D01*
X115078195Y-86769800D01*
X113527000Y-85218606D01*
X113527000Y-84727000D01*
X114168203Y-84727000D01*
X114168203Y-85500000D01*
G37*
X114168203Y-85500000D02*
X114174578Y-85564730D01*
X114193460Y-85626973D01*
X114224121Y-85684337D01*
X114265384Y-85734616D01*
X114315663Y-85775879D01*
X114373027Y-85806540D01*
X114435270Y-85825422D01*
X114500000Y-85831797D01*
X115023404Y-85831797D01*
X115959808Y-86768203D01*
X115900000Y-86768203D01*
X115883785Y-86769800D01*
X115078195Y-86769800D01*
X113527000Y-85218606D01*
X113527000Y-84727000D01*
X114168203Y-84727000D01*
X114168203Y-85500000D01*
G36*
X116224121Y-85684337D02*
G01*
X116265384Y-85734616D01*
X116315663Y-85775879D01*
X116373027Y-85806540D01*
X116435270Y-85825422D01*
X116500000Y-85831797D01*
X116770851Y-85831797D01*
X116776025Y-85884333D01*
X116800624Y-85965426D01*
X116840571Y-86040161D01*
X116894331Y-86105669D01*
X116910753Y-86119146D01*
X116961407Y-86169800D01*
X116578195Y-86169800D01*
X116138400Y-85730006D01*
X116175879Y-85684337D01*
X116200000Y-85639209D01*
X116224121Y-85684337D01*
G37*
X116224121Y-85684337D02*
X116265384Y-85734616D01*
X116315663Y-85775879D01*
X116373027Y-85806540D01*
X116435270Y-85825422D01*
X116500000Y-85831797D01*
X116770851Y-85831797D01*
X116776025Y-85884333D01*
X116800624Y-85965426D01*
X116840571Y-86040161D01*
X116894331Y-86105669D01*
X116910753Y-86119146D01*
X116961407Y-86169800D01*
X116578195Y-86169800D01*
X116138400Y-85730006D01*
X116175879Y-85684337D01*
X116200000Y-85639209D01*
X116224121Y-85684337D01*
G36*
X122268203Y-85500000D02*
G01*
X122274578Y-85564730D01*
X122293460Y-85626973D01*
X122324121Y-85684337D01*
X122365384Y-85734616D01*
X122415663Y-85775879D01*
X122473027Y-85806540D01*
X122535270Y-85825422D01*
X122600000Y-85831797D01*
X122869801Y-85831797D01*
X122869801Y-85921805D01*
X122721806Y-86069800D01*
X121597039Y-86069800D01*
X121599376Y-86065427D01*
X121611688Y-86024839D01*
X121623975Y-85984335D01*
X121632281Y-85900000D01*
X121630200Y-85878871D01*
X121630200Y-85831797D01*
X121900000Y-85831797D01*
X121964730Y-85825422D01*
X122026973Y-85806540D01*
X122084337Y-85775879D01*
X122134616Y-85734616D01*
X122175879Y-85684337D01*
X122206540Y-85626973D01*
X122225422Y-85564730D01*
X122231797Y-85500000D01*
X122231797Y-84727000D01*
X122268203Y-84727000D01*
X122268203Y-85500000D01*
G37*
X122268203Y-85500000D02*
X122274578Y-85564730D01*
X122293460Y-85626973D01*
X122324121Y-85684337D01*
X122365384Y-85734616D01*
X122415663Y-85775879D01*
X122473027Y-85806540D01*
X122535270Y-85825422D01*
X122600000Y-85831797D01*
X122869801Y-85831797D01*
X122869801Y-85921805D01*
X122721806Y-86069800D01*
X121597039Y-86069800D01*
X121599376Y-86065427D01*
X121611688Y-86024839D01*
X121623975Y-85984335D01*
X121632281Y-85900000D01*
X121630200Y-85878871D01*
X121630200Y-85831797D01*
X121900000Y-85831797D01*
X121964730Y-85825422D01*
X122026973Y-85806540D01*
X122084337Y-85775879D01*
X122134616Y-85734616D01*
X122175879Y-85684337D01*
X122206540Y-85626973D01*
X122225422Y-85564730D01*
X122231797Y-85500000D01*
X122231797Y-84727000D01*
X122268203Y-84727000D01*
X122268203Y-85500000D01*
G36*
X118224121Y-85684337D02*
G01*
X118265384Y-85734616D01*
X118315663Y-85775879D01*
X118373027Y-85806540D01*
X118435270Y-85825422D01*
X118500000Y-85831797D01*
X118759810Y-85831797D01*
X118645753Y-85945854D01*
X118629331Y-85959331D01*
X118575571Y-86024839D01*
X118557340Y-86058946D01*
X118309147Y-85810753D01*
X118295670Y-85794331D01*
X118230163Y-85740571D01*
X118160352Y-85703256D01*
X118175879Y-85684337D01*
X118200000Y-85639209D01*
X118224121Y-85684337D01*
G37*
X118224121Y-85684337D02*
X118265384Y-85734616D01*
X118315663Y-85775879D01*
X118373027Y-85806540D01*
X118435270Y-85825422D01*
X118500000Y-85831797D01*
X118759810Y-85831797D01*
X118645753Y-85945854D01*
X118629331Y-85959331D01*
X118575571Y-86024839D01*
X118557340Y-86058946D01*
X118309147Y-85810753D01*
X118295670Y-85794331D01*
X118230163Y-85740571D01*
X118160352Y-85703256D01*
X118175879Y-85684337D01*
X118200000Y-85639209D01*
X118224121Y-85684337D01*
G36*
X119630200Y-85865706D02*
G01*
X119630200Y-85831797D01*
X119664109Y-85831797D01*
X119630200Y-85865706D01*
G37*
X119630200Y-85865706D02*
X119630200Y-85831797D01*
X119664109Y-85831797D01*
X119630200Y-85865706D01*
G36*
X120216351Y-85669800D02*
G01*
X120183649Y-85669800D01*
X120200000Y-85639209D01*
X120216351Y-85669800D01*
G37*
X120216351Y-85669800D02*
X120183649Y-85669800D01*
X120200000Y-85639209D01*
X120216351Y-85669800D01*
M02*
