M48
; DRILL file {KiCad (5.1.5)-3} date 2020-05-01 9:55:55 AM
; FORMAT={-:-/ absolute / inch / decimal}
; #@! TF.CreationDate,2020-05-01T09:55:55-05:00
; #@! TF.GenerationSoftware,Kicad,Pcbnew,(5.1.5)-3
; #@! TF.FileFunction,Plated,1,2,PTH
FMAT,2
INCH
T1C0.0197
T2C0.0276
T3C0.0354
%
G90
G05
T1
X4.0945Y-3.5315
X4.1535Y-3.3346
X4.2126Y-3.3346
X4.2717Y-3.3346
X4.5984Y-3.5866
X4.6535Y-3.5866
X4.8976Y-3.5
X5.0118Y-3.5
T2
X4.4813Y-3.6063
X4.4951Y-3.6063
X4.5285Y-3.4488
X4.5423Y-3.4488
X4.4107Y-3.3393
X4.4107Y-3.3893
X4.4107Y-3.4393
X4.4107Y-3.4893
X4.5285Y-3.5276
X4.5423Y-3.5276
T3
X4.6929Y-3.3031
X4.6929Y-3.3189
X4.6142Y-3.3031
X4.6142Y-3.3189
X4.8543Y-3.3031
X4.8543Y-3.3189
X4.0603Y-3.4334
X4.0603Y-3.4491
X4.265Y-3.4334
X4.265Y-3.4491
X4.5354Y-3.3031
X4.5354Y-3.3189
X4.7717Y-3.3031
X4.7717Y-3.3189
T0
M30
