M48
; DRILL file {KiCad (5.1.5)-3} date 2020-05-21 2:26:05 PM
; FORMAT={-:-/ absolute / metric / decimal}
; #@! TF.CreationDate,2020-05-21T14:26:05-05:00
; #@! TF.GenerationSoftware,Kicad,Pcbnew,(5.1.5)-3
FMAT,2
METRIC
T1C0.300
T2C0.700
T3C0.800
T4C0.900
%
G90
G05
T1
X9.0Y60.9
X9.0Y40.5
X9.0Y20.1
X11.7Y51.0
X11.7Y49.0
X11.7Y47.0
X11.7Y30.6
X11.7Y28.6
X11.7Y26.6
X11.7Y10.2
X11.7Y8.2
X11.7Y6.2
X11.7Y53.0
X11.7Y32.6
X11.7Y12.2
X12.6Y59.8
X12.6Y39.4
X12.6Y19.0
X14.8Y59.8
X14.8Y39.4
X14.8Y19.0
X20.8Y54.2
X20.8Y33.8
X20.8Y13.4
X24.123Y54.893
X24.123Y34.493
X24.123Y14.093
X25.5Y51.5
X25.6Y11.0
X25.7Y31.3
X31.8Y49.5
X31.8Y29.1
X31.8Y8.7
T2
X33.8Y52.65
X33.8Y52.3
X33.8Y11.85
X33.8Y11.5
X10.3Y57.075
X10.3Y56.725
X33.8Y32.25
X33.8Y31.9
X10.3Y36.675
X10.3Y36.325
X10.3Y16.275
X10.3Y15.925
T3
X6.5Y12.2
X6.5Y10.2
X6.5Y8.2
X6.5Y6.2
X6.5Y19.2
X6.5Y17.2
X27.8Y46.9
X29.8Y46.9
X31.8Y46.9
X33.8Y46.9
X6.5Y32.6
X6.5Y30.6
X6.5Y28.6
X6.5Y26.6
X6.5Y60.0
X6.5Y58.0
X27.8Y6.1
X29.8Y6.1
X31.8Y6.1
X33.8Y6.1
X6.5Y53.0
X6.5Y51.0
X6.5Y49.0
X6.5Y47.0
X6.5Y39.6
X6.5Y37.6
X27.8Y26.5
X29.8Y26.5
X31.8Y26.5
X33.8Y26.5
T4
X18.4Y18.8
X18.4Y18.4
X29.2Y32.1
X29.2Y31.7
X22.2Y59.6
X22.2Y59.2
X18.4Y59.6
X18.4Y59.2
X29.2Y52.5
X29.2Y52.1
X22.2Y39.2
X22.2Y38.8
X29.2Y11.7
X29.2Y11.3
X22.2Y18.8
X22.2Y18.4
X18.4Y39.2
X18.4Y38.8
T0
M30
