G04 #@! TF.GenerationSoftware,KiCad,Pcbnew,(5.1.5)-3*
G04 #@! TF.CreationDate,2020-05-24T18:07:27-05:00*
G04 #@! TF.ProjectId,multiBoard_small,6d756c74-6942-46f6-9172-645f736d616c,rev?*
G04 #@! TF.SameCoordinates,PX5a995c0PY68e7780*
G04 #@! TF.FileFunction,Paste,Top*
G04 #@! TF.FilePolarity,Positive*
%FSLAX46Y46*%
G04 Gerber Fmt 4.6, Leading zero omitted, Abs format (unit mm)*
G04 Created by KiCad (PCBNEW (5.1.5)-3) date 2020-05-24 18:07:27*
%MOMM*%
%LPD*%
G04 APERTURE LIST*
%ADD10C,0.100000*%
%ADD11R,1.550000X1.300000*%
G04 APERTURE END LIST*
D10*
G36*
X16664703Y11804278D02*
G01*
X16679264Y11802118D01*
X16693543Y11798541D01*
X16707403Y11793582D01*
X16720710Y11787288D01*
X16733336Y11779720D01*
X16745159Y11770952D01*
X16756066Y11761066D01*
X16765952Y11750159D01*
X16774720Y11738336D01*
X16782288Y11725710D01*
X16788582Y11712403D01*
X16793541Y11698543D01*
X16797118Y11684264D01*
X16799278Y11669703D01*
X16800000Y11655000D01*
X16800000Y11355000D01*
X16799278Y11340297D01*
X16797118Y11325736D01*
X16793541Y11311457D01*
X16788582Y11297597D01*
X16782288Y11284290D01*
X16774720Y11271664D01*
X16765952Y11259841D01*
X16756066Y11248934D01*
X16745159Y11239048D01*
X16733336Y11230280D01*
X16720710Y11222712D01*
X16707403Y11216418D01*
X16693543Y11211459D01*
X16679264Y11207882D01*
X16664703Y11205722D01*
X16650000Y11205000D01*
X15000000Y11205000D01*
X14985297Y11205722D01*
X14970736Y11207882D01*
X14956457Y11211459D01*
X14942597Y11216418D01*
X14929290Y11222712D01*
X14916664Y11230280D01*
X14904841Y11239048D01*
X14893934Y11248934D01*
X14884048Y11259841D01*
X14875280Y11271664D01*
X14867712Y11284290D01*
X14861418Y11297597D01*
X14856459Y11311457D01*
X14852882Y11325736D01*
X14850722Y11340297D01*
X14850000Y11355000D01*
X14850000Y11655000D01*
X14850722Y11669703D01*
X14852882Y11684264D01*
X14856459Y11698543D01*
X14861418Y11712403D01*
X14867712Y11725710D01*
X14875280Y11738336D01*
X14884048Y11750159D01*
X14893934Y11761066D01*
X14904841Y11770952D01*
X14916664Y11779720D01*
X14929290Y11787288D01*
X14942597Y11793582D01*
X14956457Y11798541D01*
X14970736Y11802118D01*
X14985297Y11804278D01*
X15000000Y11805000D01*
X16650000Y11805000D01*
X16664703Y11804278D01*
G37*
G36*
X16664703Y10534278D02*
G01*
X16679264Y10532118D01*
X16693543Y10528541D01*
X16707403Y10523582D01*
X16720710Y10517288D01*
X16733336Y10509720D01*
X16745159Y10500952D01*
X16756066Y10491066D01*
X16765952Y10480159D01*
X16774720Y10468336D01*
X16782288Y10455710D01*
X16788582Y10442403D01*
X16793541Y10428543D01*
X16797118Y10414264D01*
X16799278Y10399703D01*
X16800000Y10385000D01*
X16800000Y10085000D01*
X16799278Y10070297D01*
X16797118Y10055736D01*
X16793541Y10041457D01*
X16788582Y10027597D01*
X16782288Y10014290D01*
X16774720Y10001664D01*
X16765952Y9989841D01*
X16756066Y9978934D01*
X16745159Y9969048D01*
X16733336Y9960280D01*
X16720710Y9952712D01*
X16707403Y9946418D01*
X16693543Y9941459D01*
X16679264Y9937882D01*
X16664703Y9935722D01*
X16650000Y9935000D01*
X15000000Y9935000D01*
X14985297Y9935722D01*
X14970736Y9937882D01*
X14956457Y9941459D01*
X14942597Y9946418D01*
X14929290Y9952712D01*
X14916664Y9960280D01*
X14904841Y9969048D01*
X14893934Y9978934D01*
X14884048Y9989841D01*
X14875280Y10001664D01*
X14867712Y10014290D01*
X14861418Y10027597D01*
X14856459Y10041457D01*
X14852882Y10055736D01*
X14850722Y10070297D01*
X14850000Y10085000D01*
X14850000Y10385000D01*
X14850722Y10399703D01*
X14852882Y10414264D01*
X14856459Y10428543D01*
X14861418Y10442403D01*
X14867712Y10455710D01*
X14875280Y10468336D01*
X14884048Y10480159D01*
X14893934Y10491066D01*
X14904841Y10500952D01*
X14916664Y10509720D01*
X14929290Y10517288D01*
X14942597Y10523582D01*
X14956457Y10528541D01*
X14970736Y10532118D01*
X14985297Y10534278D01*
X15000000Y10535000D01*
X16650000Y10535000D01*
X16664703Y10534278D01*
G37*
G36*
X16664703Y9264278D02*
G01*
X16679264Y9262118D01*
X16693543Y9258541D01*
X16707403Y9253582D01*
X16720710Y9247288D01*
X16733336Y9239720D01*
X16745159Y9230952D01*
X16756066Y9221066D01*
X16765952Y9210159D01*
X16774720Y9198336D01*
X16782288Y9185710D01*
X16788582Y9172403D01*
X16793541Y9158543D01*
X16797118Y9144264D01*
X16799278Y9129703D01*
X16800000Y9115000D01*
X16800000Y8815000D01*
X16799278Y8800297D01*
X16797118Y8785736D01*
X16793541Y8771457D01*
X16788582Y8757597D01*
X16782288Y8744290D01*
X16774720Y8731664D01*
X16765952Y8719841D01*
X16756066Y8708934D01*
X16745159Y8699048D01*
X16733336Y8690280D01*
X16720710Y8682712D01*
X16707403Y8676418D01*
X16693543Y8671459D01*
X16679264Y8667882D01*
X16664703Y8665722D01*
X16650000Y8665000D01*
X15000000Y8665000D01*
X14985297Y8665722D01*
X14970736Y8667882D01*
X14956457Y8671459D01*
X14942597Y8676418D01*
X14929290Y8682712D01*
X14916664Y8690280D01*
X14904841Y8699048D01*
X14893934Y8708934D01*
X14884048Y8719841D01*
X14875280Y8731664D01*
X14867712Y8744290D01*
X14861418Y8757597D01*
X14856459Y8771457D01*
X14852882Y8785736D01*
X14850722Y8800297D01*
X14850000Y8815000D01*
X14850000Y9115000D01*
X14850722Y9129703D01*
X14852882Y9144264D01*
X14856459Y9158543D01*
X14861418Y9172403D01*
X14867712Y9185710D01*
X14875280Y9198336D01*
X14884048Y9210159D01*
X14893934Y9221066D01*
X14904841Y9230952D01*
X14916664Y9239720D01*
X14929290Y9247288D01*
X14942597Y9253582D01*
X14956457Y9258541D01*
X14970736Y9262118D01*
X14985297Y9264278D01*
X15000000Y9265000D01*
X16650000Y9265000D01*
X16664703Y9264278D01*
G37*
G36*
X16664703Y7994278D02*
G01*
X16679264Y7992118D01*
X16693543Y7988541D01*
X16707403Y7983582D01*
X16720710Y7977288D01*
X16733336Y7969720D01*
X16745159Y7960952D01*
X16756066Y7951066D01*
X16765952Y7940159D01*
X16774720Y7928336D01*
X16782288Y7915710D01*
X16788582Y7902403D01*
X16793541Y7888543D01*
X16797118Y7874264D01*
X16799278Y7859703D01*
X16800000Y7845000D01*
X16800000Y7545000D01*
X16799278Y7530297D01*
X16797118Y7515736D01*
X16793541Y7501457D01*
X16788582Y7487597D01*
X16782288Y7474290D01*
X16774720Y7461664D01*
X16765952Y7449841D01*
X16756066Y7438934D01*
X16745159Y7429048D01*
X16733336Y7420280D01*
X16720710Y7412712D01*
X16707403Y7406418D01*
X16693543Y7401459D01*
X16679264Y7397882D01*
X16664703Y7395722D01*
X16650000Y7395000D01*
X15000000Y7395000D01*
X14985297Y7395722D01*
X14970736Y7397882D01*
X14956457Y7401459D01*
X14942597Y7406418D01*
X14929290Y7412712D01*
X14916664Y7420280D01*
X14904841Y7429048D01*
X14893934Y7438934D01*
X14884048Y7449841D01*
X14875280Y7461664D01*
X14867712Y7474290D01*
X14861418Y7487597D01*
X14856459Y7501457D01*
X14852882Y7515736D01*
X14850722Y7530297D01*
X14850000Y7545000D01*
X14850000Y7845000D01*
X14850722Y7859703D01*
X14852882Y7874264D01*
X14856459Y7888543D01*
X14861418Y7902403D01*
X14867712Y7915710D01*
X14875280Y7928336D01*
X14884048Y7940159D01*
X14893934Y7951066D01*
X14904841Y7960952D01*
X14916664Y7969720D01*
X14929290Y7977288D01*
X14942597Y7983582D01*
X14956457Y7988541D01*
X14970736Y7992118D01*
X14985297Y7994278D01*
X15000000Y7995000D01*
X16650000Y7995000D01*
X16664703Y7994278D01*
G37*
G36*
X21614703Y7994278D02*
G01*
X21629264Y7992118D01*
X21643543Y7988541D01*
X21657403Y7983582D01*
X21670710Y7977288D01*
X21683336Y7969720D01*
X21695159Y7960952D01*
X21706066Y7951066D01*
X21715952Y7940159D01*
X21724720Y7928336D01*
X21732288Y7915710D01*
X21738582Y7902403D01*
X21743541Y7888543D01*
X21747118Y7874264D01*
X21749278Y7859703D01*
X21750000Y7845000D01*
X21750000Y7545000D01*
X21749278Y7530297D01*
X21747118Y7515736D01*
X21743541Y7501457D01*
X21738582Y7487597D01*
X21732288Y7474290D01*
X21724720Y7461664D01*
X21715952Y7449841D01*
X21706066Y7438934D01*
X21695159Y7429048D01*
X21683336Y7420280D01*
X21670710Y7412712D01*
X21657403Y7406418D01*
X21643543Y7401459D01*
X21629264Y7397882D01*
X21614703Y7395722D01*
X21600000Y7395000D01*
X19950000Y7395000D01*
X19935297Y7395722D01*
X19920736Y7397882D01*
X19906457Y7401459D01*
X19892597Y7406418D01*
X19879290Y7412712D01*
X19866664Y7420280D01*
X19854841Y7429048D01*
X19843934Y7438934D01*
X19834048Y7449841D01*
X19825280Y7461664D01*
X19817712Y7474290D01*
X19811418Y7487597D01*
X19806459Y7501457D01*
X19802882Y7515736D01*
X19800722Y7530297D01*
X19800000Y7545000D01*
X19800000Y7845000D01*
X19800722Y7859703D01*
X19802882Y7874264D01*
X19806459Y7888543D01*
X19811418Y7902403D01*
X19817712Y7915710D01*
X19825280Y7928336D01*
X19834048Y7940159D01*
X19843934Y7951066D01*
X19854841Y7960952D01*
X19866664Y7969720D01*
X19879290Y7977288D01*
X19892597Y7983582D01*
X19906457Y7988541D01*
X19920736Y7992118D01*
X19935297Y7994278D01*
X19950000Y7995000D01*
X21600000Y7995000D01*
X21614703Y7994278D01*
G37*
G36*
X21614703Y9264278D02*
G01*
X21629264Y9262118D01*
X21643543Y9258541D01*
X21657403Y9253582D01*
X21670710Y9247288D01*
X21683336Y9239720D01*
X21695159Y9230952D01*
X21706066Y9221066D01*
X21715952Y9210159D01*
X21724720Y9198336D01*
X21732288Y9185710D01*
X21738582Y9172403D01*
X21743541Y9158543D01*
X21747118Y9144264D01*
X21749278Y9129703D01*
X21750000Y9115000D01*
X21750000Y8815000D01*
X21749278Y8800297D01*
X21747118Y8785736D01*
X21743541Y8771457D01*
X21738582Y8757597D01*
X21732288Y8744290D01*
X21724720Y8731664D01*
X21715952Y8719841D01*
X21706066Y8708934D01*
X21695159Y8699048D01*
X21683336Y8690280D01*
X21670710Y8682712D01*
X21657403Y8676418D01*
X21643543Y8671459D01*
X21629264Y8667882D01*
X21614703Y8665722D01*
X21600000Y8665000D01*
X19950000Y8665000D01*
X19935297Y8665722D01*
X19920736Y8667882D01*
X19906457Y8671459D01*
X19892597Y8676418D01*
X19879290Y8682712D01*
X19866664Y8690280D01*
X19854841Y8699048D01*
X19843934Y8708934D01*
X19834048Y8719841D01*
X19825280Y8731664D01*
X19817712Y8744290D01*
X19811418Y8757597D01*
X19806459Y8771457D01*
X19802882Y8785736D01*
X19800722Y8800297D01*
X19800000Y8815000D01*
X19800000Y9115000D01*
X19800722Y9129703D01*
X19802882Y9144264D01*
X19806459Y9158543D01*
X19811418Y9172403D01*
X19817712Y9185710D01*
X19825280Y9198336D01*
X19834048Y9210159D01*
X19843934Y9221066D01*
X19854841Y9230952D01*
X19866664Y9239720D01*
X19879290Y9247288D01*
X19892597Y9253582D01*
X19906457Y9258541D01*
X19920736Y9262118D01*
X19935297Y9264278D01*
X19950000Y9265000D01*
X21600000Y9265000D01*
X21614703Y9264278D01*
G37*
G36*
X21614703Y10534278D02*
G01*
X21629264Y10532118D01*
X21643543Y10528541D01*
X21657403Y10523582D01*
X21670710Y10517288D01*
X21683336Y10509720D01*
X21695159Y10500952D01*
X21706066Y10491066D01*
X21715952Y10480159D01*
X21724720Y10468336D01*
X21732288Y10455710D01*
X21738582Y10442403D01*
X21743541Y10428543D01*
X21747118Y10414264D01*
X21749278Y10399703D01*
X21750000Y10385000D01*
X21750000Y10085000D01*
X21749278Y10070297D01*
X21747118Y10055736D01*
X21743541Y10041457D01*
X21738582Y10027597D01*
X21732288Y10014290D01*
X21724720Y10001664D01*
X21715952Y9989841D01*
X21706066Y9978934D01*
X21695159Y9969048D01*
X21683336Y9960280D01*
X21670710Y9952712D01*
X21657403Y9946418D01*
X21643543Y9941459D01*
X21629264Y9937882D01*
X21614703Y9935722D01*
X21600000Y9935000D01*
X19950000Y9935000D01*
X19935297Y9935722D01*
X19920736Y9937882D01*
X19906457Y9941459D01*
X19892597Y9946418D01*
X19879290Y9952712D01*
X19866664Y9960280D01*
X19854841Y9969048D01*
X19843934Y9978934D01*
X19834048Y9989841D01*
X19825280Y10001664D01*
X19817712Y10014290D01*
X19811418Y10027597D01*
X19806459Y10041457D01*
X19802882Y10055736D01*
X19800722Y10070297D01*
X19800000Y10085000D01*
X19800000Y10385000D01*
X19800722Y10399703D01*
X19802882Y10414264D01*
X19806459Y10428543D01*
X19811418Y10442403D01*
X19817712Y10455710D01*
X19825280Y10468336D01*
X19834048Y10480159D01*
X19843934Y10491066D01*
X19854841Y10500952D01*
X19866664Y10509720D01*
X19879290Y10517288D01*
X19892597Y10523582D01*
X19906457Y10528541D01*
X19920736Y10532118D01*
X19935297Y10534278D01*
X19950000Y10535000D01*
X21600000Y10535000D01*
X21614703Y10534278D01*
G37*
G36*
X21614703Y11804278D02*
G01*
X21629264Y11802118D01*
X21643543Y11798541D01*
X21657403Y11793582D01*
X21670710Y11787288D01*
X21683336Y11779720D01*
X21695159Y11770952D01*
X21706066Y11761066D01*
X21715952Y11750159D01*
X21724720Y11738336D01*
X21732288Y11725710D01*
X21738582Y11712403D01*
X21743541Y11698543D01*
X21747118Y11684264D01*
X21749278Y11669703D01*
X21750000Y11655000D01*
X21750000Y11355000D01*
X21749278Y11340297D01*
X21747118Y11325736D01*
X21743541Y11311457D01*
X21738582Y11297597D01*
X21732288Y11284290D01*
X21724720Y11271664D01*
X21715952Y11259841D01*
X21706066Y11248934D01*
X21695159Y11239048D01*
X21683336Y11230280D01*
X21670710Y11222712D01*
X21657403Y11216418D01*
X21643543Y11211459D01*
X21629264Y11207882D01*
X21614703Y11205722D01*
X21600000Y11205000D01*
X19950000Y11205000D01*
X19935297Y11205722D01*
X19920736Y11207882D01*
X19906457Y11211459D01*
X19892597Y11216418D01*
X19879290Y11222712D01*
X19866664Y11230280D01*
X19854841Y11239048D01*
X19843934Y11248934D01*
X19834048Y11259841D01*
X19825280Y11271664D01*
X19817712Y11284290D01*
X19811418Y11297597D01*
X19806459Y11311457D01*
X19802882Y11325736D01*
X19800722Y11340297D01*
X19800000Y11355000D01*
X19800000Y11655000D01*
X19800722Y11669703D01*
X19802882Y11684264D01*
X19806459Y11698543D01*
X19811418Y11712403D01*
X19817712Y11725710D01*
X19825280Y11738336D01*
X19834048Y11750159D01*
X19843934Y11761066D01*
X19854841Y11770952D01*
X19866664Y11779720D01*
X19879290Y11787288D01*
X19892597Y11793582D01*
X19906457Y11798541D01*
X19920736Y11802118D01*
X19935297Y11804278D01*
X19950000Y11805000D01*
X21600000Y11805000D01*
X21614703Y11804278D01*
G37*
G36*
X15449504Y17923796D02*
G01*
X15473773Y17920196D01*
X15497571Y17914235D01*
X15520671Y17905970D01*
X15542849Y17895480D01*
X15563893Y17882867D01*
X15583598Y17868253D01*
X15601777Y17851777D01*
X15618253Y17833598D01*
X15632867Y17813893D01*
X15645480Y17792849D01*
X15655970Y17770671D01*
X15664235Y17747571D01*
X15670196Y17723773D01*
X15673796Y17699504D01*
X15675000Y17675000D01*
X15675000Y16925000D01*
X15673796Y16900496D01*
X15670196Y16876227D01*
X15664235Y16852429D01*
X15655970Y16829329D01*
X15645480Y16807151D01*
X15632867Y16786107D01*
X15618253Y16766402D01*
X15601777Y16748223D01*
X15583598Y16731747D01*
X15563893Y16717133D01*
X15542849Y16704520D01*
X15520671Y16694030D01*
X15497571Y16685765D01*
X15473773Y16679804D01*
X15449504Y16676204D01*
X15425000Y16675000D01*
X14175000Y16675000D01*
X14150496Y16676204D01*
X14126227Y16679804D01*
X14102429Y16685765D01*
X14079329Y16694030D01*
X14057151Y16704520D01*
X14036107Y16717133D01*
X14016402Y16731747D01*
X13998223Y16748223D01*
X13981747Y16766402D01*
X13967133Y16786107D01*
X13954520Y16807151D01*
X13944030Y16829329D01*
X13935765Y16852429D01*
X13929804Y16876227D01*
X13926204Y16900496D01*
X13925000Y16925000D01*
X13925000Y17675000D01*
X13926204Y17699504D01*
X13929804Y17723773D01*
X13935765Y17747571D01*
X13944030Y17770671D01*
X13954520Y17792849D01*
X13967133Y17813893D01*
X13981747Y17833598D01*
X13998223Y17851777D01*
X14016402Y17868253D01*
X14036107Y17882867D01*
X14057151Y17895480D01*
X14079329Y17905970D01*
X14102429Y17914235D01*
X14126227Y17920196D01*
X14150496Y17923796D01*
X14175000Y17925000D01*
X15425000Y17925000D01*
X15449504Y17923796D01*
G37*
G36*
X15449504Y15123796D02*
G01*
X15473773Y15120196D01*
X15497571Y15114235D01*
X15520671Y15105970D01*
X15542849Y15095480D01*
X15563893Y15082867D01*
X15583598Y15068253D01*
X15601777Y15051777D01*
X15618253Y15033598D01*
X15632867Y15013893D01*
X15645480Y14992849D01*
X15655970Y14970671D01*
X15664235Y14947571D01*
X15670196Y14923773D01*
X15673796Y14899504D01*
X15675000Y14875000D01*
X15675000Y14125000D01*
X15673796Y14100496D01*
X15670196Y14076227D01*
X15664235Y14052429D01*
X15655970Y14029329D01*
X15645480Y14007151D01*
X15632867Y13986107D01*
X15618253Y13966402D01*
X15601777Y13948223D01*
X15583598Y13931747D01*
X15563893Y13917133D01*
X15542849Y13904520D01*
X15520671Y13894030D01*
X15497571Y13885765D01*
X15473773Y13879804D01*
X15449504Y13876204D01*
X15425000Y13875000D01*
X14175000Y13875000D01*
X14150496Y13876204D01*
X14126227Y13879804D01*
X14102429Y13885765D01*
X14079329Y13894030D01*
X14057151Y13904520D01*
X14036107Y13917133D01*
X14016402Y13931747D01*
X13998223Y13948223D01*
X13981747Y13966402D01*
X13967133Y13986107D01*
X13954520Y14007151D01*
X13944030Y14029329D01*
X13935765Y14052429D01*
X13929804Y14076227D01*
X13926204Y14100496D01*
X13925000Y14125000D01*
X13925000Y14875000D01*
X13926204Y14899504D01*
X13929804Y14923773D01*
X13935765Y14947571D01*
X13944030Y14970671D01*
X13954520Y14992849D01*
X13967133Y15013893D01*
X13981747Y15033598D01*
X13998223Y15051777D01*
X14016402Y15068253D01*
X14036107Y15082867D01*
X14057151Y15095480D01*
X14079329Y15105970D01*
X14102429Y15114235D01*
X14126227Y15120196D01*
X14150496Y15123796D01*
X14175000Y15125000D01*
X15425000Y15125000D01*
X15449504Y15123796D01*
G37*
D11*
X26125000Y15250000D03*
X26125000Y19750000D03*
X34075000Y19750000D03*
X34075000Y15250000D03*
D10*
G36*
X16664703Y52604278D02*
G01*
X16679264Y52602118D01*
X16693543Y52598541D01*
X16707403Y52593582D01*
X16720710Y52587288D01*
X16733336Y52579720D01*
X16745159Y52570952D01*
X16756066Y52561066D01*
X16765952Y52550159D01*
X16774720Y52538336D01*
X16782288Y52525710D01*
X16788582Y52512403D01*
X16793541Y52498543D01*
X16797118Y52484264D01*
X16799278Y52469703D01*
X16800000Y52455000D01*
X16800000Y52155000D01*
X16799278Y52140297D01*
X16797118Y52125736D01*
X16793541Y52111457D01*
X16788582Y52097597D01*
X16782288Y52084290D01*
X16774720Y52071664D01*
X16765952Y52059841D01*
X16756066Y52048934D01*
X16745159Y52039048D01*
X16733336Y52030280D01*
X16720710Y52022712D01*
X16707403Y52016418D01*
X16693543Y52011459D01*
X16679264Y52007882D01*
X16664703Y52005722D01*
X16650000Y52005000D01*
X15000000Y52005000D01*
X14985297Y52005722D01*
X14970736Y52007882D01*
X14956457Y52011459D01*
X14942597Y52016418D01*
X14929290Y52022712D01*
X14916664Y52030280D01*
X14904841Y52039048D01*
X14893934Y52048934D01*
X14884048Y52059841D01*
X14875280Y52071664D01*
X14867712Y52084290D01*
X14861418Y52097597D01*
X14856459Y52111457D01*
X14852882Y52125736D01*
X14850722Y52140297D01*
X14850000Y52155000D01*
X14850000Y52455000D01*
X14850722Y52469703D01*
X14852882Y52484264D01*
X14856459Y52498543D01*
X14861418Y52512403D01*
X14867712Y52525710D01*
X14875280Y52538336D01*
X14884048Y52550159D01*
X14893934Y52561066D01*
X14904841Y52570952D01*
X14916664Y52579720D01*
X14929290Y52587288D01*
X14942597Y52593582D01*
X14956457Y52598541D01*
X14970736Y52602118D01*
X14985297Y52604278D01*
X15000000Y52605000D01*
X16650000Y52605000D01*
X16664703Y52604278D01*
G37*
G36*
X16664703Y51334278D02*
G01*
X16679264Y51332118D01*
X16693543Y51328541D01*
X16707403Y51323582D01*
X16720710Y51317288D01*
X16733336Y51309720D01*
X16745159Y51300952D01*
X16756066Y51291066D01*
X16765952Y51280159D01*
X16774720Y51268336D01*
X16782288Y51255710D01*
X16788582Y51242403D01*
X16793541Y51228543D01*
X16797118Y51214264D01*
X16799278Y51199703D01*
X16800000Y51185000D01*
X16800000Y50885000D01*
X16799278Y50870297D01*
X16797118Y50855736D01*
X16793541Y50841457D01*
X16788582Y50827597D01*
X16782288Y50814290D01*
X16774720Y50801664D01*
X16765952Y50789841D01*
X16756066Y50778934D01*
X16745159Y50769048D01*
X16733336Y50760280D01*
X16720710Y50752712D01*
X16707403Y50746418D01*
X16693543Y50741459D01*
X16679264Y50737882D01*
X16664703Y50735722D01*
X16650000Y50735000D01*
X15000000Y50735000D01*
X14985297Y50735722D01*
X14970736Y50737882D01*
X14956457Y50741459D01*
X14942597Y50746418D01*
X14929290Y50752712D01*
X14916664Y50760280D01*
X14904841Y50769048D01*
X14893934Y50778934D01*
X14884048Y50789841D01*
X14875280Y50801664D01*
X14867712Y50814290D01*
X14861418Y50827597D01*
X14856459Y50841457D01*
X14852882Y50855736D01*
X14850722Y50870297D01*
X14850000Y50885000D01*
X14850000Y51185000D01*
X14850722Y51199703D01*
X14852882Y51214264D01*
X14856459Y51228543D01*
X14861418Y51242403D01*
X14867712Y51255710D01*
X14875280Y51268336D01*
X14884048Y51280159D01*
X14893934Y51291066D01*
X14904841Y51300952D01*
X14916664Y51309720D01*
X14929290Y51317288D01*
X14942597Y51323582D01*
X14956457Y51328541D01*
X14970736Y51332118D01*
X14985297Y51334278D01*
X15000000Y51335000D01*
X16650000Y51335000D01*
X16664703Y51334278D01*
G37*
G36*
X16664703Y50064278D02*
G01*
X16679264Y50062118D01*
X16693543Y50058541D01*
X16707403Y50053582D01*
X16720710Y50047288D01*
X16733336Y50039720D01*
X16745159Y50030952D01*
X16756066Y50021066D01*
X16765952Y50010159D01*
X16774720Y49998336D01*
X16782288Y49985710D01*
X16788582Y49972403D01*
X16793541Y49958543D01*
X16797118Y49944264D01*
X16799278Y49929703D01*
X16800000Y49915000D01*
X16800000Y49615000D01*
X16799278Y49600297D01*
X16797118Y49585736D01*
X16793541Y49571457D01*
X16788582Y49557597D01*
X16782288Y49544290D01*
X16774720Y49531664D01*
X16765952Y49519841D01*
X16756066Y49508934D01*
X16745159Y49499048D01*
X16733336Y49490280D01*
X16720710Y49482712D01*
X16707403Y49476418D01*
X16693543Y49471459D01*
X16679264Y49467882D01*
X16664703Y49465722D01*
X16650000Y49465000D01*
X15000000Y49465000D01*
X14985297Y49465722D01*
X14970736Y49467882D01*
X14956457Y49471459D01*
X14942597Y49476418D01*
X14929290Y49482712D01*
X14916664Y49490280D01*
X14904841Y49499048D01*
X14893934Y49508934D01*
X14884048Y49519841D01*
X14875280Y49531664D01*
X14867712Y49544290D01*
X14861418Y49557597D01*
X14856459Y49571457D01*
X14852882Y49585736D01*
X14850722Y49600297D01*
X14850000Y49615000D01*
X14850000Y49915000D01*
X14850722Y49929703D01*
X14852882Y49944264D01*
X14856459Y49958543D01*
X14861418Y49972403D01*
X14867712Y49985710D01*
X14875280Y49998336D01*
X14884048Y50010159D01*
X14893934Y50021066D01*
X14904841Y50030952D01*
X14916664Y50039720D01*
X14929290Y50047288D01*
X14942597Y50053582D01*
X14956457Y50058541D01*
X14970736Y50062118D01*
X14985297Y50064278D01*
X15000000Y50065000D01*
X16650000Y50065000D01*
X16664703Y50064278D01*
G37*
G36*
X16664703Y48794278D02*
G01*
X16679264Y48792118D01*
X16693543Y48788541D01*
X16707403Y48783582D01*
X16720710Y48777288D01*
X16733336Y48769720D01*
X16745159Y48760952D01*
X16756066Y48751066D01*
X16765952Y48740159D01*
X16774720Y48728336D01*
X16782288Y48715710D01*
X16788582Y48702403D01*
X16793541Y48688543D01*
X16797118Y48674264D01*
X16799278Y48659703D01*
X16800000Y48645000D01*
X16800000Y48345000D01*
X16799278Y48330297D01*
X16797118Y48315736D01*
X16793541Y48301457D01*
X16788582Y48287597D01*
X16782288Y48274290D01*
X16774720Y48261664D01*
X16765952Y48249841D01*
X16756066Y48238934D01*
X16745159Y48229048D01*
X16733336Y48220280D01*
X16720710Y48212712D01*
X16707403Y48206418D01*
X16693543Y48201459D01*
X16679264Y48197882D01*
X16664703Y48195722D01*
X16650000Y48195000D01*
X15000000Y48195000D01*
X14985297Y48195722D01*
X14970736Y48197882D01*
X14956457Y48201459D01*
X14942597Y48206418D01*
X14929290Y48212712D01*
X14916664Y48220280D01*
X14904841Y48229048D01*
X14893934Y48238934D01*
X14884048Y48249841D01*
X14875280Y48261664D01*
X14867712Y48274290D01*
X14861418Y48287597D01*
X14856459Y48301457D01*
X14852882Y48315736D01*
X14850722Y48330297D01*
X14850000Y48345000D01*
X14850000Y48645000D01*
X14850722Y48659703D01*
X14852882Y48674264D01*
X14856459Y48688543D01*
X14861418Y48702403D01*
X14867712Y48715710D01*
X14875280Y48728336D01*
X14884048Y48740159D01*
X14893934Y48751066D01*
X14904841Y48760952D01*
X14916664Y48769720D01*
X14929290Y48777288D01*
X14942597Y48783582D01*
X14956457Y48788541D01*
X14970736Y48792118D01*
X14985297Y48794278D01*
X15000000Y48795000D01*
X16650000Y48795000D01*
X16664703Y48794278D01*
G37*
G36*
X21614703Y48794278D02*
G01*
X21629264Y48792118D01*
X21643543Y48788541D01*
X21657403Y48783582D01*
X21670710Y48777288D01*
X21683336Y48769720D01*
X21695159Y48760952D01*
X21706066Y48751066D01*
X21715952Y48740159D01*
X21724720Y48728336D01*
X21732288Y48715710D01*
X21738582Y48702403D01*
X21743541Y48688543D01*
X21747118Y48674264D01*
X21749278Y48659703D01*
X21750000Y48645000D01*
X21750000Y48345000D01*
X21749278Y48330297D01*
X21747118Y48315736D01*
X21743541Y48301457D01*
X21738582Y48287597D01*
X21732288Y48274290D01*
X21724720Y48261664D01*
X21715952Y48249841D01*
X21706066Y48238934D01*
X21695159Y48229048D01*
X21683336Y48220280D01*
X21670710Y48212712D01*
X21657403Y48206418D01*
X21643543Y48201459D01*
X21629264Y48197882D01*
X21614703Y48195722D01*
X21600000Y48195000D01*
X19950000Y48195000D01*
X19935297Y48195722D01*
X19920736Y48197882D01*
X19906457Y48201459D01*
X19892597Y48206418D01*
X19879290Y48212712D01*
X19866664Y48220280D01*
X19854841Y48229048D01*
X19843934Y48238934D01*
X19834048Y48249841D01*
X19825280Y48261664D01*
X19817712Y48274290D01*
X19811418Y48287597D01*
X19806459Y48301457D01*
X19802882Y48315736D01*
X19800722Y48330297D01*
X19800000Y48345000D01*
X19800000Y48645000D01*
X19800722Y48659703D01*
X19802882Y48674264D01*
X19806459Y48688543D01*
X19811418Y48702403D01*
X19817712Y48715710D01*
X19825280Y48728336D01*
X19834048Y48740159D01*
X19843934Y48751066D01*
X19854841Y48760952D01*
X19866664Y48769720D01*
X19879290Y48777288D01*
X19892597Y48783582D01*
X19906457Y48788541D01*
X19920736Y48792118D01*
X19935297Y48794278D01*
X19950000Y48795000D01*
X21600000Y48795000D01*
X21614703Y48794278D01*
G37*
G36*
X21614703Y50064278D02*
G01*
X21629264Y50062118D01*
X21643543Y50058541D01*
X21657403Y50053582D01*
X21670710Y50047288D01*
X21683336Y50039720D01*
X21695159Y50030952D01*
X21706066Y50021066D01*
X21715952Y50010159D01*
X21724720Y49998336D01*
X21732288Y49985710D01*
X21738582Y49972403D01*
X21743541Y49958543D01*
X21747118Y49944264D01*
X21749278Y49929703D01*
X21750000Y49915000D01*
X21750000Y49615000D01*
X21749278Y49600297D01*
X21747118Y49585736D01*
X21743541Y49571457D01*
X21738582Y49557597D01*
X21732288Y49544290D01*
X21724720Y49531664D01*
X21715952Y49519841D01*
X21706066Y49508934D01*
X21695159Y49499048D01*
X21683336Y49490280D01*
X21670710Y49482712D01*
X21657403Y49476418D01*
X21643543Y49471459D01*
X21629264Y49467882D01*
X21614703Y49465722D01*
X21600000Y49465000D01*
X19950000Y49465000D01*
X19935297Y49465722D01*
X19920736Y49467882D01*
X19906457Y49471459D01*
X19892597Y49476418D01*
X19879290Y49482712D01*
X19866664Y49490280D01*
X19854841Y49499048D01*
X19843934Y49508934D01*
X19834048Y49519841D01*
X19825280Y49531664D01*
X19817712Y49544290D01*
X19811418Y49557597D01*
X19806459Y49571457D01*
X19802882Y49585736D01*
X19800722Y49600297D01*
X19800000Y49615000D01*
X19800000Y49915000D01*
X19800722Y49929703D01*
X19802882Y49944264D01*
X19806459Y49958543D01*
X19811418Y49972403D01*
X19817712Y49985710D01*
X19825280Y49998336D01*
X19834048Y50010159D01*
X19843934Y50021066D01*
X19854841Y50030952D01*
X19866664Y50039720D01*
X19879290Y50047288D01*
X19892597Y50053582D01*
X19906457Y50058541D01*
X19920736Y50062118D01*
X19935297Y50064278D01*
X19950000Y50065000D01*
X21600000Y50065000D01*
X21614703Y50064278D01*
G37*
G36*
X21614703Y51334278D02*
G01*
X21629264Y51332118D01*
X21643543Y51328541D01*
X21657403Y51323582D01*
X21670710Y51317288D01*
X21683336Y51309720D01*
X21695159Y51300952D01*
X21706066Y51291066D01*
X21715952Y51280159D01*
X21724720Y51268336D01*
X21732288Y51255710D01*
X21738582Y51242403D01*
X21743541Y51228543D01*
X21747118Y51214264D01*
X21749278Y51199703D01*
X21750000Y51185000D01*
X21750000Y50885000D01*
X21749278Y50870297D01*
X21747118Y50855736D01*
X21743541Y50841457D01*
X21738582Y50827597D01*
X21732288Y50814290D01*
X21724720Y50801664D01*
X21715952Y50789841D01*
X21706066Y50778934D01*
X21695159Y50769048D01*
X21683336Y50760280D01*
X21670710Y50752712D01*
X21657403Y50746418D01*
X21643543Y50741459D01*
X21629264Y50737882D01*
X21614703Y50735722D01*
X21600000Y50735000D01*
X19950000Y50735000D01*
X19935297Y50735722D01*
X19920736Y50737882D01*
X19906457Y50741459D01*
X19892597Y50746418D01*
X19879290Y50752712D01*
X19866664Y50760280D01*
X19854841Y50769048D01*
X19843934Y50778934D01*
X19834048Y50789841D01*
X19825280Y50801664D01*
X19817712Y50814290D01*
X19811418Y50827597D01*
X19806459Y50841457D01*
X19802882Y50855736D01*
X19800722Y50870297D01*
X19800000Y50885000D01*
X19800000Y51185000D01*
X19800722Y51199703D01*
X19802882Y51214264D01*
X19806459Y51228543D01*
X19811418Y51242403D01*
X19817712Y51255710D01*
X19825280Y51268336D01*
X19834048Y51280159D01*
X19843934Y51291066D01*
X19854841Y51300952D01*
X19866664Y51309720D01*
X19879290Y51317288D01*
X19892597Y51323582D01*
X19906457Y51328541D01*
X19920736Y51332118D01*
X19935297Y51334278D01*
X19950000Y51335000D01*
X21600000Y51335000D01*
X21614703Y51334278D01*
G37*
G36*
X21614703Y52604278D02*
G01*
X21629264Y52602118D01*
X21643543Y52598541D01*
X21657403Y52593582D01*
X21670710Y52587288D01*
X21683336Y52579720D01*
X21695159Y52570952D01*
X21706066Y52561066D01*
X21715952Y52550159D01*
X21724720Y52538336D01*
X21732288Y52525710D01*
X21738582Y52512403D01*
X21743541Y52498543D01*
X21747118Y52484264D01*
X21749278Y52469703D01*
X21750000Y52455000D01*
X21750000Y52155000D01*
X21749278Y52140297D01*
X21747118Y52125736D01*
X21743541Y52111457D01*
X21738582Y52097597D01*
X21732288Y52084290D01*
X21724720Y52071664D01*
X21715952Y52059841D01*
X21706066Y52048934D01*
X21695159Y52039048D01*
X21683336Y52030280D01*
X21670710Y52022712D01*
X21657403Y52016418D01*
X21643543Y52011459D01*
X21629264Y52007882D01*
X21614703Y52005722D01*
X21600000Y52005000D01*
X19950000Y52005000D01*
X19935297Y52005722D01*
X19920736Y52007882D01*
X19906457Y52011459D01*
X19892597Y52016418D01*
X19879290Y52022712D01*
X19866664Y52030280D01*
X19854841Y52039048D01*
X19843934Y52048934D01*
X19834048Y52059841D01*
X19825280Y52071664D01*
X19817712Y52084290D01*
X19811418Y52097597D01*
X19806459Y52111457D01*
X19802882Y52125736D01*
X19800722Y52140297D01*
X19800000Y52155000D01*
X19800000Y52455000D01*
X19800722Y52469703D01*
X19802882Y52484264D01*
X19806459Y52498543D01*
X19811418Y52512403D01*
X19817712Y52525710D01*
X19825280Y52538336D01*
X19834048Y52550159D01*
X19843934Y52561066D01*
X19854841Y52570952D01*
X19866664Y52579720D01*
X19879290Y52587288D01*
X19892597Y52593582D01*
X19906457Y52598541D01*
X19920736Y52602118D01*
X19935297Y52604278D01*
X19950000Y52605000D01*
X21600000Y52605000D01*
X21614703Y52604278D01*
G37*
G36*
X15449504Y58723796D02*
G01*
X15473773Y58720196D01*
X15497571Y58714235D01*
X15520671Y58705970D01*
X15542849Y58695480D01*
X15563893Y58682867D01*
X15583598Y58668253D01*
X15601777Y58651777D01*
X15618253Y58633598D01*
X15632867Y58613893D01*
X15645480Y58592849D01*
X15655970Y58570671D01*
X15664235Y58547571D01*
X15670196Y58523773D01*
X15673796Y58499504D01*
X15675000Y58475000D01*
X15675000Y57725000D01*
X15673796Y57700496D01*
X15670196Y57676227D01*
X15664235Y57652429D01*
X15655970Y57629329D01*
X15645480Y57607151D01*
X15632867Y57586107D01*
X15618253Y57566402D01*
X15601777Y57548223D01*
X15583598Y57531747D01*
X15563893Y57517133D01*
X15542849Y57504520D01*
X15520671Y57494030D01*
X15497571Y57485765D01*
X15473773Y57479804D01*
X15449504Y57476204D01*
X15425000Y57475000D01*
X14175000Y57475000D01*
X14150496Y57476204D01*
X14126227Y57479804D01*
X14102429Y57485765D01*
X14079329Y57494030D01*
X14057151Y57504520D01*
X14036107Y57517133D01*
X14016402Y57531747D01*
X13998223Y57548223D01*
X13981747Y57566402D01*
X13967133Y57586107D01*
X13954520Y57607151D01*
X13944030Y57629329D01*
X13935765Y57652429D01*
X13929804Y57676227D01*
X13926204Y57700496D01*
X13925000Y57725000D01*
X13925000Y58475000D01*
X13926204Y58499504D01*
X13929804Y58523773D01*
X13935765Y58547571D01*
X13944030Y58570671D01*
X13954520Y58592849D01*
X13967133Y58613893D01*
X13981747Y58633598D01*
X13998223Y58651777D01*
X14016402Y58668253D01*
X14036107Y58682867D01*
X14057151Y58695480D01*
X14079329Y58705970D01*
X14102429Y58714235D01*
X14126227Y58720196D01*
X14150496Y58723796D01*
X14175000Y58725000D01*
X15425000Y58725000D01*
X15449504Y58723796D01*
G37*
G36*
X15449504Y55923796D02*
G01*
X15473773Y55920196D01*
X15497571Y55914235D01*
X15520671Y55905970D01*
X15542849Y55895480D01*
X15563893Y55882867D01*
X15583598Y55868253D01*
X15601777Y55851777D01*
X15618253Y55833598D01*
X15632867Y55813893D01*
X15645480Y55792849D01*
X15655970Y55770671D01*
X15664235Y55747571D01*
X15670196Y55723773D01*
X15673796Y55699504D01*
X15675000Y55675000D01*
X15675000Y54925000D01*
X15673796Y54900496D01*
X15670196Y54876227D01*
X15664235Y54852429D01*
X15655970Y54829329D01*
X15645480Y54807151D01*
X15632867Y54786107D01*
X15618253Y54766402D01*
X15601777Y54748223D01*
X15583598Y54731747D01*
X15563893Y54717133D01*
X15542849Y54704520D01*
X15520671Y54694030D01*
X15497571Y54685765D01*
X15473773Y54679804D01*
X15449504Y54676204D01*
X15425000Y54675000D01*
X14175000Y54675000D01*
X14150496Y54676204D01*
X14126227Y54679804D01*
X14102429Y54685765D01*
X14079329Y54694030D01*
X14057151Y54704520D01*
X14036107Y54717133D01*
X14016402Y54731747D01*
X13998223Y54748223D01*
X13981747Y54766402D01*
X13967133Y54786107D01*
X13954520Y54807151D01*
X13944030Y54829329D01*
X13935765Y54852429D01*
X13929804Y54876227D01*
X13926204Y54900496D01*
X13925000Y54925000D01*
X13925000Y55675000D01*
X13926204Y55699504D01*
X13929804Y55723773D01*
X13935765Y55747571D01*
X13944030Y55770671D01*
X13954520Y55792849D01*
X13967133Y55813893D01*
X13981747Y55833598D01*
X13998223Y55851777D01*
X14016402Y55868253D01*
X14036107Y55882867D01*
X14057151Y55895480D01*
X14079329Y55905970D01*
X14102429Y55914235D01*
X14126227Y55920196D01*
X14150496Y55923796D01*
X14175000Y55925000D01*
X15425000Y55925000D01*
X15449504Y55923796D01*
G37*
D11*
X26125000Y56050000D03*
X26125000Y60550000D03*
X34075000Y60550000D03*
X34075000Y56050000D03*
X34075000Y35650000D03*
X34075000Y40150000D03*
X26125000Y40150000D03*
X26125000Y35650000D03*
D10*
G36*
X21614703Y32204278D02*
G01*
X21629264Y32202118D01*
X21643543Y32198541D01*
X21657403Y32193582D01*
X21670710Y32187288D01*
X21683336Y32179720D01*
X21695159Y32170952D01*
X21706066Y32161066D01*
X21715952Y32150159D01*
X21724720Y32138336D01*
X21732288Y32125710D01*
X21738582Y32112403D01*
X21743541Y32098543D01*
X21747118Y32084264D01*
X21749278Y32069703D01*
X21750000Y32055000D01*
X21750000Y31755000D01*
X21749278Y31740297D01*
X21747118Y31725736D01*
X21743541Y31711457D01*
X21738582Y31697597D01*
X21732288Y31684290D01*
X21724720Y31671664D01*
X21715952Y31659841D01*
X21706066Y31648934D01*
X21695159Y31639048D01*
X21683336Y31630280D01*
X21670710Y31622712D01*
X21657403Y31616418D01*
X21643543Y31611459D01*
X21629264Y31607882D01*
X21614703Y31605722D01*
X21600000Y31605000D01*
X19950000Y31605000D01*
X19935297Y31605722D01*
X19920736Y31607882D01*
X19906457Y31611459D01*
X19892597Y31616418D01*
X19879290Y31622712D01*
X19866664Y31630280D01*
X19854841Y31639048D01*
X19843934Y31648934D01*
X19834048Y31659841D01*
X19825280Y31671664D01*
X19817712Y31684290D01*
X19811418Y31697597D01*
X19806459Y31711457D01*
X19802882Y31725736D01*
X19800722Y31740297D01*
X19800000Y31755000D01*
X19800000Y32055000D01*
X19800722Y32069703D01*
X19802882Y32084264D01*
X19806459Y32098543D01*
X19811418Y32112403D01*
X19817712Y32125710D01*
X19825280Y32138336D01*
X19834048Y32150159D01*
X19843934Y32161066D01*
X19854841Y32170952D01*
X19866664Y32179720D01*
X19879290Y32187288D01*
X19892597Y32193582D01*
X19906457Y32198541D01*
X19920736Y32202118D01*
X19935297Y32204278D01*
X19950000Y32205000D01*
X21600000Y32205000D01*
X21614703Y32204278D01*
G37*
G36*
X21614703Y30934278D02*
G01*
X21629264Y30932118D01*
X21643543Y30928541D01*
X21657403Y30923582D01*
X21670710Y30917288D01*
X21683336Y30909720D01*
X21695159Y30900952D01*
X21706066Y30891066D01*
X21715952Y30880159D01*
X21724720Y30868336D01*
X21732288Y30855710D01*
X21738582Y30842403D01*
X21743541Y30828543D01*
X21747118Y30814264D01*
X21749278Y30799703D01*
X21750000Y30785000D01*
X21750000Y30485000D01*
X21749278Y30470297D01*
X21747118Y30455736D01*
X21743541Y30441457D01*
X21738582Y30427597D01*
X21732288Y30414290D01*
X21724720Y30401664D01*
X21715952Y30389841D01*
X21706066Y30378934D01*
X21695159Y30369048D01*
X21683336Y30360280D01*
X21670710Y30352712D01*
X21657403Y30346418D01*
X21643543Y30341459D01*
X21629264Y30337882D01*
X21614703Y30335722D01*
X21600000Y30335000D01*
X19950000Y30335000D01*
X19935297Y30335722D01*
X19920736Y30337882D01*
X19906457Y30341459D01*
X19892597Y30346418D01*
X19879290Y30352712D01*
X19866664Y30360280D01*
X19854841Y30369048D01*
X19843934Y30378934D01*
X19834048Y30389841D01*
X19825280Y30401664D01*
X19817712Y30414290D01*
X19811418Y30427597D01*
X19806459Y30441457D01*
X19802882Y30455736D01*
X19800722Y30470297D01*
X19800000Y30485000D01*
X19800000Y30785000D01*
X19800722Y30799703D01*
X19802882Y30814264D01*
X19806459Y30828543D01*
X19811418Y30842403D01*
X19817712Y30855710D01*
X19825280Y30868336D01*
X19834048Y30880159D01*
X19843934Y30891066D01*
X19854841Y30900952D01*
X19866664Y30909720D01*
X19879290Y30917288D01*
X19892597Y30923582D01*
X19906457Y30928541D01*
X19920736Y30932118D01*
X19935297Y30934278D01*
X19950000Y30935000D01*
X21600000Y30935000D01*
X21614703Y30934278D01*
G37*
G36*
X21614703Y29664278D02*
G01*
X21629264Y29662118D01*
X21643543Y29658541D01*
X21657403Y29653582D01*
X21670710Y29647288D01*
X21683336Y29639720D01*
X21695159Y29630952D01*
X21706066Y29621066D01*
X21715952Y29610159D01*
X21724720Y29598336D01*
X21732288Y29585710D01*
X21738582Y29572403D01*
X21743541Y29558543D01*
X21747118Y29544264D01*
X21749278Y29529703D01*
X21750000Y29515000D01*
X21750000Y29215000D01*
X21749278Y29200297D01*
X21747118Y29185736D01*
X21743541Y29171457D01*
X21738582Y29157597D01*
X21732288Y29144290D01*
X21724720Y29131664D01*
X21715952Y29119841D01*
X21706066Y29108934D01*
X21695159Y29099048D01*
X21683336Y29090280D01*
X21670710Y29082712D01*
X21657403Y29076418D01*
X21643543Y29071459D01*
X21629264Y29067882D01*
X21614703Y29065722D01*
X21600000Y29065000D01*
X19950000Y29065000D01*
X19935297Y29065722D01*
X19920736Y29067882D01*
X19906457Y29071459D01*
X19892597Y29076418D01*
X19879290Y29082712D01*
X19866664Y29090280D01*
X19854841Y29099048D01*
X19843934Y29108934D01*
X19834048Y29119841D01*
X19825280Y29131664D01*
X19817712Y29144290D01*
X19811418Y29157597D01*
X19806459Y29171457D01*
X19802882Y29185736D01*
X19800722Y29200297D01*
X19800000Y29215000D01*
X19800000Y29515000D01*
X19800722Y29529703D01*
X19802882Y29544264D01*
X19806459Y29558543D01*
X19811418Y29572403D01*
X19817712Y29585710D01*
X19825280Y29598336D01*
X19834048Y29610159D01*
X19843934Y29621066D01*
X19854841Y29630952D01*
X19866664Y29639720D01*
X19879290Y29647288D01*
X19892597Y29653582D01*
X19906457Y29658541D01*
X19920736Y29662118D01*
X19935297Y29664278D01*
X19950000Y29665000D01*
X21600000Y29665000D01*
X21614703Y29664278D01*
G37*
G36*
X21614703Y28394278D02*
G01*
X21629264Y28392118D01*
X21643543Y28388541D01*
X21657403Y28383582D01*
X21670710Y28377288D01*
X21683336Y28369720D01*
X21695159Y28360952D01*
X21706066Y28351066D01*
X21715952Y28340159D01*
X21724720Y28328336D01*
X21732288Y28315710D01*
X21738582Y28302403D01*
X21743541Y28288543D01*
X21747118Y28274264D01*
X21749278Y28259703D01*
X21750000Y28245000D01*
X21750000Y27945000D01*
X21749278Y27930297D01*
X21747118Y27915736D01*
X21743541Y27901457D01*
X21738582Y27887597D01*
X21732288Y27874290D01*
X21724720Y27861664D01*
X21715952Y27849841D01*
X21706066Y27838934D01*
X21695159Y27829048D01*
X21683336Y27820280D01*
X21670710Y27812712D01*
X21657403Y27806418D01*
X21643543Y27801459D01*
X21629264Y27797882D01*
X21614703Y27795722D01*
X21600000Y27795000D01*
X19950000Y27795000D01*
X19935297Y27795722D01*
X19920736Y27797882D01*
X19906457Y27801459D01*
X19892597Y27806418D01*
X19879290Y27812712D01*
X19866664Y27820280D01*
X19854841Y27829048D01*
X19843934Y27838934D01*
X19834048Y27849841D01*
X19825280Y27861664D01*
X19817712Y27874290D01*
X19811418Y27887597D01*
X19806459Y27901457D01*
X19802882Y27915736D01*
X19800722Y27930297D01*
X19800000Y27945000D01*
X19800000Y28245000D01*
X19800722Y28259703D01*
X19802882Y28274264D01*
X19806459Y28288543D01*
X19811418Y28302403D01*
X19817712Y28315710D01*
X19825280Y28328336D01*
X19834048Y28340159D01*
X19843934Y28351066D01*
X19854841Y28360952D01*
X19866664Y28369720D01*
X19879290Y28377288D01*
X19892597Y28383582D01*
X19906457Y28388541D01*
X19920736Y28392118D01*
X19935297Y28394278D01*
X19950000Y28395000D01*
X21600000Y28395000D01*
X21614703Y28394278D01*
G37*
G36*
X16664703Y28394278D02*
G01*
X16679264Y28392118D01*
X16693543Y28388541D01*
X16707403Y28383582D01*
X16720710Y28377288D01*
X16733336Y28369720D01*
X16745159Y28360952D01*
X16756066Y28351066D01*
X16765952Y28340159D01*
X16774720Y28328336D01*
X16782288Y28315710D01*
X16788582Y28302403D01*
X16793541Y28288543D01*
X16797118Y28274264D01*
X16799278Y28259703D01*
X16800000Y28245000D01*
X16800000Y27945000D01*
X16799278Y27930297D01*
X16797118Y27915736D01*
X16793541Y27901457D01*
X16788582Y27887597D01*
X16782288Y27874290D01*
X16774720Y27861664D01*
X16765952Y27849841D01*
X16756066Y27838934D01*
X16745159Y27829048D01*
X16733336Y27820280D01*
X16720710Y27812712D01*
X16707403Y27806418D01*
X16693543Y27801459D01*
X16679264Y27797882D01*
X16664703Y27795722D01*
X16650000Y27795000D01*
X15000000Y27795000D01*
X14985297Y27795722D01*
X14970736Y27797882D01*
X14956457Y27801459D01*
X14942597Y27806418D01*
X14929290Y27812712D01*
X14916664Y27820280D01*
X14904841Y27829048D01*
X14893934Y27838934D01*
X14884048Y27849841D01*
X14875280Y27861664D01*
X14867712Y27874290D01*
X14861418Y27887597D01*
X14856459Y27901457D01*
X14852882Y27915736D01*
X14850722Y27930297D01*
X14850000Y27945000D01*
X14850000Y28245000D01*
X14850722Y28259703D01*
X14852882Y28274264D01*
X14856459Y28288543D01*
X14861418Y28302403D01*
X14867712Y28315710D01*
X14875280Y28328336D01*
X14884048Y28340159D01*
X14893934Y28351066D01*
X14904841Y28360952D01*
X14916664Y28369720D01*
X14929290Y28377288D01*
X14942597Y28383582D01*
X14956457Y28388541D01*
X14970736Y28392118D01*
X14985297Y28394278D01*
X15000000Y28395000D01*
X16650000Y28395000D01*
X16664703Y28394278D01*
G37*
G36*
X16664703Y29664278D02*
G01*
X16679264Y29662118D01*
X16693543Y29658541D01*
X16707403Y29653582D01*
X16720710Y29647288D01*
X16733336Y29639720D01*
X16745159Y29630952D01*
X16756066Y29621066D01*
X16765952Y29610159D01*
X16774720Y29598336D01*
X16782288Y29585710D01*
X16788582Y29572403D01*
X16793541Y29558543D01*
X16797118Y29544264D01*
X16799278Y29529703D01*
X16800000Y29515000D01*
X16800000Y29215000D01*
X16799278Y29200297D01*
X16797118Y29185736D01*
X16793541Y29171457D01*
X16788582Y29157597D01*
X16782288Y29144290D01*
X16774720Y29131664D01*
X16765952Y29119841D01*
X16756066Y29108934D01*
X16745159Y29099048D01*
X16733336Y29090280D01*
X16720710Y29082712D01*
X16707403Y29076418D01*
X16693543Y29071459D01*
X16679264Y29067882D01*
X16664703Y29065722D01*
X16650000Y29065000D01*
X15000000Y29065000D01*
X14985297Y29065722D01*
X14970736Y29067882D01*
X14956457Y29071459D01*
X14942597Y29076418D01*
X14929290Y29082712D01*
X14916664Y29090280D01*
X14904841Y29099048D01*
X14893934Y29108934D01*
X14884048Y29119841D01*
X14875280Y29131664D01*
X14867712Y29144290D01*
X14861418Y29157597D01*
X14856459Y29171457D01*
X14852882Y29185736D01*
X14850722Y29200297D01*
X14850000Y29215000D01*
X14850000Y29515000D01*
X14850722Y29529703D01*
X14852882Y29544264D01*
X14856459Y29558543D01*
X14861418Y29572403D01*
X14867712Y29585710D01*
X14875280Y29598336D01*
X14884048Y29610159D01*
X14893934Y29621066D01*
X14904841Y29630952D01*
X14916664Y29639720D01*
X14929290Y29647288D01*
X14942597Y29653582D01*
X14956457Y29658541D01*
X14970736Y29662118D01*
X14985297Y29664278D01*
X15000000Y29665000D01*
X16650000Y29665000D01*
X16664703Y29664278D01*
G37*
G36*
X16664703Y30934278D02*
G01*
X16679264Y30932118D01*
X16693543Y30928541D01*
X16707403Y30923582D01*
X16720710Y30917288D01*
X16733336Y30909720D01*
X16745159Y30900952D01*
X16756066Y30891066D01*
X16765952Y30880159D01*
X16774720Y30868336D01*
X16782288Y30855710D01*
X16788582Y30842403D01*
X16793541Y30828543D01*
X16797118Y30814264D01*
X16799278Y30799703D01*
X16800000Y30785000D01*
X16800000Y30485000D01*
X16799278Y30470297D01*
X16797118Y30455736D01*
X16793541Y30441457D01*
X16788582Y30427597D01*
X16782288Y30414290D01*
X16774720Y30401664D01*
X16765952Y30389841D01*
X16756066Y30378934D01*
X16745159Y30369048D01*
X16733336Y30360280D01*
X16720710Y30352712D01*
X16707403Y30346418D01*
X16693543Y30341459D01*
X16679264Y30337882D01*
X16664703Y30335722D01*
X16650000Y30335000D01*
X15000000Y30335000D01*
X14985297Y30335722D01*
X14970736Y30337882D01*
X14956457Y30341459D01*
X14942597Y30346418D01*
X14929290Y30352712D01*
X14916664Y30360280D01*
X14904841Y30369048D01*
X14893934Y30378934D01*
X14884048Y30389841D01*
X14875280Y30401664D01*
X14867712Y30414290D01*
X14861418Y30427597D01*
X14856459Y30441457D01*
X14852882Y30455736D01*
X14850722Y30470297D01*
X14850000Y30485000D01*
X14850000Y30785000D01*
X14850722Y30799703D01*
X14852882Y30814264D01*
X14856459Y30828543D01*
X14861418Y30842403D01*
X14867712Y30855710D01*
X14875280Y30868336D01*
X14884048Y30880159D01*
X14893934Y30891066D01*
X14904841Y30900952D01*
X14916664Y30909720D01*
X14929290Y30917288D01*
X14942597Y30923582D01*
X14956457Y30928541D01*
X14970736Y30932118D01*
X14985297Y30934278D01*
X15000000Y30935000D01*
X16650000Y30935000D01*
X16664703Y30934278D01*
G37*
G36*
X16664703Y32204278D02*
G01*
X16679264Y32202118D01*
X16693543Y32198541D01*
X16707403Y32193582D01*
X16720710Y32187288D01*
X16733336Y32179720D01*
X16745159Y32170952D01*
X16756066Y32161066D01*
X16765952Y32150159D01*
X16774720Y32138336D01*
X16782288Y32125710D01*
X16788582Y32112403D01*
X16793541Y32098543D01*
X16797118Y32084264D01*
X16799278Y32069703D01*
X16800000Y32055000D01*
X16800000Y31755000D01*
X16799278Y31740297D01*
X16797118Y31725736D01*
X16793541Y31711457D01*
X16788582Y31697597D01*
X16782288Y31684290D01*
X16774720Y31671664D01*
X16765952Y31659841D01*
X16756066Y31648934D01*
X16745159Y31639048D01*
X16733336Y31630280D01*
X16720710Y31622712D01*
X16707403Y31616418D01*
X16693543Y31611459D01*
X16679264Y31607882D01*
X16664703Y31605722D01*
X16650000Y31605000D01*
X15000000Y31605000D01*
X14985297Y31605722D01*
X14970736Y31607882D01*
X14956457Y31611459D01*
X14942597Y31616418D01*
X14929290Y31622712D01*
X14916664Y31630280D01*
X14904841Y31639048D01*
X14893934Y31648934D01*
X14884048Y31659841D01*
X14875280Y31671664D01*
X14867712Y31684290D01*
X14861418Y31697597D01*
X14856459Y31711457D01*
X14852882Y31725736D01*
X14850722Y31740297D01*
X14850000Y31755000D01*
X14850000Y32055000D01*
X14850722Y32069703D01*
X14852882Y32084264D01*
X14856459Y32098543D01*
X14861418Y32112403D01*
X14867712Y32125710D01*
X14875280Y32138336D01*
X14884048Y32150159D01*
X14893934Y32161066D01*
X14904841Y32170952D01*
X14916664Y32179720D01*
X14929290Y32187288D01*
X14942597Y32193582D01*
X14956457Y32198541D01*
X14970736Y32202118D01*
X14985297Y32204278D01*
X15000000Y32205000D01*
X16650000Y32205000D01*
X16664703Y32204278D01*
G37*
G36*
X15449504Y35523796D02*
G01*
X15473773Y35520196D01*
X15497571Y35514235D01*
X15520671Y35505970D01*
X15542849Y35495480D01*
X15563893Y35482867D01*
X15583598Y35468253D01*
X15601777Y35451777D01*
X15618253Y35433598D01*
X15632867Y35413893D01*
X15645480Y35392849D01*
X15655970Y35370671D01*
X15664235Y35347571D01*
X15670196Y35323773D01*
X15673796Y35299504D01*
X15675000Y35275000D01*
X15675000Y34525000D01*
X15673796Y34500496D01*
X15670196Y34476227D01*
X15664235Y34452429D01*
X15655970Y34429329D01*
X15645480Y34407151D01*
X15632867Y34386107D01*
X15618253Y34366402D01*
X15601777Y34348223D01*
X15583598Y34331747D01*
X15563893Y34317133D01*
X15542849Y34304520D01*
X15520671Y34294030D01*
X15497571Y34285765D01*
X15473773Y34279804D01*
X15449504Y34276204D01*
X15425000Y34275000D01*
X14175000Y34275000D01*
X14150496Y34276204D01*
X14126227Y34279804D01*
X14102429Y34285765D01*
X14079329Y34294030D01*
X14057151Y34304520D01*
X14036107Y34317133D01*
X14016402Y34331747D01*
X13998223Y34348223D01*
X13981747Y34366402D01*
X13967133Y34386107D01*
X13954520Y34407151D01*
X13944030Y34429329D01*
X13935765Y34452429D01*
X13929804Y34476227D01*
X13926204Y34500496D01*
X13925000Y34525000D01*
X13925000Y35275000D01*
X13926204Y35299504D01*
X13929804Y35323773D01*
X13935765Y35347571D01*
X13944030Y35370671D01*
X13954520Y35392849D01*
X13967133Y35413893D01*
X13981747Y35433598D01*
X13998223Y35451777D01*
X14016402Y35468253D01*
X14036107Y35482867D01*
X14057151Y35495480D01*
X14079329Y35505970D01*
X14102429Y35514235D01*
X14126227Y35520196D01*
X14150496Y35523796D01*
X14175000Y35525000D01*
X15425000Y35525000D01*
X15449504Y35523796D01*
G37*
G36*
X15449504Y38323796D02*
G01*
X15473773Y38320196D01*
X15497571Y38314235D01*
X15520671Y38305970D01*
X15542849Y38295480D01*
X15563893Y38282867D01*
X15583598Y38268253D01*
X15601777Y38251777D01*
X15618253Y38233598D01*
X15632867Y38213893D01*
X15645480Y38192849D01*
X15655970Y38170671D01*
X15664235Y38147571D01*
X15670196Y38123773D01*
X15673796Y38099504D01*
X15675000Y38075000D01*
X15675000Y37325000D01*
X15673796Y37300496D01*
X15670196Y37276227D01*
X15664235Y37252429D01*
X15655970Y37229329D01*
X15645480Y37207151D01*
X15632867Y37186107D01*
X15618253Y37166402D01*
X15601777Y37148223D01*
X15583598Y37131747D01*
X15563893Y37117133D01*
X15542849Y37104520D01*
X15520671Y37094030D01*
X15497571Y37085765D01*
X15473773Y37079804D01*
X15449504Y37076204D01*
X15425000Y37075000D01*
X14175000Y37075000D01*
X14150496Y37076204D01*
X14126227Y37079804D01*
X14102429Y37085765D01*
X14079329Y37094030D01*
X14057151Y37104520D01*
X14036107Y37117133D01*
X14016402Y37131747D01*
X13998223Y37148223D01*
X13981747Y37166402D01*
X13967133Y37186107D01*
X13954520Y37207151D01*
X13944030Y37229329D01*
X13935765Y37252429D01*
X13929804Y37276227D01*
X13926204Y37300496D01*
X13925000Y37325000D01*
X13925000Y38075000D01*
X13926204Y38099504D01*
X13929804Y38123773D01*
X13935765Y38147571D01*
X13944030Y38170671D01*
X13954520Y38192849D01*
X13967133Y38213893D01*
X13981747Y38233598D01*
X13998223Y38251777D01*
X14016402Y38268253D01*
X14036107Y38282867D01*
X14057151Y38295480D01*
X14079329Y38305970D01*
X14102429Y38314235D01*
X14126227Y38320196D01*
X14150496Y38323796D01*
X14175000Y38325000D01*
X15425000Y38325000D01*
X15449504Y38323796D01*
G37*
M02*
