G04 #@! TF.GenerationSoftware,KiCad,Pcbnew,(5.1.5)-3*
G04 #@! TF.CreationDate,2020-05-20T15:16:41-05:00*
G04 #@! TF.ProjectId,multiBoard_small,6d756c74-6942-46f6-9172-645f736d616c,rev?*
G04 #@! TF.SameCoordinates,PX5a995c0PY68e7780*
G04 #@! TF.FileFunction,Copper,L2,Bot*
G04 #@! TF.FilePolarity,Positive*
%FSLAX46Y46*%
G04 Gerber Fmt 4.6, Leading zero omitted, Abs format (unit mm)*
G04 Created by KiCad (PCBNEW (5.1.5)-3) date 2020-05-20 15:16:41*
%MOMM*%
%LPD*%
G04 APERTURE LIST*
%ADD10C,0.100000*%
%ADD11R,1.350000X1.350000*%
%ADD12O,1.350000X1.350000*%
%ADD13R,2.200000X2.000000*%
%ADD14C,0.710000*%
%ADD15R,2.200000X1.600000*%
%ADD16C,0.910000*%
%ADD17C,1.400000*%
%ADD18C,0.508000*%
%ADD19C,0.254000*%
G04 APERTURE END LIST*
D10*
G36*
X11400000Y15600000D02*
G01*
X11100000Y15300000D01*
X9500000Y15300000D01*
X9200000Y15600000D01*
X9200000Y15900000D01*
X11400000Y15900000D01*
X11400000Y15600000D01*
G37*
G36*
X21100000Y18200000D02*
G01*
X21100000Y19000000D01*
X21500000Y19400000D01*
X22900000Y19400000D01*
X23300000Y19000000D01*
X23300000Y18200000D01*
X21100000Y18200000D01*
G37*
G36*
X32700000Y12175000D02*
G01*
X33000000Y12475000D01*
X34600000Y12475000D01*
X34900000Y12175000D01*
X34900000Y11875000D01*
X32700000Y11875000D01*
X32700000Y12175000D01*
G37*
G36*
X30300000Y11900000D02*
G01*
X30300000Y11100000D01*
X29900000Y10700000D01*
X28500000Y10700000D01*
X28100000Y11100000D01*
X28100000Y11900000D01*
X30300000Y11900000D01*
G37*
G36*
X17300000Y18200000D02*
G01*
X17300000Y19000000D01*
X17700000Y19400000D01*
X19100000Y19400000D01*
X19500000Y19000000D01*
X19500000Y18200000D01*
X17300000Y18200000D01*
G37*
G36*
X21100000Y59000000D02*
G01*
X21100000Y59800000D01*
X21500000Y60200000D01*
X22900000Y60200000D01*
X23300000Y59800000D01*
X23300000Y59000000D01*
X21100000Y59000000D01*
G37*
G36*
X11400000Y56400000D02*
G01*
X11100000Y56100000D01*
X9500000Y56100000D01*
X9200000Y56400000D01*
X9200000Y56700000D01*
X11400000Y56700000D01*
X11400000Y56400000D01*
G37*
G36*
X30300000Y52700000D02*
G01*
X30300000Y51900000D01*
X29900000Y51500000D01*
X28500000Y51500000D01*
X28100000Y51900000D01*
X28100000Y52700000D01*
X30300000Y52700000D01*
G37*
G36*
X32700000Y52975000D02*
G01*
X33000000Y53275000D01*
X34600000Y53275000D01*
X34900000Y52975000D01*
X34900000Y52675000D01*
X32700000Y52675000D01*
X32700000Y52975000D01*
G37*
G36*
X17300000Y59000000D02*
G01*
X17300000Y59800000D01*
X17700000Y60200000D01*
X19100000Y60200000D01*
X19500000Y59800000D01*
X19500000Y59000000D01*
X17300000Y59000000D01*
G37*
G36*
X32700000Y32575000D02*
G01*
X33000000Y32875000D01*
X34600000Y32875000D01*
X34900000Y32575000D01*
X34900000Y32275000D01*
X32700000Y32275000D01*
X32700000Y32575000D01*
G37*
G36*
X17300000Y38600000D02*
G01*
X17300000Y39400000D01*
X17700000Y39800000D01*
X19100000Y39800000D01*
X19500000Y39400000D01*
X19500000Y38600000D01*
X17300000Y38600000D01*
G37*
G36*
X21100000Y38600000D02*
G01*
X21100000Y39400000D01*
X21500000Y39800000D01*
X22900000Y39800000D01*
X23300000Y39400000D01*
X23300000Y38600000D01*
X21100000Y38600000D01*
G37*
G36*
X30300000Y32300000D02*
G01*
X30300000Y31500000D01*
X29900000Y31100000D01*
X28500000Y31100000D01*
X28100000Y31500000D01*
X28100000Y32300000D01*
X30300000Y32300000D01*
G37*
G36*
X11400000Y36000000D02*
G01*
X11100000Y35700000D01*
X9500000Y35700000D01*
X9200000Y36000000D01*
X9200000Y36300000D01*
X11400000Y36300000D01*
X11400000Y36000000D01*
G37*
D11*
X6500000Y19200000D03*
D12*
X6500000Y17200000D03*
D13*
X10300000Y16900000D03*
D14*
X10300000Y15925000D03*
X10300000Y16275000D03*
D12*
X33800000Y6100000D03*
X31800000Y6100000D03*
X29800000Y6100000D03*
D11*
X27800000Y6100000D03*
D15*
X22200000Y17400000D03*
D16*
X22200000Y18800000D03*
X22200000Y18400000D03*
D14*
X33800000Y11500000D03*
X33800000Y11850000D03*
D13*
X33800000Y10875000D03*
D11*
X6500000Y12200000D03*
D12*
X6500000Y10200000D03*
X6500000Y8200000D03*
X6500000Y6200000D03*
D15*
X29200000Y12700000D03*
D16*
X29200000Y11300000D03*
X29200000Y11700000D03*
D15*
X18400000Y17400000D03*
D16*
X18400000Y18800000D03*
X18400000Y18400000D03*
D15*
X22200000Y58200000D03*
D16*
X22200000Y59600000D03*
X22200000Y59200000D03*
D13*
X10300000Y57700000D03*
D14*
X10300000Y56725000D03*
X10300000Y57075000D03*
D11*
X6500000Y60000000D03*
D12*
X6500000Y58000000D03*
X33800000Y46900000D03*
X31800000Y46900000D03*
X29800000Y46900000D03*
D11*
X27800000Y46900000D03*
D15*
X29200000Y53500000D03*
D16*
X29200000Y52100000D03*
X29200000Y52500000D03*
D11*
X6500000Y53000000D03*
D12*
X6500000Y51000000D03*
X6500000Y49000000D03*
X6500000Y47000000D03*
D14*
X33800000Y52300000D03*
X33800000Y52650000D03*
D13*
X33800000Y51675000D03*
D15*
X18400000Y58200000D03*
D16*
X18400000Y59600000D03*
X18400000Y59200000D03*
D12*
X6500000Y26600000D03*
X6500000Y28600000D03*
X6500000Y30600000D03*
D11*
X6500000Y32600000D03*
X27800000Y26500000D03*
D12*
X29800000Y26500000D03*
X31800000Y26500000D03*
X33800000Y26500000D03*
X6500000Y37600000D03*
D11*
X6500000Y39600000D03*
D13*
X33800000Y31275000D03*
D14*
X33800000Y32250000D03*
X33800000Y31900000D03*
D16*
X18400000Y38800000D03*
X18400000Y39200000D03*
D15*
X18400000Y37800000D03*
D16*
X22200000Y38800000D03*
X22200000Y39200000D03*
D15*
X22200000Y37800000D03*
D16*
X29200000Y32100000D03*
X29200000Y31700000D03*
D15*
X29200000Y33100000D03*
D14*
X10300000Y36675000D03*
X10300000Y36325000D03*
D13*
X10300000Y37300000D03*
D17*
X31800000Y29100000D03*
X31800000Y49500000D03*
X31800000Y8700000D03*
X20800000Y33800000D03*
X14800000Y39400000D03*
X20800000Y54200000D03*
X14800000Y59800000D03*
X20800000Y13400000D03*
X14800000Y19000000D03*
X9000002Y40500000D03*
X9000002Y60900000D03*
X9000002Y20100000D03*
X24123239Y34492904D03*
X24123239Y54892904D03*
X24123239Y14092904D03*
X11700000Y26600000D03*
X11700000Y47000000D03*
X11700000Y6200000D03*
X11700000Y28600000D03*
X11700000Y49000000D03*
X11700000Y8200000D03*
X11700000Y30600000D03*
X11700000Y51000000D03*
X11700000Y10200000D03*
X11700001Y32600000D03*
X11700001Y53000000D03*
X11700001Y12200000D03*
X25500000Y51499999D03*
X25700000Y31300000D03*
X25600000Y11000000D03*
X12600000Y39399998D03*
X12600000Y59799998D03*
X12600000Y18999998D03*
D18*
X33736999Y31036999D02*
X33800000Y31036999D01*
X31800000Y29100000D02*
X33736999Y31036999D01*
X31800000Y29100000D02*
X31800000Y26500000D01*
X33736999Y51436999D02*
X33800000Y51436999D01*
X31800000Y49500000D02*
X33736999Y51436999D01*
X31800000Y49500000D02*
X31800000Y46900000D01*
X33736999Y10636999D02*
X33800000Y10636999D01*
X31800000Y8700000D02*
X33736999Y10636999D01*
X31800000Y8700000D02*
X31800000Y6100000D01*
X14800000Y39400000D02*
X16363001Y37836999D01*
X16363001Y37836999D02*
X18400000Y37836999D01*
X18400000Y37800000D02*
X22200000Y37800000D01*
X18400000Y58200000D02*
X22200000Y58200000D01*
X14800000Y59800000D02*
X16363001Y58236999D01*
X16363001Y58236999D02*
X18400000Y58236999D01*
X18400000Y17400000D02*
X22200000Y17400000D01*
X14800000Y19000000D02*
X16363001Y17436999D01*
X16363001Y17436999D02*
X18400000Y17436999D01*
X8100002Y39600000D02*
X9000002Y40500000D01*
X6500000Y39600000D02*
X8100002Y39600000D01*
X8100002Y60000000D02*
X9000002Y60900000D01*
X6500000Y60000000D02*
X8100002Y60000000D01*
X8100002Y19200000D02*
X9000002Y20100000D01*
X6500000Y19200000D02*
X8100002Y19200000D01*
X27800000Y26500000D02*
X26460156Y26500000D01*
X24123239Y28836917D02*
X24123239Y33644376D01*
X24123239Y33644376D02*
X24123239Y34492904D01*
X26460156Y26500000D02*
X24123239Y28836917D01*
X24123239Y54044376D02*
X24123239Y54892904D01*
X24123239Y49236917D02*
X24123239Y54044376D01*
X26460156Y46900000D02*
X24123239Y49236917D01*
X27800000Y46900000D02*
X26460156Y46900000D01*
X24123239Y13244376D02*
X24123239Y14092904D01*
X24123239Y8436917D02*
X24123239Y13244376D01*
X26460156Y6100000D02*
X24123239Y8436917D01*
X27800000Y6100000D02*
X26460156Y6100000D01*
X6500000Y26600000D02*
X11700000Y26600000D01*
X6500000Y47000000D02*
X11700000Y47000000D01*
X6500000Y6200000D02*
X11700000Y6200000D01*
X11700000Y28600000D02*
X6500000Y28600000D01*
X11700000Y49000000D02*
X6500000Y49000000D01*
X11700000Y8200000D02*
X6500000Y8200000D01*
X11700000Y30600000D02*
X6500000Y30600000D01*
X11700000Y51000000D02*
X6500000Y51000000D01*
X11700000Y10200000D02*
X6500000Y10200000D01*
X6500000Y32600000D02*
X11700001Y32600000D01*
X6500000Y53000000D02*
X11700001Y53000000D01*
X6500000Y12200000D02*
X11700001Y12200000D01*
X29800000Y47854594D02*
X26154595Y51499999D01*
X26154595Y51499999D02*
X25500000Y51499999D01*
X29800000Y46900000D02*
X29800000Y47854594D01*
X29800000Y27454594D02*
X25954594Y31300000D01*
X29800000Y26500000D02*
X29800000Y27454594D01*
X25954594Y31300000D02*
X25700000Y31300000D01*
X25854594Y11000000D02*
X25600000Y11000000D01*
X29800000Y7054594D02*
X25854594Y11000000D01*
X29800000Y6100000D02*
X29800000Y7054594D01*
X10738003Y37538001D02*
X12000001Y38799999D01*
X12000001Y38799999D02*
X12600000Y39399998D01*
X10300000Y37538001D02*
X10738003Y37538001D01*
X12000001Y59199999D02*
X12600000Y59799998D01*
X10738003Y57938001D02*
X12000001Y59199999D01*
X10300000Y57938001D02*
X10738003Y57938001D01*
X12000001Y18399999D02*
X12600000Y18999998D01*
X10738003Y17138001D02*
X12000001Y18399999D01*
X10300000Y17138001D02*
X10738003Y17138001D01*
D19*
G36*
X7716306Y40889405D02*
G01*
X7672591Y40669639D01*
X7626185Y40726185D01*
X7529494Y40805537D01*
X7419180Y40864502D01*
X7299482Y40900812D01*
X7175000Y40913072D01*
X5825000Y40913072D01*
X5700518Y40900812D01*
X5580820Y40864502D01*
X5470506Y40805537D01*
X5373815Y40726185D01*
X5294463Y40629494D01*
X5235498Y40519180D01*
X5199188Y40399482D01*
X5186928Y40275000D01*
X5186928Y38925000D01*
X5199188Y38800518D01*
X5235498Y38680820D01*
X5294463Y38570506D01*
X5373815Y38473815D01*
X5467559Y38396881D01*
X5370527Y38263629D01*
X5262762Y38030528D01*
X5232090Y37929400D01*
X5355776Y37727000D01*
X6373000Y37727000D01*
X6373000Y37747000D01*
X6627000Y37747000D01*
X6627000Y37727000D01*
X7644224Y37727000D01*
X7767910Y37929400D01*
X7737238Y38030528D01*
X7629473Y38263629D01*
X7602989Y38300000D01*
X8561928Y38300000D01*
X8561928Y36300000D01*
X8565000Y36268808D01*
X8565000Y36000000D01*
X8570727Y35941594D01*
X8575836Y35883191D01*
X8576767Y35879987D01*
X8577093Y35876661D01*
X8594063Y35820452D01*
X8610412Y35764181D01*
X8611947Y35761220D01*
X8612913Y35758020D01*
X8640462Y35706207D01*
X8667444Y35654154D01*
X8669527Y35651544D01*
X8671095Y35648596D01*
X8708165Y35603143D01*
X8744762Y35557300D01*
X8749347Y35552650D01*
X8749423Y35552557D01*
X8749509Y35552486D01*
X8750987Y35550987D01*
X9050987Y35250987D01*
X9096365Y35213713D01*
X9141246Y35176053D01*
X9144168Y35174447D01*
X9146752Y35172324D01*
X9198516Y35144569D01*
X9249847Y35116349D01*
X9253026Y35115340D01*
X9255972Y35113761D01*
X9312068Y35096611D01*
X9367976Y35078876D01*
X9371297Y35078503D01*
X9374488Y35077528D01*
X9432816Y35071603D01*
X9491134Y35065062D01*
X9497662Y35065016D01*
X9497784Y35065004D01*
X9497897Y35065015D01*
X9500000Y35065000D01*
X11100000Y35065000D01*
X11158406Y35070727D01*
X11216809Y35075836D01*
X11220013Y35076767D01*
X11223339Y35077093D01*
X11279548Y35094063D01*
X11335819Y35110412D01*
X11338780Y35111947D01*
X11341980Y35112913D01*
X11393793Y35140462D01*
X11445846Y35167444D01*
X11448456Y35169527D01*
X11451404Y35171095D01*
X11496857Y35208165D01*
X11542700Y35244762D01*
X11547350Y35249347D01*
X11547443Y35249423D01*
X11547514Y35249509D01*
X11549013Y35250987D01*
X11849013Y35550987D01*
X11886287Y35596365D01*
X11923947Y35641246D01*
X11925553Y35644168D01*
X11927676Y35646752D01*
X11955431Y35698516D01*
X11983651Y35749847D01*
X11984660Y35753026D01*
X11986239Y35755972D01*
X12003389Y35812068D01*
X12021124Y35867976D01*
X12021497Y35871297D01*
X12022472Y35874488D01*
X12028397Y35932816D01*
X12034938Y35991134D01*
X12034984Y35997662D01*
X12034996Y35997784D01*
X12034985Y35997897D01*
X12035000Y36000000D01*
X12035000Y36268808D01*
X12038072Y36300000D01*
X12038072Y37000000D01*
X16661928Y37000000D01*
X16674188Y36875518D01*
X16710498Y36755820D01*
X16769463Y36645506D01*
X16848815Y36548815D01*
X16945506Y36469463D01*
X17055820Y36410498D01*
X17175518Y36374188D01*
X17300000Y36361928D01*
X18114250Y36365000D01*
X18273000Y36523750D01*
X18273000Y37673000D01*
X18527000Y37673000D01*
X18527000Y36523750D01*
X18685750Y36365000D01*
X19500000Y36361928D01*
X19624482Y36374188D01*
X19744180Y36410498D01*
X19854494Y36469463D01*
X19951185Y36548815D01*
X20030537Y36645506D01*
X20089502Y36755820D01*
X20125812Y36875518D01*
X20138072Y37000000D01*
X20461928Y37000000D01*
X20474188Y36875518D01*
X20510498Y36755820D01*
X20569463Y36645506D01*
X20648815Y36548815D01*
X20745506Y36469463D01*
X20855820Y36410498D01*
X20975518Y36374188D01*
X21100000Y36361928D01*
X21914250Y36365000D01*
X22073000Y36523750D01*
X22073000Y37673000D01*
X22327000Y37673000D01*
X22327000Y36523750D01*
X22485750Y36365000D01*
X23300000Y36361928D01*
X23424482Y36374188D01*
X23544180Y36410498D01*
X23654494Y36469463D01*
X23751185Y36548815D01*
X23830537Y36645506D01*
X23889502Y36755820D01*
X23925812Y36875518D01*
X23938072Y37000000D01*
X23935000Y37514250D01*
X23776250Y37673000D01*
X22327000Y37673000D01*
X22073000Y37673000D01*
X20623750Y37673000D01*
X20465000Y37514250D01*
X20461928Y37000000D01*
X20138072Y37000000D01*
X20135000Y37514250D01*
X19976250Y37673000D01*
X18527000Y37673000D01*
X18273000Y37673000D01*
X16823750Y37673000D01*
X16665000Y37514250D01*
X16661928Y37000000D01*
X12038072Y37000000D01*
X12038072Y37580834D01*
X12522236Y38064998D01*
X12731486Y38064998D01*
X12989405Y38116302D01*
X13232359Y38216937D01*
X13451013Y38363036D01*
X13636962Y38548985D01*
X13671048Y38600000D01*
X16661928Y38600000D01*
X16665000Y38085750D01*
X16823750Y37927000D01*
X17744589Y37927000D01*
X17883691Y37834055D01*
X18082059Y37751888D01*
X18292644Y37710000D01*
X18507356Y37710000D01*
X18717941Y37751888D01*
X18916309Y37834055D01*
X19055411Y37927000D01*
X19976250Y37927000D01*
X20135000Y38085750D01*
X20138072Y38600000D01*
X20461928Y38600000D01*
X20465000Y38085750D01*
X20623750Y37927000D01*
X21544589Y37927000D01*
X21683691Y37834055D01*
X21882059Y37751888D01*
X22092644Y37710000D01*
X22307356Y37710000D01*
X22517941Y37751888D01*
X22716309Y37834055D01*
X22855411Y37927000D01*
X23776250Y37927000D01*
X23935000Y38085750D01*
X23938072Y38600000D01*
X23935000Y38631192D01*
X23935000Y39400000D01*
X23929274Y39458402D01*
X23924164Y39516809D01*
X23923233Y39520013D01*
X23922907Y39523339D01*
X23905937Y39579548D01*
X23889588Y39635819D01*
X23888053Y39638780D01*
X23887087Y39641980D01*
X23859538Y39693793D01*
X23832556Y39745846D01*
X23830473Y39748456D01*
X23828905Y39751404D01*
X23791835Y39796857D01*
X23755238Y39842700D01*
X23750653Y39847350D01*
X23750577Y39847443D01*
X23750491Y39847514D01*
X23749013Y39849013D01*
X23349013Y40249013D01*
X23303635Y40286287D01*
X23258754Y40323947D01*
X23255832Y40325553D01*
X23253248Y40327676D01*
X23201503Y40355421D01*
X23150153Y40383651D01*
X23146971Y40384660D01*
X23144027Y40386239D01*
X23087946Y40403384D01*
X23032024Y40421124D01*
X23028703Y40421497D01*
X23025512Y40422472D01*
X22967184Y40428397D01*
X22908866Y40434938D01*
X22902338Y40434984D01*
X22902216Y40434996D01*
X22902103Y40434985D01*
X22900000Y40435000D01*
X21500000Y40435000D01*
X21441598Y40429274D01*
X21383191Y40424164D01*
X21379987Y40423233D01*
X21376661Y40422907D01*
X21320452Y40405937D01*
X21264181Y40389588D01*
X21261220Y40388053D01*
X21258020Y40387087D01*
X21206207Y40359538D01*
X21154154Y40332556D01*
X21151544Y40330473D01*
X21148596Y40328905D01*
X21103143Y40291835D01*
X21057300Y40255238D01*
X21052650Y40250653D01*
X21052557Y40250577D01*
X21052486Y40250491D01*
X21050987Y40249013D01*
X20650987Y39849013D01*
X20613713Y39803635D01*
X20576053Y39758754D01*
X20574447Y39755832D01*
X20572324Y39753248D01*
X20544579Y39701503D01*
X20516349Y39650153D01*
X20515340Y39646971D01*
X20513761Y39644027D01*
X20496616Y39587946D01*
X20478876Y39532024D01*
X20478503Y39528703D01*
X20477528Y39525512D01*
X20471603Y39467184D01*
X20465062Y39408866D01*
X20465016Y39402338D01*
X20465004Y39402216D01*
X20465015Y39402103D01*
X20465000Y39400000D01*
X20465000Y38631192D01*
X20461928Y38600000D01*
X20138072Y38600000D01*
X20135000Y38631192D01*
X20135000Y39400000D01*
X20129274Y39458402D01*
X20124164Y39516809D01*
X20123233Y39520013D01*
X20122907Y39523339D01*
X20105937Y39579548D01*
X20089588Y39635819D01*
X20088053Y39638780D01*
X20087087Y39641980D01*
X20059538Y39693793D01*
X20032556Y39745846D01*
X20030473Y39748456D01*
X20028905Y39751404D01*
X19991835Y39796857D01*
X19955238Y39842700D01*
X19950653Y39847350D01*
X19950577Y39847443D01*
X19950491Y39847514D01*
X19949013Y39849013D01*
X19549013Y40249013D01*
X19503635Y40286287D01*
X19458754Y40323947D01*
X19455832Y40325553D01*
X19453248Y40327676D01*
X19401503Y40355421D01*
X19350153Y40383651D01*
X19346971Y40384660D01*
X19344027Y40386239D01*
X19287946Y40403384D01*
X19232024Y40421124D01*
X19228703Y40421497D01*
X19225512Y40422472D01*
X19167184Y40428397D01*
X19108866Y40434938D01*
X19102338Y40434984D01*
X19102216Y40434996D01*
X19102103Y40434985D01*
X19100000Y40435000D01*
X17700000Y40435000D01*
X17641598Y40429274D01*
X17583191Y40424164D01*
X17579987Y40423233D01*
X17576661Y40422907D01*
X17520452Y40405937D01*
X17464181Y40389588D01*
X17461220Y40388053D01*
X17458020Y40387087D01*
X17406207Y40359538D01*
X17354154Y40332556D01*
X17351544Y40330473D01*
X17348596Y40328905D01*
X17303143Y40291835D01*
X17257300Y40255238D01*
X17252650Y40250653D01*
X17252557Y40250577D01*
X17252486Y40250491D01*
X17250987Y40249013D01*
X16850987Y39849013D01*
X16813713Y39803635D01*
X16776053Y39758754D01*
X16774447Y39755832D01*
X16772324Y39753248D01*
X16744579Y39701503D01*
X16716349Y39650153D01*
X16715340Y39646971D01*
X16713761Y39644027D01*
X16696616Y39587946D01*
X16678876Y39532024D01*
X16678503Y39528703D01*
X16677528Y39525512D01*
X16671603Y39467184D01*
X16665062Y39408866D01*
X16665016Y39402338D01*
X16665004Y39402216D01*
X16665015Y39402103D01*
X16665000Y39400000D01*
X16665000Y38631192D01*
X16661928Y38600000D01*
X13671048Y38600000D01*
X13783061Y38767639D01*
X13883696Y39010593D01*
X13935000Y39268512D01*
X13935000Y39531484D01*
X13883696Y39789403D01*
X13783061Y40032357D01*
X13636962Y40251011D01*
X13451013Y40436960D01*
X13232359Y40583059D01*
X12989405Y40683694D01*
X12731486Y40734998D01*
X12468514Y40734998D01*
X12210595Y40683694D01*
X11967641Y40583059D01*
X11748987Y40436960D01*
X11563038Y40251011D01*
X11416939Y40032357D01*
X11316304Y39789403D01*
X11265000Y39531484D01*
X11265000Y39322234D01*
X10880838Y38938072D01*
X9200000Y38938072D01*
X9075518Y38925812D01*
X8955820Y38889502D01*
X8845506Y38830537D01*
X8748815Y38751185D01*
X8669463Y38654494D01*
X8610498Y38544180D01*
X8574188Y38424482D01*
X8561928Y38300000D01*
X7602989Y38300000D01*
X7532441Y38396881D01*
X7626185Y38473815D01*
X7705537Y38570506D01*
X7764502Y38680820D01*
X7773657Y38711000D01*
X8056342Y38711000D01*
X8100002Y38706700D01*
X8143662Y38711000D01*
X8143669Y38711000D01*
X8274276Y38723864D01*
X8441853Y38774697D01*
X8596293Y38857247D01*
X8731661Y38968341D01*
X8759501Y39002264D01*
X8922237Y39165000D01*
X9131488Y39165000D01*
X9389407Y39216304D01*
X9632361Y39316939D01*
X9851015Y39463038D01*
X10036964Y39648987D01*
X10183063Y39867641D01*
X10283698Y40110595D01*
X10335002Y40368514D01*
X10335002Y40631486D01*
X10283698Y40889405D01*
X10262741Y40940000D01*
X35740000Y40940000D01*
X35740001Y25260000D01*
X34221421Y25260000D01*
X34230528Y25262762D01*
X34463629Y25370527D01*
X34671227Y25521697D01*
X34845344Y25710463D01*
X34979289Y25929570D01*
X35067915Y26170599D01*
X34945085Y26373000D01*
X33927000Y26373000D01*
X33927000Y26353000D01*
X33673000Y26353000D01*
X33673000Y26373000D01*
X33653000Y26373000D01*
X33653000Y26627000D01*
X33673000Y26627000D01*
X33673000Y27644224D01*
X33927000Y27644224D01*
X33927000Y26627000D01*
X34945085Y26627000D01*
X35067915Y26829401D01*
X34979289Y27070430D01*
X34845344Y27289537D01*
X34671227Y27478303D01*
X34463629Y27629473D01*
X34230528Y27737238D01*
X34129400Y27767910D01*
X33927000Y27644224D01*
X33673000Y27644224D01*
X33470600Y27767910D01*
X33369472Y27737238D01*
X33136371Y27629473D01*
X32928773Y27478303D01*
X32806681Y27345940D01*
X32689000Y27463621D01*
X32689000Y28101025D01*
X32836962Y28248987D01*
X32983061Y28467641D01*
X33083696Y28710595D01*
X33135000Y28968514D01*
X33135000Y29177765D01*
X33594163Y29636928D01*
X34900000Y29636928D01*
X35024482Y29649188D01*
X35144180Y29685498D01*
X35254494Y29744463D01*
X35351185Y29823815D01*
X35430537Y29920506D01*
X35489502Y30030820D01*
X35525812Y30150518D01*
X35538072Y30275000D01*
X35538072Y32275000D01*
X35535000Y32306192D01*
X35535000Y32575000D01*
X35529273Y32633406D01*
X35524164Y32691809D01*
X35523233Y32695013D01*
X35522907Y32698339D01*
X35505937Y32754548D01*
X35489588Y32810819D01*
X35488053Y32813780D01*
X35487087Y32816980D01*
X35459538Y32868793D01*
X35432556Y32920846D01*
X35430473Y32923456D01*
X35428905Y32926404D01*
X35391835Y32971857D01*
X35355238Y33017700D01*
X35350653Y33022350D01*
X35350577Y33022443D01*
X35350491Y33022514D01*
X35349013Y33024013D01*
X35049013Y33324013D01*
X35003635Y33361287D01*
X34958754Y33398947D01*
X34955832Y33400553D01*
X34953248Y33402676D01*
X34901503Y33430421D01*
X34850153Y33458651D01*
X34846971Y33459660D01*
X34844027Y33461239D01*
X34787946Y33478384D01*
X34732024Y33496124D01*
X34728703Y33496497D01*
X34725512Y33497472D01*
X34667184Y33503397D01*
X34608866Y33509938D01*
X34602338Y33509984D01*
X34602216Y33509996D01*
X34602103Y33509985D01*
X34600000Y33510000D01*
X33000000Y33510000D01*
X32941594Y33504273D01*
X32883191Y33499164D01*
X32879987Y33498233D01*
X32876661Y33497907D01*
X32820452Y33480937D01*
X32764181Y33464588D01*
X32761220Y33463053D01*
X32758020Y33462087D01*
X32706207Y33434538D01*
X32654154Y33407556D01*
X32651544Y33405473D01*
X32648596Y33403905D01*
X32603143Y33366835D01*
X32557300Y33330238D01*
X32552650Y33325653D01*
X32552557Y33325577D01*
X32552486Y33325491D01*
X32550987Y33324013D01*
X32250987Y33024013D01*
X32213713Y32978635D01*
X32176053Y32933754D01*
X32174447Y32930832D01*
X32172324Y32928248D01*
X32144579Y32876503D01*
X32116349Y32825153D01*
X32115340Y32821971D01*
X32113761Y32819027D01*
X32096616Y32762946D01*
X32078876Y32707024D01*
X32078503Y32703703D01*
X32077528Y32700512D01*
X32071603Y32642184D01*
X32065062Y32583866D01*
X32065016Y32577338D01*
X32065004Y32577216D01*
X32065015Y32577103D01*
X32065000Y32575000D01*
X32065000Y32306192D01*
X32061928Y32275000D01*
X32061928Y30619163D01*
X31877765Y30435000D01*
X31668514Y30435000D01*
X31410595Y30383696D01*
X31167641Y30283061D01*
X30948987Y30136962D01*
X30763038Y29951013D01*
X30616939Y29732359D01*
X30516304Y29489405D01*
X30465000Y29231486D01*
X30465000Y28968514D01*
X30516304Y28710595D01*
X30616939Y28467641D01*
X30763038Y28248987D01*
X30911000Y28101025D01*
X30911001Y27463622D01*
X30800000Y27352621D01*
X30692784Y27459837D01*
X30689000Y27498255D01*
X30689000Y27498261D01*
X30676136Y27628868D01*
X30676136Y27628870D01*
X30636083Y27760907D01*
X30625303Y27796445D01*
X30542753Y27950885D01*
X30431659Y28086253D01*
X30397736Y28114093D01*
X27023741Y31488088D01*
X26983696Y31689405D01*
X26883061Y31932359D01*
X26736962Y32151013D01*
X26587975Y32300000D01*
X27461928Y32300000D01*
X27465000Y32268808D01*
X27465000Y31500000D01*
X27470727Y31441594D01*
X27475836Y31383191D01*
X27476767Y31379987D01*
X27477093Y31376661D01*
X27494063Y31320452D01*
X27510412Y31264181D01*
X27511947Y31261220D01*
X27512913Y31258020D01*
X27540462Y31206207D01*
X27567444Y31154154D01*
X27569527Y31151544D01*
X27571095Y31148596D01*
X27608165Y31103143D01*
X27644762Y31057300D01*
X27649347Y31052650D01*
X27649423Y31052557D01*
X27649509Y31052486D01*
X27650987Y31050987D01*
X28050987Y30650987D01*
X28096338Y30613735D01*
X28141246Y30576053D01*
X28144171Y30574445D01*
X28146752Y30572325D01*
X28198477Y30544590D01*
X28249847Y30516349D01*
X28253026Y30515340D01*
X28255972Y30513761D01*
X28312068Y30496611D01*
X28367976Y30478876D01*
X28371297Y30478503D01*
X28374488Y30477528D01*
X28432816Y30471603D01*
X28491134Y30465062D01*
X28497662Y30465016D01*
X28497784Y30465004D01*
X28497897Y30465015D01*
X28500000Y30465000D01*
X29900000Y30465000D01*
X29958406Y30470727D01*
X30016809Y30475836D01*
X30020013Y30476767D01*
X30023339Y30477093D01*
X30079548Y30494063D01*
X30135819Y30510412D01*
X30138780Y30511947D01*
X30141980Y30512913D01*
X30193793Y30540462D01*
X30245846Y30567444D01*
X30248456Y30569527D01*
X30251404Y30571095D01*
X30296857Y30608165D01*
X30342700Y30644762D01*
X30347350Y30649347D01*
X30347443Y30649423D01*
X30347514Y30649509D01*
X30349013Y30650987D01*
X30749013Y31050987D01*
X30786265Y31096338D01*
X30823947Y31141246D01*
X30825555Y31144171D01*
X30827675Y31146752D01*
X30855410Y31198477D01*
X30883651Y31249847D01*
X30884660Y31253026D01*
X30886239Y31255972D01*
X30903389Y31312068D01*
X30921124Y31367976D01*
X30921497Y31371297D01*
X30922472Y31374488D01*
X30928397Y31432816D01*
X30934938Y31491134D01*
X30934984Y31497662D01*
X30934996Y31497784D01*
X30934985Y31497897D01*
X30935000Y31500000D01*
X30935000Y32268808D01*
X30938072Y32300000D01*
X30935000Y32814250D01*
X30776250Y32973000D01*
X29855411Y32973000D01*
X29716309Y33065945D01*
X29517941Y33148112D01*
X29307356Y33190000D01*
X29092644Y33190000D01*
X28882059Y33148112D01*
X28683691Y33065945D01*
X28544589Y32973000D01*
X27623750Y32973000D01*
X27465000Y32814250D01*
X27461928Y32300000D01*
X26587975Y32300000D01*
X26551013Y32336962D01*
X26332359Y32483061D01*
X26089405Y32583696D01*
X25831486Y32635000D01*
X25568514Y32635000D01*
X25310595Y32583696D01*
X25067641Y32483061D01*
X25012239Y32446043D01*
X25012239Y33493929D01*
X25160201Y33641891D01*
X25306300Y33860545D01*
X25322642Y33900000D01*
X27461928Y33900000D01*
X27465000Y33385750D01*
X27623750Y33227000D01*
X29073000Y33227000D01*
X29073000Y34376250D01*
X29327000Y34376250D01*
X29327000Y33227000D01*
X30776250Y33227000D01*
X30935000Y33385750D01*
X30938072Y33900000D01*
X30925812Y34024482D01*
X30889502Y34144180D01*
X30830537Y34254494D01*
X30751185Y34351185D01*
X30654494Y34430537D01*
X30544180Y34489502D01*
X30424482Y34525812D01*
X30300000Y34538072D01*
X29485750Y34535000D01*
X29327000Y34376250D01*
X29073000Y34376250D01*
X28914250Y34535000D01*
X28100000Y34538072D01*
X27975518Y34525812D01*
X27855820Y34489502D01*
X27745506Y34430537D01*
X27648815Y34351185D01*
X27569463Y34254494D01*
X27510498Y34144180D01*
X27474188Y34024482D01*
X27461928Y33900000D01*
X25322642Y33900000D01*
X25406935Y34103499D01*
X25458239Y34361418D01*
X25458239Y34624390D01*
X25406935Y34882309D01*
X25306300Y35125263D01*
X25160201Y35343917D01*
X24974252Y35529866D01*
X24755598Y35675965D01*
X24512644Y35776600D01*
X24254725Y35827904D01*
X23991753Y35827904D01*
X23733834Y35776600D01*
X23490880Y35675965D01*
X23272226Y35529866D01*
X23086277Y35343917D01*
X22940178Y35125263D01*
X22839543Y34882309D01*
X22788239Y34624390D01*
X22788239Y34361418D01*
X22839543Y34103499D01*
X22940178Y33860545D01*
X23086277Y33641891D01*
X23234240Y33493928D01*
X23234239Y28880577D01*
X23229939Y28836917D01*
X23234239Y28793257D01*
X23234239Y28793251D01*
X23240565Y28729024D01*
X23247103Y28662643D01*
X23269237Y28589676D01*
X23297936Y28495067D01*
X23380486Y28340627D01*
X23491580Y28205258D01*
X23525503Y28177418D01*
X25800662Y25902258D01*
X25828497Y25868341D01*
X25963865Y25757247D01*
X26118305Y25674697D01*
X26235048Y25639284D01*
X26285881Y25623864D01*
X26302481Y25622229D01*
X26416489Y25611000D01*
X26416496Y25611000D01*
X26460156Y25606700D01*
X26503816Y25611000D01*
X26526343Y25611000D01*
X26535498Y25580820D01*
X26594463Y25470506D01*
X26673815Y25373815D01*
X26770506Y25294463D01*
X26834981Y25260000D01*
X5060000Y25260000D01*
X5060000Y33275000D01*
X5186928Y33275000D01*
X5186928Y31925000D01*
X5199188Y31800518D01*
X5235498Y31680820D01*
X5294463Y31570506D01*
X5373815Y31473815D01*
X5460697Y31402513D01*
X5339093Y31220518D01*
X5240342Y30982113D01*
X5190000Y30729024D01*
X5190000Y30470976D01*
X5240342Y30217887D01*
X5339093Y29979482D01*
X5482456Y29764923D01*
X5647379Y29600000D01*
X5482456Y29435077D01*
X5339093Y29220518D01*
X5240342Y28982113D01*
X5190000Y28729024D01*
X5190000Y28470976D01*
X5240342Y28217887D01*
X5339093Y27979482D01*
X5482456Y27764923D01*
X5647379Y27600000D01*
X5482456Y27435077D01*
X5339093Y27220518D01*
X5240342Y26982113D01*
X5190000Y26729024D01*
X5190000Y26470976D01*
X5240342Y26217887D01*
X5339093Y25979482D01*
X5482456Y25764923D01*
X5664923Y25582456D01*
X5879482Y25439093D01*
X6117887Y25340342D01*
X6370976Y25290000D01*
X6629024Y25290000D01*
X6882113Y25340342D01*
X7120518Y25439093D01*
X7335077Y25582456D01*
X7463621Y25711000D01*
X10701025Y25711000D01*
X10848987Y25563038D01*
X11067641Y25416939D01*
X11310595Y25316304D01*
X11568514Y25265000D01*
X11831486Y25265000D01*
X12089405Y25316304D01*
X12332359Y25416939D01*
X12551013Y25563038D01*
X12736962Y25748987D01*
X12883061Y25967641D01*
X12983696Y26210595D01*
X13035000Y26468514D01*
X13035000Y26731486D01*
X12983696Y26989405D01*
X12883061Y27232359D01*
X12736962Y27451013D01*
X12587975Y27600000D01*
X12736962Y27748987D01*
X12883061Y27967641D01*
X12983696Y28210595D01*
X13035000Y28468514D01*
X13035000Y28731486D01*
X12983696Y28989405D01*
X12883061Y29232359D01*
X12736962Y29451013D01*
X12587975Y29600000D01*
X12736962Y29748987D01*
X12883061Y29967641D01*
X12983696Y30210595D01*
X13035000Y30468514D01*
X13035000Y30731486D01*
X12983696Y30989405D01*
X12883061Y31232359D01*
X12736962Y31451013D01*
X12587976Y31599999D01*
X12736963Y31748987D01*
X12883062Y31967641D01*
X12983697Y32210595D01*
X13035001Y32468514D01*
X13035001Y32731486D01*
X12983697Y32989405D01*
X12883062Y33232359D01*
X12736963Y33451013D01*
X12551014Y33636962D01*
X12332360Y33783061D01*
X12089406Y33883696D01*
X11831487Y33935000D01*
X11568515Y33935000D01*
X11310596Y33883696D01*
X11067642Y33783061D01*
X10848988Y33636962D01*
X10701026Y33489000D01*
X7773657Y33489000D01*
X7764502Y33519180D01*
X7705537Y33629494D01*
X7626185Y33726185D01*
X7529494Y33805537D01*
X7419180Y33864502D01*
X7299482Y33900812D01*
X7175000Y33913072D01*
X5825000Y33913072D01*
X5700518Y33900812D01*
X5580820Y33864502D01*
X5470506Y33805537D01*
X5373815Y33726185D01*
X5294463Y33629494D01*
X5235498Y33519180D01*
X5199188Y33399482D01*
X5186928Y33275000D01*
X5060000Y33275000D01*
X5060000Y37270600D01*
X5232090Y37270600D01*
X5262762Y37169472D01*
X5370527Y36936371D01*
X5521697Y36728773D01*
X5710463Y36554656D01*
X5929570Y36420711D01*
X6170599Y36332085D01*
X6373000Y36454915D01*
X6373000Y37473000D01*
X6627000Y37473000D01*
X6627000Y36454915D01*
X6829401Y36332085D01*
X7070430Y36420711D01*
X7289537Y36554656D01*
X7478303Y36728773D01*
X7629473Y36936371D01*
X7737238Y37169472D01*
X7767910Y37270600D01*
X7644224Y37473000D01*
X6627000Y37473000D01*
X6373000Y37473000D01*
X5355776Y37473000D01*
X5232090Y37270600D01*
X5060000Y37270600D01*
X5060000Y40940000D01*
X7737263Y40940000D01*
X7716306Y40889405D01*
G37*
X7716306Y40889405D02*
X7672591Y40669639D01*
X7626185Y40726185D01*
X7529494Y40805537D01*
X7419180Y40864502D01*
X7299482Y40900812D01*
X7175000Y40913072D01*
X5825000Y40913072D01*
X5700518Y40900812D01*
X5580820Y40864502D01*
X5470506Y40805537D01*
X5373815Y40726185D01*
X5294463Y40629494D01*
X5235498Y40519180D01*
X5199188Y40399482D01*
X5186928Y40275000D01*
X5186928Y38925000D01*
X5199188Y38800518D01*
X5235498Y38680820D01*
X5294463Y38570506D01*
X5373815Y38473815D01*
X5467559Y38396881D01*
X5370527Y38263629D01*
X5262762Y38030528D01*
X5232090Y37929400D01*
X5355776Y37727000D01*
X6373000Y37727000D01*
X6373000Y37747000D01*
X6627000Y37747000D01*
X6627000Y37727000D01*
X7644224Y37727000D01*
X7767910Y37929400D01*
X7737238Y38030528D01*
X7629473Y38263629D01*
X7602989Y38300000D01*
X8561928Y38300000D01*
X8561928Y36300000D01*
X8565000Y36268808D01*
X8565000Y36000000D01*
X8570727Y35941594D01*
X8575836Y35883191D01*
X8576767Y35879987D01*
X8577093Y35876661D01*
X8594063Y35820452D01*
X8610412Y35764181D01*
X8611947Y35761220D01*
X8612913Y35758020D01*
X8640462Y35706207D01*
X8667444Y35654154D01*
X8669527Y35651544D01*
X8671095Y35648596D01*
X8708165Y35603143D01*
X8744762Y35557300D01*
X8749347Y35552650D01*
X8749423Y35552557D01*
X8749509Y35552486D01*
X8750987Y35550987D01*
X9050987Y35250987D01*
X9096365Y35213713D01*
X9141246Y35176053D01*
X9144168Y35174447D01*
X9146752Y35172324D01*
X9198516Y35144569D01*
X9249847Y35116349D01*
X9253026Y35115340D01*
X9255972Y35113761D01*
X9312068Y35096611D01*
X9367976Y35078876D01*
X9371297Y35078503D01*
X9374488Y35077528D01*
X9432816Y35071603D01*
X9491134Y35065062D01*
X9497662Y35065016D01*
X9497784Y35065004D01*
X9497897Y35065015D01*
X9500000Y35065000D01*
X11100000Y35065000D01*
X11158406Y35070727D01*
X11216809Y35075836D01*
X11220013Y35076767D01*
X11223339Y35077093D01*
X11279548Y35094063D01*
X11335819Y35110412D01*
X11338780Y35111947D01*
X11341980Y35112913D01*
X11393793Y35140462D01*
X11445846Y35167444D01*
X11448456Y35169527D01*
X11451404Y35171095D01*
X11496857Y35208165D01*
X11542700Y35244762D01*
X11547350Y35249347D01*
X11547443Y35249423D01*
X11547514Y35249509D01*
X11549013Y35250987D01*
X11849013Y35550987D01*
X11886287Y35596365D01*
X11923947Y35641246D01*
X11925553Y35644168D01*
X11927676Y35646752D01*
X11955431Y35698516D01*
X11983651Y35749847D01*
X11984660Y35753026D01*
X11986239Y35755972D01*
X12003389Y35812068D01*
X12021124Y35867976D01*
X12021497Y35871297D01*
X12022472Y35874488D01*
X12028397Y35932816D01*
X12034938Y35991134D01*
X12034984Y35997662D01*
X12034996Y35997784D01*
X12034985Y35997897D01*
X12035000Y36000000D01*
X12035000Y36268808D01*
X12038072Y36300000D01*
X12038072Y37000000D01*
X16661928Y37000000D01*
X16674188Y36875518D01*
X16710498Y36755820D01*
X16769463Y36645506D01*
X16848815Y36548815D01*
X16945506Y36469463D01*
X17055820Y36410498D01*
X17175518Y36374188D01*
X17300000Y36361928D01*
X18114250Y36365000D01*
X18273000Y36523750D01*
X18273000Y37673000D01*
X18527000Y37673000D01*
X18527000Y36523750D01*
X18685750Y36365000D01*
X19500000Y36361928D01*
X19624482Y36374188D01*
X19744180Y36410498D01*
X19854494Y36469463D01*
X19951185Y36548815D01*
X20030537Y36645506D01*
X20089502Y36755820D01*
X20125812Y36875518D01*
X20138072Y37000000D01*
X20461928Y37000000D01*
X20474188Y36875518D01*
X20510498Y36755820D01*
X20569463Y36645506D01*
X20648815Y36548815D01*
X20745506Y36469463D01*
X20855820Y36410498D01*
X20975518Y36374188D01*
X21100000Y36361928D01*
X21914250Y36365000D01*
X22073000Y36523750D01*
X22073000Y37673000D01*
X22327000Y37673000D01*
X22327000Y36523750D01*
X22485750Y36365000D01*
X23300000Y36361928D01*
X23424482Y36374188D01*
X23544180Y36410498D01*
X23654494Y36469463D01*
X23751185Y36548815D01*
X23830537Y36645506D01*
X23889502Y36755820D01*
X23925812Y36875518D01*
X23938072Y37000000D01*
X23935000Y37514250D01*
X23776250Y37673000D01*
X22327000Y37673000D01*
X22073000Y37673000D01*
X20623750Y37673000D01*
X20465000Y37514250D01*
X20461928Y37000000D01*
X20138072Y37000000D01*
X20135000Y37514250D01*
X19976250Y37673000D01*
X18527000Y37673000D01*
X18273000Y37673000D01*
X16823750Y37673000D01*
X16665000Y37514250D01*
X16661928Y37000000D01*
X12038072Y37000000D01*
X12038072Y37580834D01*
X12522236Y38064998D01*
X12731486Y38064998D01*
X12989405Y38116302D01*
X13232359Y38216937D01*
X13451013Y38363036D01*
X13636962Y38548985D01*
X13671048Y38600000D01*
X16661928Y38600000D01*
X16665000Y38085750D01*
X16823750Y37927000D01*
X17744589Y37927000D01*
X17883691Y37834055D01*
X18082059Y37751888D01*
X18292644Y37710000D01*
X18507356Y37710000D01*
X18717941Y37751888D01*
X18916309Y37834055D01*
X19055411Y37927000D01*
X19976250Y37927000D01*
X20135000Y38085750D01*
X20138072Y38600000D01*
X20461928Y38600000D01*
X20465000Y38085750D01*
X20623750Y37927000D01*
X21544589Y37927000D01*
X21683691Y37834055D01*
X21882059Y37751888D01*
X22092644Y37710000D01*
X22307356Y37710000D01*
X22517941Y37751888D01*
X22716309Y37834055D01*
X22855411Y37927000D01*
X23776250Y37927000D01*
X23935000Y38085750D01*
X23938072Y38600000D01*
X23935000Y38631192D01*
X23935000Y39400000D01*
X23929274Y39458402D01*
X23924164Y39516809D01*
X23923233Y39520013D01*
X23922907Y39523339D01*
X23905937Y39579548D01*
X23889588Y39635819D01*
X23888053Y39638780D01*
X23887087Y39641980D01*
X23859538Y39693793D01*
X23832556Y39745846D01*
X23830473Y39748456D01*
X23828905Y39751404D01*
X23791835Y39796857D01*
X23755238Y39842700D01*
X23750653Y39847350D01*
X23750577Y39847443D01*
X23750491Y39847514D01*
X23749013Y39849013D01*
X23349013Y40249013D01*
X23303635Y40286287D01*
X23258754Y40323947D01*
X23255832Y40325553D01*
X23253248Y40327676D01*
X23201503Y40355421D01*
X23150153Y40383651D01*
X23146971Y40384660D01*
X23144027Y40386239D01*
X23087946Y40403384D01*
X23032024Y40421124D01*
X23028703Y40421497D01*
X23025512Y40422472D01*
X22967184Y40428397D01*
X22908866Y40434938D01*
X22902338Y40434984D01*
X22902216Y40434996D01*
X22902103Y40434985D01*
X22900000Y40435000D01*
X21500000Y40435000D01*
X21441598Y40429274D01*
X21383191Y40424164D01*
X21379987Y40423233D01*
X21376661Y40422907D01*
X21320452Y40405937D01*
X21264181Y40389588D01*
X21261220Y40388053D01*
X21258020Y40387087D01*
X21206207Y40359538D01*
X21154154Y40332556D01*
X21151544Y40330473D01*
X21148596Y40328905D01*
X21103143Y40291835D01*
X21057300Y40255238D01*
X21052650Y40250653D01*
X21052557Y40250577D01*
X21052486Y40250491D01*
X21050987Y40249013D01*
X20650987Y39849013D01*
X20613713Y39803635D01*
X20576053Y39758754D01*
X20574447Y39755832D01*
X20572324Y39753248D01*
X20544579Y39701503D01*
X20516349Y39650153D01*
X20515340Y39646971D01*
X20513761Y39644027D01*
X20496616Y39587946D01*
X20478876Y39532024D01*
X20478503Y39528703D01*
X20477528Y39525512D01*
X20471603Y39467184D01*
X20465062Y39408866D01*
X20465016Y39402338D01*
X20465004Y39402216D01*
X20465015Y39402103D01*
X20465000Y39400000D01*
X20465000Y38631192D01*
X20461928Y38600000D01*
X20138072Y38600000D01*
X20135000Y38631192D01*
X20135000Y39400000D01*
X20129274Y39458402D01*
X20124164Y39516809D01*
X20123233Y39520013D01*
X20122907Y39523339D01*
X20105937Y39579548D01*
X20089588Y39635819D01*
X20088053Y39638780D01*
X20087087Y39641980D01*
X20059538Y39693793D01*
X20032556Y39745846D01*
X20030473Y39748456D01*
X20028905Y39751404D01*
X19991835Y39796857D01*
X19955238Y39842700D01*
X19950653Y39847350D01*
X19950577Y39847443D01*
X19950491Y39847514D01*
X19949013Y39849013D01*
X19549013Y40249013D01*
X19503635Y40286287D01*
X19458754Y40323947D01*
X19455832Y40325553D01*
X19453248Y40327676D01*
X19401503Y40355421D01*
X19350153Y40383651D01*
X19346971Y40384660D01*
X19344027Y40386239D01*
X19287946Y40403384D01*
X19232024Y40421124D01*
X19228703Y40421497D01*
X19225512Y40422472D01*
X19167184Y40428397D01*
X19108866Y40434938D01*
X19102338Y40434984D01*
X19102216Y40434996D01*
X19102103Y40434985D01*
X19100000Y40435000D01*
X17700000Y40435000D01*
X17641598Y40429274D01*
X17583191Y40424164D01*
X17579987Y40423233D01*
X17576661Y40422907D01*
X17520452Y40405937D01*
X17464181Y40389588D01*
X17461220Y40388053D01*
X17458020Y40387087D01*
X17406207Y40359538D01*
X17354154Y40332556D01*
X17351544Y40330473D01*
X17348596Y40328905D01*
X17303143Y40291835D01*
X17257300Y40255238D01*
X17252650Y40250653D01*
X17252557Y40250577D01*
X17252486Y40250491D01*
X17250987Y40249013D01*
X16850987Y39849013D01*
X16813713Y39803635D01*
X16776053Y39758754D01*
X16774447Y39755832D01*
X16772324Y39753248D01*
X16744579Y39701503D01*
X16716349Y39650153D01*
X16715340Y39646971D01*
X16713761Y39644027D01*
X16696616Y39587946D01*
X16678876Y39532024D01*
X16678503Y39528703D01*
X16677528Y39525512D01*
X16671603Y39467184D01*
X16665062Y39408866D01*
X16665016Y39402338D01*
X16665004Y39402216D01*
X16665015Y39402103D01*
X16665000Y39400000D01*
X16665000Y38631192D01*
X16661928Y38600000D01*
X13671048Y38600000D01*
X13783061Y38767639D01*
X13883696Y39010593D01*
X13935000Y39268512D01*
X13935000Y39531484D01*
X13883696Y39789403D01*
X13783061Y40032357D01*
X13636962Y40251011D01*
X13451013Y40436960D01*
X13232359Y40583059D01*
X12989405Y40683694D01*
X12731486Y40734998D01*
X12468514Y40734998D01*
X12210595Y40683694D01*
X11967641Y40583059D01*
X11748987Y40436960D01*
X11563038Y40251011D01*
X11416939Y40032357D01*
X11316304Y39789403D01*
X11265000Y39531484D01*
X11265000Y39322234D01*
X10880838Y38938072D01*
X9200000Y38938072D01*
X9075518Y38925812D01*
X8955820Y38889502D01*
X8845506Y38830537D01*
X8748815Y38751185D01*
X8669463Y38654494D01*
X8610498Y38544180D01*
X8574188Y38424482D01*
X8561928Y38300000D01*
X7602989Y38300000D01*
X7532441Y38396881D01*
X7626185Y38473815D01*
X7705537Y38570506D01*
X7764502Y38680820D01*
X7773657Y38711000D01*
X8056342Y38711000D01*
X8100002Y38706700D01*
X8143662Y38711000D01*
X8143669Y38711000D01*
X8274276Y38723864D01*
X8441853Y38774697D01*
X8596293Y38857247D01*
X8731661Y38968341D01*
X8759501Y39002264D01*
X8922237Y39165000D01*
X9131488Y39165000D01*
X9389407Y39216304D01*
X9632361Y39316939D01*
X9851015Y39463038D01*
X10036964Y39648987D01*
X10183063Y39867641D01*
X10283698Y40110595D01*
X10335002Y40368514D01*
X10335002Y40631486D01*
X10283698Y40889405D01*
X10262741Y40940000D01*
X35740000Y40940000D01*
X35740001Y25260000D01*
X34221421Y25260000D01*
X34230528Y25262762D01*
X34463629Y25370527D01*
X34671227Y25521697D01*
X34845344Y25710463D01*
X34979289Y25929570D01*
X35067915Y26170599D01*
X34945085Y26373000D01*
X33927000Y26373000D01*
X33927000Y26353000D01*
X33673000Y26353000D01*
X33673000Y26373000D01*
X33653000Y26373000D01*
X33653000Y26627000D01*
X33673000Y26627000D01*
X33673000Y27644224D01*
X33927000Y27644224D01*
X33927000Y26627000D01*
X34945085Y26627000D01*
X35067915Y26829401D01*
X34979289Y27070430D01*
X34845344Y27289537D01*
X34671227Y27478303D01*
X34463629Y27629473D01*
X34230528Y27737238D01*
X34129400Y27767910D01*
X33927000Y27644224D01*
X33673000Y27644224D01*
X33470600Y27767910D01*
X33369472Y27737238D01*
X33136371Y27629473D01*
X32928773Y27478303D01*
X32806681Y27345940D01*
X32689000Y27463621D01*
X32689000Y28101025D01*
X32836962Y28248987D01*
X32983061Y28467641D01*
X33083696Y28710595D01*
X33135000Y28968514D01*
X33135000Y29177765D01*
X33594163Y29636928D01*
X34900000Y29636928D01*
X35024482Y29649188D01*
X35144180Y29685498D01*
X35254494Y29744463D01*
X35351185Y29823815D01*
X35430537Y29920506D01*
X35489502Y30030820D01*
X35525812Y30150518D01*
X35538072Y30275000D01*
X35538072Y32275000D01*
X35535000Y32306192D01*
X35535000Y32575000D01*
X35529273Y32633406D01*
X35524164Y32691809D01*
X35523233Y32695013D01*
X35522907Y32698339D01*
X35505937Y32754548D01*
X35489588Y32810819D01*
X35488053Y32813780D01*
X35487087Y32816980D01*
X35459538Y32868793D01*
X35432556Y32920846D01*
X35430473Y32923456D01*
X35428905Y32926404D01*
X35391835Y32971857D01*
X35355238Y33017700D01*
X35350653Y33022350D01*
X35350577Y33022443D01*
X35350491Y33022514D01*
X35349013Y33024013D01*
X35049013Y33324013D01*
X35003635Y33361287D01*
X34958754Y33398947D01*
X34955832Y33400553D01*
X34953248Y33402676D01*
X34901503Y33430421D01*
X34850153Y33458651D01*
X34846971Y33459660D01*
X34844027Y33461239D01*
X34787946Y33478384D01*
X34732024Y33496124D01*
X34728703Y33496497D01*
X34725512Y33497472D01*
X34667184Y33503397D01*
X34608866Y33509938D01*
X34602338Y33509984D01*
X34602216Y33509996D01*
X34602103Y33509985D01*
X34600000Y33510000D01*
X33000000Y33510000D01*
X32941594Y33504273D01*
X32883191Y33499164D01*
X32879987Y33498233D01*
X32876661Y33497907D01*
X32820452Y33480937D01*
X32764181Y33464588D01*
X32761220Y33463053D01*
X32758020Y33462087D01*
X32706207Y33434538D01*
X32654154Y33407556D01*
X32651544Y33405473D01*
X32648596Y33403905D01*
X32603143Y33366835D01*
X32557300Y33330238D01*
X32552650Y33325653D01*
X32552557Y33325577D01*
X32552486Y33325491D01*
X32550987Y33324013D01*
X32250987Y33024013D01*
X32213713Y32978635D01*
X32176053Y32933754D01*
X32174447Y32930832D01*
X32172324Y32928248D01*
X32144579Y32876503D01*
X32116349Y32825153D01*
X32115340Y32821971D01*
X32113761Y32819027D01*
X32096616Y32762946D01*
X32078876Y32707024D01*
X32078503Y32703703D01*
X32077528Y32700512D01*
X32071603Y32642184D01*
X32065062Y32583866D01*
X32065016Y32577338D01*
X32065004Y32577216D01*
X32065015Y32577103D01*
X32065000Y32575000D01*
X32065000Y32306192D01*
X32061928Y32275000D01*
X32061928Y30619163D01*
X31877765Y30435000D01*
X31668514Y30435000D01*
X31410595Y30383696D01*
X31167641Y30283061D01*
X30948987Y30136962D01*
X30763038Y29951013D01*
X30616939Y29732359D01*
X30516304Y29489405D01*
X30465000Y29231486D01*
X30465000Y28968514D01*
X30516304Y28710595D01*
X30616939Y28467641D01*
X30763038Y28248987D01*
X30911000Y28101025D01*
X30911001Y27463622D01*
X30800000Y27352621D01*
X30692784Y27459837D01*
X30689000Y27498255D01*
X30689000Y27498261D01*
X30676136Y27628868D01*
X30676136Y27628870D01*
X30636083Y27760907D01*
X30625303Y27796445D01*
X30542753Y27950885D01*
X30431659Y28086253D01*
X30397736Y28114093D01*
X27023741Y31488088D01*
X26983696Y31689405D01*
X26883061Y31932359D01*
X26736962Y32151013D01*
X26587975Y32300000D01*
X27461928Y32300000D01*
X27465000Y32268808D01*
X27465000Y31500000D01*
X27470727Y31441594D01*
X27475836Y31383191D01*
X27476767Y31379987D01*
X27477093Y31376661D01*
X27494063Y31320452D01*
X27510412Y31264181D01*
X27511947Y31261220D01*
X27512913Y31258020D01*
X27540462Y31206207D01*
X27567444Y31154154D01*
X27569527Y31151544D01*
X27571095Y31148596D01*
X27608165Y31103143D01*
X27644762Y31057300D01*
X27649347Y31052650D01*
X27649423Y31052557D01*
X27649509Y31052486D01*
X27650987Y31050987D01*
X28050987Y30650987D01*
X28096338Y30613735D01*
X28141246Y30576053D01*
X28144171Y30574445D01*
X28146752Y30572325D01*
X28198477Y30544590D01*
X28249847Y30516349D01*
X28253026Y30515340D01*
X28255972Y30513761D01*
X28312068Y30496611D01*
X28367976Y30478876D01*
X28371297Y30478503D01*
X28374488Y30477528D01*
X28432816Y30471603D01*
X28491134Y30465062D01*
X28497662Y30465016D01*
X28497784Y30465004D01*
X28497897Y30465015D01*
X28500000Y30465000D01*
X29900000Y30465000D01*
X29958406Y30470727D01*
X30016809Y30475836D01*
X30020013Y30476767D01*
X30023339Y30477093D01*
X30079548Y30494063D01*
X30135819Y30510412D01*
X30138780Y30511947D01*
X30141980Y30512913D01*
X30193793Y30540462D01*
X30245846Y30567444D01*
X30248456Y30569527D01*
X30251404Y30571095D01*
X30296857Y30608165D01*
X30342700Y30644762D01*
X30347350Y30649347D01*
X30347443Y30649423D01*
X30347514Y30649509D01*
X30349013Y30650987D01*
X30749013Y31050987D01*
X30786265Y31096338D01*
X30823947Y31141246D01*
X30825555Y31144171D01*
X30827675Y31146752D01*
X30855410Y31198477D01*
X30883651Y31249847D01*
X30884660Y31253026D01*
X30886239Y31255972D01*
X30903389Y31312068D01*
X30921124Y31367976D01*
X30921497Y31371297D01*
X30922472Y31374488D01*
X30928397Y31432816D01*
X30934938Y31491134D01*
X30934984Y31497662D01*
X30934996Y31497784D01*
X30934985Y31497897D01*
X30935000Y31500000D01*
X30935000Y32268808D01*
X30938072Y32300000D01*
X30935000Y32814250D01*
X30776250Y32973000D01*
X29855411Y32973000D01*
X29716309Y33065945D01*
X29517941Y33148112D01*
X29307356Y33190000D01*
X29092644Y33190000D01*
X28882059Y33148112D01*
X28683691Y33065945D01*
X28544589Y32973000D01*
X27623750Y32973000D01*
X27465000Y32814250D01*
X27461928Y32300000D01*
X26587975Y32300000D01*
X26551013Y32336962D01*
X26332359Y32483061D01*
X26089405Y32583696D01*
X25831486Y32635000D01*
X25568514Y32635000D01*
X25310595Y32583696D01*
X25067641Y32483061D01*
X25012239Y32446043D01*
X25012239Y33493929D01*
X25160201Y33641891D01*
X25306300Y33860545D01*
X25322642Y33900000D01*
X27461928Y33900000D01*
X27465000Y33385750D01*
X27623750Y33227000D01*
X29073000Y33227000D01*
X29073000Y34376250D01*
X29327000Y34376250D01*
X29327000Y33227000D01*
X30776250Y33227000D01*
X30935000Y33385750D01*
X30938072Y33900000D01*
X30925812Y34024482D01*
X30889502Y34144180D01*
X30830537Y34254494D01*
X30751185Y34351185D01*
X30654494Y34430537D01*
X30544180Y34489502D01*
X30424482Y34525812D01*
X30300000Y34538072D01*
X29485750Y34535000D01*
X29327000Y34376250D01*
X29073000Y34376250D01*
X28914250Y34535000D01*
X28100000Y34538072D01*
X27975518Y34525812D01*
X27855820Y34489502D01*
X27745506Y34430537D01*
X27648815Y34351185D01*
X27569463Y34254494D01*
X27510498Y34144180D01*
X27474188Y34024482D01*
X27461928Y33900000D01*
X25322642Y33900000D01*
X25406935Y34103499D01*
X25458239Y34361418D01*
X25458239Y34624390D01*
X25406935Y34882309D01*
X25306300Y35125263D01*
X25160201Y35343917D01*
X24974252Y35529866D01*
X24755598Y35675965D01*
X24512644Y35776600D01*
X24254725Y35827904D01*
X23991753Y35827904D01*
X23733834Y35776600D01*
X23490880Y35675965D01*
X23272226Y35529866D01*
X23086277Y35343917D01*
X22940178Y35125263D01*
X22839543Y34882309D01*
X22788239Y34624390D01*
X22788239Y34361418D01*
X22839543Y34103499D01*
X22940178Y33860545D01*
X23086277Y33641891D01*
X23234240Y33493928D01*
X23234239Y28880577D01*
X23229939Y28836917D01*
X23234239Y28793257D01*
X23234239Y28793251D01*
X23240565Y28729024D01*
X23247103Y28662643D01*
X23269237Y28589676D01*
X23297936Y28495067D01*
X23380486Y28340627D01*
X23491580Y28205258D01*
X23525503Y28177418D01*
X25800662Y25902258D01*
X25828497Y25868341D01*
X25963865Y25757247D01*
X26118305Y25674697D01*
X26235048Y25639284D01*
X26285881Y25623864D01*
X26302481Y25622229D01*
X26416489Y25611000D01*
X26416496Y25611000D01*
X26460156Y25606700D01*
X26503816Y25611000D01*
X26526343Y25611000D01*
X26535498Y25580820D01*
X26594463Y25470506D01*
X26673815Y25373815D01*
X26770506Y25294463D01*
X26834981Y25260000D01*
X5060000Y25260000D01*
X5060000Y33275000D01*
X5186928Y33275000D01*
X5186928Y31925000D01*
X5199188Y31800518D01*
X5235498Y31680820D01*
X5294463Y31570506D01*
X5373815Y31473815D01*
X5460697Y31402513D01*
X5339093Y31220518D01*
X5240342Y30982113D01*
X5190000Y30729024D01*
X5190000Y30470976D01*
X5240342Y30217887D01*
X5339093Y29979482D01*
X5482456Y29764923D01*
X5647379Y29600000D01*
X5482456Y29435077D01*
X5339093Y29220518D01*
X5240342Y28982113D01*
X5190000Y28729024D01*
X5190000Y28470976D01*
X5240342Y28217887D01*
X5339093Y27979482D01*
X5482456Y27764923D01*
X5647379Y27600000D01*
X5482456Y27435077D01*
X5339093Y27220518D01*
X5240342Y26982113D01*
X5190000Y26729024D01*
X5190000Y26470976D01*
X5240342Y26217887D01*
X5339093Y25979482D01*
X5482456Y25764923D01*
X5664923Y25582456D01*
X5879482Y25439093D01*
X6117887Y25340342D01*
X6370976Y25290000D01*
X6629024Y25290000D01*
X6882113Y25340342D01*
X7120518Y25439093D01*
X7335077Y25582456D01*
X7463621Y25711000D01*
X10701025Y25711000D01*
X10848987Y25563038D01*
X11067641Y25416939D01*
X11310595Y25316304D01*
X11568514Y25265000D01*
X11831486Y25265000D01*
X12089405Y25316304D01*
X12332359Y25416939D01*
X12551013Y25563038D01*
X12736962Y25748987D01*
X12883061Y25967641D01*
X12983696Y26210595D01*
X13035000Y26468514D01*
X13035000Y26731486D01*
X12983696Y26989405D01*
X12883061Y27232359D01*
X12736962Y27451013D01*
X12587975Y27600000D01*
X12736962Y27748987D01*
X12883061Y27967641D01*
X12983696Y28210595D01*
X13035000Y28468514D01*
X13035000Y28731486D01*
X12983696Y28989405D01*
X12883061Y29232359D01*
X12736962Y29451013D01*
X12587975Y29600000D01*
X12736962Y29748987D01*
X12883061Y29967641D01*
X12983696Y30210595D01*
X13035000Y30468514D01*
X13035000Y30731486D01*
X12983696Y30989405D01*
X12883061Y31232359D01*
X12736962Y31451013D01*
X12587976Y31599999D01*
X12736963Y31748987D01*
X12883062Y31967641D01*
X12983697Y32210595D01*
X13035001Y32468514D01*
X13035001Y32731486D01*
X12983697Y32989405D01*
X12883062Y33232359D01*
X12736963Y33451013D01*
X12551014Y33636962D01*
X12332360Y33783061D01*
X12089406Y33883696D01*
X11831487Y33935000D01*
X11568515Y33935000D01*
X11310596Y33883696D01*
X11067642Y33783061D01*
X10848988Y33636962D01*
X10701026Y33489000D01*
X7773657Y33489000D01*
X7764502Y33519180D01*
X7705537Y33629494D01*
X7626185Y33726185D01*
X7529494Y33805537D01*
X7419180Y33864502D01*
X7299482Y33900812D01*
X7175000Y33913072D01*
X5825000Y33913072D01*
X5700518Y33900812D01*
X5580820Y33864502D01*
X5470506Y33805537D01*
X5373815Y33726185D01*
X5294463Y33629494D01*
X5235498Y33519180D01*
X5199188Y33399482D01*
X5186928Y33275000D01*
X5060000Y33275000D01*
X5060000Y37270600D01*
X5232090Y37270600D01*
X5262762Y37169472D01*
X5370527Y36936371D01*
X5521697Y36728773D01*
X5710463Y36554656D01*
X5929570Y36420711D01*
X6170599Y36332085D01*
X6373000Y36454915D01*
X6373000Y37473000D01*
X6627000Y37473000D01*
X6627000Y36454915D01*
X6829401Y36332085D01*
X7070430Y36420711D01*
X7289537Y36554656D01*
X7478303Y36728773D01*
X7629473Y36936371D01*
X7737238Y37169472D01*
X7767910Y37270600D01*
X7644224Y37473000D01*
X6627000Y37473000D01*
X6373000Y37473000D01*
X5355776Y37473000D01*
X5232090Y37270600D01*
X5060000Y37270600D01*
X5060000Y40940000D01*
X7737263Y40940000D01*
X7716306Y40889405D01*
G36*
X7716306Y61289405D02*
G01*
X7672591Y61069639D01*
X7626185Y61126185D01*
X7529494Y61205537D01*
X7419180Y61264502D01*
X7299482Y61300812D01*
X7175000Y61313072D01*
X5825000Y61313072D01*
X5700518Y61300812D01*
X5580820Y61264502D01*
X5470506Y61205537D01*
X5373815Y61126185D01*
X5294463Y61029494D01*
X5235498Y60919180D01*
X5199188Y60799482D01*
X5186928Y60675000D01*
X5186928Y59325000D01*
X5199188Y59200518D01*
X5235498Y59080820D01*
X5294463Y58970506D01*
X5373815Y58873815D01*
X5467559Y58796881D01*
X5370527Y58663629D01*
X5262762Y58430528D01*
X5232090Y58329400D01*
X5355776Y58127000D01*
X6373000Y58127000D01*
X6373000Y58147000D01*
X6627000Y58147000D01*
X6627000Y58127000D01*
X7644224Y58127000D01*
X7767910Y58329400D01*
X7737238Y58430528D01*
X7629473Y58663629D01*
X7602989Y58700000D01*
X8561928Y58700000D01*
X8561928Y56700000D01*
X8565000Y56668808D01*
X8565000Y56400000D01*
X8570727Y56341594D01*
X8575836Y56283191D01*
X8576767Y56279987D01*
X8577093Y56276661D01*
X8594063Y56220452D01*
X8610412Y56164181D01*
X8611947Y56161220D01*
X8612913Y56158020D01*
X8640462Y56106207D01*
X8667444Y56054154D01*
X8669527Y56051544D01*
X8671095Y56048596D01*
X8708165Y56003143D01*
X8744762Y55957300D01*
X8749347Y55952650D01*
X8749423Y55952557D01*
X8749509Y55952486D01*
X8750987Y55950987D01*
X9050987Y55650987D01*
X9096365Y55613713D01*
X9141246Y55576053D01*
X9144168Y55574447D01*
X9146752Y55572324D01*
X9198516Y55544569D01*
X9249847Y55516349D01*
X9253026Y55515340D01*
X9255972Y55513761D01*
X9312068Y55496611D01*
X9367976Y55478876D01*
X9371297Y55478503D01*
X9374488Y55477528D01*
X9432816Y55471603D01*
X9491134Y55465062D01*
X9497662Y55465016D01*
X9497784Y55465004D01*
X9497897Y55465015D01*
X9500000Y55465000D01*
X11100000Y55465000D01*
X11158406Y55470727D01*
X11216809Y55475836D01*
X11220013Y55476767D01*
X11223339Y55477093D01*
X11279548Y55494063D01*
X11335819Y55510412D01*
X11338780Y55511947D01*
X11341980Y55512913D01*
X11393793Y55540462D01*
X11445846Y55567444D01*
X11448456Y55569527D01*
X11451404Y55571095D01*
X11496857Y55608165D01*
X11542700Y55644762D01*
X11547350Y55649347D01*
X11547443Y55649423D01*
X11547514Y55649509D01*
X11549013Y55650987D01*
X11849013Y55950987D01*
X11886287Y55996365D01*
X11923947Y56041246D01*
X11925553Y56044168D01*
X11927676Y56046752D01*
X11955431Y56098516D01*
X11983651Y56149847D01*
X11984660Y56153026D01*
X11986239Y56155972D01*
X12003389Y56212068D01*
X12021124Y56267976D01*
X12021497Y56271297D01*
X12022472Y56274488D01*
X12028397Y56332816D01*
X12034938Y56391134D01*
X12034984Y56397662D01*
X12034996Y56397784D01*
X12034985Y56397897D01*
X12035000Y56400000D01*
X12035000Y56668808D01*
X12038072Y56700000D01*
X12038072Y57400000D01*
X16661928Y57400000D01*
X16674188Y57275518D01*
X16710498Y57155820D01*
X16769463Y57045506D01*
X16848815Y56948815D01*
X16945506Y56869463D01*
X17055820Y56810498D01*
X17175518Y56774188D01*
X17300000Y56761928D01*
X18114250Y56765000D01*
X18273000Y56923750D01*
X18273000Y58073000D01*
X18527000Y58073000D01*
X18527000Y56923750D01*
X18685750Y56765000D01*
X19500000Y56761928D01*
X19624482Y56774188D01*
X19744180Y56810498D01*
X19854494Y56869463D01*
X19951185Y56948815D01*
X20030537Y57045506D01*
X20089502Y57155820D01*
X20125812Y57275518D01*
X20138072Y57400000D01*
X20461928Y57400000D01*
X20474188Y57275518D01*
X20510498Y57155820D01*
X20569463Y57045506D01*
X20648815Y56948815D01*
X20745506Y56869463D01*
X20855820Y56810498D01*
X20975518Y56774188D01*
X21100000Y56761928D01*
X21914250Y56765000D01*
X22073000Y56923750D01*
X22073000Y58073000D01*
X22327000Y58073000D01*
X22327000Y56923750D01*
X22485750Y56765000D01*
X23300000Y56761928D01*
X23424482Y56774188D01*
X23544180Y56810498D01*
X23654494Y56869463D01*
X23751185Y56948815D01*
X23830537Y57045506D01*
X23889502Y57155820D01*
X23925812Y57275518D01*
X23938072Y57400000D01*
X23935000Y57914250D01*
X23776250Y58073000D01*
X22327000Y58073000D01*
X22073000Y58073000D01*
X20623750Y58073000D01*
X20465000Y57914250D01*
X20461928Y57400000D01*
X20138072Y57400000D01*
X20135000Y57914250D01*
X19976250Y58073000D01*
X18527000Y58073000D01*
X18273000Y58073000D01*
X16823750Y58073000D01*
X16665000Y57914250D01*
X16661928Y57400000D01*
X12038072Y57400000D01*
X12038072Y57980834D01*
X12522236Y58464998D01*
X12731486Y58464998D01*
X12989405Y58516302D01*
X13232359Y58616937D01*
X13451013Y58763036D01*
X13636962Y58948985D01*
X13671048Y59000000D01*
X16661928Y59000000D01*
X16665000Y58485750D01*
X16823750Y58327000D01*
X17744589Y58327000D01*
X17883691Y58234055D01*
X18082059Y58151888D01*
X18292644Y58110000D01*
X18507356Y58110000D01*
X18717941Y58151888D01*
X18916309Y58234055D01*
X19055411Y58327000D01*
X19976250Y58327000D01*
X20135000Y58485750D01*
X20138072Y59000000D01*
X20461928Y59000000D01*
X20465000Y58485750D01*
X20623750Y58327000D01*
X21544589Y58327000D01*
X21683691Y58234055D01*
X21882059Y58151888D01*
X22092644Y58110000D01*
X22307356Y58110000D01*
X22517941Y58151888D01*
X22716309Y58234055D01*
X22855411Y58327000D01*
X23776250Y58327000D01*
X23935000Y58485750D01*
X23938072Y59000000D01*
X23935000Y59031192D01*
X23935000Y59800000D01*
X23929274Y59858402D01*
X23924164Y59916809D01*
X23923233Y59920013D01*
X23922907Y59923339D01*
X23905937Y59979548D01*
X23889588Y60035819D01*
X23888053Y60038780D01*
X23887087Y60041980D01*
X23859538Y60093793D01*
X23832556Y60145846D01*
X23830473Y60148456D01*
X23828905Y60151404D01*
X23791835Y60196857D01*
X23755238Y60242700D01*
X23750653Y60247350D01*
X23750577Y60247443D01*
X23750491Y60247514D01*
X23749013Y60249013D01*
X23349013Y60649013D01*
X23303635Y60686287D01*
X23258754Y60723947D01*
X23255832Y60725553D01*
X23253248Y60727676D01*
X23201503Y60755421D01*
X23150153Y60783651D01*
X23146971Y60784660D01*
X23144027Y60786239D01*
X23087946Y60803384D01*
X23032024Y60821124D01*
X23028703Y60821497D01*
X23025512Y60822472D01*
X22967184Y60828397D01*
X22908866Y60834938D01*
X22902338Y60834984D01*
X22902216Y60834996D01*
X22902103Y60834985D01*
X22900000Y60835000D01*
X21500000Y60835000D01*
X21441598Y60829274D01*
X21383191Y60824164D01*
X21379987Y60823233D01*
X21376661Y60822907D01*
X21320452Y60805937D01*
X21264181Y60789588D01*
X21261220Y60788053D01*
X21258020Y60787087D01*
X21206207Y60759538D01*
X21154154Y60732556D01*
X21151544Y60730473D01*
X21148596Y60728905D01*
X21103143Y60691835D01*
X21057300Y60655238D01*
X21052650Y60650653D01*
X21052557Y60650577D01*
X21052486Y60650491D01*
X21050987Y60649013D01*
X20650987Y60249013D01*
X20613713Y60203635D01*
X20576053Y60158754D01*
X20574447Y60155832D01*
X20572324Y60153248D01*
X20544579Y60101503D01*
X20516349Y60050153D01*
X20515340Y60046971D01*
X20513761Y60044027D01*
X20496616Y59987946D01*
X20478876Y59932024D01*
X20478503Y59928703D01*
X20477528Y59925512D01*
X20471603Y59867184D01*
X20465062Y59808866D01*
X20465016Y59802338D01*
X20465004Y59802216D01*
X20465015Y59802103D01*
X20465000Y59800000D01*
X20465000Y59031192D01*
X20461928Y59000000D01*
X20138072Y59000000D01*
X20135000Y59031192D01*
X20135000Y59800000D01*
X20129274Y59858402D01*
X20124164Y59916809D01*
X20123233Y59920013D01*
X20122907Y59923339D01*
X20105937Y59979548D01*
X20089588Y60035819D01*
X20088053Y60038780D01*
X20087087Y60041980D01*
X20059538Y60093793D01*
X20032556Y60145846D01*
X20030473Y60148456D01*
X20028905Y60151404D01*
X19991835Y60196857D01*
X19955238Y60242700D01*
X19950653Y60247350D01*
X19950577Y60247443D01*
X19950491Y60247514D01*
X19949013Y60249013D01*
X19549013Y60649013D01*
X19503635Y60686287D01*
X19458754Y60723947D01*
X19455832Y60725553D01*
X19453248Y60727676D01*
X19401503Y60755421D01*
X19350153Y60783651D01*
X19346971Y60784660D01*
X19344027Y60786239D01*
X19287946Y60803384D01*
X19232024Y60821124D01*
X19228703Y60821497D01*
X19225512Y60822472D01*
X19167184Y60828397D01*
X19108866Y60834938D01*
X19102338Y60834984D01*
X19102216Y60834996D01*
X19102103Y60834985D01*
X19100000Y60835000D01*
X17700000Y60835000D01*
X17641598Y60829274D01*
X17583191Y60824164D01*
X17579987Y60823233D01*
X17576661Y60822907D01*
X17520452Y60805937D01*
X17464181Y60789588D01*
X17461220Y60788053D01*
X17458020Y60787087D01*
X17406207Y60759538D01*
X17354154Y60732556D01*
X17351544Y60730473D01*
X17348596Y60728905D01*
X17303143Y60691835D01*
X17257300Y60655238D01*
X17252650Y60650653D01*
X17252557Y60650577D01*
X17252486Y60650491D01*
X17250987Y60649013D01*
X16850987Y60249013D01*
X16813713Y60203635D01*
X16776053Y60158754D01*
X16774447Y60155832D01*
X16772324Y60153248D01*
X16744579Y60101503D01*
X16716349Y60050153D01*
X16715340Y60046971D01*
X16713761Y60044027D01*
X16696616Y59987946D01*
X16678876Y59932024D01*
X16678503Y59928703D01*
X16677528Y59925512D01*
X16671603Y59867184D01*
X16665062Y59808866D01*
X16665016Y59802338D01*
X16665004Y59802216D01*
X16665015Y59802103D01*
X16665000Y59800000D01*
X16665000Y59031192D01*
X16661928Y59000000D01*
X13671048Y59000000D01*
X13783061Y59167639D01*
X13883696Y59410593D01*
X13935000Y59668512D01*
X13935000Y59931484D01*
X13883696Y60189403D01*
X13783061Y60432357D01*
X13636962Y60651011D01*
X13451013Y60836960D01*
X13232359Y60983059D01*
X12989405Y61083694D01*
X12731486Y61134998D01*
X12468514Y61134998D01*
X12210595Y61083694D01*
X11967641Y60983059D01*
X11748987Y60836960D01*
X11563038Y60651011D01*
X11416939Y60432357D01*
X11316304Y60189403D01*
X11265000Y59931484D01*
X11265000Y59722234D01*
X10880838Y59338072D01*
X9200000Y59338072D01*
X9075518Y59325812D01*
X8955820Y59289502D01*
X8845506Y59230537D01*
X8748815Y59151185D01*
X8669463Y59054494D01*
X8610498Y58944180D01*
X8574188Y58824482D01*
X8561928Y58700000D01*
X7602989Y58700000D01*
X7532441Y58796881D01*
X7626185Y58873815D01*
X7705537Y58970506D01*
X7764502Y59080820D01*
X7773657Y59111000D01*
X8056342Y59111000D01*
X8100002Y59106700D01*
X8143662Y59111000D01*
X8143669Y59111000D01*
X8274276Y59123864D01*
X8441853Y59174697D01*
X8596293Y59257247D01*
X8731661Y59368341D01*
X8759501Y59402264D01*
X8922237Y59565000D01*
X9131488Y59565000D01*
X9389407Y59616304D01*
X9632361Y59716939D01*
X9851015Y59863038D01*
X10036964Y60048987D01*
X10183063Y60267641D01*
X10283698Y60510595D01*
X10335002Y60768514D01*
X10335002Y61031486D01*
X10283698Y61289405D01*
X10262741Y61340000D01*
X35740000Y61340000D01*
X35740001Y45660000D01*
X34221421Y45660000D01*
X34230528Y45662762D01*
X34463629Y45770527D01*
X34671227Y45921697D01*
X34845344Y46110463D01*
X34979289Y46329570D01*
X35067915Y46570599D01*
X34945085Y46773000D01*
X33927000Y46773000D01*
X33927000Y46753000D01*
X33673000Y46753000D01*
X33673000Y46773000D01*
X33653000Y46773000D01*
X33653000Y47027000D01*
X33673000Y47027000D01*
X33673000Y48044224D01*
X33927000Y48044224D01*
X33927000Y47027000D01*
X34945085Y47027000D01*
X35067915Y47229401D01*
X34979289Y47470430D01*
X34845344Y47689537D01*
X34671227Y47878303D01*
X34463629Y48029473D01*
X34230528Y48137238D01*
X34129400Y48167910D01*
X33927000Y48044224D01*
X33673000Y48044224D01*
X33470600Y48167910D01*
X33369472Y48137238D01*
X33136371Y48029473D01*
X32928773Y47878303D01*
X32806681Y47745940D01*
X32689000Y47863621D01*
X32689000Y48501025D01*
X32836962Y48648987D01*
X32983061Y48867641D01*
X33083696Y49110595D01*
X33135000Y49368514D01*
X33135000Y49577765D01*
X33594163Y50036928D01*
X34900000Y50036928D01*
X35024482Y50049188D01*
X35144180Y50085498D01*
X35254494Y50144463D01*
X35351185Y50223815D01*
X35430537Y50320506D01*
X35489502Y50430820D01*
X35525812Y50550518D01*
X35538072Y50675000D01*
X35538072Y52675000D01*
X35535000Y52706192D01*
X35535000Y52975000D01*
X35529273Y53033406D01*
X35524164Y53091809D01*
X35523233Y53095013D01*
X35522907Y53098339D01*
X35505937Y53154548D01*
X35489588Y53210819D01*
X35488053Y53213780D01*
X35487087Y53216980D01*
X35459538Y53268793D01*
X35432556Y53320846D01*
X35430473Y53323456D01*
X35428905Y53326404D01*
X35391835Y53371857D01*
X35355238Y53417700D01*
X35350653Y53422350D01*
X35350577Y53422443D01*
X35350491Y53422514D01*
X35349013Y53424013D01*
X35049013Y53724013D01*
X35003635Y53761287D01*
X34958754Y53798947D01*
X34955832Y53800553D01*
X34953248Y53802676D01*
X34901503Y53830421D01*
X34850153Y53858651D01*
X34846971Y53859660D01*
X34844027Y53861239D01*
X34787946Y53878384D01*
X34732024Y53896124D01*
X34728703Y53896497D01*
X34725512Y53897472D01*
X34667184Y53903397D01*
X34608866Y53909938D01*
X34602338Y53909984D01*
X34602216Y53909996D01*
X34602103Y53909985D01*
X34600000Y53910000D01*
X33000000Y53910000D01*
X32941594Y53904273D01*
X32883191Y53899164D01*
X32879987Y53898233D01*
X32876661Y53897907D01*
X32820452Y53880937D01*
X32764181Y53864588D01*
X32761220Y53863053D01*
X32758020Y53862087D01*
X32706207Y53834538D01*
X32654154Y53807556D01*
X32651544Y53805473D01*
X32648596Y53803905D01*
X32603143Y53766835D01*
X32557300Y53730238D01*
X32552650Y53725653D01*
X32552557Y53725577D01*
X32552486Y53725491D01*
X32550987Y53724013D01*
X32250987Y53424013D01*
X32213713Y53378635D01*
X32176053Y53333754D01*
X32174447Y53330832D01*
X32172324Y53328248D01*
X32144579Y53276503D01*
X32116349Y53225153D01*
X32115340Y53221971D01*
X32113761Y53219027D01*
X32096616Y53162946D01*
X32078876Y53107024D01*
X32078503Y53103703D01*
X32077528Y53100512D01*
X32071603Y53042184D01*
X32065062Y52983866D01*
X32065016Y52977338D01*
X32065004Y52977216D01*
X32065015Y52977103D01*
X32065000Y52975000D01*
X32065000Y52706192D01*
X32061928Y52675000D01*
X32061928Y51019163D01*
X31877765Y50835000D01*
X31668514Y50835000D01*
X31410595Y50783696D01*
X31167641Y50683061D01*
X30948987Y50536962D01*
X30763038Y50351013D01*
X30616939Y50132359D01*
X30516304Y49889405D01*
X30465000Y49631486D01*
X30465000Y49368514D01*
X30516304Y49110595D01*
X30616939Y48867641D01*
X30763038Y48648987D01*
X30911000Y48501025D01*
X30911001Y47863622D01*
X30800000Y47752621D01*
X30692784Y47859837D01*
X30689000Y47898255D01*
X30689000Y47898261D01*
X30676136Y48028868D01*
X30676136Y48028870D01*
X30636083Y48160907D01*
X30625303Y48196445D01*
X30542753Y48350885D01*
X30431659Y48486253D01*
X30397742Y48514088D01*
X26814094Y52097735D01*
X26786254Y52131658D01*
X26650886Y52242752D01*
X26586194Y52277331D01*
X26536962Y52351012D01*
X26351013Y52536961D01*
X26132359Y52683060D01*
X26091463Y52700000D01*
X27461928Y52700000D01*
X27465000Y52668808D01*
X27465000Y51900000D01*
X27470727Y51841594D01*
X27475836Y51783191D01*
X27476767Y51779987D01*
X27477093Y51776661D01*
X27494063Y51720452D01*
X27510412Y51664181D01*
X27511947Y51661220D01*
X27512913Y51658020D01*
X27540462Y51606207D01*
X27567444Y51554154D01*
X27569527Y51551544D01*
X27571095Y51548596D01*
X27608165Y51503143D01*
X27644762Y51457300D01*
X27649347Y51452650D01*
X27649423Y51452557D01*
X27649509Y51452486D01*
X27650987Y51450987D01*
X28050987Y51050987D01*
X28096338Y51013735D01*
X28141246Y50976053D01*
X28144171Y50974445D01*
X28146752Y50972325D01*
X28198477Y50944590D01*
X28249847Y50916349D01*
X28253026Y50915340D01*
X28255972Y50913761D01*
X28312068Y50896611D01*
X28367976Y50878876D01*
X28371297Y50878503D01*
X28374488Y50877528D01*
X28432816Y50871603D01*
X28491134Y50865062D01*
X28497662Y50865016D01*
X28497784Y50865004D01*
X28497897Y50865015D01*
X28500000Y50865000D01*
X29900000Y50865000D01*
X29958406Y50870727D01*
X30016809Y50875836D01*
X30020013Y50876767D01*
X30023339Y50877093D01*
X30079548Y50894063D01*
X30135819Y50910412D01*
X30138780Y50911947D01*
X30141980Y50912913D01*
X30193793Y50940462D01*
X30245846Y50967444D01*
X30248456Y50969527D01*
X30251404Y50971095D01*
X30296857Y51008165D01*
X30342700Y51044762D01*
X30347350Y51049347D01*
X30347443Y51049423D01*
X30347514Y51049509D01*
X30349013Y51050987D01*
X30749013Y51450987D01*
X30786265Y51496338D01*
X30823947Y51541246D01*
X30825555Y51544171D01*
X30827675Y51546752D01*
X30855410Y51598477D01*
X30883651Y51649847D01*
X30884660Y51653026D01*
X30886239Y51655972D01*
X30903389Y51712068D01*
X30921124Y51767976D01*
X30921497Y51771297D01*
X30922472Y51774488D01*
X30928397Y51832816D01*
X30934938Y51891134D01*
X30934984Y51897662D01*
X30934996Y51897784D01*
X30934985Y51897897D01*
X30935000Y51900000D01*
X30935000Y52668808D01*
X30938072Y52700000D01*
X30935000Y53214250D01*
X30776250Y53373000D01*
X29855411Y53373000D01*
X29716309Y53465945D01*
X29517941Y53548112D01*
X29307356Y53590000D01*
X29092644Y53590000D01*
X28882059Y53548112D01*
X28683691Y53465945D01*
X28544589Y53373000D01*
X27623750Y53373000D01*
X27465000Y53214250D01*
X27461928Y52700000D01*
X26091463Y52700000D01*
X25889405Y52783695D01*
X25631486Y52834999D01*
X25368514Y52834999D01*
X25110595Y52783695D01*
X25012239Y52742955D01*
X25012239Y53893929D01*
X25160201Y54041891D01*
X25306300Y54260545D01*
X25322642Y54300000D01*
X27461928Y54300000D01*
X27465000Y53785750D01*
X27623750Y53627000D01*
X29073000Y53627000D01*
X29073000Y54776250D01*
X29327000Y54776250D01*
X29327000Y53627000D01*
X30776250Y53627000D01*
X30935000Y53785750D01*
X30938072Y54300000D01*
X30925812Y54424482D01*
X30889502Y54544180D01*
X30830537Y54654494D01*
X30751185Y54751185D01*
X30654494Y54830537D01*
X30544180Y54889502D01*
X30424482Y54925812D01*
X30300000Y54938072D01*
X29485750Y54935000D01*
X29327000Y54776250D01*
X29073000Y54776250D01*
X28914250Y54935000D01*
X28100000Y54938072D01*
X27975518Y54925812D01*
X27855820Y54889502D01*
X27745506Y54830537D01*
X27648815Y54751185D01*
X27569463Y54654494D01*
X27510498Y54544180D01*
X27474188Y54424482D01*
X27461928Y54300000D01*
X25322642Y54300000D01*
X25406935Y54503499D01*
X25458239Y54761418D01*
X25458239Y55024390D01*
X25406935Y55282309D01*
X25306300Y55525263D01*
X25160201Y55743917D01*
X24974252Y55929866D01*
X24755598Y56075965D01*
X24512644Y56176600D01*
X24254725Y56227904D01*
X23991753Y56227904D01*
X23733834Y56176600D01*
X23490880Y56075965D01*
X23272226Y55929866D01*
X23086277Y55743917D01*
X22940178Y55525263D01*
X22839543Y55282309D01*
X22788239Y55024390D01*
X22788239Y54761418D01*
X22839543Y54503499D01*
X22940178Y54260545D01*
X23086277Y54041891D01*
X23234240Y53893928D01*
X23234239Y49280577D01*
X23229939Y49236917D01*
X23234239Y49193257D01*
X23234239Y49193251D01*
X23240565Y49129024D01*
X23247103Y49062643D01*
X23269237Y48989676D01*
X23297936Y48895067D01*
X23380486Y48740627D01*
X23491580Y48605258D01*
X23525503Y48577418D01*
X25800662Y46302258D01*
X25828497Y46268341D01*
X25963865Y46157247D01*
X26118305Y46074697D01*
X26235048Y46039284D01*
X26285881Y46023864D01*
X26302481Y46022229D01*
X26416489Y46011000D01*
X26416496Y46011000D01*
X26460156Y46006700D01*
X26503816Y46011000D01*
X26526343Y46011000D01*
X26535498Y45980820D01*
X26594463Y45870506D01*
X26673815Y45773815D01*
X26770506Y45694463D01*
X26834981Y45660000D01*
X5060000Y45660000D01*
X5060000Y53675000D01*
X5186928Y53675000D01*
X5186928Y52325000D01*
X5199188Y52200518D01*
X5235498Y52080820D01*
X5294463Y51970506D01*
X5373815Y51873815D01*
X5460697Y51802513D01*
X5339093Y51620518D01*
X5240342Y51382113D01*
X5190000Y51129024D01*
X5190000Y50870976D01*
X5240342Y50617887D01*
X5339093Y50379482D01*
X5482456Y50164923D01*
X5647379Y50000000D01*
X5482456Y49835077D01*
X5339093Y49620518D01*
X5240342Y49382113D01*
X5190000Y49129024D01*
X5190000Y48870976D01*
X5240342Y48617887D01*
X5339093Y48379482D01*
X5482456Y48164923D01*
X5647379Y48000000D01*
X5482456Y47835077D01*
X5339093Y47620518D01*
X5240342Y47382113D01*
X5190000Y47129024D01*
X5190000Y46870976D01*
X5240342Y46617887D01*
X5339093Y46379482D01*
X5482456Y46164923D01*
X5664923Y45982456D01*
X5879482Y45839093D01*
X6117887Y45740342D01*
X6370976Y45690000D01*
X6629024Y45690000D01*
X6882113Y45740342D01*
X7120518Y45839093D01*
X7335077Y45982456D01*
X7463621Y46111000D01*
X10701025Y46111000D01*
X10848987Y45963038D01*
X11067641Y45816939D01*
X11310595Y45716304D01*
X11568514Y45665000D01*
X11831486Y45665000D01*
X12089405Y45716304D01*
X12332359Y45816939D01*
X12551013Y45963038D01*
X12736962Y46148987D01*
X12883061Y46367641D01*
X12983696Y46610595D01*
X13035000Y46868514D01*
X13035000Y47131486D01*
X12983696Y47389405D01*
X12883061Y47632359D01*
X12736962Y47851013D01*
X12587975Y48000000D01*
X12736962Y48148987D01*
X12883061Y48367641D01*
X12983696Y48610595D01*
X13035000Y48868514D01*
X13035000Y49131486D01*
X12983696Y49389405D01*
X12883061Y49632359D01*
X12736962Y49851013D01*
X12587975Y50000000D01*
X12736962Y50148987D01*
X12883061Y50367641D01*
X12983696Y50610595D01*
X13035000Y50868514D01*
X13035000Y51131486D01*
X12983696Y51389405D01*
X12883061Y51632359D01*
X12736962Y51851013D01*
X12587976Y51999999D01*
X12736963Y52148987D01*
X12883062Y52367641D01*
X12983697Y52610595D01*
X13035001Y52868514D01*
X13035001Y53131486D01*
X12983697Y53389405D01*
X12883062Y53632359D01*
X12736963Y53851013D01*
X12551014Y54036962D01*
X12332360Y54183061D01*
X12089406Y54283696D01*
X11831487Y54335000D01*
X11568515Y54335000D01*
X11310596Y54283696D01*
X11067642Y54183061D01*
X10848988Y54036962D01*
X10701026Y53889000D01*
X7773657Y53889000D01*
X7764502Y53919180D01*
X7705537Y54029494D01*
X7626185Y54126185D01*
X7529494Y54205537D01*
X7419180Y54264502D01*
X7299482Y54300812D01*
X7175000Y54313072D01*
X5825000Y54313072D01*
X5700518Y54300812D01*
X5580820Y54264502D01*
X5470506Y54205537D01*
X5373815Y54126185D01*
X5294463Y54029494D01*
X5235498Y53919180D01*
X5199188Y53799482D01*
X5186928Y53675000D01*
X5060000Y53675000D01*
X5060000Y57670600D01*
X5232090Y57670600D01*
X5262762Y57569472D01*
X5370527Y57336371D01*
X5521697Y57128773D01*
X5710463Y56954656D01*
X5929570Y56820711D01*
X6170599Y56732085D01*
X6373000Y56854915D01*
X6373000Y57873000D01*
X6627000Y57873000D01*
X6627000Y56854915D01*
X6829401Y56732085D01*
X7070430Y56820711D01*
X7289537Y56954656D01*
X7478303Y57128773D01*
X7629473Y57336371D01*
X7737238Y57569472D01*
X7767910Y57670600D01*
X7644224Y57873000D01*
X6627000Y57873000D01*
X6373000Y57873000D01*
X5355776Y57873000D01*
X5232090Y57670600D01*
X5060000Y57670600D01*
X5060000Y61340000D01*
X7737263Y61340000D01*
X7716306Y61289405D01*
G37*
X7716306Y61289405D02*
X7672591Y61069639D01*
X7626185Y61126185D01*
X7529494Y61205537D01*
X7419180Y61264502D01*
X7299482Y61300812D01*
X7175000Y61313072D01*
X5825000Y61313072D01*
X5700518Y61300812D01*
X5580820Y61264502D01*
X5470506Y61205537D01*
X5373815Y61126185D01*
X5294463Y61029494D01*
X5235498Y60919180D01*
X5199188Y60799482D01*
X5186928Y60675000D01*
X5186928Y59325000D01*
X5199188Y59200518D01*
X5235498Y59080820D01*
X5294463Y58970506D01*
X5373815Y58873815D01*
X5467559Y58796881D01*
X5370527Y58663629D01*
X5262762Y58430528D01*
X5232090Y58329400D01*
X5355776Y58127000D01*
X6373000Y58127000D01*
X6373000Y58147000D01*
X6627000Y58147000D01*
X6627000Y58127000D01*
X7644224Y58127000D01*
X7767910Y58329400D01*
X7737238Y58430528D01*
X7629473Y58663629D01*
X7602989Y58700000D01*
X8561928Y58700000D01*
X8561928Y56700000D01*
X8565000Y56668808D01*
X8565000Y56400000D01*
X8570727Y56341594D01*
X8575836Y56283191D01*
X8576767Y56279987D01*
X8577093Y56276661D01*
X8594063Y56220452D01*
X8610412Y56164181D01*
X8611947Y56161220D01*
X8612913Y56158020D01*
X8640462Y56106207D01*
X8667444Y56054154D01*
X8669527Y56051544D01*
X8671095Y56048596D01*
X8708165Y56003143D01*
X8744762Y55957300D01*
X8749347Y55952650D01*
X8749423Y55952557D01*
X8749509Y55952486D01*
X8750987Y55950987D01*
X9050987Y55650987D01*
X9096365Y55613713D01*
X9141246Y55576053D01*
X9144168Y55574447D01*
X9146752Y55572324D01*
X9198516Y55544569D01*
X9249847Y55516349D01*
X9253026Y55515340D01*
X9255972Y55513761D01*
X9312068Y55496611D01*
X9367976Y55478876D01*
X9371297Y55478503D01*
X9374488Y55477528D01*
X9432816Y55471603D01*
X9491134Y55465062D01*
X9497662Y55465016D01*
X9497784Y55465004D01*
X9497897Y55465015D01*
X9500000Y55465000D01*
X11100000Y55465000D01*
X11158406Y55470727D01*
X11216809Y55475836D01*
X11220013Y55476767D01*
X11223339Y55477093D01*
X11279548Y55494063D01*
X11335819Y55510412D01*
X11338780Y55511947D01*
X11341980Y55512913D01*
X11393793Y55540462D01*
X11445846Y55567444D01*
X11448456Y55569527D01*
X11451404Y55571095D01*
X11496857Y55608165D01*
X11542700Y55644762D01*
X11547350Y55649347D01*
X11547443Y55649423D01*
X11547514Y55649509D01*
X11549013Y55650987D01*
X11849013Y55950987D01*
X11886287Y55996365D01*
X11923947Y56041246D01*
X11925553Y56044168D01*
X11927676Y56046752D01*
X11955431Y56098516D01*
X11983651Y56149847D01*
X11984660Y56153026D01*
X11986239Y56155972D01*
X12003389Y56212068D01*
X12021124Y56267976D01*
X12021497Y56271297D01*
X12022472Y56274488D01*
X12028397Y56332816D01*
X12034938Y56391134D01*
X12034984Y56397662D01*
X12034996Y56397784D01*
X12034985Y56397897D01*
X12035000Y56400000D01*
X12035000Y56668808D01*
X12038072Y56700000D01*
X12038072Y57400000D01*
X16661928Y57400000D01*
X16674188Y57275518D01*
X16710498Y57155820D01*
X16769463Y57045506D01*
X16848815Y56948815D01*
X16945506Y56869463D01*
X17055820Y56810498D01*
X17175518Y56774188D01*
X17300000Y56761928D01*
X18114250Y56765000D01*
X18273000Y56923750D01*
X18273000Y58073000D01*
X18527000Y58073000D01*
X18527000Y56923750D01*
X18685750Y56765000D01*
X19500000Y56761928D01*
X19624482Y56774188D01*
X19744180Y56810498D01*
X19854494Y56869463D01*
X19951185Y56948815D01*
X20030537Y57045506D01*
X20089502Y57155820D01*
X20125812Y57275518D01*
X20138072Y57400000D01*
X20461928Y57400000D01*
X20474188Y57275518D01*
X20510498Y57155820D01*
X20569463Y57045506D01*
X20648815Y56948815D01*
X20745506Y56869463D01*
X20855820Y56810498D01*
X20975518Y56774188D01*
X21100000Y56761928D01*
X21914250Y56765000D01*
X22073000Y56923750D01*
X22073000Y58073000D01*
X22327000Y58073000D01*
X22327000Y56923750D01*
X22485750Y56765000D01*
X23300000Y56761928D01*
X23424482Y56774188D01*
X23544180Y56810498D01*
X23654494Y56869463D01*
X23751185Y56948815D01*
X23830537Y57045506D01*
X23889502Y57155820D01*
X23925812Y57275518D01*
X23938072Y57400000D01*
X23935000Y57914250D01*
X23776250Y58073000D01*
X22327000Y58073000D01*
X22073000Y58073000D01*
X20623750Y58073000D01*
X20465000Y57914250D01*
X20461928Y57400000D01*
X20138072Y57400000D01*
X20135000Y57914250D01*
X19976250Y58073000D01*
X18527000Y58073000D01*
X18273000Y58073000D01*
X16823750Y58073000D01*
X16665000Y57914250D01*
X16661928Y57400000D01*
X12038072Y57400000D01*
X12038072Y57980834D01*
X12522236Y58464998D01*
X12731486Y58464998D01*
X12989405Y58516302D01*
X13232359Y58616937D01*
X13451013Y58763036D01*
X13636962Y58948985D01*
X13671048Y59000000D01*
X16661928Y59000000D01*
X16665000Y58485750D01*
X16823750Y58327000D01*
X17744589Y58327000D01*
X17883691Y58234055D01*
X18082059Y58151888D01*
X18292644Y58110000D01*
X18507356Y58110000D01*
X18717941Y58151888D01*
X18916309Y58234055D01*
X19055411Y58327000D01*
X19976250Y58327000D01*
X20135000Y58485750D01*
X20138072Y59000000D01*
X20461928Y59000000D01*
X20465000Y58485750D01*
X20623750Y58327000D01*
X21544589Y58327000D01*
X21683691Y58234055D01*
X21882059Y58151888D01*
X22092644Y58110000D01*
X22307356Y58110000D01*
X22517941Y58151888D01*
X22716309Y58234055D01*
X22855411Y58327000D01*
X23776250Y58327000D01*
X23935000Y58485750D01*
X23938072Y59000000D01*
X23935000Y59031192D01*
X23935000Y59800000D01*
X23929274Y59858402D01*
X23924164Y59916809D01*
X23923233Y59920013D01*
X23922907Y59923339D01*
X23905937Y59979548D01*
X23889588Y60035819D01*
X23888053Y60038780D01*
X23887087Y60041980D01*
X23859538Y60093793D01*
X23832556Y60145846D01*
X23830473Y60148456D01*
X23828905Y60151404D01*
X23791835Y60196857D01*
X23755238Y60242700D01*
X23750653Y60247350D01*
X23750577Y60247443D01*
X23750491Y60247514D01*
X23749013Y60249013D01*
X23349013Y60649013D01*
X23303635Y60686287D01*
X23258754Y60723947D01*
X23255832Y60725553D01*
X23253248Y60727676D01*
X23201503Y60755421D01*
X23150153Y60783651D01*
X23146971Y60784660D01*
X23144027Y60786239D01*
X23087946Y60803384D01*
X23032024Y60821124D01*
X23028703Y60821497D01*
X23025512Y60822472D01*
X22967184Y60828397D01*
X22908866Y60834938D01*
X22902338Y60834984D01*
X22902216Y60834996D01*
X22902103Y60834985D01*
X22900000Y60835000D01*
X21500000Y60835000D01*
X21441598Y60829274D01*
X21383191Y60824164D01*
X21379987Y60823233D01*
X21376661Y60822907D01*
X21320452Y60805937D01*
X21264181Y60789588D01*
X21261220Y60788053D01*
X21258020Y60787087D01*
X21206207Y60759538D01*
X21154154Y60732556D01*
X21151544Y60730473D01*
X21148596Y60728905D01*
X21103143Y60691835D01*
X21057300Y60655238D01*
X21052650Y60650653D01*
X21052557Y60650577D01*
X21052486Y60650491D01*
X21050987Y60649013D01*
X20650987Y60249013D01*
X20613713Y60203635D01*
X20576053Y60158754D01*
X20574447Y60155832D01*
X20572324Y60153248D01*
X20544579Y60101503D01*
X20516349Y60050153D01*
X20515340Y60046971D01*
X20513761Y60044027D01*
X20496616Y59987946D01*
X20478876Y59932024D01*
X20478503Y59928703D01*
X20477528Y59925512D01*
X20471603Y59867184D01*
X20465062Y59808866D01*
X20465016Y59802338D01*
X20465004Y59802216D01*
X20465015Y59802103D01*
X20465000Y59800000D01*
X20465000Y59031192D01*
X20461928Y59000000D01*
X20138072Y59000000D01*
X20135000Y59031192D01*
X20135000Y59800000D01*
X20129274Y59858402D01*
X20124164Y59916809D01*
X20123233Y59920013D01*
X20122907Y59923339D01*
X20105937Y59979548D01*
X20089588Y60035819D01*
X20088053Y60038780D01*
X20087087Y60041980D01*
X20059538Y60093793D01*
X20032556Y60145846D01*
X20030473Y60148456D01*
X20028905Y60151404D01*
X19991835Y60196857D01*
X19955238Y60242700D01*
X19950653Y60247350D01*
X19950577Y60247443D01*
X19950491Y60247514D01*
X19949013Y60249013D01*
X19549013Y60649013D01*
X19503635Y60686287D01*
X19458754Y60723947D01*
X19455832Y60725553D01*
X19453248Y60727676D01*
X19401503Y60755421D01*
X19350153Y60783651D01*
X19346971Y60784660D01*
X19344027Y60786239D01*
X19287946Y60803384D01*
X19232024Y60821124D01*
X19228703Y60821497D01*
X19225512Y60822472D01*
X19167184Y60828397D01*
X19108866Y60834938D01*
X19102338Y60834984D01*
X19102216Y60834996D01*
X19102103Y60834985D01*
X19100000Y60835000D01*
X17700000Y60835000D01*
X17641598Y60829274D01*
X17583191Y60824164D01*
X17579987Y60823233D01*
X17576661Y60822907D01*
X17520452Y60805937D01*
X17464181Y60789588D01*
X17461220Y60788053D01*
X17458020Y60787087D01*
X17406207Y60759538D01*
X17354154Y60732556D01*
X17351544Y60730473D01*
X17348596Y60728905D01*
X17303143Y60691835D01*
X17257300Y60655238D01*
X17252650Y60650653D01*
X17252557Y60650577D01*
X17252486Y60650491D01*
X17250987Y60649013D01*
X16850987Y60249013D01*
X16813713Y60203635D01*
X16776053Y60158754D01*
X16774447Y60155832D01*
X16772324Y60153248D01*
X16744579Y60101503D01*
X16716349Y60050153D01*
X16715340Y60046971D01*
X16713761Y60044027D01*
X16696616Y59987946D01*
X16678876Y59932024D01*
X16678503Y59928703D01*
X16677528Y59925512D01*
X16671603Y59867184D01*
X16665062Y59808866D01*
X16665016Y59802338D01*
X16665004Y59802216D01*
X16665015Y59802103D01*
X16665000Y59800000D01*
X16665000Y59031192D01*
X16661928Y59000000D01*
X13671048Y59000000D01*
X13783061Y59167639D01*
X13883696Y59410593D01*
X13935000Y59668512D01*
X13935000Y59931484D01*
X13883696Y60189403D01*
X13783061Y60432357D01*
X13636962Y60651011D01*
X13451013Y60836960D01*
X13232359Y60983059D01*
X12989405Y61083694D01*
X12731486Y61134998D01*
X12468514Y61134998D01*
X12210595Y61083694D01*
X11967641Y60983059D01*
X11748987Y60836960D01*
X11563038Y60651011D01*
X11416939Y60432357D01*
X11316304Y60189403D01*
X11265000Y59931484D01*
X11265000Y59722234D01*
X10880838Y59338072D01*
X9200000Y59338072D01*
X9075518Y59325812D01*
X8955820Y59289502D01*
X8845506Y59230537D01*
X8748815Y59151185D01*
X8669463Y59054494D01*
X8610498Y58944180D01*
X8574188Y58824482D01*
X8561928Y58700000D01*
X7602989Y58700000D01*
X7532441Y58796881D01*
X7626185Y58873815D01*
X7705537Y58970506D01*
X7764502Y59080820D01*
X7773657Y59111000D01*
X8056342Y59111000D01*
X8100002Y59106700D01*
X8143662Y59111000D01*
X8143669Y59111000D01*
X8274276Y59123864D01*
X8441853Y59174697D01*
X8596293Y59257247D01*
X8731661Y59368341D01*
X8759501Y59402264D01*
X8922237Y59565000D01*
X9131488Y59565000D01*
X9389407Y59616304D01*
X9632361Y59716939D01*
X9851015Y59863038D01*
X10036964Y60048987D01*
X10183063Y60267641D01*
X10283698Y60510595D01*
X10335002Y60768514D01*
X10335002Y61031486D01*
X10283698Y61289405D01*
X10262741Y61340000D01*
X35740000Y61340000D01*
X35740001Y45660000D01*
X34221421Y45660000D01*
X34230528Y45662762D01*
X34463629Y45770527D01*
X34671227Y45921697D01*
X34845344Y46110463D01*
X34979289Y46329570D01*
X35067915Y46570599D01*
X34945085Y46773000D01*
X33927000Y46773000D01*
X33927000Y46753000D01*
X33673000Y46753000D01*
X33673000Y46773000D01*
X33653000Y46773000D01*
X33653000Y47027000D01*
X33673000Y47027000D01*
X33673000Y48044224D01*
X33927000Y48044224D01*
X33927000Y47027000D01*
X34945085Y47027000D01*
X35067915Y47229401D01*
X34979289Y47470430D01*
X34845344Y47689537D01*
X34671227Y47878303D01*
X34463629Y48029473D01*
X34230528Y48137238D01*
X34129400Y48167910D01*
X33927000Y48044224D01*
X33673000Y48044224D01*
X33470600Y48167910D01*
X33369472Y48137238D01*
X33136371Y48029473D01*
X32928773Y47878303D01*
X32806681Y47745940D01*
X32689000Y47863621D01*
X32689000Y48501025D01*
X32836962Y48648987D01*
X32983061Y48867641D01*
X33083696Y49110595D01*
X33135000Y49368514D01*
X33135000Y49577765D01*
X33594163Y50036928D01*
X34900000Y50036928D01*
X35024482Y50049188D01*
X35144180Y50085498D01*
X35254494Y50144463D01*
X35351185Y50223815D01*
X35430537Y50320506D01*
X35489502Y50430820D01*
X35525812Y50550518D01*
X35538072Y50675000D01*
X35538072Y52675000D01*
X35535000Y52706192D01*
X35535000Y52975000D01*
X35529273Y53033406D01*
X35524164Y53091809D01*
X35523233Y53095013D01*
X35522907Y53098339D01*
X35505937Y53154548D01*
X35489588Y53210819D01*
X35488053Y53213780D01*
X35487087Y53216980D01*
X35459538Y53268793D01*
X35432556Y53320846D01*
X35430473Y53323456D01*
X35428905Y53326404D01*
X35391835Y53371857D01*
X35355238Y53417700D01*
X35350653Y53422350D01*
X35350577Y53422443D01*
X35350491Y53422514D01*
X35349013Y53424013D01*
X35049013Y53724013D01*
X35003635Y53761287D01*
X34958754Y53798947D01*
X34955832Y53800553D01*
X34953248Y53802676D01*
X34901503Y53830421D01*
X34850153Y53858651D01*
X34846971Y53859660D01*
X34844027Y53861239D01*
X34787946Y53878384D01*
X34732024Y53896124D01*
X34728703Y53896497D01*
X34725512Y53897472D01*
X34667184Y53903397D01*
X34608866Y53909938D01*
X34602338Y53909984D01*
X34602216Y53909996D01*
X34602103Y53909985D01*
X34600000Y53910000D01*
X33000000Y53910000D01*
X32941594Y53904273D01*
X32883191Y53899164D01*
X32879987Y53898233D01*
X32876661Y53897907D01*
X32820452Y53880937D01*
X32764181Y53864588D01*
X32761220Y53863053D01*
X32758020Y53862087D01*
X32706207Y53834538D01*
X32654154Y53807556D01*
X32651544Y53805473D01*
X32648596Y53803905D01*
X32603143Y53766835D01*
X32557300Y53730238D01*
X32552650Y53725653D01*
X32552557Y53725577D01*
X32552486Y53725491D01*
X32550987Y53724013D01*
X32250987Y53424013D01*
X32213713Y53378635D01*
X32176053Y53333754D01*
X32174447Y53330832D01*
X32172324Y53328248D01*
X32144579Y53276503D01*
X32116349Y53225153D01*
X32115340Y53221971D01*
X32113761Y53219027D01*
X32096616Y53162946D01*
X32078876Y53107024D01*
X32078503Y53103703D01*
X32077528Y53100512D01*
X32071603Y53042184D01*
X32065062Y52983866D01*
X32065016Y52977338D01*
X32065004Y52977216D01*
X32065015Y52977103D01*
X32065000Y52975000D01*
X32065000Y52706192D01*
X32061928Y52675000D01*
X32061928Y51019163D01*
X31877765Y50835000D01*
X31668514Y50835000D01*
X31410595Y50783696D01*
X31167641Y50683061D01*
X30948987Y50536962D01*
X30763038Y50351013D01*
X30616939Y50132359D01*
X30516304Y49889405D01*
X30465000Y49631486D01*
X30465000Y49368514D01*
X30516304Y49110595D01*
X30616939Y48867641D01*
X30763038Y48648987D01*
X30911000Y48501025D01*
X30911001Y47863622D01*
X30800000Y47752621D01*
X30692784Y47859837D01*
X30689000Y47898255D01*
X30689000Y47898261D01*
X30676136Y48028868D01*
X30676136Y48028870D01*
X30636083Y48160907D01*
X30625303Y48196445D01*
X30542753Y48350885D01*
X30431659Y48486253D01*
X30397742Y48514088D01*
X26814094Y52097735D01*
X26786254Y52131658D01*
X26650886Y52242752D01*
X26586194Y52277331D01*
X26536962Y52351012D01*
X26351013Y52536961D01*
X26132359Y52683060D01*
X26091463Y52700000D01*
X27461928Y52700000D01*
X27465000Y52668808D01*
X27465000Y51900000D01*
X27470727Y51841594D01*
X27475836Y51783191D01*
X27476767Y51779987D01*
X27477093Y51776661D01*
X27494063Y51720452D01*
X27510412Y51664181D01*
X27511947Y51661220D01*
X27512913Y51658020D01*
X27540462Y51606207D01*
X27567444Y51554154D01*
X27569527Y51551544D01*
X27571095Y51548596D01*
X27608165Y51503143D01*
X27644762Y51457300D01*
X27649347Y51452650D01*
X27649423Y51452557D01*
X27649509Y51452486D01*
X27650987Y51450987D01*
X28050987Y51050987D01*
X28096338Y51013735D01*
X28141246Y50976053D01*
X28144171Y50974445D01*
X28146752Y50972325D01*
X28198477Y50944590D01*
X28249847Y50916349D01*
X28253026Y50915340D01*
X28255972Y50913761D01*
X28312068Y50896611D01*
X28367976Y50878876D01*
X28371297Y50878503D01*
X28374488Y50877528D01*
X28432816Y50871603D01*
X28491134Y50865062D01*
X28497662Y50865016D01*
X28497784Y50865004D01*
X28497897Y50865015D01*
X28500000Y50865000D01*
X29900000Y50865000D01*
X29958406Y50870727D01*
X30016809Y50875836D01*
X30020013Y50876767D01*
X30023339Y50877093D01*
X30079548Y50894063D01*
X30135819Y50910412D01*
X30138780Y50911947D01*
X30141980Y50912913D01*
X30193793Y50940462D01*
X30245846Y50967444D01*
X30248456Y50969527D01*
X30251404Y50971095D01*
X30296857Y51008165D01*
X30342700Y51044762D01*
X30347350Y51049347D01*
X30347443Y51049423D01*
X30347514Y51049509D01*
X30349013Y51050987D01*
X30749013Y51450987D01*
X30786265Y51496338D01*
X30823947Y51541246D01*
X30825555Y51544171D01*
X30827675Y51546752D01*
X30855410Y51598477D01*
X30883651Y51649847D01*
X30884660Y51653026D01*
X30886239Y51655972D01*
X30903389Y51712068D01*
X30921124Y51767976D01*
X30921497Y51771297D01*
X30922472Y51774488D01*
X30928397Y51832816D01*
X30934938Y51891134D01*
X30934984Y51897662D01*
X30934996Y51897784D01*
X30934985Y51897897D01*
X30935000Y51900000D01*
X30935000Y52668808D01*
X30938072Y52700000D01*
X30935000Y53214250D01*
X30776250Y53373000D01*
X29855411Y53373000D01*
X29716309Y53465945D01*
X29517941Y53548112D01*
X29307356Y53590000D01*
X29092644Y53590000D01*
X28882059Y53548112D01*
X28683691Y53465945D01*
X28544589Y53373000D01*
X27623750Y53373000D01*
X27465000Y53214250D01*
X27461928Y52700000D01*
X26091463Y52700000D01*
X25889405Y52783695D01*
X25631486Y52834999D01*
X25368514Y52834999D01*
X25110595Y52783695D01*
X25012239Y52742955D01*
X25012239Y53893929D01*
X25160201Y54041891D01*
X25306300Y54260545D01*
X25322642Y54300000D01*
X27461928Y54300000D01*
X27465000Y53785750D01*
X27623750Y53627000D01*
X29073000Y53627000D01*
X29073000Y54776250D01*
X29327000Y54776250D01*
X29327000Y53627000D01*
X30776250Y53627000D01*
X30935000Y53785750D01*
X30938072Y54300000D01*
X30925812Y54424482D01*
X30889502Y54544180D01*
X30830537Y54654494D01*
X30751185Y54751185D01*
X30654494Y54830537D01*
X30544180Y54889502D01*
X30424482Y54925812D01*
X30300000Y54938072D01*
X29485750Y54935000D01*
X29327000Y54776250D01*
X29073000Y54776250D01*
X28914250Y54935000D01*
X28100000Y54938072D01*
X27975518Y54925812D01*
X27855820Y54889502D01*
X27745506Y54830537D01*
X27648815Y54751185D01*
X27569463Y54654494D01*
X27510498Y54544180D01*
X27474188Y54424482D01*
X27461928Y54300000D01*
X25322642Y54300000D01*
X25406935Y54503499D01*
X25458239Y54761418D01*
X25458239Y55024390D01*
X25406935Y55282309D01*
X25306300Y55525263D01*
X25160201Y55743917D01*
X24974252Y55929866D01*
X24755598Y56075965D01*
X24512644Y56176600D01*
X24254725Y56227904D01*
X23991753Y56227904D01*
X23733834Y56176600D01*
X23490880Y56075965D01*
X23272226Y55929866D01*
X23086277Y55743917D01*
X22940178Y55525263D01*
X22839543Y55282309D01*
X22788239Y55024390D01*
X22788239Y54761418D01*
X22839543Y54503499D01*
X22940178Y54260545D01*
X23086277Y54041891D01*
X23234240Y53893928D01*
X23234239Y49280577D01*
X23229939Y49236917D01*
X23234239Y49193257D01*
X23234239Y49193251D01*
X23240565Y49129024D01*
X23247103Y49062643D01*
X23269237Y48989676D01*
X23297936Y48895067D01*
X23380486Y48740627D01*
X23491580Y48605258D01*
X23525503Y48577418D01*
X25800662Y46302258D01*
X25828497Y46268341D01*
X25963865Y46157247D01*
X26118305Y46074697D01*
X26235048Y46039284D01*
X26285881Y46023864D01*
X26302481Y46022229D01*
X26416489Y46011000D01*
X26416496Y46011000D01*
X26460156Y46006700D01*
X26503816Y46011000D01*
X26526343Y46011000D01*
X26535498Y45980820D01*
X26594463Y45870506D01*
X26673815Y45773815D01*
X26770506Y45694463D01*
X26834981Y45660000D01*
X5060000Y45660000D01*
X5060000Y53675000D01*
X5186928Y53675000D01*
X5186928Y52325000D01*
X5199188Y52200518D01*
X5235498Y52080820D01*
X5294463Y51970506D01*
X5373815Y51873815D01*
X5460697Y51802513D01*
X5339093Y51620518D01*
X5240342Y51382113D01*
X5190000Y51129024D01*
X5190000Y50870976D01*
X5240342Y50617887D01*
X5339093Y50379482D01*
X5482456Y50164923D01*
X5647379Y50000000D01*
X5482456Y49835077D01*
X5339093Y49620518D01*
X5240342Y49382113D01*
X5190000Y49129024D01*
X5190000Y48870976D01*
X5240342Y48617887D01*
X5339093Y48379482D01*
X5482456Y48164923D01*
X5647379Y48000000D01*
X5482456Y47835077D01*
X5339093Y47620518D01*
X5240342Y47382113D01*
X5190000Y47129024D01*
X5190000Y46870976D01*
X5240342Y46617887D01*
X5339093Y46379482D01*
X5482456Y46164923D01*
X5664923Y45982456D01*
X5879482Y45839093D01*
X6117887Y45740342D01*
X6370976Y45690000D01*
X6629024Y45690000D01*
X6882113Y45740342D01*
X7120518Y45839093D01*
X7335077Y45982456D01*
X7463621Y46111000D01*
X10701025Y46111000D01*
X10848987Y45963038D01*
X11067641Y45816939D01*
X11310595Y45716304D01*
X11568514Y45665000D01*
X11831486Y45665000D01*
X12089405Y45716304D01*
X12332359Y45816939D01*
X12551013Y45963038D01*
X12736962Y46148987D01*
X12883061Y46367641D01*
X12983696Y46610595D01*
X13035000Y46868514D01*
X13035000Y47131486D01*
X12983696Y47389405D01*
X12883061Y47632359D01*
X12736962Y47851013D01*
X12587975Y48000000D01*
X12736962Y48148987D01*
X12883061Y48367641D01*
X12983696Y48610595D01*
X13035000Y48868514D01*
X13035000Y49131486D01*
X12983696Y49389405D01*
X12883061Y49632359D01*
X12736962Y49851013D01*
X12587975Y50000000D01*
X12736962Y50148987D01*
X12883061Y50367641D01*
X12983696Y50610595D01*
X13035000Y50868514D01*
X13035000Y51131486D01*
X12983696Y51389405D01*
X12883061Y51632359D01*
X12736962Y51851013D01*
X12587976Y51999999D01*
X12736963Y52148987D01*
X12883062Y52367641D01*
X12983697Y52610595D01*
X13035001Y52868514D01*
X13035001Y53131486D01*
X12983697Y53389405D01*
X12883062Y53632359D01*
X12736963Y53851013D01*
X12551014Y54036962D01*
X12332360Y54183061D01*
X12089406Y54283696D01*
X11831487Y54335000D01*
X11568515Y54335000D01*
X11310596Y54283696D01*
X11067642Y54183061D01*
X10848988Y54036962D01*
X10701026Y53889000D01*
X7773657Y53889000D01*
X7764502Y53919180D01*
X7705537Y54029494D01*
X7626185Y54126185D01*
X7529494Y54205537D01*
X7419180Y54264502D01*
X7299482Y54300812D01*
X7175000Y54313072D01*
X5825000Y54313072D01*
X5700518Y54300812D01*
X5580820Y54264502D01*
X5470506Y54205537D01*
X5373815Y54126185D01*
X5294463Y54029494D01*
X5235498Y53919180D01*
X5199188Y53799482D01*
X5186928Y53675000D01*
X5060000Y53675000D01*
X5060000Y57670600D01*
X5232090Y57670600D01*
X5262762Y57569472D01*
X5370527Y57336371D01*
X5521697Y57128773D01*
X5710463Y56954656D01*
X5929570Y56820711D01*
X6170599Y56732085D01*
X6373000Y56854915D01*
X6373000Y57873000D01*
X6627000Y57873000D01*
X6627000Y56854915D01*
X6829401Y56732085D01*
X7070430Y56820711D01*
X7289537Y56954656D01*
X7478303Y57128773D01*
X7629473Y57336371D01*
X7737238Y57569472D01*
X7767910Y57670600D01*
X7644224Y57873000D01*
X6627000Y57873000D01*
X6373000Y57873000D01*
X5355776Y57873000D01*
X5232090Y57670600D01*
X5060000Y57670600D01*
X5060000Y61340000D01*
X7737263Y61340000D01*
X7716306Y61289405D01*
G36*
X7716306Y20489405D02*
G01*
X7672591Y20269639D01*
X7626185Y20326185D01*
X7529494Y20405537D01*
X7419180Y20464502D01*
X7299482Y20500812D01*
X7175000Y20513072D01*
X5825000Y20513072D01*
X5700518Y20500812D01*
X5580820Y20464502D01*
X5470506Y20405537D01*
X5373815Y20326185D01*
X5294463Y20229494D01*
X5235498Y20119180D01*
X5199188Y19999482D01*
X5186928Y19875000D01*
X5186928Y18525000D01*
X5199188Y18400518D01*
X5235498Y18280820D01*
X5294463Y18170506D01*
X5373815Y18073815D01*
X5467559Y17996881D01*
X5370527Y17863629D01*
X5262762Y17630528D01*
X5232090Y17529400D01*
X5355776Y17327000D01*
X6373000Y17327000D01*
X6373000Y17347000D01*
X6627000Y17347000D01*
X6627000Y17327000D01*
X7644224Y17327000D01*
X7767910Y17529400D01*
X7737238Y17630528D01*
X7629473Y17863629D01*
X7602989Y17900000D01*
X8561928Y17900000D01*
X8561928Y15900000D01*
X8565000Y15868808D01*
X8565000Y15600000D01*
X8570727Y15541594D01*
X8575836Y15483191D01*
X8576767Y15479987D01*
X8577093Y15476661D01*
X8594063Y15420452D01*
X8610412Y15364181D01*
X8611947Y15361220D01*
X8612913Y15358020D01*
X8640462Y15306207D01*
X8667444Y15254154D01*
X8669527Y15251544D01*
X8671095Y15248596D01*
X8708165Y15203143D01*
X8744762Y15157300D01*
X8749347Y15152650D01*
X8749423Y15152557D01*
X8749509Y15152486D01*
X8750987Y15150987D01*
X9050987Y14850987D01*
X9096365Y14813713D01*
X9141246Y14776053D01*
X9144168Y14774447D01*
X9146752Y14772324D01*
X9198516Y14744569D01*
X9249847Y14716349D01*
X9253026Y14715340D01*
X9255972Y14713761D01*
X9312068Y14696611D01*
X9367976Y14678876D01*
X9371297Y14678503D01*
X9374488Y14677528D01*
X9432816Y14671603D01*
X9491134Y14665062D01*
X9497662Y14665016D01*
X9497784Y14665004D01*
X9497897Y14665015D01*
X9500000Y14665000D01*
X11100000Y14665000D01*
X11158406Y14670727D01*
X11216809Y14675836D01*
X11220013Y14676767D01*
X11223339Y14677093D01*
X11279548Y14694063D01*
X11335819Y14710412D01*
X11338780Y14711947D01*
X11341980Y14712913D01*
X11393793Y14740462D01*
X11445846Y14767444D01*
X11448456Y14769527D01*
X11451404Y14771095D01*
X11496857Y14808165D01*
X11542700Y14844762D01*
X11547350Y14849347D01*
X11547443Y14849423D01*
X11547514Y14849509D01*
X11549013Y14850987D01*
X11849013Y15150987D01*
X11886287Y15196365D01*
X11923947Y15241246D01*
X11925553Y15244168D01*
X11927676Y15246752D01*
X11955431Y15298516D01*
X11983651Y15349847D01*
X11984660Y15353026D01*
X11986239Y15355972D01*
X12003389Y15412068D01*
X12021124Y15467976D01*
X12021497Y15471297D01*
X12022472Y15474488D01*
X12028397Y15532816D01*
X12034938Y15591134D01*
X12034984Y15597662D01*
X12034996Y15597784D01*
X12034985Y15597897D01*
X12035000Y15600000D01*
X12035000Y15868808D01*
X12038072Y15900000D01*
X12038072Y16600000D01*
X16661928Y16600000D01*
X16674188Y16475518D01*
X16710498Y16355820D01*
X16769463Y16245506D01*
X16848815Y16148815D01*
X16945506Y16069463D01*
X17055820Y16010498D01*
X17175518Y15974188D01*
X17300000Y15961928D01*
X18114250Y15965000D01*
X18273000Y16123750D01*
X18273000Y17273000D01*
X18527000Y17273000D01*
X18527000Y16123750D01*
X18685750Y15965000D01*
X19500000Y15961928D01*
X19624482Y15974188D01*
X19744180Y16010498D01*
X19854494Y16069463D01*
X19951185Y16148815D01*
X20030537Y16245506D01*
X20089502Y16355820D01*
X20125812Y16475518D01*
X20138072Y16600000D01*
X20461928Y16600000D01*
X20474188Y16475518D01*
X20510498Y16355820D01*
X20569463Y16245506D01*
X20648815Y16148815D01*
X20745506Y16069463D01*
X20855820Y16010498D01*
X20975518Y15974188D01*
X21100000Y15961928D01*
X21914250Y15965000D01*
X22073000Y16123750D01*
X22073000Y17273000D01*
X22327000Y17273000D01*
X22327000Y16123750D01*
X22485750Y15965000D01*
X23300000Y15961928D01*
X23424482Y15974188D01*
X23544180Y16010498D01*
X23654494Y16069463D01*
X23751185Y16148815D01*
X23830537Y16245506D01*
X23889502Y16355820D01*
X23925812Y16475518D01*
X23938072Y16600000D01*
X23935000Y17114250D01*
X23776250Y17273000D01*
X22327000Y17273000D01*
X22073000Y17273000D01*
X20623750Y17273000D01*
X20465000Y17114250D01*
X20461928Y16600000D01*
X20138072Y16600000D01*
X20135000Y17114250D01*
X19976250Y17273000D01*
X18527000Y17273000D01*
X18273000Y17273000D01*
X16823750Y17273000D01*
X16665000Y17114250D01*
X16661928Y16600000D01*
X12038072Y16600000D01*
X12038072Y17180834D01*
X12522236Y17664998D01*
X12731486Y17664998D01*
X12989405Y17716302D01*
X13232359Y17816937D01*
X13451013Y17963036D01*
X13636962Y18148985D01*
X13671048Y18200000D01*
X16661928Y18200000D01*
X16665000Y17685750D01*
X16823750Y17527000D01*
X17744589Y17527000D01*
X17883691Y17434055D01*
X18082059Y17351888D01*
X18292644Y17310000D01*
X18507356Y17310000D01*
X18717941Y17351888D01*
X18916309Y17434055D01*
X19055411Y17527000D01*
X19976250Y17527000D01*
X20135000Y17685750D01*
X20138072Y18200000D01*
X20461928Y18200000D01*
X20465000Y17685750D01*
X20623750Y17527000D01*
X21544589Y17527000D01*
X21683691Y17434055D01*
X21882059Y17351888D01*
X22092644Y17310000D01*
X22307356Y17310000D01*
X22517941Y17351888D01*
X22716309Y17434055D01*
X22855411Y17527000D01*
X23776250Y17527000D01*
X23935000Y17685750D01*
X23938072Y18200000D01*
X23935000Y18231192D01*
X23935000Y19000000D01*
X23929274Y19058402D01*
X23924164Y19116809D01*
X23923233Y19120013D01*
X23922907Y19123339D01*
X23905937Y19179548D01*
X23889588Y19235819D01*
X23888053Y19238780D01*
X23887087Y19241980D01*
X23859538Y19293793D01*
X23832556Y19345846D01*
X23830473Y19348456D01*
X23828905Y19351404D01*
X23791835Y19396857D01*
X23755238Y19442700D01*
X23750653Y19447350D01*
X23750577Y19447443D01*
X23750491Y19447514D01*
X23749013Y19449013D01*
X23349013Y19849013D01*
X23303635Y19886287D01*
X23258754Y19923947D01*
X23255832Y19925553D01*
X23253248Y19927676D01*
X23201503Y19955421D01*
X23150153Y19983651D01*
X23146971Y19984660D01*
X23144027Y19986239D01*
X23087946Y20003384D01*
X23032024Y20021124D01*
X23028703Y20021497D01*
X23025512Y20022472D01*
X22967184Y20028397D01*
X22908866Y20034938D01*
X22902338Y20034984D01*
X22902216Y20034996D01*
X22902103Y20034985D01*
X22900000Y20035000D01*
X21500000Y20035000D01*
X21441598Y20029274D01*
X21383191Y20024164D01*
X21379987Y20023233D01*
X21376661Y20022907D01*
X21320452Y20005937D01*
X21264181Y19989588D01*
X21261220Y19988053D01*
X21258020Y19987087D01*
X21206207Y19959538D01*
X21154154Y19932556D01*
X21151544Y19930473D01*
X21148596Y19928905D01*
X21103143Y19891835D01*
X21057300Y19855238D01*
X21052650Y19850653D01*
X21052557Y19850577D01*
X21052486Y19850491D01*
X21050987Y19849013D01*
X20650987Y19449013D01*
X20613713Y19403635D01*
X20576053Y19358754D01*
X20574447Y19355832D01*
X20572324Y19353248D01*
X20544579Y19301503D01*
X20516349Y19250153D01*
X20515340Y19246971D01*
X20513761Y19244027D01*
X20496616Y19187946D01*
X20478876Y19132024D01*
X20478503Y19128703D01*
X20477528Y19125512D01*
X20471603Y19067184D01*
X20465062Y19008866D01*
X20465016Y19002338D01*
X20465004Y19002216D01*
X20465015Y19002103D01*
X20465000Y19000000D01*
X20465000Y18231192D01*
X20461928Y18200000D01*
X20138072Y18200000D01*
X20135000Y18231192D01*
X20135000Y19000000D01*
X20129274Y19058402D01*
X20124164Y19116809D01*
X20123233Y19120013D01*
X20122907Y19123339D01*
X20105937Y19179548D01*
X20089588Y19235819D01*
X20088053Y19238780D01*
X20087087Y19241980D01*
X20059538Y19293793D01*
X20032556Y19345846D01*
X20030473Y19348456D01*
X20028905Y19351404D01*
X19991835Y19396857D01*
X19955238Y19442700D01*
X19950653Y19447350D01*
X19950577Y19447443D01*
X19950491Y19447514D01*
X19949013Y19449013D01*
X19549013Y19849013D01*
X19503635Y19886287D01*
X19458754Y19923947D01*
X19455832Y19925553D01*
X19453248Y19927676D01*
X19401503Y19955421D01*
X19350153Y19983651D01*
X19346971Y19984660D01*
X19344027Y19986239D01*
X19287946Y20003384D01*
X19232024Y20021124D01*
X19228703Y20021497D01*
X19225512Y20022472D01*
X19167184Y20028397D01*
X19108866Y20034938D01*
X19102338Y20034984D01*
X19102216Y20034996D01*
X19102103Y20034985D01*
X19100000Y20035000D01*
X17700000Y20035000D01*
X17641598Y20029274D01*
X17583191Y20024164D01*
X17579987Y20023233D01*
X17576661Y20022907D01*
X17520452Y20005937D01*
X17464181Y19989588D01*
X17461220Y19988053D01*
X17458020Y19987087D01*
X17406207Y19959538D01*
X17354154Y19932556D01*
X17351544Y19930473D01*
X17348596Y19928905D01*
X17303143Y19891835D01*
X17257300Y19855238D01*
X17252650Y19850653D01*
X17252557Y19850577D01*
X17252486Y19850491D01*
X17250987Y19849013D01*
X16850987Y19449013D01*
X16813713Y19403635D01*
X16776053Y19358754D01*
X16774447Y19355832D01*
X16772324Y19353248D01*
X16744579Y19301503D01*
X16716349Y19250153D01*
X16715340Y19246971D01*
X16713761Y19244027D01*
X16696616Y19187946D01*
X16678876Y19132024D01*
X16678503Y19128703D01*
X16677528Y19125512D01*
X16671603Y19067184D01*
X16665062Y19008866D01*
X16665016Y19002338D01*
X16665004Y19002216D01*
X16665015Y19002103D01*
X16665000Y19000000D01*
X16665000Y18231192D01*
X16661928Y18200000D01*
X13671048Y18200000D01*
X13783061Y18367639D01*
X13883696Y18610593D01*
X13935000Y18868512D01*
X13935000Y19131484D01*
X13883696Y19389403D01*
X13783061Y19632357D01*
X13636962Y19851011D01*
X13451013Y20036960D01*
X13232359Y20183059D01*
X12989405Y20283694D01*
X12731486Y20334998D01*
X12468514Y20334998D01*
X12210595Y20283694D01*
X11967641Y20183059D01*
X11748987Y20036960D01*
X11563038Y19851011D01*
X11416939Y19632357D01*
X11316304Y19389403D01*
X11265000Y19131484D01*
X11265000Y18922234D01*
X10880838Y18538072D01*
X9200000Y18538072D01*
X9075518Y18525812D01*
X8955820Y18489502D01*
X8845506Y18430537D01*
X8748815Y18351185D01*
X8669463Y18254494D01*
X8610498Y18144180D01*
X8574188Y18024482D01*
X8561928Y17900000D01*
X7602989Y17900000D01*
X7532441Y17996881D01*
X7626185Y18073815D01*
X7705537Y18170506D01*
X7764502Y18280820D01*
X7773657Y18311000D01*
X8056342Y18311000D01*
X8100002Y18306700D01*
X8143662Y18311000D01*
X8143669Y18311000D01*
X8274276Y18323864D01*
X8441853Y18374697D01*
X8596293Y18457247D01*
X8731661Y18568341D01*
X8759501Y18602264D01*
X8922237Y18765000D01*
X9131488Y18765000D01*
X9389407Y18816304D01*
X9632361Y18916939D01*
X9851015Y19063038D01*
X10036964Y19248987D01*
X10183063Y19467641D01*
X10283698Y19710595D01*
X10335002Y19968514D01*
X10335002Y20231486D01*
X10283698Y20489405D01*
X10262741Y20540000D01*
X35740000Y20540000D01*
X35740001Y4860000D01*
X34221421Y4860000D01*
X34230528Y4862762D01*
X34463629Y4970527D01*
X34671227Y5121697D01*
X34845344Y5310463D01*
X34979289Y5529570D01*
X35067915Y5770599D01*
X34945085Y5973000D01*
X33927000Y5973000D01*
X33927000Y5953000D01*
X33673000Y5953000D01*
X33673000Y5973000D01*
X33653000Y5973000D01*
X33653000Y6227000D01*
X33673000Y6227000D01*
X33673000Y7244224D01*
X33927000Y7244224D01*
X33927000Y6227000D01*
X34945085Y6227000D01*
X35067915Y6429401D01*
X34979289Y6670430D01*
X34845344Y6889537D01*
X34671227Y7078303D01*
X34463629Y7229473D01*
X34230528Y7337238D01*
X34129400Y7367910D01*
X33927000Y7244224D01*
X33673000Y7244224D01*
X33470600Y7367910D01*
X33369472Y7337238D01*
X33136371Y7229473D01*
X32928773Y7078303D01*
X32806681Y6945940D01*
X32689000Y7063621D01*
X32689000Y7701025D01*
X32836962Y7848987D01*
X32983061Y8067641D01*
X33083696Y8310595D01*
X33135000Y8568514D01*
X33135000Y8777765D01*
X33594163Y9236928D01*
X34900000Y9236928D01*
X35024482Y9249188D01*
X35144180Y9285498D01*
X35254494Y9344463D01*
X35351185Y9423815D01*
X35430537Y9520506D01*
X35489502Y9630820D01*
X35525812Y9750518D01*
X35538072Y9875000D01*
X35538072Y11875000D01*
X35535000Y11906192D01*
X35535000Y12175000D01*
X35529273Y12233406D01*
X35524164Y12291809D01*
X35523233Y12295013D01*
X35522907Y12298339D01*
X35505937Y12354548D01*
X35489588Y12410819D01*
X35488053Y12413780D01*
X35487087Y12416980D01*
X35459538Y12468793D01*
X35432556Y12520846D01*
X35430473Y12523456D01*
X35428905Y12526404D01*
X35391835Y12571857D01*
X35355238Y12617700D01*
X35350653Y12622350D01*
X35350577Y12622443D01*
X35350491Y12622514D01*
X35349013Y12624013D01*
X35049013Y12924013D01*
X35003635Y12961287D01*
X34958754Y12998947D01*
X34955832Y13000553D01*
X34953248Y13002676D01*
X34901503Y13030421D01*
X34850153Y13058651D01*
X34846971Y13059660D01*
X34844027Y13061239D01*
X34787946Y13078384D01*
X34732024Y13096124D01*
X34728703Y13096497D01*
X34725512Y13097472D01*
X34667184Y13103397D01*
X34608866Y13109938D01*
X34602338Y13109984D01*
X34602216Y13109996D01*
X34602103Y13109985D01*
X34600000Y13110000D01*
X33000000Y13110000D01*
X32941594Y13104273D01*
X32883191Y13099164D01*
X32879987Y13098233D01*
X32876661Y13097907D01*
X32820452Y13080937D01*
X32764181Y13064588D01*
X32761220Y13063053D01*
X32758020Y13062087D01*
X32706207Y13034538D01*
X32654154Y13007556D01*
X32651544Y13005473D01*
X32648596Y13003905D01*
X32603143Y12966835D01*
X32557300Y12930238D01*
X32552650Y12925653D01*
X32552557Y12925577D01*
X32552486Y12925491D01*
X32550987Y12924013D01*
X32250987Y12624013D01*
X32213713Y12578635D01*
X32176053Y12533754D01*
X32174447Y12530832D01*
X32172324Y12528248D01*
X32144579Y12476503D01*
X32116349Y12425153D01*
X32115340Y12421971D01*
X32113761Y12419027D01*
X32096616Y12362946D01*
X32078876Y12307024D01*
X32078503Y12303703D01*
X32077528Y12300512D01*
X32071603Y12242184D01*
X32065062Y12183866D01*
X32065016Y12177338D01*
X32065004Y12177216D01*
X32065015Y12177103D01*
X32065000Y12175000D01*
X32065000Y11906192D01*
X32061928Y11875000D01*
X32061928Y10219163D01*
X31877765Y10035000D01*
X31668514Y10035000D01*
X31410595Y9983696D01*
X31167641Y9883061D01*
X30948987Y9736962D01*
X30763038Y9551013D01*
X30616939Y9332359D01*
X30516304Y9089405D01*
X30465000Y8831486D01*
X30465000Y8568514D01*
X30516304Y8310595D01*
X30616939Y8067641D01*
X30763038Y7848987D01*
X30911000Y7701025D01*
X30911001Y7063622D01*
X30800000Y6952621D01*
X30692784Y7059837D01*
X30689000Y7098254D01*
X30689000Y7098261D01*
X30676136Y7228868D01*
X30675953Y7229473D01*
X30636083Y7360907D01*
X30625303Y7396445D01*
X30542753Y7550885D01*
X30431659Y7686253D01*
X30397742Y7714088D01*
X26923741Y11188088D01*
X26883696Y11389405D01*
X26783061Y11632359D01*
X26636962Y11851013D01*
X26587975Y11900000D01*
X27461928Y11900000D01*
X27465000Y11868808D01*
X27465000Y11100000D01*
X27470727Y11041594D01*
X27475836Y10983191D01*
X27476767Y10979987D01*
X27477093Y10976661D01*
X27494063Y10920452D01*
X27510412Y10864181D01*
X27511947Y10861220D01*
X27512913Y10858020D01*
X27540462Y10806207D01*
X27567444Y10754154D01*
X27569527Y10751544D01*
X27571095Y10748596D01*
X27608165Y10703143D01*
X27644762Y10657300D01*
X27649347Y10652650D01*
X27649423Y10652557D01*
X27649509Y10652486D01*
X27650987Y10650987D01*
X28050987Y10250987D01*
X28096338Y10213735D01*
X28141246Y10176053D01*
X28144171Y10174445D01*
X28146752Y10172325D01*
X28198477Y10144590D01*
X28249847Y10116349D01*
X28253026Y10115340D01*
X28255972Y10113761D01*
X28312068Y10096611D01*
X28367976Y10078876D01*
X28371297Y10078503D01*
X28374488Y10077528D01*
X28432816Y10071603D01*
X28491134Y10065062D01*
X28497662Y10065016D01*
X28497784Y10065004D01*
X28497897Y10065015D01*
X28500000Y10065000D01*
X29900000Y10065000D01*
X29958406Y10070727D01*
X30016809Y10075836D01*
X30020013Y10076767D01*
X30023339Y10077093D01*
X30079548Y10094063D01*
X30135819Y10110412D01*
X30138780Y10111947D01*
X30141980Y10112913D01*
X30193793Y10140462D01*
X30245846Y10167444D01*
X30248456Y10169527D01*
X30251404Y10171095D01*
X30296857Y10208165D01*
X30342700Y10244762D01*
X30347350Y10249347D01*
X30347443Y10249423D01*
X30347514Y10249509D01*
X30349013Y10250987D01*
X30749013Y10650987D01*
X30786265Y10696338D01*
X30823947Y10741246D01*
X30825555Y10744171D01*
X30827675Y10746752D01*
X30855410Y10798477D01*
X30883651Y10849847D01*
X30884660Y10853026D01*
X30886239Y10855972D01*
X30903389Y10912068D01*
X30921124Y10967976D01*
X30921497Y10971297D01*
X30922472Y10974488D01*
X30928397Y11032816D01*
X30934938Y11091134D01*
X30934984Y11097662D01*
X30934996Y11097784D01*
X30934985Y11097897D01*
X30935000Y11100000D01*
X30935000Y11868808D01*
X30938072Y11900000D01*
X30935000Y12414250D01*
X30776250Y12573000D01*
X29855411Y12573000D01*
X29716309Y12665945D01*
X29517941Y12748112D01*
X29307356Y12790000D01*
X29092644Y12790000D01*
X28882059Y12748112D01*
X28683691Y12665945D01*
X28544589Y12573000D01*
X27623750Y12573000D01*
X27465000Y12414250D01*
X27461928Y11900000D01*
X26587975Y11900000D01*
X26451013Y12036962D01*
X26232359Y12183061D01*
X25989405Y12283696D01*
X25731486Y12335000D01*
X25468514Y12335000D01*
X25210595Y12283696D01*
X25012239Y12201534D01*
X25012239Y13093929D01*
X25160201Y13241891D01*
X25306300Y13460545D01*
X25322642Y13500000D01*
X27461928Y13500000D01*
X27465000Y12985750D01*
X27623750Y12827000D01*
X29073000Y12827000D01*
X29073000Y13976250D01*
X29327000Y13976250D01*
X29327000Y12827000D01*
X30776250Y12827000D01*
X30935000Y12985750D01*
X30938072Y13500000D01*
X30925812Y13624482D01*
X30889502Y13744180D01*
X30830537Y13854494D01*
X30751185Y13951185D01*
X30654494Y14030537D01*
X30544180Y14089502D01*
X30424482Y14125812D01*
X30300000Y14138072D01*
X29485750Y14135000D01*
X29327000Y13976250D01*
X29073000Y13976250D01*
X28914250Y14135000D01*
X28100000Y14138072D01*
X27975518Y14125812D01*
X27855820Y14089502D01*
X27745506Y14030537D01*
X27648815Y13951185D01*
X27569463Y13854494D01*
X27510498Y13744180D01*
X27474188Y13624482D01*
X27461928Y13500000D01*
X25322642Y13500000D01*
X25406935Y13703499D01*
X25458239Y13961418D01*
X25458239Y14224390D01*
X25406935Y14482309D01*
X25306300Y14725263D01*
X25160201Y14943917D01*
X24974252Y15129866D01*
X24755598Y15275965D01*
X24512644Y15376600D01*
X24254725Y15427904D01*
X23991753Y15427904D01*
X23733834Y15376600D01*
X23490880Y15275965D01*
X23272226Y15129866D01*
X23086277Y14943917D01*
X22940178Y14725263D01*
X22839543Y14482309D01*
X22788239Y14224390D01*
X22788239Y13961418D01*
X22839543Y13703499D01*
X22940178Y13460545D01*
X23086277Y13241891D01*
X23234240Y13093928D01*
X23234239Y8480577D01*
X23229939Y8436917D01*
X23234239Y8393257D01*
X23234239Y8393251D01*
X23240565Y8329024D01*
X23247103Y8262643D01*
X23269237Y8189676D01*
X23297936Y8095067D01*
X23380486Y7940627D01*
X23491580Y7805258D01*
X23525503Y7777418D01*
X25800662Y5502258D01*
X25828497Y5468341D01*
X25963865Y5357247D01*
X26118305Y5274697D01*
X26235048Y5239284D01*
X26285881Y5223864D01*
X26302481Y5222229D01*
X26416489Y5211000D01*
X26416496Y5211000D01*
X26460156Y5206700D01*
X26503816Y5211000D01*
X26526343Y5211000D01*
X26535498Y5180820D01*
X26594463Y5070506D01*
X26673815Y4973815D01*
X26770506Y4894463D01*
X26834981Y4860000D01*
X5060000Y4860000D01*
X5060000Y12875000D01*
X5186928Y12875000D01*
X5186928Y11525000D01*
X5199188Y11400518D01*
X5235498Y11280820D01*
X5294463Y11170506D01*
X5373815Y11073815D01*
X5460697Y11002513D01*
X5339093Y10820518D01*
X5240342Y10582113D01*
X5190000Y10329024D01*
X5190000Y10070976D01*
X5240342Y9817887D01*
X5339093Y9579482D01*
X5482456Y9364923D01*
X5647379Y9200000D01*
X5482456Y9035077D01*
X5339093Y8820518D01*
X5240342Y8582113D01*
X5190000Y8329024D01*
X5190000Y8070976D01*
X5240342Y7817887D01*
X5339093Y7579482D01*
X5482456Y7364923D01*
X5647379Y7200000D01*
X5482456Y7035077D01*
X5339093Y6820518D01*
X5240342Y6582113D01*
X5190000Y6329024D01*
X5190000Y6070976D01*
X5240342Y5817887D01*
X5339093Y5579482D01*
X5482456Y5364923D01*
X5664923Y5182456D01*
X5879482Y5039093D01*
X6117887Y4940342D01*
X6370976Y4890000D01*
X6629024Y4890000D01*
X6882113Y4940342D01*
X7120518Y5039093D01*
X7335077Y5182456D01*
X7463621Y5311000D01*
X10701025Y5311000D01*
X10848987Y5163038D01*
X11067641Y5016939D01*
X11310595Y4916304D01*
X11568514Y4865000D01*
X11831486Y4865000D01*
X12089405Y4916304D01*
X12332359Y5016939D01*
X12551013Y5163038D01*
X12736962Y5348987D01*
X12883061Y5567641D01*
X12983696Y5810595D01*
X13035000Y6068514D01*
X13035000Y6331486D01*
X12983696Y6589405D01*
X12883061Y6832359D01*
X12736962Y7051013D01*
X12587975Y7200000D01*
X12736962Y7348987D01*
X12883061Y7567641D01*
X12983696Y7810595D01*
X13035000Y8068514D01*
X13035000Y8331486D01*
X12983696Y8589405D01*
X12883061Y8832359D01*
X12736962Y9051013D01*
X12587975Y9200000D01*
X12736962Y9348987D01*
X12883061Y9567641D01*
X12983696Y9810595D01*
X13035000Y10068514D01*
X13035000Y10331486D01*
X12983696Y10589405D01*
X12883061Y10832359D01*
X12736962Y11051013D01*
X12587976Y11199999D01*
X12736963Y11348987D01*
X12883062Y11567641D01*
X12983697Y11810595D01*
X13035001Y12068514D01*
X13035001Y12331486D01*
X12983697Y12589405D01*
X12883062Y12832359D01*
X12736963Y13051013D01*
X12551014Y13236962D01*
X12332360Y13383061D01*
X12089406Y13483696D01*
X11831487Y13535000D01*
X11568515Y13535000D01*
X11310596Y13483696D01*
X11067642Y13383061D01*
X10848988Y13236962D01*
X10701026Y13089000D01*
X7773657Y13089000D01*
X7764502Y13119180D01*
X7705537Y13229494D01*
X7626185Y13326185D01*
X7529494Y13405537D01*
X7419180Y13464502D01*
X7299482Y13500812D01*
X7175000Y13513072D01*
X5825000Y13513072D01*
X5700518Y13500812D01*
X5580820Y13464502D01*
X5470506Y13405537D01*
X5373815Y13326185D01*
X5294463Y13229494D01*
X5235498Y13119180D01*
X5199188Y12999482D01*
X5186928Y12875000D01*
X5060000Y12875000D01*
X5060000Y16870600D01*
X5232090Y16870600D01*
X5262762Y16769472D01*
X5370527Y16536371D01*
X5521697Y16328773D01*
X5710463Y16154656D01*
X5929570Y16020711D01*
X6170599Y15932085D01*
X6373000Y16054915D01*
X6373000Y17073000D01*
X6627000Y17073000D01*
X6627000Y16054915D01*
X6829401Y15932085D01*
X7070430Y16020711D01*
X7289537Y16154656D01*
X7478303Y16328773D01*
X7629473Y16536371D01*
X7737238Y16769472D01*
X7767910Y16870600D01*
X7644224Y17073000D01*
X6627000Y17073000D01*
X6373000Y17073000D01*
X5355776Y17073000D01*
X5232090Y16870600D01*
X5060000Y16870600D01*
X5060000Y20540000D01*
X7737263Y20540000D01*
X7716306Y20489405D01*
G37*
X7716306Y20489405D02*
X7672591Y20269639D01*
X7626185Y20326185D01*
X7529494Y20405537D01*
X7419180Y20464502D01*
X7299482Y20500812D01*
X7175000Y20513072D01*
X5825000Y20513072D01*
X5700518Y20500812D01*
X5580820Y20464502D01*
X5470506Y20405537D01*
X5373815Y20326185D01*
X5294463Y20229494D01*
X5235498Y20119180D01*
X5199188Y19999482D01*
X5186928Y19875000D01*
X5186928Y18525000D01*
X5199188Y18400518D01*
X5235498Y18280820D01*
X5294463Y18170506D01*
X5373815Y18073815D01*
X5467559Y17996881D01*
X5370527Y17863629D01*
X5262762Y17630528D01*
X5232090Y17529400D01*
X5355776Y17327000D01*
X6373000Y17327000D01*
X6373000Y17347000D01*
X6627000Y17347000D01*
X6627000Y17327000D01*
X7644224Y17327000D01*
X7767910Y17529400D01*
X7737238Y17630528D01*
X7629473Y17863629D01*
X7602989Y17900000D01*
X8561928Y17900000D01*
X8561928Y15900000D01*
X8565000Y15868808D01*
X8565000Y15600000D01*
X8570727Y15541594D01*
X8575836Y15483191D01*
X8576767Y15479987D01*
X8577093Y15476661D01*
X8594063Y15420452D01*
X8610412Y15364181D01*
X8611947Y15361220D01*
X8612913Y15358020D01*
X8640462Y15306207D01*
X8667444Y15254154D01*
X8669527Y15251544D01*
X8671095Y15248596D01*
X8708165Y15203143D01*
X8744762Y15157300D01*
X8749347Y15152650D01*
X8749423Y15152557D01*
X8749509Y15152486D01*
X8750987Y15150987D01*
X9050987Y14850987D01*
X9096365Y14813713D01*
X9141246Y14776053D01*
X9144168Y14774447D01*
X9146752Y14772324D01*
X9198516Y14744569D01*
X9249847Y14716349D01*
X9253026Y14715340D01*
X9255972Y14713761D01*
X9312068Y14696611D01*
X9367976Y14678876D01*
X9371297Y14678503D01*
X9374488Y14677528D01*
X9432816Y14671603D01*
X9491134Y14665062D01*
X9497662Y14665016D01*
X9497784Y14665004D01*
X9497897Y14665015D01*
X9500000Y14665000D01*
X11100000Y14665000D01*
X11158406Y14670727D01*
X11216809Y14675836D01*
X11220013Y14676767D01*
X11223339Y14677093D01*
X11279548Y14694063D01*
X11335819Y14710412D01*
X11338780Y14711947D01*
X11341980Y14712913D01*
X11393793Y14740462D01*
X11445846Y14767444D01*
X11448456Y14769527D01*
X11451404Y14771095D01*
X11496857Y14808165D01*
X11542700Y14844762D01*
X11547350Y14849347D01*
X11547443Y14849423D01*
X11547514Y14849509D01*
X11549013Y14850987D01*
X11849013Y15150987D01*
X11886287Y15196365D01*
X11923947Y15241246D01*
X11925553Y15244168D01*
X11927676Y15246752D01*
X11955431Y15298516D01*
X11983651Y15349847D01*
X11984660Y15353026D01*
X11986239Y15355972D01*
X12003389Y15412068D01*
X12021124Y15467976D01*
X12021497Y15471297D01*
X12022472Y15474488D01*
X12028397Y15532816D01*
X12034938Y15591134D01*
X12034984Y15597662D01*
X12034996Y15597784D01*
X12034985Y15597897D01*
X12035000Y15600000D01*
X12035000Y15868808D01*
X12038072Y15900000D01*
X12038072Y16600000D01*
X16661928Y16600000D01*
X16674188Y16475518D01*
X16710498Y16355820D01*
X16769463Y16245506D01*
X16848815Y16148815D01*
X16945506Y16069463D01*
X17055820Y16010498D01*
X17175518Y15974188D01*
X17300000Y15961928D01*
X18114250Y15965000D01*
X18273000Y16123750D01*
X18273000Y17273000D01*
X18527000Y17273000D01*
X18527000Y16123750D01*
X18685750Y15965000D01*
X19500000Y15961928D01*
X19624482Y15974188D01*
X19744180Y16010498D01*
X19854494Y16069463D01*
X19951185Y16148815D01*
X20030537Y16245506D01*
X20089502Y16355820D01*
X20125812Y16475518D01*
X20138072Y16600000D01*
X20461928Y16600000D01*
X20474188Y16475518D01*
X20510498Y16355820D01*
X20569463Y16245506D01*
X20648815Y16148815D01*
X20745506Y16069463D01*
X20855820Y16010498D01*
X20975518Y15974188D01*
X21100000Y15961928D01*
X21914250Y15965000D01*
X22073000Y16123750D01*
X22073000Y17273000D01*
X22327000Y17273000D01*
X22327000Y16123750D01*
X22485750Y15965000D01*
X23300000Y15961928D01*
X23424482Y15974188D01*
X23544180Y16010498D01*
X23654494Y16069463D01*
X23751185Y16148815D01*
X23830537Y16245506D01*
X23889502Y16355820D01*
X23925812Y16475518D01*
X23938072Y16600000D01*
X23935000Y17114250D01*
X23776250Y17273000D01*
X22327000Y17273000D01*
X22073000Y17273000D01*
X20623750Y17273000D01*
X20465000Y17114250D01*
X20461928Y16600000D01*
X20138072Y16600000D01*
X20135000Y17114250D01*
X19976250Y17273000D01*
X18527000Y17273000D01*
X18273000Y17273000D01*
X16823750Y17273000D01*
X16665000Y17114250D01*
X16661928Y16600000D01*
X12038072Y16600000D01*
X12038072Y17180834D01*
X12522236Y17664998D01*
X12731486Y17664998D01*
X12989405Y17716302D01*
X13232359Y17816937D01*
X13451013Y17963036D01*
X13636962Y18148985D01*
X13671048Y18200000D01*
X16661928Y18200000D01*
X16665000Y17685750D01*
X16823750Y17527000D01*
X17744589Y17527000D01*
X17883691Y17434055D01*
X18082059Y17351888D01*
X18292644Y17310000D01*
X18507356Y17310000D01*
X18717941Y17351888D01*
X18916309Y17434055D01*
X19055411Y17527000D01*
X19976250Y17527000D01*
X20135000Y17685750D01*
X20138072Y18200000D01*
X20461928Y18200000D01*
X20465000Y17685750D01*
X20623750Y17527000D01*
X21544589Y17527000D01*
X21683691Y17434055D01*
X21882059Y17351888D01*
X22092644Y17310000D01*
X22307356Y17310000D01*
X22517941Y17351888D01*
X22716309Y17434055D01*
X22855411Y17527000D01*
X23776250Y17527000D01*
X23935000Y17685750D01*
X23938072Y18200000D01*
X23935000Y18231192D01*
X23935000Y19000000D01*
X23929274Y19058402D01*
X23924164Y19116809D01*
X23923233Y19120013D01*
X23922907Y19123339D01*
X23905937Y19179548D01*
X23889588Y19235819D01*
X23888053Y19238780D01*
X23887087Y19241980D01*
X23859538Y19293793D01*
X23832556Y19345846D01*
X23830473Y19348456D01*
X23828905Y19351404D01*
X23791835Y19396857D01*
X23755238Y19442700D01*
X23750653Y19447350D01*
X23750577Y19447443D01*
X23750491Y19447514D01*
X23749013Y19449013D01*
X23349013Y19849013D01*
X23303635Y19886287D01*
X23258754Y19923947D01*
X23255832Y19925553D01*
X23253248Y19927676D01*
X23201503Y19955421D01*
X23150153Y19983651D01*
X23146971Y19984660D01*
X23144027Y19986239D01*
X23087946Y20003384D01*
X23032024Y20021124D01*
X23028703Y20021497D01*
X23025512Y20022472D01*
X22967184Y20028397D01*
X22908866Y20034938D01*
X22902338Y20034984D01*
X22902216Y20034996D01*
X22902103Y20034985D01*
X22900000Y20035000D01*
X21500000Y20035000D01*
X21441598Y20029274D01*
X21383191Y20024164D01*
X21379987Y20023233D01*
X21376661Y20022907D01*
X21320452Y20005937D01*
X21264181Y19989588D01*
X21261220Y19988053D01*
X21258020Y19987087D01*
X21206207Y19959538D01*
X21154154Y19932556D01*
X21151544Y19930473D01*
X21148596Y19928905D01*
X21103143Y19891835D01*
X21057300Y19855238D01*
X21052650Y19850653D01*
X21052557Y19850577D01*
X21052486Y19850491D01*
X21050987Y19849013D01*
X20650987Y19449013D01*
X20613713Y19403635D01*
X20576053Y19358754D01*
X20574447Y19355832D01*
X20572324Y19353248D01*
X20544579Y19301503D01*
X20516349Y19250153D01*
X20515340Y19246971D01*
X20513761Y19244027D01*
X20496616Y19187946D01*
X20478876Y19132024D01*
X20478503Y19128703D01*
X20477528Y19125512D01*
X20471603Y19067184D01*
X20465062Y19008866D01*
X20465016Y19002338D01*
X20465004Y19002216D01*
X20465015Y19002103D01*
X20465000Y19000000D01*
X20465000Y18231192D01*
X20461928Y18200000D01*
X20138072Y18200000D01*
X20135000Y18231192D01*
X20135000Y19000000D01*
X20129274Y19058402D01*
X20124164Y19116809D01*
X20123233Y19120013D01*
X20122907Y19123339D01*
X20105937Y19179548D01*
X20089588Y19235819D01*
X20088053Y19238780D01*
X20087087Y19241980D01*
X20059538Y19293793D01*
X20032556Y19345846D01*
X20030473Y19348456D01*
X20028905Y19351404D01*
X19991835Y19396857D01*
X19955238Y19442700D01*
X19950653Y19447350D01*
X19950577Y19447443D01*
X19950491Y19447514D01*
X19949013Y19449013D01*
X19549013Y19849013D01*
X19503635Y19886287D01*
X19458754Y19923947D01*
X19455832Y19925553D01*
X19453248Y19927676D01*
X19401503Y19955421D01*
X19350153Y19983651D01*
X19346971Y19984660D01*
X19344027Y19986239D01*
X19287946Y20003384D01*
X19232024Y20021124D01*
X19228703Y20021497D01*
X19225512Y20022472D01*
X19167184Y20028397D01*
X19108866Y20034938D01*
X19102338Y20034984D01*
X19102216Y20034996D01*
X19102103Y20034985D01*
X19100000Y20035000D01*
X17700000Y20035000D01*
X17641598Y20029274D01*
X17583191Y20024164D01*
X17579987Y20023233D01*
X17576661Y20022907D01*
X17520452Y20005937D01*
X17464181Y19989588D01*
X17461220Y19988053D01*
X17458020Y19987087D01*
X17406207Y19959538D01*
X17354154Y19932556D01*
X17351544Y19930473D01*
X17348596Y19928905D01*
X17303143Y19891835D01*
X17257300Y19855238D01*
X17252650Y19850653D01*
X17252557Y19850577D01*
X17252486Y19850491D01*
X17250987Y19849013D01*
X16850987Y19449013D01*
X16813713Y19403635D01*
X16776053Y19358754D01*
X16774447Y19355832D01*
X16772324Y19353248D01*
X16744579Y19301503D01*
X16716349Y19250153D01*
X16715340Y19246971D01*
X16713761Y19244027D01*
X16696616Y19187946D01*
X16678876Y19132024D01*
X16678503Y19128703D01*
X16677528Y19125512D01*
X16671603Y19067184D01*
X16665062Y19008866D01*
X16665016Y19002338D01*
X16665004Y19002216D01*
X16665015Y19002103D01*
X16665000Y19000000D01*
X16665000Y18231192D01*
X16661928Y18200000D01*
X13671048Y18200000D01*
X13783061Y18367639D01*
X13883696Y18610593D01*
X13935000Y18868512D01*
X13935000Y19131484D01*
X13883696Y19389403D01*
X13783061Y19632357D01*
X13636962Y19851011D01*
X13451013Y20036960D01*
X13232359Y20183059D01*
X12989405Y20283694D01*
X12731486Y20334998D01*
X12468514Y20334998D01*
X12210595Y20283694D01*
X11967641Y20183059D01*
X11748987Y20036960D01*
X11563038Y19851011D01*
X11416939Y19632357D01*
X11316304Y19389403D01*
X11265000Y19131484D01*
X11265000Y18922234D01*
X10880838Y18538072D01*
X9200000Y18538072D01*
X9075518Y18525812D01*
X8955820Y18489502D01*
X8845506Y18430537D01*
X8748815Y18351185D01*
X8669463Y18254494D01*
X8610498Y18144180D01*
X8574188Y18024482D01*
X8561928Y17900000D01*
X7602989Y17900000D01*
X7532441Y17996881D01*
X7626185Y18073815D01*
X7705537Y18170506D01*
X7764502Y18280820D01*
X7773657Y18311000D01*
X8056342Y18311000D01*
X8100002Y18306700D01*
X8143662Y18311000D01*
X8143669Y18311000D01*
X8274276Y18323864D01*
X8441853Y18374697D01*
X8596293Y18457247D01*
X8731661Y18568341D01*
X8759501Y18602264D01*
X8922237Y18765000D01*
X9131488Y18765000D01*
X9389407Y18816304D01*
X9632361Y18916939D01*
X9851015Y19063038D01*
X10036964Y19248987D01*
X10183063Y19467641D01*
X10283698Y19710595D01*
X10335002Y19968514D01*
X10335002Y20231486D01*
X10283698Y20489405D01*
X10262741Y20540000D01*
X35740000Y20540000D01*
X35740001Y4860000D01*
X34221421Y4860000D01*
X34230528Y4862762D01*
X34463629Y4970527D01*
X34671227Y5121697D01*
X34845344Y5310463D01*
X34979289Y5529570D01*
X35067915Y5770599D01*
X34945085Y5973000D01*
X33927000Y5973000D01*
X33927000Y5953000D01*
X33673000Y5953000D01*
X33673000Y5973000D01*
X33653000Y5973000D01*
X33653000Y6227000D01*
X33673000Y6227000D01*
X33673000Y7244224D01*
X33927000Y7244224D01*
X33927000Y6227000D01*
X34945085Y6227000D01*
X35067915Y6429401D01*
X34979289Y6670430D01*
X34845344Y6889537D01*
X34671227Y7078303D01*
X34463629Y7229473D01*
X34230528Y7337238D01*
X34129400Y7367910D01*
X33927000Y7244224D01*
X33673000Y7244224D01*
X33470600Y7367910D01*
X33369472Y7337238D01*
X33136371Y7229473D01*
X32928773Y7078303D01*
X32806681Y6945940D01*
X32689000Y7063621D01*
X32689000Y7701025D01*
X32836962Y7848987D01*
X32983061Y8067641D01*
X33083696Y8310595D01*
X33135000Y8568514D01*
X33135000Y8777765D01*
X33594163Y9236928D01*
X34900000Y9236928D01*
X35024482Y9249188D01*
X35144180Y9285498D01*
X35254494Y9344463D01*
X35351185Y9423815D01*
X35430537Y9520506D01*
X35489502Y9630820D01*
X35525812Y9750518D01*
X35538072Y9875000D01*
X35538072Y11875000D01*
X35535000Y11906192D01*
X35535000Y12175000D01*
X35529273Y12233406D01*
X35524164Y12291809D01*
X35523233Y12295013D01*
X35522907Y12298339D01*
X35505937Y12354548D01*
X35489588Y12410819D01*
X35488053Y12413780D01*
X35487087Y12416980D01*
X35459538Y12468793D01*
X35432556Y12520846D01*
X35430473Y12523456D01*
X35428905Y12526404D01*
X35391835Y12571857D01*
X35355238Y12617700D01*
X35350653Y12622350D01*
X35350577Y12622443D01*
X35350491Y12622514D01*
X35349013Y12624013D01*
X35049013Y12924013D01*
X35003635Y12961287D01*
X34958754Y12998947D01*
X34955832Y13000553D01*
X34953248Y13002676D01*
X34901503Y13030421D01*
X34850153Y13058651D01*
X34846971Y13059660D01*
X34844027Y13061239D01*
X34787946Y13078384D01*
X34732024Y13096124D01*
X34728703Y13096497D01*
X34725512Y13097472D01*
X34667184Y13103397D01*
X34608866Y13109938D01*
X34602338Y13109984D01*
X34602216Y13109996D01*
X34602103Y13109985D01*
X34600000Y13110000D01*
X33000000Y13110000D01*
X32941594Y13104273D01*
X32883191Y13099164D01*
X32879987Y13098233D01*
X32876661Y13097907D01*
X32820452Y13080937D01*
X32764181Y13064588D01*
X32761220Y13063053D01*
X32758020Y13062087D01*
X32706207Y13034538D01*
X32654154Y13007556D01*
X32651544Y13005473D01*
X32648596Y13003905D01*
X32603143Y12966835D01*
X32557300Y12930238D01*
X32552650Y12925653D01*
X32552557Y12925577D01*
X32552486Y12925491D01*
X32550987Y12924013D01*
X32250987Y12624013D01*
X32213713Y12578635D01*
X32176053Y12533754D01*
X32174447Y12530832D01*
X32172324Y12528248D01*
X32144579Y12476503D01*
X32116349Y12425153D01*
X32115340Y12421971D01*
X32113761Y12419027D01*
X32096616Y12362946D01*
X32078876Y12307024D01*
X32078503Y12303703D01*
X32077528Y12300512D01*
X32071603Y12242184D01*
X32065062Y12183866D01*
X32065016Y12177338D01*
X32065004Y12177216D01*
X32065015Y12177103D01*
X32065000Y12175000D01*
X32065000Y11906192D01*
X32061928Y11875000D01*
X32061928Y10219163D01*
X31877765Y10035000D01*
X31668514Y10035000D01*
X31410595Y9983696D01*
X31167641Y9883061D01*
X30948987Y9736962D01*
X30763038Y9551013D01*
X30616939Y9332359D01*
X30516304Y9089405D01*
X30465000Y8831486D01*
X30465000Y8568514D01*
X30516304Y8310595D01*
X30616939Y8067641D01*
X30763038Y7848987D01*
X30911000Y7701025D01*
X30911001Y7063622D01*
X30800000Y6952621D01*
X30692784Y7059837D01*
X30689000Y7098254D01*
X30689000Y7098261D01*
X30676136Y7228868D01*
X30675953Y7229473D01*
X30636083Y7360907D01*
X30625303Y7396445D01*
X30542753Y7550885D01*
X30431659Y7686253D01*
X30397742Y7714088D01*
X26923741Y11188088D01*
X26883696Y11389405D01*
X26783061Y11632359D01*
X26636962Y11851013D01*
X26587975Y11900000D01*
X27461928Y11900000D01*
X27465000Y11868808D01*
X27465000Y11100000D01*
X27470727Y11041594D01*
X27475836Y10983191D01*
X27476767Y10979987D01*
X27477093Y10976661D01*
X27494063Y10920452D01*
X27510412Y10864181D01*
X27511947Y10861220D01*
X27512913Y10858020D01*
X27540462Y10806207D01*
X27567444Y10754154D01*
X27569527Y10751544D01*
X27571095Y10748596D01*
X27608165Y10703143D01*
X27644762Y10657300D01*
X27649347Y10652650D01*
X27649423Y10652557D01*
X27649509Y10652486D01*
X27650987Y10650987D01*
X28050987Y10250987D01*
X28096338Y10213735D01*
X28141246Y10176053D01*
X28144171Y10174445D01*
X28146752Y10172325D01*
X28198477Y10144590D01*
X28249847Y10116349D01*
X28253026Y10115340D01*
X28255972Y10113761D01*
X28312068Y10096611D01*
X28367976Y10078876D01*
X28371297Y10078503D01*
X28374488Y10077528D01*
X28432816Y10071603D01*
X28491134Y10065062D01*
X28497662Y10065016D01*
X28497784Y10065004D01*
X28497897Y10065015D01*
X28500000Y10065000D01*
X29900000Y10065000D01*
X29958406Y10070727D01*
X30016809Y10075836D01*
X30020013Y10076767D01*
X30023339Y10077093D01*
X30079548Y10094063D01*
X30135819Y10110412D01*
X30138780Y10111947D01*
X30141980Y10112913D01*
X30193793Y10140462D01*
X30245846Y10167444D01*
X30248456Y10169527D01*
X30251404Y10171095D01*
X30296857Y10208165D01*
X30342700Y10244762D01*
X30347350Y10249347D01*
X30347443Y10249423D01*
X30347514Y10249509D01*
X30349013Y10250987D01*
X30749013Y10650987D01*
X30786265Y10696338D01*
X30823947Y10741246D01*
X30825555Y10744171D01*
X30827675Y10746752D01*
X30855410Y10798477D01*
X30883651Y10849847D01*
X30884660Y10853026D01*
X30886239Y10855972D01*
X30903389Y10912068D01*
X30921124Y10967976D01*
X30921497Y10971297D01*
X30922472Y10974488D01*
X30928397Y11032816D01*
X30934938Y11091134D01*
X30934984Y11097662D01*
X30934996Y11097784D01*
X30934985Y11097897D01*
X30935000Y11100000D01*
X30935000Y11868808D01*
X30938072Y11900000D01*
X30935000Y12414250D01*
X30776250Y12573000D01*
X29855411Y12573000D01*
X29716309Y12665945D01*
X29517941Y12748112D01*
X29307356Y12790000D01*
X29092644Y12790000D01*
X28882059Y12748112D01*
X28683691Y12665945D01*
X28544589Y12573000D01*
X27623750Y12573000D01*
X27465000Y12414250D01*
X27461928Y11900000D01*
X26587975Y11900000D01*
X26451013Y12036962D01*
X26232359Y12183061D01*
X25989405Y12283696D01*
X25731486Y12335000D01*
X25468514Y12335000D01*
X25210595Y12283696D01*
X25012239Y12201534D01*
X25012239Y13093929D01*
X25160201Y13241891D01*
X25306300Y13460545D01*
X25322642Y13500000D01*
X27461928Y13500000D01*
X27465000Y12985750D01*
X27623750Y12827000D01*
X29073000Y12827000D01*
X29073000Y13976250D01*
X29327000Y13976250D01*
X29327000Y12827000D01*
X30776250Y12827000D01*
X30935000Y12985750D01*
X30938072Y13500000D01*
X30925812Y13624482D01*
X30889502Y13744180D01*
X30830537Y13854494D01*
X30751185Y13951185D01*
X30654494Y14030537D01*
X30544180Y14089502D01*
X30424482Y14125812D01*
X30300000Y14138072D01*
X29485750Y14135000D01*
X29327000Y13976250D01*
X29073000Y13976250D01*
X28914250Y14135000D01*
X28100000Y14138072D01*
X27975518Y14125812D01*
X27855820Y14089502D01*
X27745506Y14030537D01*
X27648815Y13951185D01*
X27569463Y13854494D01*
X27510498Y13744180D01*
X27474188Y13624482D01*
X27461928Y13500000D01*
X25322642Y13500000D01*
X25406935Y13703499D01*
X25458239Y13961418D01*
X25458239Y14224390D01*
X25406935Y14482309D01*
X25306300Y14725263D01*
X25160201Y14943917D01*
X24974252Y15129866D01*
X24755598Y15275965D01*
X24512644Y15376600D01*
X24254725Y15427904D01*
X23991753Y15427904D01*
X23733834Y15376600D01*
X23490880Y15275965D01*
X23272226Y15129866D01*
X23086277Y14943917D01*
X22940178Y14725263D01*
X22839543Y14482309D01*
X22788239Y14224390D01*
X22788239Y13961418D01*
X22839543Y13703499D01*
X22940178Y13460545D01*
X23086277Y13241891D01*
X23234240Y13093928D01*
X23234239Y8480577D01*
X23229939Y8436917D01*
X23234239Y8393257D01*
X23234239Y8393251D01*
X23240565Y8329024D01*
X23247103Y8262643D01*
X23269237Y8189676D01*
X23297936Y8095067D01*
X23380486Y7940627D01*
X23491580Y7805258D01*
X23525503Y7777418D01*
X25800662Y5502258D01*
X25828497Y5468341D01*
X25963865Y5357247D01*
X26118305Y5274697D01*
X26235048Y5239284D01*
X26285881Y5223864D01*
X26302481Y5222229D01*
X26416489Y5211000D01*
X26416496Y5211000D01*
X26460156Y5206700D01*
X26503816Y5211000D01*
X26526343Y5211000D01*
X26535498Y5180820D01*
X26594463Y5070506D01*
X26673815Y4973815D01*
X26770506Y4894463D01*
X26834981Y4860000D01*
X5060000Y4860000D01*
X5060000Y12875000D01*
X5186928Y12875000D01*
X5186928Y11525000D01*
X5199188Y11400518D01*
X5235498Y11280820D01*
X5294463Y11170506D01*
X5373815Y11073815D01*
X5460697Y11002513D01*
X5339093Y10820518D01*
X5240342Y10582113D01*
X5190000Y10329024D01*
X5190000Y10070976D01*
X5240342Y9817887D01*
X5339093Y9579482D01*
X5482456Y9364923D01*
X5647379Y9200000D01*
X5482456Y9035077D01*
X5339093Y8820518D01*
X5240342Y8582113D01*
X5190000Y8329024D01*
X5190000Y8070976D01*
X5240342Y7817887D01*
X5339093Y7579482D01*
X5482456Y7364923D01*
X5647379Y7200000D01*
X5482456Y7035077D01*
X5339093Y6820518D01*
X5240342Y6582113D01*
X5190000Y6329024D01*
X5190000Y6070976D01*
X5240342Y5817887D01*
X5339093Y5579482D01*
X5482456Y5364923D01*
X5664923Y5182456D01*
X5879482Y5039093D01*
X6117887Y4940342D01*
X6370976Y4890000D01*
X6629024Y4890000D01*
X6882113Y4940342D01*
X7120518Y5039093D01*
X7335077Y5182456D01*
X7463621Y5311000D01*
X10701025Y5311000D01*
X10848987Y5163038D01*
X11067641Y5016939D01*
X11310595Y4916304D01*
X11568514Y4865000D01*
X11831486Y4865000D01*
X12089405Y4916304D01*
X12332359Y5016939D01*
X12551013Y5163038D01*
X12736962Y5348987D01*
X12883061Y5567641D01*
X12983696Y5810595D01*
X13035000Y6068514D01*
X13035000Y6331486D01*
X12983696Y6589405D01*
X12883061Y6832359D01*
X12736962Y7051013D01*
X12587975Y7200000D01*
X12736962Y7348987D01*
X12883061Y7567641D01*
X12983696Y7810595D01*
X13035000Y8068514D01*
X13035000Y8331486D01*
X12983696Y8589405D01*
X12883061Y8832359D01*
X12736962Y9051013D01*
X12587975Y9200000D01*
X12736962Y9348987D01*
X12883061Y9567641D01*
X12983696Y9810595D01*
X13035000Y10068514D01*
X13035000Y10331486D01*
X12983696Y10589405D01*
X12883061Y10832359D01*
X12736962Y11051013D01*
X12587976Y11199999D01*
X12736963Y11348987D01*
X12883062Y11567641D01*
X12983697Y11810595D01*
X13035001Y12068514D01*
X13035001Y12331486D01*
X12983697Y12589405D01*
X12883062Y12832359D01*
X12736963Y13051013D01*
X12551014Y13236962D01*
X12332360Y13383061D01*
X12089406Y13483696D01*
X11831487Y13535000D01*
X11568515Y13535000D01*
X11310596Y13483696D01*
X11067642Y13383061D01*
X10848988Y13236962D01*
X10701026Y13089000D01*
X7773657Y13089000D01*
X7764502Y13119180D01*
X7705537Y13229494D01*
X7626185Y13326185D01*
X7529494Y13405537D01*
X7419180Y13464502D01*
X7299482Y13500812D01*
X7175000Y13513072D01*
X5825000Y13513072D01*
X5700518Y13500812D01*
X5580820Y13464502D01*
X5470506Y13405537D01*
X5373815Y13326185D01*
X5294463Y13229494D01*
X5235498Y13119180D01*
X5199188Y12999482D01*
X5186928Y12875000D01*
X5060000Y12875000D01*
X5060000Y16870600D01*
X5232090Y16870600D01*
X5262762Y16769472D01*
X5370527Y16536371D01*
X5521697Y16328773D01*
X5710463Y16154656D01*
X5929570Y16020711D01*
X6170599Y15932085D01*
X6373000Y16054915D01*
X6373000Y17073000D01*
X6627000Y17073000D01*
X6627000Y16054915D01*
X6829401Y15932085D01*
X7070430Y16020711D01*
X7289537Y16154656D01*
X7478303Y16328773D01*
X7629473Y16536371D01*
X7737238Y16769472D01*
X7767910Y16870600D01*
X7644224Y17073000D01*
X6627000Y17073000D01*
X6373000Y17073000D01*
X5355776Y17073000D01*
X5232090Y16870600D01*
X5060000Y16870600D01*
X5060000Y20540000D01*
X7737263Y20540000D01*
X7716306Y20489405D01*
M02*
