G04 #@! TF.GenerationSoftware,KiCad,Pcbnew,(5.1.5)-3*
G04 #@! TF.CreationDate,2020-05-24T18:07:27-05:00*
G04 #@! TF.ProjectId,multiBoard_small,6d756c74-6942-46f6-9172-645f736d616c,rev?*
G04 #@! TF.SameCoordinates,PX5a995c0PY68e7780*
G04 #@! TF.FileFunction,Soldermask,Bot*
G04 #@! TF.FilePolarity,Negative*
%FSLAX46Y46*%
G04 Gerber Fmt 4.6, Leading zero omitted, Abs format (unit mm)*
G04 Created by KiCad (PCBNEW (5.1.5)-3) date 2020-05-24 18:07:27*
%MOMM*%
%LPD*%
G04 APERTURE LIST*
%ADD10C,0.100000*%
G04 APERTURE END LIST*
D10*
G36*
X11400000Y15600000D02*
G01*
X11100000Y15300000D01*
X9500000Y15300000D01*
X9200000Y15600000D01*
X9200000Y15900000D01*
X11400000Y15900000D01*
X11400000Y15600000D01*
G37*
G36*
X21100000Y19000000D02*
G01*
X21500000Y19400000D01*
X22900000Y19400000D01*
X23300000Y19000000D01*
X23300000Y18200000D01*
X21100000Y18200000D01*
X21100000Y19000000D01*
G37*
G36*
X32700000Y12175000D02*
G01*
X33000000Y12475000D01*
X34600000Y12475000D01*
X34900000Y12175000D01*
X34900000Y11875000D01*
X32700000Y11875000D01*
X32700000Y12175000D01*
G37*
G36*
X30300000Y11100000D02*
G01*
X29900000Y10700000D01*
X28500000Y10700000D01*
X28100000Y11100000D01*
X28100000Y11900000D01*
X30300000Y11900000D01*
X30300000Y11100000D01*
G37*
G36*
X17300000Y19000000D02*
G01*
X17700000Y19400000D01*
X19100000Y19400000D01*
X19500000Y19000000D01*
X19500000Y18200000D01*
X17300000Y18200000D01*
X17300000Y19000000D01*
G37*
G36*
X21100000Y59800000D02*
G01*
X21500000Y60200000D01*
X22900000Y60200000D01*
X23300000Y59800000D01*
X23300000Y59000000D01*
X21100000Y59000000D01*
X21100000Y59800000D01*
G37*
G36*
X11400000Y56400000D02*
G01*
X11100000Y56100000D01*
X9500000Y56100000D01*
X9200000Y56400000D01*
X9200000Y56700000D01*
X11400000Y56700000D01*
X11400000Y56400000D01*
G37*
G36*
X30300000Y51900000D02*
G01*
X29900000Y51500000D01*
X28500000Y51500000D01*
X28100000Y51900000D01*
X28100000Y52700000D01*
X30300000Y52700000D01*
X30300000Y51900000D01*
G37*
G36*
X32700000Y52975000D02*
G01*
X33000000Y53275000D01*
X34600000Y53275000D01*
X34900000Y52975000D01*
X34900000Y52675000D01*
X32700000Y52675000D01*
X32700000Y52975000D01*
G37*
G36*
X17300000Y59800000D02*
G01*
X17700000Y60200000D01*
X19100000Y60200000D01*
X19500000Y59800000D01*
X19500000Y59000000D01*
X17300000Y59000000D01*
X17300000Y59800000D01*
G37*
G36*
X32700000Y32575000D02*
G01*
X33000000Y32875000D01*
X34600000Y32875000D01*
X34900000Y32575000D01*
X34900000Y32275000D01*
X32700000Y32275000D01*
X32700000Y32575000D01*
G37*
G36*
X17300000Y39400000D02*
G01*
X17700000Y39800000D01*
X19100000Y39800000D01*
X19500000Y39400000D01*
X19500000Y38600000D01*
X17300000Y38600000D01*
X17300000Y39400000D01*
G37*
G36*
X21100000Y39400000D02*
G01*
X21500000Y39800000D01*
X22900000Y39800000D01*
X23300000Y39400000D01*
X23300000Y38600000D01*
X21100000Y38600000D01*
X21100000Y39400000D01*
G37*
G36*
X30300000Y31500000D02*
G01*
X29900000Y31100000D01*
X28500000Y31100000D01*
X28100000Y31500000D01*
X28100000Y32300000D01*
X30300000Y32300000D01*
X30300000Y31500000D01*
G37*
G36*
X11400000Y36000000D02*
G01*
X11100000Y35700000D01*
X9500000Y35700000D01*
X9200000Y36000000D01*
X9200000Y36300000D01*
X11400000Y36300000D01*
X11400000Y36000000D01*
G37*
G36*
X34011766Y6798101D02*
G01*
X34143888Y6743374D01*
X34143890Y6743373D01*
X34262798Y6663921D01*
X34363921Y6562798D01*
X34363922Y6562796D01*
X34443374Y6443888D01*
X34498101Y6311766D01*
X34526000Y6171506D01*
X34526000Y6028494D01*
X34498101Y5888234D01*
X34443374Y5756112D01*
X34443373Y5756110D01*
X34363921Y5637202D01*
X34262798Y5536079D01*
X34143890Y5456627D01*
X34143889Y5456626D01*
X34143888Y5456626D01*
X34011766Y5401899D01*
X33871506Y5374000D01*
X33728494Y5374000D01*
X33588234Y5401899D01*
X33456112Y5456626D01*
X33456111Y5456626D01*
X33456110Y5456627D01*
X33337202Y5536079D01*
X33236079Y5637202D01*
X33156627Y5756110D01*
X33156626Y5756112D01*
X33101899Y5888234D01*
X33074000Y6028494D01*
X33074000Y6171506D01*
X33101899Y6311766D01*
X33156626Y6443888D01*
X33236078Y6562796D01*
X33236079Y6562798D01*
X33337202Y6663921D01*
X33456110Y6743373D01*
X33456112Y6743374D01*
X33588234Y6798101D01*
X33728494Y6826000D01*
X33871506Y6826000D01*
X34011766Y6798101D01*
G37*
G36*
X32011766Y6798101D02*
G01*
X32143888Y6743374D01*
X32143890Y6743373D01*
X32262798Y6663921D01*
X32363921Y6562798D01*
X32363922Y6562796D01*
X32443374Y6443888D01*
X32498101Y6311766D01*
X32526000Y6171506D01*
X32526000Y6028494D01*
X32498101Y5888234D01*
X32443374Y5756112D01*
X32443373Y5756110D01*
X32363921Y5637202D01*
X32262798Y5536079D01*
X32143890Y5456627D01*
X32143889Y5456626D01*
X32143888Y5456626D01*
X32011766Y5401899D01*
X31871506Y5374000D01*
X31728494Y5374000D01*
X31588234Y5401899D01*
X31456112Y5456626D01*
X31456111Y5456626D01*
X31456110Y5456627D01*
X31337202Y5536079D01*
X31236079Y5637202D01*
X31156627Y5756110D01*
X31156626Y5756112D01*
X31101899Y5888234D01*
X31074000Y6028494D01*
X31074000Y6171506D01*
X31101899Y6311766D01*
X31156626Y6443888D01*
X31236078Y6562796D01*
X31236079Y6562798D01*
X31337202Y6663921D01*
X31456110Y6743373D01*
X31456112Y6743374D01*
X31588234Y6798101D01*
X31728494Y6826000D01*
X31871506Y6826000D01*
X32011766Y6798101D01*
G37*
G36*
X28526000Y5374000D02*
G01*
X27074000Y5374000D01*
X27074000Y6826000D01*
X28526000Y6826000D01*
X28526000Y5374000D01*
G37*
G36*
X30011766Y6798101D02*
G01*
X30143888Y6743374D01*
X30143890Y6743373D01*
X30262798Y6663921D01*
X30363921Y6562798D01*
X30363922Y6562796D01*
X30443374Y6443888D01*
X30498101Y6311766D01*
X30526000Y6171506D01*
X30526000Y6028494D01*
X30498101Y5888234D01*
X30443374Y5756112D01*
X30443373Y5756110D01*
X30363921Y5637202D01*
X30262798Y5536079D01*
X30143890Y5456627D01*
X30143889Y5456626D01*
X30143888Y5456626D01*
X30011766Y5401899D01*
X29871506Y5374000D01*
X29728494Y5374000D01*
X29588234Y5401899D01*
X29456112Y5456626D01*
X29456111Y5456626D01*
X29456110Y5456627D01*
X29337202Y5536079D01*
X29236079Y5637202D01*
X29156627Y5756110D01*
X29156626Y5756112D01*
X29101899Y5888234D01*
X29074000Y6028494D01*
X29074000Y6171506D01*
X29101899Y6311766D01*
X29156626Y6443888D01*
X29236078Y6562796D01*
X29236079Y6562798D01*
X29337202Y6663921D01*
X29456110Y6743373D01*
X29456112Y6743374D01*
X29588234Y6798101D01*
X29728494Y6826000D01*
X29871506Y6826000D01*
X30011766Y6798101D01*
G37*
G36*
X6711766Y6898101D02*
G01*
X6843888Y6843374D01*
X6843890Y6843373D01*
X6962798Y6763921D01*
X7063921Y6662798D01*
X7063922Y6662796D01*
X7143374Y6543888D01*
X7198101Y6411766D01*
X7226000Y6271506D01*
X7226000Y6128494D01*
X7198101Y5988234D01*
X7156679Y5888234D01*
X7143373Y5856110D01*
X7063921Y5737202D01*
X6962798Y5636079D01*
X6843890Y5556627D01*
X6843889Y5556626D01*
X6843888Y5556626D01*
X6711766Y5501899D01*
X6571506Y5474000D01*
X6428494Y5474000D01*
X6288234Y5501899D01*
X6156112Y5556626D01*
X6156111Y5556626D01*
X6156110Y5556627D01*
X6037202Y5636079D01*
X5936079Y5737202D01*
X5856627Y5856110D01*
X5843321Y5888234D01*
X5801899Y5988234D01*
X5774000Y6128494D01*
X5774000Y6271506D01*
X5801899Y6411766D01*
X5856626Y6543888D01*
X5936078Y6662796D01*
X5936079Y6662798D01*
X6037202Y6763921D01*
X6156110Y6843373D01*
X6156112Y6843374D01*
X6288234Y6898101D01*
X6428494Y6926000D01*
X6571506Y6926000D01*
X6711766Y6898101D01*
G37*
G36*
X6711766Y8898101D02*
G01*
X6843888Y8843374D01*
X6843890Y8843373D01*
X6962798Y8763921D01*
X7063921Y8662798D01*
X7063922Y8662796D01*
X7143374Y8543888D01*
X7198101Y8411766D01*
X7226000Y8271506D01*
X7226000Y8128494D01*
X7198101Y7988234D01*
X7143374Y7856112D01*
X7143373Y7856110D01*
X7063921Y7737202D01*
X6962798Y7636079D01*
X6843890Y7556627D01*
X6843889Y7556626D01*
X6843888Y7556626D01*
X6711766Y7501899D01*
X6571506Y7474000D01*
X6428494Y7474000D01*
X6288234Y7501899D01*
X6156112Y7556626D01*
X6156111Y7556626D01*
X6156110Y7556627D01*
X6037202Y7636079D01*
X5936079Y7737202D01*
X5856627Y7856110D01*
X5856626Y7856112D01*
X5801899Y7988234D01*
X5774000Y8128494D01*
X5774000Y8271506D01*
X5801899Y8411766D01*
X5856626Y8543888D01*
X5936078Y8662796D01*
X5936079Y8662798D01*
X6037202Y8763921D01*
X6156110Y8843373D01*
X6156112Y8843374D01*
X6288234Y8898101D01*
X6428494Y8926000D01*
X6571506Y8926000D01*
X6711766Y8898101D01*
G37*
G36*
X6711766Y10898101D02*
G01*
X6843888Y10843374D01*
X6843890Y10843373D01*
X6962798Y10763921D01*
X7063921Y10662798D01*
X7063922Y10662796D01*
X7143374Y10543888D01*
X7198101Y10411766D01*
X7226000Y10271506D01*
X7226000Y10128494D01*
X7198101Y9988234D01*
X7143374Y9856112D01*
X7143373Y9856110D01*
X7063921Y9737202D01*
X6962798Y9636079D01*
X6843890Y9556627D01*
X6843889Y9556626D01*
X6843888Y9556626D01*
X6711766Y9501899D01*
X6571506Y9474000D01*
X6428494Y9474000D01*
X6288234Y9501899D01*
X6156112Y9556626D01*
X6156111Y9556626D01*
X6156110Y9556627D01*
X6037202Y9636079D01*
X5936079Y9737202D01*
X5856627Y9856110D01*
X5856626Y9856112D01*
X5801899Y9988234D01*
X5774000Y10128494D01*
X5774000Y10271506D01*
X5801899Y10411766D01*
X5856626Y10543888D01*
X5936078Y10662796D01*
X5936079Y10662798D01*
X6037202Y10763921D01*
X6156110Y10843373D01*
X6156112Y10843374D01*
X6288234Y10898101D01*
X6428494Y10926000D01*
X6571506Y10926000D01*
X6711766Y10898101D01*
G37*
G36*
X34951000Y9824000D02*
G01*
X32649000Y9824000D01*
X32649000Y11926000D01*
X34951000Y11926000D01*
X34951000Y9824000D01*
G37*
G36*
X7226000Y11474000D02*
G01*
X5774000Y11474000D01*
X5774000Y12926000D01*
X7226000Y12926000D01*
X7226000Y11474000D01*
G37*
G36*
X30351000Y11849000D02*
G01*
X28049000Y11849000D01*
X28049000Y13551000D01*
X30351000Y13551000D01*
X30351000Y11849000D01*
G37*
G36*
X11451000Y15849000D02*
G01*
X9149000Y15849000D01*
X9149000Y17951000D01*
X11451000Y17951000D01*
X11451000Y15849000D01*
G37*
G36*
X6711766Y17898101D02*
G01*
X6843888Y17843374D01*
X6843890Y17843373D01*
X6962798Y17763921D01*
X7063921Y17662798D01*
X7063922Y17662796D01*
X7143374Y17543888D01*
X7198101Y17411766D01*
X7226000Y17271506D01*
X7226000Y17128494D01*
X7198101Y16988234D01*
X7143374Y16856112D01*
X7143373Y16856110D01*
X7063921Y16737202D01*
X6962798Y16636079D01*
X6843890Y16556627D01*
X6843889Y16556626D01*
X6843888Y16556626D01*
X6711766Y16501899D01*
X6571506Y16474000D01*
X6428494Y16474000D01*
X6288234Y16501899D01*
X6156112Y16556626D01*
X6156111Y16556626D01*
X6156110Y16556627D01*
X6037202Y16636079D01*
X5936079Y16737202D01*
X5856627Y16856110D01*
X5856626Y16856112D01*
X5801899Y16988234D01*
X5774000Y17128494D01*
X5774000Y17271506D01*
X5801899Y17411766D01*
X5856626Y17543888D01*
X5936078Y17662796D01*
X5936079Y17662798D01*
X6037202Y17763921D01*
X6156110Y17843373D01*
X6156112Y17843374D01*
X6288234Y17898101D01*
X6428494Y17926000D01*
X6571506Y17926000D01*
X6711766Y17898101D01*
G37*
G36*
X23351000Y16549000D02*
G01*
X21049000Y16549000D01*
X21049000Y18251000D01*
X23351000Y18251000D01*
X23351000Y16549000D01*
G37*
G36*
X19551000Y16549000D02*
G01*
X17249000Y16549000D01*
X17249000Y18251000D01*
X19551000Y18251000D01*
X19551000Y16549000D01*
G37*
G36*
X7226000Y18474000D02*
G01*
X5774000Y18474000D01*
X5774000Y19926000D01*
X7226000Y19926000D01*
X7226000Y18474000D01*
G37*
G36*
X34011766Y27198101D02*
G01*
X34143888Y27143374D01*
X34143890Y27143373D01*
X34262798Y27063921D01*
X34363921Y26962798D01*
X34363922Y26962796D01*
X34443374Y26843888D01*
X34498101Y26711766D01*
X34526000Y26571506D01*
X34526000Y26428494D01*
X34498101Y26288234D01*
X34443374Y26156112D01*
X34443373Y26156110D01*
X34363921Y26037202D01*
X34262798Y25936079D01*
X34143890Y25856627D01*
X34143889Y25856626D01*
X34143888Y25856626D01*
X34011766Y25801899D01*
X33871506Y25774000D01*
X33728494Y25774000D01*
X33588234Y25801899D01*
X33456112Y25856626D01*
X33456111Y25856626D01*
X33456110Y25856627D01*
X33337202Y25936079D01*
X33236079Y26037202D01*
X33156627Y26156110D01*
X33156626Y26156112D01*
X33101899Y26288234D01*
X33074000Y26428494D01*
X33074000Y26571506D01*
X33101899Y26711766D01*
X33156626Y26843888D01*
X33236078Y26962796D01*
X33236079Y26962798D01*
X33337202Y27063921D01*
X33456110Y27143373D01*
X33456112Y27143374D01*
X33588234Y27198101D01*
X33728494Y27226000D01*
X33871506Y27226000D01*
X34011766Y27198101D01*
G37*
G36*
X32011766Y27198101D02*
G01*
X32143888Y27143374D01*
X32143890Y27143373D01*
X32262798Y27063921D01*
X32363921Y26962798D01*
X32363922Y26962796D01*
X32443374Y26843888D01*
X32498101Y26711766D01*
X32526000Y26571506D01*
X32526000Y26428494D01*
X32498101Y26288234D01*
X32443374Y26156112D01*
X32443373Y26156110D01*
X32363921Y26037202D01*
X32262798Y25936079D01*
X32143890Y25856627D01*
X32143889Y25856626D01*
X32143888Y25856626D01*
X32011766Y25801899D01*
X31871506Y25774000D01*
X31728494Y25774000D01*
X31588234Y25801899D01*
X31456112Y25856626D01*
X31456111Y25856626D01*
X31456110Y25856627D01*
X31337202Y25936079D01*
X31236079Y26037202D01*
X31156627Y26156110D01*
X31156626Y26156112D01*
X31101899Y26288234D01*
X31074000Y26428494D01*
X31074000Y26571506D01*
X31101899Y26711766D01*
X31156626Y26843888D01*
X31236078Y26962796D01*
X31236079Y26962798D01*
X31337202Y27063921D01*
X31456110Y27143373D01*
X31456112Y27143374D01*
X31588234Y27198101D01*
X31728494Y27226000D01*
X31871506Y27226000D01*
X32011766Y27198101D01*
G37*
G36*
X30011766Y27198101D02*
G01*
X30143888Y27143374D01*
X30143890Y27143373D01*
X30262798Y27063921D01*
X30363921Y26962798D01*
X30363922Y26962796D01*
X30443374Y26843888D01*
X30498101Y26711766D01*
X30526000Y26571506D01*
X30526000Y26428494D01*
X30498101Y26288234D01*
X30443374Y26156112D01*
X30443373Y26156110D01*
X30363921Y26037202D01*
X30262798Y25936079D01*
X30143890Y25856627D01*
X30143889Y25856626D01*
X30143888Y25856626D01*
X30011766Y25801899D01*
X29871506Y25774000D01*
X29728494Y25774000D01*
X29588234Y25801899D01*
X29456112Y25856626D01*
X29456111Y25856626D01*
X29456110Y25856627D01*
X29337202Y25936079D01*
X29236079Y26037202D01*
X29156627Y26156110D01*
X29156626Y26156112D01*
X29101899Y26288234D01*
X29074000Y26428494D01*
X29074000Y26571506D01*
X29101899Y26711766D01*
X29156626Y26843888D01*
X29236078Y26962796D01*
X29236079Y26962798D01*
X29337202Y27063921D01*
X29456110Y27143373D01*
X29456112Y27143374D01*
X29588234Y27198101D01*
X29728494Y27226000D01*
X29871506Y27226000D01*
X30011766Y27198101D01*
G37*
G36*
X28526000Y25774000D02*
G01*
X27074000Y25774000D01*
X27074000Y27226000D01*
X28526000Y27226000D01*
X28526000Y25774000D01*
G37*
G36*
X6711766Y27298101D02*
G01*
X6843888Y27243374D01*
X6843890Y27243373D01*
X6962798Y27163921D01*
X7063921Y27062798D01*
X7063922Y27062796D01*
X7143374Y26943888D01*
X7198101Y26811766D01*
X7226000Y26671506D01*
X7226000Y26528494D01*
X7198101Y26388234D01*
X7156679Y26288234D01*
X7143373Y26256110D01*
X7063921Y26137202D01*
X6962798Y26036079D01*
X6843890Y25956627D01*
X6843889Y25956626D01*
X6843888Y25956626D01*
X6711766Y25901899D01*
X6571506Y25874000D01*
X6428494Y25874000D01*
X6288234Y25901899D01*
X6156112Y25956626D01*
X6156111Y25956626D01*
X6156110Y25956627D01*
X6037202Y26036079D01*
X5936079Y26137202D01*
X5856627Y26256110D01*
X5843321Y26288234D01*
X5801899Y26388234D01*
X5774000Y26528494D01*
X5774000Y26671506D01*
X5801899Y26811766D01*
X5856626Y26943888D01*
X5936078Y27062796D01*
X5936079Y27062798D01*
X6037202Y27163921D01*
X6156110Y27243373D01*
X6156112Y27243374D01*
X6288234Y27298101D01*
X6428494Y27326000D01*
X6571506Y27326000D01*
X6711766Y27298101D01*
G37*
G36*
X6711766Y29298101D02*
G01*
X6843888Y29243374D01*
X6843890Y29243373D01*
X6962798Y29163921D01*
X7063921Y29062798D01*
X7063922Y29062796D01*
X7143374Y28943888D01*
X7198101Y28811766D01*
X7226000Y28671506D01*
X7226000Y28528494D01*
X7198101Y28388234D01*
X7143374Y28256112D01*
X7143373Y28256110D01*
X7063921Y28137202D01*
X6962798Y28036079D01*
X6843890Y27956627D01*
X6843889Y27956626D01*
X6843888Y27956626D01*
X6711766Y27901899D01*
X6571506Y27874000D01*
X6428494Y27874000D01*
X6288234Y27901899D01*
X6156112Y27956626D01*
X6156111Y27956626D01*
X6156110Y27956627D01*
X6037202Y28036079D01*
X5936079Y28137202D01*
X5856627Y28256110D01*
X5856626Y28256112D01*
X5801899Y28388234D01*
X5774000Y28528494D01*
X5774000Y28671506D01*
X5801899Y28811766D01*
X5856626Y28943888D01*
X5936078Y29062796D01*
X5936079Y29062798D01*
X6037202Y29163921D01*
X6156110Y29243373D01*
X6156112Y29243374D01*
X6288234Y29298101D01*
X6428494Y29326000D01*
X6571506Y29326000D01*
X6711766Y29298101D01*
G37*
G36*
X6711766Y31298101D02*
G01*
X6843888Y31243374D01*
X6843890Y31243373D01*
X6962798Y31163921D01*
X7063921Y31062798D01*
X7063922Y31062796D01*
X7143374Y30943888D01*
X7198101Y30811766D01*
X7226000Y30671506D01*
X7226000Y30528494D01*
X7198101Y30388234D01*
X7143374Y30256112D01*
X7143373Y30256110D01*
X7063921Y30137202D01*
X6962798Y30036079D01*
X6843890Y29956627D01*
X6843889Y29956626D01*
X6843888Y29956626D01*
X6711766Y29901899D01*
X6571506Y29874000D01*
X6428494Y29874000D01*
X6288234Y29901899D01*
X6156112Y29956626D01*
X6156111Y29956626D01*
X6156110Y29956627D01*
X6037202Y30036079D01*
X5936079Y30137202D01*
X5856627Y30256110D01*
X5856626Y30256112D01*
X5801899Y30388234D01*
X5774000Y30528494D01*
X5774000Y30671506D01*
X5801899Y30811766D01*
X5856626Y30943888D01*
X5936078Y31062796D01*
X5936079Y31062798D01*
X6037202Y31163921D01*
X6156110Y31243373D01*
X6156112Y31243374D01*
X6288234Y31298101D01*
X6428494Y31326000D01*
X6571506Y31326000D01*
X6711766Y31298101D01*
G37*
G36*
X34951000Y30224000D02*
G01*
X32649000Y30224000D01*
X32649000Y32326000D01*
X34951000Y32326000D01*
X34951000Y30224000D01*
G37*
G36*
X7226000Y31874000D02*
G01*
X5774000Y31874000D01*
X5774000Y33326000D01*
X7226000Y33326000D01*
X7226000Y31874000D01*
G37*
G36*
X30351000Y32249000D02*
G01*
X28049000Y32249000D01*
X28049000Y33951000D01*
X30351000Y33951000D01*
X30351000Y32249000D01*
G37*
G36*
X11451000Y36249000D02*
G01*
X9149000Y36249000D01*
X9149000Y38351000D01*
X11451000Y38351000D01*
X11451000Y36249000D01*
G37*
G36*
X6711766Y38298101D02*
G01*
X6843888Y38243374D01*
X6843890Y38243373D01*
X6962798Y38163921D01*
X7063921Y38062798D01*
X7063922Y38062796D01*
X7143374Y37943888D01*
X7198101Y37811766D01*
X7226000Y37671506D01*
X7226000Y37528494D01*
X7198101Y37388234D01*
X7143374Y37256112D01*
X7143373Y37256110D01*
X7063921Y37137202D01*
X6962798Y37036079D01*
X6843890Y36956627D01*
X6843889Y36956626D01*
X6843888Y36956626D01*
X6711766Y36901899D01*
X6571506Y36874000D01*
X6428494Y36874000D01*
X6288234Y36901899D01*
X6156112Y36956626D01*
X6156111Y36956626D01*
X6156110Y36956627D01*
X6037202Y37036079D01*
X5936079Y37137202D01*
X5856627Y37256110D01*
X5856626Y37256112D01*
X5801899Y37388234D01*
X5774000Y37528494D01*
X5774000Y37671506D01*
X5801899Y37811766D01*
X5856626Y37943888D01*
X5936078Y38062796D01*
X5936079Y38062798D01*
X6037202Y38163921D01*
X6156110Y38243373D01*
X6156112Y38243374D01*
X6288234Y38298101D01*
X6428494Y38326000D01*
X6571506Y38326000D01*
X6711766Y38298101D01*
G37*
G36*
X23351000Y36949000D02*
G01*
X21049000Y36949000D01*
X21049000Y38651000D01*
X23351000Y38651000D01*
X23351000Y36949000D01*
G37*
G36*
X19551000Y36949000D02*
G01*
X17249000Y36949000D01*
X17249000Y38651000D01*
X19551000Y38651000D01*
X19551000Y36949000D01*
G37*
G36*
X7226000Y38874000D02*
G01*
X5774000Y38874000D01*
X5774000Y40326000D01*
X7226000Y40326000D01*
X7226000Y38874000D01*
G37*
G36*
X34011766Y47598101D02*
G01*
X34143888Y47543374D01*
X34143890Y47543373D01*
X34262798Y47463921D01*
X34363921Y47362798D01*
X34363922Y47362796D01*
X34443374Y47243888D01*
X34498101Y47111766D01*
X34526000Y46971506D01*
X34526000Y46828494D01*
X34498101Y46688234D01*
X34443374Y46556112D01*
X34443373Y46556110D01*
X34363921Y46437202D01*
X34262798Y46336079D01*
X34143890Y46256627D01*
X34143889Y46256626D01*
X34143888Y46256626D01*
X34011766Y46201899D01*
X33871506Y46174000D01*
X33728494Y46174000D01*
X33588234Y46201899D01*
X33456112Y46256626D01*
X33456111Y46256626D01*
X33456110Y46256627D01*
X33337202Y46336079D01*
X33236079Y46437202D01*
X33156627Y46556110D01*
X33156626Y46556112D01*
X33101899Y46688234D01*
X33074000Y46828494D01*
X33074000Y46971506D01*
X33101899Y47111766D01*
X33156626Y47243888D01*
X33236078Y47362796D01*
X33236079Y47362798D01*
X33337202Y47463921D01*
X33456110Y47543373D01*
X33456112Y47543374D01*
X33588234Y47598101D01*
X33728494Y47626000D01*
X33871506Y47626000D01*
X34011766Y47598101D01*
G37*
G36*
X28526000Y46174000D02*
G01*
X27074000Y46174000D01*
X27074000Y47626000D01*
X28526000Y47626000D01*
X28526000Y46174000D01*
G37*
G36*
X30011766Y47598101D02*
G01*
X30143888Y47543374D01*
X30143890Y47543373D01*
X30262798Y47463921D01*
X30363921Y47362798D01*
X30363922Y47362796D01*
X30443374Y47243888D01*
X30498101Y47111766D01*
X30526000Y46971506D01*
X30526000Y46828494D01*
X30498101Y46688234D01*
X30443374Y46556112D01*
X30443373Y46556110D01*
X30363921Y46437202D01*
X30262798Y46336079D01*
X30143890Y46256627D01*
X30143889Y46256626D01*
X30143888Y46256626D01*
X30011766Y46201899D01*
X29871506Y46174000D01*
X29728494Y46174000D01*
X29588234Y46201899D01*
X29456112Y46256626D01*
X29456111Y46256626D01*
X29456110Y46256627D01*
X29337202Y46336079D01*
X29236079Y46437202D01*
X29156627Y46556110D01*
X29156626Y46556112D01*
X29101899Y46688234D01*
X29074000Y46828494D01*
X29074000Y46971506D01*
X29101899Y47111766D01*
X29156626Y47243888D01*
X29236078Y47362796D01*
X29236079Y47362798D01*
X29337202Y47463921D01*
X29456110Y47543373D01*
X29456112Y47543374D01*
X29588234Y47598101D01*
X29728494Y47626000D01*
X29871506Y47626000D01*
X30011766Y47598101D01*
G37*
G36*
X32011766Y47598101D02*
G01*
X32143888Y47543374D01*
X32143890Y47543373D01*
X32262798Y47463921D01*
X32363921Y47362798D01*
X32363922Y47362796D01*
X32443374Y47243888D01*
X32498101Y47111766D01*
X32526000Y46971506D01*
X32526000Y46828494D01*
X32498101Y46688234D01*
X32443374Y46556112D01*
X32443373Y46556110D01*
X32363921Y46437202D01*
X32262798Y46336079D01*
X32143890Y46256627D01*
X32143889Y46256626D01*
X32143888Y46256626D01*
X32011766Y46201899D01*
X31871506Y46174000D01*
X31728494Y46174000D01*
X31588234Y46201899D01*
X31456112Y46256626D01*
X31456111Y46256626D01*
X31456110Y46256627D01*
X31337202Y46336079D01*
X31236079Y46437202D01*
X31156627Y46556110D01*
X31156626Y46556112D01*
X31101899Y46688234D01*
X31074000Y46828494D01*
X31074000Y46971506D01*
X31101899Y47111766D01*
X31156626Y47243888D01*
X31236078Y47362796D01*
X31236079Y47362798D01*
X31337202Y47463921D01*
X31456110Y47543373D01*
X31456112Y47543374D01*
X31588234Y47598101D01*
X31728494Y47626000D01*
X31871506Y47626000D01*
X32011766Y47598101D01*
G37*
G36*
X6711766Y47698101D02*
G01*
X6843888Y47643374D01*
X6843890Y47643373D01*
X6962798Y47563921D01*
X7063921Y47462798D01*
X7063922Y47462796D01*
X7143374Y47343888D01*
X7198101Y47211766D01*
X7226000Y47071506D01*
X7226000Y46928494D01*
X7198101Y46788234D01*
X7156679Y46688234D01*
X7143373Y46656110D01*
X7063921Y46537202D01*
X6962798Y46436079D01*
X6843890Y46356627D01*
X6843889Y46356626D01*
X6843888Y46356626D01*
X6711766Y46301899D01*
X6571506Y46274000D01*
X6428494Y46274000D01*
X6288234Y46301899D01*
X6156112Y46356626D01*
X6156111Y46356626D01*
X6156110Y46356627D01*
X6037202Y46436079D01*
X5936079Y46537202D01*
X5856627Y46656110D01*
X5843321Y46688234D01*
X5801899Y46788234D01*
X5774000Y46928494D01*
X5774000Y47071506D01*
X5801899Y47211766D01*
X5856626Y47343888D01*
X5936078Y47462796D01*
X5936079Y47462798D01*
X6037202Y47563921D01*
X6156110Y47643373D01*
X6156112Y47643374D01*
X6288234Y47698101D01*
X6428494Y47726000D01*
X6571506Y47726000D01*
X6711766Y47698101D01*
G37*
G36*
X6711766Y49698101D02*
G01*
X6843888Y49643374D01*
X6843890Y49643373D01*
X6962798Y49563921D01*
X7063921Y49462798D01*
X7063922Y49462796D01*
X7143374Y49343888D01*
X7198101Y49211766D01*
X7226000Y49071506D01*
X7226000Y48928494D01*
X7198101Y48788234D01*
X7143374Y48656112D01*
X7143373Y48656110D01*
X7063921Y48537202D01*
X6962798Y48436079D01*
X6843890Y48356627D01*
X6843889Y48356626D01*
X6843888Y48356626D01*
X6711766Y48301899D01*
X6571506Y48274000D01*
X6428494Y48274000D01*
X6288234Y48301899D01*
X6156112Y48356626D01*
X6156111Y48356626D01*
X6156110Y48356627D01*
X6037202Y48436079D01*
X5936079Y48537202D01*
X5856627Y48656110D01*
X5856626Y48656112D01*
X5801899Y48788234D01*
X5774000Y48928494D01*
X5774000Y49071506D01*
X5801899Y49211766D01*
X5856626Y49343888D01*
X5936078Y49462796D01*
X5936079Y49462798D01*
X6037202Y49563921D01*
X6156110Y49643373D01*
X6156112Y49643374D01*
X6288234Y49698101D01*
X6428494Y49726000D01*
X6571506Y49726000D01*
X6711766Y49698101D01*
G37*
G36*
X6711766Y51698101D02*
G01*
X6843888Y51643374D01*
X6843890Y51643373D01*
X6962798Y51563921D01*
X7063921Y51462798D01*
X7063922Y51462796D01*
X7143374Y51343888D01*
X7198101Y51211766D01*
X7226000Y51071506D01*
X7226000Y50928494D01*
X7198101Y50788234D01*
X7143374Y50656112D01*
X7143373Y50656110D01*
X7063921Y50537202D01*
X6962798Y50436079D01*
X6843890Y50356627D01*
X6843889Y50356626D01*
X6843888Y50356626D01*
X6711766Y50301899D01*
X6571506Y50274000D01*
X6428494Y50274000D01*
X6288234Y50301899D01*
X6156112Y50356626D01*
X6156111Y50356626D01*
X6156110Y50356627D01*
X6037202Y50436079D01*
X5936079Y50537202D01*
X5856627Y50656110D01*
X5856626Y50656112D01*
X5801899Y50788234D01*
X5774000Y50928494D01*
X5774000Y51071506D01*
X5801899Y51211766D01*
X5856626Y51343888D01*
X5936078Y51462796D01*
X5936079Y51462798D01*
X6037202Y51563921D01*
X6156110Y51643373D01*
X6156112Y51643374D01*
X6288234Y51698101D01*
X6428494Y51726000D01*
X6571506Y51726000D01*
X6711766Y51698101D01*
G37*
G36*
X34951000Y50624000D02*
G01*
X32649000Y50624000D01*
X32649000Y52726000D01*
X34951000Y52726000D01*
X34951000Y50624000D01*
G37*
G36*
X7226000Y52274000D02*
G01*
X5774000Y52274000D01*
X5774000Y53726000D01*
X7226000Y53726000D01*
X7226000Y52274000D01*
G37*
G36*
X30351000Y52649000D02*
G01*
X28049000Y52649000D01*
X28049000Y54351000D01*
X30351000Y54351000D01*
X30351000Y52649000D01*
G37*
G36*
X11451000Y56649000D02*
G01*
X9149000Y56649000D01*
X9149000Y58751000D01*
X11451000Y58751000D01*
X11451000Y56649000D01*
G37*
G36*
X6711766Y58698101D02*
G01*
X6843888Y58643374D01*
X6843890Y58643373D01*
X6962798Y58563921D01*
X7063921Y58462798D01*
X7063922Y58462796D01*
X7143374Y58343888D01*
X7198101Y58211766D01*
X7226000Y58071506D01*
X7226000Y57928494D01*
X7198101Y57788234D01*
X7143374Y57656112D01*
X7143373Y57656110D01*
X7063921Y57537202D01*
X6962798Y57436079D01*
X6843890Y57356627D01*
X6843889Y57356626D01*
X6843888Y57356626D01*
X6711766Y57301899D01*
X6571506Y57274000D01*
X6428494Y57274000D01*
X6288234Y57301899D01*
X6156112Y57356626D01*
X6156111Y57356626D01*
X6156110Y57356627D01*
X6037202Y57436079D01*
X5936079Y57537202D01*
X5856627Y57656110D01*
X5856626Y57656112D01*
X5801899Y57788234D01*
X5774000Y57928494D01*
X5774000Y58071506D01*
X5801899Y58211766D01*
X5856626Y58343888D01*
X5936078Y58462796D01*
X5936079Y58462798D01*
X6037202Y58563921D01*
X6156110Y58643373D01*
X6156112Y58643374D01*
X6288234Y58698101D01*
X6428494Y58726000D01*
X6571506Y58726000D01*
X6711766Y58698101D01*
G37*
G36*
X19551000Y57349000D02*
G01*
X17249000Y57349000D01*
X17249000Y59051000D01*
X19551000Y59051000D01*
X19551000Y57349000D01*
G37*
G36*
X23351000Y57349000D02*
G01*
X21049000Y57349000D01*
X21049000Y59051000D01*
X23351000Y59051000D01*
X23351000Y57349000D01*
G37*
G36*
X7226000Y59274000D02*
G01*
X5774000Y59274000D01*
X5774000Y60726000D01*
X7226000Y60726000D01*
X7226000Y59274000D01*
G37*
M02*
