M48
; DRILL file {KiCad (5.1.5)-3} date 2020-05-29 10:17:17 AM
; FORMAT={-:-/ absolute / metric / decimal}
; #@! TF.CreationDate,2020-05-29T10:17:17-05:00
; #@! TF.GenerationSoftware,Kicad,Pcbnew,(5.1.5)-3
FMAT,2
METRIC
T1C0.700
T2C1.000
T3C0.700
T4C0.900
%
G90
G05
T1
X2.0Y18.5
X4.445Y29.275
X4.5Y12.25
X9.0Y3.75
X15.0Y15.75
X15.5Y6.75
X23.0Y1.75
X23.5Y16.75
X23.5Y18.25
X23.5Y15.25
X24.0Y10.25
X24.0Y7.75
X24.0Y6.25
X28.5Y17.75
T2
X9.5Y20.25
X12.04Y20.25
X14.58Y20.25
X17.12Y20.25
X19.66Y20.25
X22.2Y20.25
X24.74Y20.25
X27.28Y20.25
X2.5Y16.25
X2.5Y13.71
X27.5Y15.25
X27.5Y12.71
X27.5Y10.17
X27.5Y7.63
X27.5Y5.09
X27.5Y2.55
X2.5Y28.37
X2.5Y25.83
X2.5Y23.29
X2.5Y20.75
T3
X9.5Y23.725
X9.5Y23.375
X18.5Y23.725
X18.5Y23.375
X21.5Y23.725
X21.5Y23.375
X27.5Y23.725
X27.5Y23.375
X24.5Y23.725
X24.5Y23.375
X15.5Y23.725
X15.5Y23.375
X6.5Y23.725
X6.5Y23.375
X19.5Y2.625
X19.5Y2.275
X12.5Y23.725
X12.5Y23.375
T4
X7.0Y12.95
X7.0Y12.55
X11.3Y12.25
X11.7Y12.25
X6.8Y16.25
X7.2Y16.25
X11.3Y4.25
X11.7Y4.25
X15.5Y3.75
X15.9Y3.75
T0
M30
