G04 #@! TF.GenerationSoftware,KiCad,Pcbnew,(5.1.5)-3*
G04 #@! TF.CreationDate,2020-05-29T10:17:19-05:00*
G04 #@! TF.ProjectId,MSP430G2553,4d535034-3330-4473-9235-35332e6b6963,rev?*
G04 #@! TF.SameCoordinates,PX4db9760PY5f9b190*
G04 #@! TF.FileFunction,Copper,L2,Bot*
G04 #@! TF.FilePolarity,Positive*
%FSLAX46Y46*%
G04 Gerber Fmt 4.6, Leading zero omitted, Abs format (unit mm)*
G04 Created by KiCad (PCBNEW (5.1.5)-3) date 2020-05-29 10:17:19*
%MOMM*%
%LPD*%
G04 APERTURE LIST*
%ADD10C,0.100000*%
%ADD11R,1.700000X1.700000*%
%ADD12O,1.700000X1.700000*%
%ADD13R,0.450000X1.450000*%
%ADD14C,1.000000*%
%ADD15C,0.400000*%
%ADD16C,0.600000*%
G04 APERTURE END LIST*
D10*
G36*
X20100000Y1800000D02*
G01*
X19900000Y1600000D01*
X19500000Y1550000D01*
X19100000Y1600000D01*
X18900000Y1800000D01*
X18800000Y2100000D01*
X18800000Y3150000D01*
X20200000Y3150000D01*
X20200000Y2100000D01*
X20100000Y1800000D01*
G37*
X20100000Y1800000D02*
X19900000Y1600000D01*
X19500000Y1550000D01*
X19100000Y1600000D01*
X18900000Y1800000D01*
X18800000Y2100000D01*
X18800000Y3150000D01*
X20200000Y3150000D01*
X20200000Y2100000D01*
X20100000Y1800000D01*
G36*
X5900000Y22900000D02*
G01*
X6100000Y22700000D01*
X6500000Y22650000D01*
X6900000Y22700000D01*
X7100000Y22900000D01*
X7200000Y23200000D01*
X7200000Y24250000D01*
X5800000Y24250000D01*
X5800000Y23200000D01*
X5900000Y22900000D01*
G37*
X5900000Y22900000D02*
X6100000Y22700000D01*
X6500000Y22650000D01*
X6900000Y22700000D01*
X7100000Y22900000D01*
X7200000Y23200000D01*
X7200000Y24250000D01*
X5800000Y24250000D01*
X5800000Y23200000D01*
X5900000Y22900000D01*
G36*
X8900000Y22900000D02*
G01*
X9100000Y22700000D01*
X9500000Y22650000D01*
X9900000Y22700000D01*
X10100000Y22900000D01*
X10200000Y23200000D01*
X10200000Y24250000D01*
X8800000Y24250000D01*
X8800000Y23200000D01*
X8900000Y22900000D01*
G37*
X8900000Y22900000D02*
X9100000Y22700000D01*
X9500000Y22650000D01*
X9900000Y22700000D01*
X10100000Y22900000D01*
X10200000Y23200000D01*
X10200000Y24250000D01*
X8800000Y24250000D01*
X8800000Y23200000D01*
X8900000Y22900000D01*
G36*
X11900000Y22900000D02*
G01*
X12100000Y22700000D01*
X12500000Y22650000D01*
X12900000Y22700000D01*
X13100000Y22900000D01*
X13200000Y23200000D01*
X13200000Y24250000D01*
X11800000Y24250000D01*
X11800000Y23200000D01*
X11900000Y22900000D01*
G37*
X11900000Y22900000D02*
X12100000Y22700000D01*
X12500000Y22650000D01*
X12900000Y22700000D01*
X13100000Y22900000D01*
X13200000Y23200000D01*
X13200000Y24250000D01*
X11800000Y24250000D01*
X11800000Y23200000D01*
X11900000Y22900000D01*
G36*
X14900000Y22900000D02*
G01*
X15100000Y22700000D01*
X15500000Y22650000D01*
X15900000Y22700000D01*
X16100000Y22900000D01*
X16200000Y23200000D01*
X16200000Y24250000D01*
X14800000Y24250000D01*
X14800000Y23200000D01*
X14900000Y22900000D01*
G37*
X14900000Y22900000D02*
X15100000Y22700000D01*
X15500000Y22650000D01*
X15900000Y22700000D01*
X16100000Y22900000D01*
X16200000Y23200000D01*
X16200000Y24250000D01*
X14800000Y24250000D01*
X14800000Y23200000D01*
X14900000Y22900000D01*
G36*
X17900000Y22900000D02*
G01*
X18100000Y22700000D01*
X18500000Y22650000D01*
X18900000Y22700000D01*
X19100000Y22900000D01*
X19200000Y23200000D01*
X19200000Y24250000D01*
X17800000Y24250000D01*
X17800000Y23200000D01*
X17900000Y22900000D01*
G37*
X17900000Y22900000D02*
X18100000Y22700000D01*
X18500000Y22650000D01*
X18900000Y22700000D01*
X19100000Y22900000D01*
X19200000Y23200000D01*
X19200000Y24250000D01*
X17800000Y24250000D01*
X17800000Y23200000D01*
X17900000Y22900000D01*
G36*
X20900000Y22900000D02*
G01*
X21100000Y22700000D01*
X21500000Y22650000D01*
X21900000Y22700000D01*
X22100000Y22900000D01*
X22200000Y23200000D01*
X22200000Y24250000D01*
X20800000Y24250000D01*
X20800000Y23200000D01*
X20900000Y22900000D01*
G37*
X20900000Y22900000D02*
X21100000Y22700000D01*
X21500000Y22650000D01*
X21900000Y22700000D01*
X22100000Y22900000D01*
X22200000Y23200000D01*
X22200000Y24250000D01*
X20800000Y24250000D01*
X20800000Y23200000D01*
X20900000Y22900000D01*
G36*
X23900000Y22900000D02*
G01*
X24100000Y22700000D01*
X24500000Y22650000D01*
X24900000Y22700000D01*
X25100000Y22900000D01*
X25200000Y23200000D01*
X25200000Y24250000D01*
X23800000Y24250000D01*
X23800000Y23200000D01*
X23900000Y22900000D01*
G37*
X23900000Y22900000D02*
X24100000Y22700000D01*
X24500000Y22650000D01*
X24900000Y22700000D01*
X25100000Y22900000D01*
X25200000Y23200000D01*
X25200000Y24250000D01*
X23800000Y24250000D01*
X23800000Y23200000D01*
X23900000Y22900000D01*
G36*
X26900000Y22900000D02*
G01*
X27100000Y22700000D01*
X27500000Y22650000D01*
X27900000Y22700000D01*
X28100000Y22900000D01*
X28200000Y23200000D01*
X28200000Y24250000D01*
X26800000Y24250000D01*
X26800000Y23200000D01*
X26900000Y22900000D01*
G37*
X26900000Y22900000D02*
X27100000Y22700000D01*
X27500000Y22650000D01*
X27900000Y22700000D01*
X28100000Y22900000D01*
X28200000Y23200000D01*
X28200000Y24250000D01*
X26800000Y24250000D01*
X26800000Y23200000D01*
X26900000Y22900000D01*
G36*
X10850000Y11650000D02*
G01*
X10650000Y11850000D01*
X10600000Y12250000D01*
X10650000Y12650000D01*
X10850000Y12850000D01*
X11150000Y12950000D01*
X12200000Y12950000D01*
X12200000Y11550000D01*
X11150000Y11550000D01*
X10850000Y11650000D01*
G37*
X10850000Y11650000D02*
X10650000Y11850000D01*
X10600000Y12250000D01*
X10650000Y12650000D01*
X10850000Y12850000D01*
X11150000Y12950000D01*
X12200000Y12950000D01*
X12200000Y11550000D01*
X11150000Y11550000D01*
X10850000Y11650000D01*
G36*
X6400000Y12100000D02*
G01*
X6600000Y11900000D01*
X7000000Y11850000D01*
X7400000Y11900000D01*
X7600000Y12100000D01*
X7700000Y12400000D01*
X7700000Y13450000D01*
X6300000Y13450000D01*
X6300000Y12400000D01*
X6400000Y12100000D01*
G37*
X6400000Y12100000D02*
X6600000Y11900000D01*
X7000000Y11850000D01*
X7400000Y11900000D01*
X7600000Y12100000D01*
X7700000Y12400000D01*
X7700000Y13450000D01*
X6300000Y13450000D01*
X6300000Y12400000D01*
X6400000Y12100000D01*
G36*
X7650000Y15650000D02*
G01*
X7850000Y15850000D01*
X7900000Y16250000D01*
X7850000Y16650000D01*
X7650000Y16850000D01*
X7350000Y16950000D01*
X6300000Y16950000D01*
X6300000Y15550000D01*
X7350000Y15550000D01*
X7650000Y15650000D01*
G37*
X7650000Y15650000D02*
X7850000Y15850000D01*
X7900000Y16250000D01*
X7850000Y16650000D01*
X7650000Y16850000D01*
X7350000Y16950000D01*
X6300000Y16950000D01*
X6300000Y15550000D01*
X7350000Y15550000D01*
X7650000Y15650000D01*
G36*
X15050000Y4350000D02*
G01*
X14850000Y4150000D01*
X14800000Y3750000D01*
X14850000Y3350000D01*
X15050000Y3150000D01*
X15350000Y3050000D01*
X16400000Y3050000D01*
X16400000Y4450000D01*
X15350000Y4450000D01*
X15050000Y4350000D01*
G37*
X15050000Y4350000D02*
X14850000Y4150000D01*
X14800000Y3750000D01*
X14850000Y3350000D01*
X15050000Y3150000D01*
X15350000Y3050000D01*
X16400000Y3050000D01*
X16400000Y4450000D01*
X15350000Y4450000D01*
X15050000Y4350000D01*
G36*
X10850000Y4850000D02*
G01*
X10650000Y4650000D01*
X10600000Y4250000D01*
X10650000Y3850000D01*
X10850000Y3650000D01*
X11150000Y3550000D01*
X12200000Y3550000D01*
X12200000Y4950000D01*
X11150000Y4950000D01*
X10850000Y4850000D01*
G37*
X10850000Y4850000D02*
X10650000Y4650000D01*
X10600000Y4250000D01*
X10650000Y3850000D01*
X10850000Y3650000D01*
X11150000Y3550000D01*
X12200000Y3550000D01*
X12200000Y4950000D01*
X11150000Y4950000D01*
X10850000Y4850000D01*
G04 #@! TA.AperFunction,SMDPad,CuDef*
G36*
X19911756Y4748194D02*
G01*
X19948159Y4742794D01*
X19983857Y4733853D01*
X20018506Y4721455D01*
X20051774Y4705720D01*
X20083339Y4686801D01*
X20112897Y4664879D01*
X20140165Y4640165D01*
X20164879Y4612897D01*
X20186801Y4583339D01*
X20205720Y4551774D01*
X20221455Y4518506D01*
X20233853Y4483857D01*
X20242794Y4448159D01*
X20248194Y4411756D01*
X20250000Y4375000D01*
X20250000Y3125000D01*
X20248194Y3088244D01*
X20242794Y3051841D01*
X20233853Y3016143D01*
X20221455Y2981494D01*
X20205720Y2948226D01*
X20186801Y2916661D01*
X20164879Y2887103D01*
X20140165Y2859835D01*
X20112897Y2835121D01*
X20083339Y2813199D01*
X20051774Y2794280D01*
X20018506Y2778545D01*
X19983857Y2766147D01*
X19948159Y2757206D01*
X19911756Y2751806D01*
X19875000Y2750000D01*
X19125000Y2750000D01*
X19088244Y2751806D01*
X19051841Y2757206D01*
X19016143Y2766147D01*
X18981494Y2778545D01*
X18948226Y2794280D01*
X18916661Y2813199D01*
X18887103Y2835121D01*
X18859835Y2859835D01*
X18835121Y2887103D01*
X18813199Y2916661D01*
X18794280Y2948226D01*
X18778545Y2981494D01*
X18766147Y3016143D01*
X18757206Y3051841D01*
X18751806Y3088244D01*
X18750000Y3125000D01*
X18750000Y4375000D01*
X18751806Y4411756D01*
X18757206Y4448159D01*
X18766147Y4483857D01*
X18778545Y4518506D01*
X18794280Y4551774D01*
X18813199Y4583339D01*
X18835121Y4612897D01*
X18859835Y4640165D01*
X18887103Y4664879D01*
X18916661Y4686801D01*
X18948226Y4705720D01*
X18981494Y4721455D01*
X19016143Y4733853D01*
X19051841Y4742794D01*
X19088244Y4748194D01*
X19125000Y4750000D01*
X19875000Y4750000D01*
X19911756Y4748194D01*
G37*
G04 #@! TD.AperFunction*
G04 #@! TA.AperFunction,SMDPad,CuDef*
G36*
X6911756Y25848194D02*
G01*
X6948159Y25842794D01*
X6983857Y25833853D01*
X7018506Y25821455D01*
X7051774Y25805720D01*
X7083339Y25786801D01*
X7112897Y25764879D01*
X7140165Y25740165D01*
X7164879Y25712897D01*
X7186801Y25683339D01*
X7205720Y25651774D01*
X7221455Y25618506D01*
X7233853Y25583857D01*
X7242794Y25548159D01*
X7248194Y25511756D01*
X7250000Y25475000D01*
X7250000Y24225000D01*
X7248194Y24188244D01*
X7242794Y24151841D01*
X7233853Y24116143D01*
X7221455Y24081494D01*
X7205720Y24048226D01*
X7186801Y24016661D01*
X7164879Y23987103D01*
X7140165Y23959835D01*
X7112897Y23935121D01*
X7083339Y23913199D01*
X7051774Y23894280D01*
X7018506Y23878545D01*
X6983857Y23866147D01*
X6948159Y23857206D01*
X6911756Y23851806D01*
X6875000Y23850000D01*
X6125000Y23850000D01*
X6088244Y23851806D01*
X6051841Y23857206D01*
X6016143Y23866147D01*
X5981494Y23878545D01*
X5948226Y23894280D01*
X5916661Y23913199D01*
X5887103Y23935121D01*
X5859835Y23959835D01*
X5835121Y23987103D01*
X5813199Y24016661D01*
X5794280Y24048226D01*
X5778545Y24081494D01*
X5766147Y24116143D01*
X5757206Y24151841D01*
X5751806Y24188244D01*
X5750000Y24225000D01*
X5750000Y25475000D01*
X5751806Y25511756D01*
X5757206Y25548159D01*
X5766147Y25583857D01*
X5778545Y25618506D01*
X5794280Y25651774D01*
X5813199Y25683339D01*
X5835121Y25712897D01*
X5859835Y25740165D01*
X5887103Y25764879D01*
X5916661Y25786801D01*
X5948226Y25805720D01*
X5981494Y25821455D01*
X6016143Y25833853D01*
X6051841Y25842794D01*
X6088244Y25848194D01*
X6125000Y25850000D01*
X6875000Y25850000D01*
X6911756Y25848194D01*
G37*
G04 #@! TD.AperFunction*
G04 #@! TA.AperFunction,SMDPad,CuDef*
G36*
X9911756Y25848194D02*
G01*
X9948159Y25842794D01*
X9983857Y25833853D01*
X10018506Y25821455D01*
X10051774Y25805720D01*
X10083339Y25786801D01*
X10112897Y25764879D01*
X10140165Y25740165D01*
X10164879Y25712897D01*
X10186801Y25683339D01*
X10205720Y25651774D01*
X10221455Y25618506D01*
X10233853Y25583857D01*
X10242794Y25548159D01*
X10248194Y25511756D01*
X10250000Y25475000D01*
X10250000Y24225000D01*
X10248194Y24188244D01*
X10242794Y24151841D01*
X10233853Y24116143D01*
X10221455Y24081494D01*
X10205720Y24048226D01*
X10186801Y24016661D01*
X10164879Y23987103D01*
X10140165Y23959835D01*
X10112897Y23935121D01*
X10083339Y23913199D01*
X10051774Y23894280D01*
X10018506Y23878545D01*
X9983857Y23866147D01*
X9948159Y23857206D01*
X9911756Y23851806D01*
X9875000Y23850000D01*
X9125000Y23850000D01*
X9088244Y23851806D01*
X9051841Y23857206D01*
X9016143Y23866147D01*
X8981494Y23878545D01*
X8948226Y23894280D01*
X8916661Y23913199D01*
X8887103Y23935121D01*
X8859835Y23959835D01*
X8835121Y23987103D01*
X8813199Y24016661D01*
X8794280Y24048226D01*
X8778545Y24081494D01*
X8766147Y24116143D01*
X8757206Y24151841D01*
X8751806Y24188244D01*
X8750000Y24225000D01*
X8750000Y25475000D01*
X8751806Y25511756D01*
X8757206Y25548159D01*
X8766147Y25583857D01*
X8778545Y25618506D01*
X8794280Y25651774D01*
X8813199Y25683339D01*
X8835121Y25712897D01*
X8859835Y25740165D01*
X8887103Y25764879D01*
X8916661Y25786801D01*
X8948226Y25805720D01*
X8981494Y25821455D01*
X9016143Y25833853D01*
X9051841Y25842794D01*
X9088244Y25848194D01*
X9125000Y25850000D01*
X9875000Y25850000D01*
X9911756Y25848194D01*
G37*
G04 #@! TD.AperFunction*
G04 #@! TA.AperFunction,SMDPad,CuDef*
G36*
X12911756Y25848194D02*
G01*
X12948159Y25842794D01*
X12983857Y25833853D01*
X13018506Y25821455D01*
X13051774Y25805720D01*
X13083339Y25786801D01*
X13112897Y25764879D01*
X13140165Y25740165D01*
X13164879Y25712897D01*
X13186801Y25683339D01*
X13205720Y25651774D01*
X13221455Y25618506D01*
X13233853Y25583857D01*
X13242794Y25548159D01*
X13248194Y25511756D01*
X13250000Y25475000D01*
X13250000Y24225000D01*
X13248194Y24188244D01*
X13242794Y24151841D01*
X13233853Y24116143D01*
X13221455Y24081494D01*
X13205720Y24048226D01*
X13186801Y24016661D01*
X13164879Y23987103D01*
X13140165Y23959835D01*
X13112897Y23935121D01*
X13083339Y23913199D01*
X13051774Y23894280D01*
X13018506Y23878545D01*
X12983857Y23866147D01*
X12948159Y23857206D01*
X12911756Y23851806D01*
X12875000Y23850000D01*
X12125000Y23850000D01*
X12088244Y23851806D01*
X12051841Y23857206D01*
X12016143Y23866147D01*
X11981494Y23878545D01*
X11948226Y23894280D01*
X11916661Y23913199D01*
X11887103Y23935121D01*
X11859835Y23959835D01*
X11835121Y23987103D01*
X11813199Y24016661D01*
X11794280Y24048226D01*
X11778545Y24081494D01*
X11766147Y24116143D01*
X11757206Y24151841D01*
X11751806Y24188244D01*
X11750000Y24225000D01*
X11750000Y25475000D01*
X11751806Y25511756D01*
X11757206Y25548159D01*
X11766147Y25583857D01*
X11778545Y25618506D01*
X11794280Y25651774D01*
X11813199Y25683339D01*
X11835121Y25712897D01*
X11859835Y25740165D01*
X11887103Y25764879D01*
X11916661Y25786801D01*
X11948226Y25805720D01*
X11981494Y25821455D01*
X12016143Y25833853D01*
X12051841Y25842794D01*
X12088244Y25848194D01*
X12125000Y25850000D01*
X12875000Y25850000D01*
X12911756Y25848194D01*
G37*
G04 #@! TD.AperFunction*
G04 #@! TA.AperFunction,SMDPad,CuDef*
G36*
X15911756Y25848194D02*
G01*
X15948159Y25842794D01*
X15983857Y25833853D01*
X16018506Y25821455D01*
X16051774Y25805720D01*
X16083339Y25786801D01*
X16112897Y25764879D01*
X16140165Y25740165D01*
X16164879Y25712897D01*
X16186801Y25683339D01*
X16205720Y25651774D01*
X16221455Y25618506D01*
X16233853Y25583857D01*
X16242794Y25548159D01*
X16248194Y25511756D01*
X16250000Y25475000D01*
X16250000Y24225000D01*
X16248194Y24188244D01*
X16242794Y24151841D01*
X16233853Y24116143D01*
X16221455Y24081494D01*
X16205720Y24048226D01*
X16186801Y24016661D01*
X16164879Y23987103D01*
X16140165Y23959835D01*
X16112897Y23935121D01*
X16083339Y23913199D01*
X16051774Y23894280D01*
X16018506Y23878545D01*
X15983857Y23866147D01*
X15948159Y23857206D01*
X15911756Y23851806D01*
X15875000Y23850000D01*
X15125000Y23850000D01*
X15088244Y23851806D01*
X15051841Y23857206D01*
X15016143Y23866147D01*
X14981494Y23878545D01*
X14948226Y23894280D01*
X14916661Y23913199D01*
X14887103Y23935121D01*
X14859835Y23959835D01*
X14835121Y23987103D01*
X14813199Y24016661D01*
X14794280Y24048226D01*
X14778545Y24081494D01*
X14766147Y24116143D01*
X14757206Y24151841D01*
X14751806Y24188244D01*
X14750000Y24225000D01*
X14750000Y25475000D01*
X14751806Y25511756D01*
X14757206Y25548159D01*
X14766147Y25583857D01*
X14778545Y25618506D01*
X14794280Y25651774D01*
X14813199Y25683339D01*
X14835121Y25712897D01*
X14859835Y25740165D01*
X14887103Y25764879D01*
X14916661Y25786801D01*
X14948226Y25805720D01*
X14981494Y25821455D01*
X15016143Y25833853D01*
X15051841Y25842794D01*
X15088244Y25848194D01*
X15125000Y25850000D01*
X15875000Y25850000D01*
X15911756Y25848194D01*
G37*
G04 #@! TD.AperFunction*
G04 #@! TA.AperFunction,SMDPad,CuDef*
G36*
X18911756Y25848194D02*
G01*
X18948159Y25842794D01*
X18983857Y25833853D01*
X19018506Y25821455D01*
X19051774Y25805720D01*
X19083339Y25786801D01*
X19112897Y25764879D01*
X19140165Y25740165D01*
X19164879Y25712897D01*
X19186801Y25683339D01*
X19205720Y25651774D01*
X19221455Y25618506D01*
X19233853Y25583857D01*
X19242794Y25548159D01*
X19248194Y25511756D01*
X19250000Y25475000D01*
X19250000Y24225000D01*
X19248194Y24188244D01*
X19242794Y24151841D01*
X19233853Y24116143D01*
X19221455Y24081494D01*
X19205720Y24048226D01*
X19186801Y24016661D01*
X19164879Y23987103D01*
X19140165Y23959835D01*
X19112897Y23935121D01*
X19083339Y23913199D01*
X19051774Y23894280D01*
X19018506Y23878545D01*
X18983857Y23866147D01*
X18948159Y23857206D01*
X18911756Y23851806D01*
X18875000Y23850000D01*
X18125000Y23850000D01*
X18088244Y23851806D01*
X18051841Y23857206D01*
X18016143Y23866147D01*
X17981494Y23878545D01*
X17948226Y23894280D01*
X17916661Y23913199D01*
X17887103Y23935121D01*
X17859835Y23959835D01*
X17835121Y23987103D01*
X17813199Y24016661D01*
X17794280Y24048226D01*
X17778545Y24081494D01*
X17766147Y24116143D01*
X17757206Y24151841D01*
X17751806Y24188244D01*
X17750000Y24225000D01*
X17750000Y25475000D01*
X17751806Y25511756D01*
X17757206Y25548159D01*
X17766147Y25583857D01*
X17778545Y25618506D01*
X17794280Y25651774D01*
X17813199Y25683339D01*
X17835121Y25712897D01*
X17859835Y25740165D01*
X17887103Y25764879D01*
X17916661Y25786801D01*
X17948226Y25805720D01*
X17981494Y25821455D01*
X18016143Y25833853D01*
X18051841Y25842794D01*
X18088244Y25848194D01*
X18125000Y25850000D01*
X18875000Y25850000D01*
X18911756Y25848194D01*
G37*
G04 #@! TD.AperFunction*
G04 #@! TA.AperFunction,SMDPad,CuDef*
G36*
X21911756Y25848194D02*
G01*
X21948159Y25842794D01*
X21983857Y25833853D01*
X22018506Y25821455D01*
X22051774Y25805720D01*
X22083339Y25786801D01*
X22112897Y25764879D01*
X22140165Y25740165D01*
X22164879Y25712897D01*
X22186801Y25683339D01*
X22205720Y25651774D01*
X22221455Y25618506D01*
X22233853Y25583857D01*
X22242794Y25548159D01*
X22248194Y25511756D01*
X22250000Y25475000D01*
X22250000Y24225000D01*
X22248194Y24188244D01*
X22242794Y24151841D01*
X22233853Y24116143D01*
X22221455Y24081494D01*
X22205720Y24048226D01*
X22186801Y24016661D01*
X22164879Y23987103D01*
X22140165Y23959835D01*
X22112897Y23935121D01*
X22083339Y23913199D01*
X22051774Y23894280D01*
X22018506Y23878545D01*
X21983857Y23866147D01*
X21948159Y23857206D01*
X21911756Y23851806D01*
X21875000Y23850000D01*
X21125000Y23850000D01*
X21088244Y23851806D01*
X21051841Y23857206D01*
X21016143Y23866147D01*
X20981494Y23878545D01*
X20948226Y23894280D01*
X20916661Y23913199D01*
X20887103Y23935121D01*
X20859835Y23959835D01*
X20835121Y23987103D01*
X20813199Y24016661D01*
X20794280Y24048226D01*
X20778545Y24081494D01*
X20766147Y24116143D01*
X20757206Y24151841D01*
X20751806Y24188244D01*
X20750000Y24225000D01*
X20750000Y25475000D01*
X20751806Y25511756D01*
X20757206Y25548159D01*
X20766147Y25583857D01*
X20778545Y25618506D01*
X20794280Y25651774D01*
X20813199Y25683339D01*
X20835121Y25712897D01*
X20859835Y25740165D01*
X20887103Y25764879D01*
X20916661Y25786801D01*
X20948226Y25805720D01*
X20981494Y25821455D01*
X21016143Y25833853D01*
X21051841Y25842794D01*
X21088244Y25848194D01*
X21125000Y25850000D01*
X21875000Y25850000D01*
X21911756Y25848194D01*
G37*
G04 #@! TD.AperFunction*
G04 #@! TA.AperFunction,SMDPad,CuDef*
G36*
X24911756Y25848194D02*
G01*
X24948159Y25842794D01*
X24983857Y25833853D01*
X25018506Y25821455D01*
X25051774Y25805720D01*
X25083339Y25786801D01*
X25112897Y25764879D01*
X25140165Y25740165D01*
X25164879Y25712897D01*
X25186801Y25683339D01*
X25205720Y25651774D01*
X25221455Y25618506D01*
X25233853Y25583857D01*
X25242794Y25548159D01*
X25248194Y25511756D01*
X25250000Y25475000D01*
X25250000Y24225000D01*
X25248194Y24188244D01*
X25242794Y24151841D01*
X25233853Y24116143D01*
X25221455Y24081494D01*
X25205720Y24048226D01*
X25186801Y24016661D01*
X25164879Y23987103D01*
X25140165Y23959835D01*
X25112897Y23935121D01*
X25083339Y23913199D01*
X25051774Y23894280D01*
X25018506Y23878545D01*
X24983857Y23866147D01*
X24948159Y23857206D01*
X24911756Y23851806D01*
X24875000Y23850000D01*
X24125000Y23850000D01*
X24088244Y23851806D01*
X24051841Y23857206D01*
X24016143Y23866147D01*
X23981494Y23878545D01*
X23948226Y23894280D01*
X23916661Y23913199D01*
X23887103Y23935121D01*
X23859835Y23959835D01*
X23835121Y23987103D01*
X23813199Y24016661D01*
X23794280Y24048226D01*
X23778545Y24081494D01*
X23766147Y24116143D01*
X23757206Y24151841D01*
X23751806Y24188244D01*
X23750000Y24225000D01*
X23750000Y25475000D01*
X23751806Y25511756D01*
X23757206Y25548159D01*
X23766147Y25583857D01*
X23778545Y25618506D01*
X23794280Y25651774D01*
X23813199Y25683339D01*
X23835121Y25712897D01*
X23859835Y25740165D01*
X23887103Y25764879D01*
X23916661Y25786801D01*
X23948226Y25805720D01*
X23981494Y25821455D01*
X24016143Y25833853D01*
X24051841Y25842794D01*
X24088244Y25848194D01*
X24125000Y25850000D01*
X24875000Y25850000D01*
X24911756Y25848194D01*
G37*
G04 #@! TD.AperFunction*
G04 #@! TA.AperFunction,SMDPad,CuDef*
G36*
X27911756Y25848194D02*
G01*
X27948159Y25842794D01*
X27983857Y25833853D01*
X28018506Y25821455D01*
X28051774Y25805720D01*
X28083339Y25786801D01*
X28112897Y25764879D01*
X28140165Y25740165D01*
X28164879Y25712897D01*
X28186801Y25683339D01*
X28205720Y25651774D01*
X28221455Y25618506D01*
X28233853Y25583857D01*
X28242794Y25548159D01*
X28248194Y25511756D01*
X28250000Y25475000D01*
X28250000Y24225000D01*
X28248194Y24188244D01*
X28242794Y24151841D01*
X28233853Y24116143D01*
X28221455Y24081494D01*
X28205720Y24048226D01*
X28186801Y24016661D01*
X28164879Y23987103D01*
X28140165Y23959835D01*
X28112897Y23935121D01*
X28083339Y23913199D01*
X28051774Y23894280D01*
X28018506Y23878545D01*
X27983857Y23866147D01*
X27948159Y23857206D01*
X27911756Y23851806D01*
X27875000Y23850000D01*
X27125000Y23850000D01*
X27088244Y23851806D01*
X27051841Y23857206D01*
X27016143Y23866147D01*
X26981494Y23878545D01*
X26948226Y23894280D01*
X26916661Y23913199D01*
X26887103Y23935121D01*
X26859835Y23959835D01*
X26835121Y23987103D01*
X26813199Y24016661D01*
X26794280Y24048226D01*
X26778545Y24081494D01*
X26766147Y24116143D01*
X26757206Y24151841D01*
X26751806Y24188244D01*
X26750000Y24225000D01*
X26750000Y25475000D01*
X26751806Y25511756D01*
X26757206Y25548159D01*
X26766147Y25583857D01*
X26778545Y25618506D01*
X26794280Y25651774D01*
X26813199Y25683339D01*
X26835121Y25712897D01*
X26859835Y25740165D01*
X26887103Y25764879D01*
X26916661Y25786801D01*
X26948226Y25805720D01*
X26981494Y25821455D01*
X27016143Y25833853D01*
X27051841Y25842794D01*
X27088244Y25848194D01*
X27125000Y25850000D01*
X27875000Y25850000D01*
X27911756Y25848194D01*
G37*
G04 #@! TD.AperFunction*
G04 #@! TA.AperFunction,SMDPad,CuDef*
G36*
X13461756Y12998194D02*
G01*
X13498159Y12992794D01*
X13533857Y12983853D01*
X13568506Y12971455D01*
X13601774Y12955720D01*
X13633339Y12936801D01*
X13662897Y12914879D01*
X13690165Y12890165D01*
X13714879Y12862897D01*
X13736801Y12833339D01*
X13755720Y12801774D01*
X13771455Y12768506D01*
X13783853Y12733857D01*
X13792794Y12698159D01*
X13798194Y12661756D01*
X13800000Y12625000D01*
X13800000Y11875000D01*
X13798194Y11838244D01*
X13792794Y11801841D01*
X13783853Y11766143D01*
X13771455Y11731494D01*
X13755720Y11698226D01*
X13736801Y11666661D01*
X13714879Y11637103D01*
X13690165Y11609835D01*
X13662897Y11585121D01*
X13633339Y11563199D01*
X13601774Y11544280D01*
X13568506Y11528545D01*
X13533857Y11516147D01*
X13498159Y11507206D01*
X13461756Y11501806D01*
X13425000Y11500000D01*
X12175000Y11500000D01*
X12138244Y11501806D01*
X12101841Y11507206D01*
X12066143Y11516147D01*
X12031494Y11528545D01*
X11998226Y11544280D01*
X11966661Y11563199D01*
X11937103Y11585121D01*
X11909835Y11609835D01*
X11885121Y11637103D01*
X11863199Y11666661D01*
X11844280Y11698226D01*
X11828545Y11731494D01*
X11816147Y11766143D01*
X11807206Y11801841D01*
X11801806Y11838244D01*
X11800000Y11875000D01*
X11800000Y12625000D01*
X11801806Y12661756D01*
X11807206Y12698159D01*
X11816147Y12733857D01*
X11828545Y12768506D01*
X11844280Y12801774D01*
X11863199Y12833339D01*
X11885121Y12862897D01*
X11909835Y12890165D01*
X11937103Y12914879D01*
X11966661Y12936801D01*
X11998226Y12955720D01*
X12031494Y12971455D01*
X12066143Y12983853D01*
X12101841Y12992794D01*
X12138244Y12998194D01*
X12175000Y13000000D01*
X13425000Y13000000D01*
X13461756Y12998194D01*
G37*
G04 #@! TD.AperFunction*
G04 #@! TA.AperFunction,SMDPad,CuDef*
G36*
X7411756Y15048194D02*
G01*
X7448159Y15042794D01*
X7483857Y15033853D01*
X7518506Y15021455D01*
X7551774Y15005720D01*
X7583339Y14986801D01*
X7612897Y14964879D01*
X7640165Y14940165D01*
X7664879Y14912897D01*
X7686801Y14883339D01*
X7705720Y14851774D01*
X7721455Y14818506D01*
X7733853Y14783857D01*
X7742794Y14748159D01*
X7748194Y14711756D01*
X7750000Y14675000D01*
X7750000Y13425000D01*
X7748194Y13388244D01*
X7742794Y13351841D01*
X7733853Y13316143D01*
X7721455Y13281494D01*
X7705720Y13248226D01*
X7686801Y13216661D01*
X7664879Y13187103D01*
X7640165Y13159835D01*
X7612897Y13135121D01*
X7583339Y13113199D01*
X7551774Y13094280D01*
X7518506Y13078545D01*
X7483857Y13066147D01*
X7448159Y13057206D01*
X7411756Y13051806D01*
X7375000Y13050000D01*
X6625000Y13050000D01*
X6588244Y13051806D01*
X6551841Y13057206D01*
X6516143Y13066147D01*
X6481494Y13078545D01*
X6448226Y13094280D01*
X6416661Y13113199D01*
X6387103Y13135121D01*
X6359835Y13159835D01*
X6335121Y13187103D01*
X6313199Y13216661D01*
X6294280Y13248226D01*
X6278545Y13281494D01*
X6266147Y13316143D01*
X6257206Y13351841D01*
X6251806Y13388244D01*
X6250000Y13425000D01*
X6250000Y14675000D01*
X6251806Y14711756D01*
X6257206Y14748159D01*
X6266147Y14783857D01*
X6278545Y14818506D01*
X6294280Y14851774D01*
X6313199Y14883339D01*
X6335121Y14912897D01*
X6359835Y14940165D01*
X6387103Y14964879D01*
X6416661Y14986801D01*
X6448226Y15005720D01*
X6481494Y15021455D01*
X6516143Y15033853D01*
X6551841Y15042794D01*
X6588244Y15048194D01*
X6625000Y15050000D01*
X7375000Y15050000D01*
X7411756Y15048194D01*
G37*
G04 #@! TD.AperFunction*
G04 #@! TA.AperFunction,SMDPad,CuDef*
G36*
X6361756Y16998194D02*
G01*
X6398159Y16992794D01*
X6433857Y16983853D01*
X6468506Y16971455D01*
X6501774Y16955720D01*
X6533339Y16936801D01*
X6562897Y16914879D01*
X6590165Y16890165D01*
X6614879Y16862897D01*
X6636801Y16833339D01*
X6655720Y16801774D01*
X6671455Y16768506D01*
X6683853Y16733857D01*
X6692794Y16698159D01*
X6698194Y16661756D01*
X6700000Y16625000D01*
X6700000Y15875000D01*
X6698194Y15838244D01*
X6692794Y15801841D01*
X6683853Y15766143D01*
X6671455Y15731494D01*
X6655720Y15698226D01*
X6636801Y15666661D01*
X6614879Y15637103D01*
X6590165Y15609835D01*
X6562897Y15585121D01*
X6533339Y15563199D01*
X6501774Y15544280D01*
X6468506Y15528545D01*
X6433857Y15516147D01*
X6398159Y15507206D01*
X6361756Y15501806D01*
X6325000Y15500000D01*
X5075000Y15500000D01*
X5038244Y15501806D01*
X5001841Y15507206D01*
X4966143Y15516147D01*
X4931494Y15528545D01*
X4898226Y15544280D01*
X4866661Y15563199D01*
X4837103Y15585121D01*
X4809835Y15609835D01*
X4785121Y15637103D01*
X4763199Y15666661D01*
X4744280Y15698226D01*
X4728545Y15731494D01*
X4716147Y15766143D01*
X4707206Y15801841D01*
X4701806Y15838244D01*
X4700000Y15875000D01*
X4700000Y16625000D01*
X4701806Y16661756D01*
X4707206Y16698159D01*
X4716147Y16733857D01*
X4728545Y16768506D01*
X4744280Y16801774D01*
X4763199Y16833339D01*
X4785121Y16862897D01*
X4809835Y16890165D01*
X4837103Y16914879D01*
X4866661Y16936801D01*
X4898226Y16955720D01*
X4931494Y16971455D01*
X4966143Y16983853D01*
X5001841Y16992794D01*
X5038244Y16998194D01*
X5075000Y17000000D01*
X6325000Y17000000D01*
X6361756Y16998194D01*
G37*
G04 #@! TD.AperFunction*
G04 #@! TA.AperFunction,SMDPad,CuDef*
G36*
X17661756Y4498194D02*
G01*
X17698159Y4492794D01*
X17733857Y4483853D01*
X17768506Y4471455D01*
X17801774Y4455720D01*
X17833339Y4436801D01*
X17862897Y4414879D01*
X17890165Y4390165D01*
X17914879Y4362897D01*
X17936801Y4333339D01*
X17955720Y4301774D01*
X17971455Y4268506D01*
X17983853Y4233857D01*
X17992794Y4198159D01*
X17998194Y4161756D01*
X18000000Y4125000D01*
X18000000Y3375000D01*
X17998194Y3338244D01*
X17992794Y3301841D01*
X17983853Y3266143D01*
X17971455Y3231494D01*
X17955720Y3198226D01*
X17936801Y3166661D01*
X17914879Y3137103D01*
X17890165Y3109835D01*
X17862897Y3085121D01*
X17833339Y3063199D01*
X17801774Y3044280D01*
X17768506Y3028545D01*
X17733857Y3016147D01*
X17698159Y3007206D01*
X17661756Y3001806D01*
X17625000Y3000000D01*
X16375000Y3000000D01*
X16338244Y3001806D01*
X16301841Y3007206D01*
X16266143Y3016147D01*
X16231494Y3028545D01*
X16198226Y3044280D01*
X16166661Y3063199D01*
X16137103Y3085121D01*
X16109835Y3109835D01*
X16085121Y3137103D01*
X16063199Y3166661D01*
X16044280Y3198226D01*
X16028545Y3231494D01*
X16016147Y3266143D01*
X16007206Y3301841D01*
X16001806Y3338244D01*
X16000000Y3375000D01*
X16000000Y4125000D01*
X16001806Y4161756D01*
X16007206Y4198159D01*
X16016147Y4233857D01*
X16028545Y4268506D01*
X16044280Y4301774D01*
X16063199Y4333339D01*
X16085121Y4362897D01*
X16109835Y4390165D01*
X16137103Y4414879D01*
X16166661Y4436801D01*
X16198226Y4455720D01*
X16231494Y4471455D01*
X16266143Y4483853D01*
X16301841Y4492794D01*
X16338244Y4498194D01*
X16375000Y4500000D01*
X17625000Y4500000D01*
X17661756Y4498194D01*
G37*
G04 #@! TD.AperFunction*
G04 #@! TA.AperFunction,SMDPad,CuDef*
G36*
X13461756Y4998194D02*
G01*
X13498159Y4992794D01*
X13533857Y4983853D01*
X13568506Y4971455D01*
X13601774Y4955720D01*
X13633339Y4936801D01*
X13662897Y4914879D01*
X13690165Y4890165D01*
X13714879Y4862897D01*
X13736801Y4833339D01*
X13755720Y4801774D01*
X13771455Y4768506D01*
X13783853Y4733857D01*
X13792794Y4698159D01*
X13798194Y4661756D01*
X13800000Y4625000D01*
X13800000Y3875000D01*
X13798194Y3838244D01*
X13792794Y3801841D01*
X13783853Y3766143D01*
X13771455Y3731494D01*
X13755720Y3698226D01*
X13736801Y3666661D01*
X13714879Y3637103D01*
X13690165Y3609835D01*
X13662897Y3585121D01*
X13633339Y3563199D01*
X13601774Y3544280D01*
X13568506Y3528545D01*
X13533857Y3516147D01*
X13498159Y3507206D01*
X13461756Y3501806D01*
X13425000Y3500000D01*
X12175000Y3500000D01*
X12138244Y3501806D01*
X12101841Y3507206D01*
X12066143Y3516147D01*
X12031494Y3528545D01*
X11998226Y3544280D01*
X11966661Y3563199D01*
X11937103Y3585121D01*
X11909835Y3609835D01*
X11885121Y3637103D01*
X11863199Y3666661D01*
X11844280Y3698226D01*
X11828545Y3731494D01*
X11816147Y3766143D01*
X11807206Y3801841D01*
X11801806Y3838244D01*
X11800000Y3875000D01*
X11800000Y4625000D01*
X11801806Y4661756D01*
X11807206Y4698159D01*
X11816147Y4733857D01*
X11828545Y4768506D01*
X11844280Y4801774D01*
X11863199Y4833339D01*
X11885121Y4862897D01*
X11909835Y4890165D01*
X11937103Y4914879D01*
X11966661Y4936801D01*
X11998226Y4955720D01*
X12031494Y4971455D01*
X12066143Y4983853D01*
X12101841Y4992794D01*
X12138244Y4998194D01*
X12175000Y5000000D01*
X13425000Y5000000D01*
X13461756Y4998194D01*
G37*
G04 #@! TD.AperFunction*
D11*
X2500000Y16250000D03*
D12*
X2500000Y13710000D03*
D11*
X2500000Y20750000D03*
D12*
X2500000Y23290000D03*
X2500000Y25830000D03*
X2500000Y28370000D03*
D11*
X27500000Y15250000D03*
D12*
X27500000Y12710000D03*
X27500000Y10170000D03*
X27500000Y7630000D03*
X27500000Y5090000D03*
X27500000Y2550000D03*
D11*
X9500000Y20250000D03*
D12*
X12040000Y20250000D03*
X14580000Y20250000D03*
X17120000Y20250000D03*
X19660000Y20250000D03*
X22200000Y20250000D03*
X24740000Y20250000D03*
X27280000Y20250000D03*
D13*
X16575000Y14200000D03*
X17225000Y14200000D03*
X17875000Y14200000D03*
X18525000Y14200000D03*
X19175000Y14200000D03*
X19825000Y14200000D03*
X20475000Y14200000D03*
X21125000Y14200000D03*
X21775000Y14200000D03*
X22425000Y14200000D03*
X22425000Y8300000D03*
X21775000Y8300000D03*
X21125000Y8300000D03*
X20475000Y8300000D03*
X19825000Y8300000D03*
X19175000Y8300000D03*
X18525000Y8300000D03*
X17875000Y8300000D03*
X17225000Y8300000D03*
X16575000Y8300000D03*
D14*
X15500000Y6750000D03*
X23000000Y1750000D03*
X9000000Y3750000D03*
X2000000Y18500000D03*
X4445000Y29275000D03*
X28500000Y17750000D03*
X4500000Y12250000D03*
X15000000Y15749996D03*
X23500000Y18249990D03*
X23499999Y16750000D03*
X23500000Y15249996D03*
X24000000Y10250000D03*
X24000000Y7749990D03*
X24000000Y6250016D03*
D15*
X13800000Y12250000D02*
X12800000Y12250000D01*
X14400000Y12250000D02*
X13800000Y12250000D01*
X17225000Y9425000D02*
X14400000Y12250000D01*
X17225000Y8300000D02*
X17225000Y9425000D01*
X16065685Y6750000D02*
X15500000Y6750000D01*
X16575000Y7175000D02*
X16150000Y6750000D01*
X16575000Y8300000D02*
X16575000Y7175000D01*
X16150000Y6750000D02*
X16065685Y6750000D01*
D16*
X2500000Y16250000D02*
X5700000Y16250000D01*
X5700000Y15350000D02*
X7000000Y14050000D01*
X5700000Y16250000D02*
X5700000Y15350000D01*
X6250000Y14050000D02*
X4500000Y12300000D01*
X7000000Y14050000D02*
X6250000Y14050000D01*
X4500000Y12300000D02*
X4500000Y12250000D01*
D15*
X4500000Y23830000D02*
X2500000Y25830000D01*
X19175000Y9923542D02*
X14348543Y14750000D01*
X19175000Y8300000D02*
X19175000Y9923542D01*
X14348543Y14750000D02*
X12000000Y14750000D01*
X12000000Y14750000D02*
X4500000Y22250000D01*
X4500000Y22250000D02*
X4500000Y23830000D01*
X17000000Y3750000D02*
X19500000Y3750000D01*
X19175000Y4075000D02*
X19500000Y3750000D01*
X19175000Y8300000D02*
X19175000Y4075000D01*
X13500000Y4250000D02*
X12800000Y4250000D01*
X14500000Y5250000D02*
X13500000Y4250000D01*
X17875000Y8300000D02*
X17875000Y7125000D01*
X16000000Y5250000D02*
X14500000Y5250000D01*
X17875000Y7125000D02*
X16000000Y5250000D01*
X15950000Y14200000D02*
X15000000Y15150000D01*
X15000000Y15150000D02*
X15000000Y15749996D01*
X16575000Y14200000D02*
X15950000Y14200000D01*
X2611457Y23290000D02*
X2500000Y23290000D01*
X14100011Y14149989D02*
X11751468Y14149989D01*
X18525000Y8300000D02*
X18525000Y9725000D01*
X11751468Y14149989D02*
X2611457Y23290000D01*
X18525000Y9725000D02*
X14100011Y14149989D01*
X21125000Y14200000D02*
X21125000Y16582096D01*
X22792894Y18249990D02*
X23500000Y18249990D01*
X21125000Y16582096D02*
X22792894Y18249990D01*
X21775000Y15732107D02*
X22792893Y16750000D01*
X21775000Y14200000D02*
X21775000Y15732107D01*
X22792893Y16750000D02*
X23499999Y16750000D01*
X23500000Y14650000D02*
X23500000Y15249996D01*
X23050000Y14200000D02*
X23500000Y14650000D01*
X22425000Y14200000D02*
X23050000Y14200000D01*
X23250000Y10250000D02*
X23434315Y10250000D01*
X22425000Y9425000D02*
X23250000Y10250000D01*
X23434315Y10250000D02*
X24000000Y10250000D01*
X22425000Y8300000D02*
X22425000Y9425000D01*
X21775000Y7175000D02*
X22099999Y6850001D01*
X23600001Y7349991D02*
X24000000Y7749990D01*
X21775000Y8300000D02*
X21775000Y7175000D01*
X23100011Y6850001D02*
X23600001Y7349991D01*
X22099999Y6850001D02*
X23100011Y6850001D01*
X21125000Y8300000D02*
X21125000Y6550729D01*
X21125000Y6550729D02*
X21825712Y5850017D01*
X23600001Y5850017D02*
X24000000Y6250016D01*
X21825712Y5850017D02*
X23600001Y5850017D01*
D16*
X8500000Y21250000D02*
X9500000Y20250000D01*
X7500000Y22250000D02*
X8500000Y21250000D01*
X6500000Y24983002D02*
X7500000Y23983002D01*
X7500000Y23983002D02*
X7500000Y22250000D01*
D15*
X9500000Y20250000D02*
X9500000Y19000000D01*
X9500000Y19000000D02*
X10649989Y17850011D01*
X17225000Y15325000D02*
X17225000Y14200000D01*
X14699989Y17850011D02*
X17225000Y15325000D01*
X10649989Y17850011D02*
X14699989Y17850011D01*
D16*
X10500000Y21790000D02*
X12040000Y20250000D01*
X9500000Y24850000D02*
X10250000Y24850000D01*
X10500000Y24600000D02*
X10500000Y21790000D01*
X10250000Y24850000D02*
X10500000Y24600000D01*
D15*
X17875000Y15325000D02*
X17875000Y14200000D01*
X17875000Y15723542D02*
X17875000Y15325000D01*
X14598543Y18999999D02*
X17875000Y15723542D01*
X13290001Y18999999D02*
X14598543Y18999999D01*
X12040000Y20250000D02*
X13290001Y18999999D01*
D16*
X14580000Y20372081D02*
X14580000Y20250000D01*
X13500000Y21452081D02*
X14580000Y20372081D01*
X13500000Y24600000D02*
X13500000Y21452081D01*
X12500000Y24850000D02*
X13250000Y24850000D01*
X13250000Y24850000D02*
X13500000Y24600000D01*
D15*
X18525000Y16305000D02*
X18525000Y14200000D01*
X14580000Y20250000D02*
X18525000Y16305000D01*
D16*
X16500000Y23980000D02*
X16500000Y20870000D01*
X16500000Y20870000D02*
X17120000Y20250000D01*
X15500000Y24850000D02*
X15630000Y24850000D01*
X15630000Y24850000D02*
X16500000Y23980000D01*
D15*
X19175000Y18195000D02*
X19175000Y14200000D01*
X17120000Y20250000D02*
X19175000Y18195000D01*
D16*
X18633002Y24850000D02*
X19500000Y23983002D01*
X18500000Y24850000D02*
X18633002Y24850000D01*
X19500000Y23983002D02*
X19500000Y22250000D01*
X19500000Y22250000D02*
X19660000Y22090000D01*
X19660000Y22090000D02*
X19660000Y20250000D01*
D15*
X19825000Y14575000D02*
X19800001Y14550001D01*
X19660000Y20250000D02*
X19825000Y20085000D01*
X19825000Y20085000D02*
X19825000Y14575000D01*
X19800001Y14224999D02*
X19825000Y14200000D01*
X19800001Y14550001D02*
X19800001Y14224999D01*
D16*
X22500000Y24600000D02*
X22500000Y20550000D01*
X22500000Y20550000D02*
X22200000Y20250000D01*
X21500000Y24850000D02*
X22250000Y24850000D01*
X22250000Y24850000D02*
X22500000Y24600000D01*
D15*
X20475000Y18525000D02*
X20475000Y14200000D01*
X22200000Y20250000D02*
X20475000Y18525000D01*
D16*
X25500000Y24600000D02*
X25500000Y21010000D01*
X24500000Y24850000D02*
X25250000Y24850000D01*
X25500000Y21010000D02*
X24740000Y20250000D01*
X25250000Y24850000D02*
X25500000Y24600000D01*
D15*
X20475000Y10392998D02*
X20475000Y9425000D01*
X24740000Y20250000D02*
X24740000Y14657998D01*
X20475000Y9425000D02*
X20475000Y8300000D01*
X24740000Y14657998D02*
X20475000Y10392998D01*
D16*
X28129999Y21099999D02*
X27280000Y20250000D01*
X28350001Y24749999D02*
X28350001Y21320001D01*
X28250000Y24850000D02*
X28350001Y24749999D01*
X28350001Y21320001D02*
X28129999Y21099999D01*
X27500000Y24850000D02*
X28250000Y24850000D01*
D15*
X25500000Y6065948D02*
X24384001Y4949949D01*
X24384001Y4949949D02*
X21616047Y4949949D01*
X19825000Y7175000D02*
X19825000Y8300000D01*
X25500012Y14569467D02*
X25500000Y14569455D01*
X21616047Y4949949D02*
X19825000Y6740996D01*
X19825000Y6740996D02*
X19825000Y7175000D01*
X25500012Y18470012D02*
X25500012Y14569467D01*
X25500000Y14569455D02*
X25500000Y6065948D01*
X27280000Y20250000D02*
X25500012Y18470012D01*
D10*
G36*
X29825000Y15375246D02*
G01*
X29701421Y175000D01*
X175000Y175000D01*
X175000Y7599156D01*
X15797867Y7599156D01*
X15803764Y7490976D01*
X15830652Y7386025D01*
X15877498Y7288336D01*
X15942502Y7201664D01*
X16023167Y7129339D01*
X16116391Y7074140D01*
X16218593Y7038189D01*
X16262500Y7025000D01*
X16400000Y7162500D01*
X16400000Y8100000D01*
X15937500Y8100000D01*
X15800000Y7962500D01*
X15797867Y7599156D01*
X175000Y7599156D01*
X175000Y13295700D01*
X1162705Y13295700D01*
X1261429Y13057339D01*
X1412556Y12828247D01*
X1605472Y12633040D01*
X1832765Y12479220D01*
X2085699Y12372698D01*
X2300000Y12461851D01*
X2300000Y13510000D01*
X2700000Y13510000D01*
X2700000Y12461851D01*
X2914301Y12372698D01*
X3167235Y12479220D01*
X3394528Y12633040D01*
X3587444Y12828247D01*
X3738571Y13057339D01*
X3837295Y13295700D01*
X3746558Y13510000D01*
X2700000Y13510000D01*
X2300000Y13510000D01*
X1253442Y13510000D01*
X1162705Y13295700D01*
X175000Y13295700D01*
X175000Y14124300D01*
X1162705Y14124300D01*
X1253442Y13910000D01*
X2300000Y13910000D01*
X2300000Y14958149D01*
X2700000Y14958149D01*
X2700000Y13910000D01*
X3746558Y13910000D01*
X3837295Y14124300D01*
X3738571Y14362661D01*
X3587444Y14591753D01*
X3394528Y14786960D01*
X3167235Y14940780D01*
X2914301Y15047302D01*
X2700000Y14958149D01*
X2300000Y14958149D01*
X2085699Y15047302D01*
X1832765Y14940780D01*
X1605472Y14786960D01*
X1412556Y14591753D01*
X1261429Y14362661D01*
X1162705Y14124300D01*
X175000Y14124300D01*
X175000Y17100000D01*
X1398791Y17100000D01*
X1398791Y15400000D01*
X1403618Y15350992D01*
X1417913Y15303866D01*
X1441127Y15260436D01*
X1472368Y15222368D01*
X1510436Y15191127D01*
X1553866Y15167913D01*
X1600992Y15153618D01*
X1650000Y15148791D01*
X3350000Y15148791D01*
X3399008Y15153618D01*
X3446134Y15167913D01*
X3489564Y15191127D01*
X3527632Y15222368D01*
X3558873Y15260436D01*
X3582087Y15303866D01*
X3596382Y15350992D01*
X3601209Y15400000D01*
X3601209Y15700000D01*
X4476850Y15700000D01*
X4496458Y15635360D01*
X4554326Y15527097D01*
X4632203Y15432203D01*
X4727097Y15354326D01*
X4835360Y15296458D01*
X4952833Y15260823D01*
X5075000Y15248791D01*
X5157308Y15248791D01*
X5157959Y15242181D01*
X5170095Y15202176D01*
X5189409Y15138506D01*
X5240479Y15042958D01*
X5291987Y14980196D01*
X5291993Y14980190D01*
X5309211Y14959210D01*
X5330191Y14941992D01*
X5846671Y14425512D01*
X5841987Y14419804D01*
X4421203Y12999020D01*
X4281233Y12971178D01*
X4144742Y12914641D01*
X4021903Y12832563D01*
X3917437Y12728097D01*
X3835359Y12605258D01*
X3778822Y12468767D01*
X3750000Y12323869D01*
X3750000Y12176131D01*
X3778822Y12031233D01*
X3835359Y11894742D01*
X3917437Y11771903D01*
X4021903Y11667437D01*
X4144742Y11585359D01*
X4281233Y11528822D01*
X4426131Y11500000D01*
X4573869Y11500000D01*
X4718767Y11528822D01*
X4855258Y11585359D01*
X4978097Y11667437D01*
X5082563Y11771903D01*
X5164641Y11894742D01*
X5221178Y12031233D01*
X5250000Y12176131D01*
X5250000Y12272183D01*
X6000000Y13022183D01*
X6000000Y12400000D01*
X6001644Y12383230D01*
X6001890Y12366378D01*
X6004494Y12354164D01*
X6005713Y12341730D01*
X6010585Y12325594D01*
X6014098Y12309115D01*
X6015395Y12305132D01*
X6115395Y12005131D01*
X6118991Y11997066D01*
X6121454Y11988590D01*
X6130888Y11970390D01*
X6139242Y11951658D01*
X6144338Y11944443D01*
X6148399Y11936609D01*
X6161186Y11920590D01*
X6173021Y11903835D01*
X6179419Y11897750D01*
X6184926Y11890851D01*
X6187868Y11887868D01*
X6387868Y11687868D01*
X6394913Y11682081D01*
X6401116Y11675400D01*
X6417486Y11663539D01*
X6433111Y11650704D01*
X6441146Y11646396D01*
X6448528Y11641047D01*
X6466893Y11632591D01*
X6484711Y11623037D01*
X6493431Y11620371D01*
X6501710Y11616559D01*
X6521367Y11611830D01*
X6540703Y11605919D01*
X6549770Y11604998D01*
X6558637Y11602865D01*
X6562790Y11602317D01*
X6962790Y11552317D01*
X6968692Y11552160D01*
X6974505Y11551085D01*
X6997917Y11551381D01*
X7021318Y11550758D01*
X7027144Y11551751D01*
X7033050Y11551826D01*
X7037210Y11552317D01*
X7437211Y11602317D01*
X7446106Y11604326D01*
X7455185Y11605120D01*
X7474590Y11610757D01*
X7494322Y11615213D01*
X7502658Y11618911D01*
X7511410Y11621454D01*
X7529358Y11630758D01*
X7547841Y11638958D01*
X7555299Y11644204D01*
X7563391Y11648399D01*
X7579193Y11661013D01*
X7595728Y11672645D01*
X7602021Y11679236D01*
X7609149Y11684926D01*
X7612132Y11687868D01*
X7812132Y11887868D01*
X7817735Y11894690D01*
X7824218Y11900685D01*
X7836277Y11917261D01*
X7849296Y11933111D01*
X7853471Y11940898D01*
X7858661Y11948032D01*
X7867270Y11966634D01*
X7876963Y11984711D01*
X7879544Y11993153D01*
X7883253Y12001167D01*
X7884605Y12005132D01*
X7984605Y12305132D01*
X7988349Y12321564D01*
X7993444Y12337626D01*
X7994836Y12350034D01*
X7997612Y12362218D01*
X7998093Y12379068D01*
X7999971Y12395811D01*
X8000000Y12400000D01*
X8000000Y13412724D01*
X8001209Y13425000D01*
X8001209Y14675000D01*
X7989177Y14797167D01*
X7953542Y14914640D01*
X7895674Y15022903D01*
X7817797Y15117797D01*
X7722903Y15195674D01*
X7614640Y15253542D01*
X7507139Y15286152D01*
X7744869Y15365395D01*
X7752934Y15368991D01*
X7761410Y15371454D01*
X7779610Y15380888D01*
X7798342Y15389242D01*
X7805557Y15394338D01*
X7813391Y15398399D01*
X7829410Y15411186D01*
X7846165Y15423021D01*
X7852250Y15429419D01*
X7859149Y15434926D01*
X7862132Y15437868D01*
X8062132Y15637868D01*
X8067919Y15644913D01*
X8074600Y15651116D01*
X8086461Y15667486D01*
X8099296Y15683111D01*
X8103604Y15691146D01*
X8108953Y15698528D01*
X8117409Y15716893D01*
X8126963Y15734711D01*
X8129629Y15743431D01*
X8133441Y15751710D01*
X8138170Y15771367D01*
X8144081Y15790703D01*
X8145002Y15799770D01*
X8147135Y15808637D01*
X8147683Y15812790D01*
X8197683Y16212790D01*
X8197840Y16218691D01*
X8198915Y16224505D01*
X8198619Y16247917D01*
X8199242Y16271318D01*
X8198249Y16277144D01*
X8198174Y16283050D01*
X8197683Y16287210D01*
X8147683Y16687210D01*
X8145676Y16696098D01*
X8144881Y16705185D01*
X8139239Y16724607D01*
X8134787Y16744322D01*
X8131091Y16752651D01*
X8128547Y16761410D01*
X8119236Y16779371D01*
X8111042Y16797841D01*
X8105800Y16805293D01*
X8101602Y16813391D01*
X8088982Y16829200D01*
X8077355Y16845728D01*
X8070765Y16852020D01*
X8065074Y16859149D01*
X8062132Y16862132D01*
X7862132Y17062132D01*
X7855312Y17067734D01*
X7849315Y17074218D01*
X7832729Y17086284D01*
X7816889Y17099295D01*
X7809110Y17103466D01*
X7801969Y17108661D01*
X7783358Y17117275D01*
X7765289Y17126963D01*
X7756848Y17129544D01*
X7748833Y17133253D01*
X7744869Y17134605D01*
X7444868Y17234605D01*
X7428436Y17238349D01*
X7412374Y17243444D01*
X7399966Y17244836D01*
X7387782Y17247612D01*
X7370932Y17248093D01*
X7354189Y17249971D01*
X7350000Y17250000D01*
X6337276Y17250000D01*
X6325000Y17251209D01*
X5075000Y17251209D01*
X4952833Y17239177D01*
X4835360Y17203542D01*
X4727097Y17145674D01*
X4632203Y17067797D01*
X4554326Y16972903D01*
X4496458Y16864640D01*
X4476850Y16800000D01*
X3601209Y16800000D01*
X3601209Y17100000D01*
X3596382Y17149008D01*
X3582087Y17196134D01*
X3558873Y17239564D01*
X3527632Y17277632D01*
X3489564Y17308873D01*
X3446134Y17332087D01*
X3399008Y17346382D01*
X3350000Y17351209D01*
X1650000Y17351209D01*
X1600992Y17346382D01*
X1553866Y17332087D01*
X1510436Y17308873D01*
X1472368Y17277632D01*
X1441127Y17239564D01*
X1417913Y17196134D01*
X1403618Y17149008D01*
X1398791Y17100000D01*
X175000Y17100000D01*
X175000Y21600000D01*
X1398791Y21600000D01*
X1398791Y19900000D01*
X1403618Y19850992D01*
X1417913Y19803866D01*
X1441127Y19760436D01*
X1472368Y19722368D01*
X1510436Y19691127D01*
X1553866Y19667913D01*
X1600992Y19653618D01*
X1650000Y19648791D01*
X3350000Y19648791D01*
X3399008Y19653618D01*
X3446134Y19667913D01*
X3489564Y19691127D01*
X3527632Y19722368D01*
X3558873Y19760436D01*
X3582087Y19803866D01*
X3596382Y19850992D01*
X3601209Y19900000D01*
X3601209Y21600000D01*
X3596382Y21649008D01*
X3587817Y21677245D01*
X11417644Y13847417D01*
X11431731Y13830252D01*
X11448896Y13816165D01*
X11448900Y13816161D01*
X11500251Y13774018D01*
X11557451Y13743444D01*
X11578427Y13732232D01*
X11663253Y13706500D01*
X11729363Y13699989D01*
X11729374Y13699989D01*
X11751468Y13697813D01*
X11773562Y13699989D01*
X13913616Y13699989D01*
X18075001Y9538603D01*
X18075001Y9276209D01*
X17675000Y9276209D01*
X17675000Y9402909D01*
X17677176Y9425001D01*
X17675000Y9447093D01*
X17675000Y9447105D01*
X17668489Y9513215D01*
X17642757Y9598041D01*
X17605664Y9667437D01*
X17600971Y9676217D01*
X17558828Y9727568D01*
X17558824Y9727572D01*
X17544737Y9744737D01*
X17527572Y9758824D01*
X14733829Y12552566D01*
X14719737Y12569737D01*
X14651216Y12625971D01*
X14573041Y12667757D01*
X14488215Y12693489D01*
X14422105Y12700000D01*
X14422094Y12700000D01*
X14400000Y12702176D01*
X14377906Y12700000D01*
X14043822Y12700000D01*
X14039177Y12747167D01*
X14003542Y12864640D01*
X13945674Y12972903D01*
X13867797Y13067797D01*
X13772903Y13145674D01*
X13664640Y13203542D01*
X13547167Y13239177D01*
X13425000Y13251209D01*
X12175000Y13251209D01*
X12162724Y13250000D01*
X11150000Y13250000D01*
X11133230Y13248356D01*
X11116378Y13248110D01*
X11104164Y13245506D01*
X11091730Y13244287D01*
X11075594Y13239415D01*
X11059115Y13235902D01*
X11055132Y13234605D01*
X10755132Y13134605D01*
X10747075Y13131012D01*
X10738590Y13128547D01*
X10720379Y13119107D01*
X10701659Y13110759D01*
X10694447Y13105665D01*
X10686609Y13101602D01*
X10670584Y13088810D01*
X10653835Y13076979D01*
X10647751Y13070582D01*
X10640851Y13065074D01*
X10637868Y13062132D01*
X10437868Y12862132D01*
X10432082Y12855088D01*
X10425400Y12848884D01*
X10413534Y12832508D01*
X10400705Y12816889D01*
X10396399Y12808859D01*
X10391047Y12801472D01*
X10382589Y12783103D01*
X10373037Y12765289D01*
X10370371Y12756569D01*
X10366559Y12748290D01*
X10361830Y12728632D01*
X10355919Y12709297D01*
X10354998Y12700231D01*
X10352865Y12691364D01*
X10352317Y12687211D01*
X10302317Y12287210D01*
X10302160Y12281308D01*
X10301085Y12275495D01*
X10301381Y12252083D01*
X10300758Y12228682D01*
X10301751Y12222856D01*
X10301826Y12216950D01*
X10302317Y12212790D01*
X10352317Y11812789D01*
X10354326Y11803894D01*
X10355120Y11794815D01*
X10360757Y11775410D01*
X10365213Y11755678D01*
X10368911Y11747342D01*
X10371454Y11738590D01*
X10380758Y11720642D01*
X10388958Y11702159D01*
X10394204Y11694701D01*
X10398399Y11686609D01*
X10411013Y11670807D01*
X10422645Y11654272D01*
X10429236Y11647979D01*
X10434926Y11640851D01*
X10437868Y11637868D01*
X10637868Y11437868D01*
X10644690Y11432265D01*
X10650685Y11425782D01*
X10667261Y11413723D01*
X10683111Y11400704D01*
X10690898Y11396529D01*
X10698032Y11391339D01*
X10716634Y11382730D01*
X10734711Y11373037D01*
X10743153Y11370456D01*
X10751167Y11366747D01*
X10755132Y11365395D01*
X11055132Y11265395D01*
X11071564Y11261651D01*
X11087626Y11256556D01*
X11100034Y11255164D01*
X11112218Y11252388D01*
X11129068Y11251907D01*
X11145811Y11250029D01*
X11150000Y11250000D01*
X12162724Y11250000D01*
X12175000Y11248791D01*
X13425000Y11248791D01*
X13547167Y11260823D01*
X13664640Y11296458D01*
X13772903Y11354326D01*
X13867797Y11432203D01*
X13945674Y11527097D01*
X14003542Y11635360D01*
X14039177Y11752833D01*
X14043822Y11800000D01*
X14213605Y11800000D01*
X16438604Y9575000D01*
X16374998Y9575000D01*
X16374998Y9462502D01*
X16262500Y9575000D01*
X16218593Y9561811D01*
X16116391Y9525860D01*
X16023167Y9470661D01*
X15942502Y9398336D01*
X15877498Y9311664D01*
X15830652Y9213975D01*
X15803764Y9109024D01*
X15797867Y9000844D01*
X15800000Y8637500D01*
X15937500Y8500000D01*
X16400000Y8500000D01*
X16400000Y8520000D01*
X16748791Y8520000D01*
X16748791Y7575000D01*
X16750000Y7562725D01*
X16750000Y7162500D01*
X16887500Y7025000D01*
X16931407Y7038189D01*
X17033609Y7074140D01*
X17126833Y7129339D01*
X17207498Y7201664D01*
X17272502Y7288336D01*
X17289504Y7323791D01*
X17425001Y7323791D01*
X17425001Y7311397D01*
X15813605Y5700000D01*
X14522094Y5700000D01*
X14500000Y5702176D01*
X14477906Y5700000D01*
X14477895Y5700000D01*
X14411785Y5693489D01*
X14326959Y5667757D01*
X14248783Y5625971D01*
X14197432Y5583828D01*
X14197428Y5583824D01*
X14180263Y5569737D01*
X14166176Y5552572D01*
X13764024Y5150420D01*
X13664640Y5203542D01*
X13547167Y5239177D01*
X13425000Y5251209D01*
X12175000Y5251209D01*
X12162724Y5250000D01*
X11150000Y5250000D01*
X11133230Y5248356D01*
X11116378Y5248110D01*
X11104164Y5245506D01*
X11091730Y5244287D01*
X11075594Y5239415D01*
X11059115Y5235902D01*
X11055132Y5234605D01*
X10755132Y5134605D01*
X10747075Y5131012D01*
X10738590Y5128547D01*
X10720379Y5119107D01*
X10701659Y5110759D01*
X10694447Y5105665D01*
X10686609Y5101602D01*
X10670584Y5088810D01*
X10653835Y5076979D01*
X10647751Y5070582D01*
X10640851Y5065074D01*
X10637868Y5062132D01*
X10437868Y4862132D01*
X10432082Y4855088D01*
X10425400Y4848884D01*
X10413534Y4832508D01*
X10400705Y4816889D01*
X10396399Y4808859D01*
X10391047Y4801472D01*
X10382589Y4783103D01*
X10373037Y4765289D01*
X10370371Y4756569D01*
X10366559Y4748290D01*
X10361830Y4728632D01*
X10355919Y4709297D01*
X10354998Y4700231D01*
X10352865Y4691364D01*
X10352317Y4687211D01*
X10302317Y4287210D01*
X10302160Y4281308D01*
X10301085Y4275495D01*
X10301381Y4252083D01*
X10300758Y4228682D01*
X10301751Y4222856D01*
X10301826Y4216950D01*
X10302317Y4212790D01*
X10352317Y3812789D01*
X10354326Y3803894D01*
X10355120Y3794815D01*
X10360757Y3775410D01*
X10365213Y3755678D01*
X10368911Y3747342D01*
X10371454Y3738590D01*
X10380758Y3720642D01*
X10388958Y3702159D01*
X10394204Y3694701D01*
X10398399Y3686609D01*
X10411013Y3670807D01*
X10422645Y3654272D01*
X10429236Y3647979D01*
X10434926Y3640851D01*
X10437868Y3637868D01*
X10637868Y3437868D01*
X10644690Y3432265D01*
X10650685Y3425782D01*
X10667261Y3413723D01*
X10683111Y3400704D01*
X10690898Y3396529D01*
X10698032Y3391339D01*
X10716634Y3382730D01*
X10734711Y3373037D01*
X10743153Y3370456D01*
X10751167Y3366747D01*
X10755132Y3365395D01*
X11055132Y3265395D01*
X11071564Y3261651D01*
X11087626Y3256556D01*
X11100034Y3255164D01*
X11112218Y3252388D01*
X11129068Y3251907D01*
X11145811Y3250029D01*
X11150000Y3250000D01*
X12162724Y3250000D01*
X12175000Y3248791D01*
X13425000Y3248791D01*
X13547167Y3260823D01*
X13664640Y3296458D01*
X13772903Y3354326D01*
X13867797Y3432203D01*
X13945674Y3527097D01*
X14003542Y3635360D01*
X14039177Y3752833D01*
X14051209Y3875000D01*
X14051209Y4164814D01*
X14686396Y4800000D01*
X15977906Y4800000D01*
X16000000Y4797824D01*
X16022094Y4800000D01*
X16022105Y4800000D01*
X16088215Y4806511D01*
X16173041Y4832243D01*
X16251216Y4874029D01*
X16319737Y4930263D01*
X16333829Y4947434D01*
X18177572Y6791176D01*
X18194737Y6805263D01*
X18208824Y6822428D01*
X18208828Y6822432D01*
X18250971Y6873783D01*
X18272818Y6914657D01*
X18292757Y6951959D01*
X18318489Y7036785D01*
X18325000Y7102895D01*
X18325000Y7102907D01*
X18327176Y7124999D01*
X18325000Y7147091D01*
X18325000Y7323791D01*
X18725000Y7323791D01*
X18725001Y4852920D01*
X18682203Y4817797D01*
X18604326Y4722903D01*
X18546458Y4614640D01*
X18510823Y4497167D01*
X18498791Y4375000D01*
X18498791Y4200000D01*
X18243822Y4200000D01*
X18239177Y4247167D01*
X18203542Y4364640D01*
X18145674Y4472903D01*
X18067797Y4567797D01*
X17972903Y4645674D01*
X17864640Y4703542D01*
X17747167Y4739177D01*
X17625000Y4751209D01*
X16375000Y4751209D01*
X16362724Y4750000D01*
X15350000Y4750000D01*
X15333230Y4748356D01*
X15316378Y4748110D01*
X15304164Y4745506D01*
X15291730Y4744287D01*
X15275594Y4739415D01*
X15259115Y4735902D01*
X15255132Y4734605D01*
X14955132Y4634605D01*
X14947075Y4631012D01*
X14938590Y4628547D01*
X14920379Y4619107D01*
X14901659Y4610759D01*
X14894447Y4605665D01*
X14886609Y4601602D01*
X14870584Y4588810D01*
X14853835Y4576979D01*
X14847751Y4570582D01*
X14840851Y4565074D01*
X14837868Y4562132D01*
X14637868Y4362132D01*
X14632082Y4355088D01*
X14625400Y4348884D01*
X14613534Y4332508D01*
X14600705Y4316889D01*
X14596399Y4308859D01*
X14591047Y4301472D01*
X14582589Y4283103D01*
X14573037Y4265289D01*
X14570371Y4256569D01*
X14566559Y4248290D01*
X14561830Y4228632D01*
X14555919Y4209297D01*
X14554998Y4200231D01*
X14552865Y4191364D01*
X14552317Y4187211D01*
X14502317Y3787210D01*
X14502160Y3781308D01*
X14501085Y3775495D01*
X14501381Y3752083D01*
X14500758Y3728682D01*
X14501751Y3722856D01*
X14501826Y3716950D01*
X14502317Y3712790D01*
X14552317Y3312789D01*
X14554326Y3303894D01*
X14555120Y3294815D01*
X14560757Y3275410D01*
X14565213Y3255678D01*
X14568911Y3247342D01*
X14571454Y3238590D01*
X14580758Y3220642D01*
X14588958Y3202159D01*
X14594204Y3194701D01*
X14598399Y3186609D01*
X14611013Y3170807D01*
X14622645Y3154272D01*
X14629236Y3147979D01*
X14634926Y3140851D01*
X14637868Y3137868D01*
X14837868Y2937868D01*
X14844690Y2932265D01*
X14850685Y2925782D01*
X14867261Y2913723D01*
X14883111Y2900704D01*
X14890898Y2896529D01*
X14898032Y2891339D01*
X14916634Y2882730D01*
X14934711Y2873037D01*
X14943153Y2870456D01*
X14951167Y2866747D01*
X14955132Y2865395D01*
X15255132Y2765395D01*
X15271564Y2761651D01*
X15287626Y2756556D01*
X15300034Y2755164D01*
X15312218Y2752388D01*
X15329068Y2751907D01*
X15345811Y2750029D01*
X15350000Y2750000D01*
X16362724Y2750000D01*
X16375000Y2748791D01*
X17625000Y2748791D01*
X17747167Y2760823D01*
X17864640Y2796458D01*
X17972903Y2854326D01*
X18067797Y2932203D01*
X18145674Y3027097D01*
X18203542Y3135360D01*
X18239177Y3252833D01*
X18243822Y3300000D01*
X18498791Y3300000D01*
X18498791Y3125000D01*
X18500000Y3112724D01*
X18500000Y2100000D01*
X18501644Y2083230D01*
X18501890Y2066378D01*
X18504494Y2054164D01*
X18505713Y2041730D01*
X18510585Y2025594D01*
X18514098Y2009115D01*
X18515395Y2005132D01*
X18615395Y1705131D01*
X18618991Y1697066D01*
X18621454Y1688590D01*
X18630888Y1670390D01*
X18639242Y1651658D01*
X18644338Y1644443D01*
X18648399Y1636609D01*
X18661186Y1620590D01*
X18673021Y1603835D01*
X18679419Y1597750D01*
X18684926Y1590851D01*
X18687868Y1587868D01*
X18887868Y1387868D01*
X18894913Y1382081D01*
X18901116Y1375400D01*
X18917486Y1363539D01*
X18933111Y1350704D01*
X18941146Y1346396D01*
X18948528Y1341047D01*
X18966893Y1332591D01*
X18984711Y1323037D01*
X18993431Y1320371D01*
X19001710Y1316559D01*
X19021367Y1311830D01*
X19040703Y1305919D01*
X19049770Y1304998D01*
X19058637Y1302865D01*
X19062790Y1302317D01*
X19462790Y1252317D01*
X19468692Y1252160D01*
X19474505Y1251085D01*
X19497917Y1251381D01*
X19521318Y1250758D01*
X19527144Y1251751D01*
X19533050Y1251826D01*
X19537210Y1252317D01*
X19937211Y1302317D01*
X19946106Y1304326D01*
X19955185Y1305120D01*
X19974590Y1310757D01*
X19994322Y1315213D01*
X20002658Y1318911D01*
X20011410Y1321454D01*
X20029358Y1330758D01*
X20047841Y1338958D01*
X20055299Y1344204D01*
X20063391Y1348399D01*
X20079193Y1361013D01*
X20095728Y1372645D01*
X20102021Y1379236D01*
X20109149Y1384926D01*
X20112132Y1387868D01*
X20312132Y1587868D01*
X20317735Y1594690D01*
X20324218Y1600685D01*
X20336277Y1617261D01*
X20349296Y1633111D01*
X20353471Y1640898D01*
X20358661Y1648032D01*
X20367270Y1666634D01*
X20376963Y1684711D01*
X20379544Y1693153D01*
X20383253Y1701167D01*
X20384605Y1705132D01*
X20484605Y2005132D01*
X20488349Y2021564D01*
X20493444Y2037626D01*
X20494836Y2050034D01*
X20497612Y2062218D01*
X20498093Y2079068D01*
X20499971Y2095811D01*
X20500000Y2100000D01*
X20500000Y2658341D01*
X26400000Y2658341D01*
X26400000Y2441659D01*
X26442273Y2229142D01*
X26525193Y2028955D01*
X26645575Y1848791D01*
X26798791Y1695575D01*
X26978955Y1575193D01*
X27179142Y1492273D01*
X27391659Y1450000D01*
X27608341Y1450000D01*
X27820858Y1492273D01*
X28021045Y1575193D01*
X28201209Y1695575D01*
X28354425Y1848791D01*
X28474807Y2028955D01*
X28557727Y2229142D01*
X28600000Y2441659D01*
X28600000Y2658341D01*
X28557727Y2870858D01*
X28474807Y3071045D01*
X28354425Y3251209D01*
X28201209Y3404425D01*
X28021045Y3524807D01*
X27820858Y3607727D01*
X27608341Y3650000D01*
X27391659Y3650000D01*
X27179142Y3607727D01*
X26978955Y3524807D01*
X26798791Y3404425D01*
X26645575Y3251209D01*
X26525193Y3071045D01*
X26442273Y2870858D01*
X26400000Y2658341D01*
X20500000Y2658341D01*
X20500000Y3112724D01*
X20501209Y3125000D01*
X20501209Y4375000D01*
X20489177Y4497167D01*
X20453542Y4614640D01*
X20395674Y4722903D01*
X20317797Y4817797D01*
X20222903Y4895674D01*
X20114640Y4953542D01*
X19997167Y4989177D01*
X19875000Y5001209D01*
X19625000Y5001209D01*
X19625000Y6304601D01*
X21282223Y4647377D01*
X21296310Y4630212D01*
X21313475Y4616125D01*
X21313479Y4616121D01*
X21364830Y4573978D01*
X21436933Y4535438D01*
X21443006Y4532192D01*
X21527832Y4506460D01*
X21593942Y4499949D01*
X21593952Y4499949D01*
X21616047Y4497773D01*
X21638141Y4499949D01*
X24361907Y4499949D01*
X24384001Y4497773D01*
X24406095Y4499949D01*
X24406106Y4499949D01*
X24472216Y4506460D01*
X24557042Y4532192D01*
X24635217Y4573978D01*
X24703738Y4630212D01*
X24717830Y4647383D01*
X25268788Y5198341D01*
X26400000Y5198341D01*
X26400000Y4981659D01*
X26442273Y4769142D01*
X26525193Y4568955D01*
X26645575Y4388791D01*
X26798791Y4235575D01*
X26978955Y4115193D01*
X27179142Y4032273D01*
X27391659Y3990000D01*
X27608341Y3990000D01*
X27820858Y4032273D01*
X28021045Y4115193D01*
X28201209Y4235575D01*
X28354425Y4388791D01*
X28474807Y4568955D01*
X28557727Y4769142D01*
X28600000Y4981659D01*
X28600000Y5198341D01*
X28557727Y5410858D01*
X28474807Y5611045D01*
X28354425Y5791209D01*
X28201209Y5944425D01*
X28021045Y6064807D01*
X27820858Y6147727D01*
X27608341Y6190000D01*
X27391659Y6190000D01*
X27179142Y6147727D01*
X26978955Y6064807D01*
X26798791Y5944425D01*
X26645575Y5791209D01*
X26525193Y5611045D01*
X26442273Y5410858D01*
X26400000Y5198341D01*
X25268788Y5198341D01*
X25802572Y5732124D01*
X25819737Y5746211D01*
X25833824Y5763376D01*
X25833828Y5763380D01*
X25875971Y5814731D01*
X25917757Y5892907D01*
X25943489Y5977733D01*
X25950000Y6043843D01*
X25950000Y6043853D01*
X25952176Y6065948D01*
X25950000Y6088042D01*
X25950000Y7738341D01*
X26400000Y7738341D01*
X26400000Y7521659D01*
X26442273Y7309142D01*
X26525193Y7108955D01*
X26645575Y6928791D01*
X26798791Y6775575D01*
X26978955Y6655193D01*
X27179142Y6572273D01*
X27391659Y6530000D01*
X27608341Y6530000D01*
X27820858Y6572273D01*
X28021045Y6655193D01*
X28201209Y6775575D01*
X28354425Y6928791D01*
X28474807Y7108955D01*
X28557727Y7309142D01*
X28600000Y7521659D01*
X28600000Y7738341D01*
X28557727Y7950858D01*
X28474807Y8151045D01*
X28354425Y8331209D01*
X28201209Y8484425D01*
X28021045Y8604807D01*
X27820858Y8687727D01*
X27608341Y8730000D01*
X27391659Y8730000D01*
X27179142Y8687727D01*
X26978955Y8604807D01*
X26798791Y8484425D01*
X26645575Y8331209D01*
X26525193Y8151045D01*
X26442273Y7950858D01*
X26400000Y7738341D01*
X25950000Y7738341D01*
X25950000Y10278341D01*
X26400000Y10278341D01*
X26400000Y10061659D01*
X26442273Y9849142D01*
X26525193Y9648955D01*
X26645575Y9468791D01*
X26798791Y9315575D01*
X26978955Y9195193D01*
X27179142Y9112273D01*
X27391659Y9070000D01*
X27608341Y9070000D01*
X27820858Y9112273D01*
X28021045Y9195193D01*
X28201209Y9315575D01*
X28354425Y9468791D01*
X28474807Y9648955D01*
X28557727Y9849142D01*
X28600000Y10061659D01*
X28600000Y10278341D01*
X28557727Y10490858D01*
X28474807Y10691045D01*
X28354425Y10871209D01*
X28201209Y11024425D01*
X28021045Y11144807D01*
X27820858Y11227727D01*
X27608341Y11270000D01*
X27391659Y11270000D01*
X27179142Y11227727D01*
X26978955Y11144807D01*
X26798791Y11024425D01*
X26645575Y10871209D01*
X26525193Y10691045D01*
X26442273Y10490858D01*
X26400000Y10278341D01*
X25950000Y10278341D01*
X25950000Y12818341D01*
X26400000Y12818341D01*
X26400000Y12601659D01*
X26442273Y12389142D01*
X26525193Y12188955D01*
X26645575Y12008791D01*
X26798791Y11855575D01*
X26978955Y11735193D01*
X27179142Y11652273D01*
X27391659Y11610000D01*
X27608341Y11610000D01*
X27820858Y11652273D01*
X28021045Y11735193D01*
X28201209Y11855575D01*
X28354425Y12008791D01*
X28474807Y12188955D01*
X28557727Y12389142D01*
X28600000Y12601659D01*
X28600000Y12818341D01*
X28557727Y13030858D01*
X28474807Y13231045D01*
X28354425Y13411209D01*
X28201209Y13564425D01*
X28021045Y13684807D01*
X27820858Y13767727D01*
X27608341Y13810000D01*
X27391659Y13810000D01*
X27179142Y13767727D01*
X26978955Y13684807D01*
X26798791Y13564425D01*
X26645575Y13411209D01*
X26525193Y13231045D01*
X26442273Y13030858D01*
X26400000Y12818341D01*
X25950000Y12818341D01*
X25950000Y14547240D01*
X25950012Y14547362D01*
X25950012Y14547373D01*
X25952188Y14569467D01*
X25950012Y14591561D01*
X25950012Y16100000D01*
X26398791Y16100000D01*
X26398791Y14400000D01*
X26403618Y14350992D01*
X26417913Y14303866D01*
X26441127Y14260436D01*
X26472368Y14222368D01*
X26510436Y14191127D01*
X26553866Y14167913D01*
X26600992Y14153618D01*
X26650000Y14148791D01*
X28350000Y14148791D01*
X28399008Y14153618D01*
X28446134Y14167913D01*
X28489564Y14191127D01*
X28527632Y14222368D01*
X28558873Y14260436D01*
X28582087Y14303866D01*
X28596382Y14350992D01*
X28601209Y14400000D01*
X28601209Y16100000D01*
X28596382Y16149008D01*
X28582087Y16196134D01*
X28558873Y16239564D01*
X28527632Y16277632D01*
X28489564Y16308873D01*
X28446134Y16332087D01*
X28399008Y16346382D01*
X28350000Y16351209D01*
X26650000Y16351209D01*
X26600992Y16346382D01*
X26553866Y16332087D01*
X26510436Y16308873D01*
X26472368Y16277632D01*
X26441127Y16239564D01*
X26417913Y16196134D01*
X26403618Y16149008D01*
X26398791Y16100000D01*
X25950012Y16100000D01*
X25950012Y18283617D01*
X26888097Y19221701D01*
X26959142Y19192273D01*
X27171659Y19150000D01*
X27388341Y19150000D01*
X27600858Y19192273D01*
X27801045Y19275193D01*
X27981209Y19395575D01*
X28134425Y19548791D01*
X28254807Y19728955D01*
X28337727Y19929142D01*
X28380000Y20141659D01*
X28380000Y20358341D01*
X28344521Y20536703D01*
X28538012Y20730194D01*
X28538017Y20730200D01*
X28719800Y20911984D01*
X28740791Y20929211D01*
X28809522Y21012959D01*
X28835356Y21061291D01*
X28860593Y21108506D01*
X28892043Y21212182D01*
X28893286Y21224807D01*
X28900001Y21292983D01*
X28900001Y21292990D01*
X28902661Y21320001D01*
X28900001Y21347012D01*
X28900001Y24722988D01*
X28902661Y24749999D01*
X28900001Y24777009D01*
X28900001Y24777017D01*
X28892043Y24857818D01*
X28860593Y24961493D01*
X28809522Y25057041D01*
X28740791Y25140789D01*
X28719801Y25158015D01*
X28658014Y25219803D01*
X28640790Y25240790D01*
X28557042Y25309521D01*
X28501209Y25339364D01*
X28501209Y25475000D01*
X28489177Y25597167D01*
X28453542Y25714640D01*
X28395674Y25822903D01*
X28317797Y25917797D01*
X28222903Y25995674D01*
X28114640Y26053542D01*
X27997167Y26089177D01*
X27875000Y26101209D01*
X27125000Y26101209D01*
X27002833Y26089177D01*
X26885360Y26053542D01*
X26777097Y25995674D01*
X26682203Y25917797D01*
X26604326Y25822903D01*
X26546458Y25714640D01*
X26510823Y25597167D01*
X26498791Y25475000D01*
X26498791Y24225000D01*
X26500000Y24212724D01*
X26500000Y23200000D01*
X26501644Y23183230D01*
X26501890Y23166378D01*
X26504494Y23154164D01*
X26505713Y23141730D01*
X26510585Y23125594D01*
X26514098Y23109115D01*
X26515395Y23105132D01*
X26615395Y22805131D01*
X26618991Y22797066D01*
X26621454Y22788590D01*
X26630888Y22770390D01*
X26639242Y22751658D01*
X26644338Y22744443D01*
X26648399Y22736609D01*
X26661186Y22720590D01*
X26673021Y22703835D01*
X26679419Y22697750D01*
X26684926Y22690851D01*
X26687868Y22687868D01*
X26887868Y22487868D01*
X26894913Y22482081D01*
X26901116Y22475400D01*
X26917486Y22463539D01*
X26933111Y22450704D01*
X26941146Y22446396D01*
X26948528Y22441047D01*
X26966893Y22432591D01*
X26984711Y22423037D01*
X26993431Y22420371D01*
X27001710Y22416559D01*
X27021367Y22411830D01*
X27040703Y22405919D01*
X27049770Y22404998D01*
X27058637Y22402865D01*
X27062790Y22402317D01*
X27462790Y22352317D01*
X27468692Y22352160D01*
X27474505Y22351085D01*
X27497917Y22351381D01*
X27521318Y22350758D01*
X27527144Y22351751D01*
X27533050Y22351826D01*
X27537210Y22352317D01*
X27800002Y22385166D01*
X27800002Y21547819D01*
X27760200Y21508017D01*
X27760194Y21508012D01*
X27566703Y21314521D01*
X27388341Y21350000D01*
X27171659Y21350000D01*
X26959142Y21307727D01*
X26758955Y21224807D01*
X26578791Y21104425D01*
X26425575Y20951209D01*
X26305193Y20771045D01*
X26222273Y20570858D01*
X26180000Y20358341D01*
X26180000Y20141659D01*
X26222273Y19929142D01*
X26251701Y19858097D01*
X25197446Y18803841D01*
X25190000Y18797730D01*
X25190000Y19245765D01*
X25261045Y19275193D01*
X25441209Y19395575D01*
X25594425Y19548791D01*
X25714807Y19728955D01*
X25797727Y19929142D01*
X25840000Y20141659D01*
X25840000Y20358341D01*
X25804521Y20536703D01*
X25869810Y20601992D01*
X25890790Y20619210D01*
X25908008Y20640190D01*
X25908013Y20640195D01*
X25959520Y20702957D01*
X25959521Y20702958D01*
X26010592Y20798506D01*
X26042042Y20902181D01*
X26050000Y20982982D01*
X26050000Y20982991D01*
X26052660Y21009999D01*
X26050000Y21037007D01*
X26050000Y24572993D01*
X26052660Y24600001D01*
X26050000Y24627009D01*
X26050000Y24627018D01*
X26042042Y24707819D01*
X26010592Y24811494D01*
X25959521Y24907042D01*
X25890790Y24990790D01*
X25869804Y25008013D01*
X25658013Y25219804D01*
X25640790Y25240790D01*
X25557042Y25309521D01*
X25501209Y25339364D01*
X25501209Y25475000D01*
X25489177Y25597167D01*
X25453542Y25714640D01*
X25395674Y25822903D01*
X25317797Y25917797D01*
X25222903Y25995674D01*
X25114640Y26053542D01*
X24997167Y26089177D01*
X24875000Y26101209D01*
X24125000Y26101209D01*
X24002833Y26089177D01*
X23885360Y26053542D01*
X23777097Y25995674D01*
X23682203Y25917797D01*
X23604326Y25822903D01*
X23546458Y25714640D01*
X23510823Y25597167D01*
X23498791Y25475000D01*
X23498791Y24225000D01*
X23500000Y24212724D01*
X23500000Y23200000D01*
X23501644Y23183230D01*
X23501890Y23166378D01*
X23504494Y23154164D01*
X23505713Y23141730D01*
X23510585Y23125594D01*
X23514098Y23109115D01*
X23515395Y23105132D01*
X23615395Y22805131D01*
X23618991Y22797066D01*
X23621454Y22788590D01*
X23630888Y22770390D01*
X23639242Y22751658D01*
X23644338Y22744443D01*
X23648399Y22736609D01*
X23661186Y22720590D01*
X23673021Y22703835D01*
X23679419Y22697750D01*
X23684926Y22690851D01*
X23687868Y22687868D01*
X23887868Y22487868D01*
X23894913Y22482081D01*
X23901116Y22475400D01*
X23917486Y22463539D01*
X23933111Y22450704D01*
X23941146Y22446396D01*
X23948528Y22441047D01*
X23966893Y22432591D01*
X23984711Y22423037D01*
X23993431Y22420371D01*
X24001710Y22416559D01*
X24021367Y22411830D01*
X24040703Y22405919D01*
X24049770Y22404998D01*
X24058637Y22402865D01*
X24062790Y22402317D01*
X24462790Y22352317D01*
X24468692Y22352160D01*
X24474505Y22351085D01*
X24497917Y22351381D01*
X24521318Y22350758D01*
X24527144Y22351751D01*
X24533050Y22351826D01*
X24537210Y22352317D01*
X24937211Y22402317D01*
X24946106Y22404326D01*
X24950001Y22404666D01*
X24950001Y21329778D01*
X24848341Y21350000D01*
X24631659Y21350000D01*
X24419142Y21307727D01*
X24218955Y21224807D01*
X24038791Y21104425D01*
X23885575Y20951209D01*
X23765193Y20771045D01*
X23682273Y20570858D01*
X23640000Y20358341D01*
X23640000Y20141659D01*
X23682273Y19929142D01*
X23765193Y19728955D01*
X23885575Y19548791D01*
X24038791Y19395575D01*
X24218955Y19275193D01*
X24290000Y19245765D01*
X24290001Y14844395D01*
X23912236Y14466630D01*
X23917757Y14476959D01*
X23920738Y14486785D01*
X23943489Y14561785D01*
X23950000Y14627895D01*
X23950000Y14627905D01*
X23952176Y14649999D01*
X23952165Y14650106D01*
X23978097Y14667433D01*
X24082563Y14771899D01*
X24164641Y14894738D01*
X24221178Y15031229D01*
X24250000Y15176127D01*
X24250000Y15323865D01*
X24221178Y15468763D01*
X24164641Y15605254D01*
X24082563Y15728093D01*
X23978097Y15832559D01*
X23855258Y15914637D01*
X23718767Y15971174D01*
X23573869Y15999996D01*
X23426131Y15999996D01*
X23281233Y15971174D01*
X23144742Y15914637D01*
X23021903Y15832559D01*
X22917437Y15728093D01*
X22835359Y15605254D01*
X22778822Y15468763D01*
X22750000Y15323865D01*
X22750000Y15176127D01*
X22754698Y15152510D01*
X22746134Y15157087D01*
X22699008Y15171382D01*
X22650000Y15176209D01*
X22225000Y15176209D01*
X22225000Y15545712D01*
X22934314Y16255025D01*
X23021902Y16167437D01*
X23144741Y16085359D01*
X23281232Y16028822D01*
X23426130Y16000000D01*
X23573868Y16000000D01*
X23718766Y16028822D01*
X23855257Y16085359D01*
X23978096Y16167437D01*
X24082562Y16271903D01*
X24164640Y16394742D01*
X24221177Y16531233D01*
X24249999Y16676131D01*
X24249999Y16823869D01*
X24221177Y16968767D01*
X24164640Y17105258D01*
X24082562Y17228097D01*
X23978096Y17332563D01*
X23855257Y17414641D01*
X23718766Y17471178D01*
X23573894Y17499995D01*
X23718767Y17528812D01*
X23855258Y17585349D01*
X23978097Y17667427D01*
X24082563Y17771893D01*
X24164641Y17894732D01*
X24221178Y18031223D01*
X24250000Y18176121D01*
X24250000Y18323859D01*
X24221178Y18468757D01*
X24164641Y18605248D01*
X24082563Y18728087D01*
X23978097Y18832553D01*
X23855258Y18914631D01*
X23718767Y18971168D01*
X23573869Y18999990D01*
X23426131Y18999990D01*
X23281233Y18971168D01*
X23144742Y18914631D01*
X23021903Y18832553D01*
X22917437Y18728087D01*
X22898663Y18699990D01*
X22814985Y18699990D01*
X22792893Y18702166D01*
X22770801Y18699990D01*
X22770789Y18699990D01*
X22704679Y18693479D01*
X22619853Y18667747D01*
X22541677Y18625961D01*
X22490326Y18583818D01*
X22490322Y18583814D01*
X22473157Y18569727D01*
X22459070Y18552562D01*
X20925000Y17018491D01*
X20925000Y18338605D01*
X21808097Y19221701D01*
X21879142Y19192273D01*
X22091659Y19150000D01*
X22308341Y19150000D01*
X22520858Y19192273D01*
X22721045Y19275193D01*
X22901209Y19395575D01*
X23054425Y19548791D01*
X23174807Y19728955D01*
X23257727Y19929142D01*
X23300000Y20141659D01*
X23300000Y20358341D01*
X23257727Y20570858D01*
X23174807Y20771045D01*
X23054425Y20951209D01*
X23050000Y20955634D01*
X23050000Y24572993D01*
X23052660Y24600001D01*
X23050000Y24627009D01*
X23050000Y24627018D01*
X23042042Y24707819D01*
X23010592Y24811494D01*
X22959521Y24907042D01*
X22890790Y24990790D01*
X22869804Y25008013D01*
X22658013Y25219804D01*
X22640790Y25240790D01*
X22557042Y25309521D01*
X22501209Y25339364D01*
X22501209Y25475000D01*
X22489177Y25597167D01*
X22453542Y25714640D01*
X22395674Y25822903D01*
X22317797Y25917797D01*
X22222903Y25995674D01*
X22114640Y26053542D01*
X21997167Y26089177D01*
X21875000Y26101209D01*
X21125000Y26101209D01*
X21002833Y26089177D01*
X20885360Y26053542D01*
X20777097Y25995674D01*
X20682203Y25917797D01*
X20604326Y25822903D01*
X20546458Y25714640D01*
X20510823Y25597167D01*
X20498791Y25475000D01*
X20498791Y24225000D01*
X20500000Y24212724D01*
X20500000Y23200000D01*
X20501644Y23183230D01*
X20501890Y23166378D01*
X20504494Y23154164D01*
X20505713Y23141730D01*
X20510585Y23125594D01*
X20514098Y23109115D01*
X20515395Y23105132D01*
X20615395Y22805131D01*
X20618991Y22797066D01*
X20621454Y22788590D01*
X20630888Y22770390D01*
X20639242Y22751658D01*
X20644338Y22744443D01*
X20648399Y22736609D01*
X20661186Y22720590D01*
X20673021Y22703835D01*
X20679419Y22697750D01*
X20684926Y22690851D01*
X20687868Y22687868D01*
X20887868Y22487868D01*
X20894913Y22482081D01*
X20901116Y22475400D01*
X20917486Y22463539D01*
X20933111Y22450704D01*
X20941146Y22446396D01*
X20948528Y22441047D01*
X20966893Y22432591D01*
X20984711Y22423037D01*
X20993431Y22420371D01*
X21001710Y22416559D01*
X21021367Y22411830D01*
X21040703Y22405919D01*
X21049770Y22404998D01*
X21058637Y22402865D01*
X21062790Y22402317D01*
X21462790Y22352317D01*
X21468692Y22352160D01*
X21474505Y22351085D01*
X21497917Y22351381D01*
X21521318Y22350758D01*
X21527144Y22351751D01*
X21533050Y22351826D01*
X21537210Y22352317D01*
X21937211Y22402317D01*
X21946106Y22404326D01*
X21950001Y22404666D01*
X21950001Y21321822D01*
X21879142Y21307727D01*
X21678955Y21224807D01*
X21498791Y21104425D01*
X21345575Y20951209D01*
X21225193Y20771045D01*
X21142273Y20570858D01*
X21100000Y20358341D01*
X21100000Y20141659D01*
X21142273Y19929142D01*
X21171701Y19858097D01*
X20275000Y18961395D01*
X20275000Y19337972D01*
X20361209Y19395575D01*
X20514425Y19548791D01*
X20634807Y19728955D01*
X20717727Y19929142D01*
X20760000Y20141659D01*
X20760000Y20358341D01*
X20717727Y20570858D01*
X20634807Y20771045D01*
X20514425Y20951209D01*
X20361209Y21104425D01*
X20210000Y21205460D01*
X20210000Y22062993D01*
X20212660Y22090001D01*
X20210000Y22117009D01*
X20210000Y22117018D01*
X20202042Y22197819D01*
X20170592Y22301494D01*
X20119521Y22397042D01*
X20050790Y22480790D01*
X20050000Y22481438D01*
X20050000Y23955995D01*
X20052660Y23983003D01*
X20050000Y24010011D01*
X20050000Y24010020D01*
X20042042Y24090821D01*
X20010592Y24194496D01*
X19959521Y24290044D01*
X19949756Y24301942D01*
X19908013Y24352807D01*
X19908008Y24352812D01*
X19890790Y24373792D01*
X19869810Y24391010D01*
X19501209Y24759611D01*
X19501209Y25475000D01*
X19489177Y25597167D01*
X19453542Y25714640D01*
X19395674Y25822903D01*
X19317797Y25917797D01*
X19222903Y25995674D01*
X19114640Y26053542D01*
X18997167Y26089177D01*
X18875000Y26101209D01*
X18125000Y26101209D01*
X18002833Y26089177D01*
X17885360Y26053542D01*
X17777097Y25995674D01*
X17682203Y25917797D01*
X17604326Y25822903D01*
X17546458Y25714640D01*
X17510823Y25597167D01*
X17498791Y25475000D01*
X17498791Y24225000D01*
X17500000Y24212724D01*
X17500000Y23200000D01*
X17501644Y23183230D01*
X17501890Y23166378D01*
X17504494Y23154164D01*
X17505713Y23141730D01*
X17510585Y23125594D01*
X17514098Y23109115D01*
X17515395Y23105132D01*
X17615395Y22805131D01*
X17618991Y22797066D01*
X17621454Y22788590D01*
X17630888Y22770390D01*
X17639242Y22751658D01*
X17644338Y22744443D01*
X17648399Y22736609D01*
X17661186Y22720590D01*
X17673021Y22703835D01*
X17679419Y22697750D01*
X17684926Y22690851D01*
X17687868Y22687868D01*
X17887868Y22487868D01*
X17894913Y22482081D01*
X17901116Y22475400D01*
X17917486Y22463539D01*
X17933111Y22450704D01*
X17941146Y22446396D01*
X17948528Y22441047D01*
X17966893Y22432591D01*
X17984711Y22423037D01*
X17993431Y22420371D01*
X18001710Y22416559D01*
X18021367Y22411830D01*
X18040703Y22405919D01*
X18049770Y22404998D01*
X18058637Y22402865D01*
X18062790Y22402317D01*
X18462790Y22352317D01*
X18468692Y22352160D01*
X18474505Y22351085D01*
X18497917Y22351381D01*
X18521318Y22350758D01*
X18527144Y22351751D01*
X18533050Y22351826D01*
X18537210Y22352317D01*
X18937211Y22402317D01*
X18946106Y22404326D01*
X18950001Y22404666D01*
X18950001Y22277018D01*
X18947340Y22250000D01*
X18957959Y22142182D01*
X18989409Y22038506D01*
X19040479Y21942958D01*
X19091987Y21880196D01*
X19091993Y21880190D01*
X19109211Y21859210D01*
X19110000Y21858562D01*
X19110000Y21205460D01*
X18958791Y21104425D01*
X18805575Y20951209D01*
X18685193Y20771045D01*
X18602273Y20570858D01*
X18560000Y20358341D01*
X18560000Y20141659D01*
X18602273Y19929142D01*
X18685193Y19728955D01*
X18805575Y19548791D01*
X18958791Y19395575D01*
X19138955Y19275193D01*
X19339142Y19192273D01*
X19375000Y19185140D01*
X19375000Y18631396D01*
X18148299Y19858096D01*
X18177727Y19929142D01*
X18220000Y20141659D01*
X18220000Y20358341D01*
X18177727Y20570858D01*
X18094807Y20771045D01*
X17974425Y20951209D01*
X17821209Y21104425D01*
X17641045Y21224807D01*
X17440858Y21307727D01*
X17228341Y21350000D01*
X17050000Y21350000D01*
X17050000Y23952989D01*
X17052660Y23980000D01*
X17050000Y24007011D01*
X17050000Y24007018D01*
X17042042Y24087819D01*
X17041131Y24090822D01*
X17010592Y24191495D01*
X16959521Y24287042D01*
X16908013Y24349804D01*
X16890790Y24370790D01*
X16869804Y24388013D01*
X16501209Y24756608D01*
X16501209Y25475000D01*
X16489177Y25597167D01*
X16453542Y25714640D01*
X16395674Y25822903D01*
X16317797Y25917797D01*
X16222903Y25995674D01*
X16114640Y26053542D01*
X15997167Y26089177D01*
X15875000Y26101209D01*
X15125000Y26101209D01*
X15002833Y26089177D01*
X14885360Y26053542D01*
X14777097Y25995674D01*
X14682203Y25917797D01*
X14604326Y25822903D01*
X14546458Y25714640D01*
X14510823Y25597167D01*
X14498791Y25475000D01*
X14498791Y24225000D01*
X14500000Y24212724D01*
X14500000Y23200000D01*
X14501644Y23183230D01*
X14501890Y23166378D01*
X14504494Y23154164D01*
X14505713Y23141730D01*
X14510585Y23125594D01*
X14514098Y23109115D01*
X14515395Y23105132D01*
X14615395Y22805131D01*
X14618991Y22797066D01*
X14621454Y22788590D01*
X14630888Y22770390D01*
X14639242Y22751658D01*
X14644338Y22744443D01*
X14648399Y22736609D01*
X14661186Y22720590D01*
X14673021Y22703835D01*
X14679419Y22697750D01*
X14684926Y22690851D01*
X14687868Y22687868D01*
X14887868Y22487868D01*
X14894913Y22482081D01*
X14901116Y22475400D01*
X14917486Y22463539D01*
X14933111Y22450704D01*
X14941146Y22446396D01*
X14948528Y22441047D01*
X14966893Y22432591D01*
X14984711Y22423037D01*
X14993431Y22420371D01*
X15001710Y22416559D01*
X15021367Y22411830D01*
X15040703Y22405919D01*
X15049770Y22404998D01*
X15058637Y22402865D01*
X15062790Y22402317D01*
X15462790Y22352317D01*
X15468692Y22352160D01*
X15474505Y22351085D01*
X15497917Y22351381D01*
X15521318Y22350758D01*
X15527144Y22351751D01*
X15533050Y22351826D01*
X15537210Y22352317D01*
X15937211Y22402317D01*
X15946106Y22404326D01*
X15950001Y22404666D01*
X15950001Y20897018D01*
X15947340Y20870000D01*
X15950001Y20842982D01*
X15957959Y20762181D01*
X15979253Y20691986D01*
X15989409Y20658506D01*
X16040479Y20562958D01*
X16056756Y20543124D01*
X16020000Y20358341D01*
X16020000Y20141659D01*
X16062273Y19929142D01*
X16145193Y19728955D01*
X16265575Y19548791D01*
X16418791Y19395575D01*
X16598955Y19275193D01*
X16799142Y19192273D01*
X17011659Y19150000D01*
X17228341Y19150000D01*
X17440858Y19192273D01*
X17511904Y19221701D01*
X18725000Y18008604D01*
X18725000Y16741396D01*
X15608299Y19858096D01*
X15637727Y19929142D01*
X15680000Y20141659D01*
X15680000Y20358341D01*
X15637727Y20570858D01*
X15554807Y20771045D01*
X15434425Y20951209D01*
X15281209Y21104425D01*
X15101045Y21224807D01*
X14900858Y21307727D01*
X14688341Y21350000D01*
X14471659Y21350000D01*
X14395122Y21334776D01*
X14050000Y21679898D01*
X14050000Y24572993D01*
X14052660Y24600001D01*
X14050000Y24627009D01*
X14050000Y24627018D01*
X14042042Y24707819D01*
X14010592Y24811494D01*
X13959521Y24907042D01*
X13890790Y24990790D01*
X13869804Y25008013D01*
X13658013Y25219804D01*
X13640790Y25240790D01*
X13557042Y25309521D01*
X13501209Y25339364D01*
X13501209Y25475000D01*
X13489177Y25597167D01*
X13453542Y25714640D01*
X13395674Y25822903D01*
X13317797Y25917797D01*
X13222903Y25995674D01*
X13114640Y26053542D01*
X12997167Y26089177D01*
X12875000Y26101209D01*
X12125000Y26101209D01*
X12002833Y26089177D01*
X11885360Y26053542D01*
X11777097Y25995674D01*
X11682203Y25917797D01*
X11604326Y25822903D01*
X11546458Y25714640D01*
X11510823Y25597167D01*
X11498791Y25475000D01*
X11498791Y24225000D01*
X11500000Y24212724D01*
X11500000Y23200000D01*
X11501644Y23183230D01*
X11501890Y23166378D01*
X11504494Y23154164D01*
X11505713Y23141730D01*
X11510585Y23125594D01*
X11514098Y23109115D01*
X11515395Y23105132D01*
X11615395Y22805131D01*
X11618991Y22797066D01*
X11621454Y22788590D01*
X11630888Y22770390D01*
X11639242Y22751658D01*
X11644338Y22744443D01*
X11648399Y22736609D01*
X11661186Y22720590D01*
X11673021Y22703835D01*
X11679419Y22697750D01*
X11684926Y22690851D01*
X11687868Y22687868D01*
X11887868Y22487868D01*
X11894913Y22482081D01*
X11901116Y22475400D01*
X11917486Y22463539D01*
X11933111Y22450704D01*
X11941146Y22446396D01*
X11948528Y22441047D01*
X11966893Y22432591D01*
X11984711Y22423037D01*
X11993431Y22420371D01*
X12001710Y22416559D01*
X12021367Y22411830D01*
X12040703Y22405919D01*
X12049770Y22404998D01*
X12058637Y22402865D01*
X12062790Y22402317D01*
X12462790Y22352317D01*
X12468692Y22352160D01*
X12474505Y22351085D01*
X12497917Y22351381D01*
X12521318Y22350758D01*
X12527144Y22351751D01*
X12533050Y22351826D01*
X12537210Y22352317D01*
X12937211Y22402317D01*
X12946106Y22404326D01*
X12950001Y22404666D01*
X12950001Y21479099D01*
X12947340Y21452081D01*
X12950001Y21425063D01*
X12957959Y21344262D01*
X12969042Y21307727D01*
X12989409Y21240587D01*
X13040479Y21145039D01*
X13091987Y21082277D01*
X13091993Y21082271D01*
X13109211Y21061291D01*
X13130191Y21044073D01*
X13546036Y20628228D01*
X13522273Y20570858D01*
X13480000Y20358341D01*
X13480000Y20141659D01*
X13522273Y19929142D01*
X13605193Y19728955D01*
X13725575Y19548791D01*
X13824367Y19449999D01*
X13476397Y19449999D01*
X13068299Y19858097D01*
X13097727Y19929142D01*
X13140000Y20141659D01*
X13140000Y20358341D01*
X13097727Y20570858D01*
X13014807Y20771045D01*
X12894425Y20951209D01*
X12741209Y21104425D01*
X12561045Y21224807D01*
X12360858Y21307727D01*
X12148341Y21350000D01*
X11931659Y21350000D01*
X11753297Y21314521D01*
X11050000Y22017817D01*
X11050000Y24572993D01*
X11052660Y24600001D01*
X11050000Y24627009D01*
X11050000Y24627018D01*
X11042042Y24707819D01*
X11010592Y24811494D01*
X10959521Y24907042D01*
X10890790Y24990790D01*
X10869804Y25008013D01*
X10658013Y25219804D01*
X10640790Y25240790D01*
X10557042Y25309521D01*
X10501209Y25339364D01*
X10501209Y25475000D01*
X10489177Y25597167D01*
X10453542Y25714640D01*
X10395674Y25822903D01*
X10317797Y25917797D01*
X10222903Y25995674D01*
X10114640Y26053542D01*
X9997167Y26089177D01*
X9875000Y26101209D01*
X9125000Y26101209D01*
X9002833Y26089177D01*
X8885360Y26053542D01*
X8777097Y25995674D01*
X8682203Y25917797D01*
X8604326Y25822903D01*
X8546458Y25714640D01*
X8510823Y25597167D01*
X8498791Y25475000D01*
X8498791Y24225000D01*
X8500000Y24212724D01*
X8500000Y23200000D01*
X8501644Y23183230D01*
X8501890Y23166378D01*
X8504494Y23154164D01*
X8505713Y23141730D01*
X8510585Y23125594D01*
X8514098Y23109115D01*
X8515395Y23105132D01*
X8615395Y22805131D01*
X8618991Y22797066D01*
X8621454Y22788590D01*
X8630888Y22770390D01*
X8639242Y22751658D01*
X8644338Y22744443D01*
X8648399Y22736609D01*
X8661186Y22720590D01*
X8673021Y22703835D01*
X8679419Y22697750D01*
X8684926Y22690851D01*
X8687868Y22687868D01*
X8887868Y22487868D01*
X8894913Y22482081D01*
X8901116Y22475400D01*
X8917486Y22463539D01*
X8933111Y22450704D01*
X8941146Y22446396D01*
X8948528Y22441047D01*
X8966893Y22432591D01*
X8984711Y22423037D01*
X8993431Y22420371D01*
X9001710Y22416559D01*
X9021367Y22411830D01*
X9040703Y22405919D01*
X9049770Y22404998D01*
X9058637Y22402865D01*
X9062790Y22402317D01*
X9462790Y22352317D01*
X9468692Y22352160D01*
X9474505Y22351085D01*
X9497917Y22351381D01*
X9521318Y22350758D01*
X9527144Y22351751D01*
X9533050Y22351826D01*
X9537210Y22352317D01*
X9937211Y22402317D01*
X9946106Y22404326D01*
X9950001Y22404666D01*
X9950001Y21817018D01*
X9947340Y21790000D01*
X9950001Y21762982D01*
X9957959Y21682181D01*
X9966915Y21652659D01*
X9989409Y21578506D01*
X10040479Y21482958D01*
X10091987Y21420196D01*
X10091993Y21420190D01*
X10109211Y21399210D01*
X10130191Y21381992D01*
X10160974Y21351209D01*
X9176608Y21351209D01*
X8050000Y22477817D01*
X8050000Y23955991D01*
X8052660Y23983002D01*
X8050000Y24010013D01*
X8050000Y24010020D01*
X8042042Y24090821D01*
X8010592Y24194496D01*
X7959521Y24290044D01*
X7890790Y24373792D01*
X7869804Y24391015D01*
X7501209Y24759610D01*
X7501209Y25475000D01*
X7489177Y25597167D01*
X7453542Y25714640D01*
X7395674Y25822903D01*
X7317797Y25917797D01*
X7222903Y25995674D01*
X7114640Y26053542D01*
X6997167Y26089177D01*
X6875000Y26101209D01*
X6125000Y26101209D01*
X6002833Y26089177D01*
X5885360Y26053542D01*
X5777097Y25995674D01*
X5682203Y25917797D01*
X5604326Y25822903D01*
X5546458Y25714640D01*
X5510823Y25597167D01*
X5498791Y25475000D01*
X5498791Y24225000D01*
X5500000Y24212724D01*
X5500000Y23200000D01*
X5501644Y23183230D01*
X5501890Y23166378D01*
X5504494Y23154164D01*
X5505713Y23141730D01*
X5510585Y23125594D01*
X5514098Y23109115D01*
X5515395Y23105132D01*
X5615395Y22805131D01*
X5618991Y22797066D01*
X5621454Y22788590D01*
X5630888Y22770390D01*
X5639242Y22751658D01*
X5644338Y22744443D01*
X5648399Y22736609D01*
X5661186Y22720590D01*
X5673021Y22703835D01*
X5679419Y22697750D01*
X5684926Y22690851D01*
X5687868Y22687868D01*
X5887868Y22487868D01*
X5894913Y22482081D01*
X5901116Y22475400D01*
X5917486Y22463539D01*
X5933111Y22450704D01*
X5941146Y22446396D01*
X5948528Y22441047D01*
X5966893Y22432591D01*
X5984711Y22423037D01*
X5993431Y22420371D01*
X6001710Y22416559D01*
X6021367Y22411830D01*
X6040703Y22405919D01*
X6049770Y22404998D01*
X6058637Y22402865D01*
X6062790Y22402317D01*
X6462790Y22352317D01*
X6468692Y22352160D01*
X6474505Y22351085D01*
X6497917Y22351381D01*
X6521318Y22350758D01*
X6527144Y22351751D01*
X6533050Y22351826D01*
X6537210Y22352317D01*
X6937211Y22402317D01*
X6946106Y22404326D01*
X6950001Y22404666D01*
X6950001Y22277018D01*
X6947340Y22250000D01*
X6957959Y22142182D01*
X6989409Y22038506D01*
X7040479Y21942958D01*
X7091987Y21880196D01*
X7091993Y21880190D01*
X7109211Y21859210D01*
X7130191Y21841992D01*
X8398791Y20573392D01*
X8398791Y19400000D01*
X8403618Y19350992D01*
X8417913Y19303866D01*
X8441127Y19260436D01*
X8472368Y19222368D01*
X8510436Y19191127D01*
X8553866Y19167913D01*
X8600992Y19153618D01*
X8650000Y19148791D01*
X9050001Y19148791D01*
X9050001Y19022104D01*
X9047824Y19000000D01*
X9056512Y18911785D01*
X9082243Y18826960D01*
X9124029Y18748784D01*
X9166172Y18697433D01*
X9166177Y18697428D01*
X9180264Y18680263D01*
X9197429Y18666176D01*
X10316165Y17547439D01*
X10330252Y17530274D01*
X10347417Y17516187D01*
X10347421Y17516183D01*
X10398772Y17474040D01*
X10476948Y17432254D01*
X10561774Y17406522D01*
X10627884Y17400011D01*
X10627894Y17400011D01*
X10649988Y17397835D01*
X10672083Y17400011D01*
X14513594Y17400011D01*
X16737395Y15176209D01*
X16350000Y15176209D01*
X16300992Y15171382D01*
X16253866Y15157087D01*
X16210436Y15133873D01*
X16172368Y15102632D01*
X16141127Y15064564D01*
X16117913Y15021134D01*
X16103618Y14974008D01*
X16098791Y14925000D01*
X16098791Y14687605D01*
X15548530Y15237866D01*
X15582563Y15271899D01*
X15664641Y15394738D01*
X15721178Y15531229D01*
X15750000Y15676127D01*
X15750000Y15823865D01*
X15721178Y15968763D01*
X15664641Y16105254D01*
X15582563Y16228093D01*
X15478097Y16332559D01*
X15355258Y16414637D01*
X15218767Y16471174D01*
X15073869Y16499996D01*
X14926131Y16499996D01*
X14781233Y16471174D01*
X14644742Y16414637D01*
X14521903Y16332559D01*
X14417437Y16228093D01*
X14335359Y16105254D01*
X14278822Y15968763D01*
X14250000Y15823865D01*
X14250000Y15676127D01*
X14278822Y15531229D01*
X14335359Y15394738D01*
X14417437Y15271899D01*
X14521577Y15167759D01*
X14436758Y15193489D01*
X14370648Y15200000D01*
X14370637Y15200000D01*
X14348543Y15202176D01*
X14326449Y15200000D01*
X12186396Y15200000D01*
X4950000Y22436395D01*
X4950000Y23807906D01*
X4952176Y23830001D01*
X4950000Y23852095D01*
X4950000Y23852105D01*
X4943489Y23918215D01*
X4917757Y24003041D01*
X4914027Y24010020D01*
X4875971Y24081217D01*
X4833828Y24132568D01*
X4833824Y24132572D01*
X4819737Y24149737D01*
X4802572Y24163824D01*
X3528299Y25438096D01*
X3557727Y25509142D01*
X3600000Y25721659D01*
X3600000Y25938341D01*
X3557727Y26150858D01*
X3474807Y26351045D01*
X3354425Y26531209D01*
X3201209Y26684425D01*
X3021045Y26804807D01*
X2820858Y26887727D01*
X2608341Y26930000D01*
X2391659Y26930000D01*
X2179142Y26887727D01*
X1978955Y26804807D01*
X1798791Y26684425D01*
X1645575Y26531209D01*
X1525193Y26351045D01*
X1442273Y26150858D01*
X1400000Y25938341D01*
X1400000Y25721659D01*
X1442273Y25509142D01*
X1525193Y25308955D01*
X1645575Y25128791D01*
X1798791Y24975575D01*
X1978955Y24855193D01*
X2179142Y24772273D01*
X2391659Y24730000D01*
X2608341Y24730000D01*
X2820858Y24772273D01*
X2891904Y24801701D01*
X4050001Y23643603D01*
X4050000Y22487852D01*
X3559549Y22978303D01*
X3600000Y23181659D01*
X3600000Y23398341D01*
X3557727Y23610858D01*
X3474807Y23811045D01*
X3354425Y23991209D01*
X3201209Y24144425D01*
X3021045Y24264807D01*
X2820858Y24347727D01*
X2608341Y24390000D01*
X2391659Y24390000D01*
X2179142Y24347727D01*
X1978955Y24264807D01*
X1798791Y24144425D01*
X1645575Y23991209D01*
X1525193Y23811045D01*
X1442273Y23610858D01*
X1400000Y23398341D01*
X1400000Y23181659D01*
X1442273Y22969142D01*
X1525193Y22768955D01*
X1645575Y22588791D01*
X1798791Y22435575D01*
X1978955Y22315193D01*
X2179142Y22232273D01*
X2391659Y22190000D01*
X2608341Y22190000D01*
X2820858Y22232273D01*
X2970716Y22294346D01*
X3427245Y21837817D01*
X3399008Y21846382D01*
X3350000Y21851209D01*
X1650000Y21851209D01*
X1600992Y21846382D01*
X1553866Y21832087D01*
X1510436Y21808873D01*
X1472368Y21777632D01*
X1441127Y21739564D01*
X1417913Y21696134D01*
X1403618Y21649008D01*
X1398791Y21600000D01*
X175000Y21600000D01*
X175000Y27955700D01*
X1162705Y27955700D01*
X1261429Y27717339D01*
X1412556Y27488247D01*
X1605472Y27293040D01*
X1832765Y27139220D01*
X2085699Y27032698D01*
X2300000Y27121851D01*
X2300000Y28170000D01*
X2700000Y28170000D01*
X2700000Y27121851D01*
X2914301Y27032698D01*
X3167235Y27139220D01*
X3394528Y27293040D01*
X3587444Y27488247D01*
X3738571Y27717339D01*
X3837295Y27955700D01*
X3746558Y28170000D01*
X2700000Y28170000D01*
X2300000Y28170000D01*
X1253442Y28170000D01*
X1162705Y27955700D01*
X175000Y27955700D01*
X175000Y28784300D01*
X1162705Y28784300D01*
X1253442Y28570000D01*
X2300000Y28570000D01*
X2300000Y29618149D01*
X2700000Y29618149D01*
X2700000Y28570000D01*
X3746558Y28570000D01*
X3837295Y28784300D01*
X3738571Y29022661D01*
X3587444Y29251753D01*
X3394528Y29446960D01*
X3167235Y29600780D01*
X2914301Y29707302D01*
X2700000Y29618149D01*
X2300000Y29618149D01*
X2085699Y29707302D01*
X1832765Y29600780D01*
X1605472Y29446960D01*
X1412556Y29251753D01*
X1261429Y29022661D01*
X1162705Y28784300D01*
X175000Y28784300D01*
X175000Y30508589D01*
X172467Y30534306D01*
X162461Y30567293D01*
X158342Y30575000D01*
X29825000Y30575000D01*
X29825000Y15375246D01*
G37*
X29825000Y15375246D02*
X29701421Y175000D01*
X175000Y175000D01*
X175000Y7599156D01*
X15797867Y7599156D01*
X15803764Y7490976D01*
X15830652Y7386025D01*
X15877498Y7288336D01*
X15942502Y7201664D01*
X16023167Y7129339D01*
X16116391Y7074140D01*
X16218593Y7038189D01*
X16262500Y7025000D01*
X16400000Y7162500D01*
X16400000Y8100000D01*
X15937500Y8100000D01*
X15800000Y7962500D01*
X15797867Y7599156D01*
X175000Y7599156D01*
X175000Y13295700D01*
X1162705Y13295700D01*
X1261429Y13057339D01*
X1412556Y12828247D01*
X1605472Y12633040D01*
X1832765Y12479220D01*
X2085699Y12372698D01*
X2300000Y12461851D01*
X2300000Y13510000D01*
X2700000Y13510000D01*
X2700000Y12461851D01*
X2914301Y12372698D01*
X3167235Y12479220D01*
X3394528Y12633040D01*
X3587444Y12828247D01*
X3738571Y13057339D01*
X3837295Y13295700D01*
X3746558Y13510000D01*
X2700000Y13510000D01*
X2300000Y13510000D01*
X1253442Y13510000D01*
X1162705Y13295700D01*
X175000Y13295700D01*
X175000Y14124300D01*
X1162705Y14124300D01*
X1253442Y13910000D01*
X2300000Y13910000D01*
X2300000Y14958149D01*
X2700000Y14958149D01*
X2700000Y13910000D01*
X3746558Y13910000D01*
X3837295Y14124300D01*
X3738571Y14362661D01*
X3587444Y14591753D01*
X3394528Y14786960D01*
X3167235Y14940780D01*
X2914301Y15047302D01*
X2700000Y14958149D01*
X2300000Y14958149D01*
X2085699Y15047302D01*
X1832765Y14940780D01*
X1605472Y14786960D01*
X1412556Y14591753D01*
X1261429Y14362661D01*
X1162705Y14124300D01*
X175000Y14124300D01*
X175000Y17100000D01*
X1398791Y17100000D01*
X1398791Y15400000D01*
X1403618Y15350992D01*
X1417913Y15303866D01*
X1441127Y15260436D01*
X1472368Y15222368D01*
X1510436Y15191127D01*
X1553866Y15167913D01*
X1600992Y15153618D01*
X1650000Y15148791D01*
X3350000Y15148791D01*
X3399008Y15153618D01*
X3446134Y15167913D01*
X3489564Y15191127D01*
X3527632Y15222368D01*
X3558873Y15260436D01*
X3582087Y15303866D01*
X3596382Y15350992D01*
X3601209Y15400000D01*
X3601209Y15700000D01*
X4476850Y15700000D01*
X4496458Y15635360D01*
X4554326Y15527097D01*
X4632203Y15432203D01*
X4727097Y15354326D01*
X4835360Y15296458D01*
X4952833Y15260823D01*
X5075000Y15248791D01*
X5157308Y15248791D01*
X5157959Y15242181D01*
X5170095Y15202176D01*
X5189409Y15138506D01*
X5240479Y15042958D01*
X5291987Y14980196D01*
X5291993Y14980190D01*
X5309211Y14959210D01*
X5330191Y14941992D01*
X5846671Y14425512D01*
X5841987Y14419804D01*
X4421203Y12999020D01*
X4281233Y12971178D01*
X4144742Y12914641D01*
X4021903Y12832563D01*
X3917437Y12728097D01*
X3835359Y12605258D01*
X3778822Y12468767D01*
X3750000Y12323869D01*
X3750000Y12176131D01*
X3778822Y12031233D01*
X3835359Y11894742D01*
X3917437Y11771903D01*
X4021903Y11667437D01*
X4144742Y11585359D01*
X4281233Y11528822D01*
X4426131Y11500000D01*
X4573869Y11500000D01*
X4718767Y11528822D01*
X4855258Y11585359D01*
X4978097Y11667437D01*
X5082563Y11771903D01*
X5164641Y11894742D01*
X5221178Y12031233D01*
X5250000Y12176131D01*
X5250000Y12272183D01*
X6000000Y13022183D01*
X6000000Y12400000D01*
X6001644Y12383230D01*
X6001890Y12366378D01*
X6004494Y12354164D01*
X6005713Y12341730D01*
X6010585Y12325594D01*
X6014098Y12309115D01*
X6015395Y12305132D01*
X6115395Y12005131D01*
X6118991Y11997066D01*
X6121454Y11988590D01*
X6130888Y11970390D01*
X6139242Y11951658D01*
X6144338Y11944443D01*
X6148399Y11936609D01*
X6161186Y11920590D01*
X6173021Y11903835D01*
X6179419Y11897750D01*
X6184926Y11890851D01*
X6187868Y11887868D01*
X6387868Y11687868D01*
X6394913Y11682081D01*
X6401116Y11675400D01*
X6417486Y11663539D01*
X6433111Y11650704D01*
X6441146Y11646396D01*
X6448528Y11641047D01*
X6466893Y11632591D01*
X6484711Y11623037D01*
X6493431Y11620371D01*
X6501710Y11616559D01*
X6521367Y11611830D01*
X6540703Y11605919D01*
X6549770Y11604998D01*
X6558637Y11602865D01*
X6562790Y11602317D01*
X6962790Y11552317D01*
X6968692Y11552160D01*
X6974505Y11551085D01*
X6997917Y11551381D01*
X7021318Y11550758D01*
X7027144Y11551751D01*
X7033050Y11551826D01*
X7037210Y11552317D01*
X7437211Y11602317D01*
X7446106Y11604326D01*
X7455185Y11605120D01*
X7474590Y11610757D01*
X7494322Y11615213D01*
X7502658Y11618911D01*
X7511410Y11621454D01*
X7529358Y11630758D01*
X7547841Y11638958D01*
X7555299Y11644204D01*
X7563391Y11648399D01*
X7579193Y11661013D01*
X7595728Y11672645D01*
X7602021Y11679236D01*
X7609149Y11684926D01*
X7612132Y11687868D01*
X7812132Y11887868D01*
X7817735Y11894690D01*
X7824218Y11900685D01*
X7836277Y11917261D01*
X7849296Y11933111D01*
X7853471Y11940898D01*
X7858661Y11948032D01*
X7867270Y11966634D01*
X7876963Y11984711D01*
X7879544Y11993153D01*
X7883253Y12001167D01*
X7884605Y12005132D01*
X7984605Y12305132D01*
X7988349Y12321564D01*
X7993444Y12337626D01*
X7994836Y12350034D01*
X7997612Y12362218D01*
X7998093Y12379068D01*
X7999971Y12395811D01*
X8000000Y12400000D01*
X8000000Y13412724D01*
X8001209Y13425000D01*
X8001209Y14675000D01*
X7989177Y14797167D01*
X7953542Y14914640D01*
X7895674Y15022903D01*
X7817797Y15117797D01*
X7722903Y15195674D01*
X7614640Y15253542D01*
X7507139Y15286152D01*
X7744869Y15365395D01*
X7752934Y15368991D01*
X7761410Y15371454D01*
X7779610Y15380888D01*
X7798342Y15389242D01*
X7805557Y15394338D01*
X7813391Y15398399D01*
X7829410Y15411186D01*
X7846165Y15423021D01*
X7852250Y15429419D01*
X7859149Y15434926D01*
X7862132Y15437868D01*
X8062132Y15637868D01*
X8067919Y15644913D01*
X8074600Y15651116D01*
X8086461Y15667486D01*
X8099296Y15683111D01*
X8103604Y15691146D01*
X8108953Y15698528D01*
X8117409Y15716893D01*
X8126963Y15734711D01*
X8129629Y15743431D01*
X8133441Y15751710D01*
X8138170Y15771367D01*
X8144081Y15790703D01*
X8145002Y15799770D01*
X8147135Y15808637D01*
X8147683Y15812790D01*
X8197683Y16212790D01*
X8197840Y16218691D01*
X8198915Y16224505D01*
X8198619Y16247917D01*
X8199242Y16271318D01*
X8198249Y16277144D01*
X8198174Y16283050D01*
X8197683Y16287210D01*
X8147683Y16687210D01*
X8145676Y16696098D01*
X8144881Y16705185D01*
X8139239Y16724607D01*
X8134787Y16744322D01*
X8131091Y16752651D01*
X8128547Y16761410D01*
X8119236Y16779371D01*
X8111042Y16797841D01*
X8105800Y16805293D01*
X8101602Y16813391D01*
X8088982Y16829200D01*
X8077355Y16845728D01*
X8070765Y16852020D01*
X8065074Y16859149D01*
X8062132Y16862132D01*
X7862132Y17062132D01*
X7855312Y17067734D01*
X7849315Y17074218D01*
X7832729Y17086284D01*
X7816889Y17099295D01*
X7809110Y17103466D01*
X7801969Y17108661D01*
X7783358Y17117275D01*
X7765289Y17126963D01*
X7756848Y17129544D01*
X7748833Y17133253D01*
X7744869Y17134605D01*
X7444868Y17234605D01*
X7428436Y17238349D01*
X7412374Y17243444D01*
X7399966Y17244836D01*
X7387782Y17247612D01*
X7370932Y17248093D01*
X7354189Y17249971D01*
X7350000Y17250000D01*
X6337276Y17250000D01*
X6325000Y17251209D01*
X5075000Y17251209D01*
X4952833Y17239177D01*
X4835360Y17203542D01*
X4727097Y17145674D01*
X4632203Y17067797D01*
X4554326Y16972903D01*
X4496458Y16864640D01*
X4476850Y16800000D01*
X3601209Y16800000D01*
X3601209Y17100000D01*
X3596382Y17149008D01*
X3582087Y17196134D01*
X3558873Y17239564D01*
X3527632Y17277632D01*
X3489564Y17308873D01*
X3446134Y17332087D01*
X3399008Y17346382D01*
X3350000Y17351209D01*
X1650000Y17351209D01*
X1600992Y17346382D01*
X1553866Y17332087D01*
X1510436Y17308873D01*
X1472368Y17277632D01*
X1441127Y17239564D01*
X1417913Y17196134D01*
X1403618Y17149008D01*
X1398791Y17100000D01*
X175000Y17100000D01*
X175000Y21600000D01*
X1398791Y21600000D01*
X1398791Y19900000D01*
X1403618Y19850992D01*
X1417913Y19803866D01*
X1441127Y19760436D01*
X1472368Y19722368D01*
X1510436Y19691127D01*
X1553866Y19667913D01*
X1600992Y19653618D01*
X1650000Y19648791D01*
X3350000Y19648791D01*
X3399008Y19653618D01*
X3446134Y19667913D01*
X3489564Y19691127D01*
X3527632Y19722368D01*
X3558873Y19760436D01*
X3582087Y19803866D01*
X3596382Y19850992D01*
X3601209Y19900000D01*
X3601209Y21600000D01*
X3596382Y21649008D01*
X3587817Y21677245D01*
X11417644Y13847417D01*
X11431731Y13830252D01*
X11448896Y13816165D01*
X11448900Y13816161D01*
X11500251Y13774018D01*
X11557451Y13743444D01*
X11578427Y13732232D01*
X11663253Y13706500D01*
X11729363Y13699989D01*
X11729374Y13699989D01*
X11751468Y13697813D01*
X11773562Y13699989D01*
X13913616Y13699989D01*
X18075001Y9538603D01*
X18075001Y9276209D01*
X17675000Y9276209D01*
X17675000Y9402909D01*
X17677176Y9425001D01*
X17675000Y9447093D01*
X17675000Y9447105D01*
X17668489Y9513215D01*
X17642757Y9598041D01*
X17605664Y9667437D01*
X17600971Y9676217D01*
X17558828Y9727568D01*
X17558824Y9727572D01*
X17544737Y9744737D01*
X17527572Y9758824D01*
X14733829Y12552566D01*
X14719737Y12569737D01*
X14651216Y12625971D01*
X14573041Y12667757D01*
X14488215Y12693489D01*
X14422105Y12700000D01*
X14422094Y12700000D01*
X14400000Y12702176D01*
X14377906Y12700000D01*
X14043822Y12700000D01*
X14039177Y12747167D01*
X14003542Y12864640D01*
X13945674Y12972903D01*
X13867797Y13067797D01*
X13772903Y13145674D01*
X13664640Y13203542D01*
X13547167Y13239177D01*
X13425000Y13251209D01*
X12175000Y13251209D01*
X12162724Y13250000D01*
X11150000Y13250000D01*
X11133230Y13248356D01*
X11116378Y13248110D01*
X11104164Y13245506D01*
X11091730Y13244287D01*
X11075594Y13239415D01*
X11059115Y13235902D01*
X11055132Y13234605D01*
X10755132Y13134605D01*
X10747075Y13131012D01*
X10738590Y13128547D01*
X10720379Y13119107D01*
X10701659Y13110759D01*
X10694447Y13105665D01*
X10686609Y13101602D01*
X10670584Y13088810D01*
X10653835Y13076979D01*
X10647751Y13070582D01*
X10640851Y13065074D01*
X10637868Y13062132D01*
X10437868Y12862132D01*
X10432082Y12855088D01*
X10425400Y12848884D01*
X10413534Y12832508D01*
X10400705Y12816889D01*
X10396399Y12808859D01*
X10391047Y12801472D01*
X10382589Y12783103D01*
X10373037Y12765289D01*
X10370371Y12756569D01*
X10366559Y12748290D01*
X10361830Y12728632D01*
X10355919Y12709297D01*
X10354998Y12700231D01*
X10352865Y12691364D01*
X10352317Y12687211D01*
X10302317Y12287210D01*
X10302160Y12281308D01*
X10301085Y12275495D01*
X10301381Y12252083D01*
X10300758Y12228682D01*
X10301751Y12222856D01*
X10301826Y12216950D01*
X10302317Y12212790D01*
X10352317Y11812789D01*
X10354326Y11803894D01*
X10355120Y11794815D01*
X10360757Y11775410D01*
X10365213Y11755678D01*
X10368911Y11747342D01*
X10371454Y11738590D01*
X10380758Y11720642D01*
X10388958Y11702159D01*
X10394204Y11694701D01*
X10398399Y11686609D01*
X10411013Y11670807D01*
X10422645Y11654272D01*
X10429236Y11647979D01*
X10434926Y11640851D01*
X10437868Y11637868D01*
X10637868Y11437868D01*
X10644690Y11432265D01*
X10650685Y11425782D01*
X10667261Y11413723D01*
X10683111Y11400704D01*
X10690898Y11396529D01*
X10698032Y11391339D01*
X10716634Y11382730D01*
X10734711Y11373037D01*
X10743153Y11370456D01*
X10751167Y11366747D01*
X10755132Y11365395D01*
X11055132Y11265395D01*
X11071564Y11261651D01*
X11087626Y11256556D01*
X11100034Y11255164D01*
X11112218Y11252388D01*
X11129068Y11251907D01*
X11145811Y11250029D01*
X11150000Y11250000D01*
X12162724Y11250000D01*
X12175000Y11248791D01*
X13425000Y11248791D01*
X13547167Y11260823D01*
X13664640Y11296458D01*
X13772903Y11354326D01*
X13867797Y11432203D01*
X13945674Y11527097D01*
X14003542Y11635360D01*
X14039177Y11752833D01*
X14043822Y11800000D01*
X14213605Y11800000D01*
X16438604Y9575000D01*
X16374998Y9575000D01*
X16374998Y9462502D01*
X16262500Y9575000D01*
X16218593Y9561811D01*
X16116391Y9525860D01*
X16023167Y9470661D01*
X15942502Y9398336D01*
X15877498Y9311664D01*
X15830652Y9213975D01*
X15803764Y9109024D01*
X15797867Y9000844D01*
X15800000Y8637500D01*
X15937500Y8500000D01*
X16400000Y8500000D01*
X16400000Y8520000D01*
X16748791Y8520000D01*
X16748791Y7575000D01*
X16750000Y7562725D01*
X16750000Y7162500D01*
X16887500Y7025000D01*
X16931407Y7038189D01*
X17033609Y7074140D01*
X17126833Y7129339D01*
X17207498Y7201664D01*
X17272502Y7288336D01*
X17289504Y7323791D01*
X17425001Y7323791D01*
X17425001Y7311397D01*
X15813605Y5700000D01*
X14522094Y5700000D01*
X14500000Y5702176D01*
X14477906Y5700000D01*
X14477895Y5700000D01*
X14411785Y5693489D01*
X14326959Y5667757D01*
X14248783Y5625971D01*
X14197432Y5583828D01*
X14197428Y5583824D01*
X14180263Y5569737D01*
X14166176Y5552572D01*
X13764024Y5150420D01*
X13664640Y5203542D01*
X13547167Y5239177D01*
X13425000Y5251209D01*
X12175000Y5251209D01*
X12162724Y5250000D01*
X11150000Y5250000D01*
X11133230Y5248356D01*
X11116378Y5248110D01*
X11104164Y5245506D01*
X11091730Y5244287D01*
X11075594Y5239415D01*
X11059115Y5235902D01*
X11055132Y5234605D01*
X10755132Y5134605D01*
X10747075Y5131012D01*
X10738590Y5128547D01*
X10720379Y5119107D01*
X10701659Y5110759D01*
X10694447Y5105665D01*
X10686609Y5101602D01*
X10670584Y5088810D01*
X10653835Y5076979D01*
X10647751Y5070582D01*
X10640851Y5065074D01*
X10637868Y5062132D01*
X10437868Y4862132D01*
X10432082Y4855088D01*
X10425400Y4848884D01*
X10413534Y4832508D01*
X10400705Y4816889D01*
X10396399Y4808859D01*
X10391047Y4801472D01*
X10382589Y4783103D01*
X10373037Y4765289D01*
X10370371Y4756569D01*
X10366559Y4748290D01*
X10361830Y4728632D01*
X10355919Y4709297D01*
X10354998Y4700231D01*
X10352865Y4691364D01*
X10352317Y4687211D01*
X10302317Y4287210D01*
X10302160Y4281308D01*
X10301085Y4275495D01*
X10301381Y4252083D01*
X10300758Y4228682D01*
X10301751Y4222856D01*
X10301826Y4216950D01*
X10302317Y4212790D01*
X10352317Y3812789D01*
X10354326Y3803894D01*
X10355120Y3794815D01*
X10360757Y3775410D01*
X10365213Y3755678D01*
X10368911Y3747342D01*
X10371454Y3738590D01*
X10380758Y3720642D01*
X10388958Y3702159D01*
X10394204Y3694701D01*
X10398399Y3686609D01*
X10411013Y3670807D01*
X10422645Y3654272D01*
X10429236Y3647979D01*
X10434926Y3640851D01*
X10437868Y3637868D01*
X10637868Y3437868D01*
X10644690Y3432265D01*
X10650685Y3425782D01*
X10667261Y3413723D01*
X10683111Y3400704D01*
X10690898Y3396529D01*
X10698032Y3391339D01*
X10716634Y3382730D01*
X10734711Y3373037D01*
X10743153Y3370456D01*
X10751167Y3366747D01*
X10755132Y3365395D01*
X11055132Y3265395D01*
X11071564Y3261651D01*
X11087626Y3256556D01*
X11100034Y3255164D01*
X11112218Y3252388D01*
X11129068Y3251907D01*
X11145811Y3250029D01*
X11150000Y3250000D01*
X12162724Y3250000D01*
X12175000Y3248791D01*
X13425000Y3248791D01*
X13547167Y3260823D01*
X13664640Y3296458D01*
X13772903Y3354326D01*
X13867797Y3432203D01*
X13945674Y3527097D01*
X14003542Y3635360D01*
X14039177Y3752833D01*
X14051209Y3875000D01*
X14051209Y4164814D01*
X14686396Y4800000D01*
X15977906Y4800000D01*
X16000000Y4797824D01*
X16022094Y4800000D01*
X16022105Y4800000D01*
X16088215Y4806511D01*
X16173041Y4832243D01*
X16251216Y4874029D01*
X16319737Y4930263D01*
X16333829Y4947434D01*
X18177572Y6791176D01*
X18194737Y6805263D01*
X18208824Y6822428D01*
X18208828Y6822432D01*
X18250971Y6873783D01*
X18272818Y6914657D01*
X18292757Y6951959D01*
X18318489Y7036785D01*
X18325000Y7102895D01*
X18325000Y7102907D01*
X18327176Y7124999D01*
X18325000Y7147091D01*
X18325000Y7323791D01*
X18725000Y7323791D01*
X18725001Y4852920D01*
X18682203Y4817797D01*
X18604326Y4722903D01*
X18546458Y4614640D01*
X18510823Y4497167D01*
X18498791Y4375000D01*
X18498791Y4200000D01*
X18243822Y4200000D01*
X18239177Y4247167D01*
X18203542Y4364640D01*
X18145674Y4472903D01*
X18067797Y4567797D01*
X17972903Y4645674D01*
X17864640Y4703542D01*
X17747167Y4739177D01*
X17625000Y4751209D01*
X16375000Y4751209D01*
X16362724Y4750000D01*
X15350000Y4750000D01*
X15333230Y4748356D01*
X15316378Y4748110D01*
X15304164Y4745506D01*
X15291730Y4744287D01*
X15275594Y4739415D01*
X15259115Y4735902D01*
X15255132Y4734605D01*
X14955132Y4634605D01*
X14947075Y4631012D01*
X14938590Y4628547D01*
X14920379Y4619107D01*
X14901659Y4610759D01*
X14894447Y4605665D01*
X14886609Y4601602D01*
X14870584Y4588810D01*
X14853835Y4576979D01*
X14847751Y4570582D01*
X14840851Y4565074D01*
X14837868Y4562132D01*
X14637868Y4362132D01*
X14632082Y4355088D01*
X14625400Y4348884D01*
X14613534Y4332508D01*
X14600705Y4316889D01*
X14596399Y4308859D01*
X14591047Y4301472D01*
X14582589Y4283103D01*
X14573037Y4265289D01*
X14570371Y4256569D01*
X14566559Y4248290D01*
X14561830Y4228632D01*
X14555919Y4209297D01*
X14554998Y4200231D01*
X14552865Y4191364D01*
X14552317Y4187211D01*
X14502317Y3787210D01*
X14502160Y3781308D01*
X14501085Y3775495D01*
X14501381Y3752083D01*
X14500758Y3728682D01*
X14501751Y3722856D01*
X14501826Y3716950D01*
X14502317Y3712790D01*
X14552317Y3312789D01*
X14554326Y3303894D01*
X14555120Y3294815D01*
X14560757Y3275410D01*
X14565213Y3255678D01*
X14568911Y3247342D01*
X14571454Y3238590D01*
X14580758Y3220642D01*
X14588958Y3202159D01*
X14594204Y3194701D01*
X14598399Y3186609D01*
X14611013Y3170807D01*
X14622645Y3154272D01*
X14629236Y3147979D01*
X14634926Y3140851D01*
X14637868Y3137868D01*
X14837868Y2937868D01*
X14844690Y2932265D01*
X14850685Y2925782D01*
X14867261Y2913723D01*
X14883111Y2900704D01*
X14890898Y2896529D01*
X14898032Y2891339D01*
X14916634Y2882730D01*
X14934711Y2873037D01*
X14943153Y2870456D01*
X14951167Y2866747D01*
X14955132Y2865395D01*
X15255132Y2765395D01*
X15271564Y2761651D01*
X15287626Y2756556D01*
X15300034Y2755164D01*
X15312218Y2752388D01*
X15329068Y2751907D01*
X15345811Y2750029D01*
X15350000Y2750000D01*
X16362724Y2750000D01*
X16375000Y2748791D01*
X17625000Y2748791D01*
X17747167Y2760823D01*
X17864640Y2796458D01*
X17972903Y2854326D01*
X18067797Y2932203D01*
X18145674Y3027097D01*
X18203542Y3135360D01*
X18239177Y3252833D01*
X18243822Y3300000D01*
X18498791Y3300000D01*
X18498791Y3125000D01*
X18500000Y3112724D01*
X18500000Y2100000D01*
X18501644Y2083230D01*
X18501890Y2066378D01*
X18504494Y2054164D01*
X18505713Y2041730D01*
X18510585Y2025594D01*
X18514098Y2009115D01*
X18515395Y2005132D01*
X18615395Y1705131D01*
X18618991Y1697066D01*
X18621454Y1688590D01*
X18630888Y1670390D01*
X18639242Y1651658D01*
X18644338Y1644443D01*
X18648399Y1636609D01*
X18661186Y1620590D01*
X18673021Y1603835D01*
X18679419Y1597750D01*
X18684926Y1590851D01*
X18687868Y1587868D01*
X18887868Y1387868D01*
X18894913Y1382081D01*
X18901116Y1375400D01*
X18917486Y1363539D01*
X18933111Y1350704D01*
X18941146Y1346396D01*
X18948528Y1341047D01*
X18966893Y1332591D01*
X18984711Y1323037D01*
X18993431Y1320371D01*
X19001710Y1316559D01*
X19021367Y1311830D01*
X19040703Y1305919D01*
X19049770Y1304998D01*
X19058637Y1302865D01*
X19062790Y1302317D01*
X19462790Y1252317D01*
X19468692Y1252160D01*
X19474505Y1251085D01*
X19497917Y1251381D01*
X19521318Y1250758D01*
X19527144Y1251751D01*
X19533050Y1251826D01*
X19537210Y1252317D01*
X19937211Y1302317D01*
X19946106Y1304326D01*
X19955185Y1305120D01*
X19974590Y1310757D01*
X19994322Y1315213D01*
X20002658Y1318911D01*
X20011410Y1321454D01*
X20029358Y1330758D01*
X20047841Y1338958D01*
X20055299Y1344204D01*
X20063391Y1348399D01*
X20079193Y1361013D01*
X20095728Y1372645D01*
X20102021Y1379236D01*
X20109149Y1384926D01*
X20112132Y1387868D01*
X20312132Y1587868D01*
X20317735Y1594690D01*
X20324218Y1600685D01*
X20336277Y1617261D01*
X20349296Y1633111D01*
X20353471Y1640898D01*
X20358661Y1648032D01*
X20367270Y1666634D01*
X20376963Y1684711D01*
X20379544Y1693153D01*
X20383253Y1701167D01*
X20384605Y1705132D01*
X20484605Y2005132D01*
X20488349Y2021564D01*
X20493444Y2037626D01*
X20494836Y2050034D01*
X20497612Y2062218D01*
X20498093Y2079068D01*
X20499971Y2095811D01*
X20500000Y2100000D01*
X20500000Y2658341D01*
X26400000Y2658341D01*
X26400000Y2441659D01*
X26442273Y2229142D01*
X26525193Y2028955D01*
X26645575Y1848791D01*
X26798791Y1695575D01*
X26978955Y1575193D01*
X27179142Y1492273D01*
X27391659Y1450000D01*
X27608341Y1450000D01*
X27820858Y1492273D01*
X28021045Y1575193D01*
X28201209Y1695575D01*
X28354425Y1848791D01*
X28474807Y2028955D01*
X28557727Y2229142D01*
X28600000Y2441659D01*
X28600000Y2658341D01*
X28557727Y2870858D01*
X28474807Y3071045D01*
X28354425Y3251209D01*
X28201209Y3404425D01*
X28021045Y3524807D01*
X27820858Y3607727D01*
X27608341Y3650000D01*
X27391659Y3650000D01*
X27179142Y3607727D01*
X26978955Y3524807D01*
X26798791Y3404425D01*
X26645575Y3251209D01*
X26525193Y3071045D01*
X26442273Y2870858D01*
X26400000Y2658341D01*
X20500000Y2658341D01*
X20500000Y3112724D01*
X20501209Y3125000D01*
X20501209Y4375000D01*
X20489177Y4497167D01*
X20453542Y4614640D01*
X20395674Y4722903D01*
X20317797Y4817797D01*
X20222903Y4895674D01*
X20114640Y4953542D01*
X19997167Y4989177D01*
X19875000Y5001209D01*
X19625000Y5001209D01*
X19625000Y6304601D01*
X21282223Y4647377D01*
X21296310Y4630212D01*
X21313475Y4616125D01*
X21313479Y4616121D01*
X21364830Y4573978D01*
X21436933Y4535438D01*
X21443006Y4532192D01*
X21527832Y4506460D01*
X21593942Y4499949D01*
X21593952Y4499949D01*
X21616047Y4497773D01*
X21638141Y4499949D01*
X24361907Y4499949D01*
X24384001Y4497773D01*
X24406095Y4499949D01*
X24406106Y4499949D01*
X24472216Y4506460D01*
X24557042Y4532192D01*
X24635217Y4573978D01*
X24703738Y4630212D01*
X24717830Y4647383D01*
X25268788Y5198341D01*
X26400000Y5198341D01*
X26400000Y4981659D01*
X26442273Y4769142D01*
X26525193Y4568955D01*
X26645575Y4388791D01*
X26798791Y4235575D01*
X26978955Y4115193D01*
X27179142Y4032273D01*
X27391659Y3990000D01*
X27608341Y3990000D01*
X27820858Y4032273D01*
X28021045Y4115193D01*
X28201209Y4235575D01*
X28354425Y4388791D01*
X28474807Y4568955D01*
X28557727Y4769142D01*
X28600000Y4981659D01*
X28600000Y5198341D01*
X28557727Y5410858D01*
X28474807Y5611045D01*
X28354425Y5791209D01*
X28201209Y5944425D01*
X28021045Y6064807D01*
X27820858Y6147727D01*
X27608341Y6190000D01*
X27391659Y6190000D01*
X27179142Y6147727D01*
X26978955Y6064807D01*
X26798791Y5944425D01*
X26645575Y5791209D01*
X26525193Y5611045D01*
X26442273Y5410858D01*
X26400000Y5198341D01*
X25268788Y5198341D01*
X25802572Y5732124D01*
X25819737Y5746211D01*
X25833824Y5763376D01*
X25833828Y5763380D01*
X25875971Y5814731D01*
X25917757Y5892907D01*
X25943489Y5977733D01*
X25950000Y6043843D01*
X25950000Y6043853D01*
X25952176Y6065948D01*
X25950000Y6088042D01*
X25950000Y7738341D01*
X26400000Y7738341D01*
X26400000Y7521659D01*
X26442273Y7309142D01*
X26525193Y7108955D01*
X26645575Y6928791D01*
X26798791Y6775575D01*
X26978955Y6655193D01*
X27179142Y6572273D01*
X27391659Y6530000D01*
X27608341Y6530000D01*
X27820858Y6572273D01*
X28021045Y6655193D01*
X28201209Y6775575D01*
X28354425Y6928791D01*
X28474807Y7108955D01*
X28557727Y7309142D01*
X28600000Y7521659D01*
X28600000Y7738341D01*
X28557727Y7950858D01*
X28474807Y8151045D01*
X28354425Y8331209D01*
X28201209Y8484425D01*
X28021045Y8604807D01*
X27820858Y8687727D01*
X27608341Y8730000D01*
X27391659Y8730000D01*
X27179142Y8687727D01*
X26978955Y8604807D01*
X26798791Y8484425D01*
X26645575Y8331209D01*
X26525193Y8151045D01*
X26442273Y7950858D01*
X26400000Y7738341D01*
X25950000Y7738341D01*
X25950000Y10278341D01*
X26400000Y10278341D01*
X26400000Y10061659D01*
X26442273Y9849142D01*
X26525193Y9648955D01*
X26645575Y9468791D01*
X26798791Y9315575D01*
X26978955Y9195193D01*
X27179142Y9112273D01*
X27391659Y9070000D01*
X27608341Y9070000D01*
X27820858Y9112273D01*
X28021045Y9195193D01*
X28201209Y9315575D01*
X28354425Y9468791D01*
X28474807Y9648955D01*
X28557727Y9849142D01*
X28600000Y10061659D01*
X28600000Y10278341D01*
X28557727Y10490858D01*
X28474807Y10691045D01*
X28354425Y10871209D01*
X28201209Y11024425D01*
X28021045Y11144807D01*
X27820858Y11227727D01*
X27608341Y11270000D01*
X27391659Y11270000D01*
X27179142Y11227727D01*
X26978955Y11144807D01*
X26798791Y11024425D01*
X26645575Y10871209D01*
X26525193Y10691045D01*
X26442273Y10490858D01*
X26400000Y10278341D01*
X25950000Y10278341D01*
X25950000Y12818341D01*
X26400000Y12818341D01*
X26400000Y12601659D01*
X26442273Y12389142D01*
X26525193Y12188955D01*
X26645575Y12008791D01*
X26798791Y11855575D01*
X26978955Y11735193D01*
X27179142Y11652273D01*
X27391659Y11610000D01*
X27608341Y11610000D01*
X27820858Y11652273D01*
X28021045Y11735193D01*
X28201209Y11855575D01*
X28354425Y12008791D01*
X28474807Y12188955D01*
X28557727Y12389142D01*
X28600000Y12601659D01*
X28600000Y12818341D01*
X28557727Y13030858D01*
X28474807Y13231045D01*
X28354425Y13411209D01*
X28201209Y13564425D01*
X28021045Y13684807D01*
X27820858Y13767727D01*
X27608341Y13810000D01*
X27391659Y13810000D01*
X27179142Y13767727D01*
X26978955Y13684807D01*
X26798791Y13564425D01*
X26645575Y13411209D01*
X26525193Y13231045D01*
X26442273Y13030858D01*
X26400000Y12818341D01*
X25950000Y12818341D01*
X25950000Y14547240D01*
X25950012Y14547362D01*
X25950012Y14547373D01*
X25952188Y14569467D01*
X25950012Y14591561D01*
X25950012Y16100000D01*
X26398791Y16100000D01*
X26398791Y14400000D01*
X26403618Y14350992D01*
X26417913Y14303866D01*
X26441127Y14260436D01*
X26472368Y14222368D01*
X26510436Y14191127D01*
X26553866Y14167913D01*
X26600992Y14153618D01*
X26650000Y14148791D01*
X28350000Y14148791D01*
X28399008Y14153618D01*
X28446134Y14167913D01*
X28489564Y14191127D01*
X28527632Y14222368D01*
X28558873Y14260436D01*
X28582087Y14303866D01*
X28596382Y14350992D01*
X28601209Y14400000D01*
X28601209Y16100000D01*
X28596382Y16149008D01*
X28582087Y16196134D01*
X28558873Y16239564D01*
X28527632Y16277632D01*
X28489564Y16308873D01*
X28446134Y16332087D01*
X28399008Y16346382D01*
X28350000Y16351209D01*
X26650000Y16351209D01*
X26600992Y16346382D01*
X26553866Y16332087D01*
X26510436Y16308873D01*
X26472368Y16277632D01*
X26441127Y16239564D01*
X26417913Y16196134D01*
X26403618Y16149008D01*
X26398791Y16100000D01*
X25950012Y16100000D01*
X25950012Y18283617D01*
X26888097Y19221701D01*
X26959142Y19192273D01*
X27171659Y19150000D01*
X27388341Y19150000D01*
X27600858Y19192273D01*
X27801045Y19275193D01*
X27981209Y19395575D01*
X28134425Y19548791D01*
X28254807Y19728955D01*
X28337727Y19929142D01*
X28380000Y20141659D01*
X28380000Y20358341D01*
X28344521Y20536703D01*
X28538012Y20730194D01*
X28538017Y20730200D01*
X28719800Y20911984D01*
X28740791Y20929211D01*
X28809522Y21012959D01*
X28835356Y21061291D01*
X28860593Y21108506D01*
X28892043Y21212182D01*
X28893286Y21224807D01*
X28900001Y21292983D01*
X28900001Y21292990D01*
X28902661Y21320001D01*
X28900001Y21347012D01*
X28900001Y24722988D01*
X28902661Y24749999D01*
X28900001Y24777009D01*
X28900001Y24777017D01*
X28892043Y24857818D01*
X28860593Y24961493D01*
X28809522Y25057041D01*
X28740791Y25140789D01*
X28719801Y25158015D01*
X28658014Y25219803D01*
X28640790Y25240790D01*
X28557042Y25309521D01*
X28501209Y25339364D01*
X28501209Y25475000D01*
X28489177Y25597167D01*
X28453542Y25714640D01*
X28395674Y25822903D01*
X28317797Y25917797D01*
X28222903Y25995674D01*
X28114640Y26053542D01*
X27997167Y26089177D01*
X27875000Y26101209D01*
X27125000Y26101209D01*
X27002833Y26089177D01*
X26885360Y26053542D01*
X26777097Y25995674D01*
X26682203Y25917797D01*
X26604326Y25822903D01*
X26546458Y25714640D01*
X26510823Y25597167D01*
X26498791Y25475000D01*
X26498791Y24225000D01*
X26500000Y24212724D01*
X26500000Y23200000D01*
X26501644Y23183230D01*
X26501890Y23166378D01*
X26504494Y23154164D01*
X26505713Y23141730D01*
X26510585Y23125594D01*
X26514098Y23109115D01*
X26515395Y23105132D01*
X26615395Y22805131D01*
X26618991Y22797066D01*
X26621454Y22788590D01*
X26630888Y22770390D01*
X26639242Y22751658D01*
X26644338Y22744443D01*
X26648399Y22736609D01*
X26661186Y22720590D01*
X26673021Y22703835D01*
X26679419Y22697750D01*
X26684926Y22690851D01*
X26687868Y22687868D01*
X26887868Y22487868D01*
X26894913Y22482081D01*
X26901116Y22475400D01*
X26917486Y22463539D01*
X26933111Y22450704D01*
X26941146Y22446396D01*
X26948528Y22441047D01*
X26966893Y22432591D01*
X26984711Y22423037D01*
X26993431Y22420371D01*
X27001710Y22416559D01*
X27021367Y22411830D01*
X27040703Y22405919D01*
X27049770Y22404998D01*
X27058637Y22402865D01*
X27062790Y22402317D01*
X27462790Y22352317D01*
X27468692Y22352160D01*
X27474505Y22351085D01*
X27497917Y22351381D01*
X27521318Y22350758D01*
X27527144Y22351751D01*
X27533050Y22351826D01*
X27537210Y22352317D01*
X27800002Y22385166D01*
X27800002Y21547819D01*
X27760200Y21508017D01*
X27760194Y21508012D01*
X27566703Y21314521D01*
X27388341Y21350000D01*
X27171659Y21350000D01*
X26959142Y21307727D01*
X26758955Y21224807D01*
X26578791Y21104425D01*
X26425575Y20951209D01*
X26305193Y20771045D01*
X26222273Y20570858D01*
X26180000Y20358341D01*
X26180000Y20141659D01*
X26222273Y19929142D01*
X26251701Y19858097D01*
X25197446Y18803841D01*
X25190000Y18797730D01*
X25190000Y19245765D01*
X25261045Y19275193D01*
X25441209Y19395575D01*
X25594425Y19548791D01*
X25714807Y19728955D01*
X25797727Y19929142D01*
X25840000Y20141659D01*
X25840000Y20358341D01*
X25804521Y20536703D01*
X25869810Y20601992D01*
X25890790Y20619210D01*
X25908008Y20640190D01*
X25908013Y20640195D01*
X25959520Y20702957D01*
X25959521Y20702958D01*
X26010592Y20798506D01*
X26042042Y20902181D01*
X26050000Y20982982D01*
X26050000Y20982991D01*
X26052660Y21009999D01*
X26050000Y21037007D01*
X26050000Y24572993D01*
X26052660Y24600001D01*
X26050000Y24627009D01*
X26050000Y24627018D01*
X26042042Y24707819D01*
X26010592Y24811494D01*
X25959521Y24907042D01*
X25890790Y24990790D01*
X25869804Y25008013D01*
X25658013Y25219804D01*
X25640790Y25240790D01*
X25557042Y25309521D01*
X25501209Y25339364D01*
X25501209Y25475000D01*
X25489177Y25597167D01*
X25453542Y25714640D01*
X25395674Y25822903D01*
X25317797Y25917797D01*
X25222903Y25995674D01*
X25114640Y26053542D01*
X24997167Y26089177D01*
X24875000Y26101209D01*
X24125000Y26101209D01*
X24002833Y26089177D01*
X23885360Y26053542D01*
X23777097Y25995674D01*
X23682203Y25917797D01*
X23604326Y25822903D01*
X23546458Y25714640D01*
X23510823Y25597167D01*
X23498791Y25475000D01*
X23498791Y24225000D01*
X23500000Y24212724D01*
X23500000Y23200000D01*
X23501644Y23183230D01*
X23501890Y23166378D01*
X23504494Y23154164D01*
X23505713Y23141730D01*
X23510585Y23125594D01*
X23514098Y23109115D01*
X23515395Y23105132D01*
X23615395Y22805131D01*
X23618991Y22797066D01*
X23621454Y22788590D01*
X23630888Y22770390D01*
X23639242Y22751658D01*
X23644338Y22744443D01*
X23648399Y22736609D01*
X23661186Y22720590D01*
X23673021Y22703835D01*
X23679419Y22697750D01*
X23684926Y22690851D01*
X23687868Y22687868D01*
X23887868Y22487868D01*
X23894913Y22482081D01*
X23901116Y22475400D01*
X23917486Y22463539D01*
X23933111Y22450704D01*
X23941146Y22446396D01*
X23948528Y22441047D01*
X23966893Y22432591D01*
X23984711Y22423037D01*
X23993431Y22420371D01*
X24001710Y22416559D01*
X24021367Y22411830D01*
X24040703Y22405919D01*
X24049770Y22404998D01*
X24058637Y22402865D01*
X24062790Y22402317D01*
X24462790Y22352317D01*
X24468692Y22352160D01*
X24474505Y22351085D01*
X24497917Y22351381D01*
X24521318Y22350758D01*
X24527144Y22351751D01*
X24533050Y22351826D01*
X24537210Y22352317D01*
X24937211Y22402317D01*
X24946106Y22404326D01*
X24950001Y22404666D01*
X24950001Y21329778D01*
X24848341Y21350000D01*
X24631659Y21350000D01*
X24419142Y21307727D01*
X24218955Y21224807D01*
X24038791Y21104425D01*
X23885575Y20951209D01*
X23765193Y20771045D01*
X23682273Y20570858D01*
X23640000Y20358341D01*
X23640000Y20141659D01*
X23682273Y19929142D01*
X23765193Y19728955D01*
X23885575Y19548791D01*
X24038791Y19395575D01*
X24218955Y19275193D01*
X24290000Y19245765D01*
X24290001Y14844395D01*
X23912236Y14466630D01*
X23917757Y14476959D01*
X23920738Y14486785D01*
X23943489Y14561785D01*
X23950000Y14627895D01*
X23950000Y14627905D01*
X23952176Y14649999D01*
X23952165Y14650106D01*
X23978097Y14667433D01*
X24082563Y14771899D01*
X24164641Y14894738D01*
X24221178Y15031229D01*
X24250000Y15176127D01*
X24250000Y15323865D01*
X24221178Y15468763D01*
X24164641Y15605254D01*
X24082563Y15728093D01*
X23978097Y15832559D01*
X23855258Y15914637D01*
X23718767Y15971174D01*
X23573869Y15999996D01*
X23426131Y15999996D01*
X23281233Y15971174D01*
X23144742Y15914637D01*
X23021903Y15832559D01*
X22917437Y15728093D01*
X22835359Y15605254D01*
X22778822Y15468763D01*
X22750000Y15323865D01*
X22750000Y15176127D01*
X22754698Y15152510D01*
X22746134Y15157087D01*
X22699008Y15171382D01*
X22650000Y15176209D01*
X22225000Y15176209D01*
X22225000Y15545712D01*
X22934314Y16255025D01*
X23021902Y16167437D01*
X23144741Y16085359D01*
X23281232Y16028822D01*
X23426130Y16000000D01*
X23573868Y16000000D01*
X23718766Y16028822D01*
X23855257Y16085359D01*
X23978096Y16167437D01*
X24082562Y16271903D01*
X24164640Y16394742D01*
X24221177Y16531233D01*
X24249999Y16676131D01*
X24249999Y16823869D01*
X24221177Y16968767D01*
X24164640Y17105258D01*
X24082562Y17228097D01*
X23978096Y17332563D01*
X23855257Y17414641D01*
X23718766Y17471178D01*
X23573894Y17499995D01*
X23718767Y17528812D01*
X23855258Y17585349D01*
X23978097Y17667427D01*
X24082563Y17771893D01*
X24164641Y17894732D01*
X24221178Y18031223D01*
X24250000Y18176121D01*
X24250000Y18323859D01*
X24221178Y18468757D01*
X24164641Y18605248D01*
X24082563Y18728087D01*
X23978097Y18832553D01*
X23855258Y18914631D01*
X23718767Y18971168D01*
X23573869Y18999990D01*
X23426131Y18999990D01*
X23281233Y18971168D01*
X23144742Y18914631D01*
X23021903Y18832553D01*
X22917437Y18728087D01*
X22898663Y18699990D01*
X22814985Y18699990D01*
X22792893Y18702166D01*
X22770801Y18699990D01*
X22770789Y18699990D01*
X22704679Y18693479D01*
X22619853Y18667747D01*
X22541677Y18625961D01*
X22490326Y18583818D01*
X22490322Y18583814D01*
X22473157Y18569727D01*
X22459070Y18552562D01*
X20925000Y17018491D01*
X20925000Y18338605D01*
X21808097Y19221701D01*
X21879142Y19192273D01*
X22091659Y19150000D01*
X22308341Y19150000D01*
X22520858Y19192273D01*
X22721045Y19275193D01*
X22901209Y19395575D01*
X23054425Y19548791D01*
X23174807Y19728955D01*
X23257727Y19929142D01*
X23300000Y20141659D01*
X23300000Y20358341D01*
X23257727Y20570858D01*
X23174807Y20771045D01*
X23054425Y20951209D01*
X23050000Y20955634D01*
X23050000Y24572993D01*
X23052660Y24600001D01*
X23050000Y24627009D01*
X23050000Y24627018D01*
X23042042Y24707819D01*
X23010592Y24811494D01*
X22959521Y24907042D01*
X22890790Y24990790D01*
X22869804Y25008013D01*
X22658013Y25219804D01*
X22640790Y25240790D01*
X22557042Y25309521D01*
X22501209Y25339364D01*
X22501209Y25475000D01*
X22489177Y25597167D01*
X22453542Y25714640D01*
X22395674Y25822903D01*
X22317797Y25917797D01*
X22222903Y25995674D01*
X22114640Y26053542D01*
X21997167Y26089177D01*
X21875000Y26101209D01*
X21125000Y26101209D01*
X21002833Y26089177D01*
X20885360Y26053542D01*
X20777097Y25995674D01*
X20682203Y25917797D01*
X20604326Y25822903D01*
X20546458Y25714640D01*
X20510823Y25597167D01*
X20498791Y25475000D01*
X20498791Y24225000D01*
X20500000Y24212724D01*
X20500000Y23200000D01*
X20501644Y23183230D01*
X20501890Y23166378D01*
X20504494Y23154164D01*
X20505713Y23141730D01*
X20510585Y23125594D01*
X20514098Y23109115D01*
X20515395Y23105132D01*
X20615395Y22805131D01*
X20618991Y22797066D01*
X20621454Y22788590D01*
X20630888Y22770390D01*
X20639242Y22751658D01*
X20644338Y22744443D01*
X20648399Y22736609D01*
X20661186Y22720590D01*
X20673021Y22703835D01*
X20679419Y22697750D01*
X20684926Y22690851D01*
X20687868Y22687868D01*
X20887868Y22487868D01*
X20894913Y22482081D01*
X20901116Y22475400D01*
X20917486Y22463539D01*
X20933111Y22450704D01*
X20941146Y22446396D01*
X20948528Y22441047D01*
X20966893Y22432591D01*
X20984711Y22423037D01*
X20993431Y22420371D01*
X21001710Y22416559D01*
X21021367Y22411830D01*
X21040703Y22405919D01*
X21049770Y22404998D01*
X21058637Y22402865D01*
X21062790Y22402317D01*
X21462790Y22352317D01*
X21468692Y22352160D01*
X21474505Y22351085D01*
X21497917Y22351381D01*
X21521318Y22350758D01*
X21527144Y22351751D01*
X21533050Y22351826D01*
X21537210Y22352317D01*
X21937211Y22402317D01*
X21946106Y22404326D01*
X21950001Y22404666D01*
X21950001Y21321822D01*
X21879142Y21307727D01*
X21678955Y21224807D01*
X21498791Y21104425D01*
X21345575Y20951209D01*
X21225193Y20771045D01*
X21142273Y20570858D01*
X21100000Y20358341D01*
X21100000Y20141659D01*
X21142273Y19929142D01*
X21171701Y19858097D01*
X20275000Y18961395D01*
X20275000Y19337972D01*
X20361209Y19395575D01*
X20514425Y19548791D01*
X20634807Y19728955D01*
X20717727Y19929142D01*
X20760000Y20141659D01*
X20760000Y20358341D01*
X20717727Y20570858D01*
X20634807Y20771045D01*
X20514425Y20951209D01*
X20361209Y21104425D01*
X20210000Y21205460D01*
X20210000Y22062993D01*
X20212660Y22090001D01*
X20210000Y22117009D01*
X20210000Y22117018D01*
X20202042Y22197819D01*
X20170592Y22301494D01*
X20119521Y22397042D01*
X20050790Y22480790D01*
X20050000Y22481438D01*
X20050000Y23955995D01*
X20052660Y23983003D01*
X20050000Y24010011D01*
X20050000Y24010020D01*
X20042042Y24090821D01*
X20010592Y24194496D01*
X19959521Y24290044D01*
X19949756Y24301942D01*
X19908013Y24352807D01*
X19908008Y24352812D01*
X19890790Y24373792D01*
X19869810Y24391010D01*
X19501209Y24759611D01*
X19501209Y25475000D01*
X19489177Y25597167D01*
X19453542Y25714640D01*
X19395674Y25822903D01*
X19317797Y25917797D01*
X19222903Y25995674D01*
X19114640Y26053542D01*
X18997167Y26089177D01*
X18875000Y26101209D01*
X18125000Y26101209D01*
X18002833Y26089177D01*
X17885360Y26053542D01*
X17777097Y25995674D01*
X17682203Y25917797D01*
X17604326Y25822903D01*
X17546458Y25714640D01*
X17510823Y25597167D01*
X17498791Y25475000D01*
X17498791Y24225000D01*
X17500000Y24212724D01*
X17500000Y23200000D01*
X17501644Y23183230D01*
X17501890Y23166378D01*
X17504494Y23154164D01*
X17505713Y23141730D01*
X17510585Y23125594D01*
X17514098Y23109115D01*
X17515395Y23105132D01*
X17615395Y22805131D01*
X17618991Y22797066D01*
X17621454Y22788590D01*
X17630888Y22770390D01*
X17639242Y22751658D01*
X17644338Y22744443D01*
X17648399Y22736609D01*
X17661186Y22720590D01*
X17673021Y22703835D01*
X17679419Y22697750D01*
X17684926Y22690851D01*
X17687868Y22687868D01*
X17887868Y22487868D01*
X17894913Y22482081D01*
X17901116Y22475400D01*
X17917486Y22463539D01*
X17933111Y22450704D01*
X17941146Y22446396D01*
X17948528Y22441047D01*
X17966893Y22432591D01*
X17984711Y22423037D01*
X17993431Y22420371D01*
X18001710Y22416559D01*
X18021367Y22411830D01*
X18040703Y22405919D01*
X18049770Y22404998D01*
X18058637Y22402865D01*
X18062790Y22402317D01*
X18462790Y22352317D01*
X18468692Y22352160D01*
X18474505Y22351085D01*
X18497917Y22351381D01*
X18521318Y22350758D01*
X18527144Y22351751D01*
X18533050Y22351826D01*
X18537210Y22352317D01*
X18937211Y22402317D01*
X18946106Y22404326D01*
X18950001Y22404666D01*
X18950001Y22277018D01*
X18947340Y22250000D01*
X18957959Y22142182D01*
X18989409Y22038506D01*
X19040479Y21942958D01*
X19091987Y21880196D01*
X19091993Y21880190D01*
X19109211Y21859210D01*
X19110000Y21858562D01*
X19110000Y21205460D01*
X18958791Y21104425D01*
X18805575Y20951209D01*
X18685193Y20771045D01*
X18602273Y20570858D01*
X18560000Y20358341D01*
X18560000Y20141659D01*
X18602273Y19929142D01*
X18685193Y19728955D01*
X18805575Y19548791D01*
X18958791Y19395575D01*
X19138955Y19275193D01*
X19339142Y19192273D01*
X19375000Y19185140D01*
X19375000Y18631396D01*
X18148299Y19858096D01*
X18177727Y19929142D01*
X18220000Y20141659D01*
X18220000Y20358341D01*
X18177727Y20570858D01*
X18094807Y20771045D01*
X17974425Y20951209D01*
X17821209Y21104425D01*
X17641045Y21224807D01*
X17440858Y21307727D01*
X17228341Y21350000D01*
X17050000Y21350000D01*
X17050000Y23952989D01*
X17052660Y23980000D01*
X17050000Y24007011D01*
X17050000Y24007018D01*
X17042042Y24087819D01*
X17041131Y24090822D01*
X17010592Y24191495D01*
X16959521Y24287042D01*
X16908013Y24349804D01*
X16890790Y24370790D01*
X16869804Y24388013D01*
X16501209Y24756608D01*
X16501209Y25475000D01*
X16489177Y25597167D01*
X16453542Y25714640D01*
X16395674Y25822903D01*
X16317797Y25917797D01*
X16222903Y25995674D01*
X16114640Y26053542D01*
X15997167Y26089177D01*
X15875000Y26101209D01*
X15125000Y26101209D01*
X15002833Y26089177D01*
X14885360Y26053542D01*
X14777097Y25995674D01*
X14682203Y25917797D01*
X14604326Y25822903D01*
X14546458Y25714640D01*
X14510823Y25597167D01*
X14498791Y25475000D01*
X14498791Y24225000D01*
X14500000Y24212724D01*
X14500000Y23200000D01*
X14501644Y23183230D01*
X14501890Y23166378D01*
X14504494Y23154164D01*
X14505713Y23141730D01*
X14510585Y23125594D01*
X14514098Y23109115D01*
X14515395Y23105132D01*
X14615395Y22805131D01*
X14618991Y22797066D01*
X14621454Y22788590D01*
X14630888Y22770390D01*
X14639242Y22751658D01*
X14644338Y22744443D01*
X14648399Y22736609D01*
X14661186Y22720590D01*
X14673021Y22703835D01*
X14679419Y22697750D01*
X14684926Y22690851D01*
X14687868Y22687868D01*
X14887868Y22487868D01*
X14894913Y22482081D01*
X14901116Y22475400D01*
X14917486Y22463539D01*
X14933111Y22450704D01*
X14941146Y22446396D01*
X14948528Y22441047D01*
X14966893Y22432591D01*
X14984711Y22423037D01*
X14993431Y22420371D01*
X15001710Y22416559D01*
X15021367Y22411830D01*
X15040703Y22405919D01*
X15049770Y22404998D01*
X15058637Y22402865D01*
X15062790Y22402317D01*
X15462790Y22352317D01*
X15468692Y22352160D01*
X15474505Y22351085D01*
X15497917Y22351381D01*
X15521318Y22350758D01*
X15527144Y22351751D01*
X15533050Y22351826D01*
X15537210Y22352317D01*
X15937211Y22402317D01*
X15946106Y22404326D01*
X15950001Y22404666D01*
X15950001Y20897018D01*
X15947340Y20870000D01*
X15950001Y20842982D01*
X15957959Y20762181D01*
X15979253Y20691986D01*
X15989409Y20658506D01*
X16040479Y20562958D01*
X16056756Y20543124D01*
X16020000Y20358341D01*
X16020000Y20141659D01*
X16062273Y19929142D01*
X16145193Y19728955D01*
X16265575Y19548791D01*
X16418791Y19395575D01*
X16598955Y19275193D01*
X16799142Y19192273D01*
X17011659Y19150000D01*
X17228341Y19150000D01*
X17440858Y19192273D01*
X17511904Y19221701D01*
X18725000Y18008604D01*
X18725000Y16741396D01*
X15608299Y19858096D01*
X15637727Y19929142D01*
X15680000Y20141659D01*
X15680000Y20358341D01*
X15637727Y20570858D01*
X15554807Y20771045D01*
X15434425Y20951209D01*
X15281209Y21104425D01*
X15101045Y21224807D01*
X14900858Y21307727D01*
X14688341Y21350000D01*
X14471659Y21350000D01*
X14395122Y21334776D01*
X14050000Y21679898D01*
X14050000Y24572993D01*
X14052660Y24600001D01*
X14050000Y24627009D01*
X14050000Y24627018D01*
X14042042Y24707819D01*
X14010592Y24811494D01*
X13959521Y24907042D01*
X13890790Y24990790D01*
X13869804Y25008013D01*
X13658013Y25219804D01*
X13640790Y25240790D01*
X13557042Y25309521D01*
X13501209Y25339364D01*
X13501209Y25475000D01*
X13489177Y25597167D01*
X13453542Y25714640D01*
X13395674Y25822903D01*
X13317797Y25917797D01*
X13222903Y25995674D01*
X13114640Y26053542D01*
X12997167Y26089177D01*
X12875000Y26101209D01*
X12125000Y26101209D01*
X12002833Y26089177D01*
X11885360Y26053542D01*
X11777097Y25995674D01*
X11682203Y25917797D01*
X11604326Y25822903D01*
X11546458Y25714640D01*
X11510823Y25597167D01*
X11498791Y25475000D01*
X11498791Y24225000D01*
X11500000Y24212724D01*
X11500000Y23200000D01*
X11501644Y23183230D01*
X11501890Y23166378D01*
X11504494Y23154164D01*
X11505713Y23141730D01*
X11510585Y23125594D01*
X11514098Y23109115D01*
X11515395Y23105132D01*
X11615395Y22805131D01*
X11618991Y22797066D01*
X11621454Y22788590D01*
X11630888Y22770390D01*
X11639242Y22751658D01*
X11644338Y22744443D01*
X11648399Y22736609D01*
X11661186Y22720590D01*
X11673021Y22703835D01*
X11679419Y22697750D01*
X11684926Y22690851D01*
X11687868Y22687868D01*
X11887868Y22487868D01*
X11894913Y22482081D01*
X11901116Y22475400D01*
X11917486Y22463539D01*
X11933111Y22450704D01*
X11941146Y22446396D01*
X11948528Y22441047D01*
X11966893Y22432591D01*
X11984711Y22423037D01*
X11993431Y22420371D01*
X12001710Y22416559D01*
X12021367Y22411830D01*
X12040703Y22405919D01*
X12049770Y22404998D01*
X12058637Y22402865D01*
X12062790Y22402317D01*
X12462790Y22352317D01*
X12468692Y22352160D01*
X12474505Y22351085D01*
X12497917Y22351381D01*
X12521318Y22350758D01*
X12527144Y22351751D01*
X12533050Y22351826D01*
X12537210Y22352317D01*
X12937211Y22402317D01*
X12946106Y22404326D01*
X12950001Y22404666D01*
X12950001Y21479099D01*
X12947340Y21452081D01*
X12950001Y21425063D01*
X12957959Y21344262D01*
X12969042Y21307727D01*
X12989409Y21240587D01*
X13040479Y21145039D01*
X13091987Y21082277D01*
X13091993Y21082271D01*
X13109211Y21061291D01*
X13130191Y21044073D01*
X13546036Y20628228D01*
X13522273Y20570858D01*
X13480000Y20358341D01*
X13480000Y20141659D01*
X13522273Y19929142D01*
X13605193Y19728955D01*
X13725575Y19548791D01*
X13824367Y19449999D01*
X13476397Y19449999D01*
X13068299Y19858097D01*
X13097727Y19929142D01*
X13140000Y20141659D01*
X13140000Y20358341D01*
X13097727Y20570858D01*
X13014807Y20771045D01*
X12894425Y20951209D01*
X12741209Y21104425D01*
X12561045Y21224807D01*
X12360858Y21307727D01*
X12148341Y21350000D01*
X11931659Y21350000D01*
X11753297Y21314521D01*
X11050000Y22017817D01*
X11050000Y24572993D01*
X11052660Y24600001D01*
X11050000Y24627009D01*
X11050000Y24627018D01*
X11042042Y24707819D01*
X11010592Y24811494D01*
X10959521Y24907042D01*
X10890790Y24990790D01*
X10869804Y25008013D01*
X10658013Y25219804D01*
X10640790Y25240790D01*
X10557042Y25309521D01*
X10501209Y25339364D01*
X10501209Y25475000D01*
X10489177Y25597167D01*
X10453542Y25714640D01*
X10395674Y25822903D01*
X10317797Y25917797D01*
X10222903Y25995674D01*
X10114640Y26053542D01*
X9997167Y26089177D01*
X9875000Y26101209D01*
X9125000Y26101209D01*
X9002833Y26089177D01*
X8885360Y26053542D01*
X8777097Y25995674D01*
X8682203Y25917797D01*
X8604326Y25822903D01*
X8546458Y25714640D01*
X8510823Y25597167D01*
X8498791Y25475000D01*
X8498791Y24225000D01*
X8500000Y24212724D01*
X8500000Y23200000D01*
X8501644Y23183230D01*
X8501890Y23166378D01*
X8504494Y23154164D01*
X8505713Y23141730D01*
X8510585Y23125594D01*
X8514098Y23109115D01*
X8515395Y23105132D01*
X8615395Y22805131D01*
X8618991Y22797066D01*
X8621454Y22788590D01*
X8630888Y22770390D01*
X8639242Y22751658D01*
X8644338Y22744443D01*
X8648399Y22736609D01*
X8661186Y22720590D01*
X8673021Y22703835D01*
X8679419Y22697750D01*
X8684926Y22690851D01*
X8687868Y22687868D01*
X8887868Y22487868D01*
X8894913Y22482081D01*
X8901116Y22475400D01*
X8917486Y22463539D01*
X8933111Y22450704D01*
X8941146Y22446396D01*
X8948528Y22441047D01*
X8966893Y22432591D01*
X8984711Y22423037D01*
X8993431Y22420371D01*
X9001710Y22416559D01*
X9021367Y22411830D01*
X9040703Y22405919D01*
X9049770Y22404998D01*
X9058637Y22402865D01*
X9062790Y22402317D01*
X9462790Y22352317D01*
X9468692Y22352160D01*
X9474505Y22351085D01*
X9497917Y22351381D01*
X9521318Y22350758D01*
X9527144Y22351751D01*
X9533050Y22351826D01*
X9537210Y22352317D01*
X9937211Y22402317D01*
X9946106Y22404326D01*
X9950001Y22404666D01*
X9950001Y21817018D01*
X9947340Y21790000D01*
X9950001Y21762982D01*
X9957959Y21682181D01*
X9966915Y21652659D01*
X9989409Y21578506D01*
X10040479Y21482958D01*
X10091987Y21420196D01*
X10091993Y21420190D01*
X10109211Y21399210D01*
X10130191Y21381992D01*
X10160974Y21351209D01*
X9176608Y21351209D01*
X8050000Y22477817D01*
X8050000Y23955991D01*
X8052660Y23983002D01*
X8050000Y24010013D01*
X8050000Y24010020D01*
X8042042Y24090821D01*
X8010592Y24194496D01*
X7959521Y24290044D01*
X7890790Y24373792D01*
X7869804Y24391015D01*
X7501209Y24759610D01*
X7501209Y25475000D01*
X7489177Y25597167D01*
X7453542Y25714640D01*
X7395674Y25822903D01*
X7317797Y25917797D01*
X7222903Y25995674D01*
X7114640Y26053542D01*
X6997167Y26089177D01*
X6875000Y26101209D01*
X6125000Y26101209D01*
X6002833Y26089177D01*
X5885360Y26053542D01*
X5777097Y25995674D01*
X5682203Y25917797D01*
X5604326Y25822903D01*
X5546458Y25714640D01*
X5510823Y25597167D01*
X5498791Y25475000D01*
X5498791Y24225000D01*
X5500000Y24212724D01*
X5500000Y23200000D01*
X5501644Y23183230D01*
X5501890Y23166378D01*
X5504494Y23154164D01*
X5505713Y23141730D01*
X5510585Y23125594D01*
X5514098Y23109115D01*
X5515395Y23105132D01*
X5615395Y22805131D01*
X5618991Y22797066D01*
X5621454Y22788590D01*
X5630888Y22770390D01*
X5639242Y22751658D01*
X5644338Y22744443D01*
X5648399Y22736609D01*
X5661186Y22720590D01*
X5673021Y22703835D01*
X5679419Y22697750D01*
X5684926Y22690851D01*
X5687868Y22687868D01*
X5887868Y22487868D01*
X5894913Y22482081D01*
X5901116Y22475400D01*
X5917486Y22463539D01*
X5933111Y22450704D01*
X5941146Y22446396D01*
X5948528Y22441047D01*
X5966893Y22432591D01*
X5984711Y22423037D01*
X5993431Y22420371D01*
X6001710Y22416559D01*
X6021367Y22411830D01*
X6040703Y22405919D01*
X6049770Y22404998D01*
X6058637Y22402865D01*
X6062790Y22402317D01*
X6462790Y22352317D01*
X6468692Y22352160D01*
X6474505Y22351085D01*
X6497917Y22351381D01*
X6521318Y22350758D01*
X6527144Y22351751D01*
X6533050Y22351826D01*
X6537210Y22352317D01*
X6937211Y22402317D01*
X6946106Y22404326D01*
X6950001Y22404666D01*
X6950001Y22277018D01*
X6947340Y22250000D01*
X6957959Y22142182D01*
X6989409Y22038506D01*
X7040479Y21942958D01*
X7091987Y21880196D01*
X7091993Y21880190D01*
X7109211Y21859210D01*
X7130191Y21841992D01*
X8398791Y20573392D01*
X8398791Y19400000D01*
X8403618Y19350992D01*
X8417913Y19303866D01*
X8441127Y19260436D01*
X8472368Y19222368D01*
X8510436Y19191127D01*
X8553866Y19167913D01*
X8600992Y19153618D01*
X8650000Y19148791D01*
X9050001Y19148791D01*
X9050001Y19022104D01*
X9047824Y19000000D01*
X9056512Y18911785D01*
X9082243Y18826960D01*
X9124029Y18748784D01*
X9166172Y18697433D01*
X9166177Y18697428D01*
X9180264Y18680263D01*
X9197429Y18666176D01*
X10316165Y17547439D01*
X10330252Y17530274D01*
X10347417Y17516187D01*
X10347421Y17516183D01*
X10398772Y17474040D01*
X10476948Y17432254D01*
X10561774Y17406522D01*
X10627884Y17400011D01*
X10627894Y17400011D01*
X10649988Y17397835D01*
X10672083Y17400011D01*
X14513594Y17400011D01*
X16737395Y15176209D01*
X16350000Y15176209D01*
X16300992Y15171382D01*
X16253866Y15157087D01*
X16210436Y15133873D01*
X16172368Y15102632D01*
X16141127Y15064564D01*
X16117913Y15021134D01*
X16103618Y14974008D01*
X16098791Y14925000D01*
X16098791Y14687605D01*
X15548530Y15237866D01*
X15582563Y15271899D01*
X15664641Y15394738D01*
X15721178Y15531229D01*
X15750000Y15676127D01*
X15750000Y15823865D01*
X15721178Y15968763D01*
X15664641Y16105254D01*
X15582563Y16228093D01*
X15478097Y16332559D01*
X15355258Y16414637D01*
X15218767Y16471174D01*
X15073869Y16499996D01*
X14926131Y16499996D01*
X14781233Y16471174D01*
X14644742Y16414637D01*
X14521903Y16332559D01*
X14417437Y16228093D01*
X14335359Y16105254D01*
X14278822Y15968763D01*
X14250000Y15823865D01*
X14250000Y15676127D01*
X14278822Y15531229D01*
X14335359Y15394738D01*
X14417437Y15271899D01*
X14521577Y15167759D01*
X14436758Y15193489D01*
X14370648Y15200000D01*
X14370637Y15200000D01*
X14348543Y15202176D01*
X14326449Y15200000D01*
X12186396Y15200000D01*
X4950000Y22436395D01*
X4950000Y23807906D01*
X4952176Y23830001D01*
X4950000Y23852095D01*
X4950000Y23852105D01*
X4943489Y23918215D01*
X4917757Y24003041D01*
X4914027Y24010020D01*
X4875971Y24081217D01*
X4833828Y24132568D01*
X4833824Y24132572D01*
X4819737Y24149737D01*
X4802572Y24163824D01*
X3528299Y25438096D01*
X3557727Y25509142D01*
X3600000Y25721659D01*
X3600000Y25938341D01*
X3557727Y26150858D01*
X3474807Y26351045D01*
X3354425Y26531209D01*
X3201209Y26684425D01*
X3021045Y26804807D01*
X2820858Y26887727D01*
X2608341Y26930000D01*
X2391659Y26930000D01*
X2179142Y26887727D01*
X1978955Y26804807D01*
X1798791Y26684425D01*
X1645575Y26531209D01*
X1525193Y26351045D01*
X1442273Y26150858D01*
X1400000Y25938341D01*
X1400000Y25721659D01*
X1442273Y25509142D01*
X1525193Y25308955D01*
X1645575Y25128791D01*
X1798791Y24975575D01*
X1978955Y24855193D01*
X2179142Y24772273D01*
X2391659Y24730000D01*
X2608341Y24730000D01*
X2820858Y24772273D01*
X2891904Y24801701D01*
X4050001Y23643603D01*
X4050000Y22487852D01*
X3559549Y22978303D01*
X3600000Y23181659D01*
X3600000Y23398341D01*
X3557727Y23610858D01*
X3474807Y23811045D01*
X3354425Y23991209D01*
X3201209Y24144425D01*
X3021045Y24264807D01*
X2820858Y24347727D01*
X2608341Y24390000D01*
X2391659Y24390000D01*
X2179142Y24347727D01*
X1978955Y24264807D01*
X1798791Y24144425D01*
X1645575Y23991209D01*
X1525193Y23811045D01*
X1442273Y23610858D01*
X1400000Y23398341D01*
X1400000Y23181659D01*
X1442273Y22969142D01*
X1525193Y22768955D01*
X1645575Y22588791D01*
X1798791Y22435575D01*
X1978955Y22315193D01*
X2179142Y22232273D01*
X2391659Y22190000D01*
X2608341Y22190000D01*
X2820858Y22232273D01*
X2970716Y22294346D01*
X3427245Y21837817D01*
X3399008Y21846382D01*
X3350000Y21851209D01*
X1650000Y21851209D01*
X1600992Y21846382D01*
X1553866Y21832087D01*
X1510436Y21808873D01*
X1472368Y21777632D01*
X1441127Y21739564D01*
X1417913Y21696134D01*
X1403618Y21649008D01*
X1398791Y21600000D01*
X175000Y21600000D01*
X175000Y27955700D01*
X1162705Y27955700D01*
X1261429Y27717339D01*
X1412556Y27488247D01*
X1605472Y27293040D01*
X1832765Y27139220D01*
X2085699Y27032698D01*
X2300000Y27121851D01*
X2300000Y28170000D01*
X2700000Y28170000D01*
X2700000Y27121851D01*
X2914301Y27032698D01*
X3167235Y27139220D01*
X3394528Y27293040D01*
X3587444Y27488247D01*
X3738571Y27717339D01*
X3837295Y27955700D01*
X3746558Y28170000D01*
X2700000Y28170000D01*
X2300000Y28170000D01*
X1253442Y28170000D01*
X1162705Y27955700D01*
X175000Y27955700D01*
X175000Y28784300D01*
X1162705Y28784300D01*
X1253442Y28570000D01*
X2300000Y28570000D01*
X2300000Y29618149D01*
X2700000Y29618149D01*
X2700000Y28570000D01*
X3746558Y28570000D01*
X3837295Y28784300D01*
X3738571Y29022661D01*
X3587444Y29251753D01*
X3394528Y29446960D01*
X3167235Y29600780D01*
X2914301Y29707302D01*
X2700000Y29618149D01*
X2300000Y29618149D01*
X2085699Y29707302D01*
X1832765Y29600780D01*
X1605472Y29446960D01*
X1412556Y29251753D01*
X1261429Y29022661D01*
X1162705Y28784300D01*
X175000Y28784300D01*
X175000Y30508589D01*
X172467Y30534306D01*
X162461Y30567293D01*
X158342Y30575000D01*
X29825000Y30575000D01*
X29825000Y15375246D01*
M02*
