M48
; DRILL file {KiCad (5.1.5)-3} date 2020-06-03 6:13:16 PM
; FORMAT={-:-/ absolute / metric / decimal}
; #@! TF.CreationDate,2020-06-03T18:13:16-05:00
; #@! TF.GenerationSoftware,Kicad,Pcbnew,(5.1.5)-3
FMAT,2
METRIC
T1C0.400
T2C1.000
T3C0.700
T4C0.900
%
G90
G05
T1
X10.9Y60.85
X10.95Y26.65
X13.15Y39.85
X13.2Y5.65
X13.4Y41.85
X13.45Y7.65
X15.394Y59.594
X15.444Y25.394
X16.65Y56.85
X16.7Y22.65
X16.9Y60.6
X16.9Y52.6
X16.95Y26.4
X16.95Y18.4
X20.15Y39.85
X20.2Y5.65
X21.15Y49.35
X21.2Y15.15
X23.4Y60.35
X23.45Y26.15
X24.15Y52.6
X24.2Y18.4
X26.159Y46.097
X26.209Y11.897
X27.15Y45.1
X27.2Y10.9
X27.65Y49.6
X27.7Y15.4
X28.65Y45.35
X28.7Y11.15
T2
X30.7Y22.15
X30.7Y19.61
X13.9Y37.0
X16.44Y37.0
X18.98Y37.0
X21.52Y37.0
X24.06Y37.0
X26.6Y37.0
X10.25Y20.5
X10.25Y17.96
X10.25Y15.42
X10.25Y12.88
X10.25Y10.34
X10.25Y7.8
X10.25Y5.26
X10.25Y2.72
X10.2Y54.7
X10.2Y52.16
X10.2Y49.62
X10.2Y47.08
X10.2Y44.54
X10.2Y42.0
X10.2Y39.46
X10.2Y36.92
X13.95Y2.8
X16.49Y2.8
X19.03Y2.8
X21.57Y2.8
X24.11Y2.8
X26.65Y2.8
X30.7Y5.3
X30.7Y2.76
X30.65Y56.35
X30.65Y53.81
X30.65Y39.5
X30.65Y36.96
T3
X30.525Y14.4
X30.875Y14.4
X14.15Y55.025
X14.15Y54.675
X30.475Y45.35
X30.825Y45.35
X13.475Y63.35
X13.825Y63.35
X26.375Y55.5
X26.725Y55.5
X30.475Y48.6
X30.825Y48.6
X26.425Y21.3
X26.775Y21.3
X26.425Y18.7
X26.775Y18.7
X13.525Y29.15
X13.875Y29.15
X30.525Y11.15
X30.875Y11.15
X26.375Y52.9
X26.725Y52.9
X14.2Y20.825
X14.2Y20.475
T4
X18.75Y15.05
X19.15Y15.05
X26.45Y42.85
X26.85Y42.85
X26.5Y6.3
X26.9Y6.3
X23.2Y49.25
X23.6Y49.25
X18.7Y49.25
X19.1Y49.25
X19.0Y28.4
X19.4Y28.4
X26.45Y40.5
X26.85Y40.5
X30.5Y16.65
X30.9Y16.65
X30.45Y50.85
X30.85Y50.85
X25.5Y25.9
X25.9Y25.9
X16.25Y29.15
X16.65Y29.15
X23.25Y15.05
X23.65Y15.05
X21.75Y29.15
X22.15Y29.15
X25.45Y60.1
X25.85Y60.1
X18.95Y62.6
X19.35Y62.6
X24.45Y63.35
X24.85Y63.35
X24.5Y29.15
X24.9Y29.15
X21.7Y63.35
X22.1Y63.35
X16.2Y63.35
X16.6Y63.35
X26.5Y8.65
X26.9Y8.65
T0
M30
