G04 #@! TF.GenerationSoftware,KiCad,Pcbnew,(5.1.5)-3*
G04 #@! TF.CreationDate,2020-04-29T19:35:49-05:00*
G04 #@! TF.ProjectId,thSMD,7468534d-442e-46b6-9963-61645f706362,rev?*
G04 #@! TF.SameCoordinates,Original*
G04 #@! TF.FileFunction,Soldermask,Bot*
G04 #@! TF.FilePolarity,Negative*
%FSLAX46Y46*%
G04 Gerber Fmt 4.6, Leading zero omitted, Abs format (unit mm)*
G04 Created by KiCad (PCBNEW (5.1.5)-3) date 2020-04-29 19:35:49*
%MOMM*%
%LPD*%
G04 APERTURE LIST*
%ADD10C,0.100000*%
G04 APERTURE END LIST*
D10*
G36*
X72538999Y-93971737D02*
G01*
X72548608Y-93974652D01*
X72557472Y-93979390D01*
X72570007Y-93989677D01*
X72761323Y-94180993D01*
X72771610Y-94193528D01*
X72776348Y-94202392D01*
X72779263Y-94212001D01*
X72780852Y-94228140D01*
X72780852Y-96015860D01*
X72779263Y-96031999D01*
X72776348Y-96041608D01*
X72771610Y-96050472D01*
X72765237Y-96058237D01*
X72757472Y-96064610D01*
X72748608Y-96069348D01*
X72738999Y-96072263D01*
X72722860Y-96073852D01*
X71635140Y-96073852D01*
X71619001Y-96072263D01*
X71609392Y-96069348D01*
X71600528Y-96064610D01*
X71592763Y-96058237D01*
X71586390Y-96050472D01*
X71581652Y-96041608D01*
X71578737Y-96031999D01*
X71577148Y-96015860D01*
X71577148Y-94228140D01*
X71578737Y-94212001D01*
X71581652Y-94202392D01*
X71586390Y-94193528D01*
X71596677Y-94180993D01*
X71787993Y-93989677D01*
X71800528Y-93979390D01*
X71809392Y-93974652D01*
X71819001Y-93971737D01*
X71835140Y-93970148D01*
X72522860Y-93970148D01*
X72538999Y-93971737D01*
G37*
G36*
X67938999Y-93971737D02*
G01*
X67948608Y-93974652D01*
X67957472Y-93979390D01*
X67970007Y-93989677D01*
X68161323Y-94180993D01*
X68171610Y-94193528D01*
X68176348Y-94202392D01*
X68179263Y-94212001D01*
X68180852Y-94228140D01*
X68180852Y-96015860D01*
X68179263Y-96031999D01*
X68176348Y-96041608D01*
X68171610Y-96050472D01*
X68165237Y-96058237D01*
X68157472Y-96064610D01*
X68148608Y-96069348D01*
X68138999Y-96072263D01*
X68122860Y-96073852D01*
X67035140Y-96073852D01*
X67019001Y-96072263D01*
X67009392Y-96069348D01*
X67000528Y-96064610D01*
X66992763Y-96058237D01*
X66986390Y-96050472D01*
X66981652Y-96041608D01*
X66978737Y-96031999D01*
X66977148Y-96015860D01*
X66977148Y-94228140D01*
X66978737Y-94212001D01*
X66981652Y-94202392D01*
X66986390Y-94193528D01*
X66996677Y-94180993D01*
X67187993Y-93989677D01*
X67200528Y-93979390D01*
X67209392Y-93974652D01*
X67219001Y-93971737D01*
X67235140Y-93970148D01*
X67922860Y-93970148D01*
X67938999Y-93971737D01*
G37*
G36*
X70438999Y-93471737D02*
G01*
X70448608Y-93474652D01*
X70457472Y-93479390D01*
X70465237Y-93485763D01*
X70471610Y-93493528D01*
X70476348Y-93502392D01*
X70479263Y-93512001D01*
X70480852Y-93528140D01*
X70480852Y-95315860D01*
X70479263Y-95331999D01*
X70476348Y-95341608D01*
X70471610Y-95350472D01*
X70461323Y-95363007D01*
X70270007Y-95554323D01*
X70257472Y-95564610D01*
X70248608Y-95569348D01*
X70238999Y-95572263D01*
X70222860Y-95573852D01*
X69535140Y-95573852D01*
X69519001Y-95572263D01*
X69509392Y-95569348D01*
X69500528Y-95564610D01*
X69487993Y-95554323D01*
X69296677Y-95363007D01*
X69286390Y-95350472D01*
X69281652Y-95341608D01*
X69278737Y-95331999D01*
X69277148Y-95315860D01*
X69277148Y-93528140D01*
X69278737Y-93512001D01*
X69281652Y-93502392D01*
X69286390Y-93493528D01*
X69292763Y-93485763D01*
X69300528Y-93479390D01*
X69309392Y-93474652D01*
X69319001Y-93471737D01*
X69335140Y-93470148D01*
X70422860Y-93470148D01*
X70438999Y-93471737D01*
G37*
M02*
