G04 #@! TF.GenerationSoftware,KiCad,Pcbnew,(5.1.5)-3*
G04 #@! TF.CreationDate,2020-04-29T19:35:49-05:00*
G04 #@! TF.ProjectId,thSMD,7468534d-442e-46b6-9963-61645f706362,rev?*
G04 #@! TF.SameCoordinates,Original*
G04 #@! TF.FileFunction,Paste,Top*
G04 #@! TF.FilePolarity,Positive*
%FSLAX46Y46*%
G04 Gerber Fmt 4.6, Leading zero omitted, Abs format (unit mm)*
G04 Created by KiCad (PCBNEW (5.1.5)-3) date 2020-04-29 19:35:49*
%MOMM*%
%LPD*%
G04 APERTURE LIST*
%ADD10C,0.100000*%
G04 APERTURE END LIST*
D10*
G36*
X75190779Y-93343144D02*
G01*
X75213834Y-93346563D01*
X75236443Y-93352227D01*
X75258387Y-93360079D01*
X75279457Y-93370044D01*
X75299448Y-93382026D01*
X75318168Y-93395910D01*
X75335438Y-93411562D01*
X75351090Y-93428832D01*
X75364974Y-93447552D01*
X75376956Y-93467543D01*
X75386921Y-93488613D01*
X75394773Y-93510557D01*
X75400437Y-93533166D01*
X75403856Y-93556221D01*
X75405000Y-93579500D01*
X75405000Y-94154500D01*
X75403856Y-94177779D01*
X75400437Y-94200834D01*
X75394773Y-94223443D01*
X75386921Y-94245387D01*
X75376956Y-94266457D01*
X75364974Y-94286448D01*
X75351090Y-94305168D01*
X75335438Y-94322438D01*
X75318168Y-94338090D01*
X75299448Y-94351974D01*
X75279457Y-94363956D01*
X75258387Y-94373921D01*
X75236443Y-94381773D01*
X75213834Y-94387437D01*
X75190779Y-94390856D01*
X75167500Y-94392000D01*
X74692500Y-94392000D01*
X74669221Y-94390856D01*
X74646166Y-94387437D01*
X74623557Y-94381773D01*
X74601613Y-94373921D01*
X74580543Y-94363956D01*
X74560552Y-94351974D01*
X74541832Y-94338090D01*
X74524562Y-94322438D01*
X74508910Y-94305168D01*
X74495026Y-94286448D01*
X74483044Y-94266457D01*
X74473079Y-94245387D01*
X74465227Y-94223443D01*
X74459563Y-94200834D01*
X74456144Y-94177779D01*
X74455000Y-94154500D01*
X74455000Y-93579500D01*
X74456144Y-93556221D01*
X74459563Y-93533166D01*
X74465227Y-93510557D01*
X74473079Y-93488613D01*
X74483044Y-93467543D01*
X74495026Y-93447552D01*
X74508910Y-93428832D01*
X74524562Y-93411562D01*
X74541832Y-93395910D01*
X74560552Y-93382026D01*
X74580543Y-93370044D01*
X74601613Y-93360079D01*
X74623557Y-93352227D01*
X74646166Y-93346563D01*
X74669221Y-93343144D01*
X74692500Y-93342000D01*
X75167500Y-93342000D01*
X75190779Y-93343144D01*
G37*
G36*
X75190779Y-95093144D02*
G01*
X75213834Y-95096563D01*
X75236443Y-95102227D01*
X75258387Y-95110079D01*
X75279457Y-95120044D01*
X75299448Y-95132026D01*
X75318168Y-95145910D01*
X75335438Y-95161562D01*
X75351090Y-95178832D01*
X75364974Y-95197552D01*
X75376956Y-95217543D01*
X75386921Y-95238613D01*
X75394773Y-95260557D01*
X75400437Y-95283166D01*
X75403856Y-95306221D01*
X75405000Y-95329500D01*
X75405000Y-95904500D01*
X75403856Y-95927779D01*
X75400437Y-95950834D01*
X75394773Y-95973443D01*
X75386921Y-95995387D01*
X75376956Y-96016457D01*
X75364974Y-96036448D01*
X75351090Y-96055168D01*
X75335438Y-96072438D01*
X75318168Y-96088090D01*
X75299448Y-96101974D01*
X75279457Y-96113956D01*
X75258387Y-96123921D01*
X75236443Y-96131773D01*
X75213834Y-96137437D01*
X75190779Y-96140856D01*
X75167500Y-96142000D01*
X74692500Y-96142000D01*
X74669221Y-96140856D01*
X74646166Y-96137437D01*
X74623557Y-96131773D01*
X74601613Y-96123921D01*
X74580543Y-96113956D01*
X74560552Y-96101974D01*
X74541832Y-96088090D01*
X74524562Y-96072438D01*
X74508910Y-96055168D01*
X74495026Y-96036448D01*
X74483044Y-96016457D01*
X74473079Y-95995387D01*
X74465227Y-95973443D01*
X74459563Y-95950834D01*
X74456144Y-95927779D01*
X74455000Y-95904500D01*
X74455000Y-95329500D01*
X74456144Y-95306221D01*
X74459563Y-95283166D01*
X74465227Y-95260557D01*
X74473079Y-95238613D01*
X74483044Y-95217543D01*
X74495026Y-95197552D01*
X74508910Y-95178832D01*
X74524562Y-95161562D01*
X74541832Y-95145910D01*
X74560552Y-95132026D01*
X74580543Y-95120044D01*
X74601613Y-95110079D01*
X74623557Y-95102227D01*
X74646166Y-95096563D01*
X74669221Y-95093144D01*
X74692500Y-95092000D01*
X75167500Y-95092000D01*
X75190779Y-95093144D01*
G37*
M02*
