<?xml version="1.0" standalone="no"?>
 <!DOCTYPE svg PUBLIC "-//W3C//DTD SVG 1.1//EN" 
 "http://www.w3.org/Graphics/SVG/1.1/DTD/svg11.dtd"> 
<svg xmlns="http://www.w3.org/2000/svg" version="1.1" 
    width="29.7002cm" height="21.0007cm" viewBox="0 0 116930 82680 ">
<title>SVG Picture created as MSP430G2553_array-F_Mask.svg date 2020/06/02 12:22:48 </title>
  <desc>Picture generated by PCBNEW </desc>
<g style="fill:#000000; fill-opacity:1;stroke:#000000; stroke-opacity:1;
stroke-linecap:round; stroke-linejoin:round; "
 transform="translate(0 0) scale(1 1)">
</g>
<g style="fill:#000000; fill-opacity:0.0; 
stroke:#000000; stroke-width:-0.000393701; stroke-opacity:1; 
stroke-linecap:round; stroke-linejoin:round;">
</g>
<g style="fill:#000000; fill-opacity:1.0; 
stroke:#000000; stroke-width:0; stroke-opacity:1; 
stroke-linecap:round; stroke-linejoin:round;">
<path style="fill:#000000; fill-opacity:1.0; 
stroke:#000000; stroke-width:0; stroke-opacity:1; 
stroke-linecap:round; stroke-linejoin:round;fill-rule:evenodd;"
d="M 50399,41379.5
50457.8,41391.2
50522.4,41417.9
50580.5,41456.8
50629.9,41506.2
50668.7,41564.3
50695.4,41628.8
50706.2,41683
50708.3,41693.3
50709.1,41697.3
50709.1,41767.2
50695.4,41835.8
50668.7,41900.3
50629.9,41958.4
50580.5,42007.8
50522.4,42046.6
50457.8,42073.4
50399,42085.1
50389.3,42087
50319.4,42087
50309.6,42085.1
50250.9,42073.4
50186.3,42046.6
50128.2,42007.8
50078.8,41958.4
50040,41900.3
50013.2,41835.8
49999.6,41767.2
49999.6,41697.3
50000.4,41693.3
50002.5,41683
50013.2,41628.8
50040,41564.3
50078.8,41506.2
50128.2,41456.8
50186.3,41417.9
50250.9,41391.2
50309.6,41379.5
50319.4,41377.6
50389.3,41377.6
Z" /> 
<path style="fill:#000000; fill-opacity:1.0; 
stroke:#000000; stroke-width:0; stroke-opacity:1; 
stroke-linecap:round; stroke-linejoin:round;fill-rule:evenodd;"
d="M 43968,41183.5
43993,41191.1
44015.9,41203.3
44036.1,41219.9
44052.6,41240
44064.8,41262.9
44072.4,41287.9
44075.2,41316.2
44075.2,41675.9
44072.4,41704.3
44064.8,41729.2
44052.6,41752.1
44036.1,41772.3
44015.9,41788.8
43993,41801.1
43968,41808.6
43939.7,41811.4
43383.1,41811.4
43354.8,41808.6
43329.9,41801.1
43306.9,41788.8
43286.8,41772.3
43270.3,41752.1
43258,41729.2
43250.4,41704.3
43247.6,41675.9
43247.6,41316.2
43250.4,41287.9
43258,41262.9
43270.3,41240
43286.8,41219.9
43306.9,41203.3
43329.9,41191.1
43354.8,41183.5
43383.1,41180.7
43939.7,41180.7
Z" /> 
<path style="fill:#000000; fill-opacity:1.0; 
stroke:#000000; stroke-width:0; stroke-opacity:1; 
stroke-linecap:round; stroke-linejoin:round;fill-rule:evenodd;"
d="M 46763.3,41065.4
46788.2,41072.9
46811.2,41085.2
46831.3,41101.7
46847.8,41121.9
46860.1,41144.8
46867.7,41169.8
46870.5,41198.1
46870.5,41557.8
46867.7,41586.2
46860.1,41611.1
46847.8,41634
46831.3,41654.2
46811.2,41670.7
46788.2,41683
46763.3,41690.5
46735,41693.3
46178.4,41693.3
46150.1,41690.5
46125.2,41683
46102.2,41670.7
46082.1,41654.2
46065.5,41634
46053.3,41611.1
46045.7,41586.2
46042.9,41557.8
46042.9,41198.1
46045.7,41169.8
46053.3,41144.8
46065.5,41121.9
46082.1,41101.7
46102.2,41085.2
46125.2,41072.9
46150.1,41065.4
46178.4,41062.6
46735,41062.6
Z" /> 
<path style="fill:#000000; fill-opacity:1.0; 
stroke:#000000; stroke-width:0; stroke-opacity:1; 
stroke-linecap:round; stroke-linejoin:round;fill-rule:evenodd;"
d="M 47944.4,41065.4
47969.3,41072.9
47992.3,41085.2
48012.4,41101.7
48028.9,41121.9
48041.2,41144.8
48048.8,41169.8
48051.6,41198.1
48051.6,41557.8
48048.8,41586.2
48041.2,41611.1
48028.9,41634
48012.4,41654.2
47992.3,41670.7
47969.3,41683
47944.4,41690.5
47916.1,41693.3
47359.5,41693.3
47331.2,41690.5
47306.3,41683
47283.3,41670.7
47263.2,41654.2
47246.6,41634
47234.4,41611.1
47226.8,41586.2
47224,41557.8
47224,41198.1
47226.8,41169.8
47234.4,41144.8
47246.6,41121.9
47263.2,41101.7
47283.3,41085.2
47306.3,41072.9
47331.2,41065.4
47359.5,41062.6
47916.1,41062.6
Z" /> 
<path style="fill:#000000; fill-opacity:1.0; 
stroke:#000000; stroke-width:0; stroke-opacity:1; 
stroke-linecap:round; stroke-linejoin:round;fill-rule:evenodd;"
d="M 50399,40379.5
50457.8,40391.2
50522.4,40417.9
50580.5,40456.8
50629.9,40506.2
50668.7,40564.3
50695.4,40628.8
50709.1,40697.3
50709.1,40767.2
50695.4,40835.8
50668.7,40900.3
50629.9,40958.4
50580.5,41007.8
50522.4,41046.6
50457.8,41073.4
50399,41085.1
50389.3,41087
50319.4,41087
50309.6,41085.1
50250.9,41073.4
50186.3,41046.6
50128.2,41007.8
50078.8,40958.4
50040,40900.3
50013.2,40835.8
49999.6,40767.2
49999.6,40697.3
50013.2,40628.8
50040,40564.3
50078.8,40506.2
50128.2,40456.8
50186.3,40417.9
50250.9,40391.2
50309.6,40379.5
50319.4,40377.6
50389.3,40377.6
Z" /> 
<path style="fill:#000000; fill-opacity:1.0; 
stroke:#000000; stroke-width:0; stroke-opacity:1; 
stroke-linecap:round; stroke-linejoin:round;fill-rule:evenodd;"
d="M 43583.1,40925.6
42834.3,40925.6
42834.3,40058.7
43583.1,40058.7
Z" /> 
<path style="fill:#000000; fill-opacity:1.0; 
stroke:#000000; stroke-width:0; stroke-opacity:1; 
stroke-linecap:round; stroke-linejoin:round;fill-rule:evenodd;"
d="M 44488.6,40925.6
43739.8,40925.6
43739.8,40058.7
44488.6,40058.7
Z" /> 
<path style="fill:#000000; fill-opacity:1.0; 
stroke:#000000; stroke-width:0; stroke-opacity:1; 
stroke-linecap:round; stroke-linejoin:round;fill-rule:evenodd;"
d="M 50399,39379.5
50457.8,39391.2
50522.4,39417.9
50580.5,39456.8
50629.9,39506.2
50668.7,39564.3
50695.4,39628.8
50709.1,39697.3
50709.1,39767.2
50695.4,39835.8
50668.7,39900.3
50629.9,39958.4
50580.5,40007.8
50522.4,40046.6
50457.8,40073.4
50399,40085.1
50389.3,40087
50319.4,40087
50309.6,40085.1
50250.9,40073.4
50186.3,40046.6
50128.2,40007.8
50078.8,39958.4
50040,39900.3
50013.2,39835.8
49999.6,39767.2
49999.6,39697.3
50013.2,39628.8
50040,39564.3
50078.8,39506.2
50128.2,39456.8
50186.3,39417.9
50250.9,39391.2
50309.6,39379.5
50319.4,39377.6
50389.3,39377.6
Z" /> 
<path style="fill:#000000; fill-opacity:1.0; 
stroke:#000000; stroke-width:0; stroke-opacity:1; 
stroke-linecap:round; stroke-linejoin:round;fill-rule:evenodd;"
d="M 43583.1,39783.9
42834.3,39783.9
42834.3,38916.9
43583.1,38916.9
Z" /> 
<path style="fill:#000000; fill-opacity:1.0; 
stroke:#000000; stroke-width:0; stroke-opacity:1; 
stroke-linecap:round; stroke-linejoin:round;fill-rule:evenodd;"
d="M 44488.6,39783.9
43739.8,39783.9
43739.8,38916.9
44488.6,38916.9
Z" /> 
<path style="fill:#000000; fill-opacity:1.0; 
stroke:#000000; stroke-width:0; stroke-opacity:1; 
stroke-linecap:round; stroke-linejoin:round;fill-rule:evenodd;"
d="M 50399,38379.5
50457.8,38391.2
50522.4,38417.9
50580.5,38456.8
50629.9,38506.2
50668.7,38564.3
50695.4,38628.8
50709.1,38697.3
50709.1,38767.2
50695.4,38835.8
50668.7,38900.3
50629.9,38958.4
50580.5,39007.8
50522.4,39046.6
50457.8,39073.4
50399,39085.1
50389.3,39087
50319.4,39087
50309.6,39085.1
50250.9,39073.4
50186.3,39046.6
50128.2,39007.8
50078.8,38958.4
50040,38900.3
50013.2,38835.8
49999.6,38767.2
49999.6,38697.3
50013.2,38628.8
50040,38564.3
50078.8,38506.2
50128.2,38456.8
50186.3,38417.9
50250.9,38391.2
50309.6,38379.5
50319.4,38377.6
50389.3,38377.6
Z" /> 
<path style="fill:#000000; fill-opacity:1.0; 
stroke:#000000; stroke-width:0; stroke-opacity:1; 
stroke-linecap:round; stroke-linejoin:round;fill-rule:evenodd;"
d="M 43968,38033.9
43993,38041.5
44015.9,38053.7
44036.1,38070.2
44052.6,38090.4
44064.8,38113.3
44072.4,38138.3
44075.2,38166.6
44075.2,38526.3
44072.4,38554.7
44064.8,38579.6
44052.6,38602.5
44036.1,38622.7
44015.9,38639.2
43993,38651.5
43968,38659
43939.7,38661.8
43383.1,38661.8
43354.8,38659
43329.9,38651.5
43306.9,38639.2
43286.8,38622.7
43270.3,38602.5
43258,38579.6
43250.4,38554.7
43247.6,38526.3
43247.6,38166.6
43250.4,38138.3
43258,38113.3
43270.3,38090.4
43286.8,38070.2
43306.9,38053.7
43329.9,38041.5
43354.8,38033.9
43383.1,38031.1
43939.7,38031.1
Z" /> 
<path style="fill:#000000; fill-opacity:1.0; 
stroke:#000000; stroke-width:0; stroke-opacity:1; 
stroke-linecap:round; stroke-linejoin:round;fill-rule:evenodd;"
d="M 50399,37379.5
50457.8,37391.2
50522.4,37417.9
50580.5,37456.8
50629.9,37506.2
50668.7,37564.3
50695.4,37628.8
50704.4,37674.1
50708.3,37693.3
50709.1,37697.3
50709.1,37767.2
50695.4,37835.8
50668.7,37900.3
50629.9,37958.4
50580.5,38007.8
50522.4,38046.6
50457.8,38073.4
50399,38085.1
50389.3,38087
50319.4,38087
50309.6,38085.1
50250.9,38073.4
50186.3,38046.6
50128.2,38007.8
50078.8,37958.4
50040,37900.3
50013.2,37835.8
49999.6,37767.2
49999.6,37697.3
50000.4,37693.3
50004.2,37674.1
50013.2,37628.8
50040,37564.3
50078.8,37506.2
50128.2,37456.8
50186.3,37417.9
50250.9,37391.2
50309.6,37379.5
50319.4,37377.6
50389.3,37377.6
Z" /> 
<path style="fill:#000000; fill-opacity:1.0; 
stroke:#000000; stroke-width:0; stroke-opacity:1; 
stroke-linecap:round; stroke-linejoin:round;fill-rule:evenodd;"
d="M 42196.4,37128.4
42221.3,37135.9
42244.3,37148.2
42264.4,37164.7
42280.9,37184.9
42293.2,37207.8
42300.8,37232.7
42303.5,37261.1
42303.5,37620.8
42300.8,37649.1
42293.2,37674.1
42280.9,37697
42264.4,37717.2
42244.3,37733.7
42221.3,37746
42196.4,37753.5
42168.1,37756.3
41611.5,37756.3
41583.1,37753.5
41558.2,37746
41535.3,37733.7
41515.1,37717.2
41498.6,37697
41486.3,37674.1
41478.8,37649.1
41476,37620.8
41476,37261.1
41478.8,37232.7
41486.3,37207.8
41498.6,37184.9
41515.1,37164.7
41535.3,37148.2
41558.2,37135.9
41583.1,37128.4
41611.5,37125.6
42168.1,37125.6
Z" /> 
<path style="fill:#000000; fill-opacity:1.0; 
stroke:#000000; stroke-width:0; stroke-opacity:1; 
stroke-linecap:round; stroke-linejoin:round;fill-rule:evenodd;"
d="M 40556.5,36985.8
40615.3,36997.5
40679.8,37024.2
40737.9,37063.1
40787.3,37112.5
40826.2,37170.6
40852.9,37235.1
40862.5,37283.3
40866.5,37303.6
40866.5,37373.5
40864.6,37383.3
40852.9,37442.1
40826.2,37506.6
40787.3,37564.7
40737.9,37614.1
40679.8,37652.9
40615.3,37679.7
40556.5,37691.4
40546.7,37693.3
40476.9,37693.3
40467.1,37691.4
40408.3,37679.7
40343.8,37652.9
40285.7,37614.1
40236.3,37564.7
40197.5,37506.6
40170.7,37442.1
40159,37383.3
40157.1,37373.5
40157.1,37303.6
40161.1,37283.3
40170.7,37235.1
40197.5,37170.6
40236.3,37112.5
40285.7,37063.1
40343.8,37024.2
40408.3,36997.5
40467.1,36985.8
40476.9,36983.9
40546.7,36983.9
Z" /> 
<path style="fill:#000000; fill-opacity:1.0; 
stroke:#000000; stroke-width:0; stroke-opacity:1; 
stroke-linecap:round; stroke-linejoin:round;fill-rule:evenodd;"
d="M 50709.1,37087
49999.6,37087
49999.6,36377.6
50709.1,36377.6
Z" /> 
<path style="fill:#000000; fill-opacity:1.0; 
stroke:#000000; stroke-width:0; stroke-opacity:1; 
stroke-linecap:round; stroke-linejoin:round;fill-rule:evenodd;"
d="M 40866.5,36693.3
40157.1,36693.3
40157.1,35983.9
40866.5,35983.9
Z" /> 
<path style="fill:#000000; fill-opacity:1.0; 
stroke:#000000; stroke-width:0; stroke-opacity:1; 
stroke-linecap:round; stroke-linejoin:round;fill-rule:evenodd;"
d="M 42196.4,36026
42221.3,36033.6
42244.3,36045.9
42264.4,36062.4
42280.9,36082.5
42293.2,36105.5
42300.8,36130.4
42303.5,36158.7
42303.5,36518.4
42300.8,36546.8
42293.2,36571.7
42280.9,36594.7
42264.4,36614.8
42244.3,36631.3
42221.3,36643.6
42196.4,36651.1
42168.1,36653.9
41611.5,36653.9
41583.1,36651.1
41558.2,36643.6
41535.3,36631.3
41515.1,36614.8
41498.6,36594.7
41486.3,36571.7
41478.8,36546.8
41476,36518.4
41476,36158.7
41478.8,36130.4
41486.3,36105.5
41498.6,36082.5
41515.1,36062.4
41535.3,36045.9
41558.2,36033.6
41583.1,36026
41611.5,36023.2
42168.1,36023.2
Z" /> 
<path style="fill:#000000; fill-opacity:1.0; 
stroke:#000000; stroke-width:0; stroke-opacity:1; 
stroke-linecap:round; stroke-linejoin:round;fill-rule:evenodd;"
d="M 49312.4,34411
49371.2,34422.7
49435.7,34449.4
49493.8,34488.2
49543.2,34537.7
49582.1,34595.8
49608.8,34660.3
49622.4,34728.8
49622.4,34798.7
49608.8,34867.2
49582.1,34931.8
49543.2,34989.9
49493.8,35039.3
49435.7,35078.1
49371.2,35104.9
49312.4,35116.6
49302.7,35118.5
49232.8,35118.5
49223,35116.6
49164.2,35104.9
49099.7,35078.1
49041.6,35039.3
48992.2,34989.9
48953.4,34931.8
48926.6,34867.2
48913,34798.7
48913,34728.8
48926.6,34660.3
48953.4,34595.8
48992.2,34537.7
49041.6,34488.2
49099.7,34449.4
49164.2,34422.7
49223,34411
49232.8,34409.1
49302.7,34409.1
Z" /> 
<path style="fill:#000000; fill-opacity:1.0; 
stroke:#000000; stroke-width:0; stroke-opacity:1; 
stroke-linecap:round; stroke-linejoin:round;fill-rule:evenodd;"
d="M 50312.4,34411
50371.2,34422.7
50435.7,34449.4
50493.8,34488.2
50543.2,34537.7
50582.1,34595.8
50608.8,34660.3
50622.4,34728.8
50622.4,34798.7
50608.8,34867.2
50582.1,34931.8
50543.2,34989.9
50493.8,35039.3
50435.7,35078.1
50371.2,35104.9
50312.4,35116.6
50302.7,35118.5
50232.8,35118.5
50223,35116.6
50164.2,35104.9
50099.7,35078.1
50041.6,35039.3
49992.2,34989.9
49953.4,34931.8
49926.6,34867.2
49913,34798.7
49913,34728.8
49926.6,34660.3
49953.4,34595.8
49992.2,34537.7
50041.6,34488.2
50099.7,34449.4
50164.2,34422.7
50223,34411
50232.8,34409.1
50302.7,34409.1
Z" /> 
<path style="fill:#000000; fill-opacity:1.0; 
stroke:#000000; stroke-width:0; stroke-opacity:1; 
stroke-linecap:round; stroke-linejoin:round;fill-rule:evenodd;"
d="M 47312.4,34411
47371.2,34422.7
47435.7,34449.4
47493.8,34488.2
47543.2,34537.7
47582.1,34595.8
47608.8,34660.3
47622.4,34728.8
47622.4,34798.7
47608.8,34867.2
47582.1,34931.8
47543.2,34989.9
47493.8,35039.3
47435.7,35078.1
47371.2,35104.9
47312.4,35116.6
47302.7,35118.5
47232.8,35118.5
47223,35116.6
47164.2,35104.9
47099.7,35078.1
47041.6,35039.3
46992.2,34989.9
46953.4,34931.8
46926.6,34867.2
46913,34798.7
46913,34728.8
46926.6,34660.3
46953.4,34595.8
46992.2,34537.7
47041.6,34488.2
47099.7,34449.4
47164.2,34422.7
47223,34411
47232.8,34409.1
47302.7,34409.1
Z" /> 
<path style="fill:#000000; fill-opacity:1.0; 
stroke:#000000; stroke-width:0; stroke-opacity:1; 
stroke-linecap:round; stroke-linejoin:round;fill-rule:evenodd;"
d="M 48312.4,34411
48371.2,34422.7
48435.7,34449.4
48493.8,34488.2
48543.2,34537.7
48582.1,34595.8
48608.8,34660.3
48622.4,34728.8
48622.4,34798.7
48608.8,34867.2
48582.1,34931.8
48543.2,34989.9
48493.8,35039.3
48435.7,35078.1
48371.2,35104.9
48312.4,35116.6
48302.7,35118.5
48232.8,35118.5
48223,35116.6
48164.2,35104.9
48099.7,35078.1
48041.6,35039.3
47992.2,34989.9
47953.4,34931.8
47926.6,34867.2
47913,34798.7
47913,34728.8
47926.6,34660.3
47953.4,34595.8
47992.2,34537.7
48041.6,34488.2
48099.7,34449.4
48164.2,34422.7
48223,34411
48232.8,34409.1
48302.7,34409.1
Z" /> 
<path style="fill:#000000; fill-opacity:1.0; 
stroke:#000000; stroke-width:0; stroke-opacity:1; 
stroke-linecap:round; stroke-linejoin:round;fill-rule:evenodd;"
d="M 43622.4,35118.5
42913,35118.5
42913,34409.1
43622.4,34409.1
Z" /> 
<path style="fill:#000000; fill-opacity:1.0; 
stroke:#000000; stroke-width:0; stroke-opacity:1; 
stroke-linecap:round; stroke-linejoin:round;fill-rule:evenodd;"
d="M 44312.4,34411
44371.2,34422.7
44435.7,34449.4
44493.8,34488.2
44543.2,34537.7
44582.1,34595.8
44608.8,34660.3
44622.4,34728.8
44622.4,34798.7
44608.8,34867.2
44582.1,34931.8
44543.2,34989.9
44493.8,35039.3
44435.7,35078.1
44371.2,35104.9
44312.4,35116.6
44302.7,35118.5
44232.8,35118.5
44223,35116.6
44164.2,35104.9
44099.7,35078.1
44041.6,35039.3
43992.2,34989.9
43953.4,34931.8
43926.6,34867.2
43913,34798.7
43913,34728.8
43926.6,34660.3
43953.4,34595.8
43992.2,34537.7
44041.6,34488.2
44099.7,34449.4
44164.2,34422.7
44223,34411
44232.8,34409.1
44302.7,34409.1
Z" /> 
<path style="fill:#000000; fill-opacity:1.0; 
stroke:#000000; stroke-width:0; stroke-opacity:1; 
stroke-linecap:round; stroke-linejoin:round;fill-rule:evenodd;"
d="M 45312.4,34411
45371.2,34422.7
45435.7,34449.4
45493.8,34488.2
45543.2,34537.7
45582.1,34595.8
45608.8,34660.3
45622.4,34728.8
45622.4,34798.7
45608.8,34867.2
45582.1,34931.8
45543.2,34989.9
45493.8,35039.3
45435.7,35078.1
45371.2,35104.9
45312.4,35116.6
45302.7,35118.5
45232.8,35118.5
45223,35116.6
45164.2,35104.9
45099.7,35078.1
45041.6,35039.3
44992.2,34989.9
44953.4,34931.8
44926.6,34867.2
44913,34798.7
44913,34728.8
44926.6,34660.3
44953.4,34595.8
44992.2,34537.7
45041.6,34488.2
45099.7,34449.4
45164.2,34422.7
45223,34411
45232.8,34409.1
45302.7,34409.1
Z" /> 
<path style="fill:#000000; fill-opacity:1.0; 
stroke:#000000; stroke-width:0; stroke-opacity:1; 
stroke-linecap:round; stroke-linejoin:round;fill-rule:evenodd;"
d="M 46312.4,34411
46371.2,34422.7
46435.7,34449.4
46493.8,34488.2
46543.2,34537.7
46582.1,34595.8
46608.8,34660.3
46622.4,34728.8
46622.4,34798.7
46608.8,34867.2
46582.1,34931.8
46543.2,34989.9
46493.8,35039.3
46435.7,35078.1
46371.2,35104.9
46312.4,35116.6
46302.7,35118.5
46232.8,35118.5
46223,35116.6
46164.2,35104.9
46099.7,35078.1
46041.6,35039.3
45992.2,34989.9
45953.4,34931.8
45926.6,34867.2
45913,34798.7
45913,34728.8
45926.6,34660.3
45953.4,34595.8
45992.2,34537.7
46041.6,34488.2
46099.7,34449.4
46164.2,34422.7
46223,34411
46232.8,34409.1
46302.7,34409.1
Z" /> 
<path style="fill:#000000; fill-opacity:1.0; 
stroke:#000000; stroke-width:0; stroke-opacity:1; 
stroke-linecap:round; stroke-linejoin:round;fill-rule:evenodd;"
d="M 40866.5,34921.7
40157.1,34921.7
40157.1,34212.2
40866.5,34212.2
Z" /> 
<path style="fill:#000000; fill-opacity:1.0; 
stroke:#000000; stroke-width:0; stroke-opacity:1; 
stroke-linecap:round; stroke-linejoin:round;fill-rule:evenodd;"
d="M 40556.5,33214.1
40615.3,33225.8
40679.8,33252.6
40737.9,33291.4
40787.3,33340.8
40826.2,33398.9
40852.9,33463.5
40866.5,33532
40866.5,33601.9
40852.9,33670.4
40826.2,33735
40787.3,33793.1
40737.9,33842.5
40679.8,33881.3
40615.3,33908
40556.5,33919.7
40546.7,33921.7
40476.9,33921.7
40467.1,33919.7
40408.3,33908
40343.8,33881.3
40285.7,33842.5
40236.3,33793.1
40197.5,33735
40170.7,33670.4
40157.1,33601.9
40157.1,33532
40170.7,33463.5
40197.5,33398.9
40236.3,33340.8
40285.7,33291.4
40343.8,33252.6
40408.3,33225.8
40467.1,33214.1
40476.9,33212.2
40546.7,33212.2
Z" /> 
<path style="fill:#000000; fill-opacity:1.0; 
stroke:#000000; stroke-width:0; stroke-opacity:1; 
stroke-linecap:round; stroke-linejoin:round;fill-rule:evenodd;"
d="M 43475.9,33053.6
43500.8,33061.1
43523.8,33073.4
43543.9,33089.9
43560.4,33110.1
43572.7,33133
43580.3,33157.9
43583.1,33186.3
43583.1,33742.9
43580.3,33771.2
43572.7,33796.1
43560.4,33819.1
43543.9,33839.2
43523.8,33855.7
43500.8,33868
43475.9,33875.6
43447.6,33878.3
43087.8,33878.3
43059.5,33875.6
43034.6,33868
43011.6,33855.7
42991.5,33839.2
42975,33819.1
42962.7,33796.1
42955.2,33771.2
42952.4,33742.9
42952.4,33186.3
42955.2,33157.9
42962.7,33133
42975,33110.1
42991.5,33089.9
43011.6,33073.4
43034.6,33061.1
43059.5,33053.6
43087.8,33050.8
43447.6,33050.8
Z" /> 
<path style="fill:#000000; fill-opacity:1.0; 
stroke:#000000; stroke-width:0; stroke-opacity:1; 
stroke-linecap:round; stroke-linejoin:round;fill-rule:evenodd;"
d="M 50562.5,33053.6
50587.4,33061.1
50610.4,33073.4
50630.5,33089.9
50647.1,33110.1
50659.3,33133
50666.9,33157.9
50669.7,33186.3
50669.7,33742.9
50666.9,33771.2
50659.3,33796.1
50647.1,33819.1
50630.5,33839.2
50610.4,33855.7
50587.4,33868
50562.5,33875.6
50534.2,33878.3
50174.5,33878.3
50146.1,33875.6
50121.2,33868
50098.2,33855.7
50078.1,33839.2
50061.6,33819.1
50049.3,33796.1
50041.8,33771.2
50039,33742.9
50039,33186.3
50041.8,33157.9
50049.3,33133
50061.6,33110.1
50078.1,33089.9
50098.2,33073.4
50121.2,33061.1
50146.1,33053.6
50174.5,33050.8
50534.2,33050.8
Z" /> 
<path style="fill:#000000; fill-opacity:1.0; 
stroke:#000000; stroke-width:0; stroke-opacity:1; 
stroke-linecap:round; stroke-linejoin:round;fill-rule:evenodd;"
d="M 49381.4,33053.6
49406.3,33061.1
49429.3,33073.4
49449.4,33089.9
49466,33110.1
49478.2,33133
49485.8,33157.9
49488.6,33186.3
49488.6,33742.9
49485.8,33771.2
49478.2,33796.1
49466,33819.1
49449.4,33839.2
49429.3,33855.7
49406.3,33868
49381.4,33875.6
49353.1,33878.3
48993.4,33878.3
48965,33875.6
48940.1,33868
48917.1,33855.7
48897,33839.2
48880.5,33819.1
48868.2,33796.1
48860.7,33771.2
48857.9,33742.9
48857.9,33186.3
48860.7,33157.9
48868.2,33133
48880.5,33110.1
48897,33089.9
48917.1,33073.4
48940.1,33061.1
48965,33053.6
48993.4,33050.8
49353.1,33050.8
Z" /> 
<path style="fill:#000000; fill-opacity:1.0; 
stroke:#000000; stroke-width:0; stroke-opacity:1; 
stroke-linecap:round; stroke-linejoin:round;fill-rule:evenodd;"
d="M 48200.3,33053.6
48225.2,33061.1
48248.2,33073.4
48268.3,33089.9
48284.9,33110.1
48297.1,33133
48304.7,33157.9
48307.5,33186.3
48307.5,33742.9
48304.7,33771.2
48297.1,33796.1
48284.9,33819.1
48268.3,33839.2
48248.2,33855.7
48225.2,33868
48200.3,33875.6
48172,33878.3
47812.3,33878.3
47783.9,33875.6
47759,33868
47736,33855.7
47715.9,33839.2
47699.4,33819.1
47687.1,33796.1
47679.6,33771.2
47676.8,33742.9
47676.8,33186.3
47679.6,33157.9
47687.1,33133
47699.4,33110.1
47715.9,33089.9
47736,33073.4
47759,33061.1
47783.9,33053.6
47812.3,33050.8
48172,33050.8
Z" /> 
<path style="fill:#000000; fill-opacity:1.0; 
stroke:#000000; stroke-width:0; stroke-opacity:1; 
stroke-linecap:round; stroke-linejoin:round;fill-rule:evenodd;"
d="M 45838.1,33053.6
45863,33061.1
45886,33073.4
45906.1,33089.9
45922.7,33110.1
45934.9,33133
45942.5,33157.9
45945.3,33186.3
45945.3,33742.9
45942.5,33771.2
45934.9,33796.1
45922.7,33819.1
45906.1,33839.2
45886,33855.7
45863,33868
45838.1,33875.6
45809.8,33878.3
45450.1,33878.3
45421.7,33875.6
45396.8,33868
45373.8,33855.7
45353.7,33839.2
45337.2,33819.1
45324.9,33796.1
45317.4,33771.2
45314.6,33742.9
45314.6,33186.3
45317.4,33157.9
45324.9,33133
45337.2,33110.1
45353.7,33089.9
45373.8,33073.4
45396.8,33061.1
45421.7,33053.6
45450.1,33050.8
45809.8,33050.8
Z" /> 
<path style="fill:#000000; fill-opacity:1.0; 
stroke:#000000; stroke-width:0; stroke-opacity:1; 
stroke-linecap:round; stroke-linejoin:round;fill-rule:evenodd;"
d="M 44657,33053.6
44681.9,33061.1
44704.9,33073.4
44725,33089.9
44741.5,33110.1
44753.8,33133
44761.4,33157.9
44764.2,33186.3
44764.2,33742.9
44761.4,33771.2
44753.8,33796.1
44741.5,33819.1
44725,33839.2
44704.9,33855.7
44681.9,33868
44657,33875.6
44628.7,33878.3
44269,33878.3
44240.6,33875.6
44215.7,33868
44192.7,33855.7
44172.6,33839.2
44156.1,33819.1
44143.8,33796.1
44136.3,33771.2
44133.5,33742.9
44133.5,33186.3
44136.3,33157.9
44143.8,33133
44156.1,33110.1
44172.6,33089.9
44192.7,33073.4
44215.7,33061.1
44240.6,33053.6
44269,33050.8
44628.7,33050.8
Z" /> 
<path style="fill:#000000; fill-opacity:1.0; 
stroke:#000000; stroke-width:0; stroke-opacity:1; 
stroke-linecap:round; stroke-linejoin:round;fill-rule:evenodd;"
d="M 42294.8,33053.6
42319.7,33061.1
42342.7,33073.4
42362.8,33089.9
42379.3,33110.1
42391.6,33133
42399.2,33157.9
42402,33186.3
42402,33742.9
42399.2,33771.2
42391.6,33796.1
42379.3,33819.1
42362.8,33839.2
42342.7,33855.7
42319.7,33868
42294.8,33875.6
42266.5,33878.3
41906.7,33878.3
41878.4,33875.6
41853.5,33868
41830.5,33855.7
41810.4,33839.2
41793.9,33819.1
41781.6,33796.1
41774.1,33771.2
41771.3,33742.9
41771.3,33186.3
41774.1,33157.9
41781.6,33133
41793.9,33110.1
41810.4,33089.9
41830.5,33073.4
41853.5,33061.1
41878.4,33053.6
41906.7,33050.8
42266.5,33050.8
Z" /> 
<path style="fill:#000000; fill-opacity:1.0; 
stroke:#000000; stroke-width:0; stroke-opacity:1; 
stroke-linecap:round; stroke-linejoin:round;fill-rule:evenodd;"
d="M 47019.2,33053.6
47044.1,33061.1
47067.1,33073.4
47087.2,33089.9
47103.8,33110.1
47116,33133
47123.6,33157.9
47126.4,33186.3
47126.4,33742.9
47123.6,33771.2
47116,33796.1
47103.8,33819.1
47087.2,33839.2
47067.1,33855.7
47044.1,33868
47019.2,33875.6
46990.9,33878.3
46631.2,33878.3
46602.8,33875.6
46577.9,33868
46554.9,33855.7
46534.8,33839.2
46518.3,33819.1
46506,33796.1
46498.5,33771.2
46495.7,33742.9
46495.7,33186.3
46498.5,33157.9
46506,33133
46518.3,33110.1
46534.8,33089.9
46554.9,33073.4
46577.9,33061.1
46602.8,33053.6
46631.2,33050.8
46990.9,33050.8
Z" /> 
<path style="fill:#000000; fill-opacity:1.0; 
stroke:#000000; stroke-width:0; stroke-opacity:1; 
stroke-linecap:round; stroke-linejoin:round;fill-rule:evenodd;"
d="M 40556.5,32214.1
40615.3,32225.8
40679.8,32252.6
40737.9,32291.4
40787.3,32340.8
40826.2,32398.9
40852.9,32463.5
40866.5,32532
40866.5,32601.9
40852.9,32670.4
40826.2,32735
40787.3,32793.1
40737.9,32842.5
40679.8,32881.3
40615.3,32908
40556.5,32919.7
40546.7,32921.7
40476.9,32921.7
40467.1,32919.7
40408.3,32908
40343.8,32881.3
40285.7,32842.5
40236.3,32793.1
40197.5,32735
40170.7,32670.4
40157.1,32601.9
40157.1,32532
40170.7,32463.5
40197.5,32398.9
40236.3,32340.8
40285.7,32291.4
40343.8,32252.6
40408.3,32225.8
40467.1,32214.1
40476.9,32212.2
40546.7,32212.2
Z" /> 
<path style="fill:#000000; fill-opacity:1.0; 
stroke:#000000; stroke-width:0; stroke-opacity:1; 
stroke-linecap:round; stroke-linejoin:round;fill-rule:evenodd;"
d="M 44680.6,31782.9
44695.4,31787.4
44709.1,31794.7
44721.1,31804.5
44730.9,31816.5
44738.2,31830.2
44742.7,31845
44744.5,31862.9
44744.5,32192.3
44742.7,32210.1
44738.2,32224.9
44730.9,32238.6
44721.1,32250.6
44709.1,32260.4
44695.4,32267.8
44680.6,32272.3
44662.7,32274
44234.9,32274
44217.1,32272.3
44202.2,32267.8
44188.5,32260.4
44176.6,32250.6
44166.7,32238.6
44159.4,32224.9
44154.9,32210.1
44153.1,32192.3
44153.1,31862.9
44154.9,31845
44159.4,31830.2
44166.7,31816.5
44176.6,31804.5
44188.5,31794.7
44202.2,31787.4
44217.1,31782.9
44234.9,31781.1
44662.7,31781.1
Z" /> 
<path style="fill:#000000; fill-opacity:1.0; 
stroke:#000000; stroke-width:0; stroke-opacity:1; 
stroke-linecap:round; stroke-linejoin:round;fill-rule:evenodd;"
d="M 49405,31773
49419.8,31777.5
49433.5,31784.8
49445.5,31794.7
49455.3,31806.7
49462.6,31820.3
49467.1,31835.2
49468.9,31853
49468.9,32182.4
49467.1,32200.3
49462.6,32215.1
49455.3,32228.8
49445.5,32240.8
49433.5,32250.6
49419.8,32257.9
49405,32262.4
49387.1,32264.2
48959.3,32264.2
48941.5,32262.4
48926.6,32257.9
48913,32250.6
48901,32240.8
48891.1,32228.8
48883.8,32215.1
48879.3,32200.3
48877.6,32182.4
48877.6,31853
48879.3,31835.2
48883.8,31820.3
48891.1,31806.7
48901,31794.7
48913,31784.8
48926.6,31777.5
48941.5,31773
48959.3,31771.3
49387.1,31771.3
Z" /> 
<path style="fill:#000000; fill-opacity:1.0; 
stroke:#000000; stroke-width:0; stroke-opacity:1; 
stroke-linecap:round; stroke-linejoin:round;fill-rule:evenodd;"
d="M 50586.1,31773
50600.9,31777.5
50614.6,31784.8
50626.6,31794.7
50636.4,31806.7
50643.7,31820.3
50648.2,31835.2
50650,31853
50650,32182.4
50648.2,32200.3
50643.7,32215.1
50636.4,32228.8
50626.6,32240.8
50614.6,32250.6
50600.9,32257.9
50586.1,32262.4
50568.2,32264.2
50140.4,32264.2
50122.6,32262.4
50107.7,32257.9
50094.1,32250.6
50082.1,32240.8
50072.2,32228.8
50064.9,32215.1
50060.4,32200.3
50058.7,32182.4
50058.7,31853
50060.4,31835.2
50064.9,31820.3
50072.2,31806.7
50082.1,31794.7
50094.1,31784.8
50107.7,31777.5
50122.6,31773
50140.4,31771.3
50568.2,31771.3
Z" /> 
<path style="fill:#000000; fill-opacity:1.0; 
stroke:#000000; stroke-width:0; stroke-opacity:1; 
stroke-linecap:round; stroke-linejoin:round;fill-rule:evenodd;"
d="M 48223.9,31773
48238.7,31777.5
48252.4,31784.8
48264.4,31794.7
48274.2,31806.7
48281.5,31820.3
48286,31835.2
48287.8,31853
48287.8,32182.4
48286,32200.3
48281.5,32215.1
48274.2,32228.8
48264.4,32240.8
48252.4,32250.6
48238.7,32257.9
48223.9,32262.4
48206,32264.2
47778.2,32264.2
47760.4,32262.4
47745.5,32257.9
47731.8,32250.6
47719.9,32240.8
47710,32228.8
47702.7,32215.1
47698.2,32200.3
47696.5,32182.4
47696.5,31853
47698.2,31835.2
47702.7,31820.3
47710,31806.7
47719.9,31794.7
47731.8,31784.8
47745.5,31777.5
47760.4,31773
47778.2,31771.3
48206,31771.3
Z" /> 
<path style="fill:#000000; fill-opacity:1.0; 
stroke:#000000; stroke-width:0; stroke-opacity:1; 
stroke-linecap:round; stroke-linejoin:round;fill-rule:evenodd;"
d="M 47042.8,31773
47057.6,31777.5
47071.3,31784.8
47083.3,31794.7
47093.1,31806.7
47100.4,31820.3
47104.9,31835.2
47106.7,31853
47106.7,32182.4
47104.9,32200.3
47100.4,32215.1
47093.1,32228.8
47083.3,32240.8
47071.3,32250.6
47057.6,32257.9
47042.8,32262.4
47024.9,32264.2
46597.1,32264.2
46579.3,32262.4
46564.4,32257.9
46550.7,32250.6
46538.8,32240.8
46528.9,32228.8
46521.6,32215.1
46517.1,32200.3
46515.4,32182.4
46515.4,31853
46517.1,31835.2
46521.6,31820.3
46528.9,31806.7
46538.8,31794.7
46550.7,31784.8
46564.4,31777.5
46579.3,31773
46597.1,31771.3
47024.9,31771.3
Z" /> 
<path style="fill:#000000; fill-opacity:1.0; 
stroke:#000000; stroke-width:0; stroke-opacity:1; 
stroke-linecap:round; stroke-linejoin:round;fill-rule:evenodd;"
d="M 45861.7,31773
45876.5,31777.5
45890.2,31784.8
45902.2,31794.7
45912,31806.7
45919.3,31820.3
45923.8,31835.2
45925.6,31853
45925.6,32182.4
45923.8,32200.3
45919.3,32215.1
45912,32228.8
45902.2,32240.8
45890.2,32250.6
45876.5,32257.9
45861.7,32262.4
45843.8,32264.2
45416,32264.2
45398.2,32262.4
45383.3,32257.9
45369.6,32250.6
45357.7,32240.8
45347.8,32228.8
45340.5,32215.1
45336,32200.3
45334.3,32182.4
45334.3,31853
45336,31835.2
45340.5,31820.3
45347.8,31806.7
45357.7,31794.7
45369.6,31784.8
45383.3,31777.5
45398.2,31773
45416,31771.3
45843.8,31771.3
Z" /> 
<path style="fill:#000000; fill-opacity:1.0; 
stroke:#000000; stroke-width:0; stroke-opacity:1; 
stroke-linecap:round; stroke-linejoin:round;fill-rule:evenodd;"
d="M 43499.5,31773
43514.3,31777.5
43528,31784.8
43540,31794.7
43549.8,31806.7
43557.1,31820.3
43561.6,31835.2
43563.4,31853
43563.4,32182.4
43561.6,32200.3
43557.1,32215.1
43549.8,32228.8
43540,32240.8
43528,32250.6
43514.3,32257.9
43499.5,32262.4
43481.6,32264.2
43053.8,32264.2
43036,32262.4
43021.1,32257.9
43007.4,32250.6
42995.5,32240.8
42985.6,32228.8
42978.3,32215.1
42973.8,32200.3
42972,32182.4
42972,31853
42973.8,31835.2
42978.3,31820.3
42985.6,31806.7
42995.5,31794.7
43007.4,31784.8
43021.1,31777.5
43036,31773
43053.8,31771.3
43481.6,31771.3
Z" /> 
<path style="fill:#000000; fill-opacity:1.0; 
stroke:#000000; stroke-width:0; stroke-opacity:1; 
stroke-linecap:round; stroke-linejoin:round;fill-rule:evenodd;"
d="M 42318.4,31773
42333.2,31777.5
42346.9,31784.8
42358.9,31794.7
42368.7,31806.7
42376,31820.3
42380.5,31835.2
42382.3,31853
42382.3,32182.4
42380.5,32200.3
42376,32215.1
42368.7,32228.8
42358.9,32240.8
42346.9,32250.6
42333.2,32257.9
42318.4,32262.4
42300.5,32264.2
41872.7,32264.2
41854.9,32262.4
41840,32257.9
41826.3,32250.6
41814.4,32240.8
41804.5,32228.8
41797.2,32215.1
41792.7,32200.3
41790.9,32182.4
41790.9,31853
41792.7,31835.2
41797.2,31820.3
41804.5,31806.7
41814.4,31794.7
41826.3,31784.8
41840,31777.5
41854.9,31773
41872.7,31771.3
42300.5,31771.3
Z" /> 
<path style="fill:#000000; fill-opacity:1.0; 
stroke:#000000; stroke-width:0; stroke-opacity:1; 
stroke-linecap:round; stroke-linejoin:round;fill-rule:evenodd;"
d="M 40556.5,31214.1
40615.3,31225.8
40679.8,31252.6
40737.9,31291.4
40787.3,31340.8
40826.2,31398.9
40852.9,31463.5
40866.5,31532
40866.5,31601.9
40852.9,31670.4
40826.2,31735
40787.3,31793.1
40737.9,31842.5
40679.8,31881.3
40615.3,31908
40556.5,31919.7
40546.7,31921.7
40476.9,31921.7
40467.1,31919.7
40408.3,31908
40343.8,31881.3
40285.7,31842.5
40236.3,31793.1
40197.5,31735
40170.7,31670.4
40157.1,31601.9
40157.1,31532
40170.7,31463.5
40197.5,31398.9
40236.3,31340.8
40285.7,31291.4
40343.8,31252.6
40408.3,31225.8
40467.1,31214.1
40476.9,31212.2
40546.7,31212.2
Z" /> 
<path style="fill:#000000; fill-opacity:1.0; 
stroke:#000000; stroke-width:0; stroke-opacity:1; 
stroke-linecap:round; stroke-linejoin:round;fill-rule:evenodd;"
d="M 44680.6,30975.8
44695.4,30980.3
44709.1,30987.6
44721.1,30997.4
44730.9,31009.4
44738.2,31023.1
44742.7,31037.9
44744.5,31055.8
44744.5,31385.2
44742.7,31403
44738.2,31417.9
44730.9,31431.5
44721.1,31443.5
44709.1,31453.4
44695.4,31460.7
44680.6,31465.2
44662.7,31466.9
44234.9,31466.9
44217.1,31465.2
44202.2,31460.7
44188.5,31453.4
44176.6,31443.5
44166.7,31431.5
44159.4,31417.9
44154.9,31403
44153.1,31385.2
44153.1,31055.8
44154.9,31037.9
44159.4,31023.1
44166.7,31009.4
44176.6,30997.4
44188.5,30987.6
44202.2,30980.3
44217.1,30975.8
44234.9,30974
44662.7,30974
Z" /> 
<path style="fill:#000000; fill-opacity:1.0; 
stroke:#000000; stroke-width:0; stroke-opacity:1; 
stroke-linecap:round; stroke-linejoin:round;fill-rule:evenodd;"
d="M 50586.1,30965.9
50600.9,30970.4
50614.6,30977.7
50626.6,30987.6
50636.4,30999.6
50643.7,31013.2
50648.2,31028.1
50650,31045.9
50650,31375.3
50648.2,31393.2
50643.7,31408
50636.4,31421.7
50626.6,31433.7
50614.6,31443.5
50600.9,31450.8
50586.1,31455.3
50568.2,31457.1
50140.4,31457.1
50122.6,31455.3
50107.7,31450.8
50094.1,31443.5
50082.1,31433.7
50072.2,31421.7
50064.9,31408
50060.4,31393.2
50058.7,31375.3
50058.7,31045.9
50060.4,31028.1
50064.9,31013.2
50072.2,30999.6
50082.1,30987.6
50094.1,30977.7
50107.7,30970.4
50122.6,30965.9
50140.4,30964.2
50568.2,30964.2
Z" /> 
<path style="fill:#000000; fill-opacity:1.0; 
stroke:#000000; stroke-width:0; stroke-opacity:1; 
stroke-linecap:round; stroke-linejoin:round;fill-rule:evenodd;"
d="M 49405,30965.9
49419.8,30970.4
49433.5,30977.7
49445.5,30987.6
49455.3,30999.6
49462.6,31013.2
49467.1,31028.1
49468.9,31045.9
49468.9,31375.3
49467.1,31393.2
49462.6,31408
49455.3,31421.7
49445.5,31433.7
49433.5,31443.5
49419.8,31450.8
49405,31455.3
49387.1,31457.1
48959.3,31457.1
48941.5,31455.3
48926.6,31450.8
48913,31443.5
48901,31433.7
48891.1,31421.7
48883.8,31408
48879.3,31393.2
48877.6,31375.3
48877.6,31045.9
48879.3,31028.1
48883.8,31013.2
48891.1,30999.6
48901,30987.6
48913,30977.7
48926.6,30970.4
48941.5,30965.9
48959.3,30964.2
49387.1,30964.2
Z" /> 
<path style="fill:#000000; fill-opacity:1.0; 
stroke:#000000; stroke-width:0; stroke-opacity:1; 
stroke-linecap:round; stroke-linejoin:round;fill-rule:evenodd;"
d="M 48223.9,30965.9
48238.7,30970.4
48252.4,30977.7
48264.4,30987.6
48274.2,30999.6
48281.5,31013.2
48286,31028.1
48287.8,31045.9
48287.8,31375.3
48286,31393.2
48281.5,31408
48274.2,31421.7
48264.4,31433.7
48252.4,31443.5
48238.7,31450.8
48223.9,31455.3
48206,31457.1
47778.2,31457.1
47760.4,31455.3
47745.5,31450.8
47731.8,31443.5
47719.9,31433.7
47710,31421.7
47702.7,31408
47698.2,31393.2
47696.5,31375.3
47696.5,31045.9
47698.2,31028.1
47702.7,31013.2
47710,30999.6
47719.9,30987.6
47731.8,30977.7
47745.5,30970.4
47760.4,30965.9
47778.2,30964.2
48206,30964.2
Z" /> 
<path style="fill:#000000; fill-opacity:1.0; 
stroke:#000000; stroke-width:0; stroke-opacity:1; 
stroke-linecap:round; stroke-linejoin:round;fill-rule:evenodd;"
d="M 47042.8,30965.9
47057.6,30970.4
47071.3,30977.7
47083.3,30987.6
47093.1,30999.6
47100.4,31013.2
47104.9,31028.1
47106.7,31045.9
47106.7,31375.3
47104.9,31393.2
47100.4,31408
47093.1,31421.7
47083.3,31433.7
47071.3,31443.5
47057.6,31450.8
47042.8,31455.3
47024.9,31457.1
46597.1,31457.1
46579.3,31455.3
46564.4,31450.8
46550.7,31443.5
46538.8,31433.7
46528.9,31421.7
46521.6,31408
46517.1,31393.2
46515.4,31375.3
46515.4,31045.9
46517.1,31028.1
46521.6,31013.2
46528.9,30999.6
46538.8,30987.6
46550.7,30977.7
46564.4,30970.4
46579.3,30965.9
46597.1,30964.2
47024.9,30964.2
Z" /> 
<path style="fill:#000000; fill-opacity:1.0; 
stroke:#000000; stroke-width:0; stroke-opacity:1; 
stroke-linecap:round; stroke-linejoin:round;fill-rule:evenodd;"
d="M 45861.7,30965.9
45876.5,30970.4
45890.2,30977.7
45902.2,30987.6
45912,30999.6
45919.3,31013.2
45923.8,31028.1
45925.6,31045.9
45925.6,31375.3
45923.8,31393.2
45919.3,31408
45912,31421.7
45902.2,31433.7
45890.2,31443.5
45876.5,31450.8
45861.7,31455.3
45843.8,31457.1
45416,31457.1
45398.2,31455.3
45383.3,31450.8
45369.6,31443.5
45357.7,31433.7
45347.8,31421.7
45340.5,31408
45336,31393.2
45334.3,31375.3
45334.3,31045.9
45336,31028.1
45340.5,31013.2
45347.8,30999.6
45357.7,30987.6
45369.6,30977.7
45383.3,30970.4
45398.2,30965.9
45416,30964.2
45843.8,30964.2
Z" /> 
<path style="fill:#000000; fill-opacity:1.0; 
stroke:#000000; stroke-width:0; stroke-opacity:1; 
stroke-linecap:round; stroke-linejoin:round;fill-rule:evenodd;"
d="M 43499.5,30965.9
43514.3,30970.4
43528,30977.7
43540,30987.6
43549.8,30999.6
43557.1,31013.2
43561.6,31028.1
43563.4,31045.9
43563.4,31375.3
43561.6,31393.2
43557.1,31408
43549.8,31421.7
43540,31433.7
43528,31443.5
43514.3,31450.8
43499.5,31455.3
43481.6,31457.1
43053.8,31457.1
43036,31455.3
43021.1,31450.8
43007.4,31443.5
42995.5,31433.7
42985.6,31421.7
42978.3,31408
42973.8,31393.2
42972,31375.3
42972,31045.9
42973.8,31028.1
42978.3,31013.2
42985.6,30999.6
42995.5,30987.6
43007.4,30977.7
43021.1,30970.4
43036,30965.9
43053.8,30964.2
43481.6,30964.2
Z" /> 
<path style="fill:#000000; fill-opacity:1.0; 
stroke:#000000; stroke-width:0; stroke-opacity:1; 
stroke-linecap:round; stroke-linejoin:round;fill-rule:evenodd;"
d="M 42318.4,30965.9
42333.2,30970.4
42346.9,30977.7
42358.9,30987.6
42368.7,30999.6
42376,31013.2
42380.5,31028.1
42382.3,31045.9
42382.3,31375.3
42380.5,31393.2
42376,31408
42368.7,31421.7
42358.9,31433.7
42346.9,31443.5
42333.2,31450.8
42318.4,31455.3
42300.5,31457.1
41872.7,31457.1
41854.9,31455.3
41840,31450.8
41826.3,31443.5
41814.4,31433.7
41804.5,31421.7
41797.2,31408
41792.7,31393.2
41790.9,31375.3
41790.9,31045.9
41792.7,31028.1
41797.2,31013.2
41804.5,30999.6
41814.4,30987.6
41826.3,30977.7
41840,30970.4
41854.9,30965.9
41872.7,30964.2
42300.5,30964.2
Z" /> 
<path style="fill:#000000; fill-opacity:1.0; 
stroke:#000000; stroke-width:0; stroke-opacity:1; 
stroke-linecap:round; stroke-linejoin:round;fill-rule:evenodd;"
d="M 50399,28781.1
50457.8,28792.8
50522.4,28819.5
50580.5,28858.3
50629.9,28907.7
50668.7,28965.8
50695.4,29030.4
50706.2,29084.5
50708.3,29094.9
50709.1,29098.9
50709.1,29168.8
50695.4,29237.3
50668.7,29301.9
50629.9,29360
50580.5,29409.4
50522.4,29448.2
50457.8,29475
50399,29486.6
50389.3,29488.6
50319.4,29488.6
50309.6,29486.6
50250.9,29475
50186.3,29448.2
50128.2,29409.4
50078.8,29360
50040,29301.9
50013.2,29237.3
49999.6,29168.8
49999.6,29098.9
50000.4,29094.9
50002.5,29084.5
50013.2,29030.4
50040,28965.8
50078.8,28907.7
50128.2,28858.3
50186.3,28819.5
50250.9,28792.8
50309.6,28781.1
50319.4,28779.1
50389.3,28779.1
Z" /> 
<path style="fill:#000000; fill-opacity:1.0; 
stroke:#000000; stroke-width:0; stroke-opacity:1; 
stroke-linecap:round; stroke-linejoin:round;fill-rule:evenodd;"
d="M 43968,28585.1
43993,28592.6
44015.9,28604.9
44036.1,28621.4
44052.6,28641.6
44064.8,28664.5
44072.4,28689.4
44075.2,28717.8
44075.2,29077.5
44072.4,29105.8
44064.8,29130.8
44052.6,29153.7
44036.1,29173.8
44015.9,29190.4
43993,29202.6
43968,29210.2
43939.7,29213
43383.1,29213
43354.8,29210.2
43329.9,29202.6
43306.9,29190.4
43286.8,29173.8
43270.3,29153.7
43258,29130.8
43250.4,29105.8
43247.6,29077.5
43247.6,28717.8
43250.4,28689.4
43258,28664.5
43270.3,28641.6
43286.8,28621.4
43306.9,28604.9
43329.9,28592.6
43354.8,28585.1
43383.1,28582.3
43939.7,28582.3
Z" /> 
<path style="fill:#000000; fill-opacity:1.0; 
stroke:#000000; stroke-width:0; stroke-opacity:1; 
stroke-linecap:round; stroke-linejoin:round;fill-rule:evenodd;"
d="M 47944.4,28467
47969.3,28474.5
47992.3,28486.8
48012.4,28503.3
48028.9,28523.4
48041.2,28546.4
48048.8,28571.3
48051.6,28599.7
48051.6,28959.4
48048.8,28987.7
48041.2,29012.6
48028.9,29035.6
48012.4,29055.7
47992.3,29072.3
47969.3,29084.5
47944.4,29092.1
47916.1,29094.9
47359.5,29094.9
47331.2,29092.1
47306.3,29084.5
47283.3,29072.3
47263.2,29055.7
47246.6,29035.6
47234.4,29012.6
47226.8,28987.7
47224,28959.4
47224,28599.7
47226.8,28571.3
47234.4,28546.4
47246.6,28523.4
47263.2,28503.3
47283.3,28486.8
47306.3,28474.5
47331.2,28467
47359.5,28464.2
47916.1,28464.2
Z" /> 
<path style="fill:#000000; fill-opacity:1.0; 
stroke:#000000; stroke-width:0; stroke-opacity:1; 
stroke-linecap:round; stroke-linejoin:round;fill-rule:evenodd;"
d="M 46763.3,28467
46788.2,28474.5
46811.2,28486.8
46831.3,28503.3
46847.8,28523.4
46860.1,28546.4
46867.7,28571.3
46870.5,28599.7
46870.5,28959.4
46867.7,28987.7
46860.1,29012.6
46847.8,29035.6
46831.3,29055.7
46811.2,29072.3
46788.2,29084.5
46763.3,29092.1
46735,29094.9
46178.4,29094.9
46150.1,29092.1
46125.2,29084.5
46102.2,29072.3
46082.1,29055.7
46065.5,29035.6
46053.3,29012.6
46045.7,28987.7
46042.9,28959.4
46042.9,28599.7
46045.7,28571.3
46053.3,28546.4
46065.5,28523.4
46082.1,28503.3
46102.2,28486.8
46125.2,28474.5
46150.1,28467
46178.4,28464.2
46735,28464.2
Z" /> 
<path style="fill:#000000; fill-opacity:1.0; 
stroke:#000000; stroke-width:0; stroke-opacity:1; 
stroke-linecap:round; stroke-linejoin:round;fill-rule:evenodd;"
d="M 50399,27781.1
50457.8,27792.8
50522.4,27819.5
50580.5,27858.3
50629.9,27907.7
50668.7,27965.8
50695.4,28030.4
50709.1,28098.9
50709.1,28168.8
50695.4,28237.3
50668.7,28301.9
50629.9,28360
50580.5,28409.4
50522.4,28448.2
50457.8,28475
50399,28486.6
50389.3,28488.6
50319.4,28488.6
50309.6,28486.6
50250.9,28475
50186.3,28448.2
50128.2,28409.4
50078.8,28360
50040,28301.9
50013.2,28237.3
49999.6,28168.8
49999.6,28098.9
50013.2,28030.4
50040,27965.8
50078.8,27907.7
50128.2,27858.3
50186.3,27819.5
50250.9,27792.8
50309.6,27781.1
50319.4,27779.1
50389.3,27779.1
Z" /> 
<path style="fill:#000000; fill-opacity:1.0; 
stroke:#000000; stroke-width:0; stroke-opacity:1; 
stroke-linecap:round; stroke-linejoin:round;fill-rule:evenodd;"
d="M 44488.6,28327.2
43739.8,28327.2
43739.8,27460.2
44488.6,27460.2
Z" /> 
<path style="fill:#000000; fill-opacity:1.0; 
stroke:#000000; stroke-width:0; stroke-opacity:1; 
stroke-linecap:round; stroke-linejoin:round;fill-rule:evenodd;"
d="M 43583.1,28327.2
42834.3,28327.2
42834.3,27460.2
43583.1,27460.2
Z" /> 
<path style="fill:#000000; fill-opacity:1.0; 
stroke:#000000; stroke-width:0; stroke-opacity:1; 
stroke-linecap:round; stroke-linejoin:round;fill-rule:evenodd;"
d="M 50399,26781.1
50457.8,26792.8
50522.4,26819.5
50580.5,26858.3
50629.9,26907.7
50668.7,26965.8
50695.4,27030.4
50709.1,27098.9
50709.1,27168.8
50695.4,27237.3
50668.7,27301.9
50629.9,27360
50580.5,27409.4
50522.4,27448.2
50457.8,27475
50399,27486.6
50389.3,27488.6
50319.4,27488.6
50309.6,27486.6
50250.9,27475
50186.3,27448.2
50128.2,27409.4
50078.8,27360
50040,27301.9
50013.2,27237.3
49999.6,27168.8
49999.6,27098.9
50013.2,27030.4
50040,26965.8
50078.8,26907.7
50128.2,26858.3
50186.3,26819.5
50250.9,26792.8
50309.6,26781.1
50319.4,26779.1
50389.3,26779.1
Z" /> 
<path style="fill:#000000; fill-opacity:1.0; 
stroke:#000000; stroke-width:0; stroke-opacity:1; 
stroke-linecap:round; stroke-linejoin:round;fill-rule:evenodd;"
d="M 44488.6,27185.4
43739.8,27185.4
43739.8,26318.5
44488.6,26318.5
Z" /> 
<path style="fill:#000000; fill-opacity:1.0; 
stroke:#000000; stroke-width:0; stroke-opacity:1; 
stroke-linecap:round; stroke-linejoin:round;fill-rule:evenodd;"
d="M 43583.1,27185.4
42834.3,27185.4
42834.3,26318.5
43583.1,26318.5
Z" /> 
<path style="fill:#000000; fill-opacity:1.0; 
stroke:#000000; stroke-width:0; stroke-opacity:1; 
stroke-linecap:round; stroke-linejoin:round;fill-rule:evenodd;"
d="M 50399,25781.1
50457.8,25792.8
50522.4,25819.5
50580.5,25858.3
50629.9,25907.7
50668.7,25965.8
50695.4,26030.4
50709.1,26098.9
50709.1,26168.8
50695.4,26237.3
50668.7,26301.9
50629.9,26360
50580.5,26409.4
50522.4,26448.2
50457.8,26475
50399,26486.6
50389.3,26488.6
50319.4,26488.6
50309.6,26486.6
50250.9,26475
50186.3,26448.2
50128.2,26409.4
50078.8,26360
50040,26301.9
50013.2,26237.3
49999.6,26168.8
49999.6,26098.9
50013.2,26030.4
50040,25965.8
50078.8,25907.7
50128.2,25858.3
50186.3,25819.5
50250.9,25792.8
50309.6,25781.1
50319.4,25779.1
50389.3,25779.1
Z" /> 
<path style="fill:#000000; fill-opacity:1.0; 
stroke:#000000; stroke-width:0; stroke-opacity:1; 
stroke-linecap:round; stroke-linejoin:round;fill-rule:evenodd;"
d="M 43968,25435.5
43993,25443
44015.9,25455.3
44036.1,25471.8
44052.6,25491.9
44064.8,25514.9
44072.4,25539.8
44075.2,25568.2
44075.2,25927.9
44072.4,25956.2
44064.8,25981.1
44052.6,26004.1
44036.1,26024.2
44015.9,26040.8
43993,26053
43968,26060.6
43939.7,26063.4
43383.1,26063.4
43354.8,26060.6
43329.9,26053
43306.9,26040.8
43286.8,26024.2
43270.3,26004.1
43258,25981.1
43250.4,25956.2
43247.6,25927.9
43247.6,25568.2
43250.4,25539.8
43258,25514.9
43270.3,25491.9
43286.8,25471.8
43306.9,25455.3
43329.9,25443
43354.8,25435.5
43383.1,25432.7
43939.7,25432.7
Z" /> 
<path style="fill:#000000; fill-opacity:1.0; 
stroke:#000000; stroke-width:0; stroke-opacity:1; 
stroke-linecap:round; stroke-linejoin:round;fill-rule:evenodd;"
d="M 50399,24781.1
50457.8,24792.8
50522.4,24819.5
50580.5,24858.3
50629.9,24907.7
50668.7,24965.8
50695.4,25030.4
50704.4,25075.6
50708.3,25094.9
50709.1,25098.9
50709.1,25168.8
50695.4,25237.3
50668.7,25301.9
50629.9,25360
50580.5,25409.4
50522.4,25448.2
50457.8,25475
50399,25486.6
50389.3,25488.6
50319.4,25488.6
50309.6,25486.6
50250.9,25475
50186.3,25448.2
50128.2,25409.4
50078.8,25360
50040,25301.9
50013.2,25237.3
49999.6,25168.8
49999.6,25098.9
50000.4,25094.9
50004.2,25075.6
50013.2,25030.4
50040,24965.8
50078.8,24907.7
50128.2,24858.3
50186.3,24819.5
50250.9,24792.8
50309.6,24781.1
50319.4,24779.1
50389.3,24779.1
Z" /> 
<path style="fill:#000000; fill-opacity:1.0; 
stroke:#000000; stroke-width:0; stroke-opacity:1; 
stroke-linecap:round; stroke-linejoin:round;fill-rule:evenodd;"
d="M 42196.4,24530
42221.3,24537.5
42244.3,24549.8
42264.4,24566.3
42280.9,24586.4
42293.2,24609.4
42300.8,24634.3
42303.5,24662.7
42303.5,25022.4
42300.8,25050.7
42293.2,25075.6
42280.9,25098.6
42264.4,25118.7
42244.3,25135.2
42221.3,25147.5
42196.4,25155.1
42168.1,25157.9
41611.5,25157.9
41583.1,25155.1
41558.2,25147.5
41535.3,25135.2
41515.1,25118.7
41498.6,25098.6
41486.3,25075.6
41478.8,25050.7
41476,25022.4
41476,24662.7
41478.8,24634.3
41486.3,24609.4
41498.6,24586.4
41515.1,24566.3
41535.3,24549.8
41558.2,24537.5
41583.1,24530
41611.5,24527.2
42168.1,24527.2
Z" /> 
<path style="fill:#000000; fill-opacity:1.0; 
stroke:#000000; stroke-width:0; stroke-opacity:1; 
stroke-linecap:round; stroke-linejoin:round;fill-rule:evenodd;"
d="M 40556.5,24387.4
40615.3,24399.1
40679.8,24425.8
40737.9,24464.6
40787.3,24514
40826.2,24572.1
40852.9,24636.7
40862.5,24684.8
40866.5,24705.2
40866.5,24775.1
40864.6,24784.8
40852.9,24843.6
40826.2,24908.2
40787.3,24966.3
40737.9,25015.7
40679.8,25054.5
40615.3,25081.3
40556.5,25092.9
40546.7,25094.9
40476.9,25094.9
40467.1,25092.9
40408.3,25081.3
40343.8,25054.5
40285.7,25015.7
40236.3,24966.3
40197.5,24908.2
40170.7,24843.6
40159,24784.8
40157.1,24775.1
40157.1,24705.2
40161.1,24684.8
40170.7,24636.7
40197.5,24572.1
40236.3,24514
40285.7,24464.6
40343.8,24425.8
40408.3,24399.1
40467.1,24387.4
40476.9,24385.4
40546.7,24385.4
Z" /> 
<path style="fill:#000000; fill-opacity:1.0; 
stroke:#000000; stroke-width:0; stroke-opacity:1; 
stroke-linecap:round; stroke-linejoin:round;fill-rule:evenodd;"
d="M 50709.1,24488.6
49999.6,24488.6
49999.6,23779.1
50709.1,23779.1
Z" /> 
<path style="fill:#000000; fill-opacity:1.0; 
stroke:#000000; stroke-width:0; stroke-opacity:1; 
stroke-linecap:round; stroke-linejoin:round;fill-rule:evenodd;"
d="M 40866.5,24094.9
40157.1,24094.9
40157.1,23385.4
40866.5,23385.4
Z" /> 
<path style="fill:#000000; fill-opacity:1.0; 
stroke:#000000; stroke-width:0; stroke-opacity:1; 
stroke-linecap:round; stroke-linejoin:round;fill-rule:evenodd;"
d="M 42196.4,23427.6
42221.3,23435.2
42244.3,23447.4
42264.4,23463.9
42280.9,23484.1
42293.2,23507
42300.8,23532
42303.5,23560.3
42303.5,23920
42300.8,23948.4
42293.2,23973.3
42280.9,23996.2
42264.4,24016.4
42244.3,24032.9
42221.3,24045.2
42196.4,24052.7
42168.1,24055.5
41611.5,24055.5
41583.1,24052.7
41558.2,24045.2
41535.3,24032.9
41515.1,24016.4
41498.6,23996.2
41486.3,23973.3
41478.8,23948.4
41476,23920
41476,23560.3
41478.8,23532
41486.3,23507
41498.6,23484.1
41515.1,23463.9
41535.3,23447.4
41558.2,23435.2
41583.1,23427.6
41611.5,23424.8
42168.1,23424.8
Z" /> 
<path style="fill:#000000; fill-opacity:1.0; 
stroke:#000000; stroke-width:0; stroke-opacity:1; 
stroke-linecap:round; stroke-linejoin:round;fill-rule:evenodd;"
d="M 43622.4,22520.1
42913,22520.1
42913,21810.6
43622.4,21810.6
Z" /> 
<path style="fill:#000000; fill-opacity:1.0; 
stroke:#000000; stroke-width:0; stroke-opacity:1; 
stroke-linecap:round; stroke-linejoin:round;fill-rule:evenodd;"
d="M 44312.4,21812.6
44371.2,21824.3
44435.7,21851
44493.8,21889.8
44543.2,21939.2
44582.1,21997.3
44608.8,22061.9
44622.4,22130.4
44622.4,22200.3
44608.8,22268.8
44582.1,22333.4
44543.2,22391.5
44493.8,22440.9
44435.7,22479.7
44371.2,22506.4
44312.4,22518.1
44302.7,22520.1
44232.8,22520.1
44223,22518.1
44164.2,22506.4
44099.7,22479.7
44041.6,22440.9
43992.2,22391.5
43953.4,22333.4
43926.6,22268.8
43913,22200.3
43913,22130.4
43926.6,22061.9
43953.4,21997.3
43992.2,21939.2
44041.6,21889.8
44099.7,21851
44164.2,21824.3
44223,21812.6
44232.8,21810.6
44302.7,21810.6
Z" /> 
<path style="fill:#000000; fill-opacity:1.0; 
stroke:#000000; stroke-width:0; stroke-opacity:1; 
stroke-linecap:round; stroke-linejoin:round;fill-rule:evenodd;"
d="M 45312.4,21812.6
45371.2,21824.3
45435.7,21851
45493.8,21889.8
45543.2,21939.2
45582.1,21997.3
45608.8,22061.9
45622.4,22130.4
45622.4,22200.3
45608.8,22268.8
45582.1,22333.4
45543.2,22391.5
45493.8,22440.9
45435.7,22479.7
45371.2,22506.4
45312.4,22518.1
45302.7,22520.1
45232.8,22520.1
45223,22518.1
45164.2,22506.4
45099.7,22479.7
45041.6,22440.9
44992.2,22391.5
44953.4,22333.4
44926.6,22268.8
44913,22200.3
44913,22130.4
44926.6,22061.9
44953.4,21997.3
44992.2,21939.2
45041.6,21889.8
45099.7,21851
45164.2,21824.3
45223,21812.6
45232.8,21810.6
45302.7,21810.6
Z" /> 
<path style="fill:#000000; fill-opacity:1.0; 
stroke:#000000; stroke-width:0; stroke-opacity:1; 
stroke-linecap:round; stroke-linejoin:round;fill-rule:evenodd;"
d="M 46312.4,21812.6
46371.2,21824.3
46435.7,21851
46493.8,21889.8
46543.2,21939.2
46582.1,21997.3
46608.8,22061.9
46622.4,22130.4
46622.4,22200.3
46608.8,22268.8
46582.1,22333.4
46543.2,22391.5
46493.8,22440.9
46435.7,22479.7
46371.2,22506.4
46312.4,22518.1
46302.7,22520.1
46232.8,22520.1
46223,22518.1
46164.2,22506.4
46099.7,22479.7
46041.6,22440.9
45992.2,22391.5
45953.4,22333.4
45926.6,22268.8
45913,22200.3
45913,22130.4
45926.6,22061.9
45953.4,21997.3
45992.2,21939.2
46041.6,21889.8
46099.7,21851
46164.2,21824.3
46223,21812.6
46232.8,21810.6
46302.7,21810.6
Z" /> 
<path style="fill:#000000; fill-opacity:1.0; 
stroke:#000000; stroke-width:0; stroke-opacity:1; 
stroke-linecap:round; stroke-linejoin:round;fill-rule:evenodd;"
d="M 47312.4,21812.6
47371.2,21824.3
47435.7,21851
47493.8,21889.8
47543.2,21939.2
47582.1,21997.3
47608.8,22061.9
47622.4,22130.4
47622.4,22200.3
47608.8,22268.8
47582.1,22333.4
47543.2,22391.5
47493.8,22440.9
47435.7,22479.7
47371.2,22506.4
47312.4,22518.1
47302.7,22520.1
47232.8,22520.1
47223,22518.1
47164.2,22506.4
47099.7,22479.7
47041.6,22440.9
46992.2,22391.5
46953.4,22333.4
46926.6,22268.8
46913,22200.3
46913,22130.4
46926.6,22061.9
46953.4,21997.3
46992.2,21939.2
47041.6,21889.8
47099.7,21851
47164.2,21824.3
47223,21812.6
47232.8,21810.6
47302.7,21810.6
Z" /> 
<path style="fill:#000000; fill-opacity:1.0; 
stroke:#000000; stroke-width:0; stroke-opacity:1; 
stroke-linecap:round; stroke-linejoin:round;fill-rule:evenodd;"
d="M 48312.4,21812.6
48371.2,21824.3
48435.7,21851
48493.8,21889.8
48543.2,21939.2
48582.1,21997.3
48608.8,22061.9
48622.4,22130.4
48622.4,22200.3
48608.8,22268.8
48582.1,22333.4
48543.2,22391.5
48493.8,22440.9
48435.7,22479.7
48371.2,22506.4
48312.4,22518.1
48302.7,22520.1
48232.8,22520.1
48223,22518.1
48164.2,22506.4
48099.7,22479.7
48041.6,22440.9
47992.2,22391.5
47953.4,22333.4
47926.6,22268.8
47913,22200.3
47913,22130.4
47926.6,22061.9
47953.4,21997.3
47992.2,21939.2
48041.6,21889.8
48099.7,21851
48164.2,21824.3
48223,21812.6
48232.8,21810.6
48302.7,21810.6
Z" /> 
<path style="fill:#000000; fill-opacity:1.0; 
stroke:#000000; stroke-width:0; stroke-opacity:1; 
stroke-linecap:round; stroke-linejoin:round;fill-rule:evenodd;"
d="M 49312.4,21812.6
49371.2,21824.3
49435.7,21851
49493.8,21889.8
49543.2,21939.2
49582.1,21997.3
49608.8,22061.9
49622.4,22130.4
49622.4,22200.3
49608.8,22268.8
49582.1,22333.4
49543.2,22391.5
49493.8,22440.9
49435.7,22479.7
49371.2,22506.4
49312.4,22518.1
49302.7,22520.1
49232.8,22520.1
49223,22518.1
49164.2,22506.4
49099.7,22479.7
49041.6,22440.9
48992.2,22391.5
48953.4,22333.4
48926.6,22268.8
48913,22200.3
48913,22130.4
48926.6,22061.9
48953.4,21997.3
48992.2,21939.2
49041.6,21889.8
49099.7,21851
49164.2,21824.3
49223,21812.6
49232.8,21810.6
49302.7,21810.6
Z" /> 
<path style="fill:#000000; fill-opacity:1.0; 
stroke:#000000; stroke-width:0; stroke-opacity:1; 
stroke-linecap:round; stroke-linejoin:round;fill-rule:evenodd;"
d="M 50312.4,21812.6
50371.2,21824.3
50435.7,21851
50493.8,21889.8
50543.2,21939.2
50582.1,21997.3
50608.8,22061.9
50622.4,22130.4
50622.4,22200.3
50608.8,22268.8
50582.1,22333.4
50543.2,22391.5
50493.8,22440.9
50435.7,22479.7
50371.2,22506.4
50312.4,22518.1
50302.7,22520.1
50232.8,22520.1
50223,22518.1
50164.2,22506.4
50099.7,22479.7
50041.6,22440.9
49992.2,22391.5
49953.4,22333.4
49926.6,22268.8
49913,22200.3
49913,22130.4
49926.6,22061.9
49953.4,21997.3
49992.2,21939.2
50041.6,21889.8
50099.7,21851
50164.2,21824.3
50223,21812.6
50232.8,21810.6
50302.7,21810.6
Z" /> 
<path style="fill:#000000; fill-opacity:1.0; 
stroke:#000000; stroke-width:0; stroke-opacity:1; 
stroke-linecap:round; stroke-linejoin:round;fill-rule:evenodd;"
d="M 40866.5,22323.2
40157.1,22323.2
40157.1,21613.8
40866.5,21613.8
Z" /> 
<path style="fill:#000000; fill-opacity:1.0; 
stroke:#000000; stroke-width:0; stroke-opacity:1; 
stroke-linecap:round; stroke-linejoin:round;fill-rule:evenodd;"
d="M 40556.5,20615.7
40615.3,20627.4
40679.8,20654.2
40737.9,20693
40787.3,20742.4
40826.2,20800.5
40852.9,20865
40866.5,20933.6
40866.5,21003.4
40852.9,21072
40826.2,21136.5
40787.3,21194.6
40737.9,21244
40679.8,21282.9
40615.3,21309.6
40556.5,21321.3
40546.7,21323.2
40476.9,21323.2
40467.1,21321.3
40408.3,21309.6
40343.8,21282.9
40285.7,21244
40236.3,21194.6
40197.5,21136.5
40170.7,21072
40157.1,21003.4
40157.1,20933.6
40170.7,20865
40197.5,20800.5
40236.3,20742.4
40285.7,20693
40343.8,20654.2
40408.3,20627.4
40467.1,20615.7
40476.9,20613.8
40546.7,20613.8
Z" /> 
<path style="fill:#000000; fill-opacity:1.0; 
stroke:#000000; stroke-width:0; stroke-opacity:1; 
stroke-linecap:round; stroke-linejoin:round;fill-rule:evenodd;"
d="M 45838.1,20455.2
45863,20462.7
45886,20475
45906.1,20491.5
45922.7,20511.6
45934.9,20534.6
45942.5,20559.5
45945.3,20587.8
45945.3,21144.4
45942.5,21172.8
45934.9,21197.7
45922.7,21220.6
45906.1,21240.8
45886,21257.3
45863,21269.6
45838.1,21277.1
45809.8,21279.9
45450.1,21279.9
45421.7,21277.1
45396.8,21269.6
45373.8,21257.3
45353.7,21240.8
45337.2,21220.6
45324.9,21197.7
45317.4,21172.8
45314.6,21144.4
45314.6,20587.8
45317.4,20559.5
45324.9,20534.6
45337.2,20511.6
45353.7,20491.5
45373.8,20475
45396.8,20462.7
45421.7,20455.2
45450.1,20452.4
45809.8,20452.4
Z" /> 
<path style="fill:#000000; fill-opacity:1.0; 
stroke:#000000; stroke-width:0; stroke-opacity:1; 
stroke-linecap:round; stroke-linejoin:round;fill-rule:evenodd;"
d="M 44657,20455.2
44681.9,20462.7
44704.9,20475
44725,20491.5
44741.5,20511.6
44753.8,20534.6
44761.4,20559.5
44764.2,20587.8
44764.2,21144.4
44761.4,21172.8
44753.8,21197.7
44741.5,21220.6
44725,21240.8
44704.9,21257.3
44681.9,21269.6
44657,21277.1
44628.7,21279.9
44269,21279.9
44240.6,21277.1
44215.7,21269.6
44192.7,21257.3
44172.6,21240.8
44156.1,21220.6
44143.8,21197.7
44136.3,21172.8
44133.5,21144.4
44133.5,20587.8
44136.3,20559.5
44143.8,20534.6
44156.1,20511.6
44172.6,20491.5
44192.7,20475
44215.7,20462.7
44240.6,20455.2
44269,20452.4
44628.7,20452.4
Z" /> 
<path style="fill:#000000; fill-opacity:1.0; 
stroke:#000000; stroke-width:0; stroke-opacity:1; 
stroke-linecap:round; stroke-linejoin:round;fill-rule:evenodd;"
d="M 43475.9,20455.2
43500.8,20462.7
43523.8,20475
43543.9,20491.5
43560.4,20511.6
43572.7,20534.6
43580.3,20559.5
43583.1,20587.8
43583.1,21144.4
43580.3,21172.8
43572.7,21197.7
43560.4,21220.6
43543.9,21240.8
43523.8,21257.3
43500.8,21269.6
43475.9,21277.1
43447.6,21279.9
43087.8,21279.9
43059.5,21277.1
43034.6,21269.6
43011.6,21257.3
42991.5,21240.8
42975,21220.6
42962.7,21197.7
42955.2,21172.8
42952.4,21144.4
42952.4,20587.8
42955.2,20559.5
42962.7,20534.6
42975,20511.6
42991.5,20491.5
43011.6,20475
43034.6,20462.7
43059.5,20455.2
43087.8,20452.4
43447.6,20452.4
Z" /> 
<path style="fill:#000000; fill-opacity:1.0; 
stroke:#000000; stroke-width:0; stroke-opacity:1; 
stroke-linecap:round; stroke-linejoin:round;fill-rule:evenodd;"
d="M 42294.8,20455.2
42319.7,20462.7
42342.7,20475
42362.8,20491.5
42379.3,20511.6
42391.6,20534.6
42399.2,20559.5
42402,20587.8
42402,21144.4
42399.2,21172.8
42391.6,21197.7
42379.3,21220.6
42362.8,21240.8
42342.7,21257.3
42319.7,21269.6
42294.8,21277.1
42266.5,21279.9
41906.7,21279.9
41878.4,21277.1
41853.5,21269.6
41830.5,21257.3
41810.4,21240.8
41793.9,21220.6
41781.6,21197.7
41774.1,21172.8
41771.3,21144.4
41771.3,20587.8
41774.1,20559.5
41781.6,20534.6
41793.9,20511.6
41810.4,20491.5
41830.5,20475
41853.5,20462.7
41878.4,20455.2
41906.7,20452.4
42266.5,20452.4
Z" /> 
<path style="fill:#000000; fill-opacity:1.0; 
stroke:#000000; stroke-width:0; stroke-opacity:1; 
stroke-linecap:round; stroke-linejoin:round;fill-rule:evenodd;"
d="M 48200.3,20455.2
48225.2,20462.7
48248.2,20475
48268.3,20491.5
48284.9,20511.6
48297.1,20534.6
48304.7,20559.5
48307.5,20587.8
48307.5,21144.4
48304.7,21172.8
48297.1,21197.7
48284.9,21220.6
48268.3,21240.8
48248.2,21257.3
48225.2,21269.6
48200.3,21277.1
48172,21279.9
47812.3,21279.9
47783.9,21277.1
47759,21269.6
47736,21257.3
47715.9,21240.8
47699.4,21220.6
47687.1,21197.7
47679.6,21172.8
47676.8,21144.4
47676.8,20587.8
47679.6,20559.5
47687.1,20534.6
47699.4,20511.6
47715.9,20491.5
47736,20475
47759,20462.7
47783.9,20455.2
47812.3,20452.4
48172,20452.4
Z" /> 
<path style="fill:#000000; fill-opacity:1.0; 
stroke:#000000; stroke-width:0; stroke-opacity:1; 
stroke-linecap:round; stroke-linejoin:round;fill-rule:evenodd;"
d="M 49381.4,20455.2
49406.3,20462.7
49429.3,20475
49449.4,20491.5
49466,20511.6
49478.2,20534.6
49485.8,20559.5
49488.6,20587.8
49488.6,21144.4
49485.8,21172.8
49478.2,21197.7
49466,21220.6
49449.4,21240.8
49429.3,21257.3
49406.3,21269.6
49381.4,21277.1
49353.1,21279.9
48993.4,21279.9
48965,21277.1
48940.1,21269.6
48917.1,21257.3
48897,21240.8
48880.5,21220.6
48868.2,21197.7
48860.7,21172.8
48857.9,21144.4
48857.9,20587.8
48860.7,20559.5
48868.2,20534.6
48880.5,20511.6
48897,20491.5
48917.1,20475
48940.1,20462.7
48965,20455.2
48993.4,20452.4
49353.1,20452.4
Z" /> 
<path style="fill:#000000; fill-opacity:1.0; 
stroke:#000000; stroke-width:0; stroke-opacity:1; 
stroke-linecap:round; stroke-linejoin:round;fill-rule:evenodd;"
d="M 50562.5,20455.2
50587.4,20462.7
50610.4,20475
50630.5,20491.5
50647.1,20511.6
50659.3,20534.6
50666.9,20559.5
50669.7,20587.8
50669.7,21144.4
50666.9,21172.8
50659.3,21197.7
50647.1,21220.6
50630.5,21240.8
50610.4,21257.3
50587.4,21269.6
50562.5,21277.1
50534.2,21279.9
50174.5,21279.9
50146.1,21277.1
50121.2,21269.6
50098.2,21257.3
50078.1,21240.8
50061.6,21220.6
50049.3,21197.7
50041.8,21172.8
50039,21144.4
50039,20587.8
50041.8,20559.5
50049.3,20534.6
50061.6,20511.6
50078.1,20491.5
50098.2,20475
50121.2,20462.7
50146.1,20455.2
50174.5,20452.4
50534.2,20452.4
Z" /> 
<path style="fill:#000000; fill-opacity:1.0; 
stroke:#000000; stroke-width:0; stroke-opacity:1; 
stroke-linecap:round; stroke-linejoin:round;fill-rule:evenodd;"
d="M 47019.2,20455.2
47044.1,20462.7
47067.1,20475
47087.2,20491.5
47103.8,20511.6
47116,20534.6
47123.6,20559.5
47126.4,20587.8
47126.4,21144.4
47123.6,21172.8
47116,21197.7
47103.8,21220.6
47087.2,21240.8
47067.1,21257.3
47044.1,21269.6
47019.2,21277.1
46990.9,21279.9
46631.2,21279.9
46602.8,21277.1
46577.9,21269.6
46554.9,21257.3
46534.8,21240.8
46518.3,21220.6
46506,21197.7
46498.5,21172.8
46495.7,21144.4
46495.7,20587.8
46498.5,20559.5
46506,20534.6
46518.3,20511.6
46534.8,20491.5
46554.9,20475
46577.9,20462.7
46602.8,20455.2
46631.2,20452.4
46990.9,20452.4
Z" /> 
<path style="fill:#000000; fill-opacity:1.0; 
stroke:#000000; stroke-width:0; stroke-opacity:1; 
stroke-linecap:round; stroke-linejoin:round;fill-rule:evenodd;"
d="M 40556.5,19615.7
40615.3,19627.4
40679.8,19654.2
40737.9,19693
40787.3,19742.4
40826.2,19800.5
40852.9,19865
40866.5,19933.6
40866.5,20003.4
40852.9,20072
40826.2,20136.5
40787.3,20194.6
40737.9,20244
40679.8,20282.9
40615.3,20309.6
40556.5,20321.3
40546.7,20323.2
40476.9,20323.2
40467.1,20321.3
40408.3,20309.6
40343.8,20282.9
40285.7,20244
40236.3,20194.6
40197.5,20136.5
40170.7,20072
40157.1,20003.4
40157.1,19933.6
40170.7,19865
40197.5,19800.5
40236.3,19742.4
40285.7,19693
40343.8,19654.2
40408.3,19627.4
40467.1,19615.7
40476.9,19613.8
40546.7,19613.8
Z" /> 
<path style="fill:#000000; fill-opacity:1.0; 
stroke:#000000; stroke-width:0; stroke-opacity:1; 
stroke-linecap:round; stroke-linejoin:round;fill-rule:evenodd;"
d="M 44680.6,19184.4
44695.4,19188.9
44709.1,19196.2
44721.1,19206.1
44730.9,19218.1
44738.2,19231.7
44742.7,19246.6
44744.5,19264.4
44744.5,19593.8
44742.7,19611.7
44738.2,19626.5
44730.9,19640.2
44721.1,19652.2
44709.1,19662
44695.4,19669.3
44680.6,19673.8
44662.7,19675.6
44234.9,19675.6
44217.1,19673.8
44202.2,19669.3
44188.5,19662
44176.6,19652.2
44166.7,19640.2
44159.4,19626.5
44154.9,19611.7
44153.1,19593.8
44153.1,19264.4
44154.9,19246.6
44159.4,19231.7
44166.7,19218.1
44176.6,19206.1
44188.5,19196.2
44202.2,19188.9
44217.1,19184.4
44234.9,19182.7
44662.7,19182.7
Z" /> 
<path style="fill:#000000; fill-opacity:1.0; 
stroke:#000000; stroke-width:0; stroke-opacity:1; 
stroke-linecap:round; stroke-linejoin:round;fill-rule:evenodd;"
d="M 45861.7,19174.6
45876.5,19179.1
45890.2,19186.4
45902.2,19196.2
45912,19208.2
45919.3,19221.9
45923.8,19236.7
45925.6,19254.6
45925.6,19584
45923.8,19601.8
45919.3,19616.7
45912,19630.4
45902.2,19642.3
45890.2,19652.2
45876.5,19659.5
45861.7,19664
45843.8,19665.7
45416,19665.7
45398.2,19664
45383.3,19659.5
45369.6,19652.2
45357.7,19642.3
45347.8,19630.4
45340.5,19616.7
45336,19601.8
45334.3,19584
45334.3,19254.6
45336,19236.7
45340.5,19221.9
45347.8,19208.2
45357.7,19196.2
45369.6,19186.4
45383.3,19179.1
45398.2,19174.6
45416,19172.8
45843.8,19172.8
Z" /> 
<path style="fill:#000000; fill-opacity:1.0; 
stroke:#000000; stroke-width:0; stroke-opacity:1; 
stroke-linecap:round; stroke-linejoin:round;fill-rule:evenodd;"
d="M 49405,19174.6
49419.8,19179.1
49433.5,19186.4
49445.5,19196.2
49455.3,19208.2
49462.6,19221.9
49467.1,19236.7
49468.9,19254.6
49468.9,19584
49467.1,19601.8
49462.6,19616.7
49455.3,19630.4
49445.5,19642.3
49433.5,19652.2
49419.8,19659.5
49405,19664
49387.1,19665.7
48959.3,19665.7
48941.5,19664
48926.6,19659.5
48913,19652.2
48901,19642.3
48891.1,19630.4
48883.8,19616.7
48879.3,19601.8
48877.6,19584
48877.6,19254.6
48879.3,19236.7
48883.8,19221.9
48891.1,19208.2
48901,19196.2
48913,19186.4
48926.6,19179.1
48941.5,19174.6
48959.3,19172.8
49387.1,19172.8
Z" /> 
<path style="fill:#000000; fill-opacity:1.0; 
stroke:#000000; stroke-width:0; stroke-opacity:1; 
stroke-linecap:round; stroke-linejoin:round;fill-rule:evenodd;"
d="M 50586.1,19174.6
50600.9,19179.1
50614.6,19186.4
50626.6,19196.2
50636.4,19208.2
50643.7,19221.9
50648.2,19236.7
50650,19254.6
50650,19584
50648.2,19601.8
50643.7,19616.7
50636.4,19630.4
50626.6,19642.3
50614.6,19652.2
50600.9,19659.5
50586.1,19664
50568.2,19665.7
50140.4,19665.7
50122.6,19664
50107.7,19659.5
50094.1,19652.2
50082.1,19642.3
50072.2,19630.4
50064.9,19616.7
50060.4,19601.8
50058.7,19584
50058.7,19254.6
50060.4,19236.7
50064.9,19221.9
50072.2,19208.2
50082.1,19196.2
50094.1,19186.4
50107.7,19179.1
50122.6,19174.6
50140.4,19172.8
50568.2,19172.8
Z" /> 
<path style="fill:#000000; fill-opacity:1.0; 
stroke:#000000; stroke-width:0; stroke-opacity:1; 
stroke-linecap:round; stroke-linejoin:round;fill-rule:evenodd;"
d="M 48223.9,19174.6
48238.7,19179.1
48252.4,19186.4
48264.4,19196.2
48274.2,19208.2
48281.5,19221.9
48286,19236.7
48287.8,19254.6
48287.8,19584
48286,19601.8
48281.5,19616.7
48274.2,19630.4
48264.4,19642.3
48252.4,19652.2
48238.7,19659.5
48223.9,19664
48206,19665.7
47778.2,19665.7
47760.4,19664
47745.5,19659.5
47731.8,19652.2
47719.9,19642.3
47710,19630.4
47702.7,19616.7
47698.2,19601.8
47696.5,19584
47696.5,19254.6
47698.2,19236.7
47702.7,19221.9
47710,19208.2
47719.9,19196.2
47731.8,19186.4
47745.5,19179.1
47760.4,19174.6
47778.2,19172.8
48206,19172.8
Z" /> 
<path style="fill:#000000; fill-opacity:1.0; 
stroke:#000000; stroke-width:0; stroke-opacity:1; 
stroke-linecap:round; stroke-linejoin:round;fill-rule:evenodd;"
d="M 43499.5,19174.6
43514.3,19179.1
43528,19186.4
43540,19196.2
43549.8,19208.2
43557.1,19221.9
43561.6,19236.7
43563.4,19254.6
43563.4,19584
43561.6,19601.8
43557.1,19616.7
43549.8,19630.4
43540,19642.3
43528,19652.2
43514.3,19659.5
43499.5,19664
43481.6,19665.7
43053.8,19665.7
43036,19664
43021.1,19659.5
43007.4,19652.2
42995.5,19642.3
42985.6,19630.4
42978.3,19616.7
42973.8,19601.8
42972,19584
42972,19254.6
42973.8,19236.7
42978.3,19221.9
42985.6,19208.2
42995.5,19196.2
43007.4,19186.4
43021.1,19179.1
43036,19174.6
43053.8,19172.8
43481.6,19172.8
Z" /> 
<path style="fill:#000000; fill-opacity:1.0; 
stroke:#000000; stroke-width:0; stroke-opacity:1; 
stroke-linecap:round; stroke-linejoin:round;fill-rule:evenodd;"
d="M 47042.8,19174.6
47057.6,19179.1
47071.3,19186.4
47083.3,19196.2
47093.1,19208.2
47100.4,19221.9
47104.9,19236.7
47106.7,19254.6
47106.7,19584
47104.9,19601.8
47100.4,19616.7
47093.1,19630.4
47083.3,19642.3
47071.3,19652.2
47057.6,19659.5
47042.8,19664
47024.9,19665.7
46597.1,19665.7
46579.3,19664
46564.4,19659.5
46550.7,19652.2
46538.8,19642.3
46528.9,19630.4
46521.6,19616.7
46517.1,19601.8
46515.4,19584
46515.4,19254.6
46517.1,19236.7
46521.6,19221.9
46528.9,19208.2
46538.8,19196.2
46550.7,19186.4
46564.4,19179.1
46579.3,19174.6
46597.1,19172.8
47024.9,19172.8
Z" /> 
<path style="fill:#000000; fill-opacity:1.0; 
stroke:#000000; stroke-width:0; stroke-opacity:1; 
stroke-linecap:round; stroke-linejoin:round;fill-rule:evenodd;"
d="M 42318.4,19174.6
42333.2,19179.1
42346.9,19186.4
42358.9,19196.2
42368.7,19208.2
42376,19221.9
42380.5,19236.7
42382.3,19254.6
42382.3,19584
42380.5,19601.8
42376,19616.7
42368.7,19630.4
42358.9,19642.3
42346.9,19652.2
42333.2,19659.5
42318.4,19664
42300.5,19665.7
41872.7,19665.7
41854.9,19664
41840,19659.5
41826.3,19652.2
41814.4,19642.3
41804.5,19630.4
41797.2,19616.7
41792.7,19601.8
41790.9,19584
41790.9,19254.6
41792.7,19236.7
41797.2,19221.9
41804.5,19208.2
41814.4,19196.2
41826.3,19186.4
41840,19179.1
41854.9,19174.6
41872.7,19172.8
42300.5,19172.8
Z" /> 
<path style="fill:#000000; fill-opacity:1.0; 
stroke:#000000; stroke-width:0; stroke-opacity:1; 
stroke-linecap:round; stroke-linejoin:round;fill-rule:evenodd;"
d="M 40556.5,18615.7
40615.3,18627.4
40679.8,18654.2
40737.9,18693
40787.3,18742.4
40826.2,18800.5
40852.9,18865
40866.5,18933.6
40866.5,19003.4
40852.9,19072
40826.2,19136.5
40787.3,19194.6
40737.9,19244
40679.8,19282.9
40615.3,19309.6
40556.5,19321.3
40546.7,19323.2
40476.9,19323.2
40467.1,19321.3
40408.3,19309.6
40343.8,19282.9
40285.7,19244
40236.3,19194.6
40197.5,19136.5
40170.7,19072
40157.1,19003.4
40157.1,18933.6
40170.7,18865
40197.5,18800.5
40236.3,18742.4
40285.7,18693
40343.8,18654.2
40408.3,18627.4
40467.1,18615.7
40476.9,18613.8
40546.7,18613.8
Z" /> 
<path style="fill:#000000; fill-opacity:1.0; 
stroke:#000000; stroke-width:0; stroke-opacity:1; 
stroke-linecap:round; stroke-linejoin:round;fill-rule:evenodd;"
d="M 44680.6,18377.3
44695.4,18381.8
44709.1,18389.2
44721.1,18399
44730.9,18411
44738.2,18424.7
44742.7,18439.5
44744.5,18457.3
44744.5,18786.7
44742.7,18804.6
44738.2,18819.4
44730.9,18833.1
44721.1,18845.1
44709.1,18854.9
44695.4,18862.2
44680.6,18866.7
44662.7,18868.5
44234.9,18868.5
44217.1,18866.7
44202.2,18862.2
44188.5,18854.9
44176.6,18845.1
44166.7,18833.1
44159.4,18819.4
44154.9,18804.6
44153.1,18786.7
44153.1,18457.3
44154.9,18439.5
44159.4,18424.7
44166.7,18411
44176.6,18399
44188.5,18389.2
44202.2,18381.8
44217.1,18377.3
44234.9,18375.6
44662.7,18375.6
Z" /> 
<path style="fill:#000000; fill-opacity:1.0; 
stroke:#000000; stroke-width:0; stroke-opacity:1; 
stroke-linecap:round; stroke-linejoin:round;fill-rule:evenodd;"
d="M 42318.4,18367.5
42333.2,18372
42346.9,18379.3
42358.9,18389.2
42368.7,18401.1
42376,18414.8
42380.5,18429.7
42382.3,18447.5
42382.3,18776.9
42380.5,18794.8
42376,18809.6
42368.7,18823.3
42358.9,18835.3
42346.9,18845.1
42333.2,18852.4
42318.4,18856.9
42300.5,18858.7
41872.7,18858.7
41854.9,18856.9
41840,18852.4
41826.3,18845.1
41814.4,18835.3
41804.5,18823.3
41797.2,18809.6
41792.7,18794.8
41790.9,18776.9
41790.9,18447.5
41792.7,18429.7
41797.2,18414.8
41804.5,18401.1
41814.4,18389.2
41826.3,18379.3
41840,18372
41854.9,18367.5
41872.7,18365.7
42300.5,18365.7
Z" /> 
<path style="fill:#000000; fill-opacity:1.0; 
stroke:#000000; stroke-width:0; stroke-opacity:1; 
stroke-linecap:round; stroke-linejoin:round;fill-rule:evenodd;"
d="M 50586.1,18367.5
50600.9,18372
50614.6,18379.3
50626.6,18389.2
50636.4,18401.1
50643.7,18414.8
50648.2,18429.7
50650,18447.5
50650,18776.9
50648.2,18794.8
50643.7,18809.6
50636.4,18823.3
50626.6,18835.3
50614.6,18845.1
50600.9,18852.4
50586.1,18856.9
50568.2,18858.7
50140.4,18858.7
50122.6,18856.9
50107.7,18852.4
50094.1,18845.1
50082.1,18835.3
50072.2,18823.3
50064.9,18809.6
50060.4,18794.8
50058.7,18776.9
50058.7,18447.5
50060.4,18429.7
50064.9,18414.8
50072.2,18401.1
50082.1,18389.2
50094.1,18379.3
50107.7,18372
50122.6,18367.5
50140.4,18365.7
50568.2,18365.7
Z" /> 
<path style="fill:#000000; fill-opacity:1.0; 
stroke:#000000; stroke-width:0; stroke-opacity:1; 
stroke-linecap:round; stroke-linejoin:round;fill-rule:evenodd;"
d="M 49405,18367.5
49419.8,18372
49433.5,18379.3
49445.5,18389.2
49455.3,18401.1
49462.6,18414.8
49467.1,18429.7
49468.9,18447.5
49468.9,18776.9
49467.1,18794.8
49462.6,18809.6
49455.3,18823.3
49445.5,18835.3
49433.5,18845.1
49419.8,18852.4
49405,18856.9
49387.1,18858.7
48959.3,18858.7
48941.5,18856.9
48926.6,18852.4
48913,18845.1
48901,18835.3
48891.1,18823.3
48883.8,18809.6
48879.3,18794.8
48877.6,18776.9
48877.6,18447.5
48879.3,18429.7
48883.8,18414.8
48891.1,18401.1
48901,18389.2
48913,18379.3
48926.6,18372
48941.5,18367.5
48959.3,18365.7
49387.1,18365.7
Z" /> 
<path style="fill:#000000; fill-opacity:1.0; 
stroke:#000000; stroke-width:0; stroke-opacity:1; 
stroke-linecap:round; stroke-linejoin:round;fill-rule:evenodd;"
d="M 48223.9,18367.5
48238.7,18372
48252.4,18379.3
48264.4,18389.2
48274.2,18401.1
48281.5,18414.8
48286,18429.7
48287.8,18447.5
48287.8,18776.9
48286,18794.8
48281.5,18809.6
48274.2,18823.3
48264.4,18835.3
48252.4,18845.1
48238.7,18852.4
48223.9,18856.9
48206,18858.7
47778.2,18858.7
47760.4,18856.9
47745.5,18852.4
47731.8,18845.1
47719.9,18835.3
47710,18823.3
47702.7,18809.6
47698.2,18794.8
47696.5,18776.9
47696.5,18447.5
47698.2,18429.7
47702.7,18414.8
47710,18401.1
47719.9,18389.2
47731.8,18379.3
47745.5,18372
47760.4,18367.5
47778.2,18365.7
48206,18365.7
Z" /> 
<path style="fill:#000000; fill-opacity:1.0; 
stroke:#000000; stroke-width:0; stroke-opacity:1; 
stroke-linecap:round; stroke-linejoin:round;fill-rule:evenodd;"
d="M 47042.8,18367.5
47057.6,18372
47071.3,18379.3
47083.3,18389.2
47093.1,18401.1
47100.4,18414.8
47104.9,18429.7
47106.7,18447.5
47106.7,18776.9
47104.9,18794.8
47100.4,18809.6
47093.1,18823.3
47083.3,18835.3
47071.3,18845.1
47057.6,18852.4
47042.8,18856.9
47024.9,18858.7
46597.1,18858.7
46579.3,18856.9
46564.4,18852.4
46550.7,18845.1
46538.8,18835.3
46528.9,18823.3
46521.6,18809.6
46517.1,18794.8
46515.4,18776.9
46515.4,18447.5
46517.1,18429.7
46521.6,18414.8
46528.9,18401.1
46538.8,18389.2
46550.7,18379.3
46564.4,18372
46579.3,18367.5
46597.1,18365.7
47024.9,18365.7
Z" /> 
<path style="fill:#000000; fill-opacity:1.0; 
stroke:#000000; stroke-width:0; stroke-opacity:1; 
stroke-linecap:round; stroke-linejoin:round;fill-rule:evenodd;"
d="M 45861.7,18367.5
45876.5,18372
45890.2,18379.3
45902.2,18389.2
45912,18401.1
45919.3,18414.8
45923.8,18429.7
45925.6,18447.5
45925.6,18776.9
45923.8,18794.8
45919.3,18809.6
45912,18823.3
45902.2,18835.3
45890.2,18845.1
45876.5,18852.4
45861.7,18856.9
45843.8,18858.7
45416,18858.7
45398.2,18856.9
45383.3,18852.4
45369.6,18845.1
45357.7,18835.3
45347.8,18823.3
45340.5,18809.6
45336,18794.8
45334.3,18776.9
45334.3,18447.5
45336,18429.7
45340.5,18414.8
45347.8,18401.1
45357.7,18389.2
45369.6,18379.3
45383.3,18372
45398.2,18367.5
45416,18365.7
45843.8,18365.7
Z" /> 
<path style="fill:#000000; fill-opacity:1.0; 
stroke:#000000; stroke-width:0; stroke-opacity:1; 
stroke-linecap:round; stroke-linejoin:round;fill-rule:evenodd;"
d="M 43499.5,18367.5
43514.3,18372
43528,18379.3
43540,18389.2
43549.8,18401.1
43557.1,18414.8
43561.6,18429.7
43563.4,18447.5
43563.4,18776.9
43561.6,18794.8
43557.1,18809.6
43549.8,18823.3
43540,18835.3
43528,18845.1
43514.3,18852.4
43499.5,18856.9
43481.6,18858.7
43053.8,18858.7
43036,18856.9
43021.1,18852.4
43007.4,18845.1
42995.5,18835.3
42985.6,18823.3
42978.3,18809.6
42973.8,18794.8
42972,18776.9
42972,18447.5
42973.8,18429.7
42978.3,18414.8
42985.6,18401.1
42995.5,18389.2
43007.4,18379.3
43021.1,18372
43036,18367.5
43053.8,18365.7
43481.6,18365.7
Z" /> 
</g> 
</svg>
