M48
; DRILL file {KiCad (5.1.5)-3} date 2020-05-29 3:36:58 PM
; FORMAT={-:-/ absolute / metric / decimal}
; #@! TF.CreationDate,2020-05-29T15:36:58-05:00
; #@! TF.GenerationSoftware,Kicad,Pcbnew,(5.1.5)-3
FMAT,2
METRIC
T1C0.700
T2C1.000
T3C0.700
T4C0.900
%
G90
G05
T1
X6.9Y47.2
X7.3Y19.75
X9.745Y30.525
X9.8Y13.5
X11.4Y58.7
X11.4Y57.2
X11.4Y54.7
X11.9Y49.7
X11.9Y46.7
X11.9Y48.2
X12.4Y63.2
X14.3Y5.0
X19.9Y58.2
X20.3Y17.0
X20.4Y49.2
X20.8Y8.0
X26.4Y61.2
X28.3Y3.0
X28.8Y18.0
X28.8Y19.5
X28.8Y16.5
X29.3Y11.5
X29.3Y9.0
X29.3Y7.5
X30.9Y52.7
X30.955Y35.675
X33.4Y46.45
X33.8Y19.0
T2
X32.9Y44.2
X32.9Y41.66
X32.9Y39.12
X32.9Y36.58
X7.9Y62.4
X7.9Y59.86
X7.9Y57.32
X7.9Y54.78
X7.9Y52.24
X7.9Y49.7
X7.8Y29.62
X7.8Y27.08
X7.8Y24.54
X7.8Y22.0
X14.8Y21.5
X17.34Y21.5
X19.88Y21.5
X22.42Y21.5
X24.96Y21.5
X27.5Y21.5
X30.04Y21.5
X32.58Y21.5
X8.12Y44.7
X10.66Y44.7
X13.2Y44.7
X15.74Y44.7
X18.28Y44.7
X20.82Y44.7
X23.36Y44.7
X25.9Y44.7
X32.8Y16.5
X32.8Y13.96
X32.8Y11.42
X32.8Y8.88
X32.8Y6.34
X32.8Y3.8
X32.9Y51.24
X32.9Y48.7
X7.8Y17.5
X7.8Y14.96
T3
X25.9Y41.575
X25.9Y41.225
X17.8Y24.975
X17.8Y24.625
X20.8Y24.975
X20.8Y24.625
X10.9Y41.575
X10.9Y41.225
X11.8Y24.975
X11.8Y24.625
X15.9Y62.675
X15.9Y62.325
X19.9Y41.575
X19.9Y41.225
X14.8Y24.975
X14.8Y24.625
X16.9Y41.575
X16.9Y41.225
X23.8Y24.975
X23.8Y24.625
X28.9Y41.575
X28.9Y41.225
X13.9Y41.575
X13.9Y41.225
X32.8Y24.975
X32.8Y24.625
X22.9Y41.575
X22.9Y41.225
X29.8Y24.975
X29.8Y24.625
X7.9Y41.575
X7.9Y41.225
X24.8Y3.875
X24.8Y3.525
X26.8Y24.975
X26.8Y24.625
T4
X16.6Y13.5
X17.0Y13.5
X12.1Y17.5
X12.5Y17.5
X23.7Y60.7
X24.1Y60.7
X19.5Y61.2
X19.9Y61.2
X28.4Y52.4
X28.4Y52.0
X23.7Y52.7
X24.1Y52.7
X12.3Y14.2
X12.3Y13.8
X20.8Y5.0
X21.2Y5.0
X28.2Y48.7
X28.6Y48.7
X16.6Y5.5
X17.0Y5.5
T0
M30
