G04 #@! TF.GenerationSoftware,KiCad,Pcbnew,(5.1.5)-3*
G04 #@! TF.CreationDate,2020-05-31T12:50:42-05:00*
G04 #@! TF.ProjectId,MSP430G2553_array,4d535034-3330-4473-9235-35335f617272,rev?*
G04 #@! TF.SameCoordinates,PX4db9760PY5fa74e0*
G04 #@! TF.FileFunction,Profile,NP*
%FSLAX46Y46*%
G04 Gerber Fmt 4.6, Leading zero omitted, Abs format (unit mm)*
G04 Created by KiCad (PCBNEW (5.1.5)-3) date 2020-05-31 12:50:42*
%MOMM*%
%LPD*%
G04 APERTURE LIST*
%ADD10C,0.050000*%
G04 APERTURE END LIST*
D10*
X18900000Y22400000D02*
X48900000Y22400000D01*
X48900000Y22400000D02*
X48900000Y-7600000D01*
X18900000Y-7600000D02*
X18900000Y22400000D01*
X48900000Y-7600000D02*
X18900000Y-7600000D01*
X15166666Y-9700000D02*
G75*
G03X15166666Y-9700000I-1666666J0D01*
G01*
X11000000Y-9700000D02*
X16000000Y-9700000D01*
X13500000Y-7200000D02*
X13500000Y-12200000D01*
X55966666Y-9700000D02*
G75*
G03X55966666Y-9700000I-1666666J0D01*
G01*
X51800000Y-9700000D02*
X56800000Y-9700000D01*
X54300000Y-7200000D02*
X54300000Y-12200000D01*
X55966666Y56500000D02*
G75*
G03X55966666Y56500000I-1666666J0D01*
G01*
X51800000Y56500000D02*
X56800000Y56500000D01*
X54300000Y59000000D02*
X54300000Y54000000D01*
X15166666Y56500000D02*
G75*
G03X15166666Y56500000I-1666666J0D01*
G01*
X11000000Y56500000D02*
X16000000Y56500000D01*
X13500000Y59000000D02*
X13500000Y54000000D01*
X59500000Y-14700000D02*
X8500000Y-14700000D01*
X59500000Y61300000D02*
X59500000Y-14700000D01*
X8500000Y61300000D02*
X59500000Y61300000D01*
X8500000Y-14700000D02*
X8500000Y61300000D01*
X18900000Y24400000D02*
X18900000Y54400000D01*
X48900000Y24400000D02*
X18900000Y24400000D01*
X48900000Y54400000D02*
X48900000Y24400000D01*
X18900000Y54400000D02*
X48900000Y54400000D01*
M02*
