M48
; DRILL file {KiCad (5.1.5)-3} date 2020-05-31 1:18:56 PM
; FORMAT={-:-/ absolute / metric / decimal}
; #@! TF.CreationDate,2020-05-31T13:18:56-05:00
; #@! TF.GenerationSoftware,Kicad,Pcbnew,(5.1.5)-3
FMAT,2
METRIC
T1C0.700
T2C1.000
T3C1.100
T4C0.700
T5C0.900
%
G90
G05
T1
X10.4Y59.1
X10.4Y27.1
X10.7Y46.7
X10.7Y14.7
X14.6Y36.9
X14.6Y4.9
X16.1Y48.1
X16.1Y16.1
X20.2Y49.2
X20.2Y17.2
X20.3Y41.8
X20.3Y9.8
X22.4Y58.9
X22.4Y26.9
X28.404Y51.289
X28.404Y19.289
X29.1Y45.1
X29.1Y13.1
X30.3Y43.4
X30.3Y11.4
X30.9Y51.6
X30.9Y19.6
X34.0Y51.3
X34.0Y19.3
X34.2Y59.0
X34.2Y27.0
T2
X14.9Y21.7
X17.44Y21.7
X19.98Y21.7
X22.52Y21.7
X25.06Y21.7
X27.6Y21.7
X30.14Y21.7
X32.68Y21.7
X32.9Y16.7
X32.9Y14.16
X32.9Y11.62
X32.9Y9.08
X32.9Y6.54
X32.9Y4.0
X7.9Y29.82
X7.9Y27.28
X7.9Y24.74
X7.9Y22.2
X32.9Y48.7
X32.9Y46.16
X32.9Y43.62
X32.9Y41.08
X32.9Y38.54
X32.9Y36.0
X7.9Y61.82
X7.9Y59.28
X7.9Y56.74
X7.9Y54.2
X14.9Y53.7
X17.44Y53.7
X19.98Y53.7
X22.52Y53.7
X25.06Y53.7
X27.6Y53.7
X30.14Y53.7
X32.68Y53.7
X7.9Y17.7
X7.9Y15.16
X7.9Y49.7
X7.9Y47.16
T3
X7.7Y43.4
X7.7Y36.9
X12.2Y43.4
X12.2Y36.9
X7.7Y11.4
X7.7Y4.9
X12.2Y11.4
X12.2Y4.9
T4
X17.9Y57.175
X17.9Y56.825
X23.9Y57.175
X23.9Y56.825
X23.9Y25.175
X23.9Y24.825
X14.9Y25.175
X14.9Y24.825
X29.9Y25.175
X29.9Y24.825
X26.9Y57.175
X26.9Y56.825
X26.9Y25.175
X26.9Y24.825
X32.9Y25.175
X32.9Y24.825
X20.9Y25.175
X20.9Y24.825
X11.9Y25.175
X11.9Y24.825
X32.9Y57.175
X32.9Y56.825
X25.825Y36.9
X26.175Y36.9
X17.9Y25.175
X17.9Y24.825
X29.9Y57.175
X29.9Y56.825
X14.9Y57.175
X14.9Y56.825
X25.825Y4.9
X26.175Y4.9
X20.9Y57.175
X20.9Y56.825
X11.9Y57.175
X11.9Y56.825
T5
X16.7Y5.7
X17.1Y5.7
X16.7Y45.7
X17.1Y45.7
X22.8Y36.9
X23.2Y36.9
X12.9Y14.8
X13.3Y14.8
X16.7Y13.7
X17.1Y13.7
X16.7Y37.7
X17.1Y37.7
X11.2Y17.7
X11.6Y17.7
X12.9Y46.8
X13.3Y46.8
X11.2Y49.7
X11.6Y49.7
X22.8Y4.9
X23.2Y4.9
T0
M30
