M48
; DRILL file {KiCad (5.1.5)-3} date 2020-06-03 5:45:21 PM
; FORMAT={-:-/ absolute / metric / decimal}
; #@! TF.CreationDate,2020-06-03T17:45:21-05:00
; #@! TF.GenerationSoftware,Kicad,Pcbnew,(5.1.5)-3
FMAT,2
METRIC
T1C0.400
T2C1.000
%
G90
G05
T1
X2.5Y25.75
X4.75Y4.75
X5.0Y6.75
X6.994Y24.494
X8.25Y21.75
X8.5Y25.5
X8.5Y17.5
X11.75Y4.75
X12.75Y14.25
X15.0Y25.25
X15.75Y17.5
X17.759Y10.997
X18.75Y10.0
X19.25Y14.5
X20.25Y10.25
T2
X5.5Y1.9
X8.04Y1.9
X10.58Y1.9
X13.12Y1.9
X15.66Y1.9
X18.2Y1.9
X22.25Y4.4
X22.25Y1.86
X22.25Y21.25
X22.25Y18.71
X1.8Y19.6
X1.8Y17.06
X1.8Y14.52
X1.8Y11.98
X1.8Y9.44
X1.8Y6.9
X1.8Y4.36
X1.8Y1.82
T0
M30
