G04 #@! TF.GenerationSoftware,KiCad,Pcbnew,(5.1.5)-3*
G04 #@! TF.CreationDate,2020-06-03T17:45:19-05:00*
G04 #@! TF.ProjectId,MSP430G2553_I2C,4d535034-3330-4473-9235-35335f493243,rev?*
G04 #@! TF.SameCoordinates,PX5f5e100PY5f5e100*
G04 #@! TF.FileFunction,Copper,L2,Bot*
G04 #@! TF.FilePolarity,Positive*
%FSLAX46Y46*%
G04 Gerber Fmt 4.6, Leading zero omitted, Abs format (unit mm)*
G04 Created by KiCad (PCBNEW (5.1.5)-3) date 2020-06-03 17:45:19*
%MOMM*%
%LPD*%
G04 APERTURE LIST*
%ADD10C,0.100000*%
%ADD11R,1.700000X1.700000*%
%ADD12O,1.700000X1.700000*%
%ADD13R,2.100000X1.800000*%
%ADD14C,0.800000*%
%ADD15C,0.400000*%
%ADD16C,0.600000*%
G04 APERTURE END LIST*
G04 #@! TA.AperFunction,SMDPad,CuDef*
D10*
G36*
X17911756Y25748194D02*
G01*
X17948159Y25742794D01*
X17983857Y25733853D01*
X18018506Y25721455D01*
X18051774Y25705720D01*
X18083339Y25686801D01*
X18112897Y25664879D01*
X18140165Y25640165D01*
X18164879Y25612897D01*
X18186801Y25583339D01*
X18205720Y25551774D01*
X18221455Y25518506D01*
X18233853Y25483857D01*
X18242794Y25448159D01*
X18248194Y25411756D01*
X18250000Y25375000D01*
X18250000Y24625000D01*
X18248194Y24588244D01*
X18242794Y24551841D01*
X18233853Y24516143D01*
X18221455Y24481494D01*
X18205720Y24448226D01*
X18186801Y24416661D01*
X18164879Y24387103D01*
X18140165Y24359835D01*
X18112897Y24335121D01*
X18083339Y24313199D01*
X18051774Y24294280D01*
X18018506Y24278545D01*
X17983857Y24266147D01*
X17948159Y24257206D01*
X17911756Y24251806D01*
X17875000Y24250000D01*
X16625000Y24250000D01*
X16588244Y24251806D01*
X16551841Y24257206D01*
X16516143Y24266147D01*
X16481494Y24278545D01*
X16448226Y24294280D01*
X16416661Y24313199D01*
X16387103Y24335121D01*
X16359835Y24359835D01*
X16335121Y24387103D01*
X16313199Y24416661D01*
X16294280Y24448226D01*
X16278545Y24481494D01*
X16266147Y24516143D01*
X16257206Y24551841D01*
X16251806Y24588244D01*
X16250000Y24625000D01*
X16250000Y25375000D01*
X16251806Y25411756D01*
X16257206Y25448159D01*
X16266147Y25483857D01*
X16278545Y25518506D01*
X16294280Y25551774D01*
X16313199Y25583339D01*
X16335121Y25612897D01*
X16359835Y25640165D01*
X16387103Y25664879D01*
X16416661Y25686801D01*
X16448226Y25705720D01*
X16481494Y25721455D01*
X16516143Y25733853D01*
X16551841Y25742794D01*
X16588244Y25748194D01*
X16625000Y25750000D01*
X17875000Y25750000D01*
X17911756Y25748194D01*
G37*
G04 #@! TD.AperFunction*
G04 #@! TA.AperFunction,SMDPad,CuDef*
G36*
X11411756Y28248194D02*
G01*
X11448159Y28242794D01*
X11483857Y28233853D01*
X11518506Y28221455D01*
X11551774Y28205720D01*
X11583339Y28186801D01*
X11612897Y28164879D01*
X11640165Y28140165D01*
X11664879Y28112897D01*
X11686801Y28083339D01*
X11705720Y28051774D01*
X11721455Y28018506D01*
X11733853Y27983857D01*
X11742794Y27948159D01*
X11748194Y27911756D01*
X11750000Y27875000D01*
X11750000Y27125000D01*
X11748194Y27088244D01*
X11742794Y27051841D01*
X11733853Y27016143D01*
X11721455Y26981494D01*
X11705720Y26948226D01*
X11686801Y26916661D01*
X11664879Y26887103D01*
X11640165Y26859835D01*
X11612897Y26835121D01*
X11583339Y26813199D01*
X11551774Y26794280D01*
X11518506Y26778545D01*
X11483857Y26766147D01*
X11448159Y26757206D01*
X11411756Y26751806D01*
X11375000Y26750000D01*
X10125000Y26750000D01*
X10088244Y26751806D01*
X10051841Y26757206D01*
X10016143Y26766147D01*
X9981494Y26778545D01*
X9948226Y26794280D01*
X9916661Y26813199D01*
X9887103Y26835121D01*
X9859835Y26859835D01*
X9835121Y26887103D01*
X9813199Y26916661D01*
X9794280Y26948226D01*
X9778545Y26981494D01*
X9766147Y27016143D01*
X9757206Y27051841D01*
X9751806Y27088244D01*
X9750000Y27125000D01*
X9750000Y27875000D01*
X9751806Y27911756D01*
X9757206Y27948159D01*
X9766147Y27983857D01*
X9778545Y28018506D01*
X9794280Y28051774D01*
X9813199Y28083339D01*
X9835121Y28112897D01*
X9859835Y28140165D01*
X9887103Y28164879D01*
X9916661Y28186801D01*
X9948226Y28205720D01*
X9981494Y28221455D01*
X10016143Y28233853D01*
X10051841Y28242794D01*
X10088244Y28248194D01*
X10125000Y28250000D01*
X11375000Y28250000D01*
X11411756Y28248194D01*
G37*
G04 #@! TD.AperFunction*
G04 #@! TA.AperFunction,SMDPad,CuDef*
G36*
X8661756Y28998194D02*
G01*
X8698159Y28992794D01*
X8733857Y28983853D01*
X8768506Y28971455D01*
X8801774Y28955720D01*
X8833339Y28936801D01*
X8862897Y28914879D01*
X8890165Y28890165D01*
X8914879Y28862897D01*
X8936801Y28833339D01*
X8955720Y28801774D01*
X8971455Y28768506D01*
X8983853Y28733857D01*
X8992794Y28698159D01*
X8998194Y28661756D01*
X9000000Y28625000D01*
X9000000Y27875000D01*
X8998194Y27838244D01*
X8992794Y27801841D01*
X8983853Y27766143D01*
X8971455Y27731494D01*
X8955720Y27698226D01*
X8936801Y27666661D01*
X8914879Y27637103D01*
X8890165Y27609835D01*
X8862897Y27585121D01*
X8833339Y27563199D01*
X8801774Y27544280D01*
X8768506Y27528545D01*
X8733857Y27516147D01*
X8698159Y27507206D01*
X8661756Y27501806D01*
X8625000Y27500000D01*
X7375000Y27500000D01*
X7338244Y27501806D01*
X7301841Y27507206D01*
X7266143Y27516147D01*
X7231494Y27528545D01*
X7198226Y27544280D01*
X7166661Y27563199D01*
X7137103Y27585121D01*
X7109835Y27609835D01*
X7085121Y27637103D01*
X7063199Y27666661D01*
X7044280Y27698226D01*
X7028545Y27731494D01*
X7016147Y27766143D01*
X7007206Y27801841D01*
X7001806Y27838244D01*
X7000000Y27875000D01*
X7000000Y28625000D01*
X7001806Y28661756D01*
X7007206Y28698159D01*
X7016147Y28733857D01*
X7028545Y28768506D01*
X7044280Y28801774D01*
X7063199Y28833339D01*
X7085121Y28862897D01*
X7109835Y28890165D01*
X7137103Y28914879D01*
X7166661Y28936801D01*
X7198226Y28955720D01*
X7231494Y28971455D01*
X7266143Y28983853D01*
X7301841Y28992794D01*
X7338244Y28998194D01*
X7375000Y29000000D01*
X8625000Y29000000D01*
X8661756Y28998194D01*
G37*
G04 #@! TD.AperFunction*
G04 #@! TA.AperFunction,SMDPad,CuDef*
G36*
X16911756Y28998194D02*
G01*
X16948159Y28992794D01*
X16983857Y28983853D01*
X17018506Y28971455D01*
X17051774Y28955720D01*
X17083339Y28936801D01*
X17112897Y28914879D01*
X17140165Y28890165D01*
X17164879Y28862897D01*
X17186801Y28833339D01*
X17205720Y28801774D01*
X17221455Y28768506D01*
X17233853Y28733857D01*
X17242794Y28698159D01*
X17248194Y28661756D01*
X17250000Y28625000D01*
X17250000Y27875000D01*
X17248194Y27838244D01*
X17242794Y27801841D01*
X17233853Y27766143D01*
X17221455Y27731494D01*
X17205720Y27698226D01*
X17186801Y27666661D01*
X17164879Y27637103D01*
X17140165Y27609835D01*
X17112897Y27585121D01*
X17083339Y27563199D01*
X17051774Y27544280D01*
X17018506Y27528545D01*
X16983857Y27516147D01*
X16948159Y27507206D01*
X16911756Y27501806D01*
X16875000Y27500000D01*
X15625000Y27500000D01*
X15588244Y27501806D01*
X15551841Y27507206D01*
X15516143Y27516147D01*
X15481494Y27528545D01*
X15448226Y27544280D01*
X15416661Y27563199D01*
X15387103Y27585121D01*
X15359835Y27609835D01*
X15335121Y27637103D01*
X15313199Y27666661D01*
X15294280Y27698226D01*
X15278545Y27731494D01*
X15266147Y27766143D01*
X15257206Y27801841D01*
X15251806Y27838244D01*
X15250000Y27875000D01*
X15250000Y28625000D01*
X15251806Y28661756D01*
X15257206Y28698159D01*
X15266147Y28733857D01*
X15278545Y28768506D01*
X15294280Y28801774D01*
X15313199Y28833339D01*
X15335121Y28862897D01*
X15359835Y28890165D01*
X15387103Y28914879D01*
X15416661Y28936801D01*
X15448226Y28955720D01*
X15481494Y28971455D01*
X15516143Y28983853D01*
X15551841Y28992794D01*
X15588244Y28998194D01*
X15625000Y29000000D01*
X16875000Y29000000D01*
X16911756Y28998194D01*
G37*
G04 #@! TD.AperFunction*
G04 #@! TA.AperFunction,SMDPad,CuDef*
G36*
X14161756Y28998194D02*
G01*
X14198159Y28992794D01*
X14233857Y28983853D01*
X14268506Y28971455D01*
X14301774Y28955720D01*
X14333339Y28936801D01*
X14362897Y28914879D01*
X14390165Y28890165D01*
X14414879Y28862897D01*
X14436801Y28833339D01*
X14455720Y28801774D01*
X14471455Y28768506D01*
X14483853Y28733857D01*
X14492794Y28698159D01*
X14498194Y28661756D01*
X14500000Y28625000D01*
X14500000Y27875000D01*
X14498194Y27838244D01*
X14492794Y27801841D01*
X14483853Y27766143D01*
X14471455Y27731494D01*
X14455720Y27698226D01*
X14436801Y27666661D01*
X14414879Y27637103D01*
X14390165Y27609835D01*
X14362897Y27585121D01*
X14333339Y27563199D01*
X14301774Y27544280D01*
X14268506Y27528545D01*
X14233857Y27516147D01*
X14198159Y27507206D01*
X14161756Y27501806D01*
X14125000Y27500000D01*
X12875000Y27500000D01*
X12838244Y27501806D01*
X12801841Y27507206D01*
X12766143Y27516147D01*
X12731494Y27528545D01*
X12698226Y27544280D01*
X12666661Y27563199D01*
X12637103Y27585121D01*
X12609835Y27609835D01*
X12585121Y27637103D01*
X12563199Y27666661D01*
X12544280Y27698226D01*
X12528545Y27731494D01*
X12516147Y27766143D01*
X12507206Y27801841D01*
X12501806Y27838244D01*
X12500000Y27875000D01*
X12500000Y28625000D01*
X12501806Y28661756D01*
X12507206Y28698159D01*
X12516147Y28733857D01*
X12528545Y28768506D01*
X12544280Y28801774D01*
X12563199Y28833339D01*
X12585121Y28862897D01*
X12609835Y28890165D01*
X12637103Y28914879D01*
X12666661Y28936801D01*
X12698226Y28955720D01*
X12731494Y28971455D01*
X12766143Y28983853D01*
X12801841Y28992794D01*
X12838244Y28998194D01*
X12875000Y29000000D01*
X14125000Y29000000D01*
X14161756Y28998194D01*
G37*
G04 #@! TD.AperFunction*
D11*
X22250000Y21250000D03*
D12*
X22250000Y18710000D03*
G04 #@! TA.AperFunction,SMDPad,CuDef*
D10*
G36*
X18811756Y21148194D02*
G01*
X18848159Y21142794D01*
X18883857Y21133853D01*
X18918506Y21121455D01*
X18951774Y21105720D01*
X18983339Y21086801D01*
X19012897Y21064879D01*
X19040165Y21040165D01*
X19064879Y21012897D01*
X19086801Y20983339D01*
X19105720Y20951774D01*
X19121455Y20918506D01*
X19133853Y20883857D01*
X19142794Y20848159D01*
X19148194Y20811756D01*
X19150000Y20775000D01*
X19150000Y20025000D01*
X19148194Y19988244D01*
X19142794Y19951841D01*
X19133853Y19916143D01*
X19121455Y19881494D01*
X19105720Y19848226D01*
X19086801Y19816661D01*
X19064879Y19787103D01*
X19040165Y19759835D01*
X19012897Y19735121D01*
X18983339Y19713199D01*
X18951774Y19694280D01*
X18918506Y19678545D01*
X18883857Y19666147D01*
X18848159Y19657206D01*
X18811756Y19651806D01*
X18775000Y19650000D01*
X17525000Y19650000D01*
X17488244Y19651806D01*
X17451841Y19657206D01*
X17416143Y19666147D01*
X17381494Y19678545D01*
X17348226Y19694280D01*
X17316661Y19713199D01*
X17287103Y19735121D01*
X17259835Y19759835D01*
X17235121Y19787103D01*
X17213199Y19816661D01*
X17194280Y19848226D01*
X17178545Y19881494D01*
X17166147Y19916143D01*
X17157206Y19951841D01*
X17151806Y19988244D01*
X17150000Y20025000D01*
X17150000Y20775000D01*
X17151806Y20811756D01*
X17157206Y20848159D01*
X17166147Y20883857D01*
X17178545Y20918506D01*
X17194280Y20951774D01*
X17213199Y20983339D01*
X17235121Y21012897D01*
X17259835Y21040165D01*
X17287103Y21064879D01*
X17316661Y21086801D01*
X17348226Y21105720D01*
X17381494Y21121455D01*
X17416143Y21133853D01*
X17451841Y21142794D01*
X17488244Y21148194D01*
X17525000Y21150000D01*
X18775000Y21150000D01*
X18811756Y21148194D01*
G37*
G04 #@! TD.AperFunction*
G04 #@! TA.AperFunction,SMDPad,CuDef*
G36*
X18811756Y18548194D02*
G01*
X18848159Y18542794D01*
X18883857Y18533853D01*
X18918506Y18521455D01*
X18951774Y18505720D01*
X18983339Y18486801D01*
X19012897Y18464879D01*
X19040165Y18440165D01*
X19064879Y18412897D01*
X19086801Y18383339D01*
X19105720Y18351774D01*
X19121455Y18318506D01*
X19133853Y18283857D01*
X19142794Y18248159D01*
X19148194Y18211756D01*
X19150000Y18175000D01*
X19150000Y17425000D01*
X19148194Y17388244D01*
X19142794Y17351841D01*
X19133853Y17316143D01*
X19121455Y17281494D01*
X19105720Y17248226D01*
X19086801Y17216661D01*
X19064879Y17187103D01*
X19040165Y17159835D01*
X19012897Y17135121D01*
X18983339Y17113199D01*
X18951774Y17094280D01*
X18918506Y17078545D01*
X18883857Y17066147D01*
X18848159Y17057206D01*
X18811756Y17051806D01*
X18775000Y17050000D01*
X17525000Y17050000D01*
X17488244Y17051806D01*
X17451841Y17057206D01*
X17416143Y17066147D01*
X17381494Y17078545D01*
X17348226Y17094280D01*
X17316661Y17113199D01*
X17287103Y17135121D01*
X17259835Y17159835D01*
X17235121Y17187103D01*
X17213199Y17216661D01*
X17194280Y17248226D01*
X17178545Y17281494D01*
X17166147Y17316143D01*
X17157206Y17351841D01*
X17151806Y17388244D01*
X17150000Y17425000D01*
X17150000Y18175000D01*
X17151806Y18211756D01*
X17157206Y18248159D01*
X17166147Y18283857D01*
X17178545Y18318506D01*
X17194280Y18351774D01*
X17213199Y18383339D01*
X17235121Y18412897D01*
X17259835Y18440165D01*
X17287103Y18464879D01*
X17316661Y18486801D01*
X17348226Y18505720D01*
X17381494Y18521455D01*
X17416143Y18533853D01*
X17451841Y18542794D01*
X17488244Y18548194D01*
X17525000Y18550000D01*
X18775000Y18550000D01*
X18811756Y18548194D01*
G37*
G04 #@! TD.AperFunction*
G04 #@! TA.AperFunction,SMDPad,CuDef*
G36*
X5911756Y28998194D02*
G01*
X5948159Y28992794D01*
X5983857Y28983853D01*
X6018506Y28971455D01*
X6051774Y28955720D01*
X6083339Y28936801D01*
X6112897Y28914879D01*
X6140165Y28890165D01*
X6164879Y28862897D01*
X6186801Y28833339D01*
X6205720Y28801774D01*
X6221455Y28768506D01*
X6233853Y28733857D01*
X6242794Y28698159D01*
X6248194Y28661756D01*
X6250000Y28625000D01*
X6250000Y27875000D01*
X6248194Y27838244D01*
X6242794Y27801841D01*
X6233853Y27766143D01*
X6221455Y27731494D01*
X6205720Y27698226D01*
X6186801Y27666661D01*
X6164879Y27637103D01*
X6140165Y27609835D01*
X6112897Y27585121D01*
X6083339Y27563199D01*
X6051774Y27544280D01*
X6018506Y27528545D01*
X5983857Y27516147D01*
X5948159Y27507206D01*
X5911756Y27501806D01*
X5875000Y27500000D01*
X4625000Y27500000D01*
X4588244Y27501806D01*
X4551841Y27507206D01*
X4516143Y27516147D01*
X4481494Y27528545D01*
X4448226Y27544280D01*
X4416661Y27563199D01*
X4387103Y27585121D01*
X4359835Y27609835D01*
X4335121Y27637103D01*
X4313199Y27666661D01*
X4294280Y27698226D01*
X4278545Y27731494D01*
X4266147Y27766143D01*
X4257206Y27801841D01*
X4251806Y27838244D01*
X4250000Y27875000D01*
X4250000Y28625000D01*
X4251806Y28661756D01*
X4257206Y28698159D01*
X4266147Y28733857D01*
X4278545Y28768506D01*
X4294280Y28801774D01*
X4313199Y28833339D01*
X4335121Y28862897D01*
X4359835Y28890165D01*
X4387103Y28914879D01*
X4416661Y28936801D01*
X4448226Y28955720D01*
X4481494Y28971455D01*
X4516143Y28983853D01*
X4551841Y28992794D01*
X4588244Y28998194D01*
X4625000Y29000000D01*
X5875000Y29000000D01*
X5911756Y28998194D01*
G37*
G04 #@! TD.AperFunction*
G04 #@! TA.AperFunction,SMDPad,CuDef*
G36*
X11161756Y14898194D02*
G01*
X11198159Y14892794D01*
X11233857Y14883853D01*
X11268506Y14871455D01*
X11301774Y14855720D01*
X11333339Y14836801D01*
X11362897Y14814879D01*
X11390165Y14790165D01*
X11414879Y14762897D01*
X11436801Y14733339D01*
X11455720Y14701774D01*
X11471455Y14668506D01*
X11483853Y14633857D01*
X11492794Y14598159D01*
X11498194Y14561756D01*
X11500000Y14525000D01*
X11500000Y13775000D01*
X11498194Y13738244D01*
X11492794Y13701841D01*
X11483853Y13666143D01*
X11471455Y13631494D01*
X11455720Y13598226D01*
X11436801Y13566661D01*
X11414879Y13537103D01*
X11390165Y13509835D01*
X11362897Y13485121D01*
X11333339Y13463199D01*
X11301774Y13444280D01*
X11268506Y13428545D01*
X11233857Y13416147D01*
X11198159Y13407206D01*
X11161756Y13401806D01*
X11125000Y13400000D01*
X9875000Y13400000D01*
X9838244Y13401806D01*
X9801841Y13407206D01*
X9766143Y13416147D01*
X9731494Y13428545D01*
X9698226Y13444280D01*
X9666661Y13463199D01*
X9637103Y13485121D01*
X9609835Y13509835D01*
X9585121Y13537103D01*
X9563199Y13566661D01*
X9544280Y13598226D01*
X9528545Y13631494D01*
X9516147Y13666143D01*
X9507206Y13701841D01*
X9501806Y13738244D01*
X9500000Y13775000D01*
X9500000Y14525000D01*
X9501806Y14561756D01*
X9507206Y14598159D01*
X9516147Y14633857D01*
X9528545Y14668506D01*
X9544280Y14701774D01*
X9563199Y14733339D01*
X9585121Y14762897D01*
X9609835Y14790165D01*
X9637103Y14814879D01*
X9666661Y14836801D01*
X9698226Y14855720D01*
X9731494Y14871455D01*
X9766143Y14883853D01*
X9801841Y14892794D01*
X9838244Y14898194D01*
X9875000Y14900000D01*
X11125000Y14900000D01*
X11161756Y14898194D01*
G37*
G04 #@! TD.AperFunction*
G04 #@! TA.AperFunction,SMDPad,CuDef*
G36*
X18911756Y6148194D02*
G01*
X18948159Y6142794D01*
X18983857Y6133853D01*
X19018506Y6121455D01*
X19051774Y6105720D01*
X19083339Y6086801D01*
X19112897Y6064879D01*
X19140165Y6040165D01*
X19164879Y6012897D01*
X19186801Y5983339D01*
X19205720Y5951774D01*
X19221455Y5918506D01*
X19233853Y5883857D01*
X19242794Y5848159D01*
X19248194Y5811756D01*
X19250000Y5775000D01*
X19250000Y5025000D01*
X19248194Y4988244D01*
X19242794Y4951841D01*
X19233853Y4916143D01*
X19221455Y4881494D01*
X19205720Y4848226D01*
X19186801Y4816661D01*
X19164879Y4787103D01*
X19140165Y4759835D01*
X19112897Y4735121D01*
X19083339Y4713199D01*
X19051774Y4694280D01*
X19018506Y4678545D01*
X18983857Y4666147D01*
X18948159Y4657206D01*
X18911756Y4651806D01*
X18875000Y4650000D01*
X17625000Y4650000D01*
X17588244Y4651806D01*
X17551841Y4657206D01*
X17516143Y4666147D01*
X17481494Y4678545D01*
X17448226Y4694280D01*
X17416661Y4713199D01*
X17387103Y4735121D01*
X17359835Y4759835D01*
X17335121Y4787103D01*
X17313199Y4816661D01*
X17294280Y4848226D01*
X17278545Y4881494D01*
X17266147Y4916143D01*
X17257206Y4951841D01*
X17251806Y4988244D01*
X17250000Y5025000D01*
X17250000Y5775000D01*
X17251806Y5811756D01*
X17257206Y5848159D01*
X17266147Y5883857D01*
X17278545Y5918506D01*
X17294280Y5951774D01*
X17313199Y5983339D01*
X17335121Y6012897D01*
X17359835Y6040165D01*
X17387103Y6064879D01*
X17416661Y6086801D01*
X17448226Y6105720D01*
X17481494Y6121455D01*
X17516143Y6133853D01*
X17551841Y6142794D01*
X17588244Y6148194D01*
X17625000Y6150000D01*
X18875000Y6150000D01*
X18911756Y6148194D01*
G37*
G04 #@! TD.AperFunction*
G04 #@! TA.AperFunction,SMDPad,CuDef*
G36*
X18911756Y8498194D02*
G01*
X18948159Y8492794D01*
X18983857Y8483853D01*
X19018506Y8471455D01*
X19051774Y8455720D01*
X19083339Y8436801D01*
X19112897Y8414879D01*
X19140165Y8390165D01*
X19164879Y8362897D01*
X19186801Y8333339D01*
X19205720Y8301774D01*
X19221455Y8268506D01*
X19233853Y8233857D01*
X19242794Y8198159D01*
X19248194Y8161756D01*
X19250000Y8125000D01*
X19250000Y7375000D01*
X19248194Y7338244D01*
X19242794Y7301841D01*
X19233853Y7266143D01*
X19221455Y7231494D01*
X19205720Y7198226D01*
X19186801Y7166661D01*
X19164879Y7137103D01*
X19140165Y7109835D01*
X19112897Y7085121D01*
X19083339Y7063199D01*
X19051774Y7044280D01*
X19018506Y7028545D01*
X18983857Y7016147D01*
X18948159Y7007206D01*
X18911756Y7001806D01*
X18875000Y7000000D01*
X17625000Y7000000D01*
X17588244Y7001806D01*
X17551841Y7007206D01*
X17516143Y7016147D01*
X17481494Y7028545D01*
X17448226Y7044280D01*
X17416661Y7063199D01*
X17387103Y7085121D01*
X17359835Y7109835D01*
X17335121Y7137103D01*
X17313199Y7166661D01*
X17294280Y7198226D01*
X17278545Y7231494D01*
X17266147Y7266143D01*
X17257206Y7301841D01*
X17251806Y7338244D01*
X17250000Y7375000D01*
X17250000Y8125000D01*
X17251806Y8161756D01*
X17257206Y8198159D01*
X17266147Y8233857D01*
X17278545Y8268506D01*
X17294280Y8301774D01*
X17313199Y8333339D01*
X17335121Y8362897D01*
X17359835Y8390165D01*
X17387103Y8414879D01*
X17416661Y8436801D01*
X17448226Y8455720D01*
X17481494Y8471455D01*
X17516143Y8483853D01*
X17551841Y8492794D01*
X17588244Y8498194D01*
X17625000Y8500000D01*
X18875000Y8500000D01*
X18911756Y8498194D01*
G37*
G04 #@! TD.AperFunction*
G04 #@! TA.AperFunction,SMDPad,CuDef*
G36*
X22911756Y16498194D02*
G01*
X22948159Y16492794D01*
X22983857Y16483853D01*
X23018506Y16471455D01*
X23051774Y16455720D01*
X23083339Y16436801D01*
X23112897Y16414879D01*
X23140165Y16390165D01*
X23164879Y16362897D01*
X23186801Y16333339D01*
X23205720Y16301774D01*
X23221455Y16268506D01*
X23233853Y16233857D01*
X23242794Y16198159D01*
X23248194Y16161756D01*
X23250000Y16125000D01*
X23250000Y15375000D01*
X23248194Y15338244D01*
X23242794Y15301841D01*
X23233853Y15266143D01*
X23221455Y15231494D01*
X23205720Y15198226D01*
X23186801Y15166661D01*
X23164879Y15137103D01*
X23140165Y15109835D01*
X23112897Y15085121D01*
X23083339Y15063199D01*
X23051774Y15044280D01*
X23018506Y15028545D01*
X22983857Y15016147D01*
X22948159Y15007206D01*
X22911756Y15001806D01*
X22875000Y15000000D01*
X21625000Y15000000D01*
X21588244Y15001806D01*
X21551841Y15007206D01*
X21516143Y15016147D01*
X21481494Y15028545D01*
X21448226Y15044280D01*
X21416661Y15063199D01*
X21387103Y15085121D01*
X21359835Y15109835D01*
X21335121Y15137103D01*
X21313199Y15166661D01*
X21294280Y15198226D01*
X21278545Y15231494D01*
X21266147Y15266143D01*
X21257206Y15301841D01*
X21251806Y15338244D01*
X21250000Y15375000D01*
X21250000Y16125000D01*
X21251806Y16161756D01*
X21257206Y16198159D01*
X21266147Y16233857D01*
X21278545Y16268506D01*
X21294280Y16301774D01*
X21313199Y16333339D01*
X21335121Y16362897D01*
X21359835Y16390165D01*
X21387103Y16414879D01*
X21416661Y16436801D01*
X21448226Y16455720D01*
X21481494Y16471455D01*
X21516143Y16483853D01*
X21551841Y16492794D01*
X21588244Y16498194D01*
X21625000Y16500000D01*
X22875000Y16500000D01*
X22911756Y16498194D01*
G37*
G04 #@! TD.AperFunction*
G04 #@! TA.AperFunction,SMDPad,CuDef*
G36*
X15661756Y14898194D02*
G01*
X15698159Y14892794D01*
X15733857Y14883853D01*
X15768506Y14871455D01*
X15801774Y14855720D01*
X15833339Y14836801D01*
X15862897Y14814879D01*
X15890165Y14790165D01*
X15914879Y14762897D01*
X15936801Y14733339D01*
X15955720Y14701774D01*
X15971455Y14668506D01*
X15983853Y14633857D01*
X15992794Y14598159D01*
X15998194Y14561756D01*
X16000000Y14525000D01*
X16000000Y13775000D01*
X15998194Y13738244D01*
X15992794Y13701841D01*
X15983853Y13666143D01*
X15971455Y13631494D01*
X15955720Y13598226D01*
X15936801Y13566661D01*
X15914879Y13537103D01*
X15890165Y13509835D01*
X15862897Y13485121D01*
X15833339Y13463199D01*
X15801774Y13444280D01*
X15768506Y13428545D01*
X15733857Y13416147D01*
X15698159Y13407206D01*
X15661756Y13401806D01*
X15625000Y13400000D01*
X14375000Y13400000D01*
X14338244Y13401806D01*
X14301841Y13407206D01*
X14266143Y13416147D01*
X14231494Y13428545D01*
X14198226Y13444280D01*
X14166661Y13463199D01*
X14137103Y13485121D01*
X14109835Y13509835D01*
X14085121Y13537103D01*
X14063199Y13566661D01*
X14044280Y13598226D01*
X14028545Y13631494D01*
X14016147Y13666143D01*
X14007206Y13701841D01*
X14001806Y13738244D01*
X14000000Y13775000D01*
X14000000Y14525000D01*
X14001806Y14561756D01*
X14007206Y14598159D01*
X14016147Y14633857D01*
X14028545Y14668506D01*
X14044280Y14701774D01*
X14063199Y14733339D01*
X14085121Y14762897D01*
X14109835Y14790165D01*
X14137103Y14814879D01*
X14166661Y14836801D01*
X14198226Y14855720D01*
X14231494Y14871455D01*
X14266143Y14883853D01*
X14301841Y14892794D01*
X14338244Y14898194D01*
X14375000Y14900000D01*
X15625000Y14900000D01*
X15661756Y14898194D01*
G37*
G04 #@! TD.AperFunction*
G04 #@! TA.AperFunction,SMDPad,CuDef*
G36*
X6224505Y17598796D02*
G01*
X6248773Y17595196D01*
X6272572Y17589235D01*
X6295671Y17580970D01*
X6317850Y17570480D01*
X6338893Y17557868D01*
X6358599Y17543253D01*
X6376777Y17526777D01*
X6393253Y17508599D01*
X6407868Y17488893D01*
X6420480Y17467850D01*
X6430970Y17445671D01*
X6439235Y17422572D01*
X6445196Y17398773D01*
X6448796Y17374505D01*
X6450000Y17350001D01*
X6450000Y16699999D01*
X6448796Y16675495D01*
X6445196Y16651227D01*
X6439235Y16627428D01*
X6430970Y16604329D01*
X6420480Y16582150D01*
X6407868Y16561107D01*
X6393253Y16541401D01*
X6376777Y16523223D01*
X6358599Y16506747D01*
X6338893Y16492132D01*
X6317850Y16479520D01*
X6295671Y16469030D01*
X6272572Y16460765D01*
X6248773Y16454804D01*
X6224505Y16451204D01*
X6200001Y16450000D01*
X5299999Y16450000D01*
X5275495Y16451204D01*
X5251227Y16454804D01*
X5227428Y16460765D01*
X5204329Y16469030D01*
X5182150Y16479520D01*
X5161107Y16492132D01*
X5141401Y16506747D01*
X5123223Y16523223D01*
X5106747Y16541401D01*
X5092132Y16561107D01*
X5079520Y16582150D01*
X5069030Y16604329D01*
X5060765Y16627428D01*
X5054804Y16651227D01*
X5051204Y16675495D01*
X5050000Y16699999D01*
X5050000Y17350001D01*
X5051204Y17374505D01*
X5054804Y17398773D01*
X5060765Y17422572D01*
X5069030Y17445671D01*
X5079520Y17467850D01*
X5092132Y17488893D01*
X5106747Y17508599D01*
X5123223Y17526777D01*
X5141401Y17543253D01*
X5161107Y17557868D01*
X5182150Y17570480D01*
X5204329Y17580970D01*
X5227428Y17589235D01*
X5251227Y17595196D01*
X5275495Y17598796D01*
X5299999Y17600000D01*
X6200001Y17600000D01*
X6224505Y17598796D01*
G37*
G04 #@! TD.AperFunction*
G04 #@! TA.AperFunction,SMDPad,CuDef*
G36*
X6224505Y15548796D02*
G01*
X6248773Y15545196D01*
X6272572Y15539235D01*
X6295671Y15530970D01*
X6317850Y15520480D01*
X6338893Y15507868D01*
X6358599Y15493253D01*
X6376777Y15476777D01*
X6393253Y15458599D01*
X6407868Y15438893D01*
X6420480Y15417850D01*
X6430970Y15395671D01*
X6439235Y15372572D01*
X6445196Y15348773D01*
X6448796Y15324505D01*
X6450000Y15300001D01*
X6450000Y14649999D01*
X6448796Y14625495D01*
X6445196Y14601227D01*
X6439235Y14577428D01*
X6430970Y14554329D01*
X6420480Y14532150D01*
X6407868Y14511107D01*
X6393253Y14491401D01*
X6376777Y14473223D01*
X6358599Y14456747D01*
X6338893Y14442132D01*
X6317850Y14429520D01*
X6295671Y14419030D01*
X6272572Y14410765D01*
X6248773Y14404804D01*
X6224505Y14401204D01*
X6200001Y14400000D01*
X5299999Y14400000D01*
X5275495Y14401204D01*
X5251227Y14404804D01*
X5227428Y14410765D01*
X5204329Y14419030D01*
X5182150Y14429520D01*
X5161107Y14442132D01*
X5141401Y14456747D01*
X5123223Y14473223D01*
X5106747Y14491401D01*
X5092132Y14511107D01*
X5079520Y14532150D01*
X5069030Y14554329D01*
X5060765Y14577428D01*
X5054804Y14601227D01*
X5051204Y14625495D01*
X5050000Y14649999D01*
X5050000Y15300001D01*
X5051204Y15324505D01*
X5054804Y15348773D01*
X5060765Y15372572D01*
X5069030Y15395671D01*
X5079520Y15417850D01*
X5092132Y15438893D01*
X5106747Y15458599D01*
X5123223Y15476777D01*
X5141401Y15493253D01*
X5161107Y15507868D01*
X5182150Y15520480D01*
X5204329Y15530970D01*
X5227428Y15539235D01*
X5251227Y15545196D01*
X5275495Y15548796D01*
X5299999Y15550000D01*
X6200001Y15550000D01*
X6224505Y15548796D01*
G37*
G04 #@! TD.AperFunction*
G04 #@! TA.AperFunction,SMDPad,CuDef*
G36*
X23174505Y8448796D02*
G01*
X23198773Y8445196D01*
X23222572Y8439235D01*
X23245671Y8430970D01*
X23267850Y8420480D01*
X23288893Y8407868D01*
X23308599Y8393253D01*
X23326777Y8376777D01*
X23343253Y8358599D01*
X23357868Y8338893D01*
X23370480Y8317850D01*
X23380970Y8295671D01*
X23389235Y8272572D01*
X23395196Y8248773D01*
X23398796Y8224505D01*
X23400000Y8200001D01*
X23400000Y7299999D01*
X23398796Y7275495D01*
X23395196Y7251227D01*
X23389235Y7227428D01*
X23380970Y7204329D01*
X23370480Y7182150D01*
X23357868Y7161107D01*
X23343253Y7141401D01*
X23326777Y7123223D01*
X23308599Y7106747D01*
X23288893Y7092132D01*
X23267850Y7079520D01*
X23245671Y7069030D01*
X23222572Y7060765D01*
X23198773Y7054804D01*
X23174505Y7051204D01*
X23150001Y7050000D01*
X22499999Y7050000D01*
X22475495Y7051204D01*
X22451227Y7054804D01*
X22427428Y7060765D01*
X22404329Y7069030D01*
X22382150Y7079520D01*
X22361107Y7092132D01*
X22341401Y7106747D01*
X22323223Y7123223D01*
X22306747Y7141401D01*
X22292132Y7161107D01*
X22279520Y7182150D01*
X22269030Y7204329D01*
X22260765Y7227428D01*
X22254804Y7251227D01*
X22251204Y7275495D01*
X22250000Y7299999D01*
X22250000Y8200001D01*
X22251204Y8224505D01*
X22254804Y8248773D01*
X22260765Y8272572D01*
X22269030Y8295671D01*
X22279520Y8317850D01*
X22292132Y8338893D01*
X22306747Y8358599D01*
X22323223Y8376777D01*
X22341401Y8393253D01*
X22361107Y8407868D01*
X22382150Y8420480D01*
X22404329Y8430970D01*
X22427428Y8439235D01*
X22451227Y8445196D01*
X22475495Y8448796D01*
X22499999Y8450000D01*
X23150001Y8450000D01*
X23174505Y8448796D01*
G37*
G04 #@! TD.AperFunction*
G04 #@! TA.AperFunction,SMDPad,CuDef*
G36*
X21124505Y8448796D02*
G01*
X21148773Y8445196D01*
X21172572Y8439235D01*
X21195671Y8430970D01*
X21217850Y8420480D01*
X21238893Y8407868D01*
X21258599Y8393253D01*
X21276777Y8376777D01*
X21293253Y8358599D01*
X21307868Y8338893D01*
X21320480Y8317850D01*
X21330970Y8295671D01*
X21339235Y8272572D01*
X21345196Y8248773D01*
X21348796Y8224505D01*
X21350000Y8200001D01*
X21350000Y7299999D01*
X21348796Y7275495D01*
X21345196Y7251227D01*
X21339235Y7227428D01*
X21330970Y7204329D01*
X21320480Y7182150D01*
X21307868Y7161107D01*
X21293253Y7141401D01*
X21276777Y7123223D01*
X21258599Y7106747D01*
X21238893Y7092132D01*
X21217850Y7079520D01*
X21195671Y7069030D01*
X21172572Y7060765D01*
X21148773Y7054804D01*
X21124505Y7051204D01*
X21100001Y7050000D01*
X20449999Y7050000D01*
X20425495Y7051204D01*
X20401227Y7054804D01*
X20377428Y7060765D01*
X20354329Y7069030D01*
X20332150Y7079520D01*
X20311107Y7092132D01*
X20291401Y7106747D01*
X20273223Y7123223D01*
X20256747Y7141401D01*
X20242132Y7161107D01*
X20229520Y7182150D01*
X20219030Y7204329D01*
X20210765Y7227428D01*
X20204804Y7251227D01*
X20201204Y7275495D01*
X20200000Y7299999D01*
X20200000Y8200001D01*
X20201204Y8224505D01*
X20204804Y8248773D01*
X20210765Y8272572D01*
X20219030Y8295671D01*
X20229520Y8317850D01*
X20242132Y8338893D01*
X20256747Y8358599D01*
X20273223Y8376777D01*
X20291401Y8393253D01*
X20311107Y8407868D01*
X20332150Y8420480D01*
X20354329Y8430970D01*
X20377428Y8439235D01*
X20401227Y8445196D01*
X20425495Y8448796D01*
X20449999Y8450000D01*
X21100001Y8450000D01*
X21124505Y8448796D01*
G37*
G04 #@! TD.AperFunction*
D11*
X22250000Y4400000D03*
D12*
X22250000Y1860000D03*
D11*
X5500000Y1900000D03*
D12*
X8040000Y1900000D03*
X10580000Y1900000D03*
X13120000Y1900000D03*
X15660000Y1900000D03*
X18200000Y1900000D03*
D11*
X1800000Y19600000D03*
D12*
X1800000Y17060000D03*
X1800000Y14520000D03*
X1800000Y11980000D03*
X1800000Y9440000D03*
X1800000Y6900000D03*
X1800000Y4360000D03*
X1800000Y1820000D03*
G04 #@! TA.AperFunction,SMDPad,CuDef*
D10*
G36*
X22911756Y14248194D02*
G01*
X22948159Y14242794D01*
X22983857Y14233853D01*
X23018506Y14221455D01*
X23051774Y14205720D01*
X23083339Y14186801D01*
X23112897Y14164879D01*
X23140165Y14140165D01*
X23164879Y14112897D01*
X23186801Y14083339D01*
X23205720Y14051774D01*
X23221455Y14018506D01*
X23233853Y13983857D01*
X23242794Y13948159D01*
X23248194Y13911756D01*
X23250000Y13875000D01*
X23250000Y13125000D01*
X23248194Y13088244D01*
X23242794Y13051841D01*
X23233853Y13016143D01*
X23221455Y12981494D01*
X23205720Y12948226D01*
X23186801Y12916661D01*
X23164879Y12887103D01*
X23140165Y12859835D01*
X23112897Y12835121D01*
X23083339Y12813199D01*
X23051774Y12794280D01*
X23018506Y12778545D01*
X22983857Y12766147D01*
X22948159Y12757206D01*
X22911756Y12751806D01*
X22875000Y12750000D01*
X21625000Y12750000D01*
X21588244Y12751806D01*
X21551841Y12757206D01*
X21516143Y12766147D01*
X21481494Y12778545D01*
X21448226Y12794280D01*
X21416661Y12813199D01*
X21387103Y12835121D01*
X21359835Y12859835D01*
X21335121Y12887103D01*
X21313199Y12916661D01*
X21294280Y12948226D01*
X21278545Y12981494D01*
X21266147Y13016143D01*
X21257206Y13051841D01*
X21251806Y13088244D01*
X21250000Y13125000D01*
X21250000Y13875000D01*
X21251806Y13911756D01*
X21257206Y13948159D01*
X21266147Y13983857D01*
X21278545Y14018506D01*
X21294280Y14051774D01*
X21313199Y14083339D01*
X21335121Y14112897D01*
X21359835Y14140165D01*
X21387103Y14164879D01*
X21416661Y14186801D01*
X21448226Y14205720D01*
X21481494Y14221455D01*
X21516143Y14233853D01*
X21551841Y14242794D01*
X21588244Y14248194D01*
X21625000Y14250000D01*
X22875000Y14250000D01*
X22911756Y14248194D01*
G37*
G04 #@! TD.AperFunction*
G04 #@! TA.AperFunction,SMDPad,CuDef*
G36*
X6161756Y20748194D02*
G01*
X6198159Y20742794D01*
X6233857Y20733853D01*
X6268506Y20721455D01*
X6301774Y20705720D01*
X6333339Y20686801D01*
X6362897Y20664879D01*
X6390165Y20640165D01*
X6414879Y20612897D01*
X6436801Y20583339D01*
X6455720Y20551774D01*
X6471455Y20518506D01*
X6483853Y20483857D01*
X6492794Y20448159D01*
X6498194Y20411756D01*
X6500000Y20375000D01*
X6500000Y19125000D01*
X6498194Y19088244D01*
X6492794Y19051841D01*
X6483853Y19016143D01*
X6471455Y18981494D01*
X6455720Y18948226D01*
X6436801Y18916661D01*
X6414879Y18887103D01*
X6390165Y18859835D01*
X6362897Y18835121D01*
X6333339Y18813199D01*
X6301774Y18794280D01*
X6268506Y18778545D01*
X6233857Y18766147D01*
X6198159Y18757206D01*
X6161756Y18751806D01*
X6125000Y18750000D01*
X5375000Y18750000D01*
X5338244Y18751806D01*
X5301841Y18757206D01*
X5266143Y18766147D01*
X5231494Y18778545D01*
X5198226Y18794280D01*
X5166661Y18813199D01*
X5137103Y18835121D01*
X5109835Y18859835D01*
X5085121Y18887103D01*
X5063199Y18916661D01*
X5044280Y18948226D01*
X5028545Y18981494D01*
X5016147Y19016143D01*
X5007206Y19051841D01*
X5001806Y19088244D01*
X5000000Y19125000D01*
X5000000Y20375000D01*
X5001806Y20411756D01*
X5007206Y20448159D01*
X5016147Y20483857D01*
X5028545Y20518506D01*
X5044280Y20551774D01*
X5063199Y20583339D01*
X5085121Y20612897D01*
X5109835Y20640165D01*
X5137103Y20664879D01*
X5166661Y20686801D01*
X5198226Y20705720D01*
X5231494Y20721455D01*
X5266143Y20733853D01*
X5301841Y20742794D01*
X5338244Y20748194D01*
X5375000Y20750000D01*
X6125000Y20750000D01*
X6161756Y20748194D01*
G37*
G04 #@! TD.AperFunction*
G04 #@! TA.AperFunction,SMDPad,CuDef*
G36*
X22911756Y10998194D02*
G01*
X22948159Y10992794D01*
X22983857Y10983853D01*
X23018506Y10971455D01*
X23051774Y10955720D01*
X23083339Y10936801D01*
X23112897Y10914879D01*
X23140165Y10890165D01*
X23164879Y10862897D01*
X23186801Y10833339D01*
X23205720Y10801774D01*
X23221455Y10768506D01*
X23233853Y10733857D01*
X23242794Y10698159D01*
X23248194Y10661756D01*
X23250000Y10625000D01*
X23250000Y9875000D01*
X23248194Y9838244D01*
X23242794Y9801841D01*
X23233853Y9766143D01*
X23221455Y9731494D01*
X23205720Y9698226D01*
X23186801Y9666661D01*
X23164879Y9637103D01*
X23140165Y9609835D01*
X23112897Y9585121D01*
X23083339Y9563199D01*
X23051774Y9544280D01*
X23018506Y9528545D01*
X22983857Y9516147D01*
X22948159Y9507206D01*
X22911756Y9501806D01*
X22875000Y9500000D01*
X21625000Y9500000D01*
X21588244Y9501806D01*
X21551841Y9507206D01*
X21516143Y9516147D01*
X21481494Y9528545D01*
X21448226Y9544280D01*
X21416661Y9563199D01*
X21387103Y9585121D01*
X21359835Y9609835D01*
X21335121Y9637103D01*
X21313199Y9666661D01*
X21294280Y9698226D01*
X21278545Y9731494D01*
X21266147Y9766143D01*
X21257206Y9801841D01*
X21251806Y9838244D01*
X21250000Y9875000D01*
X21250000Y10625000D01*
X21251806Y10661756D01*
X21257206Y10698159D01*
X21266147Y10733857D01*
X21278545Y10768506D01*
X21294280Y10801774D01*
X21313199Y10833339D01*
X21335121Y10862897D01*
X21359835Y10890165D01*
X21387103Y10914879D01*
X21416661Y10936801D01*
X21448226Y10955720D01*
X21481494Y10971455D01*
X21516143Y10983853D01*
X21551841Y10992794D01*
X21588244Y10998194D01*
X21625000Y11000000D01*
X22875000Y11000000D01*
X22911756Y10998194D01*
G37*
G04 #@! TD.AperFunction*
D13*
X10550000Y19700000D03*
X13450000Y19700000D03*
X13450000Y17400000D03*
X10550000Y17400000D03*
D14*
X12750000Y14250000D03*
X2500000Y25750000D03*
X8500000Y17500000D03*
X11750000Y4750000D03*
X15750000Y17500000D03*
X15000000Y25250000D03*
X19250000Y14500000D03*
X20250010Y10250000D03*
X8500000Y25500000D03*
X5000000Y6750000D03*
X18749992Y10000000D03*
X6994418Y24494418D03*
X4750000Y4750000D03*
X17758957Y10997015D03*
X8250000Y21750000D03*
D15*
X8575000Y19700000D02*
X10550000Y19700000D01*
X10400000Y14250000D02*
X9000000Y14250000D01*
X7500000Y15750000D02*
X7500000Y18625000D01*
X7500000Y18625000D02*
X8575000Y19700000D01*
X10500000Y14150000D02*
X10400000Y14250000D01*
X9000000Y14250000D02*
X7500000Y15750000D01*
X10450000Y17500000D02*
X10550000Y17400000D01*
X8500000Y17500000D02*
X10450000Y17500000D01*
X15750000Y18500000D02*
X15750000Y18065685D01*
X15750000Y18065685D02*
X15750000Y17500000D01*
X13450000Y19700000D02*
X14550000Y19700000D01*
X14550000Y19700000D02*
X15750000Y18500000D01*
X13450000Y17400000D02*
X13450000Y16800000D01*
X15000000Y15250000D02*
X15000000Y14150000D01*
X13450000Y16800000D02*
X15000000Y15250000D01*
X5750000Y19750000D02*
X5750000Y17025000D01*
X20775000Y8525000D02*
X20775000Y7750000D01*
X22250000Y10250000D02*
X22250000Y10000000D01*
X22250000Y10000000D02*
X20775000Y8525000D01*
D16*
X22250000Y13500000D02*
X20250000Y13500000D01*
X19250000Y14500000D02*
X20250000Y13500000D01*
X20250000Y13500000D02*
X20250010Y13499990D01*
X20250010Y13499990D02*
X20250010Y10815685D01*
X20250010Y10815685D02*
X20250010Y10250000D01*
D15*
X15000000Y23750000D02*
X10250000Y23750000D01*
X18000000Y20750000D02*
X15000000Y23750000D01*
X18150000Y20400000D02*
X18000000Y20550000D01*
X10250000Y23750000D02*
X8500000Y25500000D01*
X18000000Y20550000D02*
X18000000Y20750000D01*
X18749992Y10249992D02*
X18749992Y10000000D01*
X19000000Y10500000D02*
X18749992Y10249992D01*
X18250000Y13500000D02*
X19000000Y12750000D01*
X19150000Y20400000D02*
X20000000Y19550000D01*
X20000000Y19550000D02*
X20000000Y17000000D01*
X19000000Y12750000D02*
X19000000Y10500000D01*
X20000000Y17000000D02*
X18250000Y15250000D01*
X18150000Y20400000D02*
X19150000Y20400000D01*
X18250000Y15250000D02*
X18250000Y13500000D01*
X18249992Y9500000D02*
X18349993Y9600001D01*
X18349993Y9600001D02*
X18749992Y10000000D01*
X5000000Y6750000D02*
X7750000Y9500000D01*
X7750000Y9500000D02*
X18249992Y9500000D01*
X3750000Y8750000D02*
X5997015Y10997015D01*
X5997015Y10997015D02*
X17193272Y10997015D01*
X17193272Y10997015D02*
X17758957Y10997015D01*
X4750000Y4750000D02*
X3750000Y5750000D01*
X3750000Y5750000D02*
X3750000Y8750000D01*
X18100000Y17750000D02*
X18000000Y17750000D01*
X14000000Y22750000D02*
X8750000Y22750000D01*
X16000000Y20750000D02*
X14000000Y22750000D01*
X8750000Y22750000D02*
X7005582Y24494418D01*
X18150000Y17800000D02*
X18100000Y17750000D01*
X7005582Y24494418D02*
X6994418Y24494418D01*
X18000000Y17750000D02*
X16000000Y19750000D01*
X16000000Y19750000D02*
X16000000Y20750000D01*
X17000000Y11755972D02*
X17758957Y10997015D01*
X17000000Y15900000D02*
X17000000Y11755972D01*
X18150000Y17800000D02*
X18150000Y17050000D01*
X18150000Y17050000D02*
X17000000Y15900000D01*
X7250000Y21750000D02*
X8250000Y21750000D01*
X5250000Y28250000D02*
X5250000Y23750000D01*
X5250000Y23750000D02*
X7250000Y21750000D01*
D10*
G36*
X23825000Y175000D02*
G01*
X175000Y175000D01*
X175000Y1928341D01*
X700000Y1928341D01*
X700000Y1711659D01*
X742273Y1499142D01*
X825193Y1298955D01*
X945575Y1118791D01*
X1098791Y965575D01*
X1278955Y845193D01*
X1479142Y762273D01*
X1691659Y720000D01*
X1908341Y720000D01*
X2120858Y762273D01*
X2321045Y845193D01*
X2501209Y965575D01*
X2654425Y1118791D01*
X2774807Y1298955D01*
X2857727Y1499142D01*
X2900000Y1711659D01*
X2900000Y1928341D01*
X2857727Y2140858D01*
X2774807Y2341045D01*
X2654425Y2521209D01*
X2501209Y2674425D01*
X2388104Y2750000D01*
X4398791Y2750000D01*
X4398791Y1050000D01*
X4403618Y1000992D01*
X4417913Y953866D01*
X4441127Y910436D01*
X4472368Y872368D01*
X4510436Y841127D01*
X4553866Y817913D01*
X4600992Y803618D01*
X4650000Y798791D01*
X6350000Y798791D01*
X6399008Y803618D01*
X6446134Y817913D01*
X6489564Y841127D01*
X6527632Y872368D01*
X6558873Y910436D01*
X6582087Y953866D01*
X6596382Y1000992D01*
X6601209Y1050000D01*
X6601209Y2008341D01*
X6940000Y2008341D01*
X6940000Y1791659D01*
X6982273Y1579142D01*
X7065193Y1378955D01*
X7185575Y1198791D01*
X7338791Y1045575D01*
X7518955Y925193D01*
X7719142Y842273D01*
X7931659Y800000D01*
X8148341Y800000D01*
X8360858Y842273D01*
X8561045Y925193D01*
X8741209Y1045575D01*
X8894425Y1198791D01*
X9014807Y1378955D01*
X9097727Y1579142D01*
X9140000Y1791659D01*
X9140000Y2008341D01*
X9480000Y2008341D01*
X9480000Y1791659D01*
X9522273Y1579142D01*
X9605193Y1378955D01*
X9725575Y1198791D01*
X9878791Y1045575D01*
X10058955Y925193D01*
X10259142Y842273D01*
X10471659Y800000D01*
X10688341Y800000D01*
X10900858Y842273D01*
X11101045Y925193D01*
X11281209Y1045575D01*
X11434425Y1198791D01*
X11554807Y1378955D01*
X11637727Y1579142D01*
X11680000Y1791659D01*
X11680000Y2008341D01*
X12020000Y2008341D01*
X12020000Y1791659D01*
X12062273Y1579142D01*
X12145193Y1378955D01*
X12265575Y1198791D01*
X12418791Y1045575D01*
X12598955Y925193D01*
X12799142Y842273D01*
X13011659Y800000D01*
X13228341Y800000D01*
X13440858Y842273D01*
X13641045Y925193D01*
X13821209Y1045575D01*
X13974425Y1198791D01*
X14094807Y1378955D01*
X14177727Y1579142D01*
X14220000Y1791659D01*
X14220000Y2008341D01*
X14560000Y2008341D01*
X14560000Y1791659D01*
X14602273Y1579142D01*
X14685193Y1378955D01*
X14805575Y1198791D01*
X14958791Y1045575D01*
X15138955Y925193D01*
X15339142Y842273D01*
X15551659Y800000D01*
X15768341Y800000D01*
X15980858Y842273D01*
X16181045Y925193D01*
X16361209Y1045575D01*
X16514425Y1198791D01*
X16634807Y1378955D01*
X16717727Y1579142D01*
X16760000Y1791659D01*
X16760000Y2008341D01*
X17100000Y2008341D01*
X17100000Y1791659D01*
X17142273Y1579142D01*
X17225193Y1378955D01*
X17345575Y1198791D01*
X17498791Y1045575D01*
X17678955Y925193D01*
X17879142Y842273D01*
X18091659Y800000D01*
X18308341Y800000D01*
X18520858Y842273D01*
X18721045Y925193D01*
X18901209Y1045575D01*
X19054425Y1198791D01*
X19174807Y1378955D01*
X19257727Y1579142D01*
X19269577Y1638716D01*
X21172488Y1638716D01*
X21231140Y1445356D01*
X21331610Y1254554D01*
X21467373Y1087018D01*
X21633212Y949188D01*
X21822754Y846360D01*
X22028715Y782485D01*
X22200000Y823634D01*
X22200000Y1810000D01*
X22300000Y1810000D01*
X22300000Y823634D01*
X22471285Y782485D01*
X22677246Y846360D01*
X22866788Y949188D01*
X23032627Y1087018D01*
X23168390Y1254554D01*
X23268860Y1445356D01*
X23327512Y1638716D01*
X23286294Y1810000D01*
X22300000Y1810000D01*
X22200000Y1810000D01*
X21213706Y1810000D01*
X21172488Y1638716D01*
X19269577Y1638716D01*
X19300000Y1791659D01*
X19300000Y2008341D01*
X19285491Y2081284D01*
X21172488Y2081284D01*
X21213706Y1910000D01*
X22200000Y1910000D01*
X22200000Y2896366D01*
X22300000Y2896366D01*
X22300000Y1910000D01*
X23286294Y1910000D01*
X23327512Y2081284D01*
X23268860Y2274644D01*
X23168390Y2465446D01*
X23032627Y2632982D01*
X22866788Y2770812D01*
X22677246Y2873640D01*
X22471285Y2937515D01*
X22300000Y2896366D01*
X22200000Y2896366D01*
X22028715Y2937515D01*
X21822754Y2873640D01*
X21633212Y2770812D01*
X21467373Y2632982D01*
X21331610Y2465446D01*
X21231140Y2274644D01*
X21172488Y2081284D01*
X19285491Y2081284D01*
X19257727Y2220858D01*
X19174807Y2421045D01*
X19054425Y2601209D01*
X18901209Y2754425D01*
X18721045Y2874807D01*
X18520858Y2957727D01*
X18308341Y3000000D01*
X18091659Y3000000D01*
X17879142Y2957727D01*
X17678955Y2874807D01*
X17498791Y2754425D01*
X17345575Y2601209D01*
X17225193Y2421045D01*
X17142273Y2220858D01*
X17100000Y2008341D01*
X16760000Y2008341D01*
X16717727Y2220858D01*
X16634807Y2421045D01*
X16514425Y2601209D01*
X16361209Y2754425D01*
X16181045Y2874807D01*
X15980858Y2957727D01*
X15768341Y3000000D01*
X15551659Y3000000D01*
X15339142Y2957727D01*
X15138955Y2874807D01*
X14958791Y2754425D01*
X14805575Y2601209D01*
X14685193Y2421045D01*
X14602273Y2220858D01*
X14560000Y2008341D01*
X14220000Y2008341D01*
X14177727Y2220858D01*
X14094807Y2421045D01*
X13974425Y2601209D01*
X13821209Y2754425D01*
X13641045Y2874807D01*
X13440858Y2957727D01*
X13228341Y3000000D01*
X13011659Y3000000D01*
X12799142Y2957727D01*
X12598955Y2874807D01*
X12418791Y2754425D01*
X12265575Y2601209D01*
X12145193Y2421045D01*
X12062273Y2220858D01*
X12020000Y2008341D01*
X11680000Y2008341D01*
X11637727Y2220858D01*
X11554807Y2421045D01*
X11434425Y2601209D01*
X11281209Y2754425D01*
X11101045Y2874807D01*
X10900858Y2957727D01*
X10688341Y3000000D01*
X10471659Y3000000D01*
X10259142Y2957727D01*
X10058955Y2874807D01*
X9878791Y2754425D01*
X9725575Y2601209D01*
X9605193Y2421045D01*
X9522273Y2220858D01*
X9480000Y2008341D01*
X9140000Y2008341D01*
X9097727Y2220858D01*
X9014807Y2421045D01*
X8894425Y2601209D01*
X8741209Y2754425D01*
X8561045Y2874807D01*
X8360858Y2957727D01*
X8148341Y3000000D01*
X7931659Y3000000D01*
X7719142Y2957727D01*
X7518955Y2874807D01*
X7338791Y2754425D01*
X7185575Y2601209D01*
X7065193Y2421045D01*
X6982273Y2220858D01*
X6940000Y2008341D01*
X6601209Y2008341D01*
X6601209Y2750000D01*
X6596382Y2799008D01*
X6582087Y2846134D01*
X6558873Y2889564D01*
X6527632Y2927632D01*
X6489564Y2958873D01*
X6446134Y2982087D01*
X6399008Y2996382D01*
X6350000Y3001209D01*
X4650000Y3001209D01*
X4600992Y2996382D01*
X4553866Y2982087D01*
X4510436Y2958873D01*
X4472368Y2927632D01*
X4441127Y2889564D01*
X4417913Y2846134D01*
X4403618Y2799008D01*
X4398791Y2750000D01*
X2388104Y2750000D01*
X2321045Y2794807D01*
X2120858Y2877727D01*
X1908341Y2920000D01*
X1691659Y2920000D01*
X1479142Y2877727D01*
X1278955Y2794807D01*
X1098791Y2674425D01*
X945575Y2521209D01*
X825193Y2341045D01*
X742273Y2140858D01*
X700000Y1928341D01*
X175000Y1928341D01*
X175000Y4468341D01*
X700000Y4468341D01*
X700000Y4251659D01*
X742273Y4039142D01*
X825193Y3838955D01*
X945575Y3658791D01*
X1098791Y3505575D01*
X1278955Y3385193D01*
X1479142Y3302273D01*
X1691659Y3260000D01*
X1908341Y3260000D01*
X2120858Y3302273D01*
X2321045Y3385193D01*
X2501209Y3505575D01*
X2654425Y3658791D01*
X2774807Y3838955D01*
X2857727Y4039142D01*
X2900000Y4251659D01*
X2900000Y4468341D01*
X2857727Y4680858D01*
X2774807Y4881045D01*
X2654425Y5061209D01*
X2501209Y5214425D01*
X2321045Y5334807D01*
X2120858Y5417727D01*
X1908341Y5460000D01*
X1691659Y5460000D01*
X1479142Y5417727D01*
X1278955Y5334807D01*
X1098791Y5214425D01*
X945575Y5061209D01*
X825193Y4881045D01*
X742273Y4680858D01*
X700000Y4468341D01*
X175000Y4468341D01*
X175000Y7008341D01*
X700000Y7008341D01*
X700000Y6791659D01*
X742273Y6579142D01*
X825193Y6378955D01*
X945575Y6198791D01*
X1098791Y6045575D01*
X1278955Y5925193D01*
X1479142Y5842273D01*
X1691659Y5800000D01*
X1908341Y5800000D01*
X2120858Y5842273D01*
X2321045Y5925193D01*
X2501209Y6045575D01*
X2654425Y6198791D01*
X2774807Y6378955D01*
X2857727Y6579142D01*
X2900000Y6791659D01*
X2900000Y7008341D01*
X2857727Y7220858D01*
X2774807Y7421045D01*
X2654425Y7601209D01*
X2501209Y7754425D01*
X2321045Y7874807D01*
X2120858Y7957727D01*
X1908341Y8000000D01*
X1691659Y8000000D01*
X1479142Y7957727D01*
X1278955Y7874807D01*
X1098791Y7754425D01*
X945575Y7601209D01*
X825193Y7421045D01*
X742273Y7220858D01*
X700000Y7008341D01*
X175000Y7008341D01*
X175000Y9548341D01*
X700000Y9548341D01*
X700000Y9331659D01*
X742273Y9119142D01*
X825193Y8918955D01*
X945575Y8738791D01*
X1098791Y8585575D01*
X1278955Y8465193D01*
X1479142Y8382273D01*
X1691659Y8340000D01*
X1908341Y8340000D01*
X2120858Y8382273D01*
X2321045Y8465193D01*
X2501209Y8585575D01*
X2654425Y8738791D01*
X2661914Y8750000D01*
X3297824Y8750000D01*
X3300001Y8727896D01*
X3300000Y5772095D01*
X3297824Y5750000D01*
X3300000Y5727906D01*
X3300000Y5727896D01*
X3306511Y5661786D01*
X3332243Y5576960D01*
X3374029Y5498784D01*
X3414065Y5450000D01*
X3430263Y5430263D01*
X3447434Y5416171D01*
X4100000Y4763604D01*
X4100000Y4685981D01*
X4124979Y4560402D01*
X4173978Y4442110D01*
X4245112Y4335649D01*
X4335649Y4245112D01*
X4442110Y4173978D01*
X4560402Y4124979D01*
X4685981Y4100000D01*
X4814019Y4100000D01*
X4939598Y4124979D01*
X5057890Y4173978D01*
X5164351Y4245112D01*
X5254888Y4335649D01*
X5326022Y4442110D01*
X5375021Y4560402D01*
X5392842Y4650000D01*
X16998790Y4650000D01*
X17003617Y4600991D01*
X17017912Y4553866D01*
X17041127Y4510435D01*
X17072368Y4472368D01*
X17110435Y4441127D01*
X17153866Y4417912D01*
X17200991Y4403617D01*
X17250000Y4398790D01*
X18137500Y4400000D01*
X18200000Y4462500D01*
X18200000Y5350000D01*
X18300000Y5350000D01*
X18300000Y4462500D01*
X18362500Y4400000D01*
X19250000Y4398790D01*
X19299009Y4403617D01*
X19346134Y4417912D01*
X19389565Y4441127D01*
X19427632Y4472368D01*
X19458873Y4510435D01*
X19482088Y4553866D01*
X19496383Y4600991D01*
X19501210Y4650000D01*
X19500072Y5250000D01*
X21148791Y5250000D01*
X21148791Y3550000D01*
X21153618Y3500992D01*
X21167913Y3453866D01*
X21191127Y3410436D01*
X21222368Y3372368D01*
X21260436Y3341127D01*
X21303866Y3317913D01*
X21350992Y3303618D01*
X21400000Y3298791D01*
X23100000Y3298791D01*
X23149008Y3303618D01*
X23196134Y3317913D01*
X23239564Y3341127D01*
X23277632Y3372368D01*
X23308873Y3410436D01*
X23332087Y3453866D01*
X23346382Y3500992D01*
X23351209Y3550000D01*
X23351209Y5250000D01*
X23346382Y5299008D01*
X23332087Y5346134D01*
X23308873Y5389564D01*
X23277632Y5427632D01*
X23239564Y5458873D01*
X23196134Y5482087D01*
X23149008Y5496382D01*
X23100000Y5501209D01*
X21400000Y5501209D01*
X21350992Y5496382D01*
X21303866Y5482087D01*
X21260436Y5458873D01*
X21222368Y5427632D01*
X21191127Y5389564D01*
X21167913Y5346134D01*
X21153618Y5299008D01*
X21148791Y5250000D01*
X19500072Y5250000D01*
X19500000Y5287500D01*
X19437500Y5350000D01*
X18300000Y5350000D01*
X18200000Y5350000D01*
X17062500Y5350000D01*
X17000000Y5287500D01*
X16998790Y4650000D01*
X5392842Y4650000D01*
X5400000Y4685981D01*
X5400000Y4814019D01*
X5375021Y4939598D01*
X5326022Y5057890D01*
X5254888Y5164351D01*
X5164351Y5254888D01*
X5057890Y5326022D01*
X4939598Y5375021D01*
X4814019Y5400000D01*
X4736396Y5400000D01*
X4200000Y5936395D01*
X4200000Y6814019D01*
X4350000Y6814019D01*
X4350000Y6685981D01*
X4374979Y6560402D01*
X4423978Y6442110D01*
X4495112Y6335649D01*
X4585649Y6245112D01*
X4692110Y6173978D01*
X4810402Y6124979D01*
X4935981Y6100000D01*
X5064019Y6100000D01*
X5189598Y6124979D01*
X5250002Y6150000D01*
X16998790Y6150000D01*
X17000000Y5512500D01*
X17062500Y5450000D01*
X18200000Y5450000D01*
X18200000Y6337500D01*
X18300000Y6337500D01*
X18300000Y5450000D01*
X19437500Y5450000D01*
X19500000Y5512500D01*
X19501210Y6150000D01*
X19496383Y6199009D01*
X19482088Y6246134D01*
X19458873Y6289565D01*
X19427632Y6327632D01*
X19389565Y6358873D01*
X19346134Y6382088D01*
X19299009Y6396383D01*
X19250000Y6401210D01*
X18362500Y6400000D01*
X18300000Y6337500D01*
X18200000Y6337500D01*
X18137500Y6400000D01*
X17250000Y6401210D01*
X17200991Y6396383D01*
X17153866Y6382088D01*
X17110435Y6358873D01*
X17072368Y6327632D01*
X17041127Y6289565D01*
X17017912Y6246134D01*
X17003617Y6199009D01*
X16998790Y6150000D01*
X5250002Y6150000D01*
X5307890Y6173978D01*
X5414351Y6245112D01*
X5504888Y6335649D01*
X5576022Y6442110D01*
X5625021Y6560402D01*
X5650000Y6685981D01*
X5650000Y6763605D01*
X5886395Y7000000D01*
X16998790Y7000000D01*
X17003617Y6950991D01*
X17017912Y6903866D01*
X17041127Y6860435D01*
X17072368Y6822368D01*
X17110435Y6791127D01*
X17153866Y6767912D01*
X17200991Y6753617D01*
X17250000Y6748790D01*
X18137500Y6750000D01*
X18200000Y6812500D01*
X18200000Y7700000D01*
X18300000Y7700000D01*
X18300000Y6812500D01*
X18362500Y6750000D01*
X19250000Y6748790D01*
X19299009Y6753617D01*
X19346134Y6767912D01*
X19389565Y6791127D01*
X19427632Y6822368D01*
X19458873Y6860435D01*
X19482088Y6903866D01*
X19496383Y6950991D01*
X19501210Y7000000D01*
X19500000Y7637500D01*
X19437500Y7700000D01*
X18300000Y7700000D01*
X18200000Y7700000D01*
X17062500Y7700000D01*
X17000000Y7637500D01*
X16998790Y7000000D01*
X5886395Y7000000D01*
X7386395Y8500000D01*
X16998790Y8500000D01*
X17000000Y7862500D01*
X17062500Y7800000D01*
X18200000Y7800000D01*
X18200000Y8687500D01*
X18300000Y8687500D01*
X18300000Y7800000D01*
X19437500Y7800000D01*
X19500000Y7862500D01*
X19500640Y8200001D01*
X19948791Y8200001D01*
X19948791Y7299999D01*
X19958422Y7202218D01*
X19986943Y7108195D01*
X20033260Y7021543D01*
X20095591Y6945591D01*
X20171543Y6883260D01*
X20258195Y6836943D01*
X20352218Y6808422D01*
X20449999Y6798791D01*
X21100001Y6798791D01*
X21197782Y6808422D01*
X21291805Y6836943D01*
X21378457Y6883260D01*
X21454409Y6945591D01*
X21516740Y7021543D01*
X21531950Y7050000D01*
X21998790Y7050000D01*
X22003617Y7000991D01*
X22017912Y6953866D01*
X22041127Y6910435D01*
X22072368Y6872368D01*
X22110435Y6841127D01*
X22153866Y6817912D01*
X22200991Y6803617D01*
X22250000Y6798790D01*
X22712500Y6800000D01*
X22775000Y6862500D01*
X22775000Y7700000D01*
X22875000Y7700000D01*
X22875000Y6862500D01*
X22937500Y6800000D01*
X23400000Y6798790D01*
X23449009Y6803617D01*
X23496134Y6817912D01*
X23539565Y6841127D01*
X23577632Y6872368D01*
X23608873Y6910435D01*
X23632088Y6953866D01*
X23646383Y7000991D01*
X23651210Y7050000D01*
X23650000Y7637500D01*
X23587500Y7700000D01*
X22875000Y7700000D01*
X22775000Y7700000D01*
X22062500Y7700000D01*
X22000000Y7637500D01*
X21998790Y7050000D01*
X21531950Y7050000D01*
X21563057Y7108195D01*
X21591578Y7202218D01*
X21601209Y7299999D01*
X21601209Y8200001D01*
X21591578Y8297782D01*
X21563057Y8391805D01*
X21531951Y8450000D01*
X21998790Y8450000D01*
X22000000Y7862500D01*
X22062500Y7800000D01*
X22775000Y7800000D01*
X22775000Y8637500D01*
X22875000Y8637500D01*
X22875000Y7800000D01*
X23587500Y7800000D01*
X23650000Y7862500D01*
X23651210Y8450000D01*
X23646383Y8499009D01*
X23632088Y8546134D01*
X23608873Y8589565D01*
X23577632Y8627632D01*
X23539565Y8658873D01*
X23496134Y8682088D01*
X23449009Y8696383D01*
X23400000Y8701210D01*
X22937500Y8700000D01*
X22875000Y8637500D01*
X22775000Y8637500D01*
X22712500Y8700000D01*
X22250000Y8701210D01*
X22200991Y8696383D01*
X22153866Y8682088D01*
X22110435Y8658873D01*
X22072368Y8627632D01*
X22041127Y8589565D01*
X22017912Y8546134D01*
X22003617Y8499009D01*
X21998790Y8450000D01*
X21531951Y8450000D01*
X21516740Y8478457D01*
X21454409Y8554409D01*
X21446937Y8560541D01*
X22135187Y9248791D01*
X22875000Y9248791D01*
X22997167Y9260823D01*
X23114640Y9296458D01*
X23222903Y9354326D01*
X23317797Y9432203D01*
X23395674Y9527097D01*
X23453542Y9635360D01*
X23489177Y9752833D01*
X23501209Y9875000D01*
X23501209Y10625000D01*
X23489177Y10747167D01*
X23453542Y10864640D01*
X23395674Y10972903D01*
X23317797Y11067797D01*
X23222903Y11145674D01*
X23114640Y11203542D01*
X22997167Y11239177D01*
X22875000Y11251209D01*
X21625000Y11251209D01*
X21502833Y11239177D01*
X21385360Y11203542D01*
X21277097Y11145674D01*
X21182203Y11067797D01*
X21104326Y10972903D01*
X21046458Y10864640D01*
X21010823Y10747167D01*
X20998791Y10625000D01*
X20998791Y9875000D01*
X21010823Y9752833D01*
X21046458Y9635360D01*
X21104326Y9527097D01*
X21120722Y9507118D01*
X20472434Y8858829D01*
X20455263Y8844737D01*
X20441172Y8827567D01*
X20399029Y8776216D01*
X20383083Y8746383D01*
X20357243Y8698040D01*
X20355377Y8691889D01*
X20352218Y8691578D01*
X20258195Y8663057D01*
X20171543Y8616740D01*
X20095591Y8554409D01*
X20033260Y8478457D01*
X19986943Y8391805D01*
X19958422Y8297782D01*
X19948791Y8200001D01*
X19500640Y8200001D01*
X19501210Y8500000D01*
X19496383Y8549009D01*
X19482088Y8596134D01*
X19458873Y8639565D01*
X19427632Y8677632D01*
X19389565Y8708873D01*
X19346134Y8732088D01*
X19299009Y8746383D01*
X19250000Y8751210D01*
X18362500Y8750000D01*
X18300000Y8687500D01*
X18200000Y8687500D01*
X18137500Y8750000D01*
X17250000Y8751210D01*
X17200991Y8746383D01*
X17153866Y8732088D01*
X17110435Y8708873D01*
X17072368Y8677632D01*
X17041127Y8639565D01*
X17017912Y8596134D01*
X17003617Y8549009D01*
X16998790Y8500000D01*
X7386395Y8500000D01*
X7936396Y9050000D01*
X18227898Y9050000D01*
X18249992Y9047824D01*
X18272086Y9050000D01*
X18272097Y9050000D01*
X18338207Y9056511D01*
X18423033Y9082243D01*
X18501208Y9124029D01*
X18569729Y9180263D01*
X18583821Y9197434D01*
X18736387Y9350000D01*
X18814011Y9350000D01*
X18939590Y9374979D01*
X19057882Y9423978D01*
X19164343Y9495112D01*
X19254880Y9585649D01*
X19326014Y9692110D01*
X19375013Y9810402D01*
X19399992Y9935981D01*
X19399992Y10064019D01*
X19375013Y10189598D01*
X19359042Y10228156D01*
X19375971Y10248784D01*
X19417757Y10326959D01*
X19443489Y10411785D01*
X19450000Y10477895D01*
X19450000Y10477906D01*
X19452176Y10500000D01*
X19450000Y10522094D01*
X19450000Y12727907D01*
X19452176Y12750001D01*
X19450000Y12772095D01*
X19450000Y12772105D01*
X19443489Y12838215D01*
X19417757Y12923041D01*
X19403347Y12950000D01*
X19375971Y13001217D01*
X19333828Y13052568D01*
X19333824Y13052572D01*
X19319737Y13069737D01*
X19302573Y13083823D01*
X18700000Y13686395D01*
X18700000Y14153165D01*
X18745112Y14085649D01*
X18835649Y13995112D01*
X18942110Y13923978D01*
X19060402Y13874979D01*
X19106342Y13865841D01*
X19700010Y13272173D01*
X19700011Y10842712D01*
X19700010Y10842702D01*
X19700010Y10596835D01*
X19673988Y10557890D01*
X19624989Y10439598D01*
X19600010Y10314019D01*
X19600010Y10185981D01*
X19624989Y10060402D01*
X19673988Y9942110D01*
X19745122Y9835649D01*
X19835659Y9745112D01*
X19942120Y9673978D01*
X20060412Y9624979D01*
X20185991Y9600000D01*
X20314029Y9600000D01*
X20439608Y9624979D01*
X20557900Y9673978D01*
X20664361Y9745112D01*
X20754898Y9835649D01*
X20826032Y9942110D01*
X20875031Y10060402D01*
X20900010Y10185981D01*
X20900010Y10314019D01*
X20875031Y10439598D01*
X20826032Y10557890D01*
X20800010Y10596835D01*
X20800010Y12950000D01*
X21026850Y12950000D01*
X21046458Y12885360D01*
X21104326Y12777097D01*
X21182203Y12682203D01*
X21277097Y12604326D01*
X21385360Y12546458D01*
X21502833Y12510823D01*
X21625000Y12498791D01*
X22875000Y12498791D01*
X22997167Y12510823D01*
X23114640Y12546458D01*
X23222903Y12604326D01*
X23317797Y12682203D01*
X23395674Y12777097D01*
X23453542Y12885360D01*
X23489177Y13002833D01*
X23501209Y13125000D01*
X23501209Y13875000D01*
X23489177Y13997167D01*
X23453542Y14114640D01*
X23395674Y14222903D01*
X23317797Y14317797D01*
X23222903Y14395674D01*
X23114640Y14453542D01*
X22997167Y14489177D01*
X22875000Y14501209D01*
X21625000Y14501209D01*
X21502833Y14489177D01*
X21385360Y14453542D01*
X21277097Y14395674D01*
X21182203Y14317797D01*
X21104326Y14222903D01*
X21046458Y14114640D01*
X21026850Y14050000D01*
X20477817Y14050000D01*
X19884159Y14643658D01*
X19875021Y14689598D01*
X19826022Y14807890D01*
X19754888Y14914351D01*
X19669239Y15000000D01*
X20998790Y15000000D01*
X21003617Y14950991D01*
X21017912Y14903866D01*
X21041127Y14860435D01*
X21072368Y14822368D01*
X21110435Y14791127D01*
X21153866Y14767912D01*
X21200991Y14753617D01*
X21250000Y14748790D01*
X22137500Y14750000D01*
X22200000Y14812500D01*
X22200000Y15700000D01*
X22300000Y15700000D01*
X22300000Y14812500D01*
X22362500Y14750000D01*
X23250000Y14748790D01*
X23299009Y14753617D01*
X23346134Y14767912D01*
X23389565Y14791127D01*
X23427632Y14822368D01*
X23458873Y14860435D01*
X23482088Y14903866D01*
X23496383Y14950991D01*
X23501210Y15000000D01*
X23500000Y15637500D01*
X23437500Y15700000D01*
X22300000Y15700000D01*
X22200000Y15700000D01*
X21062500Y15700000D01*
X21000000Y15637500D01*
X20998790Y15000000D01*
X19669239Y15000000D01*
X19664351Y15004888D01*
X19557890Y15076022D01*
X19439598Y15125021D01*
X19314019Y15150000D01*
X19185981Y15150000D01*
X19060402Y15125021D01*
X18942110Y15076022D01*
X18835649Y15004888D01*
X18745112Y14914351D01*
X18700000Y14846835D01*
X18700000Y15063605D01*
X20136395Y16500000D01*
X20998790Y16500000D01*
X21000000Y15862500D01*
X21062500Y15800000D01*
X22200000Y15800000D01*
X22200000Y16687500D01*
X22300000Y16687500D01*
X22300000Y15800000D01*
X23437500Y15800000D01*
X23500000Y15862500D01*
X23501210Y16500000D01*
X23496383Y16549009D01*
X23482088Y16596134D01*
X23458873Y16639565D01*
X23427632Y16677632D01*
X23389565Y16708873D01*
X23346134Y16732088D01*
X23299009Y16746383D01*
X23250000Y16751210D01*
X22362500Y16750000D01*
X22300000Y16687500D01*
X22200000Y16687500D01*
X22137500Y16750000D01*
X21250000Y16751210D01*
X21200991Y16746383D01*
X21153866Y16732088D01*
X21110435Y16708873D01*
X21072368Y16677632D01*
X21041127Y16639565D01*
X21017912Y16596134D01*
X21003617Y16549009D01*
X20998790Y16500000D01*
X20136395Y16500000D01*
X20302572Y16666176D01*
X20319737Y16680263D01*
X20333824Y16697428D01*
X20333828Y16697432D01*
X20375971Y16748783D01*
X20417757Y16826959D01*
X20423672Y16846458D01*
X20443489Y16911785D01*
X20450000Y16977895D01*
X20450000Y16977906D01*
X20452176Y17000000D01*
X20450000Y17022094D01*
X20450000Y18818341D01*
X21150000Y18818341D01*
X21150000Y18601659D01*
X21192273Y18389142D01*
X21275193Y18188955D01*
X21395575Y18008791D01*
X21548791Y17855575D01*
X21728955Y17735193D01*
X21929142Y17652273D01*
X22141659Y17610000D01*
X22358341Y17610000D01*
X22570858Y17652273D01*
X22771045Y17735193D01*
X22951209Y17855575D01*
X23104425Y18008791D01*
X23224807Y18188955D01*
X23307727Y18389142D01*
X23350000Y18601659D01*
X23350000Y18818341D01*
X23307727Y19030858D01*
X23224807Y19231045D01*
X23104425Y19411209D01*
X22951209Y19564425D01*
X22771045Y19684807D01*
X22570858Y19767727D01*
X22358341Y19810000D01*
X22141659Y19810000D01*
X21929142Y19767727D01*
X21728955Y19684807D01*
X21548791Y19564425D01*
X21395575Y19411209D01*
X21275193Y19231045D01*
X21192273Y19030858D01*
X21150000Y18818341D01*
X20450000Y18818341D01*
X20450000Y19527906D01*
X20452176Y19550000D01*
X20450000Y19572094D01*
X20450000Y19572105D01*
X20443489Y19638215D01*
X20417757Y19723041D01*
X20403347Y19750000D01*
X20375971Y19801217D01*
X20333828Y19852568D01*
X20333824Y19852572D01*
X20319737Y19869737D01*
X20302573Y19883823D01*
X19483829Y20702567D01*
X19469737Y20719737D01*
X19401216Y20775971D01*
X19401108Y20776029D01*
X19389177Y20897167D01*
X19353542Y21014640D01*
X19295674Y21122903D01*
X19217797Y21217797D01*
X19122903Y21295674D01*
X19014640Y21353542D01*
X18897167Y21389177D01*
X18775000Y21401209D01*
X17985187Y21401209D01*
X17286396Y22100000D01*
X21148791Y22100000D01*
X21148791Y20400000D01*
X21153618Y20350992D01*
X21167913Y20303866D01*
X21191127Y20260436D01*
X21222368Y20222368D01*
X21260436Y20191127D01*
X21303866Y20167913D01*
X21350992Y20153618D01*
X21400000Y20148791D01*
X23100000Y20148791D01*
X23149008Y20153618D01*
X23196134Y20167913D01*
X23239564Y20191127D01*
X23277632Y20222368D01*
X23308873Y20260436D01*
X23332087Y20303866D01*
X23346382Y20350992D01*
X23351209Y20400000D01*
X23351209Y22100000D01*
X23346382Y22149008D01*
X23332087Y22196134D01*
X23308873Y22239564D01*
X23277632Y22277632D01*
X23239564Y22308873D01*
X23196134Y22332087D01*
X23149008Y22346382D01*
X23100000Y22351209D01*
X21400000Y22351209D01*
X21350992Y22346382D01*
X21303866Y22332087D01*
X21260436Y22308873D01*
X21222368Y22277632D01*
X21191127Y22239564D01*
X21167913Y22196134D01*
X21153618Y22149008D01*
X21148791Y22100000D01*
X17286396Y22100000D01*
X15333827Y24052568D01*
X15319737Y24069737D01*
X15251216Y24125971D01*
X15173041Y24167757D01*
X15088215Y24193489D01*
X15022105Y24200000D01*
X15022094Y24200000D01*
X15000000Y24202176D01*
X14977906Y24200000D01*
X10436396Y24200000D01*
X10386396Y24250000D01*
X15998790Y24250000D01*
X16003617Y24200991D01*
X16017912Y24153866D01*
X16041127Y24110435D01*
X16072368Y24072368D01*
X16110435Y24041127D01*
X16153866Y24017912D01*
X16200991Y24003617D01*
X16250000Y23998790D01*
X17137500Y24000000D01*
X17200000Y24062500D01*
X17200000Y24950000D01*
X17300000Y24950000D01*
X17300000Y24062500D01*
X17362500Y24000000D01*
X18250000Y23998790D01*
X18299009Y24003617D01*
X18346134Y24017912D01*
X18389565Y24041127D01*
X18427632Y24072368D01*
X18458873Y24110435D01*
X18482088Y24153866D01*
X18496383Y24200991D01*
X18501210Y24250000D01*
X18500000Y24887500D01*
X18437500Y24950000D01*
X17300000Y24950000D01*
X17200000Y24950000D01*
X16062500Y24950000D01*
X16000000Y24887500D01*
X15998790Y24250000D01*
X10386396Y24250000D01*
X9150000Y25486395D01*
X9150000Y25564019D01*
X9125021Y25689598D01*
X9100002Y25750000D01*
X15998790Y25750000D01*
X16000000Y25112500D01*
X16062500Y25050000D01*
X17200000Y25050000D01*
X17200000Y25937500D01*
X17300000Y25937500D01*
X17300000Y25050000D01*
X18437500Y25050000D01*
X18500000Y25112500D01*
X18501210Y25750000D01*
X18496383Y25799009D01*
X18482088Y25846134D01*
X18458873Y25889565D01*
X18427632Y25927632D01*
X18389565Y25958873D01*
X18346134Y25982088D01*
X18299009Y25996383D01*
X18250000Y26001210D01*
X17362500Y26000000D01*
X17300000Y25937500D01*
X17200000Y25937500D01*
X17137500Y26000000D01*
X16250000Y26001210D01*
X16200991Y25996383D01*
X16153866Y25982088D01*
X16110435Y25958873D01*
X16072368Y25927632D01*
X16041127Y25889565D01*
X16017912Y25846134D01*
X16003617Y25799009D01*
X15998790Y25750000D01*
X9100002Y25750000D01*
X9076022Y25807890D01*
X9004888Y25914351D01*
X8914351Y26004888D01*
X8807890Y26076022D01*
X8689598Y26125021D01*
X8564019Y26150000D01*
X8435981Y26150000D01*
X8310402Y26125021D01*
X8192110Y26076022D01*
X8085649Y26004888D01*
X7995112Y25914351D01*
X7923978Y25807890D01*
X7874979Y25689598D01*
X7850000Y25564019D01*
X7850000Y25435981D01*
X7874979Y25310402D01*
X7923978Y25192110D01*
X7995112Y25085649D01*
X8085649Y24995112D01*
X8192110Y24923978D01*
X8310402Y24874979D01*
X8435981Y24850000D01*
X8513605Y24850000D01*
X9916176Y23447428D01*
X9930263Y23430263D01*
X9947428Y23416176D01*
X9947432Y23416172D01*
X9998783Y23374029D01*
X10076959Y23332243D01*
X10161785Y23306511D01*
X10227895Y23300000D01*
X10227906Y23300000D01*
X10250000Y23297824D01*
X10272094Y23300000D01*
X14813605Y23300000D01*
X16999580Y21114024D01*
X16946458Y21014640D01*
X16910823Y20897167D01*
X16898791Y20775000D01*
X16898791Y20025000D01*
X16910823Y19902833D01*
X16946458Y19785360D01*
X17004326Y19677097D01*
X17082203Y19582203D01*
X17177097Y19504326D01*
X17285360Y19446458D01*
X17402833Y19410823D01*
X17525000Y19398791D01*
X18775000Y19398791D01*
X18897167Y19410823D01*
X19014640Y19446458D01*
X19122903Y19504326D01*
X19217797Y19582203D01*
X19269005Y19644600D01*
X19550000Y19363604D01*
X19550001Y17186397D01*
X17947434Y15583829D01*
X17930263Y15569737D01*
X17916173Y15552568D01*
X17916172Y15552567D01*
X17874029Y15501216D01*
X17836104Y15430263D01*
X17832243Y15423040D01*
X17806511Y15338214D01*
X17800000Y15272104D01*
X17800000Y15272094D01*
X17797824Y15250000D01*
X17800000Y15227905D01*
X17800001Y13522104D01*
X17797824Y13500000D01*
X17806512Y13411785D01*
X17832243Y13326960D01*
X17874029Y13248784D01*
X17916172Y13197433D01*
X17916177Y13197428D01*
X17930264Y13180263D01*
X17947429Y13166176D01*
X18550000Y12563604D01*
X18550001Y10686396D01*
X18447426Y10583821D01*
X18430255Y10569729D01*
X18427306Y10566136D01*
X18335641Y10504888D01*
X18245104Y10414351D01*
X18173970Y10307890D01*
X18124971Y10189598D01*
X18099992Y10064019D01*
X18099992Y9986395D01*
X18063597Y9950000D01*
X7772091Y9950000D01*
X7749999Y9952176D01*
X7727907Y9950000D01*
X7727895Y9950000D01*
X7661785Y9943489D01*
X7576959Y9917757D01*
X7498783Y9875971D01*
X7447432Y9833828D01*
X7447428Y9833824D01*
X7430263Y9819737D01*
X7416176Y9802572D01*
X5013605Y7400000D01*
X4935981Y7400000D01*
X4810402Y7375021D01*
X4692110Y7326022D01*
X4585649Y7254888D01*
X4495112Y7164351D01*
X4423978Y7057890D01*
X4374979Y6939598D01*
X4350000Y6814019D01*
X4200000Y6814019D01*
X4200000Y8563605D01*
X6183411Y10547015D01*
X17289718Y10547015D01*
X17344606Y10492127D01*
X17451067Y10420993D01*
X17569359Y10371994D01*
X17694938Y10347015D01*
X17822976Y10347015D01*
X17948555Y10371994D01*
X18066847Y10420993D01*
X18173308Y10492127D01*
X18263845Y10582664D01*
X18334979Y10689125D01*
X18383978Y10807417D01*
X18408957Y10932996D01*
X18408957Y11061034D01*
X18383978Y11186613D01*
X18334979Y11304905D01*
X18263845Y11411366D01*
X18173308Y11501903D01*
X18066847Y11573037D01*
X17948555Y11622036D01*
X17822976Y11647015D01*
X17745353Y11647015D01*
X17450000Y11942367D01*
X17450000Y15713605D01*
X18452572Y16716176D01*
X18469737Y16730263D01*
X18483824Y16747428D01*
X18483828Y16747432D01*
X18525971Y16798783D01*
X18525975Y16798791D01*
X18775000Y16798791D01*
X18897167Y16810823D01*
X19014640Y16846458D01*
X19122903Y16904326D01*
X19217797Y16982203D01*
X19295674Y17077097D01*
X19353542Y17185360D01*
X19389177Y17302833D01*
X19401209Y17425000D01*
X19401209Y18175000D01*
X19389177Y18297167D01*
X19353542Y18414640D01*
X19295674Y18522903D01*
X19217797Y18617797D01*
X19122903Y18695674D01*
X19014640Y18753542D01*
X18897167Y18789177D01*
X18775000Y18801209D01*
X17585187Y18801209D01*
X16450000Y19936395D01*
X16450000Y20727906D01*
X16452176Y20750001D01*
X16450000Y20772095D01*
X16450000Y20772105D01*
X16443489Y20838215D01*
X16417757Y20923041D01*
X16401454Y20953542D01*
X16375971Y21001217D01*
X16333828Y21052568D01*
X16333824Y21052572D01*
X16319737Y21069737D01*
X16302572Y21083824D01*
X14333827Y23052568D01*
X14319737Y23069737D01*
X14251216Y23125971D01*
X14173041Y23167757D01*
X14088215Y23193489D01*
X14022105Y23200000D01*
X14022094Y23200000D01*
X14000000Y23202176D01*
X13977906Y23200000D01*
X8936396Y23200000D01*
X7644418Y24491977D01*
X7644418Y24558437D01*
X7619439Y24684016D01*
X7570440Y24802308D01*
X7499306Y24908769D01*
X7408769Y24999306D01*
X7302308Y25070440D01*
X7184016Y25119439D01*
X7058437Y25144418D01*
X6930399Y25144418D01*
X6804820Y25119439D01*
X6686528Y25070440D01*
X6580067Y24999306D01*
X6489530Y24908769D01*
X6418396Y24802308D01*
X6369397Y24684016D01*
X6344418Y24558437D01*
X6344418Y24430399D01*
X6369397Y24304820D01*
X6418396Y24186528D01*
X6489530Y24080067D01*
X6580067Y23989530D01*
X6686528Y23918396D01*
X6804820Y23869397D01*
X6930399Y23844418D01*
X7019187Y23844418D01*
X8416176Y22447428D01*
X8430263Y22430263D01*
X8447428Y22416176D01*
X8447432Y22416172D01*
X8498783Y22374029D01*
X8550507Y22346382D01*
X8576959Y22332243D01*
X8661785Y22306511D01*
X8727895Y22300000D01*
X8727906Y22300000D01*
X8750000Y22297824D01*
X8772094Y22300000D01*
X13813605Y22300000D01*
X15550001Y20563603D01*
X15550000Y19772095D01*
X15547824Y19750000D01*
X15550000Y19727906D01*
X15550000Y19727896D01*
X15556511Y19661786D01*
X15563662Y19638214D01*
X15582243Y19576960D01*
X15624029Y19498784D01*
X15654394Y19461785D01*
X15680263Y19430263D01*
X15697434Y19416171D01*
X16902361Y18211244D01*
X16898791Y18175000D01*
X16898791Y17425000D01*
X16910823Y17302833D01*
X16946458Y17185360D01*
X17004326Y17077097D01*
X17082203Y16982203D01*
X17177097Y16904326D01*
X17285360Y16846458D01*
X17304313Y16840709D01*
X16697434Y16233829D01*
X16680263Y16219737D01*
X16666172Y16202567D01*
X16624029Y16151216D01*
X16588739Y16085193D01*
X16582243Y16073040D01*
X16556511Y15988214D01*
X16550000Y15922104D01*
X16550000Y15922094D01*
X16547824Y15900000D01*
X16550000Y15877906D01*
X16550001Y11778076D01*
X16547824Y11755972D01*
X16556512Y11667757D01*
X16582243Y11582932D01*
X16624029Y11504756D01*
X16666172Y11453405D01*
X16666177Y11453400D01*
X16671417Y11447015D01*
X6019109Y11447015D01*
X5997014Y11449191D01*
X5974920Y11447015D01*
X5974910Y11447015D01*
X5908800Y11440504D01*
X5823974Y11414772D01*
X5745798Y11372986D01*
X5694447Y11330843D01*
X5694443Y11330839D01*
X5677278Y11316752D01*
X5663191Y11299587D01*
X3447429Y9083824D01*
X3430264Y9069737D01*
X3416177Y9052572D01*
X3416172Y9052567D01*
X3374029Y9001216D01*
X3332243Y8923040D01*
X3306512Y8838215D01*
X3297824Y8750000D01*
X2661914Y8750000D01*
X2774807Y8918955D01*
X2857727Y9119142D01*
X2900000Y9331659D01*
X2900000Y9548341D01*
X2857727Y9760858D01*
X2774807Y9961045D01*
X2654425Y10141209D01*
X2501209Y10294425D01*
X2321045Y10414807D01*
X2120858Y10497727D01*
X1908341Y10540000D01*
X1691659Y10540000D01*
X1479142Y10497727D01*
X1278955Y10414807D01*
X1098791Y10294425D01*
X945575Y10141209D01*
X825193Y9961045D01*
X742273Y9760858D01*
X700000Y9548341D01*
X175000Y9548341D01*
X175000Y12088341D01*
X700000Y12088341D01*
X700000Y11871659D01*
X742273Y11659142D01*
X825193Y11458955D01*
X945575Y11278791D01*
X1098791Y11125575D01*
X1278955Y11005193D01*
X1479142Y10922273D01*
X1691659Y10880000D01*
X1908341Y10880000D01*
X2120858Y10922273D01*
X2321045Y11005193D01*
X2501209Y11125575D01*
X2654425Y11278791D01*
X2774807Y11458955D01*
X2857727Y11659142D01*
X2900000Y11871659D01*
X2900000Y12088341D01*
X2857727Y12300858D01*
X2774807Y12501045D01*
X2654425Y12681209D01*
X2501209Y12834425D01*
X2321045Y12954807D01*
X2120858Y13037727D01*
X1908341Y13080000D01*
X1691659Y13080000D01*
X1479142Y13037727D01*
X1278955Y12954807D01*
X1098791Y12834425D01*
X945575Y12681209D01*
X825193Y12501045D01*
X742273Y12300858D01*
X700000Y12088341D01*
X175000Y12088341D01*
X175000Y14628341D01*
X700000Y14628341D01*
X700000Y14411659D01*
X742273Y14199142D01*
X825193Y13998955D01*
X945575Y13818791D01*
X1098791Y13665575D01*
X1278955Y13545193D01*
X1479142Y13462273D01*
X1691659Y13420000D01*
X1908341Y13420000D01*
X2120858Y13462273D01*
X2321045Y13545193D01*
X2501209Y13665575D01*
X2654425Y13818791D01*
X2774807Y13998955D01*
X2857727Y14199142D01*
X2897680Y14400000D01*
X4798790Y14400000D01*
X4803617Y14350991D01*
X4817912Y14303866D01*
X4841127Y14260435D01*
X4872368Y14222368D01*
X4910435Y14191127D01*
X4953866Y14167912D01*
X5000991Y14153617D01*
X5050000Y14148790D01*
X5637500Y14150000D01*
X5700000Y14212500D01*
X5700000Y14925000D01*
X5800000Y14925000D01*
X5800000Y14212500D01*
X5862500Y14150000D01*
X6450000Y14148790D01*
X6499009Y14153617D01*
X6546134Y14167912D01*
X6589565Y14191127D01*
X6627632Y14222368D01*
X6658873Y14260435D01*
X6682088Y14303866D01*
X6696383Y14350991D01*
X6701210Y14400000D01*
X6700000Y14862500D01*
X6637500Y14925000D01*
X5800000Y14925000D01*
X5700000Y14925000D01*
X4862500Y14925000D01*
X4800000Y14862500D01*
X4798790Y14400000D01*
X2897680Y14400000D01*
X2900000Y14411659D01*
X2900000Y14628341D01*
X2857727Y14840858D01*
X2774807Y15041045D01*
X2654425Y15221209D01*
X2501209Y15374425D01*
X2321045Y15494807D01*
X2187798Y15550000D01*
X4798790Y15550000D01*
X4800000Y15087500D01*
X4862500Y15025000D01*
X5700000Y15025000D01*
X5700000Y15737500D01*
X5800000Y15737500D01*
X5800000Y15025000D01*
X6637500Y15025000D01*
X6700000Y15087500D01*
X6701210Y15550000D01*
X6696383Y15599009D01*
X6682088Y15646134D01*
X6658873Y15689565D01*
X6627632Y15727632D01*
X6589565Y15758873D01*
X6546134Y15782088D01*
X6499009Y15796383D01*
X6450000Y15801210D01*
X5862500Y15800000D01*
X5800000Y15737500D01*
X5700000Y15737500D01*
X5637500Y15800000D01*
X5050000Y15801210D01*
X5000991Y15796383D01*
X4953866Y15782088D01*
X4910435Y15758873D01*
X4872368Y15727632D01*
X4841127Y15689565D01*
X4817912Y15646134D01*
X4803617Y15599009D01*
X4798790Y15550000D01*
X2187798Y15550000D01*
X2120858Y15577727D01*
X1908341Y15620000D01*
X1691659Y15620000D01*
X1479142Y15577727D01*
X1278955Y15494807D01*
X1098791Y15374425D01*
X945575Y15221209D01*
X825193Y15041045D01*
X742273Y14840858D01*
X700000Y14628341D01*
X175000Y14628341D01*
X175000Y17168341D01*
X700000Y17168341D01*
X700000Y16951659D01*
X742273Y16739142D01*
X825193Y16538955D01*
X945575Y16358791D01*
X1098791Y16205575D01*
X1278955Y16085193D01*
X1479142Y16002273D01*
X1691659Y15960000D01*
X1908341Y15960000D01*
X2120858Y16002273D01*
X2321045Y16085193D01*
X2501209Y16205575D01*
X2654425Y16358791D01*
X2774807Y16538955D01*
X2857727Y16739142D01*
X2900000Y16951659D01*
X2900000Y17168341D01*
X2857727Y17380858D01*
X2774807Y17581045D01*
X2654425Y17761209D01*
X2501209Y17914425D01*
X2321045Y18034807D01*
X2120858Y18117727D01*
X1908341Y18160000D01*
X1691659Y18160000D01*
X1479142Y18117727D01*
X1278955Y18034807D01*
X1098791Y17914425D01*
X945575Y17761209D01*
X825193Y17581045D01*
X742273Y17380858D01*
X700000Y17168341D01*
X175000Y17168341D01*
X175000Y20450000D01*
X698791Y20450000D01*
X698791Y18750000D01*
X703618Y18700992D01*
X717913Y18653866D01*
X741127Y18610436D01*
X772368Y18572368D01*
X810436Y18541127D01*
X853866Y18517913D01*
X900992Y18503618D01*
X950000Y18498791D01*
X2650000Y18498791D01*
X2699008Y18503618D01*
X2746134Y18517913D01*
X2789564Y18541127D01*
X2827632Y18572368D01*
X2858873Y18610436D01*
X2882087Y18653866D01*
X2896382Y18700992D01*
X2901209Y18750000D01*
X2901209Y20375000D01*
X4748791Y20375000D01*
X4748791Y19125000D01*
X4760823Y19002833D01*
X4796458Y18885360D01*
X4854326Y18777097D01*
X4932203Y18682203D01*
X5027097Y18604326D01*
X5135360Y18546458D01*
X5252833Y18510823D01*
X5300000Y18506178D01*
X5300001Y17851209D01*
X5299999Y17851209D01*
X5202218Y17841578D01*
X5108195Y17813057D01*
X5021543Y17766740D01*
X4945591Y17704409D01*
X4883260Y17628457D01*
X4836943Y17541805D01*
X4808422Y17447782D01*
X4798791Y17350001D01*
X4798791Y16699999D01*
X4808422Y16602218D01*
X4836943Y16508195D01*
X4883260Y16421543D01*
X4945591Y16345591D01*
X5021543Y16283260D01*
X5108195Y16236943D01*
X5202218Y16208422D01*
X5299999Y16198791D01*
X6200001Y16198791D01*
X6297782Y16208422D01*
X6391805Y16236943D01*
X6478457Y16283260D01*
X6554409Y16345591D01*
X6616740Y16421543D01*
X6663057Y16508195D01*
X6691578Y16602218D01*
X6701209Y16699999D01*
X6701209Y17350001D01*
X6691578Y17447782D01*
X6663057Y17541805D01*
X6616740Y17628457D01*
X6554409Y17704409D01*
X6478457Y17766740D01*
X6391805Y17813057D01*
X6297782Y17841578D01*
X6200001Y17851209D01*
X6200000Y17851209D01*
X6200000Y18506178D01*
X6247167Y18510823D01*
X6364640Y18546458D01*
X6472903Y18604326D01*
X6498094Y18625000D01*
X7047824Y18625000D01*
X7050001Y18602896D01*
X7050000Y15772095D01*
X7047824Y15750000D01*
X7050000Y15727906D01*
X7050000Y15727896D01*
X7056511Y15661786D01*
X7081241Y15580263D01*
X7082243Y15576960D01*
X7124029Y15498784D01*
X7158721Y15456512D01*
X7180263Y15430263D01*
X7197434Y15416171D01*
X8666176Y13947428D01*
X8680263Y13930263D01*
X8697428Y13916176D01*
X8697432Y13916172D01*
X8748783Y13874029D01*
X8793738Y13850000D01*
X8826959Y13832243D01*
X8911785Y13806511D01*
X8977895Y13800000D01*
X8977907Y13800000D01*
X8999999Y13797824D01*
X9022091Y13800000D01*
X9248791Y13800000D01*
X9248791Y13775000D01*
X9260823Y13652833D01*
X9296458Y13535360D01*
X9354326Y13427097D01*
X9432203Y13332203D01*
X9527097Y13254326D01*
X9635360Y13196458D01*
X9752833Y13160823D01*
X9875000Y13148791D01*
X11125000Y13148791D01*
X11247167Y13160823D01*
X11364640Y13196458D01*
X11472903Y13254326D01*
X11567797Y13332203D01*
X11645674Y13427097D01*
X11703542Y13535360D01*
X11739177Y13652833D01*
X11751209Y13775000D01*
X11751209Y14525000D01*
X11739177Y14647167D01*
X11703542Y14764640D01*
X11645674Y14872903D01*
X11567797Y14967797D01*
X11472903Y15045674D01*
X11364640Y15103542D01*
X11247167Y15139177D01*
X11125000Y15151209D01*
X9875000Y15151209D01*
X9752833Y15139177D01*
X9635360Y15103542D01*
X9527097Y15045674D01*
X9432203Y14967797D01*
X9354326Y14872903D01*
X9296458Y14764640D01*
X9276850Y14700000D01*
X9186396Y14700000D01*
X7950000Y15936395D01*
X7950000Y16500000D01*
X9248790Y16500000D01*
X9253617Y16450991D01*
X9267912Y16403866D01*
X9291127Y16360435D01*
X9322368Y16322368D01*
X9360435Y16291127D01*
X9403866Y16267912D01*
X9450991Y16253617D01*
X9500000Y16248790D01*
X10437500Y16250000D01*
X10500000Y16312500D01*
X10500000Y17350000D01*
X10600000Y17350000D01*
X10600000Y16312500D01*
X10662500Y16250000D01*
X11600000Y16248790D01*
X11649009Y16253617D01*
X11696134Y16267912D01*
X11739565Y16291127D01*
X11777632Y16322368D01*
X11808873Y16360435D01*
X11832088Y16403866D01*
X11846383Y16450991D01*
X11851210Y16500000D01*
X11850000Y17287500D01*
X11787500Y17350000D01*
X10600000Y17350000D01*
X10500000Y17350000D01*
X9312500Y17350000D01*
X9250000Y17287500D01*
X9248790Y16500000D01*
X7950000Y16500000D01*
X7950000Y18438605D01*
X8761396Y19250000D01*
X9248791Y19250000D01*
X9248791Y18800000D01*
X9253618Y18750992D01*
X9267913Y18703866D01*
X9291127Y18660436D01*
X9322368Y18622368D01*
X9360436Y18591127D01*
X9403866Y18567913D01*
X9450992Y18553618D01*
X9487720Y18550001D01*
X9450991Y18546383D01*
X9403866Y18532088D01*
X9360435Y18508873D01*
X9322368Y18477632D01*
X9291127Y18439565D01*
X9267912Y18396134D01*
X9253617Y18349009D01*
X9248790Y18300000D01*
X9250000Y17512500D01*
X9312500Y17450000D01*
X10500000Y17450000D01*
X10500000Y17470000D01*
X10600000Y17470000D01*
X10600000Y17450000D01*
X11787500Y17450000D01*
X11850000Y17512500D01*
X11851210Y18300000D01*
X11846383Y18349009D01*
X11832088Y18396134D01*
X11808873Y18439565D01*
X11777632Y18477632D01*
X11739565Y18508873D01*
X11696134Y18532088D01*
X11649009Y18546383D01*
X11612280Y18550001D01*
X11649008Y18553618D01*
X11696134Y18567913D01*
X11739564Y18591127D01*
X11777632Y18622368D01*
X11808873Y18660436D01*
X11832087Y18703866D01*
X11846382Y18750992D01*
X11851209Y18800000D01*
X12148790Y18800000D01*
X12153617Y18750991D01*
X12167912Y18703866D01*
X12191127Y18660435D01*
X12222368Y18622368D01*
X12260435Y18591127D01*
X12303866Y18567912D01*
X12350991Y18553617D01*
X12387720Y18549999D01*
X12350992Y18546382D01*
X12303866Y18532087D01*
X12260436Y18508873D01*
X12222368Y18477632D01*
X12191127Y18439564D01*
X12167913Y18396134D01*
X12153618Y18349008D01*
X12148791Y18300000D01*
X12148791Y16500000D01*
X12153618Y16450992D01*
X12167913Y16403866D01*
X12191127Y16360436D01*
X12222368Y16322368D01*
X12260436Y16291127D01*
X12303866Y16267913D01*
X12350992Y16253618D01*
X12400000Y16248791D01*
X13364814Y16248791D01*
X14462395Y15151209D01*
X14375000Y15151209D01*
X14252833Y15139177D01*
X14135360Y15103542D01*
X14027097Y15045674D01*
X13932203Y14967797D01*
X13854326Y14872903D01*
X13796458Y14764640D01*
X13760823Y14647167D01*
X13748791Y14525000D01*
X13748791Y13775000D01*
X13760823Y13652833D01*
X13796458Y13535360D01*
X13854326Y13427097D01*
X13932203Y13332203D01*
X14027097Y13254326D01*
X14135360Y13196458D01*
X14252833Y13160823D01*
X14375000Y13148791D01*
X15625000Y13148791D01*
X15747167Y13160823D01*
X15864640Y13196458D01*
X15972903Y13254326D01*
X16067797Y13332203D01*
X16145674Y13427097D01*
X16203542Y13535360D01*
X16239177Y13652833D01*
X16251209Y13775000D01*
X16251209Y14525000D01*
X16239177Y14647167D01*
X16203542Y14764640D01*
X16145674Y14872903D01*
X16067797Y14967797D01*
X15972903Y15045674D01*
X15864640Y15103542D01*
X15747167Y15139177D01*
X15625000Y15151209D01*
X15450000Y15151209D01*
X15450000Y15227906D01*
X15452176Y15250001D01*
X15450000Y15272095D01*
X15450000Y15272105D01*
X15443489Y15338215D01*
X15417757Y15423041D01*
X15399866Y15456512D01*
X15375971Y15501217D01*
X15333828Y15552568D01*
X15333824Y15552572D01*
X15319737Y15569737D01*
X15302573Y15583823D01*
X14610698Y16275698D01*
X14639564Y16291127D01*
X14677632Y16322368D01*
X14708873Y16360436D01*
X14732087Y16403866D01*
X14746382Y16450992D01*
X14751209Y16500000D01*
X14751209Y18300000D01*
X14746382Y18349008D01*
X14732087Y18396134D01*
X14708873Y18439564D01*
X14677632Y18477632D01*
X14639564Y18508873D01*
X14596134Y18532087D01*
X14549008Y18546382D01*
X14512280Y18549999D01*
X14549009Y18553617D01*
X14596134Y18567912D01*
X14639565Y18591127D01*
X14677632Y18622368D01*
X14708873Y18660435D01*
X14732088Y18703866D01*
X14746383Y18750991D01*
X14751210Y18800000D01*
X14750000Y19587500D01*
X14687500Y19650000D01*
X13500000Y19650000D01*
X13500000Y19630000D01*
X13400000Y19630000D01*
X13400000Y19650000D01*
X12212500Y19650000D01*
X12150000Y19587500D01*
X12148790Y18800000D01*
X11851209Y18800000D01*
X11851209Y20600000D01*
X12148790Y20600000D01*
X12150000Y19812500D01*
X12212500Y19750000D01*
X13400000Y19750000D01*
X13400000Y20787500D01*
X13500000Y20787500D01*
X13500000Y19750000D01*
X14687500Y19750000D01*
X14750000Y19812500D01*
X14751210Y20600000D01*
X14746383Y20649009D01*
X14732088Y20696134D01*
X14708873Y20739565D01*
X14677632Y20777632D01*
X14639565Y20808873D01*
X14596134Y20832088D01*
X14549009Y20846383D01*
X14500000Y20851210D01*
X13562500Y20850000D01*
X13500000Y20787500D01*
X13400000Y20787500D01*
X13337500Y20850000D01*
X12400000Y20851210D01*
X12350991Y20846383D01*
X12303866Y20832088D01*
X12260435Y20808873D01*
X12222368Y20777632D01*
X12191127Y20739565D01*
X12167912Y20696134D01*
X12153617Y20649009D01*
X12148790Y20600000D01*
X11851209Y20600000D01*
X11846382Y20649008D01*
X11832087Y20696134D01*
X11808873Y20739564D01*
X11777632Y20777632D01*
X11739564Y20808873D01*
X11696134Y20832087D01*
X11649008Y20846382D01*
X11600000Y20851209D01*
X9500000Y20851209D01*
X9450992Y20846382D01*
X9403866Y20832087D01*
X9360436Y20808873D01*
X9322368Y20777632D01*
X9291127Y20739564D01*
X9267913Y20696134D01*
X9253618Y20649008D01*
X9248791Y20600000D01*
X9248791Y20150000D01*
X8597094Y20150000D01*
X8575000Y20152176D01*
X8552906Y20150000D01*
X8552895Y20150000D01*
X8486785Y20143489D01*
X8401959Y20117757D01*
X8323783Y20075971D01*
X8272432Y20033828D01*
X8272428Y20033824D01*
X8255263Y20019737D01*
X8241176Y20002572D01*
X7197429Y18958824D01*
X7180264Y18944737D01*
X7166177Y18927572D01*
X7166172Y18927567D01*
X7124029Y18876216D01*
X7082243Y18798040D01*
X7056512Y18713215D01*
X7047824Y18625000D01*
X6498094Y18625000D01*
X6567797Y18682203D01*
X6645674Y18777097D01*
X6703542Y18885360D01*
X6739177Y19002833D01*
X6751209Y19125000D01*
X6751209Y20375000D01*
X6739177Y20497167D01*
X6703542Y20614640D01*
X6645674Y20722903D01*
X6567797Y20817797D01*
X6472903Y20895674D01*
X6364640Y20953542D01*
X6247167Y20989177D01*
X6125000Y21001209D01*
X5375000Y21001209D01*
X5252833Y20989177D01*
X5135360Y20953542D01*
X5027097Y20895674D01*
X4932203Y20817797D01*
X4854326Y20722903D01*
X4796458Y20614640D01*
X4760823Y20497167D01*
X4748791Y20375000D01*
X2901209Y20375000D01*
X2901209Y20450000D01*
X2896382Y20499008D01*
X2882087Y20546134D01*
X2858873Y20589564D01*
X2827632Y20627632D01*
X2789564Y20658873D01*
X2746134Y20682087D01*
X2699008Y20696382D01*
X2650000Y20701209D01*
X950000Y20701209D01*
X900992Y20696382D01*
X853866Y20682087D01*
X810436Y20658873D01*
X772368Y20627632D01*
X741127Y20589564D01*
X717913Y20546134D01*
X703618Y20499008D01*
X698791Y20450000D01*
X175000Y20450000D01*
X175000Y28625000D01*
X3998791Y28625000D01*
X3998791Y27875000D01*
X4010823Y27752833D01*
X4046458Y27635360D01*
X4104326Y27527097D01*
X4182203Y27432203D01*
X4277097Y27354326D01*
X4385360Y27296458D01*
X4502833Y27260823D01*
X4625000Y27248791D01*
X4800000Y27248791D01*
X4800001Y23772104D01*
X4797824Y23750000D01*
X4806512Y23661785D01*
X4832243Y23576960D01*
X4874029Y23498784D01*
X4916172Y23447433D01*
X4916177Y23447428D01*
X4930264Y23430263D01*
X4947429Y23416176D01*
X6916176Y21447428D01*
X6930263Y21430263D01*
X6947428Y21416176D01*
X6947432Y21416172D01*
X6998783Y21374029D01*
X7070587Y21335649D01*
X7076959Y21332243D01*
X7161785Y21306511D01*
X7227895Y21300000D01*
X7227905Y21300000D01*
X7249999Y21297824D01*
X7272094Y21300000D01*
X7780761Y21300000D01*
X7835649Y21245112D01*
X7942110Y21173978D01*
X8060402Y21124979D01*
X8185981Y21100000D01*
X8314019Y21100000D01*
X8439598Y21124979D01*
X8557890Y21173978D01*
X8664351Y21245112D01*
X8754888Y21335649D01*
X8826022Y21442110D01*
X8875021Y21560402D01*
X8900000Y21685981D01*
X8900000Y21814019D01*
X8875021Y21939598D01*
X8826022Y22057890D01*
X8754888Y22164351D01*
X8664351Y22254888D01*
X8557890Y22326022D01*
X8439598Y22375021D01*
X8314019Y22400000D01*
X8185981Y22400000D01*
X8060402Y22375021D01*
X7942110Y22326022D01*
X7835649Y22254888D01*
X7780761Y22200000D01*
X7436396Y22200000D01*
X5700000Y23936395D01*
X5700000Y26750000D01*
X9498790Y26750000D01*
X9503617Y26700991D01*
X9517912Y26653866D01*
X9541127Y26610435D01*
X9572368Y26572368D01*
X9610435Y26541127D01*
X9653866Y26517912D01*
X9700991Y26503617D01*
X9750000Y26498790D01*
X10637500Y26500000D01*
X10700000Y26562500D01*
X10700000Y27450000D01*
X10800000Y27450000D01*
X10800000Y26562500D01*
X10862500Y26500000D01*
X11750000Y26498790D01*
X11799009Y26503617D01*
X11846134Y26517912D01*
X11889565Y26541127D01*
X11927632Y26572368D01*
X11958873Y26610435D01*
X11982088Y26653866D01*
X11996383Y26700991D01*
X12001210Y26750000D01*
X12000000Y27387500D01*
X11937500Y27450000D01*
X10800000Y27450000D01*
X10700000Y27450000D01*
X9562500Y27450000D01*
X9500000Y27387500D01*
X9498790Y26750000D01*
X5700000Y26750000D01*
X5700000Y27248791D01*
X5875000Y27248791D01*
X5997167Y27260823D01*
X6114640Y27296458D01*
X6222903Y27354326D01*
X6317797Y27432203D01*
X6373436Y27500000D01*
X6748790Y27500000D01*
X6753617Y27450991D01*
X6767912Y27403866D01*
X6791127Y27360435D01*
X6822368Y27322368D01*
X6860435Y27291127D01*
X6903866Y27267912D01*
X6950991Y27253617D01*
X7000000Y27248790D01*
X7887500Y27250000D01*
X7950000Y27312500D01*
X7950000Y28200000D01*
X8050000Y28200000D01*
X8050000Y27312500D01*
X8112500Y27250000D01*
X9000000Y27248790D01*
X9049009Y27253617D01*
X9096134Y27267912D01*
X9139565Y27291127D01*
X9177632Y27322368D01*
X9208873Y27360435D01*
X9232088Y27403866D01*
X9246383Y27450991D01*
X9251210Y27500000D01*
X12248790Y27500000D01*
X12253617Y27450991D01*
X12267912Y27403866D01*
X12291127Y27360435D01*
X12322368Y27322368D01*
X12360435Y27291127D01*
X12403866Y27267912D01*
X12450991Y27253617D01*
X12500000Y27248790D01*
X13387500Y27250000D01*
X13450000Y27312500D01*
X13450000Y28200000D01*
X13550000Y28200000D01*
X13550000Y27312500D01*
X13612500Y27250000D01*
X14500000Y27248790D01*
X14549009Y27253617D01*
X14596134Y27267912D01*
X14639565Y27291127D01*
X14677632Y27322368D01*
X14708873Y27360435D01*
X14732088Y27403866D01*
X14746383Y27450991D01*
X14751210Y27500000D01*
X14998790Y27500000D01*
X15003617Y27450991D01*
X15017912Y27403866D01*
X15041127Y27360435D01*
X15072368Y27322368D01*
X15110435Y27291127D01*
X15153866Y27267912D01*
X15200991Y27253617D01*
X15250000Y27248790D01*
X16137500Y27250000D01*
X16200000Y27312500D01*
X16200000Y28200000D01*
X16300000Y28200000D01*
X16300000Y27312500D01*
X16362500Y27250000D01*
X17250000Y27248790D01*
X17299009Y27253617D01*
X17346134Y27267912D01*
X17389565Y27291127D01*
X17427632Y27322368D01*
X17458873Y27360435D01*
X17482088Y27403866D01*
X17496383Y27450991D01*
X17501210Y27500000D01*
X17500000Y28137500D01*
X17437500Y28200000D01*
X16300000Y28200000D01*
X16200000Y28200000D01*
X15062500Y28200000D01*
X15000000Y28137500D01*
X14998790Y27500000D01*
X14751210Y27500000D01*
X14750000Y28137500D01*
X14687500Y28200000D01*
X13550000Y28200000D01*
X13450000Y28200000D01*
X12312500Y28200000D01*
X12250000Y28137500D01*
X12248790Y27500000D01*
X9251210Y27500000D01*
X9250000Y28137500D01*
X9187500Y28200000D01*
X8050000Y28200000D01*
X7950000Y28200000D01*
X6812500Y28200000D01*
X6750000Y28137500D01*
X6748790Y27500000D01*
X6373436Y27500000D01*
X6395674Y27527097D01*
X6453542Y27635360D01*
X6489177Y27752833D01*
X6501209Y27875000D01*
X6501209Y28250000D01*
X9498790Y28250000D01*
X9500000Y27612500D01*
X9562500Y27550000D01*
X10700000Y27550000D01*
X10700000Y28437500D01*
X10800000Y28437500D01*
X10800000Y27550000D01*
X11937500Y27550000D01*
X12000000Y27612500D01*
X12001210Y28250000D01*
X11996383Y28299009D01*
X11982088Y28346134D01*
X11958873Y28389565D01*
X11927632Y28427632D01*
X11889565Y28458873D01*
X11846134Y28482088D01*
X11799009Y28496383D01*
X11750000Y28501210D01*
X10862500Y28500000D01*
X10800000Y28437500D01*
X10700000Y28437500D01*
X10637500Y28500000D01*
X9750000Y28501210D01*
X9700991Y28496383D01*
X9653866Y28482088D01*
X9610435Y28458873D01*
X9572368Y28427632D01*
X9541127Y28389565D01*
X9517912Y28346134D01*
X9503617Y28299009D01*
X9498790Y28250000D01*
X6501209Y28250000D01*
X6501209Y28625000D01*
X6489177Y28747167D01*
X6453542Y28864640D01*
X6395674Y28972903D01*
X6373437Y29000000D01*
X6748790Y29000000D01*
X6750000Y28362500D01*
X6812500Y28300000D01*
X7950000Y28300000D01*
X7950000Y29187500D01*
X8050000Y29187500D01*
X8050000Y28300000D01*
X9187500Y28300000D01*
X9250000Y28362500D01*
X9251210Y29000000D01*
X12248790Y29000000D01*
X12250000Y28362500D01*
X12312500Y28300000D01*
X13450000Y28300000D01*
X13450000Y29187500D01*
X13550000Y29187500D01*
X13550000Y28300000D01*
X14687500Y28300000D01*
X14750000Y28362500D01*
X14751210Y29000000D01*
X14998790Y29000000D01*
X15000000Y28362500D01*
X15062500Y28300000D01*
X16200000Y28300000D01*
X16200000Y29187500D01*
X16300000Y29187500D01*
X16300000Y28300000D01*
X17437500Y28300000D01*
X17500000Y28362500D01*
X17501210Y29000000D01*
X17496383Y29049009D01*
X17482088Y29096134D01*
X17458873Y29139565D01*
X17427632Y29177632D01*
X17389565Y29208873D01*
X17346134Y29232088D01*
X17299009Y29246383D01*
X17250000Y29251210D01*
X16362500Y29250000D01*
X16300000Y29187500D01*
X16200000Y29187500D01*
X16137500Y29250000D01*
X15250000Y29251210D01*
X15200991Y29246383D01*
X15153866Y29232088D01*
X15110435Y29208873D01*
X15072368Y29177632D01*
X15041127Y29139565D01*
X15017912Y29096134D01*
X15003617Y29049009D01*
X14998790Y29000000D01*
X14751210Y29000000D01*
X14746383Y29049009D01*
X14732088Y29096134D01*
X14708873Y29139565D01*
X14677632Y29177632D01*
X14639565Y29208873D01*
X14596134Y29232088D01*
X14549009Y29246383D01*
X14500000Y29251210D01*
X13612500Y29250000D01*
X13550000Y29187500D01*
X13450000Y29187500D01*
X13387500Y29250000D01*
X12500000Y29251210D01*
X12450991Y29246383D01*
X12403866Y29232088D01*
X12360435Y29208873D01*
X12322368Y29177632D01*
X12291127Y29139565D01*
X12267912Y29096134D01*
X12253617Y29049009D01*
X12248790Y29000000D01*
X9251210Y29000000D01*
X9246383Y29049009D01*
X9232088Y29096134D01*
X9208873Y29139565D01*
X9177632Y29177632D01*
X9139565Y29208873D01*
X9096134Y29232088D01*
X9049009Y29246383D01*
X9000000Y29251210D01*
X8112500Y29250000D01*
X8050000Y29187500D01*
X7950000Y29187500D01*
X7887500Y29250000D01*
X7000000Y29251210D01*
X6950991Y29246383D01*
X6903866Y29232088D01*
X6860435Y29208873D01*
X6822368Y29177632D01*
X6791127Y29139565D01*
X6767912Y29096134D01*
X6753617Y29049009D01*
X6748790Y29000000D01*
X6373437Y29000000D01*
X6317797Y29067797D01*
X6222903Y29145674D01*
X6114640Y29203542D01*
X5997167Y29239177D01*
X5875000Y29251209D01*
X4625000Y29251209D01*
X4502833Y29239177D01*
X4385360Y29203542D01*
X4277097Y29145674D01*
X4182203Y29067797D01*
X4104326Y28972903D01*
X4046458Y28864640D01*
X4010823Y28747167D01*
X3998791Y28625000D01*
X175000Y28625000D01*
X175000Y29825000D01*
X23825001Y29825000D01*
X23825000Y175000D01*
G37*
X23825000Y175000D02*
X175000Y175000D01*
X175000Y1928341D01*
X700000Y1928341D01*
X700000Y1711659D01*
X742273Y1499142D01*
X825193Y1298955D01*
X945575Y1118791D01*
X1098791Y965575D01*
X1278955Y845193D01*
X1479142Y762273D01*
X1691659Y720000D01*
X1908341Y720000D01*
X2120858Y762273D01*
X2321045Y845193D01*
X2501209Y965575D01*
X2654425Y1118791D01*
X2774807Y1298955D01*
X2857727Y1499142D01*
X2900000Y1711659D01*
X2900000Y1928341D01*
X2857727Y2140858D01*
X2774807Y2341045D01*
X2654425Y2521209D01*
X2501209Y2674425D01*
X2388104Y2750000D01*
X4398791Y2750000D01*
X4398791Y1050000D01*
X4403618Y1000992D01*
X4417913Y953866D01*
X4441127Y910436D01*
X4472368Y872368D01*
X4510436Y841127D01*
X4553866Y817913D01*
X4600992Y803618D01*
X4650000Y798791D01*
X6350000Y798791D01*
X6399008Y803618D01*
X6446134Y817913D01*
X6489564Y841127D01*
X6527632Y872368D01*
X6558873Y910436D01*
X6582087Y953866D01*
X6596382Y1000992D01*
X6601209Y1050000D01*
X6601209Y2008341D01*
X6940000Y2008341D01*
X6940000Y1791659D01*
X6982273Y1579142D01*
X7065193Y1378955D01*
X7185575Y1198791D01*
X7338791Y1045575D01*
X7518955Y925193D01*
X7719142Y842273D01*
X7931659Y800000D01*
X8148341Y800000D01*
X8360858Y842273D01*
X8561045Y925193D01*
X8741209Y1045575D01*
X8894425Y1198791D01*
X9014807Y1378955D01*
X9097727Y1579142D01*
X9140000Y1791659D01*
X9140000Y2008341D01*
X9480000Y2008341D01*
X9480000Y1791659D01*
X9522273Y1579142D01*
X9605193Y1378955D01*
X9725575Y1198791D01*
X9878791Y1045575D01*
X10058955Y925193D01*
X10259142Y842273D01*
X10471659Y800000D01*
X10688341Y800000D01*
X10900858Y842273D01*
X11101045Y925193D01*
X11281209Y1045575D01*
X11434425Y1198791D01*
X11554807Y1378955D01*
X11637727Y1579142D01*
X11680000Y1791659D01*
X11680000Y2008341D01*
X12020000Y2008341D01*
X12020000Y1791659D01*
X12062273Y1579142D01*
X12145193Y1378955D01*
X12265575Y1198791D01*
X12418791Y1045575D01*
X12598955Y925193D01*
X12799142Y842273D01*
X13011659Y800000D01*
X13228341Y800000D01*
X13440858Y842273D01*
X13641045Y925193D01*
X13821209Y1045575D01*
X13974425Y1198791D01*
X14094807Y1378955D01*
X14177727Y1579142D01*
X14220000Y1791659D01*
X14220000Y2008341D01*
X14560000Y2008341D01*
X14560000Y1791659D01*
X14602273Y1579142D01*
X14685193Y1378955D01*
X14805575Y1198791D01*
X14958791Y1045575D01*
X15138955Y925193D01*
X15339142Y842273D01*
X15551659Y800000D01*
X15768341Y800000D01*
X15980858Y842273D01*
X16181045Y925193D01*
X16361209Y1045575D01*
X16514425Y1198791D01*
X16634807Y1378955D01*
X16717727Y1579142D01*
X16760000Y1791659D01*
X16760000Y2008341D01*
X17100000Y2008341D01*
X17100000Y1791659D01*
X17142273Y1579142D01*
X17225193Y1378955D01*
X17345575Y1198791D01*
X17498791Y1045575D01*
X17678955Y925193D01*
X17879142Y842273D01*
X18091659Y800000D01*
X18308341Y800000D01*
X18520858Y842273D01*
X18721045Y925193D01*
X18901209Y1045575D01*
X19054425Y1198791D01*
X19174807Y1378955D01*
X19257727Y1579142D01*
X19269577Y1638716D01*
X21172488Y1638716D01*
X21231140Y1445356D01*
X21331610Y1254554D01*
X21467373Y1087018D01*
X21633212Y949188D01*
X21822754Y846360D01*
X22028715Y782485D01*
X22200000Y823634D01*
X22200000Y1810000D01*
X22300000Y1810000D01*
X22300000Y823634D01*
X22471285Y782485D01*
X22677246Y846360D01*
X22866788Y949188D01*
X23032627Y1087018D01*
X23168390Y1254554D01*
X23268860Y1445356D01*
X23327512Y1638716D01*
X23286294Y1810000D01*
X22300000Y1810000D01*
X22200000Y1810000D01*
X21213706Y1810000D01*
X21172488Y1638716D01*
X19269577Y1638716D01*
X19300000Y1791659D01*
X19300000Y2008341D01*
X19285491Y2081284D01*
X21172488Y2081284D01*
X21213706Y1910000D01*
X22200000Y1910000D01*
X22200000Y2896366D01*
X22300000Y2896366D01*
X22300000Y1910000D01*
X23286294Y1910000D01*
X23327512Y2081284D01*
X23268860Y2274644D01*
X23168390Y2465446D01*
X23032627Y2632982D01*
X22866788Y2770812D01*
X22677246Y2873640D01*
X22471285Y2937515D01*
X22300000Y2896366D01*
X22200000Y2896366D01*
X22028715Y2937515D01*
X21822754Y2873640D01*
X21633212Y2770812D01*
X21467373Y2632982D01*
X21331610Y2465446D01*
X21231140Y2274644D01*
X21172488Y2081284D01*
X19285491Y2081284D01*
X19257727Y2220858D01*
X19174807Y2421045D01*
X19054425Y2601209D01*
X18901209Y2754425D01*
X18721045Y2874807D01*
X18520858Y2957727D01*
X18308341Y3000000D01*
X18091659Y3000000D01*
X17879142Y2957727D01*
X17678955Y2874807D01*
X17498791Y2754425D01*
X17345575Y2601209D01*
X17225193Y2421045D01*
X17142273Y2220858D01*
X17100000Y2008341D01*
X16760000Y2008341D01*
X16717727Y2220858D01*
X16634807Y2421045D01*
X16514425Y2601209D01*
X16361209Y2754425D01*
X16181045Y2874807D01*
X15980858Y2957727D01*
X15768341Y3000000D01*
X15551659Y3000000D01*
X15339142Y2957727D01*
X15138955Y2874807D01*
X14958791Y2754425D01*
X14805575Y2601209D01*
X14685193Y2421045D01*
X14602273Y2220858D01*
X14560000Y2008341D01*
X14220000Y2008341D01*
X14177727Y2220858D01*
X14094807Y2421045D01*
X13974425Y2601209D01*
X13821209Y2754425D01*
X13641045Y2874807D01*
X13440858Y2957727D01*
X13228341Y3000000D01*
X13011659Y3000000D01*
X12799142Y2957727D01*
X12598955Y2874807D01*
X12418791Y2754425D01*
X12265575Y2601209D01*
X12145193Y2421045D01*
X12062273Y2220858D01*
X12020000Y2008341D01*
X11680000Y2008341D01*
X11637727Y2220858D01*
X11554807Y2421045D01*
X11434425Y2601209D01*
X11281209Y2754425D01*
X11101045Y2874807D01*
X10900858Y2957727D01*
X10688341Y3000000D01*
X10471659Y3000000D01*
X10259142Y2957727D01*
X10058955Y2874807D01*
X9878791Y2754425D01*
X9725575Y2601209D01*
X9605193Y2421045D01*
X9522273Y2220858D01*
X9480000Y2008341D01*
X9140000Y2008341D01*
X9097727Y2220858D01*
X9014807Y2421045D01*
X8894425Y2601209D01*
X8741209Y2754425D01*
X8561045Y2874807D01*
X8360858Y2957727D01*
X8148341Y3000000D01*
X7931659Y3000000D01*
X7719142Y2957727D01*
X7518955Y2874807D01*
X7338791Y2754425D01*
X7185575Y2601209D01*
X7065193Y2421045D01*
X6982273Y2220858D01*
X6940000Y2008341D01*
X6601209Y2008341D01*
X6601209Y2750000D01*
X6596382Y2799008D01*
X6582087Y2846134D01*
X6558873Y2889564D01*
X6527632Y2927632D01*
X6489564Y2958873D01*
X6446134Y2982087D01*
X6399008Y2996382D01*
X6350000Y3001209D01*
X4650000Y3001209D01*
X4600992Y2996382D01*
X4553866Y2982087D01*
X4510436Y2958873D01*
X4472368Y2927632D01*
X4441127Y2889564D01*
X4417913Y2846134D01*
X4403618Y2799008D01*
X4398791Y2750000D01*
X2388104Y2750000D01*
X2321045Y2794807D01*
X2120858Y2877727D01*
X1908341Y2920000D01*
X1691659Y2920000D01*
X1479142Y2877727D01*
X1278955Y2794807D01*
X1098791Y2674425D01*
X945575Y2521209D01*
X825193Y2341045D01*
X742273Y2140858D01*
X700000Y1928341D01*
X175000Y1928341D01*
X175000Y4468341D01*
X700000Y4468341D01*
X700000Y4251659D01*
X742273Y4039142D01*
X825193Y3838955D01*
X945575Y3658791D01*
X1098791Y3505575D01*
X1278955Y3385193D01*
X1479142Y3302273D01*
X1691659Y3260000D01*
X1908341Y3260000D01*
X2120858Y3302273D01*
X2321045Y3385193D01*
X2501209Y3505575D01*
X2654425Y3658791D01*
X2774807Y3838955D01*
X2857727Y4039142D01*
X2900000Y4251659D01*
X2900000Y4468341D01*
X2857727Y4680858D01*
X2774807Y4881045D01*
X2654425Y5061209D01*
X2501209Y5214425D01*
X2321045Y5334807D01*
X2120858Y5417727D01*
X1908341Y5460000D01*
X1691659Y5460000D01*
X1479142Y5417727D01*
X1278955Y5334807D01*
X1098791Y5214425D01*
X945575Y5061209D01*
X825193Y4881045D01*
X742273Y4680858D01*
X700000Y4468341D01*
X175000Y4468341D01*
X175000Y7008341D01*
X700000Y7008341D01*
X700000Y6791659D01*
X742273Y6579142D01*
X825193Y6378955D01*
X945575Y6198791D01*
X1098791Y6045575D01*
X1278955Y5925193D01*
X1479142Y5842273D01*
X1691659Y5800000D01*
X1908341Y5800000D01*
X2120858Y5842273D01*
X2321045Y5925193D01*
X2501209Y6045575D01*
X2654425Y6198791D01*
X2774807Y6378955D01*
X2857727Y6579142D01*
X2900000Y6791659D01*
X2900000Y7008341D01*
X2857727Y7220858D01*
X2774807Y7421045D01*
X2654425Y7601209D01*
X2501209Y7754425D01*
X2321045Y7874807D01*
X2120858Y7957727D01*
X1908341Y8000000D01*
X1691659Y8000000D01*
X1479142Y7957727D01*
X1278955Y7874807D01*
X1098791Y7754425D01*
X945575Y7601209D01*
X825193Y7421045D01*
X742273Y7220858D01*
X700000Y7008341D01*
X175000Y7008341D01*
X175000Y9548341D01*
X700000Y9548341D01*
X700000Y9331659D01*
X742273Y9119142D01*
X825193Y8918955D01*
X945575Y8738791D01*
X1098791Y8585575D01*
X1278955Y8465193D01*
X1479142Y8382273D01*
X1691659Y8340000D01*
X1908341Y8340000D01*
X2120858Y8382273D01*
X2321045Y8465193D01*
X2501209Y8585575D01*
X2654425Y8738791D01*
X2661914Y8750000D01*
X3297824Y8750000D01*
X3300001Y8727896D01*
X3300000Y5772095D01*
X3297824Y5750000D01*
X3300000Y5727906D01*
X3300000Y5727896D01*
X3306511Y5661786D01*
X3332243Y5576960D01*
X3374029Y5498784D01*
X3414065Y5450000D01*
X3430263Y5430263D01*
X3447434Y5416171D01*
X4100000Y4763604D01*
X4100000Y4685981D01*
X4124979Y4560402D01*
X4173978Y4442110D01*
X4245112Y4335649D01*
X4335649Y4245112D01*
X4442110Y4173978D01*
X4560402Y4124979D01*
X4685981Y4100000D01*
X4814019Y4100000D01*
X4939598Y4124979D01*
X5057890Y4173978D01*
X5164351Y4245112D01*
X5254888Y4335649D01*
X5326022Y4442110D01*
X5375021Y4560402D01*
X5392842Y4650000D01*
X16998790Y4650000D01*
X17003617Y4600991D01*
X17017912Y4553866D01*
X17041127Y4510435D01*
X17072368Y4472368D01*
X17110435Y4441127D01*
X17153866Y4417912D01*
X17200991Y4403617D01*
X17250000Y4398790D01*
X18137500Y4400000D01*
X18200000Y4462500D01*
X18200000Y5350000D01*
X18300000Y5350000D01*
X18300000Y4462500D01*
X18362500Y4400000D01*
X19250000Y4398790D01*
X19299009Y4403617D01*
X19346134Y4417912D01*
X19389565Y4441127D01*
X19427632Y4472368D01*
X19458873Y4510435D01*
X19482088Y4553866D01*
X19496383Y4600991D01*
X19501210Y4650000D01*
X19500072Y5250000D01*
X21148791Y5250000D01*
X21148791Y3550000D01*
X21153618Y3500992D01*
X21167913Y3453866D01*
X21191127Y3410436D01*
X21222368Y3372368D01*
X21260436Y3341127D01*
X21303866Y3317913D01*
X21350992Y3303618D01*
X21400000Y3298791D01*
X23100000Y3298791D01*
X23149008Y3303618D01*
X23196134Y3317913D01*
X23239564Y3341127D01*
X23277632Y3372368D01*
X23308873Y3410436D01*
X23332087Y3453866D01*
X23346382Y3500992D01*
X23351209Y3550000D01*
X23351209Y5250000D01*
X23346382Y5299008D01*
X23332087Y5346134D01*
X23308873Y5389564D01*
X23277632Y5427632D01*
X23239564Y5458873D01*
X23196134Y5482087D01*
X23149008Y5496382D01*
X23100000Y5501209D01*
X21400000Y5501209D01*
X21350992Y5496382D01*
X21303866Y5482087D01*
X21260436Y5458873D01*
X21222368Y5427632D01*
X21191127Y5389564D01*
X21167913Y5346134D01*
X21153618Y5299008D01*
X21148791Y5250000D01*
X19500072Y5250000D01*
X19500000Y5287500D01*
X19437500Y5350000D01*
X18300000Y5350000D01*
X18200000Y5350000D01*
X17062500Y5350000D01*
X17000000Y5287500D01*
X16998790Y4650000D01*
X5392842Y4650000D01*
X5400000Y4685981D01*
X5400000Y4814019D01*
X5375021Y4939598D01*
X5326022Y5057890D01*
X5254888Y5164351D01*
X5164351Y5254888D01*
X5057890Y5326022D01*
X4939598Y5375021D01*
X4814019Y5400000D01*
X4736396Y5400000D01*
X4200000Y5936395D01*
X4200000Y6814019D01*
X4350000Y6814019D01*
X4350000Y6685981D01*
X4374979Y6560402D01*
X4423978Y6442110D01*
X4495112Y6335649D01*
X4585649Y6245112D01*
X4692110Y6173978D01*
X4810402Y6124979D01*
X4935981Y6100000D01*
X5064019Y6100000D01*
X5189598Y6124979D01*
X5250002Y6150000D01*
X16998790Y6150000D01*
X17000000Y5512500D01*
X17062500Y5450000D01*
X18200000Y5450000D01*
X18200000Y6337500D01*
X18300000Y6337500D01*
X18300000Y5450000D01*
X19437500Y5450000D01*
X19500000Y5512500D01*
X19501210Y6150000D01*
X19496383Y6199009D01*
X19482088Y6246134D01*
X19458873Y6289565D01*
X19427632Y6327632D01*
X19389565Y6358873D01*
X19346134Y6382088D01*
X19299009Y6396383D01*
X19250000Y6401210D01*
X18362500Y6400000D01*
X18300000Y6337500D01*
X18200000Y6337500D01*
X18137500Y6400000D01*
X17250000Y6401210D01*
X17200991Y6396383D01*
X17153866Y6382088D01*
X17110435Y6358873D01*
X17072368Y6327632D01*
X17041127Y6289565D01*
X17017912Y6246134D01*
X17003617Y6199009D01*
X16998790Y6150000D01*
X5250002Y6150000D01*
X5307890Y6173978D01*
X5414351Y6245112D01*
X5504888Y6335649D01*
X5576022Y6442110D01*
X5625021Y6560402D01*
X5650000Y6685981D01*
X5650000Y6763605D01*
X5886395Y7000000D01*
X16998790Y7000000D01*
X17003617Y6950991D01*
X17017912Y6903866D01*
X17041127Y6860435D01*
X17072368Y6822368D01*
X17110435Y6791127D01*
X17153866Y6767912D01*
X17200991Y6753617D01*
X17250000Y6748790D01*
X18137500Y6750000D01*
X18200000Y6812500D01*
X18200000Y7700000D01*
X18300000Y7700000D01*
X18300000Y6812500D01*
X18362500Y6750000D01*
X19250000Y6748790D01*
X19299009Y6753617D01*
X19346134Y6767912D01*
X19389565Y6791127D01*
X19427632Y6822368D01*
X19458873Y6860435D01*
X19482088Y6903866D01*
X19496383Y6950991D01*
X19501210Y7000000D01*
X19500000Y7637500D01*
X19437500Y7700000D01*
X18300000Y7700000D01*
X18200000Y7700000D01*
X17062500Y7700000D01*
X17000000Y7637500D01*
X16998790Y7000000D01*
X5886395Y7000000D01*
X7386395Y8500000D01*
X16998790Y8500000D01*
X17000000Y7862500D01*
X17062500Y7800000D01*
X18200000Y7800000D01*
X18200000Y8687500D01*
X18300000Y8687500D01*
X18300000Y7800000D01*
X19437500Y7800000D01*
X19500000Y7862500D01*
X19500640Y8200001D01*
X19948791Y8200001D01*
X19948791Y7299999D01*
X19958422Y7202218D01*
X19986943Y7108195D01*
X20033260Y7021543D01*
X20095591Y6945591D01*
X20171543Y6883260D01*
X20258195Y6836943D01*
X20352218Y6808422D01*
X20449999Y6798791D01*
X21100001Y6798791D01*
X21197782Y6808422D01*
X21291805Y6836943D01*
X21378457Y6883260D01*
X21454409Y6945591D01*
X21516740Y7021543D01*
X21531950Y7050000D01*
X21998790Y7050000D01*
X22003617Y7000991D01*
X22017912Y6953866D01*
X22041127Y6910435D01*
X22072368Y6872368D01*
X22110435Y6841127D01*
X22153866Y6817912D01*
X22200991Y6803617D01*
X22250000Y6798790D01*
X22712500Y6800000D01*
X22775000Y6862500D01*
X22775000Y7700000D01*
X22875000Y7700000D01*
X22875000Y6862500D01*
X22937500Y6800000D01*
X23400000Y6798790D01*
X23449009Y6803617D01*
X23496134Y6817912D01*
X23539565Y6841127D01*
X23577632Y6872368D01*
X23608873Y6910435D01*
X23632088Y6953866D01*
X23646383Y7000991D01*
X23651210Y7050000D01*
X23650000Y7637500D01*
X23587500Y7700000D01*
X22875000Y7700000D01*
X22775000Y7700000D01*
X22062500Y7700000D01*
X22000000Y7637500D01*
X21998790Y7050000D01*
X21531950Y7050000D01*
X21563057Y7108195D01*
X21591578Y7202218D01*
X21601209Y7299999D01*
X21601209Y8200001D01*
X21591578Y8297782D01*
X21563057Y8391805D01*
X21531951Y8450000D01*
X21998790Y8450000D01*
X22000000Y7862500D01*
X22062500Y7800000D01*
X22775000Y7800000D01*
X22775000Y8637500D01*
X22875000Y8637500D01*
X22875000Y7800000D01*
X23587500Y7800000D01*
X23650000Y7862500D01*
X23651210Y8450000D01*
X23646383Y8499009D01*
X23632088Y8546134D01*
X23608873Y8589565D01*
X23577632Y8627632D01*
X23539565Y8658873D01*
X23496134Y8682088D01*
X23449009Y8696383D01*
X23400000Y8701210D01*
X22937500Y8700000D01*
X22875000Y8637500D01*
X22775000Y8637500D01*
X22712500Y8700000D01*
X22250000Y8701210D01*
X22200991Y8696383D01*
X22153866Y8682088D01*
X22110435Y8658873D01*
X22072368Y8627632D01*
X22041127Y8589565D01*
X22017912Y8546134D01*
X22003617Y8499009D01*
X21998790Y8450000D01*
X21531951Y8450000D01*
X21516740Y8478457D01*
X21454409Y8554409D01*
X21446937Y8560541D01*
X22135187Y9248791D01*
X22875000Y9248791D01*
X22997167Y9260823D01*
X23114640Y9296458D01*
X23222903Y9354326D01*
X23317797Y9432203D01*
X23395674Y9527097D01*
X23453542Y9635360D01*
X23489177Y9752833D01*
X23501209Y9875000D01*
X23501209Y10625000D01*
X23489177Y10747167D01*
X23453542Y10864640D01*
X23395674Y10972903D01*
X23317797Y11067797D01*
X23222903Y11145674D01*
X23114640Y11203542D01*
X22997167Y11239177D01*
X22875000Y11251209D01*
X21625000Y11251209D01*
X21502833Y11239177D01*
X21385360Y11203542D01*
X21277097Y11145674D01*
X21182203Y11067797D01*
X21104326Y10972903D01*
X21046458Y10864640D01*
X21010823Y10747167D01*
X20998791Y10625000D01*
X20998791Y9875000D01*
X21010823Y9752833D01*
X21046458Y9635360D01*
X21104326Y9527097D01*
X21120722Y9507118D01*
X20472434Y8858829D01*
X20455263Y8844737D01*
X20441172Y8827567D01*
X20399029Y8776216D01*
X20383083Y8746383D01*
X20357243Y8698040D01*
X20355377Y8691889D01*
X20352218Y8691578D01*
X20258195Y8663057D01*
X20171543Y8616740D01*
X20095591Y8554409D01*
X20033260Y8478457D01*
X19986943Y8391805D01*
X19958422Y8297782D01*
X19948791Y8200001D01*
X19500640Y8200001D01*
X19501210Y8500000D01*
X19496383Y8549009D01*
X19482088Y8596134D01*
X19458873Y8639565D01*
X19427632Y8677632D01*
X19389565Y8708873D01*
X19346134Y8732088D01*
X19299009Y8746383D01*
X19250000Y8751210D01*
X18362500Y8750000D01*
X18300000Y8687500D01*
X18200000Y8687500D01*
X18137500Y8750000D01*
X17250000Y8751210D01*
X17200991Y8746383D01*
X17153866Y8732088D01*
X17110435Y8708873D01*
X17072368Y8677632D01*
X17041127Y8639565D01*
X17017912Y8596134D01*
X17003617Y8549009D01*
X16998790Y8500000D01*
X7386395Y8500000D01*
X7936396Y9050000D01*
X18227898Y9050000D01*
X18249992Y9047824D01*
X18272086Y9050000D01*
X18272097Y9050000D01*
X18338207Y9056511D01*
X18423033Y9082243D01*
X18501208Y9124029D01*
X18569729Y9180263D01*
X18583821Y9197434D01*
X18736387Y9350000D01*
X18814011Y9350000D01*
X18939590Y9374979D01*
X19057882Y9423978D01*
X19164343Y9495112D01*
X19254880Y9585649D01*
X19326014Y9692110D01*
X19375013Y9810402D01*
X19399992Y9935981D01*
X19399992Y10064019D01*
X19375013Y10189598D01*
X19359042Y10228156D01*
X19375971Y10248784D01*
X19417757Y10326959D01*
X19443489Y10411785D01*
X19450000Y10477895D01*
X19450000Y10477906D01*
X19452176Y10500000D01*
X19450000Y10522094D01*
X19450000Y12727907D01*
X19452176Y12750001D01*
X19450000Y12772095D01*
X19450000Y12772105D01*
X19443489Y12838215D01*
X19417757Y12923041D01*
X19403347Y12950000D01*
X19375971Y13001217D01*
X19333828Y13052568D01*
X19333824Y13052572D01*
X19319737Y13069737D01*
X19302573Y13083823D01*
X18700000Y13686395D01*
X18700000Y14153165D01*
X18745112Y14085649D01*
X18835649Y13995112D01*
X18942110Y13923978D01*
X19060402Y13874979D01*
X19106342Y13865841D01*
X19700010Y13272173D01*
X19700011Y10842712D01*
X19700010Y10842702D01*
X19700010Y10596835D01*
X19673988Y10557890D01*
X19624989Y10439598D01*
X19600010Y10314019D01*
X19600010Y10185981D01*
X19624989Y10060402D01*
X19673988Y9942110D01*
X19745122Y9835649D01*
X19835659Y9745112D01*
X19942120Y9673978D01*
X20060412Y9624979D01*
X20185991Y9600000D01*
X20314029Y9600000D01*
X20439608Y9624979D01*
X20557900Y9673978D01*
X20664361Y9745112D01*
X20754898Y9835649D01*
X20826032Y9942110D01*
X20875031Y10060402D01*
X20900010Y10185981D01*
X20900010Y10314019D01*
X20875031Y10439598D01*
X20826032Y10557890D01*
X20800010Y10596835D01*
X20800010Y12950000D01*
X21026850Y12950000D01*
X21046458Y12885360D01*
X21104326Y12777097D01*
X21182203Y12682203D01*
X21277097Y12604326D01*
X21385360Y12546458D01*
X21502833Y12510823D01*
X21625000Y12498791D01*
X22875000Y12498791D01*
X22997167Y12510823D01*
X23114640Y12546458D01*
X23222903Y12604326D01*
X23317797Y12682203D01*
X23395674Y12777097D01*
X23453542Y12885360D01*
X23489177Y13002833D01*
X23501209Y13125000D01*
X23501209Y13875000D01*
X23489177Y13997167D01*
X23453542Y14114640D01*
X23395674Y14222903D01*
X23317797Y14317797D01*
X23222903Y14395674D01*
X23114640Y14453542D01*
X22997167Y14489177D01*
X22875000Y14501209D01*
X21625000Y14501209D01*
X21502833Y14489177D01*
X21385360Y14453542D01*
X21277097Y14395674D01*
X21182203Y14317797D01*
X21104326Y14222903D01*
X21046458Y14114640D01*
X21026850Y14050000D01*
X20477817Y14050000D01*
X19884159Y14643658D01*
X19875021Y14689598D01*
X19826022Y14807890D01*
X19754888Y14914351D01*
X19669239Y15000000D01*
X20998790Y15000000D01*
X21003617Y14950991D01*
X21017912Y14903866D01*
X21041127Y14860435D01*
X21072368Y14822368D01*
X21110435Y14791127D01*
X21153866Y14767912D01*
X21200991Y14753617D01*
X21250000Y14748790D01*
X22137500Y14750000D01*
X22200000Y14812500D01*
X22200000Y15700000D01*
X22300000Y15700000D01*
X22300000Y14812500D01*
X22362500Y14750000D01*
X23250000Y14748790D01*
X23299009Y14753617D01*
X23346134Y14767912D01*
X23389565Y14791127D01*
X23427632Y14822368D01*
X23458873Y14860435D01*
X23482088Y14903866D01*
X23496383Y14950991D01*
X23501210Y15000000D01*
X23500000Y15637500D01*
X23437500Y15700000D01*
X22300000Y15700000D01*
X22200000Y15700000D01*
X21062500Y15700000D01*
X21000000Y15637500D01*
X20998790Y15000000D01*
X19669239Y15000000D01*
X19664351Y15004888D01*
X19557890Y15076022D01*
X19439598Y15125021D01*
X19314019Y15150000D01*
X19185981Y15150000D01*
X19060402Y15125021D01*
X18942110Y15076022D01*
X18835649Y15004888D01*
X18745112Y14914351D01*
X18700000Y14846835D01*
X18700000Y15063605D01*
X20136395Y16500000D01*
X20998790Y16500000D01*
X21000000Y15862500D01*
X21062500Y15800000D01*
X22200000Y15800000D01*
X22200000Y16687500D01*
X22300000Y16687500D01*
X22300000Y15800000D01*
X23437500Y15800000D01*
X23500000Y15862500D01*
X23501210Y16500000D01*
X23496383Y16549009D01*
X23482088Y16596134D01*
X23458873Y16639565D01*
X23427632Y16677632D01*
X23389565Y16708873D01*
X23346134Y16732088D01*
X23299009Y16746383D01*
X23250000Y16751210D01*
X22362500Y16750000D01*
X22300000Y16687500D01*
X22200000Y16687500D01*
X22137500Y16750000D01*
X21250000Y16751210D01*
X21200991Y16746383D01*
X21153866Y16732088D01*
X21110435Y16708873D01*
X21072368Y16677632D01*
X21041127Y16639565D01*
X21017912Y16596134D01*
X21003617Y16549009D01*
X20998790Y16500000D01*
X20136395Y16500000D01*
X20302572Y16666176D01*
X20319737Y16680263D01*
X20333824Y16697428D01*
X20333828Y16697432D01*
X20375971Y16748783D01*
X20417757Y16826959D01*
X20423672Y16846458D01*
X20443489Y16911785D01*
X20450000Y16977895D01*
X20450000Y16977906D01*
X20452176Y17000000D01*
X20450000Y17022094D01*
X20450000Y18818341D01*
X21150000Y18818341D01*
X21150000Y18601659D01*
X21192273Y18389142D01*
X21275193Y18188955D01*
X21395575Y18008791D01*
X21548791Y17855575D01*
X21728955Y17735193D01*
X21929142Y17652273D01*
X22141659Y17610000D01*
X22358341Y17610000D01*
X22570858Y17652273D01*
X22771045Y17735193D01*
X22951209Y17855575D01*
X23104425Y18008791D01*
X23224807Y18188955D01*
X23307727Y18389142D01*
X23350000Y18601659D01*
X23350000Y18818341D01*
X23307727Y19030858D01*
X23224807Y19231045D01*
X23104425Y19411209D01*
X22951209Y19564425D01*
X22771045Y19684807D01*
X22570858Y19767727D01*
X22358341Y19810000D01*
X22141659Y19810000D01*
X21929142Y19767727D01*
X21728955Y19684807D01*
X21548791Y19564425D01*
X21395575Y19411209D01*
X21275193Y19231045D01*
X21192273Y19030858D01*
X21150000Y18818341D01*
X20450000Y18818341D01*
X20450000Y19527906D01*
X20452176Y19550000D01*
X20450000Y19572094D01*
X20450000Y19572105D01*
X20443489Y19638215D01*
X20417757Y19723041D01*
X20403347Y19750000D01*
X20375971Y19801217D01*
X20333828Y19852568D01*
X20333824Y19852572D01*
X20319737Y19869737D01*
X20302573Y19883823D01*
X19483829Y20702567D01*
X19469737Y20719737D01*
X19401216Y20775971D01*
X19401108Y20776029D01*
X19389177Y20897167D01*
X19353542Y21014640D01*
X19295674Y21122903D01*
X19217797Y21217797D01*
X19122903Y21295674D01*
X19014640Y21353542D01*
X18897167Y21389177D01*
X18775000Y21401209D01*
X17985187Y21401209D01*
X17286396Y22100000D01*
X21148791Y22100000D01*
X21148791Y20400000D01*
X21153618Y20350992D01*
X21167913Y20303866D01*
X21191127Y20260436D01*
X21222368Y20222368D01*
X21260436Y20191127D01*
X21303866Y20167913D01*
X21350992Y20153618D01*
X21400000Y20148791D01*
X23100000Y20148791D01*
X23149008Y20153618D01*
X23196134Y20167913D01*
X23239564Y20191127D01*
X23277632Y20222368D01*
X23308873Y20260436D01*
X23332087Y20303866D01*
X23346382Y20350992D01*
X23351209Y20400000D01*
X23351209Y22100000D01*
X23346382Y22149008D01*
X23332087Y22196134D01*
X23308873Y22239564D01*
X23277632Y22277632D01*
X23239564Y22308873D01*
X23196134Y22332087D01*
X23149008Y22346382D01*
X23100000Y22351209D01*
X21400000Y22351209D01*
X21350992Y22346382D01*
X21303866Y22332087D01*
X21260436Y22308873D01*
X21222368Y22277632D01*
X21191127Y22239564D01*
X21167913Y22196134D01*
X21153618Y22149008D01*
X21148791Y22100000D01*
X17286396Y22100000D01*
X15333827Y24052568D01*
X15319737Y24069737D01*
X15251216Y24125971D01*
X15173041Y24167757D01*
X15088215Y24193489D01*
X15022105Y24200000D01*
X15022094Y24200000D01*
X15000000Y24202176D01*
X14977906Y24200000D01*
X10436396Y24200000D01*
X10386396Y24250000D01*
X15998790Y24250000D01*
X16003617Y24200991D01*
X16017912Y24153866D01*
X16041127Y24110435D01*
X16072368Y24072368D01*
X16110435Y24041127D01*
X16153866Y24017912D01*
X16200991Y24003617D01*
X16250000Y23998790D01*
X17137500Y24000000D01*
X17200000Y24062500D01*
X17200000Y24950000D01*
X17300000Y24950000D01*
X17300000Y24062500D01*
X17362500Y24000000D01*
X18250000Y23998790D01*
X18299009Y24003617D01*
X18346134Y24017912D01*
X18389565Y24041127D01*
X18427632Y24072368D01*
X18458873Y24110435D01*
X18482088Y24153866D01*
X18496383Y24200991D01*
X18501210Y24250000D01*
X18500000Y24887500D01*
X18437500Y24950000D01*
X17300000Y24950000D01*
X17200000Y24950000D01*
X16062500Y24950000D01*
X16000000Y24887500D01*
X15998790Y24250000D01*
X10386396Y24250000D01*
X9150000Y25486395D01*
X9150000Y25564019D01*
X9125021Y25689598D01*
X9100002Y25750000D01*
X15998790Y25750000D01*
X16000000Y25112500D01*
X16062500Y25050000D01*
X17200000Y25050000D01*
X17200000Y25937500D01*
X17300000Y25937500D01*
X17300000Y25050000D01*
X18437500Y25050000D01*
X18500000Y25112500D01*
X18501210Y25750000D01*
X18496383Y25799009D01*
X18482088Y25846134D01*
X18458873Y25889565D01*
X18427632Y25927632D01*
X18389565Y25958873D01*
X18346134Y25982088D01*
X18299009Y25996383D01*
X18250000Y26001210D01*
X17362500Y26000000D01*
X17300000Y25937500D01*
X17200000Y25937500D01*
X17137500Y26000000D01*
X16250000Y26001210D01*
X16200991Y25996383D01*
X16153866Y25982088D01*
X16110435Y25958873D01*
X16072368Y25927632D01*
X16041127Y25889565D01*
X16017912Y25846134D01*
X16003617Y25799009D01*
X15998790Y25750000D01*
X9100002Y25750000D01*
X9076022Y25807890D01*
X9004888Y25914351D01*
X8914351Y26004888D01*
X8807890Y26076022D01*
X8689598Y26125021D01*
X8564019Y26150000D01*
X8435981Y26150000D01*
X8310402Y26125021D01*
X8192110Y26076022D01*
X8085649Y26004888D01*
X7995112Y25914351D01*
X7923978Y25807890D01*
X7874979Y25689598D01*
X7850000Y25564019D01*
X7850000Y25435981D01*
X7874979Y25310402D01*
X7923978Y25192110D01*
X7995112Y25085649D01*
X8085649Y24995112D01*
X8192110Y24923978D01*
X8310402Y24874979D01*
X8435981Y24850000D01*
X8513605Y24850000D01*
X9916176Y23447428D01*
X9930263Y23430263D01*
X9947428Y23416176D01*
X9947432Y23416172D01*
X9998783Y23374029D01*
X10076959Y23332243D01*
X10161785Y23306511D01*
X10227895Y23300000D01*
X10227906Y23300000D01*
X10250000Y23297824D01*
X10272094Y23300000D01*
X14813605Y23300000D01*
X16999580Y21114024D01*
X16946458Y21014640D01*
X16910823Y20897167D01*
X16898791Y20775000D01*
X16898791Y20025000D01*
X16910823Y19902833D01*
X16946458Y19785360D01*
X17004326Y19677097D01*
X17082203Y19582203D01*
X17177097Y19504326D01*
X17285360Y19446458D01*
X17402833Y19410823D01*
X17525000Y19398791D01*
X18775000Y19398791D01*
X18897167Y19410823D01*
X19014640Y19446458D01*
X19122903Y19504326D01*
X19217797Y19582203D01*
X19269005Y19644600D01*
X19550000Y19363604D01*
X19550001Y17186397D01*
X17947434Y15583829D01*
X17930263Y15569737D01*
X17916173Y15552568D01*
X17916172Y15552567D01*
X17874029Y15501216D01*
X17836104Y15430263D01*
X17832243Y15423040D01*
X17806511Y15338214D01*
X17800000Y15272104D01*
X17800000Y15272094D01*
X17797824Y15250000D01*
X17800000Y15227905D01*
X17800001Y13522104D01*
X17797824Y13500000D01*
X17806512Y13411785D01*
X17832243Y13326960D01*
X17874029Y13248784D01*
X17916172Y13197433D01*
X17916177Y13197428D01*
X17930264Y13180263D01*
X17947429Y13166176D01*
X18550000Y12563604D01*
X18550001Y10686396D01*
X18447426Y10583821D01*
X18430255Y10569729D01*
X18427306Y10566136D01*
X18335641Y10504888D01*
X18245104Y10414351D01*
X18173970Y10307890D01*
X18124971Y10189598D01*
X18099992Y10064019D01*
X18099992Y9986395D01*
X18063597Y9950000D01*
X7772091Y9950000D01*
X7749999Y9952176D01*
X7727907Y9950000D01*
X7727895Y9950000D01*
X7661785Y9943489D01*
X7576959Y9917757D01*
X7498783Y9875971D01*
X7447432Y9833828D01*
X7447428Y9833824D01*
X7430263Y9819737D01*
X7416176Y9802572D01*
X5013605Y7400000D01*
X4935981Y7400000D01*
X4810402Y7375021D01*
X4692110Y7326022D01*
X4585649Y7254888D01*
X4495112Y7164351D01*
X4423978Y7057890D01*
X4374979Y6939598D01*
X4350000Y6814019D01*
X4200000Y6814019D01*
X4200000Y8563605D01*
X6183411Y10547015D01*
X17289718Y10547015D01*
X17344606Y10492127D01*
X17451067Y10420993D01*
X17569359Y10371994D01*
X17694938Y10347015D01*
X17822976Y10347015D01*
X17948555Y10371994D01*
X18066847Y10420993D01*
X18173308Y10492127D01*
X18263845Y10582664D01*
X18334979Y10689125D01*
X18383978Y10807417D01*
X18408957Y10932996D01*
X18408957Y11061034D01*
X18383978Y11186613D01*
X18334979Y11304905D01*
X18263845Y11411366D01*
X18173308Y11501903D01*
X18066847Y11573037D01*
X17948555Y11622036D01*
X17822976Y11647015D01*
X17745353Y11647015D01*
X17450000Y11942367D01*
X17450000Y15713605D01*
X18452572Y16716176D01*
X18469737Y16730263D01*
X18483824Y16747428D01*
X18483828Y16747432D01*
X18525971Y16798783D01*
X18525975Y16798791D01*
X18775000Y16798791D01*
X18897167Y16810823D01*
X19014640Y16846458D01*
X19122903Y16904326D01*
X19217797Y16982203D01*
X19295674Y17077097D01*
X19353542Y17185360D01*
X19389177Y17302833D01*
X19401209Y17425000D01*
X19401209Y18175000D01*
X19389177Y18297167D01*
X19353542Y18414640D01*
X19295674Y18522903D01*
X19217797Y18617797D01*
X19122903Y18695674D01*
X19014640Y18753542D01*
X18897167Y18789177D01*
X18775000Y18801209D01*
X17585187Y18801209D01*
X16450000Y19936395D01*
X16450000Y20727906D01*
X16452176Y20750001D01*
X16450000Y20772095D01*
X16450000Y20772105D01*
X16443489Y20838215D01*
X16417757Y20923041D01*
X16401454Y20953542D01*
X16375971Y21001217D01*
X16333828Y21052568D01*
X16333824Y21052572D01*
X16319737Y21069737D01*
X16302572Y21083824D01*
X14333827Y23052568D01*
X14319737Y23069737D01*
X14251216Y23125971D01*
X14173041Y23167757D01*
X14088215Y23193489D01*
X14022105Y23200000D01*
X14022094Y23200000D01*
X14000000Y23202176D01*
X13977906Y23200000D01*
X8936396Y23200000D01*
X7644418Y24491977D01*
X7644418Y24558437D01*
X7619439Y24684016D01*
X7570440Y24802308D01*
X7499306Y24908769D01*
X7408769Y24999306D01*
X7302308Y25070440D01*
X7184016Y25119439D01*
X7058437Y25144418D01*
X6930399Y25144418D01*
X6804820Y25119439D01*
X6686528Y25070440D01*
X6580067Y24999306D01*
X6489530Y24908769D01*
X6418396Y24802308D01*
X6369397Y24684016D01*
X6344418Y24558437D01*
X6344418Y24430399D01*
X6369397Y24304820D01*
X6418396Y24186528D01*
X6489530Y24080067D01*
X6580067Y23989530D01*
X6686528Y23918396D01*
X6804820Y23869397D01*
X6930399Y23844418D01*
X7019187Y23844418D01*
X8416176Y22447428D01*
X8430263Y22430263D01*
X8447428Y22416176D01*
X8447432Y22416172D01*
X8498783Y22374029D01*
X8550507Y22346382D01*
X8576959Y22332243D01*
X8661785Y22306511D01*
X8727895Y22300000D01*
X8727906Y22300000D01*
X8750000Y22297824D01*
X8772094Y22300000D01*
X13813605Y22300000D01*
X15550001Y20563603D01*
X15550000Y19772095D01*
X15547824Y19750000D01*
X15550000Y19727906D01*
X15550000Y19727896D01*
X15556511Y19661786D01*
X15563662Y19638214D01*
X15582243Y19576960D01*
X15624029Y19498784D01*
X15654394Y19461785D01*
X15680263Y19430263D01*
X15697434Y19416171D01*
X16902361Y18211244D01*
X16898791Y18175000D01*
X16898791Y17425000D01*
X16910823Y17302833D01*
X16946458Y17185360D01*
X17004326Y17077097D01*
X17082203Y16982203D01*
X17177097Y16904326D01*
X17285360Y16846458D01*
X17304313Y16840709D01*
X16697434Y16233829D01*
X16680263Y16219737D01*
X16666172Y16202567D01*
X16624029Y16151216D01*
X16588739Y16085193D01*
X16582243Y16073040D01*
X16556511Y15988214D01*
X16550000Y15922104D01*
X16550000Y15922094D01*
X16547824Y15900000D01*
X16550000Y15877906D01*
X16550001Y11778076D01*
X16547824Y11755972D01*
X16556512Y11667757D01*
X16582243Y11582932D01*
X16624029Y11504756D01*
X16666172Y11453405D01*
X16666177Y11453400D01*
X16671417Y11447015D01*
X6019109Y11447015D01*
X5997014Y11449191D01*
X5974920Y11447015D01*
X5974910Y11447015D01*
X5908800Y11440504D01*
X5823974Y11414772D01*
X5745798Y11372986D01*
X5694447Y11330843D01*
X5694443Y11330839D01*
X5677278Y11316752D01*
X5663191Y11299587D01*
X3447429Y9083824D01*
X3430264Y9069737D01*
X3416177Y9052572D01*
X3416172Y9052567D01*
X3374029Y9001216D01*
X3332243Y8923040D01*
X3306512Y8838215D01*
X3297824Y8750000D01*
X2661914Y8750000D01*
X2774807Y8918955D01*
X2857727Y9119142D01*
X2900000Y9331659D01*
X2900000Y9548341D01*
X2857727Y9760858D01*
X2774807Y9961045D01*
X2654425Y10141209D01*
X2501209Y10294425D01*
X2321045Y10414807D01*
X2120858Y10497727D01*
X1908341Y10540000D01*
X1691659Y10540000D01*
X1479142Y10497727D01*
X1278955Y10414807D01*
X1098791Y10294425D01*
X945575Y10141209D01*
X825193Y9961045D01*
X742273Y9760858D01*
X700000Y9548341D01*
X175000Y9548341D01*
X175000Y12088341D01*
X700000Y12088341D01*
X700000Y11871659D01*
X742273Y11659142D01*
X825193Y11458955D01*
X945575Y11278791D01*
X1098791Y11125575D01*
X1278955Y11005193D01*
X1479142Y10922273D01*
X1691659Y10880000D01*
X1908341Y10880000D01*
X2120858Y10922273D01*
X2321045Y11005193D01*
X2501209Y11125575D01*
X2654425Y11278791D01*
X2774807Y11458955D01*
X2857727Y11659142D01*
X2900000Y11871659D01*
X2900000Y12088341D01*
X2857727Y12300858D01*
X2774807Y12501045D01*
X2654425Y12681209D01*
X2501209Y12834425D01*
X2321045Y12954807D01*
X2120858Y13037727D01*
X1908341Y13080000D01*
X1691659Y13080000D01*
X1479142Y13037727D01*
X1278955Y12954807D01*
X1098791Y12834425D01*
X945575Y12681209D01*
X825193Y12501045D01*
X742273Y12300858D01*
X700000Y12088341D01*
X175000Y12088341D01*
X175000Y14628341D01*
X700000Y14628341D01*
X700000Y14411659D01*
X742273Y14199142D01*
X825193Y13998955D01*
X945575Y13818791D01*
X1098791Y13665575D01*
X1278955Y13545193D01*
X1479142Y13462273D01*
X1691659Y13420000D01*
X1908341Y13420000D01*
X2120858Y13462273D01*
X2321045Y13545193D01*
X2501209Y13665575D01*
X2654425Y13818791D01*
X2774807Y13998955D01*
X2857727Y14199142D01*
X2897680Y14400000D01*
X4798790Y14400000D01*
X4803617Y14350991D01*
X4817912Y14303866D01*
X4841127Y14260435D01*
X4872368Y14222368D01*
X4910435Y14191127D01*
X4953866Y14167912D01*
X5000991Y14153617D01*
X5050000Y14148790D01*
X5637500Y14150000D01*
X5700000Y14212500D01*
X5700000Y14925000D01*
X5800000Y14925000D01*
X5800000Y14212500D01*
X5862500Y14150000D01*
X6450000Y14148790D01*
X6499009Y14153617D01*
X6546134Y14167912D01*
X6589565Y14191127D01*
X6627632Y14222368D01*
X6658873Y14260435D01*
X6682088Y14303866D01*
X6696383Y14350991D01*
X6701210Y14400000D01*
X6700000Y14862500D01*
X6637500Y14925000D01*
X5800000Y14925000D01*
X5700000Y14925000D01*
X4862500Y14925000D01*
X4800000Y14862500D01*
X4798790Y14400000D01*
X2897680Y14400000D01*
X2900000Y14411659D01*
X2900000Y14628341D01*
X2857727Y14840858D01*
X2774807Y15041045D01*
X2654425Y15221209D01*
X2501209Y15374425D01*
X2321045Y15494807D01*
X2187798Y15550000D01*
X4798790Y15550000D01*
X4800000Y15087500D01*
X4862500Y15025000D01*
X5700000Y15025000D01*
X5700000Y15737500D01*
X5800000Y15737500D01*
X5800000Y15025000D01*
X6637500Y15025000D01*
X6700000Y15087500D01*
X6701210Y15550000D01*
X6696383Y15599009D01*
X6682088Y15646134D01*
X6658873Y15689565D01*
X6627632Y15727632D01*
X6589565Y15758873D01*
X6546134Y15782088D01*
X6499009Y15796383D01*
X6450000Y15801210D01*
X5862500Y15800000D01*
X5800000Y15737500D01*
X5700000Y15737500D01*
X5637500Y15800000D01*
X5050000Y15801210D01*
X5000991Y15796383D01*
X4953866Y15782088D01*
X4910435Y15758873D01*
X4872368Y15727632D01*
X4841127Y15689565D01*
X4817912Y15646134D01*
X4803617Y15599009D01*
X4798790Y15550000D01*
X2187798Y15550000D01*
X2120858Y15577727D01*
X1908341Y15620000D01*
X1691659Y15620000D01*
X1479142Y15577727D01*
X1278955Y15494807D01*
X1098791Y15374425D01*
X945575Y15221209D01*
X825193Y15041045D01*
X742273Y14840858D01*
X700000Y14628341D01*
X175000Y14628341D01*
X175000Y17168341D01*
X700000Y17168341D01*
X700000Y16951659D01*
X742273Y16739142D01*
X825193Y16538955D01*
X945575Y16358791D01*
X1098791Y16205575D01*
X1278955Y16085193D01*
X1479142Y16002273D01*
X1691659Y15960000D01*
X1908341Y15960000D01*
X2120858Y16002273D01*
X2321045Y16085193D01*
X2501209Y16205575D01*
X2654425Y16358791D01*
X2774807Y16538955D01*
X2857727Y16739142D01*
X2900000Y16951659D01*
X2900000Y17168341D01*
X2857727Y17380858D01*
X2774807Y17581045D01*
X2654425Y17761209D01*
X2501209Y17914425D01*
X2321045Y18034807D01*
X2120858Y18117727D01*
X1908341Y18160000D01*
X1691659Y18160000D01*
X1479142Y18117727D01*
X1278955Y18034807D01*
X1098791Y17914425D01*
X945575Y17761209D01*
X825193Y17581045D01*
X742273Y17380858D01*
X700000Y17168341D01*
X175000Y17168341D01*
X175000Y20450000D01*
X698791Y20450000D01*
X698791Y18750000D01*
X703618Y18700992D01*
X717913Y18653866D01*
X741127Y18610436D01*
X772368Y18572368D01*
X810436Y18541127D01*
X853866Y18517913D01*
X900992Y18503618D01*
X950000Y18498791D01*
X2650000Y18498791D01*
X2699008Y18503618D01*
X2746134Y18517913D01*
X2789564Y18541127D01*
X2827632Y18572368D01*
X2858873Y18610436D01*
X2882087Y18653866D01*
X2896382Y18700992D01*
X2901209Y18750000D01*
X2901209Y20375000D01*
X4748791Y20375000D01*
X4748791Y19125000D01*
X4760823Y19002833D01*
X4796458Y18885360D01*
X4854326Y18777097D01*
X4932203Y18682203D01*
X5027097Y18604326D01*
X5135360Y18546458D01*
X5252833Y18510823D01*
X5300000Y18506178D01*
X5300001Y17851209D01*
X5299999Y17851209D01*
X5202218Y17841578D01*
X5108195Y17813057D01*
X5021543Y17766740D01*
X4945591Y17704409D01*
X4883260Y17628457D01*
X4836943Y17541805D01*
X4808422Y17447782D01*
X4798791Y17350001D01*
X4798791Y16699999D01*
X4808422Y16602218D01*
X4836943Y16508195D01*
X4883260Y16421543D01*
X4945591Y16345591D01*
X5021543Y16283260D01*
X5108195Y16236943D01*
X5202218Y16208422D01*
X5299999Y16198791D01*
X6200001Y16198791D01*
X6297782Y16208422D01*
X6391805Y16236943D01*
X6478457Y16283260D01*
X6554409Y16345591D01*
X6616740Y16421543D01*
X6663057Y16508195D01*
X6691578Y16602218D01*
X6701209Y16699999D01*
X6701209Y17350001D01*
X6691578Y17447782D01*
X6663057Y17541805D01*
X6616740Y17628457D01*
X6554409Y17704409D01*
X6478457Y17766740D01*
X6391805Y17813057D01*
X6297782Y17841578D01*
X6200001Y17851209D01*
X6200000Y17851209D01*
X6200000Y18506178D01*
X6247167Y18510823D01*
X6364640Y18546458D01*
X6472903Y18604326D01*
X6498094Y18625000D01*
X7047824Y18625000D01*
X7050001Y18602896D01*
X7050000Y15772095D01*
X7047824Y15750000D01*
X7050000Y15727906D01*
X7050000Y15727896D01*
X7056511Y15661786D01*
X7081241Y15580263D01*
X7082243Y15576960D01*
X7124029Y15498784D01*
X7158721Y15456512D01*
X7180263Y15430263D01*
X7197434Y15416171D01*
X8666176Y13947428D01*
X8680263Y13930263D01*
X8697428Y13916176D01*
X8697432Y13916172D01*
X8748783Y13874029D01*
X8793738Y13850000D01*
X8826959Y13832243D01*
X8911785Y13806511D01*
X8977895Y13800000D01*
X8977907Y13800000D01*
X8999999Y13797824D01*
X9022091Y13800000D01*
X9248791Y13800000D01*
X9248791Y13775000D01*
X9260823Y13652833D01*
X9296458Y13535360D01*
X9354326Y13427097D01*
X9432203Y13332203D01*
X9527097Y13254326D01*
X9635360Y13196458D01*
X9752833Y13160823D01*
X9875000Y13148791D01*
X11125000Y13148791D01*
X11247167Y13160823D01*
X11364640Y13196458D01*
X11472903Y13254326D01*
X11567797Y13332203D01*
X11645674Y13427097D01*
X11703542Y13535360D01*
X11739177Y13652833D01*
X11751209Y13775000D01*
X11751209Y14525000D01*
X11739177Y14647167D01*
X11703542Y14764640D01*
X11645674Y14872903D01*
X11567797Y14967797D01*
X11472903Y15045674D01*
X11364640Y15103542D01*
X11247167Y15139177D01*
X11125000Y15151209D01*
X9875000Y15151209D01*
X9752833Y15139177D01*
X9635360Y15103542D01*
X9527097Y15045674D01*
X9432203Y14967797D01*
X9354326Y14872903D01*
X9296458Y14764640D01*
X9276850Y14700000D01*
X9186396Y14700000D01*
X7950000Y15936395D01*
X7950000Y16500000D01*
X9248790Y16500000D01*
X9253617Y16450991D01*
X9267912Y16403866D01*
X9291127Y16360435D01*
X9322368Y16322368D01*
X9360435Y16291127D01*
X9403866Y16267912D01*
X9450991Y16253617D01*
X9500000Y16248790D01*
X10437500Y16250000D01*
X10500000Y16312500D01*
X10500000Y17350000D01*
X10600000Y17350000D01*
X10600000Y16312500D01*
X10662500Y16250000D01*
X11600000Y16248790D01*
X11649009Y16253617D01*
X11696134Y16267912D01*
X11739565Y16291127D01*
X11777632Y16322368D01*
X11808873Y16360435D01*
X11832088Y16403866D01*
X11846383Y16450991D01*
X11851210Y16500000D01*
X11850000Y17287500D01*
X11787500Y17350000D01*
X10600000Y17350000D01*
X10500000Y17350000D01*
X9312500Y17350000D01*
X9250000Y17287500D01*
X9248790Y16500000D01*
X7950000Y16500000D01*
X7950000Y18438605D01*
X8761396Y19250000D01*
X9248791Y19250000D01*
X9248791Y18800000D01*
X9253618Y18750992D01*
X9267913Y18703866D01*
X9291127Y18660436D01*
X9322368Y18622368D01*
X9360436Y18591127D01*
X9403866Y18567913D01*
X9450992Y18553618D01*
X9487720Y18550001D01*
X9450991Y18546383D01*
X9403866Y18532088D01*
X9360435Y18508873D01*
X9322368Y18477632D01*
X9291127Y18439565D01*
X9267912Y18396134D01*
X9253617Y18349009D01*
X9248790Y18300000D01*
X9250000Y17512500D01*
X9312500Y17450000D01*
X10500000Y17450000D01*
X10500000Y17470000D01*
X10600000Y17470000D01*
X10600000Y17450000D01*
X11787500Y17450000D01*
X11850000Y17512500D01*
X11851210Y18300000D01*
X11846383Y18349009D01*
X11832088Y18396134D01*
X11808873Y18439565D01*
X11777632Y18477632D01*
X11739565Y18508873D01*
X11696134Y18532088D01*
X11649009Y18546383D01*
X11612280Y18550001D01*
X11649008Y18553618D01*
X11696134Y18567913D01*
X11739564Y18591127D01*
X11777632Y18622368D01*
X11808873Y18660436D01*
X11832087Y18703866D01*
X11846382Y18750992D01*
X11851209Y18800000D01*
X12148790Y18800000D01*
X12153617Y18750991D01*
X12167912Y18703866D01*
X12191127Y18660435D01*
X12222368Y18622368D01*
X12260435Y18591127D01*
X12303866Y18567912D01*
X12350991Y18553617D01*
X12387720Y18549999D01*
X12350992Y18546382D01*
X12303866Y18532087D01*
X12260436Y18508873D01*
X12222368Y18477632D01*
X12191127Y18439564D01*
X12167913Y18396134D01*
X12153618Y18349008D01*
X12148791Y18300000D01*
X12148791Y16500000D01*
X12153618Y16450992D01*
X12167913Y16403866D01*
X12191127Y16360436D01*
X12222368Y16322368D01*
X12260436Y16291127D01*
X12303866Y16267913D01*
X12350992Y16253618D01*
X12400000Y16248791D01*
X13364814Y16248791D01*
X14462395Y15151209D01*
X14375000Y15151209D01*
X14252833Y15139177D01*
X14135360Y15103542D01*
X14027097Y15045674D01*
X13932203Y14967797D01*
X13854326Y14872903D01*
X13796458Y14764640D01*
X13760823Y14647167D01*
X13748791Y14525000D01*
X13748791Y13775000D01*
X13760823Y13652833D01*
X13796458Y13535360D01*
X13854326Y13427097D01*
X13932203Y13332203D01*
X14027097Y13254326D01*
X14135360Y13196458D01*
X14252833Y13160823D01*
X14375000Y13148791D01*
X15625000Y13148791D01*
X15747167Y13160823D01*
X15864640Y13196458D01*
X15972903Y13254326D01*
X16067797Y13332203D01*
X16145674Y13427097D01*
X16203542Y13535360D01*
X16239177Y13652833D01*
X16251209Y13775000D01*
X16251209Y14525000D01*
X16239177Y14647167D01*
X16203542Y14764640D01*
X16145674Y14872903D01*
X16067797Y14967797D01*
X15972903Y15045674D01*
X15864640Y15103542D01*
X15747167Y15139177D01*
X15625000Y15151209D01*
X15450000Y15151209D01*
X15450000Y15227906D01*
X15452176Y15250001D01*
X15450000Y15272095D01*
X15450000Y15272105D01*
X15443489Y15338215D01*
X15417757Y15423041D01*
X15399866Y15456512D01*
X15375971Y15501217D01*
X15333828Y15552568D01*
X15333824Y15552572D01*
X15319737Y15569737D01*
X15302573Y15583823D01*
X14610698Y16275698D01*
X14639564Y16291127D01*
X14677632Y16322368D01*
X14708873Y16360436D01*
X14732087Y16403866D01*
X14746382Y16450992D01*
X14751209Y16500000D01*
X14751209Y18300000D01*
X14746382Y18349008D01*
X14732087Y18396134D01*
X14708873Y18439564D01*
X14677632Y18477632D01*
X14639564Y18508873D01*
X14596134Y18532087D01*
X14549008Y18546382D01*
X14512280Y18549999D01*
X14549009Y18553617D01*
X14596134Y18567912D01*
X14639565Y18591127D01*
X14677632Y18622368D01*
X14708873Y18660435D01*
X14732088Y18703866D01*
X14746383Y18750991D01*
X14751210Y18800000D01*
X14750000Y19587500D01*
X14687500Y19650000D01*
X13500000Y19650000D01*
X13500000Y19630000D01*
X13400000Y19630000D01*
X13400000Y19650000D01*
X12212500Y19650000D01*
X12150000Y19587500D01*
X12148790Y18800000D01*
X11851209Y18800000D01*
X11851209Y20600000D01*
X12148790Y20600000D01*
X12150000Y19812500D01*
X12212500Y19750000D01*
X13400000Y19750000D01*
X13400000Y20787500D01*
X13500000Y20787500D01*
X13500000Y19750000D01*
X14687500Y19750000D01*
X14750000Y19812500D01*
X14751210Y20600000D01*
X14746383Y20649009D01*
X14732088Y20696134D01*
X14708873Y20739565D01*
X14677632Y20777632D01*
X14639565Y20808873D01*
X14596134Y20832088D01*
X14549009Y20846383D01*
X14500000Y20851210D01*
X13562500Y20850000D01*
X13500000Y20787500D01*
X13400000Y20787500D01*
X13337500Y20850000D01*
X12400000Y20851210D01*
X12350991Y20846383D01*
X12303866Y20832088D01*
X12260435Y20808873D01*
X12222368Y20777632D01*
X12191127Y20739565D01*
X12167912Y20696134D01*
X12153617Y20649009D01*
X12148790Y20600000D01*
X11851209Y20600000D01*
X11846382Y20649008D01*
X11832087Y20696134D01*
X11808873Y20739564D01*
X11777632Y20777632D01*
X11739564Y20808873D01*
X11696134Y20832087D01*
X11649008Y20846382D01*
X11600000Y20851209D01*
X9500000Y20851209D01*
X9450992Y20846382D01*
X9403866Y20832087D01*
X9360436Y20808873D01*
X9322368Y20777632D01*
X9291127Y20739564D01*
X9267913Y20696134D01*
X9253618Y20649008D01*
X9248791Y20600000D01*
X9248791Y20150000D01*
X8597094Y20150000D01*
X8575000Y20152176D01*
X8552906Y20150000D01*
X8552895Y20150000D01*
X8486785Y20143489D01*
X8401959Y20117757D01*
X8323783Y20075971D01*
X8272432Y20033828D01*
X8272428Y20033824D01*
X8255263Y20019737D01*
X8241176Y20002572D01*
X7197429Y18958824D01*
X7180264Y18944737D01*
X7166177Y18927572D01*
X7166172Y18927567D01*
X7124029Y18876216D01*
X7082243Y18798040D01*
X7056512Y18713215D01*
X7047824Y18625000D01*
X6498094Y18625000D01*
X6567797Y18682203D01*
X6645674Y18777097D01*
X6703542Y18885360D01*
X6739177Y19002833D01*
X6751209Y19125000D01*
X6751209Y20375000D01*
X6739177Y20497167D01*
X6703542Y20614640D01*
X6645674Y20722903D01*
X6567797Y20817797D01*
X6472903Y20895674D01*
X6364640Y20953542D01*
X6247167Y20989177D01*
X6125000Y21001209D01*
X5375000Y21001209D01*
X5252833Y20989177D01*
X5135360Y20953542D01*
X5027097Y20895674D01*
X4932203Y20817797D01*
X4854326Y20722903D01*
X4796458Y20614640D01*
X4760823Y20497167D01*
X4748791Y20375000D01*
X2901209Y20375000D01*
X2901209Y20450000D01*
X2896382Y20499008D01*
X2882087Y20546134D01*
X2858873Y20589564D01*
X2827632Y20627632D01*
X2789564Y20658873D01*
X2746134Y20682087D01*
X2699008Y20696382D01*
X2650000Y20701209D01*
X950000Y20701209D01*
X900992Y20696382D01*
X853866Y20682087D01*
X810436Y20658873D01*
X772368Y20627632D01*
X741127Y20589564D01*
X717913Y20546134D01*
X703618Y20499008D01*
X698791Y20450000D01*
X175000Y20450000D01*
X175000Y28625000D01*
X3998791Y28625000D01*
X3998791Y27875000D01*
X4010823Y27752833D01*
X4046458Y27635360D01*
X4104326Y27527097D01*
X4182203Y27432203D01*
X4277097Y27354326D01*
X4385360Y27296458D01*
X4502833Y27260823D01*
X4625000Y27248791D01*
X4800000Y27248791D01*
X4800001Y23772104D01*
X4797824Y23750000D01*
X4806512Y23661785D01*
X4832243Y23576960D01*
X4874029Y23498784D01*
X4916172Y23447433D01*
X4916177Y23447428D01*
X4930264Y23430263D01*
X4947429Y23416176D01*
X6916176Y21447428D01*
X6930263Y21430263D01*
X6947428Y21416176D01*
X6947432Y21416172D01*
X6998783Y21374029D01*
X7070587Y21335649D01*
X7076959Y21332243D01*
X7161785Y21306511D01*
X7227895Y21300000D01*
X7227905Y21300000D01*
X7249999Y21297824D01*
X7272094Y21300000D01*
X7780761Y21300000D01*
X7835649Y21245112D01*
X7942110Y21173978D01*
X8060402Y21124979D01*
X8185981Y21100000D01*
X8314019Y21100000D01*
X8439598Y21124979D01*
X8557890Y21173978D01*
X8664351Y21245112D01*
X8754888Y21335649D01*
X8826022Y21442110D01*
X8875021Y21560402D01*
X8900000Y21685981D01*
X8900000Y21814019D01*
X8875021Y21939598D01*
X8826022Y22057890D01*
X8754888Y22164351D01*
X8664351Y22254888D01*
X8557890Y22326022D01*
X8439598Y22375021D01*
X8314019Y22400000D01*
X8185981Y22400000D01*
X8060402Y22375021D01*
X7942110Y22326022D01*
X7835649Y22254888D01*
X7780761Y22200000D01*
X7436396Y22200000D01*
X5700000Y23936395D01*
X5700000Y26750000D01*
X9498790Y26750000D01*
X9503617Y26700991D01*
X9517912Y26653866D01*
X9541127Y26610435D01*
X9572368Y26572368D01*
X9610435Y26541127D01*
X9653866Y26517912D01*
X9700991Y26503617D01*
X9750000Y26498790D01*
X10637500Y26500000D01*
X10700000Y26562500D01*
X10700000Y27450000D01*
X10800000Y27450000D01*
X10800000Y26562500D01*
X10862500Y26500000D01*
X11750000Y26498790D01*
X11799009Y26503617D01*
X11846134Y26517912D01*
X11889565Y26541127D01*
X11927632Y26572368D01*
X11958873Y26610435D01*
X11982088Y26653866D01*
X11996383Y26700991D01*
X12001210Y26750000D01*
X12000000Y27387500D01*
X11937500Y27450000D01*
X10800000Y27450000D01*
X10700000Y27450000D01*
X9562500Y27450000D01*
X9500000Y27387500D01*
X9498790Y26750000D01*
X5700000Y26750000D01*
X5700000Y27248791D01*
X5875000Y27248791D01*
X5997167Y27260823D01*
X6114640Y27296458D01*
X6222903Y27354326D01*
X6317797Y27432203D01*
X6373436Y27500000D01*
X6748790Y27500000D01*
X6753617Y27450991D01*
X6767912Y27403866D01*
X6791127Y27360435D01*
X6822368Y27322368D01*
X6860435Y27291127D01*
X6903866Y27267912D01*
X6950991Y27253617D01*
X7000000Y27248790D01*
X7887500Y27250000D01*
X7950000Y27312500D01*
X7950000Y28200000D01*
X8050000Y28200000D01*
X8050000Y27312500D01*
X8112500Y27250000D01*
X9000000Y27248790D01*
X9049009Y27253617D01*
X9096134Y27267912D01*
X9139565Y27291127D01*
X9177632Y27322368D01*
X9208873Y27360435D01*
X9232088Y27403866D01*
X9246383Y27450991D01*
X9251210Y27500000D01*
X12248790Y27500000D01*
X12253617Y27450991D01*
X12267912Y27403866D01*
X12291127Y27360435D01*
X12322368Y27322368D01*
X12360435Y27291127D01*
X12403866Y27267912D01*
X12450991Y27253617D01*
X12500000Y27248790D01*
X13387500Y27250000D01*
X13450000Y27312500D01*
X13450000Y28200000D01*
X13550000Y28200000D01*
X13550000Y27312500D01*
X13612500Y27250000D01*
X14500000Y27248790D01*
X14549009Y27253617D01*
X14596134Y27267912D01*
X14639565Y27291127D01*
X14677632Y27322368D01*
X14708873Y27360435D01*
X14732088Y27403866D01*
X14746383Y27450991D01*
X14751210Y27500000D01*
X14998790Y27500000D01*
X15003617Y27450991D01*
X15017912Y27403866D01*
X15041127Y27360435D01*
X15072368Y27322368D01*
X15110435Y27291127D01*
X15153866Y27267912D01*
X15200991Y27253617D01*
X15250000Y27248790D01*
X16137500Y27250000D01*
X16200000Y27312500D01*
X16200000Y28200000D01*
X16300000Y28200000D01*
X16300000Y27312500D01*
X16362500Y27250000D01*
X17250000Y27248790D01*
X17299009Y27253617D01*
X17346134Y27267912D01*
X17389565Y27291127D01*
X17427632Y27322368D01*
X17458873Y27360435D01*
X17482088Y27403866D01*
X17496383Y27450991D01*
X17501210Y27500000D01*
X17500000Y28137500D01*
X17437500Y28200000D01*
X16300000Y28200000D01*
X16200000Y28200000D01*
X15062500Y28200000D01*
X15000000Y28137500D01*
X14998790Y27500000D01*
X14751210Y27500000D01*
X14750000Y28137500D01*
X14687500Y28200000D01*
X13550000Y28200000D01*
X13450000Y28200000D01*
X12312500Y28200000D01*
X12250000Y28137500D01*
X12248790Y27500000D01*
X9251210Y27500000D01*
X9250000Y28137500D01*
X9187500Y28200000D01*
X8050000Y28200000D01*
X7950000Y28200000D01*
X6812500Y28200000D01*
X6750000Y28137500D01*
X6748790Y27500000D01*
X6373436Y27500000D01*
X6395674Y27527097D01*
X6453542Y27635360D01*
X6489177Y27752833D01*
X6501209Y27875000D01*
X6501209Y28250000D01*
X9498790Y28250000D01*
X9500000Y27612500D01*
X9562500Y27550000D01*
X10700000Y27550000D01*
X10700000Y28437500D01*
X10800000Y28437500D01*
X10800000Y27550000D01*
X11937500Y27550000D01*
X12000000Y27612500D01*
X12001210Y28250000D01*
X11996383Y28299009D01*
X11982088Y28346134D01*
X11958873Y28389565D01*
X11927632Y28427632D01*
X11889565Y28458873D01*
X11846134Y28482088D01*
X11799009Y28496383D01*
X11750000Y28501210D01*
X10862500Y28500000D01*
X10800000Y28437500D01*
X10700000Y28437500D01*
X10637500Y28500000D01*
X9750000Y28501210D01*
X9700991Y28496383D01*
X9653866Y28482088D01*
X9610435Y28458873D01*
X9572368Y28427632D01*
X9541127Y28389565D01*
X9517912Y28346134D01*
X9503617Y28299009D01*
X9498790Y28250000D01*
X6501209Y28250000D01*
X6501209Y28625000D01*
X6489177Y28747167D01*
X6453542Y28864640D01*
X6395674Y28972903D01*
X6373437Y29000000D01*
X6748790Y29000000D01*
X6750000Y28362500D01*
X6812500Y28300000D01*
X7950000Y28300000D01*
X7950000Y29187500D01*
X8050000Y29187500D01*
X8050000Y28300000D01*
X9187500Y28300000D01*
X9250000Y28362500D01*
X9251210Y29000000D01*
X12248790Y29000000D01*
X12250000Y28362500D01*
X12312500Y28300000D01*
X13450000Y28300000D01*
X13450000Y29187500D01*
X13550000Y29187500D01*
X13550000Y28300000D01*
X14687500Y28300000D01*
X14750000Y28362500D01*
X14751210Y29000000D01*
X14998790Y29000000D01*
X15000000Y28362500D01*
X15062500Y28300000D01*
X16200000Y28300000D01*
X16200000Y29187500D01*
X16300000Y29187500D01*
X16300000Y28300000D01*
X17437500Y28300000D01*
X17500000Y28362500D01*
X17501210Y29000000D01*
X17496383Y29049009D01*
X17482088Y29096134D01*
X17458873Y29139565D01*
X17427632Y29177632D01*
X17389565Y29208873D01*
X17346134Y29232088D01*
X17299009Y29246383D01*
X17250000Y29251210D01*
X16362500Y29250000D01*
X16300000Y29187500D01*
X16200000Y29187500D01*
X16137500Y29250000D01*
X15250000Y29251210D01*
X15200991Y29246383D01*
X15153866Y29232088D01*
X15110435Y29208873D01*
X15072368Y29177632D01*
X15041127Y29139565D01*
X15017912Y29096134D01*
X15003617Y29049009D01*
X14998790Y29000000D01*
X14751210Y29000000D01*
X14746383Y29049009D01*
X14732088Y29096134D01*
X14708873Y29139565D01*
X14677632Y29177632D01*
X14639565Y29208873D01*
X14596134Y29232088D01*
X14549009Y29246383D01*
X14500000Y29251210D01*
X13612500Y29250000D01*
X13550000Y29187500D01*
X13450000Y29187500D01*
X13387500Y29250000D01*
X12500000Y29251210D01*
X12450991Y29246383D01*
X12403866Y29232088D01*
X12360435Y29208873D01*
X12322368Y29177632D01*
X12291127Y29139565D01*
X12267912Y29096134D01*
X12253617Y29049009D01*
X12248790Y29000000D01*
X9251210Y29000000D01*
X9246383Y29049009D01*
X9232088Y29096134D01*
X9208873Y29139565D01*
X9177632Y29177632D01*
X9139565Y29208873D01*
X9096134Y29232088D01*
X9049009Y29246383D01*
X9000000Y29251210D01*
X8112500Y29250000D01*
X8050000Y29187500D01*
X7950000Y29187500D01*
X7887500Y29250000D01*
X7000000Y29251210D01*
X6950991Y29246383D01*
X6903866Y29232088D01*
X6860435Y29208873D01*
X6822368Y29177632D01*
X6791127Y29139565D01*
X6767912Y29096134D01*
X6753617Y29049009D01*
X6748790Y29000000D01*
X6373437Y29000000D01*
X6317797Y29067797D01*
X6222903Y29145674D01*
X6114640Y29203542D01*
X5997167Y29239177D01*
X5875000Y29251209D01*
X4625000Y29251209D01*
X4502833Y29239177D01*
X4385360Y29203542D01*
X4277097Y29145674D01*
X4182203Y29067797D01*
X4104326Y28972903D01*
X4046458Y28864640D01*
X4010823Y28747167D01*
X3998791Y28625000D01*
X175000Y28625000D01*
X175000Y29825000D01*
X23825001Y29825000D01*
X23825000Y175000D01*
M02*
